<svg width="600" height="600" viewBox="0 0 600 600" fill="none" xmlns="http://www.w3.org/2000/svg">
<path d="M301.12 259.645C254.361 294.956 226.611 389.878 226.611 389.878L255.859 428.791C255.859 428.791 317.696 412.022 354.4 394.258C381.127 381.323 401.931 372.553 425.569 354.584C444.74 340.011 450.862 327.328 451.785 303.48C452.789 277.537 439.561 261.216 418.63 245.856C397.877 230.626 379.773 227.541 354.322 231.391C331.062 234.909 318.751 246.331 301.12 259.645Z" fill="black" stroke="black" stroke-width="5"/>
<path d="M365.654 232.292C367.89 318.721 319.388 364.108 255.385 429.435" stroke="black" stroke-width="3" stroke-linecap="round"/>
<path d="M400.741 237.829C402.977 324.257 375.081 346.584 311.078 411.911" stroke="black" stroke-width="3" stroke-linecap="round"/>
<path d="M314.889 247.766C317.125 334.195 305.514 338.932 241.511 404.259" stroke="black" stroke-width="3" stroke-linecap="round"/>
<path d="M440.342 265.497C438.475 314.634 417.004 346.079 381.116 382.435" stroke="black" stroke-width="3" stroke-linecap="round"/>
<path d="M446.599 333.897C362.856 312.403 306.864 341.661 228.887 389.446" stroke="black" stroke-width="3" stroke-linecap="round"/>
<path d="M449.046 298.463C365.302 276.969 321.918 297.241 243.94 345.027" stroke="black" stroke-width="3" stroke-linecap="round"/>
<path d="M428.224 253.534C379.913 244.373 315.322 266.763 271.866 293.619" stroke="black" stroke-width="3" stroke-linecap="round"/>
<path d="M404.48 368.293C356.169 359.133 287.135 379.701 248.599 417.702" stroke="black" stroke-width="3" stroke-linecap="round"/>
<path d="M372.651 463.279C403.435 459.88 340.371 436.727 310.872 441.648C282.016 446.462 274.543 480.073 301.571 473.759C309.279 471.958 318.179 467.444 318.179 467.444C318.179 467.444 328.225 474.618 337.776 473.759C348.227 472.818 346.744 463.279 346.744 463.279C346.744 463.279 362.891 464.357 372.651 463.279Z" fill="black"/>
<path d="M372.651 463.279C403.435 459.88 340.371 436.727 310.872 441.648C282.016 446.462 274.543 480.073 301.571 473.759C309.279 471.958 318.179 467.444 318.179 467.444C318.179 467.444 328.225 474.618 337.776 473.759C348.227 472.818 346.744 463.279 346.744 463.279C346.744 463.279 362.891 464.357 372.651 463.279Z" stroke="black" stroke-width="5"/>
<path d="M372.651 463.279C403.435 459.88 340.371 436.727 310.872 441.648C282.016 446.462 274.543 480.073 301.571 473.759C309.279 471.958 318.179 467.444 318.179 467.444C318.179 467.444 328.225 474.618 337.776 473.759C348.227 472.818 346.744 463.279 346.744 463.279C346.744 463.279 362.891 464.357 372.651 463.279Z" stroke="black" stroke-opacity="0.2" stroke-width="5"/>
<path d="M133.258 463.279C102.474 459.88 165.538 436.727 195.037 441.648C223.893 446.462 231.366 480.073 204.337 473.759C196.63 471.958 187.73 467.444 187.73 467.444C187.73 467.444 177.684 474.618 168.133 473.759C157.682 472.818 159.165 463.279 159.165 463.279C159.165 463.279 143.018 464.357 133.258 463.279Z" fill="black"/>
<path d="M133.258 463.279C102.474 459.88 165.538 436.727 195.037 441.648C223.893 446.462 231.366 480.073 204.337 473.759C196.63 471.958 187.73 467.444 187.73 467.444C187.73 467.444 177.684 474.618 168.133 473.759C157.682 472.818 159.165 463.279 159.165 463.279C159.165 463.279 143.018 464.357 133.258 463.279Z" stroke="black" stroke-width="5"/>
<path d="M133.258 463.279C102.474 459.88 165.538 436.727 195.037 441.648C223.893 446.462 231.366 480.073 204.337 473.759C196.63 471.958 187.73 467.444 187.73 467.444C187.73 467.444 177.684 474.618 168.133 473.759C157.682 472.818 159.165 463.279 159.165 463.279C159.165 463.279 143.018 464.357 133.258 463.279Z" stroke="black" stroke-opacity="0.2" stroke-width="5"/>
<path d="M331.489 218.81C341.594 188.89 353.033 148.523 336.822 139.838C321.768 131.774 285.274 146.687 260.481 162.703L331.489 218.81Z" fill="black"/>
<path d="M331.489 218.81C341.594 188.89 353.033 148.523 336.822 139.838C321.768 131.774 285.274 146.687 260.481 162.703L331.489 218.81Z" stroke="black" stroke-width="5" stroke-linecap="round"/>
<path d="M331.489 218.81C341.594 188.89 353.033 148.523 336.822 139.838C321.768 131.774 285.274 146.687 260.481 162.703L331.489 218.81Z" stroke="black" stroke-opacity="0.2" stroke-width="5" stroke-linecap="round"/>
<path d="M160.444 218.81C150.339 188.89 138.9 148.523 155.111 139.838C170.165 131.774 206.659 146.687 231.452 162.703L160.444 218.81Z" fill="black"/>
<path d="M160.444 218.81C150.339 188.89 138.9 148.523 155.111 139.838C170.165 131.774 206.659 146.687 231.452 162.703L160.444 218.81Z" stroke="black" stroke-width="5" stroke-linecap="round"/>
<path d="M160.444 218.81C150.339 188.89 138.9 148.523 155.111 139.838C170.165 131.774 206.659 146.687 231.452 162.703L160.444 218.81Z" stroke="black" stroke-opacity="0.2" stroke-width="5" stroke-linecap="round"/>
<path d="M322.577 356.126C313.636 358.899 303.47 370.6 303.47 370.6L298.839 449.341C298.839 449.341 326.964 438.82 343.42 429.077C347.091 426.904 349.491 426.117 352.684 423.287C365.009 412.366 366.787 395.772 362.526 379.864C359.506 368.589 354.122 360.786 343.42 356.126C335.957 352.876 330.351 353.715 322.577 356.126Z" fill="black"/>
<path d="M322.577 356.126C313.636 358.899 303.47 370.6 303.47 370.6L298.839 449.341C298.839 449.341 326.964 438.82 343.42 429.077C347.091 426.904 349.491 426.117 352.684 423.287C365.009 412.366 366.787 395.772 362.526 379.864C359.506 368.589 354.122 360.786 343.42 356.126C335.957 352.876 330.351 353.715 322.577 356.126Z" stroke="black" stroke-width="5"/>
<path d="M322.577 356.126C313.636 358.899 303.47 370.6 303.47 370.6L298.839 449.341C298.839 449.341 326.964 438.82 343.42 429.077C347.091 426.904 349.491 426.117 352.684 423.287C365.009 412.366 366.787 395.772 362.526 379.864C359.506 368.589 354.122 360.786 343.42 356.126C335.957 352.876 330.351 353.715 322.577 356.126Z" stroke="black" stroke-opacity="0.2" stroke-width="5"/>
<path d="M170.656 356.126C179.597 358.899 189.763 370.6 189.763 370.6L194.395 449.341C194.395 449.341 166.269 438.82 149.813 429.077C146.142 426.904 143.742 426.117 140.549 423.287C128.224 412.366 126.446 395.772 130.707 379.864C133.727 368.589 139.112 360.786 149.813 356.126C157.276 352.876 162.882 353.715 170.656 356.126Z" fill="black"/>
<path d="M170.656 356.126C179.597 358.899 189.763 370.6 189.763 370.6L194.395 449.341C194.395 449.341 166.269 438.82 149.813 429.077C146.142 426.904 143.742 426.117 140.549 423.287C128.224 412.366 126.446 395.772 130.707 379.864C133.727 368.589 139.112 360.786 149.813 356.126C157.276 352.876 162.882 353.715 170.656 356.126Z" stroke="black" stroke-width="5"/>
<path d="M170.656 356.126C179.597 358.899 189.763 370.6 189.763 370.6L194.395 449.341C194.395 449.341 166.269 438.82 149.813 429.077C146.142 426.904 143.742 426.117 140.549 423.287C128.224 412.366 126.446 395.772 130.707 379.864C133.727 368.589 139.112 360.786 149.813 356.126C157.276 352.876 162.882 353.715 170.656 356.126Z" stroke="black" stroke-opacity="0.2" stroke-width="5"/>
<path d="M203.526 178.269L193.222 192.515L190.763 195.914C190.763 195.914 161.348 191.384 161.101 170.215C161.065 167.095 161.578 164.723 162.749 161.563C163.848 158.598 165.454 156.502 167.777 154.612C170.39 152.486 172.786 151.677 175.782 151.058C191.096 147.898 203.526 178.269 203.526 178.269Z" fill="black" stroke="black" stroke-width="5"/>
<path d="M291.077 178.269L301.381 192.515L303.84 195.914C303.84 195.914 333.255 191.384 333.502 170.215C333.538 167.095 333.025 164.723 331.854 161.563C330.755 158.598 329.149 156.502 326.827 154.612C324.213 152.486 321.817 151.677 318.821 151.058C303.507 147.898 291.077 178.269 291.077 178.269Z" fill="black" stroke="black" stroke-width="5"/>
<path d="M181.306 317.927C179.667 322.499 151.95 400.859 174.358 434.47C198.675 470.946 294.208 475.578 313.893 434.47C333.577 393.362 306.947 321.415 305.208 317.927C305.208 317.927 182.687 314.075 181.306 317.927Z" fill="black"/>
<path d="M181.306 317.927C179.667 322.499 151.95 400.859 174.358 434.47C198.675 470.946 294.208 475.578 313.893 434.47C333.577 393.362 306.947 321.415 305.208 317.927C305.208 317.927 182.687 314.075 181.306 317.927Z" stroke="black" stroke-width="5"/>
<path d="M181.306 317.927C179.667 322.499 151.95 400.859 174.358 434.47C198.675 470.946 294.208 475.578 313.893 434.47C333.577 393.362 306.947 321.415 305.208 317.927C305.208 317.927 182.687 314.075 181.306 317.927Z" stroke="black" stroke-opacity="0.2" stroke-width="5"/>
<path d="M289.369 377.782C304.306 414.305 268.659 460.65 243.112 460.65C217.565 460.65 181.918 414.305 196.855 377.782C206.293 354.707 216.37 344.854 243.112 344.854C269.854 344.854 279.931 354.707 289.369 377.782Z" fill="black"/>
<path d="M249.351 174.369C249.351 174.369 213.241 162.372 218.084 154.522C223.813 145.235 231.261 127.499 247.033 126.152C251.792 125.745 255.585 126.144 259.192 127.472C265.276 129.71 259.604 137.92 253.897 144.308C256.907 141.857 260.425 139.65 263.824 139.051C271.118 137.767 277.851 137.221 282.351 143.104C288.173 150.715 280.987 159.453 274.246 166.263C267.053 173.53 249.351 174.369 249.351 174.369Z" fill="black"/>
<path d="M249.351 174.369C249.351 174.369 213.241 162.372 218.084 154.522C223.813 145.235 231.261 127.499 247.033 126.152C251.792 125.745 255.585 126.144 259.192 127.472C265.276 129.71 259.604 137.92 253.897 144.308C256.907 141.857 260.425 139.65 263.824 139.051C271.118 137.767 277.851 137.221 282.351 143.104C288.173 150.715 280.987 159.453 274.246 166.263C267.053 173.53 249.351 174.369 249.351 174.369Z" stroke="black" stroke-width="5"/>
<path d="M249.351 174.369C249.351 174.369 213.241 162.372 218.084 154.522C223.813 145.235 231.261 127.499 247.033 126.152C251.792 125.745 255.585 126.144 259.192 127.472C265.276 129.71 259.604 137.92 253.897 144.308C256.907 141.857 260.425 139.65 263.824 139.051C271.118 137.767 277.851 137.221 282.351 143.104C288.173 150.715 280.987 159.453 274.246 166.263C267.053 173.53 249.351 174.369 249.351 174.369Z" stroke="black" stroke-opacity="0.2" stroke-width="5"/>
<path d="M243.73 150.654C188.725 150.654 159.518 190.888 143.672 237.352C138.086 250.847 121.092 279.303 149.461 308.252C174.282 329.282 210.808 330.72 243.73 330.72C276.651 330.72 389.739 334.885 341.857 237.352C326.012 190.888 298.735 150.654 243.73 150.654Z" fill="black"/>
<path d="M243.73 150.654C188.725 150.654 159.518 190.888 143.672 237.352C138.086 250.847 121.092 279.303 149.461 308.252C174.282 329.282 210.808 330.72 243.73 330.72C276.651 330.72 389.739 334.885 341.857 237.352C326.012 190.888 298.735 150.654 243.73 150.654Z" stroke="black" stroke-width="5"/>
<path d="M243.73 150.654C188.725 150.654 159.518 190.888 143.672 237.352C138.086 250.847 121.092 279.303 149.461 308.252C174.282 329.282 210.808 330.72 243.73 330.72C276.651 330.72 389.739 334.885 341.857 237.352C326.012 190.888 298.735 150.654 243.73 150.654Z" stroke="black" stroke-opacity="0.2" stroke-width="5"/>
<path d="M186.688 294.162C195.175 294.162 202.056 291.072 202.056 287.259C202.056 283.447 195.175 280.356 186.688 280.356C178.201 280.356 171.32 283.447 171.32 287.259C171.32 291.072 178.201 294.162 186.688 294.162Z" fill="black" fill-opacity="0.8"/>
<path d="M302.709 294.415C311.19 294.078 317.942 290.716 317.791 286.906C317.639 283.097 310.642 280.282 302.161 280.619C293.68 280.956 286.928 284.318 287.079 288.127C287.231 291.937 294.229 294.752 302.709 294.415Z" fill="black" fill-opacity="0.8"/>
<path d="M296.998 270.15C285.852 273.659 274.399 265.567 271.418 252.076C268.436 238.585 275.055 224.803 286.201 221.293C297.347 217.784 308.8 225.876 311.782 239.367C314.763 252.858 308.145 266.64 296.998 270.15Z" fill="black" stroke="black"/>
<path d="M200.59 268.983C189.444 272.493 177.991 264.401 175.01 250.91C172.028 237.419 178.647 223.637 189.793 220.127C200.939 216.618 212.392 224.71 215.374 238.201C218.355 251.692 211.737 265.474 200.59 268.983Z" fill="black" stroke="black"/>
<path d="M189.644 239.554C184.639 239.456 180.596 237.067 180.614 234.218C180.632 231.369 184.704 229.138 189.709 229.236C194.714 229.333 198.756 231.722 198.738 234.571C198.72 237.421 194.648 239.652 189.644 239.554Z" fill="black" stroke="black"/>
<path d="M288.071 240.712C283.066 240.614 279.023 238.225 279.041 235.376C279.059 232.526 283.131 230.296 288.136 230.393C293.141 230.491 297.183 232.88 297.165 235.729C297.147 238.578 293.075 240.809 288.071 240.712Z" fill="black" stroke="black"/>
<path d="M272.061 423.596C277.19 408.229 281.64 400.175 290.208 388.857L293.838 384.225L312.59 387.12C304.833 407.012 306.224 418.213 292.628 429.385C279.009 434.596 272.061 431.701 272.061 423.596Z" fill="black"/>
<path d="M291.499 382.527C291.499 382.527 273.798 409.121 270.903 424.174C269.044 433.84 281.625 431.122 290.009 431.122C305.137 431.122 315.181 413.114 317.8 390.594C320.695 365.698 313.168 342.538 313.168 342.538" stroke="black" stroke-width="5" stroke-linecap="round"/>
<path d="M215.405 423.595C210.275 408.229 205.826 400.175 197.258 388.857L193.628 384.225L174.876 387.12C182.632 407.012 181.242 418.212 194.838 429.385C205.478 429.385 216.479 431.701 215.405 423.595Z" fill="black"/>
<path d="M195.967 382.527C195.967 382.527 213.668 409.121 216.563 424.174C218.421 433.84 205.84 431.122 197.456 431.122C182.328 431.122 172.284 413.114 169.665 390.593C166.77 365.697 173.634 343.117 173.634 343.117" stroke="black" stroke-width="5" stroke-linecap="round"/>
<path d="M207.706 212.458C207.706 216.627 197.462 212.458 193.555 212.458C189.647 212.458 180.582 211.86 180.582 207.691C180.582 203.523 182.548 198.951 193.555 198.951C204.562 198.951 207.706 208.29 207.706 212.458Z" fill="black" fill-opacity="0.8"/>
<path d="M278.295 212.458C278.295 216.627 288.539 212.458 292.447 212.458C296.355 212.458 305.419 211.86 305.419 207.691C305.419 203.523 303.454 198.952 292.447 198.952C281.44 198.952 278.295 208.29 278.295 212.458Z" fill="black" fill-opacity="0.8"/>
<path d="M235.898 307.982H249.793C249.793 307.982 248.635 322.457 242.266 322.457C236.183 322.457 235.898 307.982 235.898 307.982Z" fill="black"/>
<path d="M235.898 307.982H249.793C249.793 307.982 248.635 322.457 242.266 322.457C236.183 322.457 235.898 307.982 235.898 307.982Z" stroke="black"/>
<path d="M235.898 307.982H249.793C249.793 307.982 248.635 322.457 242.266 322.457C236.183 322.457 235.898 307.982 235.898 307.982Z" stroke="black" stroke-opacity="0.2"/>
<path d="M242.033 321.482C242.033 321.759 242.257 321.982 242.533 321.982C242.81 321.982 243.033 321.759 243.033 321.482H242.033ZM242.033 308.745V321.482H243.033V308.745H242.033Z" fill="black"/>
<path d="M242.996 293.344V305.156M242.996 305.156C242.996 305.156 239.361 308.694 236.396 308.977C232.83 309.317 228.059 305.156 228.059 305.156M242.996 305.156C242.996 305.156 246.624 308.795 249.597 308.977C252.927 309.181 257.239 305.156 257.239 305.156" stroke="black" stroke-width="5" stroke-linecap="round"/>
<path d="M242.727 294.388C241.166 294.388 230.632 290.515 229.549 284.511C228.466 278.508 257.768 278.508 255.905 284.511C254.042 290.515 244.288 294.388 242.727 294.388Z" fill="black"/>
<path d="M246.513 283.93C246.513 284.652 244.758 285.238 242.592 285.238C240.426 285.238 238.67 284.652 238.67 283.93C238.67 283.209 240.426 282.623 242.592 282.623C244.758 282.623 246.513 283.209 246.513 283.93Z" fill="black" fill-opacity="0.5"/>
<path d="M218.009 293.471C203.673 286.025 196.291 285.32 183.934 288.478" stroke="black" stroke-opacity="0.6" stroke-linecap="round"/>
<path d="M219.848 302.532C204.913 296.377 197.497 296.324 185.467 300.558" stroke="black" stroke-opacity="0.6" stroke-linecap="round"/>
<path d="M275.595 293.135C289.931 285.69 297.313 284.984 309.669 288.143" stroke="black" stroke-opacity="0.6" stroke-linecap="round"/>
<path d="M273.756 302.196C288.691 296.041 296.106 295.989 308.137 300.222" stroke="black" stroke-opacity="0.6" stroke-linecap="round"/>
</svg>
