<svg width="600" height="600" viewBox="0 0 600 600" fill="none" xmlns="http://www.w3.org/2000/svg">
<path d="M379.43 372.911C376.318 376.175 379.65 389.537 379.65 389.537C385.405 388.142 392.249 384.96 397.285 383.742C397.285 383.742 384.52 367.57 379.43 372.911Z" fill="black"/>
<path d="M379.43 372.911C376.318 376.175 379.65 389.537 379.65 389.537C385.405 388.142 392.249 384.96 397.285 383.742C397.285 383.742 384.52 367.57 379.43 372.911Z" stroke="black" stroke-width="5"/>
<path d="M379.43 372.911C376.318 376.175 379.65 389.537 379.65 389.537C385.405 388.142 392.249 384.96 397.285 383.742C397.285 383.742 384.52 367.57 379.43 372.911Z" stroke="black" stroke-opacity="0.2" stroke-width="5"/>
<path d="M405.734 359.796C403.933 363.931 411.649 375.336 411.649 375.336C416.575 372.051 421.911 366.713 426.222 363.838C426.222 363.838 408.682 353.032 405.734 359.796Z" fill="black"/>
<path d="M405.734 359.796C403.933 363.931 411.649 375.336 411.649 375.336C416.575 372.051 421.911 366.713 426.222 363.838C426.222 363.838 408.682 353.032 405.734 359.796Z" stroke="black" stroke-width="5"/>
<path d="M405.734 359.796C403.933 363.931 411.649 375.336 411.649 375.336C416.575 372.051 421.911 366.713 426.222 363.838C426.222 363.838 408.682 353.032 405.734 359.796Z" stroke="black" stroke-opacity="0.2" stroke-width="5"/>
<path d="M420.988 341.242C421.723 345.693 434.397 351.076 434.397 351.076C436.747 345.641 438.328 338.26 440.385 333.506C440.385 333.506 419.788 333.962 420.988 341.242Z" fill="black"/>
<path d="M420.988 341.242C421.723 345.693 434.397 351.076 434.397 351.076C436.747 345.641 438.328 338.26 440.385 333.506C440.385 333.506 419.788 333.962 420.988 341.242Z" stroke="black" stroke-width="5"/>
<path d="M420.988 341.242C421.723 345.693 434.397 351.076 434.397 351.076C436.747 345.641 438.328 338.26 440.385 333.506C440.385 333.506 419.788 333.962 420.988 341.242Z" stroke="black" stroke-opacity="0.2" stroke-width="5"/>
<path d="M413.656 372.582C381.004 396.212 311.923 404.143 311.923 404.143L335.394 434.154C335.394 434.154 384.248 451.926 413.656 442.926C439.503 435.016 458.166 425.767 468.6 400.832C477.346 379.93 474.579 364.067 466.637 342.847C459.292 323.222 433.855 300.369 433.855 300.369C433.855 300.369 442.275 329.257 435.779 345.772C430.809 358.404 424.919 364.431 413.656 372.582Z" fill="black"/>
<path d="M413.656 372.582C381.004 396.212 311.923 404.143 311.923 404.143L335.394 434.154C335.394 434.154 384.248 451.926 413.656 442.926C439.503 435.016 458.166 425.767 468.6 400.832C477.346 379.93 474.579 364.067 466.637 342.847C459.292 323.222 433.855 300.369 433.855 300.369C433.855 300.369 442.275 329.257 435.779 345.772C430.809 358.404 424.919 364.431 413.656 372.582Z" stroke="black" stroke-width="5"/>
<path d="M413.656 372.582C381.004 396.212 311.923 404.143 311.923 404.143L335.394 434.154C335.394 434.154 384.248 451.926 413.656 442.926C439.503 435.016 458.166 425.767 468.6 400.832C477.346 379.93 474.579 364.067 466.637 342.847C459.292 323.222 433.855 300.369 433.855 300.369C433.855 300.369 442.275 329.257 435.779 345.772C430.809 358.404 424.919 364.431 413.656 372.582Z" stroke="black" stroke-opacity="0.2" stroke-width="5"/>
<path d="M273.926 98.0723C235.048 96.3899 180.312 124.643 180.312 124.643H353.499C353.499 124.643 307.717 99.5329 273.926 98.0723Z" fill="black"/>
<path d="M273.926 98.0723C235.048 96.3899 180.312 124.643 180.312 124.643H353.499C353.499 124.643 307.717 99.5329 273.926 98.0723Z" stroke="black" stroke-width="5"/>
<path d="M273.926 98.0723C235.048 96.3899 180.312 124.643 180.312 124.643H353.499C353.499 124.643 307.717 99.5329 273.926 98.0723Z" stroke="black" stroke-opacity="0.2" stroke-width="5"/>
<path d="M193.08 313.644C190.986 319.488 155.554 419.656 184.198 462.623C215.283 509.25 337.404 515.17 362.567 462.623C387.73 410.074 353.689 318.103 351.466 313.644C351.466 313.644 194.846 308.719 193.08 313.644Z" fill="black"/>
<path d="M193.08 313.644C190.986 319.488 155.554 419.656 184.198 462.623C215.283 509.25 337.404 515.17 362.567 462.623C387.73 410.074 353.689 318.103 351.466 313.644C351.466 313.644 194.846 308.719 193.08 313.644Z" stroke="black" stroke-width="5"/>
<path d="M193.08 313.644C190.986 319.488 155.554 419.656 184.198 462.623C215.283 509.25 337.404 515.17 362.567 462.623C387.73 410.074 353.689 318.103 351.466 313.644C351.466 313.644 194.846 308.719 193.08 313.644Z" stroke="black" stroke-opacity="0.2" stroke-width="5"/>
<path d="M334.256 405.888C334.256 455.756 308.301 492.153 275.602 492.153C242.901 492.153 215.838 455.756 215.838 405.888C215.838 356.019 247.811 326.731 275.047 315.593C301.099 327.527 334.256 356.019 334.256 405.888Z" fill="black"/>
<path d="M334.256 405.888C334.256 455.756 308.301 492.153 275.602 492.153C242.901 492.153 215.838 455.756 215.838 405.888C215.838 356.019 247.811 326.731 275.047 315.593C301.099 327.527 334.256 356.019 334.256 405.888Z" stroke="black" stroke-width="5"/>
<path d="M334.256 405.888C334.256 455.756 308.301 492.153 275.602 492.153C242.901 492.153 215.838 455.756 215.838 405.888C215.838 356.019 247.811 326.731 275.047 315.593C301.099 327.527 334.256 356.019 334.256 405.888Z" stroke="black" stroke-opacity="0.2" stroke-width="5"/>
<path d="M275.587 339.688L274.862 487.712" stroke="black" stroke-opacity="0.8" stroke-width="5" stroke-linecap="round"/>
<path d="M324.45 370.773C280.088 382.648 267.819 382.643 225.275 370.773" stroke="black" stroke-opacity="0.8" stroke-width="5" stroke-linecap="round"/>
<path d="M330.37 415.182C286.008 427.056 262.638 427.051 220.092 415.182" stroke="black" stroke-opacity="0.8" stroke-width="5" stroke-linecap="round"/>
<path d="M317.048 461.068C286.704 471.429 264.501 471.429 233.415 461.068" stroke="black" stroke-opacity="0.8" stroke-width="5" stroke-linecap="round"/>
<path d="M418.631 228.166C418.631 306.648 353.684 343.626 273.569 343.626C193.452 343.626 128.506 306.648 128.506 228.166C114.442 58.033 201.776 123.071 270.606 123.071C339.437 123.071 428.991 45.4509 418.631 228.166Z" fill="black"/>
<path d="M418.631 228.166C418.631 306.648 353.684 343.626 273.569 343.626C193.452 343.626 128.506 306.648 128.506 228.166C114.442 58.033 201.776 123.071 270.606 123.071C339.437 123.071 428.991 45.4509 418.631 228.166Z" stroke="black" stroke-width="5"/>
<path d="M418.631 228.166C418.631 306.648 353.684 343.626 273.569 343.626C193.452 343.626 128.506 306.648 128.506 228.166C114.442 58.033 201.776 123.071 270.606 123.071C339.437 123.071 428.991 45.4509 418.631 228.166Z" stroke="black" stroke-opacity="0.2" stroke-width="5"/>
<path d="M369.643 194.717C355.395 199.204 340.755 188.86 336.943 171.614C333.132 154.368 341.593 136.75 355.841 132.264C370.089 127.778 384.729 138.122 388.541 155.368C392.352 172.614 383.891 190.231 369.643 194.717Z" fill="black" stroke="black"/>
<path d="M357.197 157.684C353.69 160.085 349.148 159.617 347.05 156.638C344.953 153.66 346.096 149.3 349.603 146.899C353.11 144.498 357.653 144.966 359.75 147.944C361.847 150.923 360.704 155.283 357.197 157.684Z" fill="black" stroke="black"/>
<path d="M193.862 198.044C179.614 202.53 164.974 192.186 161.162 174.94C157.351 157.694 165.812 140.077 180.06 135.591C194.308 131.105 208.949 141.448 212.76 158.694C216.571 175.94 208.111 193.558 193.862 198.044Z" fill="black" stroke="black"/>
<path d="M181.416 161.013C177.91 163.413 173.367 162.945 171.27 159.967C169.173 156.989 170.316 152.628 173.823 150.227C177.329 147.827 181.872 148.295 183.969 151.273C186.066 154.251 184.923 158.612 181.416 161.013Z" fill="black" stroke="black"/>
<path d="M307.675 463.523C314.232 443.879 319.919 433.583 330.873 419.116L335.513 413.194L369.782 419.116C359.866 444.544 358.679 463.523 333.966 470.924C319.274 469.443 318.485 463.533 307.675 463.523Z" fill="black"/>
<path d="M332.523 411.025C332.523 411.025 309.895 445.02 306.194 464.264C303.819 476.619 319.902 473.144 330.618 473.144C349.958 473.144 362.797 450.126 366.144 421.336C369.844 389.511 366.144 365.18 366.144 365.18" stroke="black" stroke-width="5" stroke-linecap="round"/>
<path d="M279.3 489.199C266.315 486.993 304.23 466.484 304.23 466.484C314.733 465.413 320.475 465.26 332.486 472.406C332.486 472.406 339.942 492.934 332.486 495.847C326.715 498.104 318.081 489.199 318.081 489.199C318.081 489.199 309.846 497.961 304.23 495.847C299.157 493.938 297.582 483.659 297.582 483.659C297.582 483.659 286.655 490.449 279.3 489.199Z" fill="black"/>
<path d="M279.3 489.199C266.315 486.993 304.23 466.484 304.23 466.484C314.733 465.413 320.475 465.26 332.486 472.406C332.486 472.406 339.942 492.934 332.486 495.847C326.715 498.104 318.081 489.199 318.081 489.199C318.081 489.199 309.846 497.961 304.23 495.847C299.157 493.938 297.582 483.659 297.582 483.659C297.582 483.659 286.655 490.449 279.3 489.199Z" stroke="black" stroke-width="5"/>
<path d="M279.3 489.199C266.315 486.993 304.23 466.484 304.23 466.484C314.733 465.413 320.475 465.26 332.486 472.406C332.486 472.406 339.942 492.934 332.486 495.847C326.715 498.104 318.081 489.199 318.081 489.199C318.081 489.199 309.846 497.961 304.23 495.847C299.157 493.938 297.582 483.659 297.582 483.659C297.582 483.659 286.655 490.449 279.3 489.199Z" stroke="black" stroke-opacity="0.2" stroke-width="5"/>
<path d="M235.251 463.523C228.695 443.879 223.007 433.583 212.054 419.116L207.414 413.194L180.313 419.116C180.313 449.46 187.714 463.523 208.961 470.924C223.653 469.443 224.442 463.533 235.251 463.523Z" fill="black"/>
<path d="M210.404 411.025C210.404 411.025 233.032 445.02 236.732 464.264C239.107 476.619 223.025 473.144 212.308 473.144C192.97 473.144 180.13 450.126 176.783 421.336C173.082 389.511 178.831 365.18 178.831 365.18" stroke="black" stroke-width="5" stroke-linecap="round"/>
<path d="M263.627 489.199C276.612 486.993 238.696 466.484 238.696 466.484C228.193 465.413 222.451 465.26 210.44 472.406C210.44 472.406 202.984 492.934 210.44 495.847C216.211 498.104 224.845 489.199 224.845 489.199C224.845 489.199 233.08 497.961 238.696 495.847C243.771 493.938 245.344 483.659 245.344 483.659C245.344 483.659 256.271 490.449 263.627 489.199Z" fill="black"/>
<path d="M263.627 489.199C276.612 486.993 238.696 466.484 238.696 466.484C228.193 465.413 222.451 465.26 210.44 472.406C210.44 472.406 202.984 492.934 210.44 495.847C216.211 498.104 224.845 489.199 224.845 489.199C224.845 489.199 233.08 497.961 238.696 495.847C243.771 493.938 245.344 483.659 245.344 483.659C245.344 483.659 256.271 490.449 263.627 489.199Z" stroke="black" stroke-width="5"/>
<path d="M263.627 489.199C276.612 486.993 238.696 466.484 238.696 466.484C228.193 465.413 222.451 465.26 210.44 472.406C210.44 472.406 202.984 492.934 210.44 495.847C216.211 498.104 224.845 489.199 224.845 489.199C224.845 489.199 233.08 497.961 238.696 495.847C243.771 493.938 245.344 483.659 245.344 483.659C245.344 483.659 256.271 490.449 263.627 489.199Z" stroke="black" stroke-opacity="0.2" stroke-width="5"/>
<path d="M140.784 460.394C117.079 466.865 165.642 510.943 188.357 501.575C210.578 492.41 216.334 428.422 195.519 440.444C189.584 443.872 182.73 452.466 182.73 452.466C182.73 452.466 174.995 438.808 167.64 440.444C159.592 442.234 160.734 460.394 160.734 460.394C160.734 460.394 148.3 458.342 140.784 460.394Z" fill="black"/>
<path d="M140.784 460.394C117.079 466.865 165.642 510.943 188.357 501.575C210.578 492.41 216.334 428.422 195.519 440.444C189.584 443.872 182.73 452.466 182.73 452.466C182.73 452.466 174.995 438.808 167.64 440.444C159.592 442.234 160.734 460.394 160.734 460.394C160.734 460.394 148.3 458.342 140.784 460.394Z" stroke="black" stroke-width="5"/>
<path d="M140.784 460.394C117.079 466.865 165.642 510.943 188.357 501.575C210.578 492.41 216.334 428.422 195.519 440.444C189.584 443.872 182.73 452.466 182.73 452.466C182.73 452.466 174.995 438.808 167.64 440.444C159.592 442.234 160.734 460.394 160.734 460.394C160.734 460.394 148.3 458.342 140.784 460.394Z" stroke="black" stroke-opacity="0.2" stroke-width="5"/>
<path d="M409.106 458.421C432.813 464.891 384.249 508.97 361.533 499.601C339.312 490.436 333.557 426.448 354.371 438.47C360.306 441.899 367.16 450.491 367.16 450.491C367.16 450.491 374.895 436.834 382.25 438.47C390.298 440.26 389.156 458.421 389.156 458.421C389.156 458.421 401.59 456.369 409.106 458.421Z" fill="black"/>
<path d="M409.106 458.421C432.813 464.891 384.249 508.97 361.533 499.601C339.312 490.436 333.557 426.448 354.371 438.47C360.306 441.899 367.16 450.491 367.16 450.491C367.16 450.491 374.895 436.834 382.25 438.47C390.298 440.26 389.156 458.421 389.156 458.421C389.156 458.421 401.59 456.369 409.106 458.421Z" stroke="black" stroke-width="5"/>
<path d="M409.106 458.421C432.813 464.891 384.249 508.97 361.533 499.601C339.312 490.436 333.557 426.448 354.371 438.47C360.306 441.899 367.16 450.491 367.16 450.491C367.16 450.491 374.895 436.834 382.25 438.47C390.298 440.26 389.156 458.421 389.156 458.421C389.156 458.421 401.59 456.369 409.106 458.421Z" stroke="black" stroke-opacity="0.2" stroke-width="5"/>
<path d="M184.091 288.192C175.1 288.192 164.249 278.103 156.628 293.39C149.005 308.677 201.806 343.717 274.843 343.717C347.878 343.717 392.271 310.338 389.023 293.39C382.758 277.882 379.741 288.192 370.75 288.192C361.759 288.192 343.798 286.574 338.287 285.974C318.76 283.851 325.007 272.667 274.843 272.667C224.677 272.667 228.659 283.864 209.913 285.974C203.365 286.712 193.081 288.192 184.091 288.192Z" fill="black"/>
<path d="M184.091 288.192C175.1 288.192 164.249 278.103 156.628 293.39C149.005 308.677 201.806 343.717 274.843 343.717C347.878 343.717 392.271 310.338 389.023 293.39C382.758 277.882 379.741 288.192 370.75 288.192C361.759 288.192 343.798 286.574 338.287 285.974C318.76 283.851 325.007 272.667 274.843 272.667C224.677 272.667 228.659 283.864 209.913 285.974C203.365 286.712 193.081 288.192 184.091 288.192Z" stroke="black" stroke-width="5"/>
<path d="M184.091 288.192C175.1 288.192 164.249 278.103 156.628 293.39C149.005 308.677 201.806 343.717 274.843 343.717C347.878 343.717 392.271 310.338 389.023 293.39C382.758 277.882 379.741 288.192 370.75 288.192C361.759 288.192 343.798 286.574 338.287 285.974C318.76 283.851 325.007 272.667 274.843 272.667C224.677 272.667 228.659 283.864 209.913 285.974C203.365 286.712 193.081 288.192 184.091 288.192Z" stroke="black" stroke-opacity="0.2" stroke-width="5"/>
<path d="M270.684 243.454C271.409 246.772 263.156 245.1 260.285 245.727C257.414 246.356 250.649 247.336 249.924 244.018C249.198 240.698 249.846 236.743 257.934 234.974C266.021 233.205 269.959 240.135 270.684 243.454Z" fill="black"/>
<path d="M278.329 243.454C277.603 246.772 285.856 245.1 288.727 245.727C291.598 246.356 298.363 247.336 299.089 244.018C299.814 240.698 299.167 236.743 291.078 234.974C282.991 233.205 279.055 240.135 278.329 243.454Z" fill="black"/>
<path d="M297.99 295.873C292.299 292.211 291.328 272.667 291.328 272.667C300.21 272.667 310.571 274.147 317.973 278.588C317.973 278.588 307.297 301.861 297.99 295.873Z" fill="black"/>
<path d="M297.99 295.873C292.299 292.211 291.328 272.667 291.328 272.667C300.21 272.667 310.571 274.147 317.973 278.588C317.973 278.588 307.297 301.861 297.99 295.873Z" stroke="black" stroke-width="5"/>
<path d="M297.99 295.873C292.299 292.211 291.328 272.667 291.328 272.667C300.21 272.667 310.571 274.147 317.973 278.588C317.973 278.588 307.297 301.861 297.99 295.873Z" stroke="black" stroke-opacity="0.2" stroke-width="5"/>
<path d="M352.018 302.939C348.225 300.499 348.318 286.729 348.318 286.729C354.239 286.729 361.639 288.209 366.82 288.209C366.82 288.209 358.223 306.932 352.018 302.939Z" fill="black"/>
<path d="M352.018 302.939C348.225 300.499 348.318 286.729 348.318 286.729C354.239 286.729 361.639 288.209 366.82 288.209C366.82 288.209 358.223 306.932 352.018 302.939Z" stroke="black" stroke-width="5"/>
<path d="M352.018 302.939C348.225 300.499 348.318 286.729 348.318 286.729C354.239 286.729 361.639 288.209 366.82 288.209C366.82 288.209 358.223 306.932 352.018 302.939Z" stroke="black" stroke-opacity="0.2" stroke-width="5"/>
<path d="M202.514 303.679C206.307 301.239 205.476 285.989 205.476 285.989C199.554 285.989 192.153 288.209 186.972 288.209C186.972 288.209 196.31 307.672 202.514 303.679Z" fill="black"/>
<path d="M202.514 303.679C206.307 301.239 205.476 285.989 205.476 285.989C199.554 285.989 192.153 288.209 186.972 288.209C186.972 288.209 196.31 307.672 202.514 303.679Z" stroke="black" stroke-width="5"/>
<path d="M202.514 303.679C206.307 301.239 205.476 285.989 205.476 285.989C199.554 285.989 192.153 288.209 186.972 288.209C186.972 288.209 196.31 307.672 202.514 303.679Z" stroke="black" stroke-opacity="0.2" stroke-width="5"/>
<path d="M252.103 295.873C257.792 292.211 258.765 272.667 258.765 272.667C249.883 272.667 243.221 273.407 234.341 277.107C234.341 277.107 242.796 301.861 252.103 295.873Z" fill="black"/>
<path d="M252.103 295.873C257.792 292.211 258.765 272.667 258.765 272.667C249.883 272.667 243.221 273.407 234.341 277.107C234.341 277.107 242.796 301.861 252.103 295.873Z" stroke="black" stroke-width="5"/>
<path d="M252.103 295.873C257.792 292.211 258.765 272.667 258.765 272.667C249.883 272.667 243.221 273.407 234.341 277.107C234.341 277.107 242.796 301.861 252.103 295.873Z" stroke="black" stroke-opacity="0.2" stroke-width="5"/>
<path d="M232.119 225.415C265.644 209.603 284.442 209.341 317.972 225.415" stroke="black" stroke-width="5" stroke-linecap="round"/>
</svg>
