<svg width="600" height="600" viewBox="0 0 600 600" fill="none" xmlns="http://www.w3.org/2000/svg">
<path d="M378.856 427.899C379.476 423.877 385.269 423.877 385.889 427.899L386.325 430.728C386.703 433.181 389.582 434.32 391.536 432.79C393.995 430.864 397.489 433.182 396.672 436.196L396.45 437.015C395.841 439.259 397.531 441.468 399.856 441.468H400.872C404.096 441.468 405.456 445.578 402.89 447.53C401.086 448.903 401.136 451.643 402.997 452.937L403.379 453.203C405.579 454.732 404.962 458.138 402.367 458.799C400.216 459.347 399.305 461.9 400.624 463.686L402.006 465.557C404.144 468.453 400.878 472.241 397.699 470.552C395.212 469.23 392.294 471.351 392.783 474.125L393.237 476.701C393.958 480.791 388.284 482.592 386.514 478.835L385.353 476.37C384.113 473.737 380.41 473.625 379.013 476.177L375.962 481.751C373.894 485.53 368.144 483.068 369.451 478.963L370.422 475.915C371.366 472.951 368.115 470.409 365.466 472.04C362.25 474.02 358.722 470.001 361.102 467.069L362.327 465.559C364.187 463.267 362.607 459.837 359.656 459.76L358.906 459.741C354.91 459.638 354.095 454.04 357.895 452.801L358.673 452.548C361.475 451.635 362.015 447.906 359.588 446.235L358.914 445.77C355.619 443.502 357.997 438.363 361.859 439.405L362.474 439.571C365.333 440.343 367.829 437.487 366.681 434.757L366.433 434.168C364.879 430.472 369.677 427.429 372.359 430.41L372.556 430.63C374.563 432.861 378.261 431.758 378.718 428.792L378.856 427.899Z" fill="black"/>
<path d="M378.856 427.899C379.476 423.877 385.269 423.877 385.889 427.899L386.325 430.728C386.703 433.181 389.582 434.32 391.536 432.79C393.995 430.864 397.489 433.182 396.672 436.196L396.45 437.015C395.841 439.259 397.531 441.468 399.856 441.468H400.872C404.096 441.468 405.456 445.578 402.89 447.53C401.086 448.903 401.136 451.643 402.997 452.937L403.379 453.203C405.579 454.732 404.962 458.138 402.367 458.799C400.216 459.347 399.305 461.9 400.624 463.686L402.006 465.557C404.144 468.453 400.878 472.241 397.699 470.552C395.212 469.23 392.294 471.351 392.783 474.125L393.237 476.701C393.958 480.791 388.284 482.592 386.514 478.835L385.353 476.37C384.113 473.737 380.41 473.625 379.013 476.177L375.962 481.751C373.894 485.53 368.144 483.068 369.451 478.963L370.422 475.915C371.366 472.951 368.115 470.409 365.466 472.04C362.25 474.02 358.722 470.001 361.102 467.069L362.327 465.559C364.187 463.267 362.607 459.837 359.656 459.76L358.906 459.741C354.91 459.638 354.095 454.04 357.895 452.801L358.673 452.548C361.475 451.635 362.015 447.906 359.588 446.235L358.914 445.77C355.619 443.502 357.997 438.363 361.859 439.405L362.474 439.571C365.333 440.343 367.829 437.487 366.681 434.757L366.433 434.168C364.879 430.472 369.677 427.429 372.359 430.41L372.556 430.63C374.563 432.861 378.261 431.758 378.718 428.792L378.856 427.899Z" stroke="black" stroke-width="5"/>
<path d="M378.856 427.899C379.476 423.877 385.269 423.877 385.889 427.899L386.325 430.728C386.703 433.181 389.582 434.32 391.536 432.79C393.995 430.864 397.489 433.182 396.672 436.196L396.45 437.015C395.841 439.259 397.531 441.468 399.856 441.468H400.872C404.096 441.468 405.456 445.578 402.89 447.53C401.086 448.903 401.136 451.643 402.997 452.937L403.379 453.203C405.579 454.732 404.962 458.138 402.367 458.799C400.216 459.347 399.305 461.9 400.624 463.686L402.006 465.557C404.144 468.453 400.878 472.241 397.699 470.552C395.212 469.23 392.294 471.351 392.783 474.125L393.237 476.701C393.958 480.791 388.284 482.592 386.514 478.835L385.353 476.37C384.113 473.737 380.41 473.625 379.013 476.177L375.962 481.751C373.894 485.53 368.144 483.068 369.451 478.963L370.422 475.915C371.366 472.951 368.115 470.409 365.466 472.04C362.25 474.02 358.722 470.001 361.102 467.069L362.327 465.559C364.187 463.267 362.607 459.837 359.656 459.76L358.906 459.741C354.91 459.638 354.095 454.04 357.895 452.801L358.673 452.548C361.475 451.635 362.015 447.906 359.588 446.235L358.914 445.77C355.619 443.502 357.997 438.363 361.859 439.405L362.474 439.571C365.333 440.343 367.829 437.487 366.681 434.757L366.433 434.168C364.879 430.472 369.677 427.429 372.359 430.41L372.556 430.63C374.563 432.861 378.261 431.758 378.718 428.792L378.856 427.899Z" stroke="black" stroke-opacity="0.2" stroke-width="5"/>
<path d="M249.817 227.997H216.076H208.024C208.024 227.997 176.263 129.823 206.178 83.0997C210.586 76.2149 214.64 72.6024 220.677 69.2553C226.34 66.1153 231.421 66.3842 237.139 69.2553C243.572 72.4853 247.842 77.9221 252.62 85.5766C277.038 124.7 249.817 227.997 249.817 227.997Z" fill="black"/>
<path d="M249.817 227.997H216.076H208.024C208.024 227.997 176.263 129.823 206.178 83.0997C210.586 76.2149 214.64 72.6024 220.677 69.2553C226.34 66.1153 231.421 66.3842 237.139 69.2553C243.572 72.4853 247.842 77.9221 252.62 85.5766C277.038 124.7 249.817 227.997 249.817 227.997Z" stroke="black" stroke-width="5"/>
<path d="M249.817 227.997H216.076H208.024C208.024 227.997 176.263 129.823 206.178 83.0997C210.586 76.2149 214.64 72.6024 220.677 69.2553C226.34 66.1153 231.421 66.3842 237.139 69.2553C243.572 72.4853 247.842 77.9221 252.62 85.5766C277.038 124.7 249.817 227.997 249.817 227.997Z" stroke="black" stroke-opacity="0.2" stroke-width="5"/>
<path d="M238.336 225.521H223.294H219.704C219.704 225.521 205.544 151.513 218.881 116.29C220.846 111.1 222.653 108.377 225.345 105.854C227.87 103.487 230.135 103.689 232.684 105.854C235.552 108.289 237.456 112.387 239.586 118.157C250.472 147.65 238.336 225.521 238.336 225.521Z" fill="black"/>
<path d="M238.336 225.521H223.294H219.704C219.704 225.521 205.544 151.513 218.881 116.29C220.846 111.1 222.653 108.377 225.345 105.854C227.87 103.487 230.135 103.689 232.684 105.854C235.552 108.289 237.456 112.387 239.586 118.157C250.472 147.65 238.336 225.521 238.336 225.521Z" stroke="black" stroke-width="5"/>
<path d="M238.336 225.521H223.294H219.704C219.704 225.521 205.544 151.513 218.881 116.29C220.846 111.1 222.653 108.377 225.345 105.854C227.87 103.487 230.135 103.689 232.684 105.854C235.552 108.289 237.456 112.387 239.586 118.157C250.472 147.65 238.336 225.521 238.336 225.521Z" stroke="black" stroke-opacity="0.2" stroke-width="5"/>
<path d="M337.076 240.514L311.135 218.939L304.945 213.79C304.945 213.79 343.303 118.001 396.18 101.207C403.971 98.7326 409.398 98.5476 416.18 99.8345C422.542 101.042 426.276 104.497 428.836 110.361C431.717 116.958 431.523 123.869 430.302 132.809C424.058 178.502 337.076 240.514 337.076 240.514Z" fill="black"/>
<path d="M337.076 240.514L311.135 218.939L304.945 213.79C304.945 213.79 343.303 118.001 396.18 101.207C403.971 98.7326 409.398 98.5476 416.18 99.8345C422.542 101.042 426.276 104.497 428.836 110.361C431.717 116.958 431.523 123.869 430.302 132.809C424.058 178.502 337.076 240.514 337.076 240.514Z" stroke="black" stroke-width="5"/>
<path d="M337.076 240.514L311.135 218.939L304.945 213.79C304.945 213.79 343.303 118.001 396.18 101.207C403.971 98.7326 409.398 98.5476 416.18 99.8345C422.542 101.042 426.276 104.497 428.836 110.361C431.717 116.958 431.523 123.869 430.302 132.809C424.058 178.502 337.076 240.514 337.076 240.514Z" stroke="black" stroke-opacity="0.2" stroke-width="5"/>
<path d="M329.833 231.269L318.268 221.65L315.508 219.355C315.508 219.355 351.946 153.4 384.723 134.848C389.552 132.114 392.683 131.177 396.366 130.958C399.821 130.752 401.433 132.357 402.009 135.651C402.657 139.357 401.5 143.725 399.447 149.524C388.958 179.16 329.833 231.269 329.833 231.269Z" fill="black"/>
<path d="M329.833 231.269L318.268 221.65L315.508 219.355C315.508 219.355 351.946 153.4 384.723 134.848C389.552 132.114 392.683 131.177 396.366 130.958C399.821 130.752 401.433 132.357 402.009 135.651C402.657 139.357 401.5 143.725 399.447 149.524C388.958 179.16 329.833 231.269 329.833 231.269Z" stroke="black" stroke-width="5"/>
<path d="M329.833 231.269L318.268 221.65L315.508 219.355C315.508 219.355 351.946 153.4 384.723 134.848C389.552 132.114 392.683 131.177 396.366 130.958C399.821 130.752 401.433 132.357 402.009 135.651C402.657 139.357 401.5 143.725 399.447 149.524C388.958 179.16 329.833 231.269 329.833 231.269Z" stroke="black" stroke-opacity="0.2" stroke-width="5"/>
<path d="M193.345 464.54C193.345 543.181 385.493 540.085 369.174 453.604C369.174 450.081 364.349 432.18 363.374 427.985C362.399 423.79 348.752 381.4 346.942 377.669C346.942 377.669 219.477 373.549 218.04 377.669C216.335 382.559 198.109 432.578 196.329 438.342C194.549 444.106 193.345 454.243 193.345 464.54Z" fill="black"/>
<path d="M193.345 464.54C193.345 543.181 385.493 540.085 369.174 453.604C369.174 450.081 364.349 432.18 363.374 427.985C362.399 423.79 348.752 381.4 346.942 377.669C346.942 377.669 219.477 373.549 218.04 377.669C216.335 382.559 198.109 432.578 196.329 438.342C194.549 444.106 193.345 454.243 193.345 464.54Z" stroke="black" stroke-width="8"/>
<path d="M193.345 464.54C193.345 543.181 385.493 540.085 369.174 453.604C369.174 450.081 364.349 432.18 363.374 427.985C362.399 423.79 348.752 381.4 346.942 377.669C346.942 377.669 219.477 373.549 218.04 377.669C216.335 382.559 198.109 432.578 196.329 438.342C194.549 444.106 193.345 454.243 193.345 464.54Z" stroke="black" stroke-opacity="0.2" stroke-width="8"/>
<path d="M266.305 503.175C259.994 503.871 249.882 505.192 249.882 505.192C249.882 505.192 237.869 503.188 232.621 497.821C228.989 494.107 227.379 492.183 224.919 487.962C222.288 483.449 221.159 480.756 219.571 475.568C217.984 470.381 217.882 467.587 217.691 462.349C217.5 457.111 218.63 449.727 218.63 449.727C218.63 449.727 219.897 443.346 221.403 439.485C223.908 433.068 226.185 429.71 230.647 424.462C234.665 419.737 237.326 417.311 242.5 413.89C248.736 409.767 252.847 408.239 260.055 406.257C268.755 403.864 274.046 403.46 283.052 404.02C290.32 404.472 295.419 404.956 302.297 407.349C309.175 409.743 313.432 411.02 319.42 415.037C324.399 418.377 327.941 421.108 332 425.52C336.642 430.567 338.224 434.515 340.736 440.896C342.864 446.302 343.387 451.53 343.881 457.319C344.439 463.868 343.689 466.707 342.483 471.996C341.277 477.285 340.004 479.571 337.065 485.273C334.126 490.975 333.304 491.935 330.088 495.318C327.135 498.424 324.608 500.147 320.901 502.297C317.28 504.397 310.901 506.158 310.901 506.158C310.901 506.158 302.897 504.596 296.706 503.794C290.516 502.993 287.485 502.573 281.681 502.297C275.683 502.012 272.274 502.517 266.305 503.175Z" fill="black"/>
<path d="M169.729 324.64C169.493 323.382 153.387 322.543 154.225 316.669C155.063 310.795 169.729 308.697 175.595 291.495C192.541 241.801 221.714 198.77 280.542 198.77C339.371 198.77 368.543 241.801 385.49 291.495C391.356 308.697 406.022 310.795 406.86 316.669C407.697 322.543 391.592 323.382 391.356 324.64C391.12 325.899 403.507 332.612 403.507 336.808C403.507 341.004 387.585 346.458 376.69 355.688C350.144 378.18 315.752 391.352 280.542 391.352C245.333 391.352 210.94 378.18 184.394 355.688C173.5 346.458 157.577 341.004 157.577 336.808C157.577 332.612 169.964 325.899 169.729 324.64Z" fill="black"/>
<path d="M229.854 313.76C222.308 313.76 184.688 316.752 178.291 338.091C168.984 369.134 258.068 391.002 280.625 391.002C303.207 391.002 390.833 372.07 382.579 338.091C377.32 316.443 338.561 313.76 331.015 313.76C323.469 313.76 322.589 328.225 315.924 325.086C303.118 319.056 298.606 315.018 282.256 315.018C265.907 315.018 257.71 319.075 244.946 325.086C238.28 328.225 237.4 313.76 229.854 313.76Z" fill="black"/>
<path fill-rule="evenodd" clip-rule="evenodd" d="M210.694 224.777C227.926 207.362 250.58 196.323 280.717 196.323C310.854 196.323 333.509 207.362 350.741 224.777C367.9 242.118 379.594 265.687 388.131 290.684C390.844 298.625 395.558 303.071 399.848 306.313C400.817 307.045 401.756 307.71 402.667 308.355C402.78 308.435 402.893 308.515 403.005 308.594C404.002 309.301 404.989 310.007 405.856 310.713C407.502 312.052 409.273 313.813 409.628 316.297C410.04 319.18 408.227 321.145 406.488 322.295C404.748 323.446 402.488 324.224 400.457 324.789C399.147 325.154 397.808 325.461 396.633 325.722C396.676 325.754 396.721 325.787 396.765 325.82L396.861 325.89C397.575 326.418 398.358 326.997 399.147 327.603C400.704 328.8 402.382 330.173 403.687 331.568C404.341 332.266 404.962 333.034 405.43 333.847C405.89 334.644 406.299 335.649 406.299 336.778C406.299 338.111 405.671 339.202 405.038 339.99C404.391 340.795 403.536 341.534 402.63 342.212C400.817 343.567 398.343 345.006 395.696 346.511C395.276 346.75 394.851 346.991 394.42 347.235C389.28 350.147 383.398 353.48 378.569 357.565C351.565 380.41 316.574 393.798 280.717 393.798C244.861 393.798 209.87 380.41 182.865 357.565C178.037 353.48 172.154 350.147 167.014 347.235C166.584 346.991 166.158 346.75 165.739 346.511C163.091 345.006 160.618 343.567 158.805 342.212C157.898 341.534 157.044 340.795 156.397 339.99C155.763 339.202 155.136 338.111 155.136 336.778C155.136 335.649 155.545 334.644 156.004 333.847C156.473 333.034 157.094 332.266 157.748 331.568C159.053 330.173 160.73 328.8 162.288 327.603C163.076 326.997 163.86 326.418 164.574 325.89L164.669 325.82C164.713 325.787 164.758 325.754 164.802 325.722C163.627 325.461 162.287 325.154 160.977 324.789C158.946 324.224 156.686 323.446 154.947 322.295C153.207 321.145 151.394 319.18 151.806 316.297C152.161 313.813 153.933 312.052 155.579 310.713C156.446 310.007 157.432 309.301 158.43 308.594C158.542 308.515 158.654 308.435 158.767 308.355C159.679 307.71 160.617 307.045 161.586 306.313C165.877 303.071 170.591 298.625 173.303 290.684C181.841 265.687 193.535 242.118 210.694 224.777ZM214.271 228.315C197.873 244.888 186.488 267.648 178.065 292.31C174.907 301.559 169.347 306.756 164.621 310.327C163.585 311.11 162.581 311.82 161.674 312.462C161.561 312.542 161.45 312.621 161.34 312.699C160.329 313.415 159.474 314.03 158.756 314.614C157.23 315.856 156.852 316.558 156.788 317.009C156.788 317.011 156.787 317.013 156.787 317.016C156.773 317.089 156.711 317.43 157.723 318.099C158.777 318.796 160.404 319.407 162.327 319.942C163.767 320.343 165.204 320.659 166.516 320.947C166.934 321.039 167.339 321.128 167.728 321.216C168.487 321.388 169.248 321.571 169.844 321.771C170.131 321.868 170.509 322.009 170.863 322.217C171.042 322.321 171.303 322.493 171.554 322.753C171.804 323.012 172.159 323.476 172.286 324.155C172.491 325.244 171.971 326.065 171.823 326.292C171.602 326.63 171.335 326.915 171.125 327.122C170.693 327.548 170.124 328.008 169.55 328.451C168.991 328.882 168.345 329.36 167.678 329.853L167.564 329.937C166.849 330.465 166.101 331.019 165.354 331.593C163.842 332.754 162.435 333.923 161.423 335.005C160.918 335.544 160.572 335.998 160.364 336.36C160.281 336.504 160.232 336.611 160.205 336.684C160.232 336.724 160.269 336.775 160.319 336.838C160.586 337.17 161.062 337.617 161.819 338.183C163.335 339.317 165.527 340.603 168.226 342.138C168.656 342.382 169.096 342.631 169.546 342.886C174.621 345.759 180.908 349.318 186.116 353.724C212.247 375.831 246.097 388.767 280.717 388.767C315.338 388.767 349.187 375.831 375.319 353.724C380.527 349.318 386.814 345.759 391.889 342.886C392.339 342.631 392.779 342.382 393.208 342.138C395.908 340.603 398.099 339.317 399.615 338.183C400.373 337.617 400.849 337.17 401.116 336.838C401.166 336.775 401.203 336.724 401.23 336.684C401.202 336.611 401.154 336.504 401.071 336.36C400.862 335.998 400.516 335.544 400.012 335.005C399 333.923 397.592 332.754 396.08 331.593C395.334 331.019 394.586 330.465 393.87 329.937L393.756 329.852C393.089 329.36 392.443 328.882 391.885 328.451C391.31 328.008 390.742 327.548 390.309 327.122C390.1 326.915 389.833 326.63 389.612 326.292C389.464 326.065 388.944 325.244 389.148 324.155C389.276 323.476 389.63 323.012 389.88 322.753C390.132 322.493 390.392 322.321 390.571 322.217C390.926 322.009 391.303 321.868 391.59 321.771C392.187 321.571 392.947 321.388 393.707 321.216C394.095 321.128 394.501 321.039 394.919 320.947C396.231 320.659 397.668 320.343 399.108 319.942C401.031 319.407 402.658 318.796 403.712 318.099C404.724 317.43 404.661 317.089 404.648 317.016C404.647 317.013 404.647 317.011 404.647 317.009C404.582 316.558 404.205 315.856 402.679 314.614C401.961 314.03 401.106 313.415 400.095 312.699C399.985 312.621 399.874 312.542 399.761 312.462C398.854 311.821 397.85 311.11 396.814 310.327C392.088 306.756 386.528 301.559 383.369 292.31C374.946 267.648 363.562 244.888 347.163 228.315C330.838 211.816 309.456 201.355 280.717 201.355C251.978 201.355 230.596 211.816 214.271 228.315Z" fill="black"/>
<path fill-rule="evenodd" clip-rule="evenodd" d="M209.464 223.548C227.008 205.814 250.099 194.576 280.718 194.576C311.337 194.576 334.428 205.814 351.971 223.548C369.393 241.158 381.197 265.013 389.777 290.139C392.341 297.65 396.776 301.848 400.923 304.983C401.87 305.698 402.787 306.348 403.701 306.995C403.814 307.075 403.927 307.155 404.04 307.235C405.034 307.939 406.065 308.676 406.982 309.422C408.669 310.796 410.906 312.911 411.358 316.075C411.905 319.905 409.449 322.413 407.481 323.715C405.511 325.017 403.039 325.851 400.971 326.427C400.831 326.466 400.691 326.504 400.551 326.542C402.041 327.698 403.668 329.047 404.977 330.447C405.682 331.2 406.395 332.072 406.95 333.036C407.491 333.974 408.044 335.275 408.044 336.807C408.044 338.682 407.163 340.139 406.411 341.074C405.637 342.036 404.657 342.873 403.699 343.589C401.787 345.02 399.218 346.51 396.586 348.007C396.172 348.243 395.752 348.48 395.329 348.72C390.162 351.649 384.41 354.91 379.705 358.891C352.395 381.998 317.005 395.546 280.718 395.546C244.431 395.546 209.04 381.998 181.731 358.891C177.026 354.91 171.274 351.649 166.107 348.72C165.683 348.48 165.264 348.243 164.849 348.007C162.218 346.51 159.649 345.02 157.736 343.589C156.779 342.873 155.798 342.036 155.024 341.074C154.273 340.139 153.392 338.682 153.392 336.807C153.392 335.275 153.945 333.974 154.485 333.036C155.041 332.072 155.754 331.2 156.458 330.447C157.768 329.047 159.395 327.698 160.885 326.542C160.745 326.504 160.605 326.466 160.465 326.427C158.397 325.851 155.924 325.017 153.955 323.715C151.987 322.413 149.531 319.905 150.078 316.075C150.53 312.911 152.767 310.796 154.454 309.422C155.371 308.676 156.402 307.939 157.395 307.235C157.508 307.155 157.621 307.075 157.734 306.995C158.648 306.348 159.565 305.698 160.512 304.983C164.659 301.848 169.094 297.65 171.659 290.139C180.239 265.013 192.043 241.158 209.464 223.548ZM215.43 229.449C199.277 245.777 187.99 268.283 179.6 292.851C176.291 302.542 170.446 307.993 165.572 311.677C164.514 312.477 163.488 313.203 162.582 313.844C162.469 313.924 162.357 314.003 162.248 314.081C161.232 314.801 160.421 315.385 159.752 315.93C159.282 316.312 158.969 316.609 158.762 316.828C159.607 317.338 160.956 317.853 162.715 318.343C164.107 318.731 165.481 319.033 166.784 319.319C167.211 319.413 167.63 319.505 168.04 319.598C168.796 319.769 169.633 319.969 170.32 320.199C170.645 320.308 171.151 320.493 171.655 320.788C171.91 320.938 172.309 321.198 172.704 321.606C173.096 322.011 173.672 322.76 173.879 323.867C174.21 325.63 173.367 326.932 173.171 327.231C172.855 327.717 172.491 328.099 172.247 328.34C171.736 328.843 171.098 329.355 170.518 329.804C169.944 330.246 169.284 330.734 168.622 331.223L168.503 331.311C167.786 331.841 167.049 332.386 166.317 332.949C164.819 334.1 163.501 335.202 162.586 336.18C162.478 336.296 162.381 336.404 162.294 336.504C162.429 336.615 162.585 336.737 162.763 336.87C164.181 337.931 166.279 339.167 168.997 340.712C169.429 340.958 169.873 341.209 170.328 341.467C175.387 344.33 181.812 347.968 187.151 352.485C213.005 374.36 246.491 387.155 280.718 387.155C314.944 387.155 348.431 374.36 374.285 352.485C379.623 347.968 386.049 344.33 391.108 341.467C391.563 341.209 392.007 340.958 392.438 340.712C395.156 339.167 397.255 337.931 398.673 336.87C398.851 336.737 399.006 336.615 399.142 336.504C399.055 336.404 398.958 336.296 398.849 336.18C397.934 335.202 396.616 334.1 395.119 332.949C394.386 332.386 393.649 331.841 392.933 331.311L392.814 331.224C392.152 330.734 391.491 330.246 390.918 329.804C390.337 329.355 389.699 328.843 389.189 328.34C388.945 328.099 388.581 327.717 388.264 327.231C388.069 326.932 387.226 325.63 387.556 323.867C387.764 322.76 388.34 322.011 388.732 321.606C389.127 321.198 389.526 320.938 389.781 320.788C390.284 320.493 390.791 320.308 391.116 320.199C391.802 319.969 392.64 319.769 393.395 319.598C393.805 319.505 394.224 319.413 394.651 319.319C395.955 319.033 397.329 318.731 398.72 318.343C400.479 317.853 401.829 317.338 402.673 316.828C402.466 316.609 402.154 316.312 401.684 315.93C401.015 315.385 400.203 314.801 399.188 314.081C399.078 314.003 398.967 313.924 398.854 313.844C397.948 313.203 396.922 312.477 395.863 311.677C390.989 307.993 385.145 302.542 381.835 292.851C373.446 268.283 362.159 245.777 346.006 229.449C329.974 213.244 309.006 202.967 280.718 202.967C252.43 202.967 231.461 213.244 215.43 229.449ZM403.244 316.413C403.244 316.413 403.24 316.42 403.226 316.433C403.237 316.42 403.244 316.413 403.244 316.413ZM399.734 337.332C399.734 337.332 399.732 337.327 399.727 337.314C399.732 337.326 399.734 337.332 399.734 337.332ZM161.524 335.761C161.524 335.761 161.53 335.769 161.539 335.783C161.528 335.768 161.524 335.761 161.524 335.761ZM161.709 337.314C161.704 337.326 161.701 337.332 161.701 337.332C161.701 337.332 161.703 337.327 161.709 337.314ZM158.191 316.413C158.191 316.413 158.199 316.42 158.21 316.433C158.196 316.42 158.191 316.413 158.191 316.413Z" fill="black"/>
<path fill-rule="evenodd" clip-rule="evenodd" d="M209.464 223.548C227.008 205.814 250.099 194.576 280.718 194.576C311.337 194.576 334.428 205.814 351.971 223.548C369.393 241.158 381.197 265.013 389.777 290.139C392.341 297.65 396.776 301.848 400.923 304.983C401.87 305.698 402.787 306.348 403.701 306.995C403.814 307.075 403.927 307.155 404.04 307.235C405.034 307.939 406.065 308.676 406.982 309.422C408.669 310.796 410.906 312.911 411.358 316.075C411.905 319.905 409.449 322.413 407.481 323.715C405.511 325.017 403.039 325.851 400.971 326.427C400.831 326.466 400.691 326.504 400.551 326.542C402.041 327.698 403.668 329.047 404.977 330.447C405.682 331.2 406.395 332.072 406.95 333.036C407.491 333.974 408.044 335.275 408.044 336.807C408.044 338.682 407.163 340.139 406.411 341.074C405.637 342.036 404.657 342.873 403.699 343.589C401.787 345.02 399.218 346.51 396.586 348.007C396.172 348.243 395.752 348.48 395.329 348.72C390.162 351.649 384.41 354.91 379.705 358.891C352.395 381.998 317.005 395.546 280.718 395.546C244.431 395.546 209.04 381.998 181.731 358.891C177.026 354.91 171.274 351.649 166.107 348.72C165.683 348.48 165.264 348.243 164.849 348.007C162.218 346.51 159.649 345.02 157.736 343.589C156.779 342.873 155.798 342.036 155.024 341.074C154.273 340.139 153.392 338.682 153.392 336.807C153.392 335.275 153.945 333.974 154.485 333.036C155.041 332.072 155.754 331.2 156.458 330.447C157.768 329.047 159.395 327.698 160.885 326.542C160.745 326.504 160.605 326.466 160.465 326.427C158.397 325.851 155.924 325.017 153.955 323.715C151.987 322.413 149.531 319.905 150.078 316.075C150.53 312.911 152.767 310.796 154.454 309.422C155.371 308.676 156.402 307.939 157.395 307.235C157.508 307.155 157.621 307.075 157.734 306.995C158.648 306.348 159.565 305.698 160.512 304.983C164.659 301.848 169.094 297.65 171.659 290.139C180.239 265.013 192.043 241.158 209.464 223.548ZM215.43 229.449C199.277 245.777 187.99 268.283 179.6 292.851C176.291 302.542 170.446 307.993 165.572 311.677C164.514 312.477 163.488 313.203 162.582 313.844C162.469 313.924 162.357 314.003 162.248 314.081C161.232 314.801 160.421 315.385 159.752 315.93C159.282 316.312 158.969 316.609 158.762 316.828C159.607 317.338 160.956 317.853 162.715 318.343C164.107 318.731 165.481 319.033 166.784 319.319C167.211 319.413 167.63 319.505 168.04 319.598C168.796 319.769 169.633 319.969 170.32 320.199C170.645 320.308 171.151 320.493 171.655 320.788C171.91 320.938 172.309 321.198 172.704 321.606C173.096 322.011 173.672 322.76 173.879 323.867C174.21 325.63 173.367 326.932 173.171 327.231C172.855 327.717 172.491 328.099 172.247 328.34C171.736 328.843 171.098 329.355 170.518 329.804C169.944 330.246 169.284 330.734 168.622 331.223L168.503 331.311C167.786 331.841 167.049 332.386 166.317 332.949C164.819 334.1 163.501 335.202 162.586 336.18C162.478 336.296 162.381 336.404 162.294 336.504C162.429 336.615 162.585 336.737 162.763 336.87C164.181 337.931 166.279 339.167 168.997 340.712C169.429 340.958 169.873 341.209 170.328 341.467C175.387 344.33 181.812 347.968 187.151 352.485C213.005 374.36 246.491 387.155 280.718 387.155C314.944 387.155 348.431 374.36 374.285 352.485C379.623 347.968 386.049 344.33 391.108 341.467C391.563 341.209 392.007 340.958 392.438 340.712C395.156 339.167 397.255 337.931 398.673 336.87C398.851 336.737 399.006 336.615 399.142 336.504C399.055 336.404 398.958 336.296 398.849 336.18C397.934 335.202 396.616 334.1 395.119 332.949C394.386 332.386 393.649 331.841 392.933 331.311L392.814 331.224C392.152 330.734 391.491 330.246 390.918 329.804C390.337 329.355 389.699 328.843 389.189 328.34C388.945 328.099 388.581 327.717 388.264 327.231C388.069 326.932 387.226 325.63 387.556 323.867C387.764 322.76 388.34 322.011 388.732 321.606C389.127 321.198 389.526 320.938 389.781 320.788C390.284 320.493 390.791 320.308 391.116 320.199C391.802 319.969 392.64 319.769 393.395 319.598C393.805 319.505 394.224 319.413 394.651 319.319C395.955 319.033 397.329 318.731 398.72 318.343C400.479 317.853 401.829 317.338 402.673 316.828C402.466 316.609 402.154 316.312 401.684 315.93C401.015 315.385 400.203 314.801 399.188 314.081C399.078 314.003 398.967 313.924 398.854 313.844C397.948 313.203 396.922 312.477 395.863 311.677C390.989 307.993 385.145 302.542 381.835 292.851C373.446 268.283 362.159 245.777 346.006 229.449C329.974 213.244 309.006 202.967 280.718 202.967C252.43 202.967 231.461 213.244 215.43 229.449ZM403.244 316.413C403.244 316.413 403.24 316.42 403.226 316.433C403.237 316.42 403.244 316.413 403.244 316.413ZM399.734 337.332C399.734 337.332 399.732 337.327 399.727 337.314C399.732 337.326 399.734 337.332 399.734 337.332ZM161.524 335.761C161.524 335.761 161.53 335.769 161.539 335.783C161.528 335.768 161.524 335.761 161.524 335.761ZM161.709 337.314C161.704 337.326 161.701 337.332 161.701 337.332C161.701 337.332 161.703 337.327 161.709 337.314ZM158.191 316.413C158.191 316.413 158.199 316.42 158.21 316.433C158.196 316.42 158.191 316.413 158.191 316.413Z" fill="black" fill-opacity="0.2"/>
<path d="M242.622 264.245C242.622 268.703 231.666 264.245 227.487 264.245C223.307 264.245 213.613 263.605 213.613 259.147C213.613 254.688 215.715 249.799 227.487 249.799C239.259 249.799 242.622 259.787 242.622 264.245Z" fill="black"/>
<path d="M318.117 264.245C318.117 268.704 329.073 264.245 333.252 264.245C337.432 264.245 347.126 263.605 347.126 259.147C347.126 254.688 345.024 249.8 333.252 249.8C321.48 249.8 318.117 259.787 318.117 264.245Z" fill="black"/>
<path d="M281.151 348.993V361.625M281.151 361.625C281.151 361.625 277.263 365.409 274.092 365.712C270.279 366.075 265.175 361.625 265.175 361.625M281.151 361.625C281.151 361.625 285.031 365.517 288.21 365.712C291.772 365.93 296.384 361.625 296.384 361.625" stroke="black" stroke-width="5" stroke-linecap="round"/>
<path d="M280.863 350.108C279.194 350.108 267.927 345.966 266.769 339.545C265.611 333.124 296.95 333.124 294.957 339.545C292.965 345.966 282.532 350.108 280.863 350.108Z" fill="black"/>
<path d="M284.913 338.925C284.913 339.697 283.035 340.323 280.719 340.323C278.403 340.323 276.525 339.697 276.525 338.925C276.525 338.152 278.403 337.526 280.719 337.526C283.035 337.526 284.913 338.152 284.913 338.925Z" fill="black" fill-opacity="0.5"/>
<path d="M334.348 321.686C324.245 322.212 315.483 311.638 314.776 298.069C314.07 284.5 321.687 273.073 331.79 272.547C341.893 272.022 350.656 282.595 351.362 296.164C352.068 309.734 344.451 321.16 334.348 321.686Z" fill="black" stroke="black"/>
<path d="M329.955 291.709C327.328 292.802 324.313 291.559 323.219 288.932C322.126 286.305 323.37 283.289 325.996 282.196C328.623 281.103 331.639 282.346 332.732 284.973C333.825 287.6 332.582 290.616 329.955 291.709Z" fill="black" stroke="black"/>
<path d="M232.797 321.688C222.694 322.214 213.931 311.64 213.225 298.071C212.519 284.502 220.136 273.075 230.239 272.549C240.342 272.023 249.105 282.597 249.811 296.166C250.517 309.736 242.9 321.162 232.797 321.688Z" fill="black" stroke="black"/>
<path d="M228.403 291.711C225.776 292.804 222.761 291.561 221.667 288.934C220.574 286.307 221.818 283.291 224.445 282.198C227.072 281.105 230.087 282.348 231.18 284.975C232.273 287.602 231.03 290.618 228.403 291.711Z" fill="black" stroke="black"/>
<path d="M250.511 348.901C235.179 340.938 227.285 340.184 214.069 343.562" stroke="black" stroke-opacity="0.6" stroke-linecap="round"/>
<path d="M252.478 358.593C236.505 352.011 228.574 351.954 215.707 356.482" stroke="black" stroke-opacity="0.6" stroke-linecap="round"/>
<path d="M312.1 348.543C327.432 340.58 335.327 339.825 348.543 343.203" stroke="black" stroke-opacity="0.6" stroke-linecap="round"/>
<path d="M310.133 358.233C326.107 351.651 334.037 351.595 346.904 356.123" stroke="black" stroke-opacity="0.6" stroke-linecap="round"/>
<path d="M222.167 338.494C231.244 338.494 238.603 335.189 238.603 331.111C238.603 327.034 231.244 323.728 222.167 323.728C213.09 323.728 205.731 327.034 205.731 331.111C205.731 335.189 213.09 338.494 222.167 338.494Z" fill="black" fill-opacity="0.8"/>
<path d="M346.251 338.765C355.321 338.405 362.543 334.81 362.381 330.735C362.219 326.661 354.735 323.65 345.665 324.011C336.595 324.371 329.373 327.966 329.535 332.041C329.697 336.115 337.181 339.126 346.251 338.765Z" fill="black" fill-opacity="0.8"/>
<path d="M298.364 526.274C300.361 525.815 303.876 523.013 303.876 523.013C303.876 523.013 306.648 525.235 308.219 526.02C310.224 527.022 310.892 527.356 313.136 527.697C316.145 528.154 316.822 527.801 319.245 527.356C321.54 526.935 322.493 525.763 324.353 524.457C325.744 523.481 326.872 521.632 326.872 521.632C326.872 521.632 330.627 523.295 333.273 523.41C335.972 523.528 337.669 523.26 340.129 522.152C342.441 521.111 343.659 520.157 345.155 518.276C346.953 516.016 347.411 514.235 347.972 511.558C348.645 508.346 348.636 506.44 347.809 503.319C346.917 499.953 346.015 497.798 343.024 495.634C341.288 494.377 340.051 493.898 337.876 493.33C334.737 492.51 329.4 493.114 329.4 493.114L323.85 494.133C323.85 494.133 320.925 491.937 318.323 491.604C316.041 491.311 312.237 491.539 312.237 491.539C309.814 491.984 308.972 492.139 306.791 493.13C304.611 494.12 302.314 496.314 302.314 496.314L300.331 500.221L293.487 499.706C291.192 500.127 289.569 500.425 287.715 501.356C285.861 502.287 283.514 504.031 282.299 506.78C281.165 509.343 281.03 511.368 281.272 514.056C281.622 517.96 282.277 520.29 285.288 523.064C287.453 525.059 289.261 525.801 292.33 526.496C294.638 527.018 296.004 526.817 298.364 526.274Z" fill="black"/>
<path d="M298.364 526.274C300.361 525.815 303.876 523.013 303.876 523.013C303.876 523.013 306.648 525.235 308.219 526.02C310.224 527.022 310.892 527.356 313.136 527.697C316.145 528.154 316.822 527.801 319.245 527.356C321.54 526.935 322.493 525.763 324.353 524.457C325.744 523.481 326.872 521.632 326.872 521.632C326.872 521.632 330.627 523.295 333.273 523.41C335.972 523.528 337.669 523.26 340.129 522.152C342.441 521.111 343.659 520.157 345.155 518.276C346.953 516.016 347.411 514.235 347.972 511.558C348.645 508.346 348.636 506.44 347.809 503.319C346.917 499.953 346.015 497.798 343.024 495.634C341.288 494.377 340.051 493.898 337.876 493.33C334.737 492.51 329.4 493.114 329.4 493.114L323.85 494.133C323.85 494.133 320.925 491.937 318.323 491.604C316.041 491.311 312.237 491.539 312.237 491.539C309.814 491.984 308.972 492.139 306.791 493.13C304.611 494.12 302.314 496.314 302.314 496.314L300.331 500.221L293.487 499.706C291.192 500.127 289.569 500.425 287.715 501.356C285.861 502.287 283.514 504.031 282.299 506.78C281.165 509.343 281.03 511.368 281.272 514.056C281.622 517.96 282.277 520.29 285.288 523.064C287.453 525.059 289.261 525.801 292.33 526.496C294.638 527.018 296.004 526.817 298.364 526.274Z" stroke="black" stroke-width="5"/>
<path d="M298.364 526.274C300.361 525.815 303.876 523.013 303.876 523.013C303.876 523.013 306.648 525.235 308.219 526.02C310.224 527.022 310.892 527.356 313.136 527.697C316.145 528.154 316.822 527.801 319.245 527.356C321.54 526.935 322.493 525.763 324.353 524.457C325.744 523.481 326.872 521.632 326.872 521.632C326.872 521.632 330.627 523.295 333.273 523.41C335.972 523.528 337.669 523.26 340.129 522.152C342.441 521.111 343.659 520.157 345.155 518.276C346.953 516.016 347.411 514.235 347.972 511.558C348.645 508.346 348.636 506.44 347.809 503.319C346.917 499.953 346.015 497.798 343.024 495.634C341.288 494.377 340.051 493.898 337.876 493.33C334.737 492.51 329.4 493.114 329.4 493.114L323.85 494.133C323.85 494.133 320.925 491.937 318.323 491.604C316.041 491.311 312.237 491.539 312.237 491.539C309.814 491.984 308.972 492.139 306.791 493.13C304.611 494.12 302.314 496.314 302.314 496.314L300.331 500.221L293.487 499.706C291.192 500.127 289.569 500.425 287.715 501.356C285.861 502.287 283.514 504.031 282.299 506.78C281.165 509.343 281.03 511.368 281.272 514.056C281.622 517.96 282.277 520.29 285.288 523.064C287.453 525.059 289.261 525.801 292.33 526.496C294.638 527.018 296.004 526.817 298.364 526.274Z" stroke="black" stroke-opacity="0.2" stroke-width="5"/>
<path d="M227.031 521.008C229.076 520.896 233.379 518.001 233.379 518.001C233.379 518.001 234.047 520.006 235.049 521.538C236.139 523.203 237.054 524.349 239.058 525.017C241.981 525.992 243.014 525.883 245.464 525.626C248.079 525.352 248.696 524.985 250.752 524.015C252.289 523.29 254.427 520.674 254.427 520.674C254.427 520.674 254.975 521.647 256.182 522.679C257.354 523.681 258.832 524.739 260.107 525.017C261.424 525.305 263.44 525.498 265.119 525.352C266.804 525.205 268.487 525.02 269.796 524.683C272.251 524.052 273.226 522.816 274.808 521.008C277.147 518.335 277.203 517.488 278.149 514.66C279.187 511.56 279.308 509.49 279.025 506.274C278.72 502.805 278.198 500.528 275.62 497.884C274.124 496.35 272.987 495.667 270.941 494.737C267.987 493.393 262.625 493.078 262.625 493.078L256.983 493.136C256.983 493.136 254.475 490.473 251.969 489.701C249.77 489.024 245.982 488.6 245.982 488.6C243.52 488.625 242.663 488.634 240.346 489.238C238.028 489.842 237.009 490.203 235.391 491.612C234.1 492.735 232.771 495.124 232.771 495.124C232.771 495.124 228.695 493.253 226.362 493.277C224.029 493.301 222.668 493.344 220.682 493.945C218.697 494.546 217.338 495.453 215.671 497.955C214.117 500.287 213.332 502.806 213.332 505.505C213.332 509.314 213.6 511.686 215.337 515.066C215.988 516.334 216.646 517.253 217.341 518.001C218.072 518.788 218.859 519.387 220.348 520.006C222.533 520.914 224.613 521.14 227.031 521.008Z" fill="black"/>
<path d="M227.031 521.008C229.076 520.896 233.379 518.001 233.379 518.001C233.379 518.001 234.047 520.006 235.049 521.538C236.139 523.203 237.054 524.349 239.058 525.017C241.981 525.992 243.014 525.883 245.464 525.626C248.079 525.352 248.696 524.985 250.752 524.015C252.289 523.29 254.427 520.674 254.427 520.674C254.427 520.674 254.975 521.647 256.182 522.679C257.354 523.681 258.832 524.739 260.107 525.017C261.424 525.305 263.44 525.498 265.119 525.352C266.804 525.205 268.487 525.02 269.796 524.683C272.251 524.052 273.226 522.816 274.808 521.008C277.147 518.335 277.203 517.488 278.149 514.66C279.187 511.56 279.308 509.49 279.025 506.274C278.72 502.805 278.198 500.528 275.62 497.884C274.124 496.35 272.987 495.667 270.941 494.737C267.987 493.393 262.625 493.078 262.625 493.078L256.983 493.136C256.983 493.136 254.475 490.473 251.969 489.701C249.77 489.024 245.982 488.6 245.982 488.6C243.52 488.625 242.663 488.634 240.346 489.238C238.028 489.842 237.009 490.203 235.391 491.612C234.1 492.735 232.771 495.124 232.771 495.124C232.771 495.124 228.695 493.253 226.362 493.277C224.029 493.301 222.668 493.344 220.682 493.945C218.697 494.546 217.338 495.453 215.671 497.955C214.117 500.287 213.332 502.806 213.332 505.505C213.332 509.314 213.6 511.686 215.337 515.066C215.988 516.334 216.646 517.253 217.341 518.001C218.072 518.788 218.859 519.387 220.348 520.006C222.533 520.914 224.613 521.14 227.031 521.008Z" stroke="black" stroke-width="5"/>
<path d="M227.031 521.008C229.076 520.896 233.379 518.001 233.379 518.001C233.379 518.001 234.047 520.006 235.049 521.538C236.139 523.203 237.054 524.349 239.058 525.017C241.981 525.992 243.014 525.883 245.464 525.626C248.079 525.352 248.696 524.985 250.752 524.015C252.289 523.29 254.427 520.674 254.427 520.674C254.427 520.674 254.975 521.647 256.182 522.679C257.354 523.681 258.832 524.739 260.107 525.017C261.424 525.305 263.44 525.498 265.119 525.352C266.804 525.205 268.487 525.02 269.796 524.683C272.251 524.052 273.226 522.816 274.808 521.008C277.147 518.335 277.203 517.488 278.149 514.66C279.187 511.56 279.308 509.49 279.025 506.274C278.72 502.805 278.198 500.528 275.62 497.884C274.124 496.35 272.987 495.667 270.941 494.737C267.987 493.393 262.625 493.078 262.625 493.078L256.983 493.136C256.983 493.136 254.475 490.473 251.969 489.701C249.77 489.024 245.982 488.6 245.982 488.6C243.52 488.625 242.663 488.634 240.346 489.238C238.028 489.842 237.009 490.203 235.391 491.612C234.1 492.735 232.771 495.124 232.771 495.124C232.771 495.124 228.695 493.253 226.362 493.277C224.029 493.301 222.668 493.344 220.682 493.945C218.697 494.546 217.338 495.453 215.671 497.955C214.117 500.287 213.332 502.806 213.332 505.505C213.332 509.314 213.6 511.686 215.337 515.066C215.988 516.334 216.646 517.253 217.341 518.001C218.072 518.788 218.859 519.387 220.348 520.006C222.533 520.914 224.613 521.14 227.031 521.008Z" stroke="black" stroke-opacity="0.2" stroke-width="5"/>
<path d="M218.733 443.486C218.706 435.799 224.855 430.06 226.626 424.91C226.626 424.91 262.074 449.159 258.983 453.394C256.333 457.024 218.733 443.486 218.733 443.486Z" fill="black"/>
<path d="M343.197 442.867C343.225 435.006 337.592 429.558 335.766 424.29C335.766 424.29 298.52 449.682 301.709 454.013C304.442 457.725 343.197 442.867 343.197 442.867Z" fill="black"/>
<path d="M216.684 415.002C216.684 415.002 273.997 449.998 258.937 455.39C248.394 459.165 205.729 439.48 205.729 439.48" stroke="black" stroke-width="5"/>
<path d="M345.865 415.002C345.865 415.002 288.551 449.998 303.611 455.39C314.155 459.165 356.819 439.48 356.819 439.48" stroke="black" stroke-width="5"/>
</svg>
