<svg width="600" height="600" viewBox="0 0 600 600" fill="none" xmlns="http://www.w3.org/2000/svg">
<path d="M365.437 84.822C354.529 46.2174 300.319 157.028 300.319 157.028L378.682 253.304C378.682 253.304 378.682 131.693 365.437 84.822Z" fill="black"/>
<path d="M365.437 84.822C354.529 46.2174 300.319 157.028 300.319 157.028L378.682 253.304C378.682 253.304 378.682 131.693 365.437 84.822Z" fill="black"/>
<path d="M365.437 84.822C354.529 46.2174 300.319 157.028 300.319 157.028L378.682 253.304C378.682 253.304 378.682 131.693 365.437 84.822Z" stroke="black" stroke-width="5"/>
<path d="M365.437 84.822C354.529 46.2174 300.319 157.028 300.319 157.028L378.682 253.304C378.682 253.304 378.682 131.693 365.437 84.822Z" stroke="black" stroke-opacity="0.2" stroke-width="5"/>
<path d="M363.286 108.216C356.076 78.3188 320.242 164.135 320.242 164.135L372.041 238.694C372.041 238.694 372.041 144.514 363.286 108.216Z" fill="black"/>
<path d="M363.286 108.216C356.076 78.3188 320.242 164.135 320.242 164.135L372.041 238.694C372.041 238.694 372.041 144.514 363.286 108.216Z" stroke="black" stroke-width="5"/>
<path d="M363.286 108.216C356.076 78.3188 320.242 164.135 320.242 164.135L372.041 238.694C372.041 238.694 372.041 144.514 363.286 108.216Z" stroke="black" stroke-opacity="0.2" stroke-width="5"/>
<path d="M156.839 82.1657C167.747 43.5611 221.957 154.372 221.957 154.372L143.595 250.648C143.595 250.648 143.595 129.037 156.839 82.1657Z" fill="black"/>
<path d="M156.839 82.1657C167.747 43.5611 221.957 154.372 221.957 154.372L143.595 250.648C143.595 250.648 143.595 129.037 156.839 82.1657Z" fill="black"/>
<path d="M156.839 82.1657C167.747 43.5611 221.957 154.372 221.957 154.372L143.595 250.648C143.595 250.648 143.595 129.037 156.839 82.1657Z" stroke="black" stroke-width="5"/>
<path d="M156.839 82.1657C167.747 43.5611 221.957 154.372 221.957 154.372L143.595 250.648C143.595 250.648 143.595 129.037 156.839 82.1657Z" stroke="black" stroke-opacity="0.2" stroke-width="5"/>
<path d="M158.99 105.559C166.201 75.6624 202.034 161.478 202.034 161.478L150.235 236.038C150.235 236.038 150.235 141.858 158.99 105.559Z" fill="black"/>
<path d="M158.99 105.559C166.201 75.6624 202.034 161.478 202.034 161.478L150.235 236.038C150.235 236.038 150.235 141.858 158.99 105.559Z" stroke="black" stroke-width="5"/>
<path d="M158.99 105.559C166.201 75.6624 202.034 161.478 202.034 161.478L150.235 236.038C150.235 236.038 150.235 141.858 158.99 105.559Z" stroke="black" stroke-opacity="0.2" stroke-width="5"/>
<path d="M390.894 363.55C361.597 384.752 303.721 394.795 303.721 394.795L324.781 421.724C324.781 421.724 368.616 437.671 395.003 429.595C418.195 422.497 434.941 414.198 444.304 391.825C452.152 373.071 449.669 358.837 442.542 339.797C435.952 322.188 413.127 301.682 413.127 301.682C413.127 301.682 421.934 328.158 414.854 342.421C409.307 353.595 401.001 356.236 390.894 363.55Z" fill="black"/>
<path d="M390.894 363.55C361.597 384.752 303.721 394.795 303.721 394.795L324.781 421.724C324.781 421.724 368.616 437.671 395.003 429.595C418.195 422.497 434.941 414.198 444.304 391.825C452.152 373.071 449.669 358.837 442.542 339.797C435.952 322.188 413.127 301.682 413.127 301.682C413.127 301.682 421.934 328.158 414.854 342.421C409.307 353.595 401.001 356.236 390.894 363.55Z" stroke="black" stroke-width="5"/>
<path d="M390.894 363.55C361.597 384.752 303.721 394.795 303.721 394.795L324.781 421.724C324.781 421.724 368.616 437.671 395.003 429.595C418.195 422.497 434.941 414.198 444.304 391.825C452.152 373.071 449.669 358.837 442.542 339.797C435.952 322.188 413.127 301.682 413.127 301.682C413.127 301.682 421.934 328.158 414.854 342.421C409.307 353.595 401.001 356.236 390.894 363.55Z" stroke="black" stroke-opacity="0.2" stroke-width="5"/>
<path d="M406.106 354.524C389.504 365.813 378.214 373.118 378.214 373.118C410.499 382.452 415.273 394.149 406.106 423.589C406.106 423.589 427.334 413.374 437.318 402.338C449.936 388.392 451.155 370.95 448.608 356.516C446.615 345.226 447.28 346.07 439.311 331.945C431.341 317.819 416.732 304.717 416.732 304.717C416.732 304.717 422.402 324.282 418.724 335.929C416.767 342.126 415.713 347.991 406.106 354.524Z" fill="black"/>
<path d="M406.106 354.524C389.504 365.813 378.214 373.118 378.214 373.118C410.499 382.452 415.273 394.149 406.106 423.589C406.106 423.589 427.334 413.374 437.318 402.338C449.936 388.392 451.155 370.95 448.608 356.516C446.615 345.226 447.28 346.07 439.311 331.945C431.341 317.819 416.732 304.717 416.732 304.717C416.732 304.717 422.402 324.282 418.724 335.929C416.767 342.126 415.713 347.991 406.106 354.524Z" stroke="black" stroke-width="5"/>
<path d="M406.106 354.524C389.504 365.813 378.214 373.118 378.214 373.118C410.499 382.452 415.273 394.149 406.106 423.589C406.106 423.589 427.334 413.374 437.318 402.338C449.936 388.392 451.155 370.95 448.608 356.516C446.615 345.226 447.28 346.07 439.311 331.945C431.341 317.819 416.732 304.717 416.732 304.717C416.732 304.717 422.402 324.282 418.724 335.929C416.767 342.126 415.713 347.991 406.106 354.524Z" stroke="black" stroke-opacity="0.2" stroke-width="5"/>
<path d="M335.996 415.071C323.68 413.26 308.969 431.972 308.969 431.972C308.969 431.972 300.788 521.58 330.81 510.737C337.152 508.446 340.62 506.288 345.449 501.582C356.633 490.685 359.68 478.338 361.138 462.792C362.449 448.817 362.264 438.642 353.879 427.386C348.814 420.586 344.386 416.305 335.996 415.071Z" fill="black"/>
<path d="M335.996 415.071C323.68 413.26 308.969 431.972 308.969 431.972C308.969 431.972 300.788 521.58 330.81 510.737C337.152 508.446 340.62 506.288 345.449 501.582C356.633 490.685 359.68 478.338 361.138 462.792C362.449 448.817 362.264 438.642 353.879 427.386C348.814 420.586 344.386 416.305 335.996 415.071Z" stroke="black" stroke-width="5"/>
<path d="M335.996 415.071C323.68 413.26 308.969 431.972 308.969 431.972C308.969 431.972 300.788 521.58 330.81 510.737C337.152 508.446 340.62 506.288 345.449 501.582C356.633 490.685 359.68 478.338 361.138 462.792C362.449 448.817 362.264 438.642 353.879 427.386C348.814 420.586 344.386 416.305 335.996 415.071Z" stroke="black" stroke-opacity="0.2" stroke-width="5"/>
<path d="M331.082 507.122C325.31 509.165 322.174 508.001 318.27 504.168C312.033 498.043 312.363 479.346 312.363 479.346L355.572 476.143C355.572 476.143 354.672 485.405 348.818 492.898C344.033 499.024 338.453 504.513 331.082 507.122Z" fill="black"/>
<path d="M179.282 412.415C191.598 410.604 206.309 429.316 206.309 429.316C206.309 429.316 214.491 518.924 184.469 508.081C178.127 505.79 174.659 503.632 169.829 498.926C158.646 488.029 155.599 475.682 154.141 460.136C152.83 446.161 153.015 435.986 161.4 424.73C166.465 417.929 170.893 413.648 179.282 412.415Z" fill="black"/>
<path d="M179.282 412.415C191.598 410.604 206.309 429.316 206.309 429.316C206.309 429.316 214.491 518.924 184.469 508.081C178.127 505.79 174.659 503.632 169.829 498.926C158.646 488.029 155.599 475.682 154.141 460.136C152.83 446.161 153.015 435.986 161.4 424.73C166.465 417.929 170.893 413.648 179.282 412.415Z" stroke="black" stroke-width="5"/>
<path d="M179.282 412.415C191.598 410.604 206.309 429.316 206.309 429.316C206.309 429.316 214.491 518.924 184.469 508.081C178.127 505.79 174.659 503.632 169.829 498.926C158.646 488.029 155.599 475.682 154.141 460.136C152.83 446.161 153.015 435.986 161.4 424.73C166.465 417.929 170.893 413.648 179.282 412.415Z" stroke="black" stroke-opacity="0.2" stroke-width="5"/>
<path d="M184.196 504.466C189.968 506.509 193.105 505.345 197.008 501.512C203.245 495.386 202.916 476.69 202.916 476.69L159.706 473.487C159.706 473.487 160.607 482.749 166.46 490.242C171.246 496.368 176.825 501.857 184.196 504.466Z" fill="black"/>
<path d="M186.459 325.629C184.579 330.873 152.788 420.752 178.489 459.304C206.381 501.141 315.958 506.454 338.536 459.304C361.113 412.154 330.569 329.63 328.574 325.629C328.574 325.629 188.043 321.211 186.459 325.629Z" fill="black"/>
<path d="M186.459 325.629C184.579 330.873 152.788 420.752 178.489 459.304C206.381 501.141 315.958 506.454 338.536 459.304C361.113 412.154 330.569 329.63 328.574 325.629C328.574 325.629 188.043 321.211 186.459 325.629Z" stroke="black" stroke-width="5"/>
<path d="M186.459 325.629C184.579 330.873 152.788 420.752 178.489 459.304C206.381 501.141 315.958 506.454 338.536 459.304C361.113 412.154 330.569 329.63 328.574 325.629C328.574 325.629 188.043 321.211 186.459 325.629Z" stroke="black" stroke-opacity="0.2" stroke-width="5"/>
<path d="M180.544 359.961C165.088 357.068 180.544 328.86 180.544 328.86L340.909 325.967C340.909 325.967 356.367 362.854 335.114 359.961C329.799 359.237 331.873 350.481 325.453 347.665C319.032 344.849 335.114 374.426 320.623 374.426C314.378 374.426 313.089 361.78 303.233 359.961C299.369 359.247 311.929 390.338 294.539 393.954C289.135 395.078 284.88 374.426 279.929 374.426C273.288 374.426 267.975 399.019 257.829 399.017C247.682 399.015 246.725 374.426 241.412 374.426C236.099 374.426 232.712 399.017 220.153 393.954C204.743 387.742 226.915 359.206 220.153 359.961C209.598 361.138 209.631 374.426 200.832 374.426C188.273 374.426 200.832 346.791 195.035 347.665C186.65 348.93 188.842 361.514 180.544 359.961Z" fill="black"/>
<path d="M180.544 359.961C165.088 357.068 180.544 328.86 180.544 328.86L340.909 325.967C340.909 325.967 356.367 362.854 335.114 359.961C329.799 359.237 331.873 350.481 325.453 347.665C319.032 344.849 335.114 374.426 320.623 374.426C314.378 374.426 313.089 361.78 303.233 359.961C299.369 359.247 311.929 390.338 294.539 393.954C289.135 395.078 284.88 374.426 279.929 374.426C273.288 374.426 267.975 399.019 257.829 399.017C247.682 399.015 246.725 374.426 241.412 374.426C236.099 374.426 232.712 399.017 220.153 393.954C204.743 387.742 226.915 359.206 220.153 359.961C209.598 361.138 209.631 374.426 200.832 374.426C188.273 374.426 200.832 346.791 195.035 347.665C186.65 348.93 188.842 361.514 180.544 359.961Z" stroke="black" stroke-width="5"/>
<path d="M180.544 359.961C165.088 357.068 180.544 328.86 180.544 328.86L340.909 325.967C340.909 325.967 356.367 362.854 335.114 359.961C329.799 359.237 331.873 350.481 325.453 347.665C319.032 344.849 335.114 374.426 320.623 374.426C314.378 374.426 313.089 361.78 303.233 359.961C299.369 359.247 311.929 390.338 294.539 393.954C289.135 395.078 284.88 374.426 279.929 374.426C273.288 374.426 267.975 399.019 257.829 399.017C247.682 399.015 246.725 374.426 241.412 374.426C236.099 374.426 232.712 399.017 220.153 393.954C204.743 387.742 226.915 359.206 220.153 359.961C209.598 361.138 209.631 374.426 200.832 374.426C188.273 374.426 200.832 346.791 195.035 347.665C186.65 348.93 188.842 361.514 180.544 359.961Z" stroke="black" stroke-opacity="0.2" stroke-width="5"/>
<path d="M258.059 133.768C194.968 133.768 161.467 179.916 143.293 233.211C136.885 248.689 117.393 281.328 149.933 314.533C178.402 338.654 220.298 340.303 258.059 340.303C295.819 340.303 425.531 345.081 370.61 233.211C352.436 179.916 321.15 133.768 258.059 133.768Z" fill="black"/>
<path d="M258.059 133.768C194.968 133.768 161.467 179.916 143.293 233.211C136.885 248.689 117.393 281.328 149.933 314.533C178.402 338.654 220.298 340.303 258.059 340.303C295.819 340.303 425.531 345.081 370.61 233.211C352.436 179.916 321.15 133.768 258.059 133.768Z" stroke="black" stroke-width="5"/>
<path d="M258.059 133.768C194.968 133.768 161.467 179.916 143.293 233.211C136.885 248.689 117.393 281.328 149.933 314.533C178.402 338.654 220.298 340.303 258.059 340.303C295.819 340.303 425.531 345.081 370.61 233.211C352.436 179.916 321.15 133.768 258.059 133.768Z" stroke="black" stroke-opacity="0.2" stroke-width="5"/>
<path d="M196.313 254.246C187.096 254.246 141.144 257.59 133.331 281.44C139.807 334.601 230.775 340.577 258.327 340.577C285.91 340.577 382.859 337.921 382.859 281.44C376.436 257.245 329.094 254.246 319.877 254.246C310.66 254.246 309.585 270.414 301.443 266.905C285.802 260.166 278.297 230.339 258.327 230.339C238.357 230.339 230.338 260.187 214.747 266.905C206.605 270.414 205.53 254.246 196.313 254.246Z" fill="black"/>
<path d="M217.39 203.986C217.39 208.768 205.64 203.986 201.158 203.986C196.675 203.986 186.278 203.3 186.278 198.518C186.278 193.737 188.533 188.494 201.158 188.494C213.783 188.494 217.39 199.205 217.39 203.986Z" fill="black" fill-opacity="0.8"/>
<path d="M298.355 203.986C298.355 208.768 310.105 203.986 314.587 203.986C319.07 203.986 329.467 203.3 329.467 198.518C329.467 193.737 327.212 188.494 314.587 188.494C301.962 188.494 298.355 199.205 298.355 203.986Z" fill="black" fill-opacity="0.8"/>
<path d="M271.764 311.743H245.864C245.864 311.743 250.642 329.219 259.146 329.01C267.495 328.804 271.764 311.743 271.764 311.743Z" fill="black"/>
<path d="M258.711 294.876V308.423M258.711 308.423C258.711 308.423 254.541 312.482 251.14 312.806C247.05 313.196 241.577 308.423 241.577 308.423M258.711 308.423C258.711 308.423 262.871 312.597 266.281 312.806C270.101 313.04 275.047 308.423 275.047 308.423" stroke="black" stroke-width="5" stroke-linecap="round"/>
<path d="M258.402 296.072C256.612 296.072 244.529 291.63 243.287 284.744C242.045 277.858 275.654 277.858 273.517 284.744C271.38 291.63 260.192 296.072 258.402 296.072Z" fill="black"/>
<path d="M262.745 284.078C262.745 284.906 260.731 285.577 258.247 285.577C255.762 285.577 253.749 284.906 253.749 284.078C253.749 283.25 255.762 282.578 258.247 282.578C260.731 282.578 262.745 283.25 262.745 284.078Z" fill="black" fill-opacity="0.5"/>
<path d="M194.126 292.913C203.861 292.913 211.753 289.368 211.753 284.995C211.753 280.622 203.861 277.077 194.126 277.077C184.391 277.077 176.499 280.622 176.499 284.995C176.499 289.368 184.391 292.913 194.126 292.913Z" fill="black"/>
<path d="M327.201 293.203C336.929 292.816 344.673 288.96 344.5 284.591C344.326 280.221 336.3 276.992 326.572 277.379C316.845 277.766 309.1 281.621 309.274 285.991C309.448 290.36 317.474 293.589 327.201 293.203Z" fill="black"/>
<path d="M319.157 270.829C306.372 274.855 293.236 265.573 289.816 250.099C286.396 234.624 293.988 218.817 306.772 214.791C319.557 210.766 332.693 220.047 336.113 235.522C339.533 250.996 331.941 266.804 319.157 270.829Z" fill="black" stroke="black"/>
<path d="M307.99 237.602C304.844 239.756 300.767 239.336 298.886 236.664C297.004 233.991 298.03 230.079 301.176 227.924C304.323 225.77 308.399 226.19 310.281 228.863C312.163 231.535 311.137 235.448 307.99 237.602Z" fill="black" stroke="black"/>
<path d="M208.578 269.491C195.793 273.517 182.657 264.235 179.237 248.761C175.817 233.287 183.408 217.479 196.193 213.454C208.978 209.428 222.114 218.71 225.534 234.184C228.954 249.658 221.362 265.466 208.578 269.491Z" fill="black" stroke="black"/>
<path d="M197.411 236.263C194.265 238.417 190.188 237.997 188.307 235.325C186.425 232.652 187.451 228.74 190.597 226.586C193.744 224.431 197.82 224.851 199.702 227.524C201.583 230.196 200.558 234.109 197.411 236.263Z" fill="black" stroke="black"/>
<path d="M281.729 456.99C277.307 456.285 275.698 454.441 274.53 450.614C272.663 444.498 279.409 432.6 279.409 432.6L308.293 445.644C308.293 445.644 304.477 451.281 298.097 454.05C292.881 456.313 287.377 457.89 281.729 456.99Z" fill="black"/>
<path d="M293.787 400.974C293.787 400.974 257.21 455.691 280.291 459.217C285.166 459.962 288.149 459.787 292.897 458.452C303.891 455.359 310.165 448.49 316.535 439.011C322.262 430.49 324.987 423.756 326.93 414.041" stroke="black" stroke-width="5" stroke-linecap="round"/>
<path d="M293.787 400.974C293.787 400.974 257.21 455.691 280.291 459.217C285.166 459.962 288.149 459.787 292.897 458.452C303.891 455.359 310.165 448.49 316.535 439.011C322.262 430.49 324.987 423.756 326.93 414.041" stroke="black" stroke-opacity="0.2" stroke-width="5" stroke-linecap="round"/>
<path d="M239.218 456.99C243.641 456.286 245.25 454.442 246.418 450.614C248.285 444.499 241.538 432.601 241.538 432.601L212.655 445.645C212.655 445.645 216.471 451.282 222.851 454.05C228.067 456.313 233.57 457.89 239.218 456.99Z" fill="black"/>
<path d="M227.161 400.974C227.161 400.974 263.737 455.692 240.657 459.217C235.781 459.962 232.799 459.788 228.051 458.452C217.056 455.359 210.783 448.491 204.412 439.011C198.686 430.49 195.961 423.757 194.018 414.042" stroke="black" stroke-width="5" stroke-linecap="round"/>
<path d="M227.161 400.974C227.161 400.974 263.737 455.692 240.657 459.217C235.781 459.962 232.799 459.788 228.051 458.452C217.056 455.359 210.783 448.491 204.412 439.011C198.686 430.49 195.961 423.757 194.018 414.042" stroke="black" stroke-opacity="0.2" stroke-width="5" stroke-linecap="round"/>
</svg>
