<svg width="600" height="600" viewBox="0 0 600 600" fill="none" xmlns="http://www.w3.org/2000/svg">
<path d="M146.284 208.239C135.491 176.283 134.332 156.629 139.829 118.886C178.81 123.59 195.643 131.209 222.123 148.314L146.284 208.239Z" fill="black"/>
<path d="M157.76 187.297C152.077 170.195 151.467 159.677 154.361 139.479C174.886 141.996 183.749 146.074 197.691 155.228L157.76 187.297Z" fill="black"/>
<path fill-rule="evenodd" clip-rule="evenodd" d="M136.264 114L140.321 114.492C159.964 116.873 174.244 120.018 187.028 124.818C199.811 129.618 210.912 136.004 224.219 144.641L229.104 147.811L144.193 215.22L142.294 209.571C136.836 193.334 133.751 180.034 132.769 165.908C131.79 151.816 132.917 137.093 135.678 118.047L136.264 114ZM143.384 123.319C141.091 140.106 140.263 153.068 141.115 165.327C141.92 176.903 144.233 187.997 148.374 201.213L214.751 148.519C203.835 141.639 194.508 136.569 184.089 132.657C173.002 128.494 160.516 125.582 143.384 123.319Z" fill="black"/>
<path d="M334.612 208.239C345.404 176.283 346.563 156.629 341.066 118.886C302.086 123.59 285.252 131.209 258.773 148.314L334.612 208.239Z" fill="black"/>
<path d="M323.446 187.297C329.172 170.195 329.787 159.677 326.871 139.479C306.187 141.996 297.255 146.074 283.205 155.228L323.446 187.297Z" fill="black"/>
<path fill-rule="evenodd" clip-rule="evenodd" d="M344.631 114L340.575 114.492C320.931 116.873 306.652 120.018 293.868 124.818C281.084 129.618 269.983 136.004 256.677 144.641L251.792 147.811L336.703 215.22L338.602 209.571C344.059 193.334 347.144 180.034 348.126 165.908C349.106 151.816 347.979 137.093 345.218 118.047L344.631 114ZM337.511 123.319C339.805 140.106 340.632 153.068 339.78 165.327C338.975 176.903 336.662 187.997 332.521 201.213L266.145 148.519C277.061 141.639 286.388 136.569 296.807 132.657C307.894 128.494 320.379 125.582 337.511 123.319Z" fill="black"/>
<path d="M450.239 192.959C502.564 222.967 436.764 259.255 418.502 286.872C395.178 322.143 402.082 322.143 409.326 372.667C416.464 422.454 345.639 477.279 299.834 451.01C256.198 425.985 305.009 386.649 318.37 347.246C331.732 307.844 318.37 272.119 339.298 246.834C365.171 215.576 405.607 167.363 450.239 192.959Z" fill="black"/>
<path d="M372.592 442.975C350.487 409.527 334.037 396.499 296.908 384.264C305.119 371.649 309.309 364.498 315.226 351.455C352.602 365.898 372.849 376.09 406.979 400.119C397.194 422.152 388.907 430.433 372.592 442.975Z" fill="black"/>
<path d="M330.634 259.936C324.986 277.902 324.59 291.006 324.117 314.633C357.363 310.657 374.517 316.004 403.909 331.667C402.55 319.8 403.134 312.822 414.399 297.911C386.455 273.949 368.373 265.135 330.634 259.936Z" fill="black"/>
<path d="M437.215 273.54C414.632 248.287 397.98 236.943 361.219 221.643C372.265 209.826 380.179 203.898 396.914 194.388C429.863 206.221 444.143 217.712 461.396 247.755L437.215 273.54Z" fill="black"/>
<path fill-rule="evenodd" clip-rule="evenodd" d="M298.075 456.057C286.137 449.13 279.37 440.459 277.59 430.038C275.893 420.101 279.027 410.051 283.319 400.824C286.82 393.298 291.535 385.445 296.112 377.82C297.165 376.067 298.21 374.326 299.231 372.604C304.851 363.129 309.904 354.001 312.891 345.088C318.185 329.296 318.9 314.23 319.61 299.275C319.721 296.934 319.832 294.595 319.96 292.257C320.883 275.456 322.729 258.21 334.564 243.743C347.052 228.479 363.856 208.016 383.321 194.735C403.081 181.253 426.951 174.348 452.048 188.91C465.804 196.892 473.586 206.354 474.828 217.542C476.021 228.297 470.839 238.307 464.587 246.75C458.474 255.006 450.32 263.081 442.938 270.392C442.657 270.669 442.378 270.945 442.101 271.221C434.208 279.04 427.492 285.806 423.553 291.834C412.227 309.162 409.307 316.352 409.089 324.711C408.971 329.219 409.642 334.348 410.914 341.915C411.212 343.69 411.541 345.586 411.892 347.616C413.011 354.072 414.365 361.883 415.722 371.455C419.716 399.639 402.01 427.78 378.849 445.086C355.684 462.394 323.985 471.091 298.075 456.057ZM437.625 265.383C460.623 242.605 486.273 217.201 448.38 195.214C404.866 169.966 365.443 217.523 340.219 248.356C328.648 262.501 327.829 279.958 326.912 299.511C326.212 314.434 325.455 330.578 319.816 347.402C315.939 358.969 309.001 370.53 302.288 381.715C286.446 408.113 271.862 432.415 301.744 449.753C346.401 475.665 415.452 421.586 408.492 372.477C407.153 363.028 405.826 355.37 404.709 348.928C399.936 321.39 399.01 316.044 417.438 287.849C422.017 280.843 429.662 273.27 437.625 265.383Z" fill="black"/>
<path d="M306.985 371.05C297.436 374.011 286.578 386.509 286.578 386.509L281.631 470.608C281.631 470.608 311.67 459.371 329.246 448.965C333.167 446.643 335.73 445.803 339.14 442.781C352.304 431.116 354.203 413.393 349.652 396.403C346.427 384.361 340.676 376.027 329.246 371.05C321.276 367.578 315.288 368.474 306.985 371.05Z" fill="black"/>
<path d="M306.985 371.05C297.436 374.011 286.578 386.509 286.578 386.509L281.631 470.608C281.631 470.608 311.67 459.371 329.246 448.965C333.167 446.643 335.73 445.803 339.14 442.781C352.304 431.116 354.203 413.393 349.652 396.403C346.427 384.361 340.676 376.027 329.246 371.05C321.276 367.578 315.288 368.474 306.985 371.05Z" stroke="black" stroke-width="5"/>
<path d="M306.985 371.05C297.436 374.011 286.578 386.509 286.578 386.509L281.631 470.608C281.631 470.608 311.67 459.371 329.246 448.965C333.167 446.643 335.73 445.803 339.14 442.781C352.304 431.116 354.203 413.393 349.652 396.403C346.427 384.361 340.676 376.027 329.246 371.05C321.276 367.578 315.288 368.474 306.985 371.05Z" stroke="black" stroke-opacity="0.2" stroke-width="5"/>
<path d="M181.83 371.05C191.379 374.011 202.236 386.509 202.236 386.509L207.183 470.608C207.183 470.608 177.144 459.371 159.568 448.965C155.648 446.643 153.085 445.803 149.674 442.781C136.51 431.116 134.611 413.393 139.162 396.403C142.388 384.361 148.139 376.027 159.568 371.05C167.539 367.578 173.526 368.474 181.83 371.05Z" fill="black"/>
<path d="M181.83 371.05C191.379 374.011 202.236 386.509 202.236 386.509L207.183 470.608C207.183 470.608 177.144 459.371 159.568 448.965C155.648 446.643 153.085 445.803 149.674 442.781C136.51 431.116 134.611 413.393 139.162 396.403C142.388 384.361 148.139 376.027 159.568 371.05C167.539 367.578 173.526 368.474 181.83 371.05Z" stroke="black" stroke-width="5"/>
<path d="M181.83 371.05C191.379 374.011 202.236 386.509 202.236 386.509L207.183 470.608C207.183 470.608 177.144 459.371 159.568 448.965C155.648 446.643 153.085 445.803 149.674 442.781C136.51 431.116 134.611 413.393 139.162 396.403C142.388 384.361 148.139 376.027 159.568 371.05C167.539 367.578 173.526 368.474 181.83 371.05Z" stroke="black" stroke-opacity="0.2" stroke-width="5"/>
<path d="M152.659 485.849C178.63 482.758 221.298 475.956 221.298 475.956C221.298 475.956 198.62 462.252 182.341 459.259C169.04 456.815 157.57 452.944 144.507 456.443C133.995 459.259 124.824 465.354 126.069 475.956C127.361 486.959 141.657 487.159 152.659 485.849Z" fill="black"/>
<path d="M152.659 485.849C178.63 482.758 221.298 475.956 221.298 475.956C221.298 475.956 198.62 462.252 182.341 459.259C169.04 456.815 157.57 452.944 144.507 456.443C133.995 459.259 124.824 465.354 126.069 475.956C127.361 486.959 141.657 487.159 152.659 485.849Z" stroke="black" stroke-width="5"/>
<path d="M152.659 485.849C178.63 482.758 221.298 475.956 221.298 475.956C221.298 475.956 198.62 462.252 182.341 459.259C169.04 456.815 157.57 452.944 144.507 456.443C133.995 459.259 124.824 465.354 126.069 475.956C127.361 486.959 141.657 487.159 152.659 485.849Z" stroke="black" stroke-opacity="0.2" stroke-width="5"/>
<path d="M335.584 486.013C309.612 482.921 266.945 476.119 266.945 476.119C266.945 476.119 289.623 462.415 305.902 459.423C319.203 456.978 330.673 453.107 343.736 456.606C354.248 459.423 363.419 465.517 362.174 476.119C360.882 487.123 346.586 487.322 335.584 486.013Z" fill="black"/>
<path d="M335.584 486.013C309.612 482.921 266.945 476.119 266.945 476.119C266.945 476.119 289.623 462.415 305.902 459.423C319.203 456.978 330.673 453.107 343.736 456.606C354.248 459.423 363.419 465.517 362.174 476.119C360.882 487.123 346.586 487.322 335.584 486.013Z" stroke="black" stroke-width="5"/>
<path d="M335.584 486.013C309.612 482.921 266.945 476.119 266.945 476.119C266.945 476.119 289.623 462.415 305.902 459.423C319.203 456.978 330.673 453.107 343.736 456.606C354.248 459.423 363.419 465.517 362.174 476.119C360.882 487.123 346.586 487.322 335.584 486.013Z" stroke="black" stroke-opacity="0.2" stroke-width="5"/>
<path d="M176.045 325.168C174.294 330.051 144.691 413.743 168.623 449.641C194.595 488.599 296.629 493.546 317.652 449.641C338.676 405.737 310.234 328.894 308.376 325.168C308.376 325.168 177.519 321.054 176.045 325.168Z" fill="black"/>
<path d="M176.045 325.168C174.294 330.051 144.691 413.743 168.623 449.641C194.595 488.599 296.629 493.546 317.652 449.641C338.676 405.737 310.234 328.894 308.376 325.168C308.376 325.168 177.519 321.054 176.045 325.168Z" stroke="black" stroke-width="5"/>
<path d="M176.045 325.168C174.294 330.051 144.691 413.743 168.623 449.641C194.595 488.599 296.629 493.546 317.652 449.641C338.676 405.737 310.234 328.894 308.376 325.168C308.376 325.168 177.519 321.054 176.045 325.168Z" stroke="black" stroke-opacity="0.2" stroke-width="5"/>
<path d="M227.543 461.769C221.24 462.464 211.142 463.784 211.142 463.784C211.142 463.784 199.146 461.782 193.905 456.423C190.278 452.714 188.67 450.792 186.213 446.577C183.586 442.07 182.459 439.38 180.873 434.2C179.288 429.02 179.186 426.23 178.995 420.999C178.805 415.769 179.933 408.394 179.933 408.394C179.933 408.394 181.198 402.022 182.703 398.167C185.204 391.759 187.477 388.405 191.933 383.164C195.946 378.446 198.603 376.023 203.77 372.607C209.998 368.489 214.103 366.963 221.301 364.984C229.99 362.595 235.273 362.19 244.267 362.75C251.525 363.202 256.617 363.684 263.486 366.075C270.355 368.465 274.605 369.741 280.585 373.752C285.557 377.087 289.095 379.814 293.148 384.221C297.783 389.261 299.363 393.203 301.872 399.575C303.997 404.974 304.519 410.195 305.012 415.976C305.57 422.516 304.821 425.351 303.616 430.632C302.412 435.914 301.141 438.198 298.206 443.892C295.27 449.586 294.45 450.545 291.238 453.923C288.29 457.025 285.766 458.745 282.064 460.892C278.448 462.989 272.078 464.748 272.078 464.748C272.078 464.748 264.085 463.188 257.903 462.388C251.72 461.588 248.693 461.168 242.897 460.892C236.908 460.607 233.503 461.112 227.543 461.769Z" fill="black"/>
<path d="M242.715 146.515C183.968 146.515 152.773 189.486 135.85 239.112C129.883 253.525 111.734 283.917 142.033 314.836C168.543 337.297 207.554 338.833 242.715 338.833C277.877 338.833 398.659 343.281 347.519 239.112C330.596 189.486 301.463 146.515 242.715 146.515Z" fill="black"/>
<path d="M242.715 146.515C183.968 146.515 152.773 189.486 135.85 239.112C129.883 253.525 111.734 283.917 142.033 314.836C168.543 337.297 207.554 338.833 242.715 338.833C277.877 338.833 398.659 343.281 347.519 239.112C330.596 189.486 301.463 146.515 242.715 146.515Z" stroke="black" stroke-width="5"/>
<path d="M242.715 146.515C183.968 146.515 152.773 189.486 135.85 239.112C129.883 253.525 111.734 283.917 142.033 314.836C168.543 337.297 207.554 338.833 242.715 338.833C277.877 338.833 398.659 343.281 347.519 239.112C330.596 189.486 301.463 146.515 242.715 146.515Z" stroke="black" stroke-opacity="0.2" stroke-width="5"/>
<path d="M185.22 258.699C176.638 258.699 133.849 261.813 126.573 284.021C132.604 333.522 217.309 339.088 242.965 339.088C268.65 339.088 358.925 336.614 358.925 284.021C352.943 261.492 308.86 258.699 300.278 258.699C291.695 258.699 290.694 273.754 283.113 270.487C268.548 264.212 261.56 277.25 242.965 277.25C224.37 277.25 216.903 264.232 202.385 270.487C194.803 273.754 193.803 258.699 185.22 258.699Z" fill="black"/>
<path d="M301.903 254.989C310.485 254.989 335.498 258.028 342.774 235.82C336.744 186.319 269.814 174.601 244.158 174.601C218.473 174.601 142.421 183.227 142.421 235.82C148.402 258.349 178.263 254.989 186.845 254.989C195.428 254.989 196.429 239.935 204.01 243.201C218.575 249.477 225.563 277.251 244.158 277.251C262.753 277.251 270.22 249.457 284.738 243.201C292.32 239.935 293.32 254.989 301.903 254.989Z" fill="black" fill-opacity="0.8"/>
<path d="M207.875 212.524C207.875 216.977 196.934 212.524 192.76 212.524C188.587 212.524 178.905 211.885 178.905 207.433C178.905 202.981 181.005 198.099 192.76 198.099C204.516 198.099 207.875 208.072 207.875 212.524Z" fill="black" fill-opacity="0.8"/>
<path d="M275.371 213.761C275.371 218.213 286.312 213.761 290.486 213.761C294.66 213.761 304.341 213.122 304.341 208.67C304.341 204.217 302.242 199.335 290.486 199.335C278.73 199.335 275.371 209.309 275.371 213.761Z" fill="black" fill-opacity="0.8"/>
<path d="M255.477 313.116H231.36C231.36 313.116 235.809 329.389 243.728 329.194C251.502 329.002 255.477 313.116 255.477 313.116Z" fill="black"/>
<path d="M243.322 296.532V309.147M243.322 309.147C243.322 309.147 239.439 312.926 236.273 313.228C232.465 313.591 227.368 309.147 227.368 309.147M243.322 309.147C243.322 309.147 247.197 313.034 250.372 313.228C253.929 313.446 258.534 309.147 258.534 309.147" stroke="black" stroke-width="5" stroke-linecap="round"/>
<path d="M243.035 297.646C241.368 297.646 230.117 293.51 228.96 287.098C227.804 280.686 259.099 280.686 257.11 287.098C255.12 293.51 244.702 297.646 243.035 297.646Z" fill="black"/>
<path d="M247.078 286.478C247.078 287.249 245.203 287.874 242.89 287.874C240.577 287.874 238.702 287.249 238.702 286.478C238.702 285.707 240.577 285.082 242.89 285.082C245.203 285.082 247.078 285.707 247.078 286.478Z" fill="black" fill-opacity="0.5"/>
<path d="M183.183 294.705C192.248 294.705 199.596 291.404 199.596 287.332C199.596 283.26 192.248 279.959 183.183 279.959C174.118 279.959 166.77 283.26 166.77 287.332C166.77 291.404 174.118 294.705 183.183 294.705Z" fill="black"/>
<path d="M307.098 294.975C316.156 294.615 323.367 291.025 323.206 286.956C323.044 282.887 315.57 279.881 306.512 280.241C297.455 280.601 290.243 284.191 290.405 288.26C290.566 292.329 298.04 295.335 307.098 294.975Z" fill="black"/>
<path d="M299.609 274.141C287.704 277.889 275.472 269.247 272.288 254.838C269.103 240.428 276.172 225.709 288.077 221.961C299.982 218.212 312.214 226.855 315.398 241.264C318.583 255.673 311.513 270.393 299.609 274.141Z" fill="black" stroke="black"/>
<path d="M289.21 243.201C286.28 245.207 282.485 244.816 280.733 242.328C278.981 239.839 279.936 236.196 282.866 234.19C285.796 232.184 289.591 232.575 291.343 235.064C293.095 237.552 292.14 241.195 289.21 243.201Z" fill="black" stroke="black"/>
<path d="M196.642 272.896C184.737 276.645 172.505 268.002 169.321 253.593C166.136 239.184 173.205 224.464 185.11 220.716C197.014 216.968 209.247 225.61 212.431 240.019C215.615 254.429 208.546 269.148 196.642 272.896Z" fill="black" stroke="black"/>
<path d="M186.244 241.955C183.314 243.961 179.518 243.57 177.766 241.082C176.014 238.593 176.969 234.95 179.899 232.944C182.829 230.938 186.624 231.329 188.376 233.818C190.129 236.306 189.174 239.949 186.244 241.955Z" fill="black" stroke="black"/>
<path d="M309.382 409.583C305.243 391.133 299.894 384.387 287.739 375.572C274.042 392.014 268.849 403.761 259.912 425.042L269.188 431.226C286.4 425.132 295.671 421.133 309.382 409.583Z" fill="black"/>
<path d="M294.885 359.719C294.885 359.719 251.641 421.144 263.004 430.607C270.959 437.232 314.329 410.2 314.329 410.2" stroke="black" stroke-width="5" stroke-linecap="round"/>
<path d="M177.668 409.975C181.807 391.526 187.156 384.78 199.311 375.965C213.009 392.407 218.202 404.153 227.138 425.434L217.863 431.618C200.65 425.524 191.379 421.525 177.668 409.975Z" fill="black"/>
<path d="M192.165 360.113C192.165 360.113 235.41 421.537 224.047 431C216.091 437.625 172.722 410.593 172.722 410.593" stroke="black" stroke-width="5" stroke-linecap="round"/>
</svg>
