<svg width="600" height="600" viewBox="0 0 600 600" fill="none" xmlns="http://www.w3.org/2000/svg">
<path d="M393.975 284.414C375.602 297.874 348.434 317.743 348.434 317.743C348.434 317.743 346.305 384.676 373.541 410.481C380.388 416.968 393.096 424.652 393.096 424.652C393.096 424.652 399.635 417.245 404.78 413.682C412.487 408.343 417.863 406.589 427.049 404.714C435.237 403.042 448.43 403.862 448.43 403.862C448.43 403.862 453.456 389.556 459.277 382.016C466.176 373.08 472.085 369.588 481.741 363.881L481.983 363.738C491.944 357.851 509.416 352.544 509.416 352.544C509.416 352.544 505.753 341.72 505.466 334.52C504.98 322.312 507.087 314.663 513.556 304.298C517.687 297.678 527.112 289.617 527.112 289.617C527.112 289.617 504.367 267.259 485.615 262.179C471.433 258.337 448.003 261.252 448.003 261.252C448.003 261.252 450.013 257.787 450.585 255.089C451.611 250.258 453.298 242.052 453.122 237.614C452.771 228.801 442.796 256.234 435.9 261.734C431.261 265.435 423.739 266.288 418.408 268.896C407.017 274.468 404.205 276.921 393.975 284.414Z" fill="black"/>
<path d="M393.975 284.414C375.602 297.874 348.434 317.743 348.434 317.743C348.434 317.743 346.305 384.676 373.541 410.481C380.388 416.968 393.096 424.652 393.096 424.652C393.096 424.652 399.635 417.245 404.78 413.682C412.487 408.343 417.863 406.589 427.049 404.714C435.237 403.042 448.43 403.862 448.43 403.862C448.43 403.862 453.456 389.556 459.277 382.016C466.176 373.08 472.085 369.588 481.741 363.881L481.983 363.738C491.944 357.851 509.416 352.544 509.416 352.544C509.416 352.544 505.753 341.72 505.466 334.52C504.98 322.312 507.087 314.663 513.556 304.298C517.687 297.678 527.112 289.617 527.112 289.617C527.112 289.617 504.367 267.259 485.615 262.179C471.433 258.337 448.003 261.252 448.003 261.252C448.003 261.252 450.013 257.787 450.585 255.089C451.611 250.258 453.298 242.052 453.122 237.614C452.771 228.801 442.796 256.234 435.9 261.734C431.261 265.435 423.739 266.288 418.408 268.896C407.017 274.468 404.205 276.921 393.975 284.414Z" stroke="black" stroke-width="5" stroke-linecap="round"/>
<path d="M393.975 284.414C375.602 297.874 348.434 317.743 348.434 317.743C348.434 317.743 346.305 384.676 373.541 410.481C380.388 416.968 393.096 424.652 393.096 424.652C393.096 424.652 399.635 417.245 404.78 413.682C412.487 408.343 417.863 406.589 427.049 404.714C435.237 403.042 448.43 403.862 448.43 403.862C448.43 403.862 453.456 389.556 459.277 382.016C466.176 373.08 472.085 369.588 481.741 363.881L481.983 363.738C491.944 357.851 509.416 352.544 509.416 352.544C509.416 352.544 505.753 341.72 505.466 334.52C504.98 322.312 507.087 314.663 513.556 304.298C517.687 297.678 527.112 289.617 527.112 289.617C527.112 289.617 504.367 267.259 485.615 262.179C471.433 258.337 448.003 261.252 448.003 261.252C448.003 261.252 450.013 257.787 450.585 255.089C451.611 250.258 453.298 242.052 453.122 237.614C452.771 228.801 442.796 256.234 435.9 261.734C431.261 265.435 423.739 266.288 418.408 268.896C407.017 274.468 404.205 276.921 393.975 284.414Z" stroke="black" stroke-opacity="0.2" stroke-width="5" stroke-linecap="round"/>
<path d="M398.913 290.786C383.253 302.258 360.098 319.193 360.098 319.193C360.098 319.193 358.284 376.239 381.498 398.233C387.332 403.762 394 410.5 394 410.5C394 410.5 403.737 403.998 408.122 400.961C414.691 396.411 417.171 396.598 425 395C431.978 393.575 443.223 394.274 443.223 394.274C443.223 394.274 449.609 380.399 454.57 373.972C460.45 366.356 465.486 363.38 473.716 358.516L473.923 358.394C482.413 353.376 497.5 347 497.5 347C497.5 347 494.181 339.628 493.937 333.491C493.523 323.086 495.319 316.568 500.832 307.734C504.353 302.091 512 292.5 512 292.5C512 292.5 493 276.165 477.018 271.835C464.931 268.56 444.961 271.046 444.961 271.046C438.504 271.303 424.281 275.337 419.737 277.56C410.029 282.31 407.632 284.399 398.913 290.786Z" fill="black"/>
<path d="M398.913 290.786C383.253 302.258 360.098 319.193 360.098 319.193C360.098 319.193 358.284 376.239 381.498 398.233C387.332 403.762 394 410.5 394 410.5C394 410.5 403.737 403.998 408.122 400.961C414.691 396.411 417.171 396.598 425 395C431.978 393.575 443.223 394.274 443.223 394.274C443.223 394.274 449.609 380.399 454.57 373.972C460.45 366.356 465.486 363.38 473.716 358.516L473.923 358.394C482.413 353.376 497.5 347 497.5 347C497.5 347 494.181 339.628 493.937 333.491C493.523 323.086 495.319 316.568 500.832 307.734C504.353 302.091 512 292.5 512 292.5C512 292.5 493 276.165 477.018 271.835C464.931 268.56 444.961 271.046 444.961 271.046C438.504 271.303 424.281 275.337 419.737 277.56C410.029 282.31 407.632 284.399 398.913 290.786Z" stroke="black" stroke-width="5" stroke-linecap="round"/>
<path d="M398.913 290.786C383.253 302.258 360.098 319.193 360.098 319.193C360.098 319.193 358.284 376.239 381.498 398.233C387.332 403.762 394 410.5 394 410.5C394 410.5 403.737 403.998 408.122 400.961C414.691 396.411 417.171 396.598 425 395C431.978 393.575 443.223 394.274 443.223 394.274C443.223 394.274 449.609 380.399 454.57 373.972C460.45 366.356 465.486 363.38 473.716 358.516L473.923 358.394C482.413 353.376 497.5 347 497.5 347C497.5 347 494.181 339.628 493.937 333.491C493.523 323.086 495.319 316.568 500.832 307.734C504.353 302.091 512 292.5 512 292.5C512 292.5 493 276.165 477.018 271.835C464.931 268.56 444.961 271.046 444.961 271.046C438.504 271.303 424.281 275.337 419.737 277.56C410.029 282.31 407.632 284.399 398.913 290.786Z" stroke="black" stroke-opacity="0.2" stroke-width="5" stroke-linecap="round"/>
<path d="M388.795 328.635C406.847 355.795 439.378 350.863 440.711 384.346" stroke="black" stroke-width="5" stroke-linecap="round"/>
<path d="M407.008 307.303C454.656 316.719 470.536 311.127 487.435 342.122" stroke="black" stroke-width="5" stroke-linecap="round"/>
<path d="M206.294 284.414C224.668 297.874 251.836 317.743 251.836 317.743C251.836 317.743 253.965 384.676 226.728 410.481C219.882 416.968 207.174 424.652 207.174 424.652C207.174 424.652 200.635 417.245 195.489 413.682C187.782 408.343 182.406 406.589 173.22 404.714C165.033 403.042 151.84 403.862 151.84 403.862C151.84 403.862 146.814 389.556 140.993 382.016C134.094 373.08 128.185 369.588 118.528 363.881L118.286 363.738C108.325 357.851 90.8532 352.544 90.8532 352.544C90.8532 352.544 94.5167 341.72 94.8033 334.52C95.2893 322.312 93.1824 314.663 86.714 304.298C82.5823 297.678 73.1572 289.617 73.1572 289.617C73.1572 289.617 95.9024 267.259 114.654 262.179C128.836 258.337 152.267 261.252 152.267 261.252C152.267 261.252 150.257 257.787 149.684 255.089C148.659 250.258 146.971 242.052 147.148 237.614C147.499 228.801 157.473 256.234 164.369 261.734C169.009 265.435 176.531 266.288 181.862 268.896C193.252 274.468 196.065 276.921 206.294 284.414Z" fill="black"/>
<path d="M206.294 284.414C224.668 297.874 251.836 317.743 251.836 317.743C251.836 317.743 253.965 384.676 226.728 410.481C219.882 416.968 207.174 424.652 207.174 424.652C207.174 424.652 200.635 417.245 195.489 413.682C187.782 408.343 182.406 406.589 173.22 404.714C165.033 403.042 151.84 403.862 151.84 403.862C151.84 403.862 146.814 389.556 140.993 382.016C134.094 373.08 128.185 369.588 118.528 363.881L118.286 363.738C108.325 357.851 90.8532 352.544 90.8532 352.544C90.8532 352.544 94.5167 341.72 94.8033 334.52C95.2893 322.312 93.1824 314.663 86.714 304.298C82.5823 297.678 73.1572 289.617 73.1572 289.617C73.1572 289.617 95.9024 267.259 114.654 262.179C128.836 258.337 152.267 261.252 152.267 261.252C152.267 261.252 150.257 257.787 149.684 255.089C148.659 250.258 146.971 242.052 147.148 237.614C147.499 228.801 157.473 256.234 164.369 261.734C169.009 265.435 176.531 266.288 181.862 268.896C193.252 274.468 196.065 276.921 206.294 284.414Z" stroke="black" stroke-width="5" stroke-linecap="round"/>
<path d="M206.294 284.414C224.668 297.874 251.836 317.743 251.836 317.743C251.836 317.743 253.965 384.676 226.728 410.481C219.882 416.968 207.174 424.652 207.174 424.652C207.174 424.652 200.635 417.245 195.489 413.682C187.782 408.343 182.406 406.589 173.22 404.714C165.033 403.042 151.84 403.862 151.84 403.862C151.84 403.862 146.814 389.556 140.993 382.016C134.094 373.08 128.185 369.588 118.528 363.881L118.286 363.738C108.325 357.851 90.8532 352.544 90.8532 352.544C90.8532 352.544 94.5167 341.72 94.8033 334.52C95.2893 322.312 93.1824 314.663 86.714 304.298C82.5823 297.678 73.1572 289.617 73.1572 289.617C73.1572 289.617 95.9024 267.259 114.654 262.179C128.836 258.337 152.267 261.252 152.267 261.252C152.267 261.252 150.257 257.787 149.684 255.089C148.659 250.258 146.971 242.052 147.148 237.614C147.499 228.801 157.473 256.234 164.369 261.734C169.009 265.435 176.531 266.288 181.862 268.896C193.252 274.468 196.065 276.921 206.294 284.414Z" stroke="black" stroke-opacity="0.2" stroke-width="5" stroke-linecap="round"/>
<path d="M201.356 290.786C217.016 302.258 240.171 319.193 240.171 319.193C240.171 319.193 241.986 376.239 218.772 398.233C212.937 403.762 206.269 410.5 206.269 410.5C206.269 410.5 196.533 403.998 192.147 400.961C185.578 396.411 183.098 396.598 175.269 395C168.291 393.575 157.047 394.274 157.047 394.274C157.047 394.274 150.661 380.399 145.7 373.972C139.82 366.356 134.783 363.38 126.553 358.516L126.347 358.394C117.857 353.376 102.769 347 102.769 347C102.769 347 106.088 339.628 106.332 333.491C106.747 323.086 104.951 316.568 99.438 307.734C95.9166 302.091 88.2695 292.5 88.2695 292.5C88.2695 292.5 107.269 276.165 123.251 271.835C135.339 268.56 155.309 271.046 155.309 271.046C161.765 271.303 175.989 275.337 180.532 277.56C190.241 282.31 192.637 284.399 201.356 290.786Z" fill="black"/>
<path d="M201.356 290.786C217.016 302.258 240.171 319.193 240.171 319.193C240.171 319.193 241.986 376.239 218.772 398.233C212.937 403.762 206.269 410.5 206.269 410.5C206.269 410.5 196.533 403.998 192.147 400.961C185.578 396.411 183.098 396.598 175.269 395C168.291 393.575 157.047 394.274 157.047 394.274C157.047 394.274 150.661 380.399 145.7 373.972C139.82 366.356 134.783 363.38 126.553 358.516L126.347 358.394C117.857 353.376 102.769 347 102.769 347C102.769 347 106.088 339.628 106.332 333.491C106.747 323.086 104.951 316.568 99.438 307.734C95.9166 302.091 88.2695 292.5 88.2695 292.5C88.2695 292.5 107.269 276.165 123.251 271.835C135.339 268.56 155.309 271.046 155.309 271.046C161.765 271.303 175.989 275.337 180.532 277.56C190.241 282.31 192.637 284.399 201.356 290.786Z" stroke="black" stroke-width="5" stroke-linecap="round"/>
<path d="M201.356 290.786C217.016 302.258 240.171 319.193 240.171 319.193C240.171 319.193 241.986 376.239 218.772 398.233C212.937 403.762 206.269 410.5 206.269 410.5C206.269 410.5 196.533 403.998 192.147 400.961C185.578 396.411 183.098 396.598 175.269 395C168.291 393.575 157.047 394.274 157.047 394.274C157.047 394.274 150.661 380.399 145.7 373.972C139.82 366.356 134.783 363.38 126.553 358.516L126.347 358.394C117.857 353.376 102.769 347 102.769 347C102.769 347 106.088 339.628 106.332 333.491C106.747 323.086 104.951 316.568 99.438 307.734C95.9166 302.091 88.2695 292.5 88.2695 292.5C88.2695 292.5 107.269 276.165 123.251 271.835C135.339 268.56 155.309 271.046 155.309 271.046C161.765 271.303 175.989 275.337 180.532 277.56C190.241 282.31 192.637 284.399 201.356 290.786Z" stroke="black" stroke-opacity="0.2" stroke-width="5" stroke-linecap="round"/>
<path d="M211.474 328.635C193.423 355.795 160.892 350.863 159.558 384.346" stroke="black" stroke-width="5" stroke-linecap="round"/>
<path d="M193.261 307.303C145.613 316.719 129.733 311.127 112.835 342.122" stroke="black" stroke-width="5" stroke-linecap="round"/>
<path d="M218.069 270.5L259.069 220C259.069 220 244.751 204.828 239.069 193C234.898 184.317 235.129 178.452 231.569 169.5C227.213 158.546 225.976 151.244 218.069 142.5C213.222 137.139 203.569 131 203.569 131C203.569 131 205.215 145.471 203.569 154.5C201.963 163.313 199.429 167.915 195.569 176C190.923 185.732 184.944 189.436 181.069 199.5C177.148 209.687 175.125 215.693 175 226.5C174.893 235.809 175.052 241.911 179 250C183.909 260.057 189.898 267.127 200.569 270.5C207.086 272.56 218.069 270.5 218.069 270.5Z" fill="black" stroke="black" stroke-width="5" stroke-linecap="round"/>
<path d="M216.069 156.5C211.76 147.419 206.069 132.5 206.069 132.5C206.069 132.5 217.069 138.5 223.569 150C226.882 155.862 230.084 164.257 232.754 170.438C235.349 176.448 235.469 180.303 237.754 186.438C240.134 192.829 241.442 196.476 244.754 202.438C249.229 210.495 259.069 220 259.069 220C259.069 220 254.108 226.039 252.069 228.438C246.069 235.5 244.459 238.676 237.754 244.5C234.209 247.578 232.236 248.63 228.069 249.5C223.534 250.447 219.043 250.048 216.254 248.438C212.245 246.124 225.206 241.021 221.754 237.938C219.564 235.983 216.595 239.208 214.254 237.438C210.062 234.27 222.306 233.318 224.254 228.438C226.517 222.765 221.773 219.44 221.754 213C221.721 202.351 221.754 196 221.754 185C221.754 173.651 221.128 167.16 216.069 156.5Z" fill="black"/>
<path d="M216.069 156.5C211.76 147.419 206.069 132.5 206.069 132.5C206.069 132.5 217.069 138.5 223.569 150C226.882 155.862 230.084 164.257 232.754 170.438C235.349 176.448 235.469 180.303 237.754 186.438C240.134 192.829 241.442 196.476 244.754 202.438C249.229 210.495 259.069 220 259.069 220C259.069 220 254.108 226.039 252.069 228.438C246.069 235.5 244.459 238.676 237.754 244.5C234.209 247.578 232.236 248.63 228.069 249.5C223.534 250.447 219.043 250.048 216.254 248.438C212.245 246.124 225.206 241.021 221.754 237.938C219.564 235.983 216.595 239.208 214.254 237.438C210.062 234.27 222.306 233.318 224.254 228.438C226.517 222.765 221.773 219.44 221.754 213C221.721 202.351 221.754 196 221.754 185C221.754 173.651 221.128 167.16 216.069 156.5Z" stroke="black" stroke-width="5" stroke-linecap="round"/>
<path d="M216.069 156.5C211.76 147.419 206.069 132.5 206.069 132.5C206.069 132.5 217.069 138.5 223.569 150C226.882 155.862 230.084 164.257 232.754 170.438C235.349 176.448 235.469 180.303 237.754 186.438C240.134 192.829 241.442 196.476 244.754 202.438C249.229 210.495 259.069 220 259.069 220C259.069 220 254.108 226.039 252.069 228.438C246.069 235.5 244.459 238.676 237.754 244.5C234.209 247.578 232.236 248.63 228.069 249.5C223.534 250.447 219.043 250.048 216.254 248.438C212.245 246.124 225.206 241.021 221.754 237.938C219.564 235.983 216.595 239.208 214.254 237.438C210.062 234.27 222.306 233.318 224.254 228.438C226.517 222.765 221.773 219.44 221.754 213C221.721 202.351 221.754 196 221.754 185C221.754 173.651 221.128 167.16 216.069 156.5Z" stroke="black" stroke-opacity="0.2" stroke-width="5" stroke-linecap="round"/>
<path d="M381 270.5L340 220C340 220 354.318 204.828 360 193C364.171 184.317 363.94 178.452 367.5 169.5C371.856 158.546 373.094 151.244 381 142.5C385.847 137.139 395.5 131 395.5 131C395.5 131 393.855 145.471 395.5 154.5C397.106 163.313 399.64 167.915 403.5 176C408.146 185.732 414.126 189.436 418 199.5C421.922 209.687 423.424 216.093 423 227C422.651 235.994 421.949 241.411 418 249.5C413.091 259.557 409.171 267.127 398.5 270.5C391.984 272.56 381 270.5 381 270.5Z" fill="black" stroke="black" stroke-width="5" stroke-linecap="round"/>
<path d="M383 156.5C387.31 147.419 393 132.5 393 132.5C393 132.5 382 138.5 375.5 150C372.187 155.862 368.985 164.257 366.316 170.438C363.72 176.448 363.601 180.303 361.316 186.438C358.935 192.829 357.627 196.476 354.316 202.438C349.84 210.495 340 220 340 220C340 220 344.961 226.039 347 228.438C353 235.5 354.61 238.676 361.316 244.5C364.86 247.578 366.834 248.63 371 249.5C375.535 250.447 380.027 250.048 382.816 248.438C386.825 246.124 373.863 241.021 377.316 237.938C379.505 235.983 382.474 239.208 384.816 237.438C389.007 234.27 376.763 233.318 374.816 228.438C372.552 222.765 377.296 219.44 377.316 213C377.348 202.351 377.316 196 377.316 185C377.316 173.651 377.941 167.16 383 156.5Z" fill="black"/>
<path d="M383 156.5C387.31 147.419 393 132.5 393 132.5C393 132.5 382 138.5 375.5 150C372.187 155.862 368.985 164.257 366.316 170.438C363.72 176.448 363.601 180.303 361.316 186.438C358.935 192.829 357.627 196.476 354.316 202.438C349.84 210.495 340 220 340 220C340 220 344.961 226.039 347 228.438C353 235.5 354.61 238.676 361.316 244.5C364.86 247.578 366.834 248.63 371 249.5C375.535 250.447 380.027 250.048 382.816 248.438C386.825 246.124 373.863 241.021 377.316 237.938C379.505 235.983 382.474 239.208 384.816 237.438C389.007 234.27 376.763 233.318 374.816 228.438C372.552 222.765 377.296 219.44 377.316 213C377.348 202.351 377.316 196 377.316 185C377.316 173.651 377.941 167.16 383 156.5Z" stroke="black" stroke-width="5" stroke-linecap="round"/>
<path d="M383 156.5C387.31 147.419 393 132.5 393 132.5C393 132.5 382 138.5 375.5 150C372.187 155.862 368.985 164.257 366.316 170.438C363.72 176.448 363.601 180.303 361.316 186.438C358.935 192.829 357.627 196.476 354.316 202.438C349.84 210.495 340 220 340 220C340 220 344.961 226.039 347 228.438C353 235.5 354.61 238.676 361.316 244.5C364.86 247.578 366.834 248.63 371 249.5C375.535 250.447 380.027 250.048 382.816 248.438C386.825 246.124 373.863 241.021 377.316 237.938C379.505 235.983 382.474 239.208 384.816 237.438C389.007 234.27 376.763 233.318 374.816 228.438C372.552 222.765 377.296 219.44 377.316 213C377.348 202.351 377.316 196 377.316 185C377.316 173.651 377.941 167.16 383 156.5Z" stroke="black" stroke-opacity="0.2" stroke-width="5" stroke-linecap="round"/>
<path d="M246.521 334.478C245.106 338.427 221.17 406.098 240.52 435.124C261.52 466.624 344.022 470.624 361.021 435.124C378.021 399.624 355.023 337.491 353.521 334.478C353.521 334.478 247.714 331.152 246.521 334.478Z" fill="black"/>
<path d="M246.521 334.478C245.106 338.427 221.17 406.098 240.52 435.124C261.52 466.624 344.022 470.624 361.021 435.124C378.021 399.624 355.023 337.491 353.521 334.478C353.521 334.478 247.714 331.152 246.521 334.478Z" stroke="black" stroke-width="5"/>
<path d="M246.521 334.478C245.106 338.427 221.17 406.098 240.52 435.124C261.52 466.624 344.022 470.624 361.021 435.124C378.021 399.624 355.023 337.491 353.521 334.478C353.521 334.478 247.714 331.152 246.521 334.478Z" stroke="black" stroke-opacity="0.2" stroke-width="5"/>
<path d="M341 401C341 434.689 323.091 458.109 301 458.109C278.909 458.109 261 434.689 261 401C261 367.311 282.6 347.524 301 340C318.6 348.062 341 367.311 341 401Z" fill="black"/>
<path d="M363.536 329H229.036C229.036 329 210.464 333.028 207.536 342.5C206.209 346.791 204.873 350.383 207.536 354C210.399 357.89 215.982 353.727 219.536 357C224.993 362.027 214.643 370.421 219.536 376C224.234 381.358 231.253 375.637 237.536 379C245.252 383.13 243.61 392.788 251.536 396.5C259.139 400.062 264.751 395.133 273.036 396.5C282.912 398.129 287.028 405.718 297.036 405.5C306.497 405.294 310.349 398.774 319.536 396.5C329.06 394.143 336.866 400.12 344.536 394C349.798 389.8 347.999 383.468 353.036 379C359.458 373.303 369.926 380.037 374.036 372.5C377.526 366.099 366.006 358.751 371.536 354C375.831 350.31 383.049 358.811 386.036 354C387.889 351.014 386.802 348.43 386.036 345C383.684 334.478 363.536 329 363.536 329Z" fill="black"/>
<path d="M363.536 329H229.036C229.036 329 210.464 333.028 207.536 342.5C206.209 346.791 204.873 350.383 207.536 354C210.399 357.89 215.982 353.727 219.536 357C224.993 362.027 214.643 370.421 219.536 376C224.234 381.358 231.253 375.637 237.536 379C245.252 383.13 243.61 392.788 251.536 396.5C259.139 400.062 264.751 395.133 273.036 396.5C282.912 398.129 287.028 405.718 297.036 405.5C306.497 405.294 310.349 398.774 319.536 396.5C329.06 394.143 336.866 400.12 344.536 394C349.798 389.8 347.999 383.468 353.036 379C359.458 373.303 369.926 380.037 374.036 372.5C377.526 366.099 366.006 358.751 371.536 354C375.831 350.31 383.049 358.811 386.036 354C387.889 351.014 386.802 348.43 386.036 345C383.684 334.478 363.536 329 363.536 329Z" stroke="black" stroke-width="5" stroke-linecap="round"/>
<path d="M363.536 329H229.036C229.036 329 210.464 333.028 207.536 342.5C206.209 346.791 204.873 350.383 207.536 354C210.399 357.89 215.982 353.727 219.536 357C224.993 362.027 214.643 370.421 219.536 376C224.234 381.358 231.253 375.637 237.536 379C245.252 383.13 243.61 392.788 251.536 396.5C259.139 400.062 264.751 395.133 273.036 396.5C282.912 398.129 287.028 405.718 297.036 405.5C306.497 405.294 310.349 398.774 319.536 396.5C329.06 394.143 336.866 400.12 344.536 394C349.798 389.8 347.999 383.468 353.036 379C359.458 373.303 369.926 380.037 374.036 372.5C377.526 366.099 366.006 358.751 371.536 354C375.831 350.31 383.049 358.811 386.036 354C387.889 351.014 386.802 348.43 386.036 345C383.684 334.478 363.536 329 363.536 329Z" stroke="black" stroke-opacity="0.2" stroke-width="5" stroke-linecap="round"/>
<path d="M209.931 307.023C209.741 306.006 196.736 305.329 197.412 300.586C198.089 295.843 209.931 294.149 214.668 280.259C228.351 240.132 251.907 205.387 299.409 205.387C346.911 205.387 370.467 240.132 384.151 280.259C388.888 294.149 400.73 295.843 401.406 300.586C402.083 305.329 389.078 306.006 388.888 307.023C388.697 308.039 398.699 313.46 398.699 316.848C398.699 320.235 385.842 324.64 377.046 332.093C355.61 350.254 327.84 360.89 299.409 360.89C270.979 360.89 243.208 350.254 221.773 332.093C212.976 324.64 200.119 320.235 200.119 316.848C200.119 313.46 210.121 308.039 209.931 307.023Z" fill="black"/>
<path d="M209.931 307.023C209.741 306.006 196.736 305.329 197.412 300.586C198.089 295.843 209.931 294.149 214.668 280.259C228.351 240.132 251.907 205.387 299.409 205.387C346.911 205.387 370.467 240.132 384.151 280.259C388.888 294.149 400.73 295.843 401.406 300.586C402.083 305.329 389.078 306.006 388.888 307.023C388.697 308.039 398.699 313.46 398.699 316.848C398.699 320.235 385.842 324.64 377.046 332.093C355.61 350.254 327.84 360.89 299.409 360.89C270.979 360.89 243.208 350.254 221.773 332.093C212.976 324.64 200.119 320.235 200.119 316.848C200.119 313.46 210.121 308.039 209.931 307.023Z" stroke="black" stroke-width="5"/>
<path d="M209.931 307.023C209.741 306.006 196.736 305.329 197.412 300.586C198.089 295.843 209.931 294.149 214.668 280.259C228.351 240.132 251.907 205.387 299.409 205.387C346.911 205.387 370.467 240.132 384.151 280.259C388.888 294.149 400.73 295.843 401.406 300.586C402.083 305.329 389.078 306.006 388.888 307.023C388.697 308.039 398.699 313.46 398.699 316.848C398.699 320.235 385.842 324.64 377.046 332.093C355.61 350.254 327.84 360.89 299.409 360.89C270.979 360.89 243.208 350.254 221.773 332.093C212.976 324.64 200.119 320.235 200.119 316.848C200.119 313.46 210.121 308.039 209.931 307.023Z" stroke="black" stroke-opacity="0.2" stroke-width="5"/>
<path d="M268.789 258.255C268.789 261.855 259.943 258.255 256.568 258.255C253.193 258.255 245.365 257.738 245.365 254.138C245.365 250.538 247.063 246.591 256.568 246.591C266.074 246.591 268.789 254.655 268.789 258.255Z" fill="black" fill-opacity="0.8"/>
<path d="M329.749 258.255C329.749 261.855 338.596 258.255 341.97 258.255C345.345 258.255 353.173 257.738 353.173 254.138C353.173 250.538 351.476 246.591 341.97 246.591C332.465 246.591 329.749 254.655 329.749 258.255Z" fill="black" fill-opacity="0.8"/>
<path d="M294.802 336.361C296.819 335.443 298.057 329.154 298.057 329.154C294.804 330.326 292.601 330.281 289.931 329.439C289.931 329.439 291.502 337.862 294.802 336.361Z" fill="black"/>
<path d="M308.802 336.361C310.819 335.443 312.057 329.154 312.057 329.154C308.804 330.326 306.601 330.281 303.931 329.439C303.931 329.439 305.502 337.862 308.802 336.361Z" fill="black"/>
<path d="M300.9 316.517V326.717M300.9 326.717C300.9 326.717 297.761 329.773 295.2 330.017C292.121 330.31 288 326.717 288 326.717M300.9 326.717C300.9 326.717 304.033 329.859 306.6 330.017C309.477 330.193 313.2 326.717 313.2 326.717" stroke="black" stroke-width="5" stroke-linecap="round"/>
<path d="M300.668 317.418C299.32 317.418 290.223 314.073 289.288 308.889C288.353 303.704 313.657 303.704 312.048 308.889C310.44 314.073 302.016 317.418 300.668 317.418Z" fill="black"/>
<path d="M303.938 308.387C303.938 309.01 302.422 309.516 300.551 309.516C298.681 309.516 297.165 309.01 297.165 308.387C297.165 307.763 298.681 307.258 300.551 307.258C302.422 307.258 303.938 307.763 303.938 308.387Z" fill="black" fill-opacity="0.5"/>
<path d="M341.856 304.186C333.699 304.61 326.623 296.073 326.053 285.116C325.483 274.159 331.633 264.933 339.791 264.508C347.949 264.083 355.024 272.621 355.595 283.578C356.165 294.535 350.014 303.761 341.856 304.186Z" fill="black" stroke="black"/>
<path d="M338.309 279.98C336.188 280.862 333.753 279.858 332.87 277.737C331.987 275.616 332.991 273.181 335.112 272.298C337.234 271.416 339.669 272.42 340.551 274.541C341.434 276.662 340.43 279.097 338.309 279.98Z" fill="black" stroke="black"/>
<path d="M259.855 304.186C251.698 304.61 244.622 296.073 244.052 285.116C243.482 274.159 249.632 264.933 257.79 264.508C265.948 264.083 273.023 272.621 273.594 283.578C274.164 294.535 268.013 303.761 259.855 304.186Z" fill="black" stroke="black"/>
<path d="M250.869 277.738C251.752 279.859 254.187 280.863 256.308 279.98C258.429 279.098 259.433 276.662 258.55 274.541C257.668 272.42 255.233 271.416 253.111 272.299C250.99 273.182 249.986 275.617 250.869 277.738Z" fill="black" stroke="black"/>
<path d="M262.125 294.587C258.747 294.591 256.006 293.018 256.004 291.073C256.001 289.128 258.738 287.547 262.116 287.543C265.494 287.539 268.234 289.112 268.236 291.057C268.239 293.002 265.503 294.582 262.125 294.587Z" fill="black" fill-opacity="0.4"/>
<path d="M346.125 294.587C342.747 294.591 340.006 293.018 340.004 291.073C340.001 289.128 342.738 287.547 346.116 287.543C349.494 287.539 352.234 289.112 352.236 291.057C352.239 293.002 349.503 294.582 346.125 294.587Z" fill="black" fill-opacity="0.4"/>
<path d="M264.524 461.732C258.501 465.163 251.165 465.806 245.266 462.164C236.091 456.499 230.916 447.971 225.316 435.867C223.996 433.013 223.46 429.915 225.814 427.83C228.69 425.281 235.167 430.885 235.167 430.885C235.167 430.885 229.691 422.487 233.233 420.059C236.951 417.512 242.253 427.256 242.253 427.256C242.253 427.256 240.294 416.902 244.728 415.858C249.057 414.838 252.268 424.393 252.268 424.393C252.268 424.393 251.651 414.473 255.97 413.85C259.915 413.28 262.335 417.009 263.079 421.173C264.477 428.998 271.414 435.366 272.196 445.753C272.715 452.655 270.538 458.305 264.524 461.732Z" fill="black"/>
<path d="M264.524 461.732C258.501 465.163 251.165 465.806 245.266 462.164C236.091 456.499 230.916 447.971 225.316 435.867C223.996 433.013 223.46 429.915 225.814 427.83C228.69 425.281 235.167 430.885 235.167 430.885C235.167 430.885 229.691 422.487 233.233 420.059C236.951 417.512 242.253 427.256 242.253 427.256C242.253 427.256 240.294 416.902 244.728 415.858C249.057 414.838 252.268 424.393 252.268 424.393C252.268 424.393 251.651 414.473 255.97 413.85C259.915 413.28 262.335 417.009 263.079 421.173C264.477 428.998 271.414 435.366 272.196 445.753C272.715 452.655 270.538 458.305 264.524 461.732Z" stroke="black" stroke-width="5"/>
<path d="M264.524 461.732C258.501 465.163 251.165 465.806 245.266 462.164C236.091 456.499 230.916 447.971 225.316 435.867C223.996 433.013 223.46 429.915 225.814 427.83C228.69 425.281 235.167 430.885 235.167 430.885C235.167 430.885 229.691 422.487 233.233 420.059C236.951 417.512 242.253 427.256 242.253 427.256C242.253 427.256 240.294 416.902 244.728 415.858C249.057 414.838 252.268 424.393 252.268 424.393C252.268 424.393 251.651 414.473 255.97 413.85C259.915 413.28 262.335 417.009 263.079 421.173C264.477 428.998 271.414 435.366 272.196 445.753C272.715 452.655 270.538 458.305 264.524 461.732Z" stroke="black" stroke-opacity="0.2" stroke-width="5"/>
<path d="M335.558 460.732C341.581 464.163 348.917 464.806 354.816 461.164C363.991 455.499 369.166 446.971 374.766 434.867C376.086 432.013 376.622 428.915 374.268 426.83C371.392 424.281 364.915 429.885 364.915 429.885C364.915 429.885 370.391 421.487 366.849 419.059C363.131 416.512 357.829 426.256 357.829 426.256C357.829 426.256 359.788 415.902 355.354 414.858C351.025 413.838 347.814 423.393 347.814 423.393C347.814 423.393 348.431 413.473 344.112 412.85C340.167 412.28 337.747 416.009 337.003 420.173C335.606 427.998 328.668 434.366 327.886 444.753C327.367 451.655 329.544 457.305 335.558 460.732Z" fill="black"/>
<path d="M335.558 460.732C341.581 464.163 348.917 464.806 354.816 461.164C363.991 455.499 369.166 446.971 374.766 434.867C376.086 432.013 376.622 428.915 374.268 426.83C371.392 424.281 364.915 429.885 364.915 429.885C364.915 429.885 370.391 421.487 366.849 419.059C363.131 416.512 357.829 426.256 357.829 426.256C357.829 426.256 359.788 415.902 355.354 414.858C351.025 413.838 347.814 423.393 347.814 423.393C347.814 423.393 348.431 413.473 344.112 412.85C340.167 412.28 337.747 416.009 337.003 420.173C335.606 427.998 328.668 434.366 327.886 444.753C327.367 451.655 329.544 457.305 335.558 460.732Z" stroke="black" stroke-width="5"/>
<path d="M335.558 460.732C341.581 464.163 348.917 464.806 354.816 461.164C363.991 455.499 369.166 446.971 374.766 434.867C376.086 432.013 376.622 428.915 374.268 426.83C371.392 424.281 364.915 429.885 364.915 429.885C364.915 429.885 370.391 421.487 366.849 419.059C363.131 416.512 357.829 426.256 357.829 426.256C357.829 426.256 359.788 415.902 355.354 414.858C351.025 413.838 347.814 423.393 347.814 423.393C347.814 423.393 348.431 413.473 344.112 412.85C340.167 412.28 337.747 416.009 337.003 420.173C335.606 427.998 328.668 434.366 327.886 444.753C327.367 451.655 329.544 457.305 335.558 460.732Z" stroke="black" stroke-opacity="0.2" stroke-width="5"/>
</svg>
