<svg width="600" height="600" viewBox="0 0 600 600" fill="none" xmlns="http://www.w3.org/2000/svg">
<path d="M363.902 180.734C383.711 180.734 399.769 164.676 399.769 144.867C399.769 125.058 383.711 109 363.902 109C344.093 109 328.035 125.058 328.035 144.867C328.035 164.676 344.093 180.734 363.902 180.734Z" fill="black" stroke="black" stroke-width="14"/>
<path d="M363.902 159.575C372.025 159.575 378.61 152.99 378.61 144.867C378.61 136.744 372.025 130.159 363.902 130.159C355.779 130.159 349.194 136.744 349.194 144.867C349.194 152.99 355.779 159.575 363.902 159.575Z" fill="black"/>
<path d="M234.781 180.734C254.59 180.734 270.648 164.676 270.648 144.867C270.648 125.058 254.59 109 234.781 109C214.972 109 198.914 125.058 198.914 144.867C198.914 164.676 214.972 180.734 234.781 180.734Z" fill="black" stroke="black" stroke-width="14"/>
<path d="M234.781 159.575C242.904 159.575 249.489 152.99 249.489 144.867C249.489 136.744 242.904 130.159 234.781 130.159C226.658 130.159 220.073 136.744 220.073 144.867C220.073 152.99 226.658 159.575 234.781 159.575Z" fill="black"/>
<path d="M235.378 309.551C233.686 314.271 205.069 395.176 228.204 429.879C253.311 467.54 351.948 472.322 372.271 429.879C392.595 387.437 365.1 313.153 363.304 309.551C363.304 309.551 236.804 305.574 235.378 309.551Z" fill="black"/>
<path d="M235.378 309.551C233.686 314.271 205.069 395.176 228.204 429.879C253.311 467.54 351.948 472.322 372.271 429.879C392.595 387.437 365.1 313.153 363.304 309.551C363.304 309.551 236.804 305.574 235.378 309.551Z" stroke="black" stroke-width="5"/>
<path d="M235.378 309.551C233.686 314.271 205.069 395.176 228.204 429.879C253.311 467.54 351.948 472.322 372.271 429.879C392.595 387.437 365.1 313.153 363.304 309.551C363.304 309.551 236.804 305.574 235.378 309.551Z" stroke="black" stroke-opacity="0.2" stroke-width="5"/>
<path d="M347.164 387.437C347.164 427.715 325.753 455.715 299.342 455.715C272.93 455.715 251.519 427.715 251.519 387.437C251.519 347.159 277.343 323.503 299.342 314.507C320.384 324.145 347.164 347.159 347.164 387.437Z" fill="black"/>
<path d="M299.83 136.845C243.038 136.845 212.882 178.386 196.522 226.36C190.755 240.293 173.209 269.673 202.499 299.563C228.127 321.276 265.839 322.76 299.83 322.76C333.821 322.76 450.581 327.061 401.144 226.36C384.784 178.386 356.622 136.845 299.83 136.845Z" fill="black"/>
<path d="M299.83 136.845C243.038 136.845 212.882 178.386 196.522 226.36C190.755 240.293 173.209 269.673 202.499 299.563C228.127 321.276 265.839 322.76 299.83 322.76C333.821 322.76 450.581 327.061 401.144 226.36C384.784 178.386 356.622 136.845 299.83 136.845Z" stroke="black" stroke-width="5"/>
<path d="M299.83 136.845C243.038 136.845 212.882 178.386 196.522 226.36C190.755 240.293 173.209 269.673 202.499 299.563C228.127 321.276 265.839 322.76 299.83 322.76C333.821 322.76 450.581 327.061 401.144 226.36C384.784 178.386 356.622 136.845 299.83 136.845Z" stroke="black" stroke-opacity="0.2" stroke-width="5"/>
<path d="M263.222 200.053C263.222 204.357 252.645 200.053 248.61 200.053C244.575 200.053 235.216 199.435 235.216 195.131C235.216 190.827 237.246 186.108 248.61 186.108C259.975 186.108 263.222 195.749 263.222 200.053Z" fill="black"/>
<path d="M336.103 200.053C336.103 204.357 346.68 200.053 350.715 200.053C354.749 200.053 364.108 199.435 364.108 195.131C364.108 190.827 362.079 186.107 350.715 186.107C339.35 186.107 336.103 195.749 336.103 200.053Z" fill="black"/>
<path d="M300.986 309.856C319.804 309.856 335.06 298.347 335.06 284.151C335.06 269.955 319.804 258.446 300.986 258.446C282.168 258.446 266.912 269.955 266.912 284.151C266.912 298.347 282.168 309.856 300.986 309.856Z" fill="black"/>
<path d="M300.418 281.869V294.063M300.418 294.063C300.418 294.063 296.664 297.717 293.603 298.009C289.922 298.36 284.995 294.063 284.995 294.063M300.418 294.063C300.418 294.063 304.163 297.821 307.233 298.009C310.672 298.219 315.123 294.063 315.123 294.063" stroke="black" stroke-width="5" stroke-linecap="round"/>
<path d="M300.14 282.946C298.529 282.946 287.652 278.947 286.534 272.749C285.416 266.55 315.67 266.55 313.746 272.749C311.823 278.947 301.751 282.946 300.14 282.946Z" fill="black"/>
<path d="M304.049 272.149C304.049 272.895 302.237 273.499 300 273.499C297.764 273.499 295.951 272.895 295.951 272.149C295.951 271.404 297.764 270.8 300 270.8C302.237 270.8 304.049 271.404 304.049 272.149Z" fill="black" fill-opacity="0.5"/>
<path d="M242.28 280.102C251.043 280.102 258.147 276.911 258.147 272.974C258.147 269.038 251.043 265.847 242.28 265.847C233.517 265.847 226.413 269.038 226.413 272.974C226.413 276.911 233.517 280.102 242.28 280.102Z" fill="black"/>
<path d="M362.07 280.362C370.826 280.014 377.798 276.543 377.641 272.61C377.485 268.677 370.26 265.77 361.504 266.118C352.748 266.466 345.776 269.937 345.933 273.87C346.089 277.804 353.314 280.71 362.07 280.362Z" fill="black"/>
<path d="M354.83 260.223C343.321 263.846 331.497 255.491 328.418 241.562C325.34 227.632 332.173 213.403 343.682 209.78C355.19 206.156 367.015 214.511 370.093 228.44C373.171 242.37 366.338 256.599 354.83 260.223Z" fill="black" stroke="black"/>
<path d="M344.777 230.312C341.944 232.251 338.275 231.873 336.581 229.468C334.888 227.062 335.811 223.54 338.643 221.601C341.476 219.662 345.145 220.04 346.839 222.445C348.532 224.851 347.609 228.373 344.777 230.312Z" fill="black" stroke="black"/>
<path d="M255.291 259.018C243.782 262.641 231.958 254.287 228.879 240.357C225.801 226.428 232.634 212.198 244.143 208.575C255.651 204.952 267.476 213.306 270.554 227.236C273.632 241.165 266.799 255.395 255.291 259.018Z" fill="black" stroke="black"/>
<path d="M245.238 229.107C242.405 231.046 238.736 230.668 237.042 228.262C235.349 225.857 236.272 222.335 239.104 220.396C241.937 218.457 245.606 218.835 247.3 221.24C248.994 223.646 248.07 227.168 245.238 229.107Z" fill="black" stroke="black"/>
<path d="M251.519 383.252C251.497 375.657 251.943 369.81 253.312 364.721C253.312 364.721 279.617 388.035 277.226 392.219C275.177 395.806 251.519 383.252 251.519 383.252Z" fill="black"/>
<path d="M347.165 384.448C347.187 376.852 346.143 372.201 344.774 367.112C344.774 367.112 319.861 389.828 322.252 394.012C324.302 397.599 347.165 384.448 347.165 384.448Z" fill="black"/>
<path d="M245.779 355.156C245.779 355.156 289.565 389.343 278.059 394.61C270.005 398.297 237.41 379.068 237.41 379.068" stroke="black" stroke-width="5"/>
<path d="M355.069 355.156C355.069 355.156 311.283 389.343 322.789 394.61C330.844 398.297 363.438 379.068 363.438 379.068" stroke="black" stroke-width="5"/>
<path d="M406.962 450.301C397 472.969 374.223 484.885 356.088 476.915C337.953 468.945 331.328 444.108 341.29 421.44C351.252 398.771 374.029 386.855 392.164 394.825C410.299 402.795 416.924 427.632 406.962 450.301Z" fill="black" stroke="black" stroke-width="5"/>
<path d="M394.601 448.518C387.959 463.631 372.775 471.574 360.685 466.261C348.595 460.948 344.178 444.39 350.819 429.278C357.461 414.165 372.646 406.221 384.736 411.535C396.826 416.848 401.242 433.406 394.601 448.518Z" fill="black"/>
<path d="M193.038 450.301C203 472.969 225.777 484.885 243.912 476.915C262.047 468.945 268.672 444.108 258.71 421.439C248.748 398.771 225.971 386.855 207.836 394.825C189.701 402.795 183.076 427.632 193.038 450.301Z" fill="black" stroke="black" stroke-width="5"/>
<path d="M205.399 448.518C212.041 463.631 227.225 471.575 239.315 466.261C251.405 460.948 255.822 444.39 249.181 429.278C242.539 414.165 227.354 406.222 215.264 411.535C203.174 416.848 198.758 433.406 205.399 448.518Z" fill="black"/>
</svg>
