<svg width="600" height="600" viewBox="0 0 600 600" fill="none" xmlns="http://www.w3.org/2000/svg">
<path d="M192.749 458.327C276.46 502.061 320.575 503.693 393.314 458.327C395.614 431.767 397.917 417.028 389.684 388.9C389.684 388.9 416.335 388.303 430.523 380.279C443.831 372.752 449.83 365.224 457.749 352.145C467.368 336.257 482.702 320.277 470.454 306.315C463.064 297.889 454.317 298.864 443.228 297.239C412.713 292.769 369.264 324.919 369.264 324.919L366.088 309.945C366.088 309.945 388.838 309.874 400.574 302.685C410.852 296.389 417.43 291.056 420.994 279.543C423.561 271.248 420.866 258.658 420.994 249.975C421.333 226.908 432.181 215.098 430.523 192.347C428.961 170.917 426.745 157.37 414.506 139.71C397.015 114.472 376.107 107.11 345.987 101.14C318.275 95.6469 299.354 97.0113 273.973 108.019C246.604 119.888 233.196 136.005 221.336 163.378C212.707 183.294 222.164 198.744 212.715 218.284C210.121 223.647 206.995 225.83 205.001 231.443C199.624 246.573 204.228 258.198 212.715 271.829C221.708 286.273 248.108 297.239 248.108 297.239L239.941 309.945C239.941 309.945 202.51 267.591 170.061 264.114C162.484 263.303 157.595 261.214 150.549 264.114C133.958 270.943 144.217 292.284 147.372 309.945C150.249 326.048 152.298 336.794 163.708 348.515C177.178 362.353 210.055 365.758 210.055 365.758C210.055 365.758 200.36 380.913 196.379 391.623C187.289 416.076 192.749 458.327 192.749 458.327Z" fill="black"/>
<path d="M217.252 352.145L210.055 365.758M210.055 365.758C210.055 365.758 200.36 380.913 196.379 391.623C187.289 416.076 192.749 458.327 192.749 458.327C276.46 502.061 320.575 503.693 393.314 458.327C395.614 431.767 397.917 417.028 389.684 388.9M210.055 365.758C210.055 365.758 177.178 362.353 163.708 348.515C152.298 336.794 150.249 326.048 147.372 309.945C144.217 292.284 133.958 270.943 150.549 264.114C157.595 261.214 162.484 263.303 170.061 264.114C202.51 267.591 239.941 309.945 239.941 309.945L248.108 297.239M389.684 388.9C389.684 388.9 416.335 388.303 430.523 380.279C443.831 372.752 449.83 365.224 457.749 352.145C467.368 336.257 482.702 320.277 470.454 306.315C463.064 297.889 454.317 298.864 443.228 297.239C412.713 292.769 369.264 324.919 369.264 324.919L366.088 309.945M389.684 388.9L381.516 369.388M248.108 297.239L273.973 302.685M248.108 297.239C248.108 297.239 221.708 286.273 212.715 271.829C204.228 258.198 199.624 246.573 205.001 231.443C206.995 225.83 210.121 223.647 212.715 218.284C222.164 198.744 212.707 183.294 221.336 163.378C233.196 136.005 246.604 119.888 273.973 108.019C299.354 97.0113 318.275 95.6469 345.987 101.14C376.107 107.11 397.015 114.472 414.506 139.71C426.745 157.37 428.961 170.917 430.523 192.347C432.181 215.098 421.333 226.908 420.994 249.975C420.866 258.658 423.561 271.248 420.994 279.543C417.43 291.056 410.852 296.389 400.574 302.685C388.838 309.874 366.088 309.945 366.088 309.945M366.088 309.945H339.316" stroke="black" stroke-width="5"/>
<path d="M217.252 352.145L210.055 365.758M210.055 365.758C210.055 365.758 200.36 380.913 196.379 391.623C187.289 416.076 192.749 458.327 192.749 458.327C276.46 502.061 320.575 503.693 393.314 458.327C395.614 431.767 397.917 417.028 389.684 388.9M210.055 365.758C210.055 365.758 177.178 362.353 163.708 348.515C152.298 336.794 150.249 326.048 147.372 309.945C144.217 292.284 133.958 270.943 150.549 264.114C157.595 261.214 162.484 263.303 170.061 264.114C202.51 267.591 239.941 309.945 239.941 309.945L248.108 297.239M389.684 388.9C389.684 388.9 416.335 388.303 430.523 380.279C443.831 372.752 449.83 365.224 457.749 352.145C467.368 336.257 482.702 320.277 470.454 306.315C463.064 297.889 454.317 298.864 443.228 297.239C412.713 292.769 369.264 324.919 369.264 324.919L366.088 309.945M389.684 388.9L381.516 369.388M248.108 297.239L273.973 302.685M248.108 297.239C248.108 297.239 221.708 286.273 212.715 271.829C204.228 258.198 199.624 246.573 205.001 231.443C206.995 225.83 210.121 223.647 212.715 218.284C222.164 198.744 212.707 183.294 221.336 163.378C233.196 136.005 246.604 119.888 273.973 108.019C299.354 97.0113 318.275 95.6469 345.987 101.14C376.107 107.11 397.015 114.472 414.506 139.71C426.745 157.37 428.961 170.917 430.523 192.347C432.181 215.098 421.333 226.908 420.994 249.975C420.866 258.658 423.561 271.248 420.994 279.543C417.43 291.056 410.852 296.389 400.574 302.685C388.838 309.874 366.088 309.945 366.088 309.945M366.088 309.945H339.316" stroke="black" stroke-width="5"/>
<path d="M136.281 426.035C94.2264 437.514 180.382 515.713 220.682 499.092C260.103 482.833 270.313 369.314 233.387 390.641C222.857 396.723 210.699 411.968 210.699 411.968C210.699 411.968 196.975 387.739 183.927 390.641C169.649 393.818 171.675 426.035 171.675 426.035C171.675 426.035 149.616 422.396 136.281 426.035Z" fill="black"/>
<path d="M136.281 426.035C94.2264 437.514 180.382 515.713 220.682 499.092C260.103 482.833 270.313 369.314 233.387 390.641C222.857 396.723 210.699 411.968 210.699 411.968C210.699 411.968 196.975 387.739 183.927 390.641C169.649 393.818 171.675 426.035 171.675 426.035C171.675 426.035 149.616 422.396 136.281 426.035Z" stroke="black" stroke-width="5"/>
<path d="M136.281 426.035C94.2264 437.514 180.382 515.713 220.682 499.092C260.103 482.833 270.313 369.314 233.387 390.641C222.857 396.723 210.699 411.968 210.699 411.968C210.699 411.968 196.975 387.739 183.927 390.641C169.649 393.818 171.675 426.035 171.675 426.035C171.675 426.035 149.616 422.396 136.281 426.035Z" stroke="black" stroke-width="5"/>
<path d="M445.978 423.703C488.032 435.181 401.877 513.38 361.577 496.759C322.156 480.501 311.946 366.981 348.871 388.309C359.402 394.391 371.56 409.636 371.56 409.636C371.56 409.636 385.284 385.406 398.332 388.309C412.61 391.485 410.584 423.703 410.584 423.703C410.584 423.703 432.643 420.063 445.978 423.703Z" fill="black"/>
<path d="M445.978 423.703C488.032 435.181 401.877 513.38 361.577 496.759C322.156 480.501 311.946 366.981 348.871 388.309C359.402 394.391 371.56 409.636 371.56 409.636C371.56 409.636 385.284 385.406 398.332 388.309C412.61 391.485 410.584 423.703 410.584 423.703C410.584 423.703 432.643 420.063 445.978 423.703Z" stroke="black" stroke-width="5"/>
<path d="M445.978 423.703C488.032 435.181 401.877 513.38 361.577 496.759C322.156 480.501 311.946 366.981 348.871 388.309C359.402 394.391 371.56 409.636 371.56 409.636C371.56 409.636 385.284 385.406 398.332 388.309C412.61 391.485 410.584 423.703 410.584 423.703C410.584 423.703 432.643 420.063 445.978 423.703Z" stroke="black" stroke-width="5"/>
<path d="M374.119 225.926C383.893 225.926 391.816 218.003 391.816 208.229C391.816 198.455 383.893 190.532 374.119 190.532C364.345 190.532 356.422 198.455 356.422 208.229C356.422 218.003 364.345 225.926 374.119 225.926Z" fill="black"/>
<path d="M274.288 208.683C284.062 208.683 291.985 200.76 291.985 190.986C291.985 181.212 284.062 173.289 274.288 173.289C264.514 173.289 256.591 181.212 256.591 190.986C256.591 200.76 264.514 208.683 274.288 208.683Z" fill="black"/>
<path d="M268.842 191.137C273.603 191.137 277.463 188.563 277.463 185.389C277.463 182.214 273.603 179.641 268.842 179.641C264.08 179.641 260.22 182.214 260.22 185.389C260.22 188.563 264.08 191.137 268.842 191.137Z" fill="black"/>
<path d="M369.576 207.775C374.338 207.775 378.198 205.337 378.198 202.33C378.198 199.323 374.338 196.885 369.576 196.885C364.815 196.885 360.955 199.323 360.955 202.33C360.955 205.337 364.815 207.775 369.576 207.775Z" fill="black"/>
<path d="M268.396 243.622C263.756 243.622 259.777 248.906 260.22 252.243C261.426 261.319 276.219 262.505 288.354 272.209C292.894 275.84 294.306 277.796 298.793 280.377C308.824 286.148 318.759 288.546 327.832 286.276L340.991 280.377C340.991 280.377 359.771 277.655 361.864 272.209C363.39 268.239 365.773 262.994 361.864 261.319C355.511 258.597 340.991 252.243 340.991 252.243C340.991 252.243 335.34 242.756 327.832 239.538C318.305 235.455 311.499 235.455 307.415 235.454H307.413C300.854 235.454 288.354 243.622 288.354 243.622H268.396Z" fill="black"/>
<path d="M268.396 243.622C263.756 243.622 259.777 248.906 260.22 252.243C261.426 261.319 276.219 262.505 288.354 272.209C292.894 275.84 294.306 277.796 298.793 280.377C308.824 286.148 318.759 288.546 327.832 286.276L340.991 280.377C340.991 280.377 359.771 277.655 361.864 272.209C363.39 268.239 365.773 262.994 361.864 261.319C355.511 258.597 340.991 252.243 340.991 252.243C340.991 252.243 335.34 242.756 327.832 239.538C318.305 235.455 311.499 235.455 307.415 235.454H307.413C300.854 235.454 288.354 243.622 288.354 243.622H268.396Z" stroke="black" stroke-width="5"/>
<path d="M268.396 243.622C263.756 243.622 259.777 248.906 260.22 252.243C261.426 261.319 276.219 262.505 288.354 272.209C292.894 275.84 294.306 277.796 298.793 280.377C308.824 286.148 318.759 288.546 327.832 286.276L340.991 280.377C340.991 280.377 359.771 277.655 361.864 272.209C363.39 268.239 365.773 262.994 361.864 261.319C355.511 258.597 340.991 252.243 340.991 252.243C340.991 252.243 335.34 242.756 327.832 239.538C318.305 235.455 311.499 235.455 307.415 235.454H307.413C300.854 235.454 288.354 243.622 288.354 243.622H268.396Z" stroke="black" stroke-width="5"/>
</svg>
