<svg width="600" height="600" viewBox="0 0 600 600" fill="none" xmlns="http://www.w3.org/2000/svg">
<path d="M238.203 198.203C238.456 199.395 239.829 199.956 241.27 199.455C242.71 198.953 243.672 197.58 243.419 196.387L238.203 198.203ZM262.945 124.433L264.46 122.262L260.116 120.501L258.602 122.672L262.945 124.433ZM243.419 196.387C236.555 164.087 255.398 135.248 262.945 124.433L258.602 122.672C250.873 133.747 230.958 164.107 238.203 198.203L243.419 196.387Z" fill="#020202"/>
<path d="M238.203 198.203C238.456 199.395 239.829 199.956 241.27 199.455C242.71 198.953 243.672 197.58 243.419 196.387L238.203 198.203ZM262.945 124.433L264.46 122.262L260.116 120.501L258.602 122.672L262.945 124.433ZM243.419 196.387C236.555 164.087 255.398 135.248 262.945 124.433L258.602 122.672C250.873 133.747 230.958 164.107 238.203 198.203L243.419 196.387Z" fill="black" fill-opacity="0.2"/>
<path d="M224.083 214.349C225.363 214.702 226.649 213.855 226.956 212.456C227.263 211.057 226.474 209.637 225.195 209.284L224.083 214.349ZM160.702 158.748L159.291 156.625L155.451 159.668L156.862 161.791L160.702 158.748ZM225.195 209.284C188.906 199.261 168.218 170.064 160.702 158.748L156.862 161.791C164.522 173.323 186.07 203.85 224.083 214.349L225.195 209.284Z" fill="#020202"/>
<path d="M224.083 214.349C225.363 214.702 226.649 213.855 226.956 212.456C227.263 211.057 226.474 209.637 225.195 209.284L224.083 214.349ZM160.702 158.748L159.291 156.625L155.451 159.668L156.862 161.791L160.702 158.748ZM225.195 209.284C188.906 199.261 168.218 170.064 160.702 158.748L156.862 161.791C164.522 173.323 186.07 203.85 224.083 214.349L225.195 209.284Z" fill="black" fill-opacity="0.2"/>
<path d="M276.557 128.834C278.678 138.815 272.306 148.626 262.325 150.747C252.343 152.868 242.533 146.496 240.412 136.514C238.291 126.533 244.663 116.722 254.644 114.601C264.626 112.48 274.436 118.852 276.557 128.834Z" fill="#F5ED2E"/>
<path d="M276.557 128.834C278.678 138.815 272.306 148.626 262.325 150.747C252.343 152.868 242.533 146.496 240.412 136.514C238.291 126.533 244.663 116.722 254.644 114.601C264.626 112.48 274.436 118.852 276.557 128.834Z" stroke="#020202" stroke-width="5"/>
<path d="M276.557 128.834C278.678 138.815 272.306 148.626 262.325 150.747C252.343 152.868 242.533 146.496 240.412 136.514C238.291 126.533 244.663 116.722 254.644 114.601C264.626 112.48 274.436 118.852 276.557 128.834Z" stroke="black" stroke-opacity="0.2" stroke-width="5"/>
<path d="M169.896 146.644C179.732 149.36 185.504 159.536 182.787 169.372C180.07 179.208 169.895 184.98 160.059 182.263C150.223 179.546 144.451 169.371 147.168 159.535C149.884 149.699 160.06 143.927 169.896 146.644Z" fill="#F4EF32"/>
<path d="M169.896 146.644C179.732 149.36 185.504 159.536 182.787 169.372C180.07 179.208 169.895 184.98 160.059 182.263C150.223 179.546 144.451 169.371 147.168 159.535C149.884 149.699 160.06 143.927 169.896 146.644Z" stroke="#020202" stroke-width="5"/>
<path d="M169.896 146.644C179.732 149.36 185.504 159.536 182.787 169.372C180.07 179.208 169.895 184.98 160.059 182.263C150.223 179.546 144.451 169.371 147.168 159.535C149.884 149.699 160.06 143.927 169.896 146.644Z" stroke="black" stroke-opacity="0.2" stroke-width="5"/>
<path d="M278.852 364.245C278.852 396.082 238.814 421.891 189.426 421.891C140.037 421.891 100 396.082 100 364.245C100 332.408 140.037 306.599 189.426 306.599C238.814 306.599 278.852 332.408 278.852 364.245Z" fill="#F3F1F1" stroke="black" stroke-width="5"/>
<ellipse cx="246.299" cy="433.647" rx="65.0369" ry="43.0354" transform="rotate(133.842 246.299 433.647)" fill="#F3F1F1" stroke="black" stroke-width="5"/>
<ellipse cx="397.925" cy="267.258" rx="84.9032" ry="59.2669" transform="rotate(135.424 397.925 267.258)" fill="#F3F1F1" stroke="black" stroke-width="5"/>
<ellipse cx="442.149" cy="350.498" rx="57.5073" ry="38.5562" transform="rotate(-179.843 442.149 350.498)" fill="#F3F1F1" stroke="black" stroke-width="5"/>
<path d="M407.225 486.988C407.102 490.592 403.321 492.885 400.069 491.328L339.663 462.411C336.079 460.695 335.832 455.686 339.229 453.626L401.919 415.611C405.317 413.551 409.644 416.086 409.509 420.057L407.225 486.988Z" fill="black" stroke="black" stroke-width="5"/>
<path d="M404.57 328.608C430.899 374.883 419.097 447.264 374.751 463.693C330.405 480.121 260.636 433.068 243.978 388.102C227.319 343.136 249.765 293.365 294.111 276.936C338.457 260.507 381.619 288.271 404.57 328.608Z" fill="#F5ED30" stroke="black" stroke-width="5"/>
<path d="M241.529 342.887C240.124 332.05 244.715 323.979 252.462 312.216L320.455 272.676C336.846 274.672 347.976 275.566 354.975 281.914C322.66 316.726 290.819 338.266 241.529 342.887Z" fill="#010101"/>
<path d="M264.07 416.423C257.788 411.249 249.289 398.685 244.855 388.708C312.825 373.632 346.055 358.288 393.405 314.063C398.579 323.302 407.817 334.757 409.664 342.887C381.95 379.1 313.36 411.802 264.07 416.423Z" fill="#010101"/>
<path d="M331.694 461.505C322.826 459.288 304.719 454.114 296.589 444.507C357.549 430.986 374.589 419.133 417.055 379.47C417.055 389.817 417.055 409.032 412.99 414.944C388.134 447.423 375.9 457.361 331.694 461.505Z" fill="#010101"/>
<g filter="url(#filter0_d_52_939)">
<circle cx="259.582" cy="249.649" r="73.9056" transform="rotate(-9.35611 259.582 249.649)" fill="#F5ED30"/>
<circle cx="259.582" cy="249.649" r="73.9056" transform="rotate(-9.35611 259.582 249.649)" stroke="black" stroke-width="5"/>
</g>
<ellipse cx="232.343" cy="257.422" rx="8.12962" ry="17.9412" transform="rotate(-31.5259 232.343 257.422)" fill="#000100"/>
<ellipse cx="281.12" cy="230.077" rx="8.12962" ry="17.9412" transform="rotate(-31.5259 281.12 230.077)" fill="#000100"/>
<ellipse cx="241.649" cy="293.363" rx="15.7268" ry="6.28198" transform="rotate(-30.3002 241.649 293.363)" fill="#F79DC3" fill-opacity="0.8"/>
<ellipse cx="308.163" cy="254.193" rx="15.7268" ry="6.28198" transform="rotate(-30.3002 308.163 254.193)" fill="#F79DC3" fill-opacity="0.8"/>
<path d="M298.067 273.416L263.331 293.74C263.331 293.74 282.674 305.175 291.785 298.543C299.963 292.591 298.067 273.416 298.067 273.416Z" fill="#000200" stroke="black"/>
<defs>
<filter id="filter0_d_52_939" x="179.165" y="173.232" width="160.835" height="160.834" filterUnits="userSpaceOnUse" color-interpolation-filters="sRGB">
<feFlood flood-opacity="0" result="BackgroundImageFix"/>
<feColorMatrix in="SourceAlpha" type="matrix" values="0 0 0 0 0 0 0 0 0 0 0 0 0 0 0 0 0 0 127 0" result="hardAlpha"/>
<feOffset dy="4"/>
<feGaussianBlur stdDeviation="2"/>
<feComposite in2="hardAlpha" operator="out"/>
<feColorMatrix type="matrix" values="0 0 0 0 0 0 0 0 0 0 0 0 0 0 0 0 0 0 0.25 0"/>
<feBlend mode="normal" in2="BackgroundImageFix" result="effect1_dropShadow_52_939"/>
<feBlend mode="normal" in="SourceGraphic" in2="effect1_dropShadow_52_939" result="shape"/>
</filter>
</defs>
</svg>
