<svg width="600" height="600" viewBox="0 0 600 600" fill="none" xmlns="http://www.w3.org/2000/svg">
<path d="M273.913 453.486C305.136 465.509 356.814 475.112 356.814 475.112C356.814 475.112 395.788 300.001 344.799 209.589C338.789 198.932 335.307 192.955 327.979 183.157C315.657 166.683 311.473 151.74 294.788 139.704C280.663 129.514 268.396 124.191 251.686 119.279C226.703 111.935 200.474 107.547 177.796 114.473C161.536 119.44 146.424 128.324 133.793 139.704C118.548 153.438 110.956 163.535 104.956 183.157C97.6846 206.938 99.0463 229.888 104.956 254.043C109.547 272.808 120.497 286.084 133.793 300.099C145.509 312.448 160.922 318.484 177.796 320.724C190.757 322.445 210.836 315.318 210.836 315.318C210.836 315.318 184.375 346.769 185.005 370.585C185.601 393.134 195.39 405.809 210.836 422.248C226.282 438.687 248.261 443.608 273.913 453.486Z" fill="#D9844B"/>
<path d="M210.836 315.318C210.836 315.318 184.375 346.769 185.005 370.585C185.601 393.134 195.39 405.809 210.836 422.248C226.282 438.687 248.261 443.608 273.913 453.486C305.136 465.509 356.814 475.112 356.814 475.112C356.814 475.112 395.788 300.001 344.799 209.589C338.789 198.932 335.307 192.955 327.979 183.157C315.657 166.683 311.473 151.74 294.788 139.704C280.663 129.514 268.396 124.191 251.686 119.279C226.703 111.935 200.474 107.547 177.796 114.473C161.536 119.44 146.424 128.324 133.793 139.704C118.548 153.438 110.956 163.535 104.956 183.157C97.6846 206.938 99.0463 229.888 104.956 254.043C109.547 272.808 120.497 286.084 133.793 300.099C145.509 312.448 160.922 318.484 177.796 320.724C190.757 322.445 210.836 315.318 210.836 315.318ZM210.836 315.318C210.836 315.318 243.968 291.892 251.686 269.061C258.072 250.171 261.198 235.526 251.686 217.999C242.499 201.072 230.082 191.109 210.836 190.366C190.41 189.577 171.029 198.093 166.382 217.999C163.026 232.378 166.775 244.218 177.796 254.043" stroke="#D9844B" stroke-width="5"/>
<path d="M210.836 315.318C210.836 315.318 184.375 346.769 185.005 370.585C185.601 393.134 195.39 405.809 210.836 422.248C226.282 438.687 248.261 443.608 273.913 453.486C305.136 465.509 356.814 475.112 356.814 475.112C356.814 475.112 395.788 300.001 344.799 209.589C338.789 198.932 335.307 192.955 327.979 183.157C315.657 166.683 311.473 151.74 294.788 139.704C280.663 129.514 268.396 124.191 251.686 119.279C226.703 111.935 200.474 107.547 177.796 114.473C161.536 119.44 146.424 128.324 133.793 139.704C118.548 153.438 110.956 163.535 104.956 183.157C97.6846 206.938 99.0463 229.888 104.956 254.043C109.547 272.808 120.497 286.084 133.793 300.099C145.509 312.448 160.922 318.484 177.796 320.724C190.757 322.445 210.836 315.318 210.836 315.318ZM210.836 315.318C210.836 315.318 243.968 291.892 251.686 269.061C258.072 250.171 261.198 235.526 251.686 217.999C242.499 201.072 230.082 191.109 210.836 190.366C190.41 189.577 171.029 198.093 166.382 217.999C163.026 232.378 166.775 244.218 177.796 254.043" stroke="black" stroke-opacity="0.2" stroke-width="5"/>
<path d="M456.383 371.397C447.107 374.274 436.559 386.415 436.559 386.415L431.753 468.115C431.753 468.115 460.935 457.198 478.01 447.089C481.819 444.834 484.308 444.017 487.621 441.082C500.41 429.75 502.255 412.532 497.834 396.027C494.7 384.329 489.113 376.233 478.01 371.397C470.267 368.025 464.45 368.896 456.383 371.397Z" fill="#D9844B"/>
<path d="M456.383 371.397C447.107 374.274 436.559 386.415 436.559 386.415L431.753 468.115C431.753 468.115 460.935 457.198 478.01 447.089C481.819 444.834 484.308 444.017 487.621 441.082C500.41 429.75 502.255 412.532 497.834 396.027C494.7 384.329 489.113 376.233 478.01 371.397C470.267 368.025 464.45 368.896 456.383 371.397Z" stroke="#D9844B" stroke-width="5"/>
<path d="M456.383 371.397C447.107 374.274 436.559 386.415 436.559 386.415L431.753 468.115C431.753 468.115 460.935 457.198 478.01 447.089C481.819 444.834 484.308 444.017 487.621 441.082C500.41 429.75 502.255 412.532 497.834 396.027C494.7 384.329 489.113 376.233 478.01 371.397C470.267 368.025 464.45 368.896 456.383 371.397Z" stroke="black" stroke-opacity="0.2" stroke-width="5"/>
<path d="M298.756 371.397C308.032 374.274 318.58 386.415 318.58 386.415L323.386 468.115C323.386 468.115 294.204 457.198 277.13 447.089C273.321 444.834 270.831 444.017 267.518 441.082C254.729 429.75 252.884 412.532 257.305 396.027C260.439 384.329 266.026 376.233 277.13 371.397C284.873 368.025 290.689 368.896 298.756 371.397Z" fill="#D9844B"/>
<path d="M298.756 371.397C308.032 374.274 318.58 386.415 318.58 386.415L323.386 468.115C323.386 468.115 294.204 457.198 277.13 447.089C273.321 444.834 270.831 444.017 267.518 441.082C254.729 429.75 252.884 412.532 257.305 396.027C260.439 384.329 266.026 376.233 277.13 371.397C284.873 368.025 290.689 368.896 298.756 371.397Z" stroke="#D9844B" stroke-width="5"/>
<path d="M298.756 371.397C308.032 374.274 318.58 386.415 318.58 386.415L323.386 468.115C323.386 468.115 294.204 457.198 277.13 447.089C273.321 444.834 270.831 444.017 267.518 441.082C254.729 429.75 252.884 412.532 257.305 396.027C260.439 384.329 266.026 376.233 277.13 371.397C284.873 368.025 290.689 368.896 298.756 371.397Z" stroke="black" stroke-opacity="0.2" stroke-width="5"/>
<path d="M287.087 487.86C312.318 484.856 353.768 478.248 353.768 478.248C353.768 478.248 331.737 464.935 315.922 462.028C303.001 459.653 291.858 455.893 279.168 459.293C268.956 462.028 260.046 467.949 261.256 478.248C262.511 488.938 276.399 489.132 287.087 487.86Z" fill="#D3844D"/>
<path d="M287.087 487.86C312.318 484.856 353.768 478.248 353.768 478.248C353.768 478.248 331.737 464.935 315.922 462.028C303.001 459.653 291.858 455.893 279.168 459.293C268.956 462.028 260.046 467.949 261.256 478.248C262.511 488.938 276.399 489.132 287.087 487.86Z" stroke="#D9844B" stroke-width="5"/>
<path d="M287.087 487.86C312.318 484.856 353.768 478.248 353.768 478.248C353.768 478.248 331.737 464.935 315.922 462.028C303.001 459.653 291.858 455.893 279.168 459.293C268.956 462.028 260.046 467.949 261.256 478.248C262.511 488.938 276.399 489.132 287.087 487.86Z" stroke="black" stroke-opacity="0.2" stroke-width="5"/>
<path d="M464.793 488.017C439.563 485.014 398.112 478.406 398.112 478.406C398.112 478.406 420.143 465.093 435.958 462.186C448.879 459.811 460.022 456.051 472.712 459.45C482.925 462.186 491.834 468.106 490.624 478.406C489.369 489.096 475.481 489.29 464.793 488.017Z" fill="#D3844D"/>
<path d="M464.793 488.017C439.563 485.014 398.112 478.406 398.112 478.406C398.112 478.406 420.143 465.093 435.958 462.186C448.879 459.811 460.022 456.051 472.712 459.45C482.925 462.186 491.834 468.106 490.624 478.406C489.369 489.096 475.481 489.29 464.793 488.017Z" stroke="#D9844B" stroke-width="5"/>
<path d="M464.793 488.017C439.563 485.014 398.112 478.406 398.112 478.406C398.112 478.406 420.143 465.093 435.958 462.186C448.879 459.811 460.022 456.051 472.712 459.45C482.925 462.186 491.834 468.106 490.624 478.406C489.369 489.096 475.481 489.29 464.793 488.017Z" stroke="black" stroke-opacity="0.2" stroke-width="5"/>
<path d="M309.805 331.763C308.104 336.506 279.346 417.81 302.595 452.684C327.826 490.53 426.948 495.336 447.372 452.684C467.796 410.032 440.166 335.382 438.361 331.763C438.361 331.763 311.238 327.766 309.805 331.763Z" fill="#D9844B"/>
<path d="M309.805 331.763C308.104 336.506 279.346 417.81 302.595 452.684C327.826 490.53 426.948 495.336 447.372 452.684C467.796 410.032 440.166 335.382 438.361 331.763C438.361 331.763 311.238 327.766 309.805 331.763Z" stroke="#D9844B" stroke-width="5"/>
<path d="M309.805 331.763C308.104 336.506 279.346 417.81 302.595 452.684C327.826 490.53 426.948 495.336 447.372 452.684C467.796 410.032 440.166 335.382 438.361 331.763C438.361 331.763 311.238 327.766 309.805 331.763Z" stroke="black" stroke-opacity="0.2" stroke-width="5"/>
<path d="M374.549 169.465C374.549 169.465 337.083 157.017 342.107 148.873C348.052 139.237 355.779 120.834 372.144 119.437C377.082 119.015 381.017 119.429 384.76 120.806C391.072 123.128 385.188 131.647 379.265 138.275C382.389 135.732 386.039 133.442 389.566 132.821C397.134 131.489 404.12 130.922 408.789 137.026C414.83 144.923 407.373 153.989 400.379 161.055C392.916 168.595 374.549 169.465 374.549 169.465Z" fill="#D9844B"/>
<path d="M374.549 169.465C374.549 169.465 337.083 157.017 342.107 148.873C348.052 139.237 355.779 120.834 372.144 119.437C377.082 119.015 381.017 119.429 384.76 120.806C391.072 123.128 385.188 131.647 379.265 138.275C382.389 135.732 386.039 133.442 389.566 132.821C397.134 131.489 404.12 130.922 408.789 137.026C414.83 144.923 407.373 153.989 400.379 161.055C392.916 168.595 374.549 169.465 374.549 169.465Z" stroke="#D9844B" stroke-width="5"/>
<path d="M374.549 169.465C374.549 169.465 337.083 157.017 342.107 148.873C348.052 139.237 355.779 120.834 372.144 119.437C377.082 119.015 381.017 119.429 384.76 120.806C391.072 123.128 385.188 131.647 379.265 138.275C382.389 135.732 386.039 133.442 389.566 132.821C397.134 131.489 404.12 130.922 408.789 137.026C414.83 144.923 407.373 153.989 400.379 161.055C392.916 168.595 374.549 169.465 374.549 169.465Z" stroke="black" stroke-opacity="0.2" stroke-width="5"/>
<path d="M422.141 410.033C422.141 450.509 400.625 478.647 374.083 478.647C347.541 478.647 326.024 450.509 326.024 410.033C326.024 369.556 351.976 345.784 374.083 336.744C395.229 346.429 422.141 369.556 422.141 410.033Z" fill="#EEAF85"/>
<path d="M467.069 219.24C477.553 188.195 489.422 146.312 472.602 137.301C456.983 128.934 419.117 144.407 393.393 161.024L467.069 219.24Z" fill="#D9844B"/>
<path d="M467.069 219.24C477.553 188.195 489.422 146.312 472.602 137.301C456.983 128.934 419.117 144.407 393.393 161.024L467.069 219.24Z" stroke="#D9844B" stroke-width="5" stroke-linecap="round"/>
<path d="M467.069 219.24C477.553 188.195 489.422 146.312 472.602 137.301C456.983 128.934 419.117 144.407 393.393 161.024L467.069 219.24Z" stroke="black" stroke-opacity="0.2" stroke-width="5" stroke-linecap="round"/>
<path d="M285.906 219.18C275.422 188.136 263.552 146.253 280.373 137.242C295.992 128.874 333.857 144.348 359.581 160.965L285.906 219.18Z" fill="#D9844B"/>
<path d="M285.906 219.18C275.422 188.136 263.552 146.253 280.373 137.242C295.992 128.874 333.857 144.348 359.581 160.965L285.906 219.18Z" stroke="#D9844B" stroke-width="5" stroke-linecap="round"/>
<path d="M285.906 219.18C275.422 188.136 263.552 146.253 280.373 137.242C295.992 128.874 333.857 144.348 359.581 160.965L285.906 219.18Z" stroke="black" stroke-opacity="0.2" stroke-width="5" stroke-linecap="round"/>
<path d="M374.574 158.206C317.502 158.206 287.198 199.952 270.757 248.162C264.961 262.163 247.329 291.689 276.764 321.725C302.517 343.545 340.415 345.037 374.574 345.037C408.732 345.037 526.068 349.359 476.387 248.162C459.947 199.952 431.645 158.206 374.574 158.206Z" fill="#D9844B"/>
<path d="M374.574 158.206C317.502 158.206 287.198 199.952 270.757 248.162C264.961 262.163 247.329 291.689 276.764 321.725C302.517 343.545 340.415 345.037 374.574 345.037C408.732 345.037 526.068 349.359 476.387 248.162C459.947 199.952 431.645 158.206 374.574 158.206Z" stroke="#D9844B" stroke-width="5"/>
<path d="M374.574 158.206C317.502 158.206 287.198 199.952 270.757 248.162C264.961 262.163 247.329 291.689 276.764 321.725C302.517 343.545 340.415 345.037 374.574 345.037C408.732 345.037 526.068 349.359 476.387 248.162C459.947 199.952 431.645 158.206 374.574 158.206Z" stroke="black" stroke-opacity="0.2" stroke-width="5"/>
<path d="M337.785 221.725C337.785 226.051 327.156 221.725 323.101 221.725C319.047 221.725 309.642 221.104 309.642 216.779C309.642 212.454 311.681 207.711 323.101 207.711C334.522 207.711 337.785 217.4 337.785 221.725Z" fill="#AE6A3C" fill-opacity="0.8"/>
<path d="M411.025 221.725C411.025 226.051 421.654 221.725 425.709 221.725C429.763 221.725 439.168 221.104 439.168 216.779C439.168 212.454 437.129 207.711 425.709 207.711C414.288 207.711 411.025 217.4 411.025 221.725Z" fill="#AE6A3C" fill-opacity="0.8"/>
<path d="M367.798 319.131L382.216 319.131C382.216 319.131 381.014 334.15 374.406 334.15C368.094 334.15 367.798 319.131 367.798 319.131Z" fill="white"/>
<path d="M367.798 319.131L382.216 319.131C382.216 319.131 381.014 334.15 374.406 334.15C368.094 334.15 367.798 319.131 367.798 319.131Z" stroke="white"/>
<path d="M367.798 319.131L382.216 319.131C382.216 319.131 381.014 334.15 374.406 334.15C368.094 334.15 367.798 319.131 367.798 319.131Z" stroke="black" stroke-opacity="0.2"/>
<path d="M374.184 333.139C374.184 333.415 374.407 333.639 374.684 333.639C374.96 333.639 375.184 333.415 375.184 333.139H374.184ZM374.184 319.923V333.139H375.184V319.923H374.184Z" fill="#CCCCCC"/>
<path d="M375.164 303.944V316.199M375.164 316.199C375.164 316.199 371.392 319.87 368.316 320.164C364.616 320.516 359.665 316.199 359.665 316.199M375.164 316.199C375.164 316.199 378.928 319.975 382.012 320.164C385.468 320.375 389.942 316.199 389.942 316.199" stroke="black" stroke-width="5" stroke-linecap="round"/>
<path d="M374.885 305.026C373.266 305.026 362.335 301.007 361.212 294.778C360.088 288.549 390.491 288.549 388.558 294.778C386.625 301.007 376.504 305.026 374.885 305.026Z" fill="#27051B"/>
<path d="M378.813 294.176C378.813 294.925 376.991 295.532 374.744 295.532C372.497 295.532 370.675 294.925 370.675 294.176C370.675 293.427 372.497 292.819 374.744 292.819C376.991 292.819 378.813 293.427 378.813 294.176Z" fill="white" fill-opacity="0.5"/>
<ellipse cx="316.74" cy="295.006" rx="15.9451" ry="7.16261" fill="#F5AC7B"/>
<ellipse cx="436.835" cy="295.274" rx="15.9451" ry="7.16261" transform="rotate(-2.27638 436.835 295.274)" fill="#F5AC7B"/>
<ellipse cx="21.9536" cy="25.9573" rx="21.9536" ry="25.9573" transform="matrix(-0.953838 0.300322 0.215795 0.976439 439.582 224.906)" fill="black" stroke="#504B4F"/>
<ellipse cx="6.24599" cy="5.35317" rx="6.24599" ry="5.35317" transform="matrix(-0.82516 0.564899 0.575712 0.817653 418.732 239.85)" fill="white" stroke="#504B4F"/>
<ellipse cx="21.9536" cy="25.9573" rx="21.9536" ry="25.9573" transform="matrix(-0.953838 0.300322 0.215795 0.976439 339.552 223.696)" fill="black" stroke="#504B4F"/>
<ellipse cx="6.24599" cy="5.35317" rx="6.24599" ry="5.35317" transform="matrix(-0.82516 0.564899 0.575712 0.817653 318.702 238.641)" fill="white" stroke="#504B4F"/>
<path d="M326.025 405.827C326.003 398.194 326.451 392.318 327.827 387.204C327.827 387.204 354.262 410.633 351.859 414.838C349.799 418.442 326.025 405.827 326.025 405.827Z" fill="#D9844B"/>
<path d="M422.142 407.028C422.163 399.396 421.115 394.721 419.739 389.607C419.739 389.607 394.703 412.435 397.106 416.64C399.166 420.244 422.142 407.028 422.142 407.028Z" fill="#D9844B"/>
<path d="M320.257 377.593C320.257 377.593 364.259 411.948 352.696 417.241C344.602 420.946 311.847 401.622 311.847 401.622" stroke="#AE6A3C" stroke-width="5"/>
<path d="M430.085 377.593C430.085 377.593 386.083 411.948 397.645 417.241C405.74 420.946 438.495 401.622 438.495 401.622" stroke="#AE6A3C" stroke-width="5"/>
</svg>
