<svg width="600" height="600" viewBox="0 0 600 600" fill="none" xmlns="http://www.w3.org/2000/svg">
<path d="M326.132 514.333C307.591 505.729 283.274 428.334 283.274 428.334L331.911 435.75C331.911 435.75 376.29 515.846 364.82 520.232C353.349 524.618 344.672 522.937 326.132 514.333Z" fill="#523A44"/>
<path d="M305.484 516.983C291.181 509.125 280.739 434.215 280.739 434.215L320.166 440.019C320.166 440.019 346.917 516.974 336.847 521.6C326.776 526.227 319.787 524.841 305.484 516.983Z" fill="#581639"/>
<path d="M273.138 515.513C258.836 507.655 248.394 432.744 248.394 432.744L287.82 438.548C287.82 438.548 314.571 515.503 304.501 520.13C294.431 524.756 287.441 523.371 273.138 515.513Z" fill="#523A44"/>
<path d="M222.242 290.832C220.16 296.637 184.968 396.131 213.419 438.808C244.294 485.121 365.594 491.002 390.587 438.808C415.58 386.613 381.769 295.262 379.56 290.832C379.56 290.832 223.995 285.941 222.242 290.832Z" fill="#805B6A"/>
<path d="M222.242 290.832C220.16 296.637 184.968 396.131 213.419 438.808C244.294 485.121 365.594 491.002 390.587 438.808C415.58 386.613 381.769 295.262 379.56 290.832C379.56 290.832 223.995 285.941 222.242 290.832Z" stroke="#805B6A" stroke-width="5"/>
<path d="M222.242 290.832C220.16 296.637 184.968 396.131 213.419 438.808C244.294 485.121 365.594 491.002 390.587 438.808C415.58 386.613 381.769 295.262 379.56 290.832C379.56 290.832 223.995 285.941 222.242 290.832Z" stroke="black" stroke-opacity="0.2" stroke-width="5"/>
<path d="M401.944 311.197C401.93 310.878 401.922 310.712 401.922 310.712C401.922 310.712 401.95 310.884 401.944 311.197C402.176 316.317 404.169 360.903 404.527 390.107C404.755 408.673 409.439 423.108 404.527 437.652C400.967 448.196 397.288 458.464 391.671 455.859C388.615 454.441 388.118 447.088 385.108 445.201C382.808 443.759 379.604 446.551 377.294 445.201C374.369 443.49 373.544 442.251 372.45 435.645C370.912 426.358 374.509 422.392 372.45 416.901C371.093 413.282 368.266 414.786 366.674 411.741C364.26 407.123 363.895 402.508 364.168 395.217C364.447 387.754 365.76 385.027 368.369 379.852C371.162 374.311 374.201 374.813 377.294 370.593C387.676 356.431 387.337 329.031 398.391 318.037C401.525 314.92 401.925 312.253 401.944 311.197Z" fill="#664955"/>
<path d="M401.922 310.712C401.922 310.712 404.146 359.087 404.527 390.107C404.755 408.673 409.439 423.108 404.527 437.652C400.967 448.196 397.288 458.464 391.671 455.859C388.615 454.441 388.118 447.088 385.108 445.201C382.808 443.759 379.604 446.551 377.294 445.201C374.369 443.49 373.544 442.251 372.45 435.645C370.912 426.358 374.509 422.392 372.45 416.901C371.093 413.282 368.266 414.786 366.674 411.741C364.26 407.123 363.895 402.508 364.168 395.217C364.447 387.754 365.76 385.027 368.369 379.852C371.162 374.311 374.201 374.813 377.294 370.593C387.676 356.431 387.337 329.031 398.391 318.037C402.453 313.996 401.922 310.712 401.922 310.712Z" stroke="#664955" stroke-width="5" stroke-linecap="round"/>
<path d="M401.922 310.712C401.922 310.712 404.146 359.087 404.527 390.107C404.755 408.673 409.439 423.108 404.527 437.652C400.967 448.196 397.288 458.464 391.671 455.859C388.615 454.441 388.118 447.088 385.108 445.201C382.808 443.759 379.604 446.551 377.294 445.201C374.369 443.49 373.544 442.251 372.45 435.645C370.912 426.358 374.509 422.392 372.45 416.901C371.093 413.282 368.266 414.786 366.674 411.741C364.26 407.123 363.895 402.508 364.168 395.217C364.447 387.754 365.76 385.027 368.369 379.852C371.162 374.311 374.201 374.813 377.294 370.593C387.676 356.431 387.337 329.031 398.391 318.037C402.453 313.996 401.922 310.712 401.922 310.712Z" stroke="black" stroke-opacity="0.2" stroke-width="5" stroke-linecap="round"/>
<path d="M199.828 306.786C199.842 306.467 199.85 306.302 199.85 306.302C199.85 306.302 199.822 306.473 199.828 306.786C199.596 311.907 197.603 356.492 197.245 385.696C197.017 404.262 192.333 418.697 197.245 433.241C200.805 443.785 204.484 454.054 210.101 451.448C213.157 450.031 213.654 442.677 216.664 440.79C218.964 439.348 222.168 442.141 224.477 440.79C227.403 439.079 228.227 437.84 229.322 431.234C230.86 421.947 227.263 417.981 229.322 412.491C230.679 408.872 233.506 410.375 235.098 407.331C237.512 402.713 237.877 398.097 237.604 390.807C237.325 383.343 236.011 380.616 233.403 375.441C230.61 369.9 227.571 370.403 224.477 366.182C214.096 352.02 214.435 324.621 203.381 313.626C200.247 310.509 199.847 307.842 199.828 306.786Z" fill="#664955"/>
<path d="M199.85 306.302C199.85 306.302 197.626 354.676 197.245 385.696C197.017 404.262 192.333 418.697 197.245 433.241C200.805 443.785 204.484 454.054 210.101 451.448C213.157 450.031 213.654 442.677 216.664 440.79C218.964 439.348 222.168 442.141 224.477 440.79C227.403 439.079 228.228 437.84 229.322 431.234C230.86 421.947 227.263 417.981 229.322 412.491C230.679 408.872 233.506 410.375 235.098 407.331C237.512 402.713 237.877 398.097 237.604 390.807C237.325 383.343 236.011 380.616 233.403 375.441C230.61 369.9 227.571 370.403 224.477 366.182C214.096 352.02 214.435 324.621 203.381 313.626C199.319 309.586 199.85 306.302 199.85 306.302Z" stroke="#664955" stroke-width="5" stroke-linecap="round"/>
<path d="M199.85 306.302C199.85 306.302 197.626 354.676 197.245 385.696C197.017 404.262 192.333 418.697 197.245 433.241C200.805 443.785 204.484 454.054 210.101 451.448C213.157 450.031 213.654 442.677 216.664 440.79C218.964 439.348 222.168 442.141 224.477 440.79C227.403 439.079 228.228 437.84 229.322 431.234C230.86 421.947 227.263 417.981 229.322 412.491C230.679 408.872 233.506 410.375 235.098 407.331C237.512 402.713 237.877 398.097 237.604 390.807C237.325 383.343 236.011 380.616 233.403 375.441C230.61 369.9 227.571 370.403 224.477 366.182C214.096 352.02 214.435 324.621 203.381 313.626C199.319 309.586 199.85 306.302 199.85 306.302Z" stroke="black" stroke-opacity="0.2" stroke-width="5" stroke-linecap="round"/>
<path d="M361.15 388.636C361.15 438.169 334.82 472.602 302.339 472.602C269.859 472.602 243.529 438.169 243.529 388.636C243.529 339.104 275.287 310.013 302.339 298.95C328.216 310.803 361.15 339.104 361.15 388.636Z" fill="#F8DADB"/>
<path d="M394.283 282.777H196.533C196.533 282.777 169.228 288.7 164.922 302.626C162.972 308.934 161.008 314.216 164.922 319.534C169.132 325.254 177.341 319.133 182.565 323.945C190.59 331.336 175.373 343.678 182.565 351.88C189.474 359.758 199.792 351.346 209.03 356.291C220.375 362.363 217.961 376.562 229.614 382.02C240.793 387.257 249.044 380.011 261.225 382.02C275.745 384.416 281.797 395.573 296.511 395.253C310.422 394.95 316.085 385.363 329.592 382.02C343.595 378.554 355.073 387.343 366.348 378.345C374.086 372.17 371.44 362.86 378.846 356.291C388.288 347.915 403.678 357.815 409.721 346.734C414.853 337.323 397.915 326.519 406.046 319.534C412.361 314.109 422.974 326.608 427.364 319.534C430.09 315.143 428.491 311.345 427.364 306.302C423.907 290.831 394.283 282.777 394.283 282.777Z" fill="#F8DADB"/>
<path d="M394.283 282.777H196.533C196.533 282.777 169.228 288.7 164.922 302.626C162.972 308.934 161.008 314.216 164.922 319.534C169.132 325.254 177.341 319.133 182.565 323.945C190.59 331.336 175.373 343.678 182.565 351.88C189.474 359.758 199.792 351.346 209.03 356.291C220.375 362.363 217.961 376.562 229.614 382.02C240.793 387.257 249.044 380.011 261.225 382.02C275.745 384.416 281.797 395.573 296.511 395.253C310.422 394.95 316.085 385.363 329.592 382.02C343.595 378.554 355.073 387.343 366.348 378.345C374.086 372.17 371.44 362.86 378.846 356.291C388.288 347.915 403.678 357.815 409.721 346.734C414.853 337.323 397.915 326.519 406.046 319.534C412.361 314.109 422.974 326.608 427.364 319.534C430.09 315.143 428.491 311.345 427.364 306.302C423.907 290.831 394.283 282.777 394.283 282.777Z" stroke="#F8DADB" stroke-width="5" stroke-linecap="round"/>
<path d="M394.283 282.777H196.533C196.533 282.777 169.228 288.7 164.922 302.626C162.972 308.934 161.008 314.216 164.922 319.534C169.132 325.254 177.341 319.133 182.565 323.945C190.59 331.336 175.373 343.678 182.565 351.88C189.474 359.758 199.792 351.346 209.03 356.291C220.375 362.363 217.961 376.562 229.614 382.02C240.793 387.257 249.044 380.011 261.225 382.02C275.745 384.416 281.797 395.573 296.511 395.253C310.422 394.95 316.085 385.363 329.592 382.02C343.595 378.554 355.073 387.343 366.348 378.345C374.086 372.17 371.44 362.86 378.846 356.291C388.288 347.915 403.678 357.815 409.721 346.734C414.853 337.323 397.915 326.519 406.046 319.534C412.361 314.109 422.974 326.608 427.364 319.534C430.09 315.143 428.491 311.345 427.364 306.302C423.907 290.831 394.283 282.777 394.283 282.777Z" stroke="black" stroke-opacity="0.2" stroke-width="5" stroke-linecap="round"/>
<path d="M395.651 76.8607C371.803 63.7818 358.54 98.6109 340.566 119.478C340.566 119.478 367.624 129.935 379.415 143.252C385.327 149.929 391.882 162.386 391.882 162.386C391.882 162.386 411.518 153.86 409.277 148.76C408.439 146.854 400.011 151.079 399.419 149.92C398.828 148.76 418.771 140.731 413.046 138.033C410.485 136.826 403.188 138.033 403.188 138.033C400.245 114.144 416.755 88.4353 395.651 76.8607Z" fill="#805B6A"/>
<path d="M395.651 76.8607C371.803 63.7818 358.54 98.6109 340.566 119.478C340.566 119.478 367.624 129.935 379.415 143.252C385.327 149.929 391.882 162.386 391.882 162.386C391.882 162.386 411.518 153.86 409.277 148.76C408.439 146.854 400.011 151.079 399.419 149.92C398.828 148.76 418.771 140.731 413.046 138.033C410.485 136.826 403.188 138.033 403.188 138.033C400.245 114.144 416.755 88.4353 395.651 76.8607Z" stroke="#805B6A" stroke-width="5"/>
<path d="M395.651 76.8607C371.803 63.7818 358.54 98.6109 340.566 119.478C340.566 119.478 367.624 129.935 379.415 143.252C385.327 149.929 391.882 162.386 391.882 162.386C391.882 162.386 411.518 153.86 409.277 148.76C408.439 146.854 400.011 151.079 399.419 149.92C398.828 148.76 418.771 140.731 413.046 138.033C410.485 136.826 403.188 138.033 403.188 138.033C400.245 114.144 416.755 88.4353 395.651 76.8607Z" stroke="black" stroke-opacity="0.2" stroke-width="5"/>
<path d="M200.207 76.8607C224.054 63.7818 237.318 98.6109 255.291 119.478C255.291 119.478 228.233 129.935 216.442 143.252C210.53 149.929 203.976 162.386 203.976 162.386C203.976 162.386 184.339 153.86 186.581 148.76C187.418 146.854 195.847 151.079 196.438 149.92C197.029 148.76 177.087 140.731 182.812 138.033C185.372 136.826 192.669 138.033 192.669 138.033C195.613 114.144 179.103 88.4353 200.207 76.8607Z" fill="#805B6A"/>
<path d="M200.207 76.8607C224.054 63.7818 237.318 98.6109 255.291 119.478C255.291 119.478 228.233 129.935 216.442 143.252C210.53 149.929 203.976 162.386 203.976 162.386C203.976 162.386 184.339 153.86 186.581 148.76C187.418 146.854 195.847 151.079 196.438 149.92C197.029 148.76 177.087 140.731 182.812 138.033C185.372 136.826 192.669 138.033 192.669 138.033C195.613 114.144 179.103 88.4353 200.207 76.8607Z" stroke="#805B6A" stroke-width="5"/>
<path d="M200.207 76.8607C224.054 63.7818 237.318 98.6109 255.291 119.478C255.291 119.478 228.233 129.935 216.442 143.252C210.53 149.929 203.976 162.386 203.976 162.386C203.976 162.386 184.339 153.86 186.581 148.76C187.418 146.854 195.847 151.079 196.438 149.92C197.029 148.76 177.087 140.731 182.812 138.033C185.372 136.826 192.669 138.033 192.669 138.033C195.613 114.144 179.103 88.4353 200.207 76.8607Z" stroke="black" stroke-opacity="0.2" stroke-width="5"/>
<path d="M168.443 250.465C168.163 248.971 149.043 247.975 150.038 241.001C151.032 234.028 168.443 231.537 175.408 211.115C195.526 152.119 230.16 101.033 300 101.033C369.84 101.033 404.474 152.119 424.592 211.115C431.557 231.537 448.968 234.028 449.962 241.001C450.957 247.975 431.837 248.971 431.557 250.465C431.277 251.96 445.983 259.929 445.983 264.91C445.983 269.891 427.08 276.367 414.146 287.325C382.631 314.027 341.801 329.664 300 329.664C258.199 329.664 217.369 314.027 185.854 287.325C172.92 276.367 154.017 269.891 154.017 264.91C154.017 259.929 168.723 251.96 168.443 250.465Z" fill="#805B6A"/>
<path d="M168.443 250.465C168.163 248.971 149.043 247.975 150.038 241.001C151.032 234.028 168.443 231.537 175.408 211.115C195.526 152.119 230.16 101.033 300 101.033C369.84 101.033 404.474 152.119 424.592 211.115C431.557 231.537 448.968 234.028 449.962 241.001C450.957 247.975 431.837 248.971 431.557 250.465C431.277 251.96 445.983 259.929 445.983 264.91C445.983 269.891 427.08 276.367 414.146 287.325C382.631 314.027 341.801 329.664 300 329.664C258.199 329.664 217.369 314.027 185.854 287.325C172.92 276.367 154.017 269.891 154.017 264.91C154.017 259.929 168.723 251.96 168.443 250.465Z" stroke="#805B6A" stroke-width="5"/>
<path d="M168.443 250.465C168.163 248.971 149.043 247.975 150.038 241.001C151.032 234.028 168.443 231.537 175.408 211.115C195.526 152.119 230.16 101.033 300 101.033C369.84 101.033 404.474 152.119 424.592 211.115C431.557 231.537 448.968 234.028 449.962 241.001C450.957 247.975 431.837 248.971 431.557 250.465C431.277 251.96 445.983 259.929 445.983 264.91C445.983 269.891 427.08 276.367 414.146 287.325C382.631 314.027 341.801 329.664 300 329.664C258.199 329.664 217.369 314.027 185.854 287.325C172.92 276.367 154.017 269.891 154.017 264.91C154.017 259.929 168.723 251.96 168.443 250.465Z" stroke="black" stroke-opacity="0.2" stroke-width="5"/>
<path d="M254.981 178.764C254.981 184.057 241.974 178.764 237.012 178.764C232.05 178.764 220.541 178.004 220.541 172.711C220.541 167.418 223.037 161.614 237.012 161.614C250.988 161.614 254.981 173.471 254.981 178.764Z" fill="#695E72" fill-opacity="0.8"/>
<path d="M344.607 178.764C344.607 184.057 357.614 178.764 362.576 178.764C367.538 178.764 379.047 178.004 379.047 172.711C379.047 167.418 376.551 161.614 362.576 161.614C348.6 161.614 344.607 173.471 344.607 178.764Z" fill="#695E72" fill-opacity="0.8"/>
<path d="M215.495 264.637C219.197 270.46 221.685 273.911 226.543 278.784C231.616 283.873 234.86 285.845 239.911 290.432C239.911 290.432 249.943 296.597 255.591 299.573C264.992 304.524 266.544 304.574 274.903 307.605C282.576 310.388 287.425 311.215 294.088 311.606C302.05 312.074 306.332 311.732 312.843 311.457C319.354 311.183 328.382 309.847 328.382 309.847C328.382 309.847 336.92 308.201 342.754 306.508C348.588 304.816 352.353 303.529 358.771 299.565C365.109 295.65 368.03 293.112 373.441 287.96C377.395 284.195 379.477 281.227 382.766 276.858L382.903 276.675C387.152 271.03 389.693 267.655 392.802 260.847C395.139 255.728 395.833 252.895 397.349 247.478C398.656 242.808 399.337 240.313 399.71 235.486C400.151 229.787 400.448 227.903 399.77 220.861C399.093 213.819 398.829 210.134 397.185 202.65C395.137 196.147 394.184 192.171 391.942 185.999C391.942 185.999 387.031 175.439 383.568 171.086L383.567 171.085C380.105 166.733 378.621 164.867 374.216 160.875C374.216 160.875 368.937 157.32 365.645 155.773C362.104 154.11 359.705 153.198 355.854 152.491C350.418 151.492 347.174 151.106 341.69 151.964C336.154 152.829 332.787 153.641 328.158 156.874C323.062 160.433 320.738 163.694 317.536 169.053C314.939 173.4 314.022 176.234 312.793 181.145C311.703 185.503 312.779 188.206 311.848 192.594C310.08 200.92 303.81 212.939 303.81 212.939C303.81 212.939 295.797 200.733 294.253 192.594C293.857 190.509 293.518 187.21 293.518 187.21C293.518 187.21 291.574 180.659 290.577 176.183C289.581 171.707 286.283 169.156 283.088 165.205C280.329 161.793 278.425 160.247 274.771 157.842C271.534 155.713 269.001 154.095 265.256 153.102C261.28 152.047 259.013 151.843 254.889 151.933C248.696 152.066 245.001 153.078 239.252 155.485C232.912 158.14 229.846 161.03 225.086 166.046C220.478 170.904 217.976 173.582 214.714 179.442C211.704 184.851 209.361 190.015 207.232 195.828C205.522 200.498 204.612 203.605 203.424 208.432C201.931 214.491 202.551 216.381 202.374 222.606L202.37 222.745C202.246 227.149 202.218 228.13 203.339 234.136C204.471 240.204 205.932 243.526 207.593 249.543C207.593 249.543 211.93 259.03 215.495 264.637Z" fill="#F8DADB"/>
<path d="M301.851 282.777C299.869 282.777 286.493 273.272 285.119 258.54C283.744 243.808 320.949 243.808 318.583 258.54C316.218 273.272 303.832 282.777 301.851 282.777Z" fill="#541D3E"/>
<path d="M306.658 257.115C306.658 258.886 304.429 260.322 301.679 260.322C298.929 260.322 296.7 258.886 296.7 257.115C296.7 255.343 298.929 253.907 301.679 253.907C304.429 253.907 306.658 255.343 306.658 257.115Z" fill="white" fill-opacity="0.5"/>
<ellipse cx="21.7465" cy="29.2078" rx="21.7465" ry="29.2078" transform="matrix(-0.998648 0.0519817 0.0519817 0.998648 381.089 186.826)" fill="#581639" stroke="#581639"/>
<ellipse cx="6.11619" cy="6.11619" rx="6.11619" ry="6.11619" transform="matrix(-0.923252 0.384195 0.384195 0.923252 358.14 197.061)" fill="white" stroke="#581639"/>
<ellipse cx="21.7465" cy="29.2078" rx="21.7465" ry="29.2078" transform="matrix(-0.998648 0.0519817 0.0519817 0.998648 260.527 186.826)" fill="#581639" stroke="#581639"/>
<path d="M228.633 207.408C229.931 210.527 233.511 212.003 236.63 210.705C239.749 209.407 241.225 205.827 239.927 202.708C238.629 199.59 235.049 198.114 231.93 199.411C228.812 200.709 227.336 204.289 228.633 207.408Z" fill="white" stroke="#581639"/>
<ellipse cx="8.99253" cy="5.17815" rx="8.99253" ry="5.17815" transform="matrix(-0.999999 0.00127736 0.00127736 0.999999 254.163 221.812)" fill="white" fill-opacity="0.4" stroke="#581639"/>
<ellipse cx="8.99253" cy="5.17815" rx="8.99253" ry="5.17815" transform="matrix(-0.999999 0.00127736 0.00127736 0.999999 377.665 221.812)" fill="white" fill-opacity="0.4" stroke="#581639"/>
<path d="M231.767 256.313L242.059 268.075" stroke="#664955" stroke-opacity="0.8" stroke-width="5" stroke-linecap="round"/>
<path d="M249.41 256.313L259.702 268.075" stroke="#664955" stroke-opacity="0.8" stroke-width="5" stroke-linecap="round"/>
<path d="M350.858 253.372L361.15 265.134" stroke="#664955" stroke-opacity="0.8" stroke-width="5" stroke-linecap="round"/>
<path d="M368.501 253.372L378.793 265.134" stroke="#664955" stroke-opacity="0.8" stroke-width="5" stroke-linecap="round"/>
<path d="M257.016 469.769C256.089 481.949 260.483 488.966 267.083 491.996C274.101 495.218 280.739 491.747 283.57 480.188C286.053 470.049 283.369 456.646 274.304 452.91C265.139 449.132 257.845 458.885 257.016 469.769Z" fill="#664955"/>
<path d="M223.464 468.537C223.187 480.495 227.324 487.6 233.207 490.874C239.463 494.355 245.095 491.225 247.056 479.962C248.777 470.081 245.852 456.76 237.791 452.683C229.639 448.561 223.71 457.851 223.464 468.537Z" fill="#664955"/>
<path d="M241.303 469.584C240.641 481.674 244.93 488.727 251.237 491.856C257.945 495.184 264.172 491.852 266.648 480.414C268.82 470.38 266.038 457.01 257.382 453.135C248.631 449.217 241.894 458.781 241.303 469.584Z" fill="#541D3E"/>
<path d="M354.054 472.709C353.126 484.889 357.521 491.906 364.121 494.936C371.139 498.158 377.777 494.687 380.607 483.129C383.091 472.989 380.406 459.586 371.342 455.85C362.176 452.072 354.883 461.825 354.054 472.709Z" fill="#664955"/>
<path d="M320.501 471.477C320.225 483.436 324.361 490.541 330.244 493.814C336.5 497.295 342.132 494.165 344.094 482.902C345.814 473.022 342.89 459.7 334.828 455.624C326.676 451.502 320.747 460.791 320.501 471.477Z" fill="#664955"/>
<path d="M338.34 472.524C337.678 484.614 341.967 491.667 348.275 494.796C354.982 498.124 361.209 494.792 363.685 483.354C365.857 473.32 363.075 459.95 354.42 456.075C345.668 452.157 338.931 461.721 338.34 472.524Z" fill="#541D3E"/>
<path d="M271.17 406.28C271.17 406.28 268.667 404.809 266.906 404.809C265.145 404.809 262.642 406.28 262.642 406.28" stroke="#523A44" stroke-opacity="0.8" stroke-width="5" stroke-linecap="round"/>
<path d="M340.272 406.28C340.272 406.28 337.77 404.809 336.009 404.809C334.247 404.809 331.745 406.28 331.745 406.28" stroke="#523A44" stroke-opacity="0.8" stroke-width="5" stroke-linecap="round"/>
<path d="M304.986 407.75C304.986 407.75 302.483 406.28 300.722 406.28C298.961 406.28 296.458 407.75 296.458 407.75" stroke="#523A44" stroke-opacity="0.8" stroke-width="5" stroke-linecap="round"/>
<path d="M271.17 432.744C271.17 432.744 268.667 431.274 266.906 431.274C265.145 431.274 262.642 432.744 262.642 432.744" stroke="#523A44" stroke-opacity="0.8" stroke-width="5" stroke-linecap="round"/>
<path d="M340.272 432.744C340.272 432.744 337.77 431.274 336.009 431.274C334.247 431.274 331.745 432.744 331.745 432.744" stroke="#523A44" stroke-opacity="0.8" stroke-width="5" stroke-linecap="round"/>
<path d="M304.986 434.215C304.986 434.215 302.483 432.744 300.722 432.744C298.961 432.744 296.458 434.215 296.458 434.215" stroke="#523A44" stroke-opacity="0.8" stroke-width="5" stroke-linecap="round"/>
<path d="M271.17 419.512C271.17 419.512 268.667 418.042 266.906 418.042C265.145 418.042 262.642 419.512 262.642 419.512" stroke="#523A44" stroke-opacity="0.8" stroke-width="5" stroke-linecap="round"/>
<path d="M218.24 93.1133C218.24 93.1133 215.738 91.643 213.976 91.643C212.215 91.643 209.713 93.1133 209.713 93.1133" stroke="#877379" stroke-opacity="0.8" stroke-width="5" stroke-linecap="round"/>
<path d="M213.829 121.048C213.829 121.048 211.327 119.578 209.565 119.578C207.804 119.578 205.302 121.048 205.302 121.048" stroke="#877379" stroke-opacity="0.8" stroke-width="5" stroke-linecap="round"/>
<path d="M380.263 93.1133C380.263 93.1133 382.766 91.643 384.527 91.643C386.288 91.643 388.791 93.1133 388.791 93.1133" stroke="#877379" stroke-opacity="0.8" stroke-width="5" stroke-linecap="round"/>
<path d="M384.674 121.048C384.674 121.048 387.177 119.578 388.938 119.578C390.699 119.578 393.202 121.048 393.202 121.048" stroke="#877379" stroke-opacity="0.8" stroke-width="5" stroke-linecap="round"/>
<path d="M418.49 238.67C418.49 238.67 420.993 237.199 422.754 237.199C424.515 237.199 427.018 238.67 427.018 238.67" stroke="#877379" stroke-opacity="0.8" stroke-width="5" stroke-linecap="round"/>
<path d="M414.08 266.605C414.08 266.605 416.582 265.135 418.343 265.135C420.105 265.135 422.607 266.605 422.607 266.605" stroke="#877379" stroke-opacity="0.8" stroke-width="5" stroke-linecap="round"/>
<path d="M392.573 421.123C392.573 421.123 389.736 420.511 388.44 419.318C387.144 418.125 386.298 415.349 386.298 415.349" stroke="#70575F" stroke-width="5" stroke-linecap="round"/>
<path d="M207.812 421.123C207.812 421.123 210.649 420.511 211.945 419.318C213.241 418.125 214.087 415.349 214.087 415.349" stroke="#70575F" stroke-width="5" stroke-linecap="round"/>
<path d="M340.272 419.512C340.272 419.512 337.77 418.042 336.009 418.042C334.247 418.042 331.745 419.512 331.745 419.512" stroke="#523A44" stroke-opacity="0.8" stroke-width="5" stroke-linecap="round"/>
<path d="M304.986 420.982C304.986 420.982 302.483 419.512 300.722 419.512C298.961 419.512 296.458 420.982 296.458 420.982" stroke="#523A44" stroke-opacity="0.8" stroke-width="5" stroke-linecap="round"/>
<path d="M174.427 238.67C174.427 238.67 176.929 237.199 178.691 237.199C180.452 237.199 182.954 238.67 182.954 238.67" stroke="#877379" stroke-opacity="0.8" stroke-width="5" stroke-linecap="round"/>
<path d="M175.897 263.664C175.897 263.664 178.399 262.194 180.161 262.194C181.922 262.194 184.425 263.664 184.425 263.664" stroke="#877379" stroke-opacity="0.8" stroke-width="5" stroke-linecap="round"/>
</svg>
