<svg width="600" height="600" viewBox="0 0 600 600" fill="none" xmlns="http://www.w3.org/2000/svg">
<path d="M248.663 131.315C270.779 129.971 327.281 148.555 327.281 148.555L311.555 386.677C311.555 386.677 246.942 432.503 206.118 412.013C184.024 400.923 136.347 403.513 158.012 399.411C179.677 395.309 164.112 367.007 184.515 359.205C184.515 359.205 146.748 334.607 164.112 330.401C181.477 326.196 191.923 331.241 206.118 320.2C206.118 320.2 155.349 292.361 179.715 289.595C204.08 286.829 195.938 275.702 222.921 262.592C222.921 262.592 129.781 271.67 158.111 264.992C186.441 258.314 190.166 232.693 202.095 221.681C202.095 221.681 132.827 248.342 158.111 230.187C183.396 212.032 205.402 172.283 238.092 162.803C238.092 162.803 175.971 172.545 192.417 162.803C217.588 147.892 225.676 132.712 248.663 131.315Z" fill="#A44809" stroke="#873B08" stroke-width="5"/>
<path d="M351.591 405.805C325.669 435.071 404.772 394.949 439.075 396.723C453.133 397.45 460.847 401.932 474.884 400.861C493.712 399.423 539.319 385.009 520.564 385.009C507.295 385.009 494.16 359.377 471.357 349.604C449.65 340.301 432.156 341.217 409.082 359.377C401.202 365.579 426.274 326.926 446.151 318.92C480.358 305.142 426.747 308.452 413.148 307.598C367.974 304.761 364.703 391.002 351.591 405.805Z" fill="#A94A0A"/>
<path d="M351.591 405.805C325.669 435.071 404.772 394.949 439.075 396.723C453.133 397.45 460.847 401.932 474.884 400.861C493.712 399.423 539.319 385.009 520.564 385.009C507.295 385.009 494.16 359.377 471.357 349.604C449.65 340.301 432.156 341.217 409.082 359.377C401.202 365.579 426.274 326.926 446.151 318.92C480.358 305.142 426.747 308.452 413.148 307.598C367.974 304.761 364.703 391.002 351.591 405.805Z" stroke="#A94A0A" stroke-width="5"/>
<path d="M351.591 405.805C325.669 435.071 404.772 394.949 439.075 396.723C453.133 397.45 460.847 401.932 474.884 400.861C493.712 399.423 539.319 385.009 520.564 385.009C507.295 385.009 494.16 359.377 471.357 349.604C449.65 340.301 432.156 341.217 409.082 359.377C401.202 365.579 426.274 326.926 446.151 318.92C480.358 305.142 426.747 308.452 413.148 307.598C367.974 304.761 364.703 391.002 351.591 405.805Z" stroke="black" stroke-opacity="0.2" stroke-width="5"/>
<path d="M386.895 362.487C377.628 365.361 367.092 377.489 367.092 377.489L362.292 459.101C362.292 459.101 391.442 448.196 408.498 438.098C412.303 435.845 414.79 435.029 418.099 432.097C430.875 420.777 432.717 403.578 428.301 387.09C425.171 375.404 419.59 367.318 408.498 362.487C400.763 359.118 394.953 359.988 386.895 362.487Z" fill="#D9844B"/>
<path d="M386.895 362.487C377.628 365.361 367.092 377.489 367.092 377.489L362.292 459.101C362.292 459.101 391.442 448.196 408.498 438.098C412.303 435.845 414.79 435.029 418.099 432.097C430.875 420.777 432.717 403.578 428.301 387.09C425.171 375.404 419.59 367.318 408.498 362.487C400.763 359.118 394.953 359.988 386.895 362.487Z" stroke="#D9844B" stroke-width="5"/>
<path d="M386.895 362.487C377.628 365.361 367.092 377.489 367.092 377.489L362.292 459.101C362.292 459.101 391.442 448.196 408.498 438.098C412.303 435.845 414.79 435.029 418.099 432.097C430.875 420.777 432.717 403.578 428.301 387.09C425.171 375.404 419.59 367.318 408.498 362.487C400.763 359.118 394.953 359.988 386.895 362.487Z" stroke="black" stroke-opacity="0.2" stroke-width="5"/>
<path d="M229.436 362.487C238.703 365.361 249.239 377.489 249.239 377.489L254.04 459.101C254.04 459.101 224.889 448.196 207.833 438.098C204.028 435.845 201.541 435.029 198.232 432.097C185.457 420.777 183.614 403.578 188.03 387.09C191.161 375.404 196.742 367.318 207.833 362.487C215.568 359.118 221.378 359.988 229.436 362.487Z" fill="#D9844B"/>
<path d="M229.436 362.487C238.703 365.361 249.239 377.489 249.239 377.489L254.04 459.101C254.04 459.101 224.889 448.196 207.833 438.098C204.028 435.845 201.541 435.029 198.232 432.097C185.457 420.777 183.614 403.578 188.03 387.09C191.161 375.404 196.742 367.318 207.833 362.487C215.568 359.118 221.378 359.988 229.436 362.487Z" stroke="#D9844B" stroke-width="5"/>
<path d="M229.436 362.487C238.703 365.361 249.239 377.489 249.239 377.489L254.04 459.101C254.04 459.101 224.889 448.196 207.833 438.098C204.028 435.845 201.541 435.029 198.232 432.097C185.457 420.777 183.614 403.578 188.03 387.09C191.161 375.404 196.742 367.318 207.833 362.487C215.568 359.118 221.378 359.988 229.436 362.487Z" stroke="black" stroke-opacity="0.2" stroke-width="5"/>
<path d="M240.474 322.894C238.776 327.633 210.048 408.85 233.272 443.686C258.476 481.492 357.492 486.292 377.894 443.686C398.296 401.08 370.696 326.51 368.893 322.894C368.893 322.894 241.906 318.902 240.474 322.894Z" fill="#D9844B"/>
<path d="M240.474 322.894C238.776 327.633 210.048 408.85 233.272 443.686C258.476 481.492 357.492 486.292 377.894 443.686C398.296 401.08 370.696 326.51 368.893 322.894C368.893 322.894 241.906 318.902 240.474 322.894Z" stroke="#D9844B" stroke-width="5"/>
<path d="M240.474 322.894C238.776 327.633 210.048 408.85 233.272 443.686C258.476 481.492 357.492 486.292 377.894 443.686C398.296 401.08 370.696 326.51 368.893 322.894C368.893 322.894 241.906 318.902 240.474 322.894Z" stroke="black" stroke-opacity="0.2" stroke-width="5"/>
<path d="M250.891 455.819H295.992C295.532 460.02 295.532 463.02 294.932 467.221H251.726C251.726 463.02 251.125 460.02 250.891 455.819Z" fill="#D9844B"/>
<path d="M251.099 383.209C245.488 422.564 245.579 444.664 251.099 484.024H296.498C301.3 439.651 300.291 418.63 296.498 383.209" stroke="#D9844B" stroke-width="5"/>
<path d="M251.099 383.209C245.488 422.564 245.579 444.664 251.099 484.024H296.498C301.3 439.651 300.291 418.63 296.498 383.209" stroke="black" stroke-opacity="0.2" stroke-width="5"/>
<path d="M244.524 467.221H302.133C301.375 474.738 301.375 479.033 300.169 487.624H246.798C245.683 480.073 245.195 475.591 244.524 467.221Z" fill="#868084"/>
<path d="M362.141 455.819H317.135C317.595 460.02 317.455 463.02 318.055 467.221H361.541C361.542 463.02 362.141 460.02 362.141 455.819Z" fill="#D9844B"/>
<path d="M317.108 383.209C311.498 422.564 311.589 444.664 317.108 484.024H362.508C367.31 439.651 366.301 418.63 362.508 383.209" stroke="#D9844B" stroke-width="5"/>
<path d="M317.108 383.209C311.498 422.564 311.589 444.664 317.108 484.024H362.508C367.31 439.651 366.301 418.63 362.508 383.209" stroke="black" stroke-opacity="0.2" stroke-width="5"/>
<path d="M310.534 467.221H368.142C367.384 474.738 367.384 479.033 366.179 487.624H312.808C311.693 480.073 311.205 475.591 310.534 467.221Z" fill="#868084"/>
<path d="M397.57 210.492C408.043 179.481 419.899 137.643 403.097 128.641C387.495 120.283 349.67 135.74 323.973 152.339L397.57 210.492Z" fill="#D9844B"/>
<path d="M397.57 210.492C408.043 179.481 419.899 137.643 403.097 128.641C387.495 120.283 349.67 135.74 323.973 152.339L397.57 210.492Z" stroke="#D9844B" stroke-width="5" stroke-linecap="round"/>
<path d="M397.57 210.492C408.043 179.481 419.899 137.643 403.097 128.641C387.495 120.283 349.67 135.74 323.973 152.339L397.57 210.492Z" stroke="black" stroke-opacity="0.2" stroke-width="5" stroke-linecap="round"/>
<path d="M388.594 198.495C395.775 177.234 403.903 148.55 392.384 142.379C381.687 136.649 355.755 147.246 338.138 158.626L388.594 198.495Z" fill="#FFE4BB"/>
<path d="M388.594 198.495C395.775 177.234 403.903 148.55 392.384 142.379C381.687 136.649 355.755 147.246 338.138 158.626L388.594 198.495Z" stroke="#D9844B" stroke-width="5" stroke-linecap="round"/>
<path d="M388.594 198.495C395.775 177.234 403.903 148.55 392.384 142.379C381.687 136.649 355.755 147.246 338.138 158.626L388.594 198.495Z" stroke="black" stroke-opacity="0.2" stroke-width="5" stroke-linecap="round"/>
<path d="M216.601 210.433C206.128 179.422 194.272 137.583 211.074 128.582C226.676 120.224 264.501 135.681 290.198 152.28L216.601 210.433Z" fill="#D9844B"/>
<path d="M216.601 210.433C206.128 179.422 194.272 137.583 211.074 128.582C226.676 120.224 264.501 135.681 290.198 152.28L216.601 210.433Z" stroke="#D9844B" stroke-width="5" stroke-linecap="round"/>
<path d="M216.601 210.433C206.128 179.422 194.272 137.583 211.074 128.582C226.676 120.224 264.501 135.681 290.198 152.28L216.601 210.433Z" stroke="black" stroke-opacity="0.2" stroke-width="5" stroke-linecap="round"/>
<path d="M226.473 198.495C219.293 177.234 211.164 148.55 222.684 142.379C233.38 136.649 259.312 147.246 276.929 158.626L226.473 198.495Z" fill="#FFE4BB"/>
<path d="M226.473 198.495C219.293 177.234 211.164 148.55 222.684 142.379C233.38 136.649 259.312 147.246 276.929 158.626L226.473 198.495Z" stroke="#D9844B" stroke-width="5" stroke-linecap="round"/>
<path d="M226.473 198.495C219.293 177.234 211.164 148.55 222.684 142.379C233.38 136.649 259.312 147.246 276.929 158.626L226.473 198.495Z" stroke="black" stroke-opacity="0.2" stroke-width="5" stroke-linecap="round"/>
<path d="M305.174 149.524C248.163 149.524 217.891 191.225 201.469 239.383C195.678 253.37 178.065 282.863 207.468 312.868C233.194 334.664 271.052 336.155 305.174 336.155C339.295 336.155 456.505 340.472 406.878 239.383C390.455 191.225 362.184 149.524 305.174 149.524Z" fill="#D9844B"/>
<path d="M305.174 149.524C248.163 149.524 217.891 191.225 201.469 239.383C195.678 253.37 178.065 282.863 207.468 312.868C233.194 334.664 271.052 336.155 305.174 336.155C339.295 336.155 456.505 340.472 406.878 239.383C390.455 191.225 362.184 149.524 305.174 149.524Z" stroke="#D9844B" stroke-width="5"/>
<path d="M305.174 149.524C248.163 149.524 217.891 191.225 201.469 239.383C195.678 253.37 178.065 282.863 207.468 312.868C233.194 334.664 271.052 336.155 305.174 336.155C339.295 336.155 456.505 340.472 406.878 239.383C390.455 191.225 362.184 149.524 305.174 149.524Z" stroke="black" stroke-opacity="0.2" stroke-width="5"/>
<path d="M268.424 212.975C268.424 217.296 257.807 212.975 253.757 212.975C249.706 212.975 240.311 212.355 240.311 208.035C240.311 203.714 242.348 198.976 253.757 198.976C265.165 198.976 268.424 208.655 268.424 212.975Z" fill="#AE6A3C" fill-opacity="0.8"/>
<path d="M341.587 212.975C341.587 217.296 352.204 212.975 356.254 212.975C360.305 212.975 369.7 212.355 369.7 208.034C369.7 203.714 367.663 198.976 356.254 198.976C344.846 198.976 341.587 208.655 341.587 212.975Z" fill="#AE6A3C" fill-opacity="0.8"/>
<path d="M251.22 257.191C242.986 257.191 194.953 258.105 194.953 282.142C194.953 322 251.22 336.402 306.621 336.402C362.023 336.402 417.875 322.6 417.875 282.142C417.875 258.105 369.842 257.191 361.608 257.191C353.374 257.191 352.414 272.025 345.14 268.806C331.167 262.623 326.242 258.482 308.402 258.482C290.561 258.482 281.617 262.642 267.688 268.806C260.414 272.025 259.454 257.191 251.22 257.191Z" fill="#FEFFFB"/>
<path d="M285.331 307.598C285.331 307.598 292.592 311.498 298.018 311.18C302.53 310.915 308.062 307.598 308.062 307.598C308.062 307.598 313.583 311.009 318.107 311.18C323.175 311.371 329.737 307.598 329.737 307.598" stroke="black" stroke-width="5" stroke-linecap="round"/>
<path d="M309.408 285.348C309.408 286.096 307.588 286.702 305.344 286.702C303.099 286.702 301.279 286.096 301.279 285.348C301.279 284.599 303.099 283.993 305.344 283.993C307.588 283.993 309.408 284.599 309.408 285.348Z" fill="white" fill-opacity="0.5"/>
<ellipse cx="21.93" cy="25.9295" rx="21.93" ry="25.9295" transform="matrix(-0.953838 0.300322 0.215795 0.976439 370.111 216.153)" fill="black" stroke="#504B4F"/>
<ellipse cx="6.23929" cy="5.34742" rx="6.23929" ry="5.34742" transform="matrix(-0.82516 0.564899 0.575712 0.817653 349.284 231.081)" fill="white" stroke="#504B4F"/>
<path d="M266.843 140.174C251.241 122.772 319.499 145.575 319.499 145.575C319.499 145.575 334.375 148.659 341.738 156.842C348.339 164.177 364.428 185.18 353.14 185.18C345.153 185.18 331.937 183.056 324.329 181.645C315.365 179.983 315.334 178.579 301.447 167.781C296.703 164.094 308.822 181.597 315.334 195.129C319.499 203.783 305.733 198.982 300.932 195.815C287.148 186.72 274.735 148.976 266.843 140.174Z" fill="#A94A0A"/>
<path d="M266.843 140.174C251.241 122.772 319.499 145.575 319.499 145.575C319.499 145.575 334.375 148.659 341.738 156.842C348.339 164.177 364.428 185.18 353.14 185.18C345.153 185.18 331.937 183.056 324.329 181.645C315.365 179.983 315.334 178.579 301.447 167.781C296.703 164.094 308.822 181.597 315.334 195.129C319.499 203.783 305.733 198.982 300.932 195.815C287.148 186.72 274.735 148.976 266.843 140.174Z" stroke="#A94A0A" stroke-width="5"/>
<path d="M266.843 140.174C251.241 122.772 319.499 145.575 319.499 145.575C319.499 145.575 334.375 148.659 341.738 156.842C348.339 164.177 364.428 185.18 353.14 185.18C345.153 185.18 331.937 183.056 324.329 181.645C315.365 179.983 315.334 178.579 301.447 167.781C296.703 164.094 308.822 181.597 315.334 195.129C319.499 203.783 305.733 198.982 300.932 195.815C287.148 186.72 274.735 148.976 266.843 140.174Z" stroke="black" stroke-opacity="0.2" stroke-width="5"/>
<path d="M284.194 289.913C284.782 292.604 278.091 291.247 275.763 291.757C273.435 292.266 267.95 293.06 267.361 290.37C266.773 287.679 267.299 284.472 273.856 283.038C280.413 281.604 283.605 287.222 284.194 289.913Z" fill="#71645C" fill-opacity="0.8"/>
<path d="M284.194 289.913C284.782 292.604 278.091 291.247 275.763 291.757C273.435 292.266 267.95 293.06 267.361 290.37C266.773 287.679 267.299 284.472 273.856 283.038C280.413 281.604 283.605 287.222 284.194 289.913Z" fill="#71645C" fill-opacity="0.8"/>
<path d="M332.398 289.913C331.81 292.604 338.501 291.247 340.829 291.757C343.157 292.266 348.642 293.06 349.231 290.37C349.819 287.679 349.293 284.472 342.736 283.038C336.179 281.604 332.987 287.222 332.398 289.913Z" fill="#71645C" fill-opacity="0.8"/>
<path d="M332.398 289.913C331.81 292.604 338.501 291.247 340.829 291.757C343.157 292.266 348.642 293.06 349.231 290.37C349.819 287.679 349.293 284.472 342.736 283.038C336.179 281.604 332.987 287.222 332.398 289.913Z" fill="#71645C" fill-opacity="0.8"/>
<ellipse cx="21.93" cy="25.9295" rx="21.93" ry="25.9295" transform="matrix(-0.953838 0.300322 0.215795 0.976439 270.189 214.944)" fill="black" stroke="#504B4F"/>
<ellipse cx="6.23929" cy="5.34742" rx="6.23929" ry="5.34742" transform="matrix(-0.82516 0.564899 0.575712 0.817653 249.362 229.872)" fill="white" stroke="#504B4F"/>
<path d="M449.774 467.787C439.773 490.542 416.909 502.504 398.704 494.503C380.499 486.503 373.849 461.57 383.849 438.814C393.85 416.058 416.715 404.097 434.919 412.097C453.124 420.098 459.775 445.031 449.774 467.787Z" fill="#868084"/>
<path d="M449.774 467.787C439.773 490.542 416.909 502.504 398.704 494.503C380.499 486.503 373.849 461.57 383.849 438.814C393.85 416.058 416.715 404.097 434.919 412.097C453.124 420.098 459.775 445.031 449.774 467.787Z" stroke="#868084" stroke-width="5"/>
<path d="M449.774 467.787C439.773 490.542 416.909 502.504 398.704 494.503C380.499 486.503 373.849 461.57 383.849 438.814C393.85 416.058 416.715 404.097 434.919 412.097C453.124 420.098 459.775 445.031 449.774 467.787Z" stroke="black" stroke-opacity="0.2" stroke-width="5"/>
<path d="M437.366 465.998C430.699 481.168 415.455 489.143 403.319 483.809C391.182 478.476 386.749 461.854 393.416 446.683C400.083 431.513 415.326 423.538 427.463 428.872C439.599 434.205 444.033 450.827 437.366 465.998Z" fill="#F1CDD3"/>
<path d="M163.018 467.787C173.018 490.542 195.883 502.504 214.088 494.503C232.292 486.503 238.943 461.57 228.942 438.814C218.942 416.058 196.077 404.097 177.872 412.097C159.668 420.098 153.017 445.031 163.018 467.787Z" fill="#868084"/>
<path d="M163.018 467.787C173.018 490.542 195.883 502.504 214.088 494.503C232.292 486.503 238.943 461.57 228.942 438.814C218.942 416.058 196.077 404.097 177.872 412.097C159.668 420.098 153.017 445.031 163.018 467.787Z" stroke="#868084" stroke-width="5"/>
<path d="M163.018 467.787C173.018 490.542 195.883 502.504 214.088 494.503C232.292 486.503 238.943 461.57 228.942 438.814C218.942 416.058 196.077 404.097 177.872 412.097C159.668 420.098 153.017 445.031 163.018 467.787Z" stroke="black" stroke-opacity="0.2" stroke-width="5"/>
<path d="M175.426 465.998C182.093 481.168 197.337 489.143 209.473 483.809C221.609 478.476 226.043 461.854 219.376 446.683C212.709 431.513 197.466 423.538 185.329 428.872C173.193 434.205 168.759 450.827 175.426 465.998Z" fill="#F1CDD3"/>
</svg>
