<svg width="600" height="600" viewBox="0 0 600 600" fill="none" xmlns="http://www.w3.org/2000/svg">
<path d="M336.897 240.989L307.974 229.857L304.523 228.529C304.523 228.529 310.685 140.52 351.165 116.626C364.669 108.655 356.439 87.773 362.718 86.8955C368.609 86.0723 374.706 93.0869 379.516 99.824C384.309 106.536 386.034 111.428 386.287 119.829C387.565 162.169 336.897 240.989 336.897 240.989Z" fill="#E5A160"/>
<path d="M336.897 240.989L307.974 229.857L304.523 228.529C304.523 228.529 310.685 140.52 351.165 116.626C364.669 108.655 356.439 87.773 362.718 86.8955C368.609 86.0723 374.706 93.0869 379.516 99.824C384.309 106.536 386.034 111.428 386.287 119.829C387.565 162.169 336.897 240.989 336.897 240.989Z" stroke="#E5A160" stroke-width="5"/>
<path d="M336.897 240.989L307.974 229.857L304.523 228.529C304.523 228.529 310.685 140.52 351.165 116.626C364.669 108.655 356.439 87.773 362.718 86.8955C368.609 86.0723 374.706 93.0869 379.516 99.824C384.309 106.536 386.034 111.428 386.287 119.829C387.565 162.169 336.897 240.989 336.897 240.989Z" stroke="black" stroke-opacity="0.2" stroke-width="5"/>
<path d="M333.902 224.157L323.049 219.981L320.459 218.984C320.459 218.984 330.73 178.09 349.27 152.242C355.08 144.142 357.667 129.228 360.309 128.155C362.788 127.148 362.238 133.016 363.051 136.255C364.089 140.386 364.68 142.294 364.614 147.048C364.279 171.348 333.902 224.157 333.902 224.157Z" fill="#F0BBDD"/>
<path d="M333.902 224.157L323.049 219.981L320.459 218.984C320.459 218.984 330.73 178.09 349.27 152.242C355.08 144.142 357.667 129.228 360.309 128.155C362.788 127.148 362.238 133.016 363.051 136.255C364.089 140.386 364.68 142.294 364.614 147.048C364.279 171.348 333.902 224.157 333.902 224.157Z" stroke="#E5A160" stroke-width="5"/>
<path d="M333.902 224.157L323.049 219.981L320.459 218.984C320.459 218.984 330.73 178.09 349.27 152.242C355.08 144.142 357.667 129.228 360.309 128.155C362.788 127.148 362.238 133.016 363.051 136.255C364.089 140.386 364.68 142.294 364.614 147.048C364.279 171.348 333.902 224.157 333.902 224.157Z" stroke="black" stroke-opacity="0.2" stroke-width="5"/>
<path d="M216.425 240.989L245.348 229.857L248.799 228.529C248.799 228.529 242.637 140.52 202.158 116.626C188.653 108.655 196.883 87.773 190.604 86.8955C184.713 86.0723 178.616 93.0869 173.806 99.824C169.013 106.536 167.288 111.428 167.035 119.829C165.757 162.169 216.425 240.989 216.425 240.989Z" fill="#E5A160"/>
<path d="M216.425 240.989L245.348 229.857L248.799 228.529C248.799 228.529 242.637 140.52 202.158 116.626C188.653 108.655 196.883 87.773 190.604 86.8955C184.713 86.0723 178.616 93.0869 173.806 99.824C169.013 106.536 167.288 111.428 167.035 119.829C165.757 162.169 216.425 240.989 216.425 240.989Z" stroke="#E5A160" stroke-width="5"/>
<path d="M216.425 240.989L245.348 229.857L248.799 228.529C248.799 228.529 242.637 140.52 202.158 116.626C188.653 108.655 196.883 87.773 190.604 86.8955C184.713 86.0723 178.616 93.0869 173.806 99.824C169.013 106.536 167.288 111.428 167.035 119.829C165.757 162.169 216.425 240.989 216.425 240.989Z" stroke="black" stroke-opacity="0.2" stroke-width="5"/>
<path d="M219.421 224.157L230.273 219.981L232.863 218.984C232.863 218.984 222.593 178.09 204.053 152.242C198.242 144.142 195.655 129.228 193.013 128.155C190.534 127.148 191.085 133.016 190.271 136.255C189.233 140.386 188.642 142.294 188.708 147.048C189.043 171.348 219.421 224.157 219.421 224.157Z" fill="#F0BBDD"/>
<path d="M219.421 224.157L230.273 219.981L232.863 218.984C232.863 218.984 222.593 178.09 204.053 152.242C198.242 144.142 195.655 129.228 193.013 128.155C190.534 127.148 191.085 133.016 190.271 136.255C189.233 140.386 188.642 142.294 188.708 147.048C189.043 171.348 219.421 224.157 219.421 224.157Z" stroke="#E5A160" stroke-width="5"/>
<path d="M219.421 224.157L230.273 219.981L232.863 218.984C232.863 218.984 222.593 178.09 204.053 152.242C198.242 144.142 195.655 129.228 193.013 128.155C190.534 127.148 191.085 133.016 190.271 136.255C189.233 140.386 188.642 142.294 188.708 147.048C189.043 171.348 219.421 224.157 219.421 224.157Z" stroke="black" stroke-opacity="0.2" stroke-width="5"/>
<path d="M303.646 488.939L278.566 439.8C352.667 444.742 384.111 437.655 457.334 433.489C521.037 429.864 376.696 489.167 303.646 488.939Z" fill="#E4A160"/>
<path d="M303.646 488.939L278.566 439.8C352.667 444.742 384.111 437.655 457.334 433.489C521.037 429.864 376.696 489.167 303.646 488.939Z" stroke="#E4A160" stroke-width="5"/>
<path d="M303.646 488.939L278.566 439.8C352.667 444.742 384.111 437.655 457.334 433.489C521.037 429.864 376.696 489.167 303.646 488.939Z" stroke="black" stroke-opacity="0.2" stroke-width="5"/>
<path d="M349.804 399.772C341.021 402.496 331.034 413.991 331.034 413.991L326.484 491.343C326.484 491.343 354.113 481.008 370.279 471.436C373.885 469.301 376.243 468.528 379.379 465.749C391.488 455.02 393.234 438.718 389.048 423.091C386.082 412.015 380.792 404.351 370.279 399.772C362.948 396.579 357.441 397.404 349.804 399.772Z" fill="#E5A160"/>
<path d="M349.804 399.772C341.021 402.496 331.034 413.991 331.034 413.991L326.484 491.343C326.484 491.343 354.113 481.008 370.279 471.436C373.885 469.301 376.243 468.528 379.379 465.749C391.488 455.02 393.234 438.718 389.048 423.091C386.082 412.015 380.792 404.351 370.279 399.772C362.948 396.579 357.441 397.404 349.804 399.772Z" stroke="#E5A160" stroke-width="5"/>
<path d="M349.804 399.772C341.021 402.496 331.034 413.991 331.034 413.991L326.484 491.343C326.484 491.343 354.113 481.008 370.279 471.436C373.885 469.301 376.243 468.528 379.379 465.749C391.488 455.02 393.234 438.718 389.048 423.091C386.082 412.015 380.792 404.351 370.279 399.772C362.948 396.579 357.441 397.404 349.804 399.772Z" stroke="black" stroke-opacity="0.2" stroke-width="5"/>
<path d="M200.564 399.772C209.347 402.496 219.333 413.991 219.333 413.991L223.883 491.343C223.883 491.343 196.254 481.008 180.089 471.436C176.482 469.301 174.125 468.528 170.988 465.749C158.88 455.02 157.134 438.718 161.319 423.091C164.286 412.015 169.576 404.351 180.089 399.772C187.42 396.579 192.927 397.404 200.564 399.772Z" fill="#E5A160"/>
<path d="M200.564 399.772C209.347 402.496 219.333 413.991 219.333 413.991L223.883 491.343C223.883 491.343 196.254 481.008 180.089 471.436C176.482 469.301 174.125 468.528 170.988 465.749C158.88 455.02 157.134 438.718 161.319 423.091C164.286 412.015 169.576 404.351 180.089 399.772C187.42 396.579 192.927 397.404 200.564 399.772Z" stroke="#E5A160" stroke-width="5"/>
<path d="M200.564 399.772C209.347 402.496 219.333 413.991 219.333 413.991L223.883 491.343C223.883 491.343 196.254 481.008 180.089 471.436C176.482 469.301 174.125 468.528 170.988 465.749C158.88 455.02 157.134 438.718 161.319 423.091C164.286 412.015 169.576 404.351 180.089 399.772C187.42 396.579 192.927 397.404 200.564 399.772Z" stroke="black" stroke-opacity="0.2" stroke-width="5"/>
<path d="M391.125 509.913C354.561 507.109 294.491 500.941 294.491 500.941C294.491 500.941 326.418 488.514 349.337 485.8C368.062 483.583 384.211 480.073 402.601 483.247C417.401 485.8 430.312 491.327 428.559 500.941C426.74 510.919 406.614 511.101 391.125 509.913Z" fill="#E5A160"/>
<path d="M391.125 509.913C354.561 507.109 294.491 500.941 294.491 500.941C294.491 500.941 326.418 488.514 349.337 485.8C368.062 483.583 384.211 480.073 402.601 483.247C417.401 485.8 430.312 491.327 428.559 500.941C426.74 510.919 406.614 511.101 391.125 509.913Z" stroke="#E5A160" stroke-width="5"/>
<path d="M391.125 509.913C354.561 507.109 294.491 500.941 294.491 500.941C294.491 500.941 326.418 488.514 349.337 485.8C368.062 483.583 384.211 480.073 402.601 483.247C417.401 485.8 430.312 491.327 428.559 500.941C426.74 510.919 406.614 511.101 391.125 509.913Z" stroke="black" stroke-opacity="0.2" stroke-width="5"/>
<path d="M162.595 509.913C199.158 507.109 259.228 500.941 259.228 500.941C259.228 500.941 227.301 488.514 204.382 485.8C185.657 483.583 169.508 480.073 151.118 483.247C136.318 485.8 123.407 491.327 125.16 500.941C126.979 510.919 147.106 511.101 162.595 509.913Z" fill="#E5A160"/>
<path d="M162.595 509.913C199.158 507.109 259.228 500.941 259.228 500.941C259.228 500.941 227.301 488.514 204.382 485.8C185.657 483.583 169.508 480.073 151.118 483.247C136.318 485.8 123.407 491.327 125.16 500.941C126.979 510.919 147.106 511.101 162.595 509.913Z" stroke="#E5A160" stroke-width="5"/>
<path d="M162.595 509.913C199.158 507.109 259.228 500.941 259.228 500.941C259.228 500.941 227.301 488.514 204.382 485.8C185.657 483.583 169.508 480.073 151.118 483.247C136.318 485.8 123.407 491.327 125.16 500.941C126.979 510.919 147.106 511.101 162.595 509.913Z" stroke="black" stroke-opacity="0.2" stroke-width="5"/>
<path d="M211.025 362.247C209.415 366.738 182.187 443.715 204.199 476.734C228.087 512.566 321.935 517.116 341.272 476.734C360.609 436.351 334.449 365.674 332.741 362.247C332.741 362.247 212.382 358.463 211.025 362.247Z" fill="#E5A160"/>
<path d="M211.025 362.247C209.415 366.738 182.187 443.715 204.199 476.734C228.087 512.566 321.935 517.116 341.272 476.734C360.609 436.351 334.449 365.674 332.741 362.247C332.741 362.247 212.382 358.463 211.025 362.247Z" stroke="#E5A160" stroke-width="5"/>
<path d="M211.025 362.247C209.415 366.738 182.187 443.715 204.199 476.734C228.087 512.566 321.935 517.116 341.272 476.734C360.609 436.351 334.449 365.674 332.741 362.247C332.741 362.247 212.382 358.463 211.025 362.247Z" stroke="black" stroke-opacity="0.2" stroke-width="5"/>
<path d="M318.379 440.332C318.379 478.655 298.008 505.295 272.878 505.295C247.748 505.295 227.377 478.655 227.377 440.332C227.377 402.01 250.127 414.862 272.878 414.862C295.629 414.862 318.379 402.01 318.379 440.332Z" fill="#FCD8B6"/>
<path d="M318.379 440.332C318.379 478.655 298.008 505.295 272.878 505.295C247.748 505.295 227.377 478.655 227.377 440.332C227.377 402.01 250.127 414.862 272.878 414.862C295.629 414.862 318.379 402.01 318.379 440.332Z" stroke="#E5A160" stroke-width="5"/>
<path d="M318.379 440.332C318.379 478.655 298.008 505.295 272.878 505.295C247.748 505.295 227.377 478.655 227.377 440.332C227.377 402.01 250.127 414.862 272.878 414.862C295.629 414.862 318.379 402.01 318.379 440.332Z" stroke="black" stroke-opacity="0.2" stroke-width="5"/>
<path d="M272.348 197.926C218.313 197.926 189.621 237.45 174.056 283.094C168.568 296.351 151.874 324.305 179.742 352.743C204.126 373.402 240.007 374.814 272.348 374.814C304.688 374.814 415.78 378.906 368.744 283.094C353.178 237.45 326.382 197.926 272.348 197.926Z" fill="#E5A160"/>
<path d="M272.348 197.926C218.313 197.926 189.621 237.45 174.056 283.094C168.568 296.351 151.874 324.305 179.742 352.743C204.126 373.402 240.007 374.814 272.348 374.814C304.688 374.814 415.78 378.906 368.744 283.094C353.178 237.45 326.382 197.926 272.348 197.926Z" stroke="#E5A160" stroke-width="5"/>
<path d="M272.348 197.926C218.313 197.926 189.621 237.45 174.056 283.094C168.568 296.351 151.874 324.305 179.742 352.743C204.126 373.402 240.007 374.814 272.348 374.814C304.688 374.814 415.78 378.906 368.744 283.094C353.178 237.45 326.382 197.926 272.348 197.926Z" stroke="black" stroke-opacity="0.2" stroke-width="5"/>
<path d="M272.906 335.907V347.51M272.906 347.51C272.906 347.51 269.335 350.986 266.422 351.264C262.92 351.598 258.232 347.51 258.232 347.51M272.906 347.51C272.906 347.51 276.47 351.085 279.39 351.264C282.662 351.464 286.898 347.51 286.898 347.51" stroke="black" stroke-width="5" stroke-linecap="round"/>
<path d="M272.642 336.932C271.108 336.932 260.76 333.127 259.696 327.23C258.632 321.332 287.417 321.332 285.587 327.23C283.757 333.127 274.175 336.932 272.642 336.932Z" fill="#27051B"/>
<path d="M276.361 326.659C276.361 327.368 274.636 327.943 272.509 327.943C270.381 327.943 268.656 327.368 268.656 326.659C268.656 325.95 270.381 325.375 272.509 325.375C274.636 325.375 276.361 325.95 276.361 326.659Z" fill="white" fill-opacity="0.5"/>
<ellipse cx="217.592" cy="327.445" rx="15.0966" ry="6.78146" fill="#F5AC7B"/>
<ellipse cx="331.296" cy="327.699" rx="15.0966" ry="6.78146" transform="rotate(-2.27638 331.296 327.699)" fill="#F5AC7B"/>
<ellipse cx="20.7854" cy="24.576" rx="20.7854" ry="24.576" transform="matrix(-0.953838 0.300322 0.215795 0.976439 333.896 261.077)" fill="black" stroke="#504B4F"/>
<ellipse cx="5.91362" cy="5.0683" rx="5.91362" ry="5.0683" transform="matrix(-0.82516 0.564899 0.575712 0.817653 314.157 275.226)" fill="white" stroke="#504B4F"/>
<ellipse cx="20.7854" cy="24.576" rx="20.7854" ry="24.576" transform="matrix(-0.953838 0.300322 0.215795 0.976439 239.189 259.931)" fill="black" stroke="#504B4F"/>
<ellipse cx="5.91362" cy="5.0683" rx="5.91362" ry="5.0683" transform="matrix(-0.82516 0.564899 0.575712 0.817653 219.45 274.08)" fill="white" stroke="#504B4F"/>
<path d="M226.382 432.37C226.361 425.144 226.785 419.58 228.088 414.739C228.088 414.739 253.116 436.92 250.841 440.902C248.891 444.314 226.382 432.37 226.382 432.37Z" fill="#E5A160"/>
<path d="M320.085 431.926C320.106 424.699 316.412 421.856 315.109 417.014C315.109 417.014 291.406 438.627 293.681 442.608C295.631 446.021 320.085 431.926 320.085 431.926Z" fill="#E5A160"/>
<path d="M220.921 405.638C220.921 405.638 262.581 438.165 251.634 443.177C243.971 446.685 212.958 428.389 212.958 428.389" stroke="#E5A160" stroke-width="5"/>
<path d="M220.921 405.638C220.921 405.638 262.581 438.165 251.634 443.177C243.971 446.685 212.958 428.389 212.958 428.389" stroke="black" stroke-opacity="0.2" stroke-width="5"/>
<path d="M324.905 405.638C324.905 405.638 283.244 438.165 294.191 443.177C301.855 446.685 332.867 428.389 332.867 428.389" stroke="#E5A160" stroke-width="5"/>
<path d="M324.905 405.638C324.905 405.638 283.244 438.165 294.191 443.177C301.855 446.685 332.867 428.389 332.867 428.389" stroke="black" stroke-opacity="0.2" stroke-width="5"/>
<path d="M282.42 221.223C282.42 221.223 246.947 209.437 251.705 201.726C257.333 192.603 264.649 175.18 280.143 173.857C284.818 173.457 288.544 173.849 292.088 175.153C298.064 177.352 292.493 185.417 286.885 191.692C289.843 189.285 293.299 187.116 296.638 186.528C303.803 185.267 310.418 184.731 314.838 190.51C320.557 197.986 313.498 206.57 306.876 213.26C299.809 220.399 282.42 221.223 282.42 221.223Z" fill="#E5A160"/>
<path d="M282.42 221.223C282.42 221.223 246.947 209.437 251.705 201.726C257.333 192.603 264.649 175.18 280.143 173.857C284.818 173.457 288.544 173.849 292.088 175.153C298.064 177.352 292.493 185.417 286.885 191.692C289.843 189.285 293.299 187.116 296.638 186.528C303.803 185.267 310.418 184.731 314.838 190.51C320.557 197.986 313.498 206.57 306.876 213.26C299.809 220.399 282.42 221.223 282.42 221.223Z" stroke="#E5A160" stroke-width="5"/>
<path d="M282.42 221.223C282.42 221.223 246.947 209.437 251.705 201.726C257.333 192.603 264.649 175.18 280.143 173.857C284.818 173.457 288.544 173.849 292.088 175.153C298.064 177.352 292.493 185.417 286.885 191.692C289.843 189.285 293.299 187.116 296.638 186.528C303.803 185.267 310.418 184.731 314.838 190.51C320.557 197.986 313.498 206.57 306.876 213.26C299.809 220.399 282.42 221.223 282.42 221.223Z" stroke="black" stroke-opacity="0.2" stroke-width="5"/>
</svg>
