<svg width="600" height="600" viewBox="0 0 600 600" fill="none" xmlns="http://www.w3.org/2000/svg">
<path d="M146.771 207.105C151.912 182.91 137.788 161.337 132.222 153.36" stroke="#5E8A4A" stroke-width="15" stroke-linecap="round"/>
<path d="M140.952 208.924C136.89 184.524 115.857 169.61 107.759 164.22" stroke="#5E8A4A" stroke-width="15" stroke-linecap="round"/>
<path d="M127.454 196C134.742 191.627 143.852 188.712 151.14 188.712C156.806 188.712 168.597 192.032 172.64 196C177.003 200.282 181.944 207.9 185.395 216.772C190.832 230.749 188.674 240.217 188.674 255.035V319.899C188.674 333.422 194.824 346.817 206.166 350.51C221.836 355.612 231.197 354.547 247.709 362.535C255.448 366.28 263.017 375.826 270.302 380.391C282.581 388.086 280.932 396.336 293.989 402.62C306.03 408.416 314.522 406.944 327.879 407.358C345.048 407.89 355.334 408.119 371.608 402.62C380.413 399.645 385.4 397.609 393.108 392.417C400.794 387.24 403.075 388.9 411.693 385.493C422.625 381.171 422.929 385.493 432.464 385.493C444.845 385.493 451.742 385.378 463.075 380.391C472.185 376.383 483.774 369.817 494.778 365.815C514.821 358.527 471.581 399.742 459.066 407.358C445.431 415.655 438.426 419.074 424.083 423.756C413.943 427.066 407.862 427.499 397.481 429.951C387.369 432.339 381.829 434.284 371.608 436.146C359.347 438.38 352.234 437.98 339.904 439.79C324.578 442.041 316.349 445.777 300.912 447.078C288.008 448.166 280.701 447.078 267.751 447.078H247.709H226.208C216.104 447.078 210.303 448.731 200.335 447.078C184.44 444.444 175.052 440.417 162.801 429.951C148.773 417.966 144.317 406.974 138.386 389.502C134.159 377.051 132.216 369.485 132.555 356.34C132.851 344.873 136.734 338.903 138.386 327.552C142.69 297.978 138.386 251.026 138.386 251.026H132.555C126.294 251.026 122.518 252.829 116.521 251.026C109.134 248.805 103.006 246.407 100.852 239.001C98.5035 230.925 101.313 223.976 105.589 216.043C110.984 206.033 118.412 201.425 127.454 196Z" fill="#76AD5C"/>
<path d="M127.454 196C134.742 191.627 143.852 188.712 151.14 188.712C156.806 188.712 168.597 192.032 172.64 196C177.003 200.282 181.944 207.9 185.395 216.772C190.832 230.749 188.674 240.217 188.674 255.035V319.899C188.674 333.422 194.824 346.817 206.166 350.51C221.836 355.612 231.197 354.547 247.709 362.535C255.448 366.28 263.017 375.826 270.302 380.391C282.581 388.086 280.932 396.336 293.989 402.62C306.03 408.416 314.522 406.944 327.879 407.358C345.048 407.89 355.334 408.119 371.608 402.62C380.413 399.645 385.4 397.609 393.108 392.417C400.794 387.24 403.075 388.9 411.693 385.493C422.625 381.171 422.929 385.493 432.464 385.493C444.845 385.493 451.742 385.378 463.075 380.391C472.185 376.383 483.774 369.817 494.778 365.815C514.821 358.527 471.581 399.742 459.066 407.358C445.431 415.655 438.426 419.074 424.083 423.756C413.943 427.066 407.862 427.499 397.481 429.951C387.369 432.339 381.829 434.284 371.608 436.146C359.347 438.38 352.234 437.98 339.904 439.79C324.578 442.041 316.349 445.777 300.912 447.078C288.008 448.166 280.701 447.078 267.751 447.078H247.709H226.208C216.104 447.078 210.303 448.731 200.335 447.078C184.44 444.444 175.052 440.417 162.801 429.951C148.773 417.966 144.317 406.974 138.386 389.502C134.159 377.051 132.216 369.485 132.555 356.34C132.851 344.873 136.734 338.903 138.386 327.552C142.69 297.978 138.386 251.026 138.386 251.026H132.555C126.294 251.026 122.518 252.829 116.521 251.026C109.134 248.805 103.006 246.407 100.852 239.001C98.5035 230.925 101.313 223.976 105.589 216.043C110.984 206.033 118.412 201.425 127.454 196Z" stroke="#76AD5C" stroke-width="5"/>
<path d="M127.454 196C134.742 191.627 143.852 188.712 151.14 188.712C156.806 188.712 168.597 192.032 172.64 196C177.003 200.282 181.944 207.9 185.395 216.772C190.832 230.749 188.674 240.217 188.674 255.035V319.899C188.674 333.422 194.824 346.817 206.166 350.51C221.836 355.612 231.197 354.547 247.709 362.535C255.448 366.28 263.017 375.826 270.302 380.391C282.581 388.086 280.932 396.336 293.989 402.62C306.03 408.416 314.522 406.944 327.879 407.358C345.048 407.89 355.334 408.119 371.608 402.62C380.413 399.645 385.4 397.609 393.108 392.417C400.794 387.24 403.075 388.9 411.693 385.493C422.625 381.171 422.929 385.493 432.464 385.493C444.845 385.493 451.742 385.378 463.075 380.391C472.185 376.383 483.774 369.817 494.778 365.815C514.821 358.527 471.581 399.742 459.066 407.358C445.431 415.655 438.426 419.074 424.083 423.756C413.943 427.066 407.862 427.499 397.481 429.951C387.369 432.339 381.829 434.284 371.608 436.146C359.347 438.38 352.234 437.98 339.904 439.79C324.578 442.041 316.349 445.777 300.912 447.078C288.008 448.166 280.701 447.078 267.751 447.078H247.709H226.208C216.104 447.078 210.303 448.731 200.335 447.078C184.44 444.444 175.052 440.417 162.801 429.951C148.773 417.966 144.317 406.974 138.386 389.502C134.159 377.051 132.216 369.485 132.555 356.34C132.851 344.873 136.734 338.903 138.386 327.552C142.69 297.978 138.386 251.026 138.386 251.026H132.555C126.294 251.026 122.518 252.829 116.521 251.026C109.134 248.805 103.006 246.407 100.852 239.001C98.5035 230.925 101.313 223.976 105.589 216.043C110.984 206.033 118.412 201.425 127.454 196Z" stroke="black" stroke-opacity="0.2" stroke-width="5"/>
<path d="M250.623 378.934C246.025 376.06 241.299 373.359 236.047 372.01C226.523 369.564 222.897 367.987 214.911 364.357C198.877 357.069 193.411 340.671 193.411 340.671C193.411 340.671 209.485 341.655 213.089 335.315C223.657 316.731 223.092 301.366 235.655 283.004C244.253 270.436 250.343 264.128 261.703 253.987C267.918 248.438 271.603 243.759 278.683 239.365C289.251 232.806 296.67 229.568 309.658 227.339C327.926 224.205 339.052 225.576 356.667 231.348C372.204 236.439 382.127 240.856 394.929 251.026C410.07 263.053 419.092 273.46 426.176 291.452C431.627 305.294 434.109 313.779 433.557 328.645C432.897 346.427 430.051 358.654 420.595 373.727C411.199 388.704 400.621 393.285 385.244 402.01C374.909 407.874 369.041 412.086 357.335 414.131C348.746 415.631 343.728 414.131 335.009 414.131H310.077C302.229 414.131 289.98 407.104 289.98 407.104C289.98 407.104 281.69 403.873 275.768 400.434C264.471 393.874 262.284 386.222 250.623 378.934Z" fill="#BE9269" stroke="#B07A5C" stroke-width="5"/>
<path d="M329.335 329.223C323.059 329.286 318.468 332.264 315.852 337.969C312.715 344.811 313.73 351.863 317.674 358.273C322.955 366.855 327.517 369.673 337.352 371.859C342.631 373.033 351.792 373.203 357.03 371.859C362.964 370.337 368.073 365.953 372.336 361.553C379.696 353.955 382.884 346.519 384.361 336.044C385.653 326.885 386.149 317.061 384.361 307.985C382.706 299.584 375.251 288.933 369.056 284.298C356.94 275.234 350.698 272.492 335.895 269.357C326.567 267.382 320.43 267.323 311.115 269.357C301.783 271.395 295.312 275.128 287.793 281.019C281.194 286.187 276.923 290.815 271.759 297.417C264.583 306.591 263.377 310.9 257.911 321.468C253.138 330.695 253.174 338.774 253.174 349.163C253.174 357.132 254.134 361.946 256.453 369.57C259.514 379.628 266.239 387.197 273.945 394.35C282.422 402.218 289.044 405.187 299.818 409.393C305.831 411.741 309.47 412.44 315.852 413.402C325.843 414.908 331.621 415.486 341.725 415.486C347.133 415.486 348.649 415.486 357.03 413.402C368.606 410.524 372.336 409.666 384.361 403.198C388.639 400.898 392.332 398.482 396.387 395.807C404.37 390.541 409.474 386.105 414.607 379.409C422.989 368.477 423.966 365.999 426.997 353.9C430.592 339.552 431.381 332.939 430.277 318.188C429.005 301.191 423.717 288.307 414.607 274.095C406.415 261.315 401.244 255.535 388.37 247.493C375.952 239.736 364.89 234.835 350.835 230.73C334.497 225.958 328.021 225.84 311.115 227.815C298.32 229.309 291.961 231.468 280.869 238.018C269.517 244.721 265.447 248.058 256.453 257.696C250.059 264.548 244.837 270.158 239.326 277.739C230.532 289.836 224.75 298.146 221.106 314.283C218.646 325.175 218.238 335.262 207.987 339.688C203.255 341.732 194.504 341.035 194.504 341.035" stroke="#B07A5C" stroke-width="5" stroke-linecap="round"/>
<ellipse cx="8.017" cy="6.92378" rx="8.017" ry="6.92378" transform="matrix(-1 0 0 1 136.563 209.848)" fill="black"/>
<circle cx="1.82205" cy="1.82205" r="1.82205" transform="matrix(-1 0 0 1 126.36 213.492)" fill="white"/>
<path d="M108.868 247.501C121.189 246.677 127.71 244.339 138.792 236.814" stroke="#5E8A4A" stroke-opacity="0.8" stroke-width="5" stroke-linecap="round"/>
</svg>
