<svg width="600" height="600" viewBox="0 0 600 600" fill="none" xmlns="http://www.w3.org/2000/svg">
<path d="M371.654 428.149C371.654 428.149 383.182 423.909 387.156 417.814C392.668 409.363 383.711 399.484 383.711 389.394C383.711 380.782 387.962 375.248 395.768 371.308C401.173 368.581 420.391 363.995 431.595 368.202C441.437 371.897 444.858 378.536 444.858 386.115C444.858 391.012 443.308 401.961 428.839 405.406C420.461 407.401 410.823 403.299 406.964 395.423C400.722 382.68 408.402 367.584 419.883 359.245C426.785 354.231 448.131 358.556 454.331 357.867C460.532 357.178 475.001 350.288 475.001 350.288" stroke="#F094A7" stroke-width="5" stroke-linecap="round"/>
<path d="M212.674 302.854C210.724 308.295 177.741 401.542 204.405 441.539C233.342 484.944 347.026 490.456 370.45 441.539C393.874 392.621 362.185 307.005 360.115 302.854C360.115 302.854 214.317 298.27 212.674 302.854Z" fill="#FBE2E8" stroke="#F094A7" stroke-width="5"/>
<path d="M341.512 392.621C341.512 439.043 316.835 471.314 286.394 471.314C255.953 471.314 231.276 439.043 231.276 392.621C231.276 346.198 261.04 318.934 286.394 308.566C310.646 319.674 341.512 346.198 341.512 392.621Z" fill="#F7C1CE"/>
<path d="M422.639 223.283C422.639 296.342 362.18 330.764 287.6 330.764C213.02 330.764 152.561 296.342 152.561 223.283C152.561 150.225 213.02 91 287.6 91C362.18 91 422.639 150.225 422.639 223.283Z" fill="#FBE2E8" stroke="#F094A7" stroke-width="5"/>
<ellipse cx="220.627" cy="260.697" rx="18.2874" ry="8.21478" fill="#F7C1CF"/>
<ellipse cx="358.364" cy="261.004" rx="18.2874" ry="8.21478" transform="rotate(-2.27638 358.364 261.004)" fill="#F7C1CF"/>
<ellipse cx="25.1785" cy="29.7704" rx="25.1785" ry="29.7704" transform="matrix(-0.953838 0.300322 0.215795 0.976439 361.514 180.301)" fill="black" stroke="#504B4F"/>
<ellipse cx="7.16352" cy="6.13954" rx="7.16352" ry="6.13954" transform="matrix(-0.82516 0.564899 0.575712 0.817653 337.602 197.44)" fill="white" stroke="#504B4F"/>
<ellipse cx="25.1785" cy="29.7704" rx="25.1785" ry="29.7704" transform="matrix(-0.953838 0.300322 0.215795 0.976439 246.79 178.913)" fill="black" stroke="#504B4F"/>
<ellipse cx="7.16352" cy="6.13954" rx="7.16352" ry="6.13954" transform="matrix(-0.82516 0.564899 0.575712 0.817653 222.878 196.053)" fill="white" stroke="#504B4F"/>
<path d="M231.276 387.798C231.251 379.044 231.764 372.305 233.343 366.44C233.343 366.44 263.66 393.31 260.905 398.133C258.542 402.267 231.276 387.798 231.276 387.798Z" fill="#FBE2E8"/>
<path d="M341.513 389.176C341.537 380.422 340.335 375.061 338.756 369.196C338.756 369.196 310.043 395.377 312.799 400.2C315.161 404.334 341.513 389.176 341.513 389.176Z" fill="#FBE2E8"/>
<path d="M224.661 355.416C224.661 355.416 275.126 394.819 261.865 400.889C252.582 405.139 215.015 382.975 215.015 382.975" stroke="#F094A7" stroke-width="5"/>
<path d="M350.622 355.416C350.622 355.416 300.157 394.819 313.417 400.889C322.701 405.139 360.268 382.975 360.268 382.975" stroke="#F094A7" stroke-width="5"/>
<path d="M155.437 462.552C166.919 488.678 193.17 502.412 214.072 493.226C234.973 484.04 242.609 455.414 231.127 429.288C219.645 403.161 193.393 389.428 172.492 398.613C151.59 407.799 143.955 436.425 155.437 462.552Z" fill="#FBE2E8" stroke="#F094A7" stroke-width="5"/>
<path d="M169.683 460.498C177.338 477.916 194.839 487.071 208.773 480.948C222.707 474.824 227.798 455.74 220.143 438.322C212.489 420.904 194.987 411.749 181.053 417.872C167.119 423.996 162.028 443.08 169.683 460.498Z" fill="#F7C1CE"/>
<path d="M410.26 462.552C398.778 488.678 372.527 502.412 351.625 493.226C330.724 484.04 323.088 455.414 334.57 429.288C346.052 403.161 372.304 389.428 393.205 398.613C414.107 407.799 421.742 436.425 410.26 462.552Z" fill="#FBE2E8" stroke="#F094A7" stroke-width="5"/>
<path d="M396.014 460.498C388.359 477.916 370.858 487.071 356.924 480.948C342.99 474.824 337.899 455.74 345.554 438.322C353.208 420.904 370.71 411.749 384.644 417.872C398.578 423.996 403.669 443.08 396.014 460.498Z" fill="#F7C1CE"/>
<path d="M364.764 91.2396C354.767 91.4196 341.339 101.574 341.339 101.574C341.339 101.574 353.911 117.325 358.563 129.133C363.477 141.605 362.407 149.697 364.764 162.893C366.973 175.26 363.407 184.068 370.276 194.586C374.65 201.284 377.84 205.848 385.433 208.366C397.151 212.25 405.021 204.527 415.059 197.342C428.289 187.873 439.016 179.153 438.484 162.893C438.099 151.107 434.14 143.098 424.705 136.023C417.898 130.919 410.443 134.731 404.036 129.133C397.328 123.272 399.974 115.404 394.39 108.464C386.001 98.0371 378.145 90.9985 364.764 91.2396Z" fill="#FBE2E8" stroke="#F094A7" stroke-width="5"/>
<path d="M198.739 92.6176C208.737 92.7977 222.165 102.952 222.165 102.952C222.165 102.952 209.593 118.703 204.94 130.511C200.026 142.983 201.097 151.075 198.739 164.271C196.53 176.638 200.097 185.446 193.228 195.964C188.853 202.662 185.663 207.226 178.07 209.744C166.353 213.628 158.482 205.905 148.444 198.72C135.215 189.251 124.487 180.531 125.019 164.271C125.404 152.485 129.363 144.476 138.798 137.401C145.606 132.297 153.06 136.109 159.468 130.511C166.176 124.65 163.529 116.782 169.113 109.842C177.503 99.4151 185.359 92.3765 198.739 92.6176Z" fill="#FBE2E8" stroke="#F094A7" stroke-width="5"/>
<ellipse cx="289.665" cy="273.123" rx="37.8937" ry="27.559" fill="#F688AB"/>
<ellipse cx="289.665" cy="273.123" rx="37.8937" ry="27.559" stroke="#F688AB" stroke-width="5"/>
<ellipse cx="289.665" cy="273.123" rx="37.8937" ry="27.559" stroke="black" stroke-opacity="0.2" stroke-width="5"/>
<path d="M271.063 304.816C271.063 304.816 276.742 309.768 280.984 309.363C284.513 309.027 288.839 304.816 288.839 304.816C288.839 304.816 293.155 309.147 296.693 309.363C300.657 309.606 305.788 304.816 305.788 304.816" stroke="#302F2F" stroke-width="5" stroke-linecap="round"/>
<ellipse cx="277.953" cy="273.468" rx="2.7559" ry="9.99015" fill="#4D4D4D" fill-opacity="0.6"/>
<ellipse cx="300" cy="273.468" rx="2.7559" ry="9.99015" fill="#4D4D4D" fill-opacity="0.6"/>
</svg>
