<svg width="600" height="600" viewBox="0 0 600 600" fill="none" xmlns="http://www.w3.org/2000/svg">
<path d="M351.508 357.454C349.024 360.06 351.684 370.726 351.684 370.726C356.278 369.613 361.741 367.073 365.761 366.1C365.761 366.1 355.571 353.191 351.508 357.454Z" fill="#FFF079"/>
<path d="M351.508 357.454C349.024 360.06 351.684 370.726 351.684 370.726C356.278 369.613 361.741 367.073 365.761 366.1C365.761 366.1 355.571 353.191 351.508 357.454Z" stroke="#FFF079" stroke-width="5"/>
<path d="M351.508 357.454C349.024 360.06 351.684 370.726 351.684 370.726C356.278 369.613 361.741 367.073 365.761 366.1C365.761 366.1 355.571 353.191 351.508 357.454Z" stroke="black" stroke-opacity="0.2" stroke-width="5"/>
<path d="M372.506 346.985C371.068 350.286 377.228 359.39 377.228 359.39C381.16 356.768 385.42 352.507 388.861 350.212C388.861 350.212 374.859 341.586 372.506 346.985Z" fill="#FFF079"/>
<path d="M372.506 346.985C371.068 350.286 377.228 359.39 377.228 359.39C381.16 356.768 385.42 352.507 388.861 350.212C388.861 350.212 374.859 341.586 372.506 346.985Z" stroke="#FFF079" stroke-width="5"/>
<path d="M372.506 346.985C371.068 350.286 377.228 359.39 377.228 359.39C381.16 356.768 385.42 352.507 388.861 350.212C388.861 350.212 374.859 341.586 372.506 346.985Z" stroke="black" stroke-opacity="0.2" stroke-width="5"/>
<path d="M384.683 332.174C385.269 335.727 395.387 340.024 395.387 340.024C397.263 335.686 398.525 329.794 400.167 325.999C400.167 325.999 383.725 326.363 384.683 332.174Z" fill="#FFF079"/>
<path d="M384.683 332.174C385.269 335.727 395.387 340.024 395.387 340.024C397.263 335.686 398.525 329.794 400.167 325.999C400.167 325.999 383.725 326.363 384.683 332.174Z" stroke="#FFF079" stroke-width="5"/>
<path d="M384.683 332.174C385.269 335.727 395.387 340.024 395.387 340.024C397.263 335.686 398.525 329.794 400.167 325.999C400.167 325.999 383.725 326.363 384.683 332.174Z" stroke="black" stroke-opacity="0.2" stroke-width="5"/>
<path d="M378.83 357.192C352.765 376.055 297.619 382.386 297.619 382.386L316.355 406.343C316.355 406.343 355.354 420.53 378.83 413.346C399.463 407.031 414.361 399.648 422.69 379.743C429.672 363.058 427.463 350.395 421.123 333.455C415.26 317.789 394.954 299.546 394.954 299.546C394.954 299.546 401.676 322.607 396.49 335.79C392.523 345.874 387.821 350.685 378.83 357.192Z" fill="#8FB905"/>
<path d="M378.83 357.192C352.765 376.055 297.619 382.386 297.619 382.386L316.355 406.343C316.355 406.343 355.354 420.53 378.83 413.346C399.463 407.031 414.361 399.648 422.69 379.743C429.672 363.058 427.463 350.395 421.123 333.455C415.26 317.789 394.954 299.546 394.954 299.546C394.954 299.546 401.676 322.607 396.49 335.79C392.523 345.874 387.821 350.685 378.83 357.192Z" stroke="#8FB905" stroke-width="5"/>
<path d="M378.83 357.192C352.765 376.055 297.619 382.386 297.619 382.386L316.355 406.343C316.355 406.343 355.354 420.53 378.83 413.346C399.463 407.031 414.361 399.648 422.69 379.743C429.672 363.058 427.463 350.395 421.123 333.455C415.26 317.789 394.954 299.546 394.954 299.546C394.954 299.546 401.676 322.607 396.49 335.79C392.523 345.874 387.821 350.685 378.83 357.192Z" stroke="black" stroke-opacity="0.2" stroke-width="5"/>
<path d="M267.287 138.058C236.252 136.715 192.557 159.269 192.557 159.269H330.808C330.808 159.269 294.261 139.224 267.287 138.058Z" fill="#8FB905"/>
<path d="M267.287 138.058C236.252 136.715 192.557 159.269 192.557 159.269H330.808C330.808 159.269 294.261 139.224 267.287 138.058Z" stroke="#8FB905" stroke-width="5"/>
<path d="M267.287 138.058C236.252 136.715 192.557 159.269 192.557 159.269H330.808C330.808 159.269 294.261 139.224 267.287 138.058Z" stroke="black" stroke-opacity="0.2" stroke-width="5"/>
<path d="M202.75 310.143C201.078 314.808 172.794 394.77 195.66 429.069C220.474 466.29 317.96 471.016 338.047 429.069C358.134 387.121 330.96 313.703 329.185 310.143C329.185 310.143 204.16 306.212 202.75 310.143Z" fill="#8FB905"/>
<path d="M202.75 310.143C201.078 314.808 172.794 394.77 195.66 429.069C220.474 466.29 317.96 471.016 338.047 429.069C358.134 387.121 330.96 313.703 329.185 310.143C329.185 310.143 204.16 306.212 202.75 310.143Z" stroke="#8FB905" stroke-width="5"/>
<path d="M202.75 310.143C201.078 314.808 172.794 394.77 195.66 429.069C220.474 466.29 317.96 471.016 338.047 429.069C358.134 387.121 330.96 313.703 329.185 310.143C329.185 310.143 204.16 306.212 202.75 310.143Z" stroke="black" stroke-opacity="0.2" stroke-width="5"/>
<path d="M315.447 383.779C315.447 423.587 294.728 452.642 268.625 452.642C242.521 452.642 220.917 423.587 220.917 383.779C220.917 343.97 246.44 320.59 268.182 311.699C288.979 321.225 315.447 343.97 315.447 383.779Z" fill="#FFF079"/>
<path d="M315.447 383.779C315.447 423.587 294.728 452.642 268.625 452.642C242.521 452.642 220.917 423.587 220.917 383.779C220.917 343.97 246.44 320.59 268.182 311.699C288.979 321.225 315.447 343.97 315.447 383.779Z" stroke="#FFF079" stroke-width="5"/>
<path d="M315.447 383.779C315.447 423.587 294.728 452.642 268.625 452.642C242.521 452.642 220.917 423.587 220.917 383.779C220.917 343.97 246.44 320.59 268.182 311.699C288.979 321.225 315.447 343.97 315.447 383.779Z" stroke="black" stroke-opacity="0.2" stroke-width="5"/>
<path d="M268.613 330.934L268.034 449.097" stroke="#A9AD5B" stroke-opacity="0.8" stroke-width="5" stroke-linecap="round"/>
<path d="M307.619 355.748C272.206 365.227 262.412 365.223 228.45 355.748" stroke="#A9AD5B" stroke-opacity="0.8" stroke-width="5" stroke-linecap="round"/>
<path d="M312.345 391.198C276.932 400.677 258.276 400.673 224.313 391.198" stroke="#A9AD5B" stroke-opacity="0.8" stroke-width="5" stroke-linecap="round"/>
<path d="M301.71 427.828C277.487 436.099 259.763 436.099 234.948 427.828" stroke="#A9AD5B" stroke-opacity="0.8" stroke-width="5" stroke-linecap="round"/>
<path d="M382.801 241.909C382.801 304.559 330.956 334.077 267.002 334.077C203.047 334.077 151.202 304.559 151.202 241.909C139.975 106.096 209.692 158.014 264.637 158.014C319.583 158.014 391.071 96.0521 382.801 241.909Z" fill="#8FB905"/>
<path d="M382.801 241.909C382.801 304.559 330.956 334.077 267.002 334.077C203.047 334.077 151.202 304.559 151.202 241.909C139.975 106.096 209.692 158.014 264.637 158.014C319.583 158.014 391.071 96.0521 382.801 241.909Z" stroke="#8FB905" stroke-width="5"/>
<path d="M382.801 241.909C382.801 304.559 330.956 334.077 267.002 334.077C203.047 334.077 151.202 304.559 151.202 241.909C139.975 106.096 209.692 158.014 264.637 158.014C319.583 158.014 391.071 96.0521 382.801 241.909Z" stroke="black" stroke-opacity="0.2" stroke-width="5"/>
<ellipse cx="21.5912" cy="25.5289" rx="21.5912" ry="25.5289" transform="matrix(-0.953838 0.300322 0.215795 0.976439 353.272 158.868)" fill="black" stroke="#504B4F"/>
<ellipse cx="6.14289" cy="5.2648" rx="6.14289" ry="5.2648" transform="matrix(-0.82516 0.564899 0.575712 0.817653 332.767 173.565)" fill="white" stroke="#504B4F"/>
<ellipse cx="21.5912" cy="25.5289" rx="21.5912" ry="25.5289" transform="matrix(-0.953838 0.300322 0.215795 0.976439 212.951 161.524)" fill="black" stroke="#504B4F"/>
<ellipse cx="6.14289" cy="5.2648" rx="6.14289" ry="5.2648" transform="matrix(-0.82516 0.564899 0.575712 0.817653 192.446 176.222)" fill="white" stroke="#504B4F"/>
<path d="M294.228 429.788C299.462 414.107 304.002 405.888 312.746 394.339L316.45 389.612L343.806 394.339C335.891 414.638 334.943 429.788 315.215 435.696C303.487 434.514 302.857 429.796 294.228 429.788Z" fill="#8FB905"/>
<path d="M314.063 387.88C314.063 387.88 296 415.017 293.046 430.379C291.15 440.242 303.988 437.468 312.543 437.468C327.981 437.468 338.23 419.093 340.902 396.111C343.856 370.706 340.902 351.283 340.902 351.283" stroke="#729404" stroke-width="5" stroke-linecap="round"/>
<path d="M271.577 450.284C261.211 448.523 291.478 432.151 291.478 432.151C299.862 431.296 304.446 431.174 314.034 436.878C314.034 436.878 319.986 453.265 314.034 455.591C309.427 457.392 302.535 450.284 302.535 450.284C302.535 450.284 295.961 457.278 291.478 455.591C287.428 454.067 286.171 445.861 286.171 445.861C286.171 445.861 277.448 451.282 271.577 450.284Z" fill="#8FB905"/>
<path d="M271.577 450.284C261.211 448.523 291.478 432.151 291.478 432.151C299.862 431.296 304.446 431.174 314.034 436.878C314.034 436.878 319.986 453.265 314.034 455.591C309.427 457.392 302.535 450.284 302.535 450.284C302.535 450.284 295.961 457.278 291.478 455.591C287.428 454.067 286.171 445.861 286.171 445.861C286.171 445.861 277.448 451.282 271.577 450.284Z" stroke="#8FB905" stroke-width="5"/>
<path d="M271.577 450.284C261.211 448.523 291.478 432.151 291.478 432.151C299.862 431.296 304.446 431.174 314.034 436.878C314.034 436.878 319.986 453.265 314.034 455.591C309.427 457.392 302.535 450.284 302.535 450.284C302.535 450.284 295.961 457.278 291.478 455.591C287.428 454.067 286.171 445.861 286.171 445.861C286.171 445.861 277.448 451.282 271.577 450.284Z" stroke="black" stroke-opacity="0.2" stroke-width="5"/>
<path d="M236.414 429.788C231.18 414.107 226.64 405.888 217.896 394.339L214.192 389.612L192.558 394.339C192.558 418.562 198.466 429.788 215.427 435.696C227.155 434.514 227.785 429.796 236.414 429.788Z" fill="#8FB905"/>
<path d="M216.579 387.88C216.579 387.88 234.642 415.017 237.596 430.379C239.492 440.242 226.654 437.468 218.099 437.468C202.662 437.468 192.412 419.093 189.74 396.111C186.786 370.706 191.375 351.283 191.375 351.283" stroke="#729404" stroke-width="5" stroke-linecap="round"/>
<path d="M259.066 450.284C269.431 448.523 239.164 432.151 239.164 432.151C230.78 431.296 226.196 431.174 216.608 436.878C216.608 436.878 210.656 453.265 216.608 455.591C221.215 457.392 228.107 450.284 228.107 450.284C228.107 450.284 234.681 457.278 239.164 455.591C243.215 454.067 244.471 445.861 244.471 445.861C244.471 445.861 253.194 451.282 259.066 450.284Z" fill="#8FB905"/>
<path d="M259.066 450.284C269.431 448.523 239.164 432.151 239.164 432.151C230.78 431.296 226.196 431.174 216.608 436.878C216.608 436.878 210.656 453.265 216.608 455.591C221.215 457.392 228.107 450.284 228.107 450.284C228.107 450.284 234.681 457.278 239.164 455.591C243.215 454.067 244.471 445.861 244.471 445.861C244.471 445.861 253.194 451.282 259.066 450.284Z" stroke="#8FB905" stroke-width="5"/>
<path d="M259.066 450.284C269.431 448.523 239.164 432.151 239.164 432.151C230.78 431.296 226.196 431.174 216.608 436.878C216.608 436.878 210.656 453.265 216.608 455.591C221.215 457.392 228.107 450.284 228.107 450.284C228.107 450.284 234.681 457.278 239.164 455.591C243.215 454.067 244.471 445.861 244.471 445.861C244.471 445.861 253.194 451.282 259.066 450.284Z" stroke="black" stroke-opacity="0.2" stroke-width="5"/>
<path d="M161.003 427.29C142.08 432.455 180.847 467.642 198.98 460.163C216.718 452.847 221.313 401.767 204.697 411.364C199.959 414.101 194.488 420.961 194.488 420.961C194.488 420.961 188.313 410.058 182.442 411.364C176.017 412.793 176.929 427.29 176.929 427.29C176.929 427.29 167.003 425.652 161.003 427.29Z" fill="#8FB905"/>
<path d="M161.003 427.29C142.08 432.455 180.847 467.642 198.98 460.163C216.718 452.847 221.313 401.767 204.697 411.364C199.959 414.101 194.488 420.961 194.488 420.961C194.488 420.961 188.313 410.058 182.442 411.364C176.017 412.793 176.929 427.29 176.929 427.29C176.929 427.29 167.003 425.652 161.003 427.29Z" stroke="#8FB905" stroke-width="5"/>
<path d="M161.003 427.29C142.08 432.455 180.847 467.642 198.98 460.163C216.718 452.847 221.313 401.767 204.697 411.364C199.959 414.101 194.488 420.961 194.488 420.961C194.488 420.961 188.313 410.058 182.442 411.364C176.017 412.793 176.929 427.29 176.929 427.29C176.929 427.29 167.003 425.652 161.003 427.29Z" stroke="black" stroke-opacity="0.2" stroke-width="5"/>
<path d="M375.198 425.715C394.122 430.88 355.355 466.067 337.221 458.588C319.483 451.272 314.889 400.192 331.504 409.789C336.242 412.526 341.713 419.385 341.713 419.385C341.713 419.385 347.888 408.483 353.759 409.789C360.184 411.218 359.272 425.715 359.272 425.715C359.272 425.715 369.198 424.077 375.198 425.715Z" fill="#8FB905"/>
<path d="M375.198 425.715C394.122 430.88 355.355 466.067 337.221 458.588C319.483 451.272 314.889 400.192 331.504 409.789C336.242 412.526 341.713 419.385 341.713 419.385C341.713 419.385 347.888 408.483 353.759 409.789C360.184 411.218 359.272 425.715 359.272 425.715C359.272 425.715 369.198 424.077 375.198 425.715Z" stroke="#8FB905" stroke-width="5"/>
<path d="M375.198 425.715C394.122 430.88 355.355 466.067 337.221 458.588C319.483 451.272 314.889 400.192 331.504 409.789C336.242 412.526 341.713 419.385 341.713 419.385C341.713 419.385 347.888 408.483 353.759 409.789C360.184 411.218 359.272 425.715 359.272 425.715C359.272 425.715 369.198 424.077 375.198 425.715Z" stroke="black" stroke-opacity="0.2" stroke-width="5"/>
<path d="M195.574 289.826C188.397 289.826 179.735 281.772 173.651 293.975C167.566 306.178 209.716 334.15 268.019 334.15C326.321 334.15 361.759 307.504 359.166 293.975C354.165 281.595 351.756 289.826 344.579 289.826C337.402 289.826 323.064 288.534 318.665 288.055C303.077 286.36 308.064 277.432 268.019 277.432C227.973 277.432 231.152 286.371 216.187 288.055C210.96 288.644 202.751 289.826 195.574 289.826Z" fill="#FFF079"/>
<path d="M195.574 289.826C188.397 289.826 179.735 281.772 173.651 293.975C167.566 306.178 209.716 334.15 268.019 334.15C326.321 334.15 361.759 307.504 359.166 293.975C354.165 281.595 351.756 289.826 344.579 289.826C337.402 289.826 323.064 288.534 318.665 288.055C303.077 286.36 308.064 277.432 268.019 277.432C227.973 277.432 231.152 286.371 216.187 288.055C210.96 288.644 202.751 289.826 195.574 289.826Z" stroke="#FFF079" stroke-width="5"/>
<path d="M195.574 289.826C188.397 289.826 179.735 281.772 173.651 293.975C167.566 306.178 209.716 334.15 268.019 334.15C326.321 334.15 361.759 307.504 359.166 293.975C354.165 281.595 351.756 289.826 344.579 289.826C337.402 289.826 323.064 288.534 318.665 288.055C303.077 286.36 308.064 277.432 268.019 277.432C227.973 277.432 231.152 286.371 216.187 288.055C210.96 288.644 202.751 289.826 195.574 289.826Z" stroke="black" stroke-opacity="0.2" stroke-width="5"/>
<path d="M264.699 254.112C265.278 256.761 258.69 255.426 256.398 255.927C254.106 256.429 248.706 257.211 248.127 254.562C247.547 251.912 248.065 248.755 254.521 247.343C260.977 245.931 264.12 251.463 264.699 254.112Z" fill="#729404"/>
<path d="M270.802 254.112C270.222 256.761 276.81 255.426 279.102 255.927C281.394 256.429 286.794 257.211 287.374 254.562C287.953 251.912 287.436 248.755 280.979 247.343C274.523 245.931 271.381 251.463 270.802 254.112Z" fill="#729404"/>
<path d="M286.497 295.957C281.954 293.034 281.179 277.432 281.179 277.432C288.269 277.432 296.54 278.614 302.449 282.159C302.449 282.159 293.926 300.737 286.497 295.957Z" fill="white"/>
<path d="M286.497 295.957C281.954 293.034 281.179 277.432 281.179 277.432C288.269 277.432 296.54 278.614 302.449 282.159C302.449 282.159 293.926 300.737 286.497 295.957Z" stroke="white" stroke-width="5"/>
<path d="M286.497 295.957C281.954 293.034 281.179 277.432 281.179 277.432C288.269 277.432 296.54 278.614 302.449 282.159C302.449 282.159 293.926 300.737 286.497 295.957Z" stroke="black" stroke-opacity="0.2" stroke-width="5"/>
<path d="M329.626 301.598C326.598 299.65 326.672 288.658 326.672 288.658C331.399 288.658 337.306 289.839 341.442 289.839C341.442 289.839 334.579 304.785 329.626 301.598Z" fill="white"/>
<path d="M329.626 301.598C326.598 299.65 326.672 288.658 326.672 288.658C331.399 288.658 337.306 289.839 341.442 289.839C341.442 289.839 334.579 304.785 329.626 301.598Z" stroke="white" stroke-width="5"/>
<path d="M329.626 301.598C326.598 299.65 326.672 288.658 326.672 288.658C331.399 288.658 337.306 289.839 341.442 289.839C341.442 289.839 334.579 304.785 329.626 301.598Z" stroke="black" stroke-opacity="0.2" stroke-width="5"/>
<path d="M210.281 302.189C213.309 300.241 212.645 288.067 212.645 288.067C207.918 288.067 202.01 289.839 197.874 289.839C197.874 289.839 205.328 305.376 210.281 302.189Z" fill="white"/>
<path d="M210.281 302.189C213.309 300.241 212.645 288.067 212.645 288.067C207.918 288.067 202.01 289.839 197.874 289.839C197.874 289.839 205.328 305.376 210.281 302.189Z" stroke="white" stroke-width="5"/>
<path d="M210.281 302.189C213.309 300.241 212.645 288.067 212.645 288.067C207.918 288.067 202.01 289.839 197.874 289.839C197.874 289.839 205.328 305.376 210.281 302.189Z" stroke="black" stroke-opacity="0.2" stroke-width="5"/>
<path d="M249.866 295.957C254.408 293.034 255.184 277.432 255.184 277.432C248.094 277.432 242.776 278.023 235.687 280.977C235.687 280.977 242.437 300.737 249.866 295.957Z" fill="white"/>
<path d="M249.866 295.957C254.408 293.034 255.184 277.432 255.184 277.432C248.094 277.432 242.776 278.023 235.687 280.977C235.687 280.977 242.437 300.737 249.866 295.957Z" stroke="white" stroke-width="5"/>
<path d="M249.866 295.957C254.408 293.034 255.184 277.432 255.184 277.432C248.094 277.432 242.776 278.023 235.687 280.977C235.687 280.977 242.437 300.737 249.866 295.957Z" stroke="black" stroke-opacity="0.2" stroke-width="5"/>
<path d="M233.914 239.712C260.676 227.09 275.682 226.881 302.448 239.712" stroke="#729404" stroke-width="5" stroke-linecap="round"/>
</svg>
