<svg width="600" height="600" viewBox="0 0 600 600" fill="none" xmlns="http://www.w3.org/2000/svg">
<path d="M266.522 487.581L288.053 522.18" stroke="#FF553B" stroke-width="20" stroke-linecap="round"/>
<path d="M263.984 491.276L258.849 524.53" stroke="#FF553B" stroke-width="20" stroke-linecap="round"/>
<path d="M263.403 487.361L234.956 507.191" stroke="#FF553B" stroke-width="20" stroke-linecap="round"/>
<path d="M341.443 488.907L319.911 523.507" stroke="#FF553B" stroke-width="20" stroke-linecap="round"/>
<path d="M343.98 492.603L349.116 525.857" stroke="#FF553B" stroke-width="20" stroke-linecap="round"/>
<path d="M344.562 488.688L373.009 508.518" stroke="#FF553B" stroke-width="20" stroke-linecap="round"/>
<path d="M227.821 334.367C225.942 339.608 194.168 429.437 219.855 467.967C247.732 509.781 357.247 515.091 379.812 467.967C402.378 420.843 371.851 338.366 369.856 334.367C369.856 334.367 229.404 329.951 227.821 334.367Z" fill="#F9F7F7"/>
<path d="M227.821 334.367C225.942 339.608 194.168 429.437 219.855 467.967C247.732 509.781 357.247 515.091 379.812 467.967C402.378 420.843 371.851 338.366 369.856 334.367C369.856 334.367 229.404 329.951 227.821 334.367Z" stroke="#F9F7F7" stroke-width="5"/>
<path d="M227.821 334.367C225.942 339.608 194.168 429.437 219.855 467.967C247.732 509.781 357.247 515.091 379.812 467.967C402.378 420.843 371.851 338.366 369.856 334.367C369.856 334.367 229.404 329.951 227.821 334.367Z" stroke="black" stroke-opacity="0.2" stroke-width="5"/>
<path d="M351.936 420.844C351.936 465.564 328.163 496.653 298.839 496.653C269.514 496.653 245.741 465.564 245.741 420.844C245.741 376.124 274.414 349.859 298.839 339.871C322.201 350.572 351.936 376.124 351.936 420.844Z" fill="#DEDEDE"/>
<path d="M430.089 257.715C430.089 328.095 371.846 361.255 300 361.255C228.154 361.255 169.912 328.095 169.912 257.715C169.912 187.335 228.154 130.281 300 130.281C371.846 130.281 430.089 187.335 430.089 257.715Z" fill="#F9F7F7"/>
<path d="M430.089 257.715C430.089 328.095 371.846 361.255 300 361.255C228.154 361.255 169.912 328.095 169.912 257.715C169.912 187.335 228.154 130.281 300 130.281C371.846 130.281 430.089 187.335 430.089 257.715Z" stroke="#F9F7F7" stroke-width="5"/>
<path d="M430.089 257.715C430.089 328.095 371.846 361.255 300 361.255C228.154 361.255 169.912 328.095 169.912 257.715C169.912 187.335 228.154 130.281 300 130.281C371.846 130.281 430.089 187.335 430.089 257.715Z" stroke="black" stroke-opacity="0.2" stroke-width="5"/>
<ellipse cx="235.483" cy="293.756" rx="17.6169" ry="7.91361" fill="#F7C1CF"/>
<ellipse cx="368.17" cy="294.053" rx="17.6169" ry="7.91361" transform="rotate(-2.27638 368.17 294.053)" fill="#F7C1CF"/>
<ellipse cx="24.2554" cy="28.679" rx="24.2554" ry="28.679" transform="matrix(-0.953838 0.300322 0.215795 0.976439 371.204 216.31)" fill="black" stroke="#504B4F"/>
<ellipse cx="6.90089" cy="5.91445" rx="6.90089" ry="5.91445" transform="matrix(-0.82516 0.564899 0.575712 0.817653 348.169 232.819)" fill="#F9F7F7" stroke="#504B4F"/>
<ellipse cx="24.2554" cy="28.679" rx="24.2554" ry="28.679" transform="matrix(-0.953838 0.300322 0.215795 0.976439 260.521 215.117)" fill="black" stroke="#504B4F"/>
<ellipse cx="6.90089" cy="5.91445" rx="6.90089" ry="5.91445" transform="matrix(-0.82516 0.564899 0.575712 0.817653 237.486 231.626)" fill="#F9F7F7" stroke="#504B4F"/>
<path d="M277.923 333.212C283.966 319.918 297.77 301.52 297.77 301.52C297.77 301.52 311.98 319.806 317.938 333.212C323.06 344.736 331.383 360.665 317.938 362.983C310.677 364.235 307.054 358.477 299.691 358.181C290.993 357.831 285.563 367.156 277.923 362.983C267.719 357.41 273.121 343.776 277.923 333.212Z" fill="#FF553B"/>
<path d="M277.923 333.212C283.966 319.918 297.77 301.52 297.77 301.52C297.77 301.52 311.98 319.806 317.938 333.212C323.06 344.736 331.383 360.665 317.938 362.983C310.677 364.235 307.054 358.477 299.691 358.181C290.993 357.831 285.563 367.156 277.923 362.983C267.719 357.41 273.121 343.776 277.923 333.212Z" stroke="#FF553B" stroke-width="5" stroke-linecap="round"/>
<path d="M277.923 333.212C283.966 319.918 297.77 301.52 297.77 301.52C297.77 301.52 311.98 319.806 317.938 333.212C323.06 344.736 331.383 360.665 317.938 362.983C310.677 364.235 307.054 358.477 299.691 358.181C290.993 357.831 285.563 367.156 277.923 362.983C267.719 357.41 273.121 343.776 277.923 333.212Z" stroke="black" stroke-opacity="0.2" stroke-width="5" stroke-linecap="round"/>
<path d="M278.189 289.573C278.189 289.573 273.016 291.83 271.077 294.763C266.492 301.698 272.614 309.07 278.189 315.123C284.539 322.017 291.219 323.024 300.276 322.709C308.503 322.422 314.247 321.277 320.116 315.123C325.827 309.136 332.261 301.711 327.603 294.763C325.575 291.738 320.116 289.573 320.116 289.573H278.189Z" fill="#CF9C01"/>
<path d="M278.189 289.573C278.189 289.573 273.016 291.83 271.077 294.763C266.492 301.698 272.614 309.07 278.189 315.123C284.539 322.017 291.219 323.024 300.276 322.709C308.503 322.422 314.247 321.277 320.116 315.123C325.827 309.136 332.261 301.711 327.603 294.763C325.575 291.738 320.116 289.573 320.116 289.573H278.189Z" stroke="#CF9C01" stroke-width="5" stroke-linecap="round"/>
<path d="M278.189 289.573C278.189 289.573 273.016 291.83 271.077 294.763C266.492 301.698 272.614 309.07 278.189 315.123C284.539 322.017 291.219 323.024 300.276 322.709C308.503 322.422 314.247 321.277 320.116 315.123C325.827 309.136 332.261 301.711 327.603 294.763C325.575 291.738 320.116 289.573 320.116 289.573H278.189Z" stroke="black" stroke-opacity="0.2" stroke-width="5" stroke-linecap="round"/>
<path d="M278.036 280.281C278.036 280.281 272.811 282.419 270.852 285.197C266.22 291.765 272.404 298.748 278.036 304.482C284.45 311.011 291.198 311.965 300.346 311.666C308.656 311.395 314.458 310.31 320.387 304.482C326.156 298.81 332.654 291.778 327.949 285.197C325.901 282.332 320.387 280.281 320.387 280.281H278.036Z" fill="#F5B903"/>
<path d="M278.036 280.281C278.036 280.281 272.811 282.419 270.852 285.197C266.22 291.765 272.404 298.748 278.036 304.482C284.45 311.011 291.198 311.965 300.346 311.666C308.656 311.395 314.458 310.31 320.387 304.482C326.156 298.81 332.654 291.778 327.949 285.197C325.901 282.332 320.387 280.281 320.387 280.281H278.036Z" stroke="#F5B903" stroke-width="5" stroke-linecap="round"/>
<path d="M278.036 280.281C278.036 280.281 272.811 282.419 270.852 285.197C266.22 291.765 272.404 298.748 278.036 304.482C284.45 311.011 291.198 311.965 300.346 311.666C308.656 311.395 314.458 310.31 320.387 304.482C326.156 298.81 332.654 291.778 327.949 285.197C325.901 282.332 320.387 280.281 320.387 280.281H278.036Z" stroke="black" stroke-opacity="0.2" stroke-width="5" stroke-linecap="round"/>
<path d="M221.477 420.958L224.336 349.308C224.336 349.308 210.612 352.273 204.194 355.921C186.729 365.847 187.264 390.584 170.862 403.371C165.974 407.181 161.173 406.728 156.76 411.73C152.638 416.403 150.563 418.865 150.122 425.603C149.691 432.185 150.268 436.353 154.082 440.522C156.597 443.271 161.064 441.913 163.208 445.181C166.46 450.138 160.777 453.718 163.208 462.104C164.937 468.068 166.24 469.186 170.862 470.731C174.511 471.95 179.573 469.429 183.207 470.731C187.962 472.434 188.749 479.074 193.577 480.354C202.452 482.706 208.263 473.435 213.889 463.915C221.649 450.785 221.477 420.958 221.477 420.958Z" fill="#F9F7F7"/>
<path d="M221.477 420.958L224.336 349.308C224.336 349.308 210.612 352.273 204.194 355.921C186.729 365.847 187.264 390.584 170.862 403.371C165.974 407.181 161.173 406.728 156.76 411.73C152.638 416.403 150.563 418.865 150.122 425.603C149.691 432.185 150.268 436.353 154.082 440.522C156.597 443.271 161.064 441.913 163.208 445.181C166.46 450.138 160.777 453.718 163.208 462.104C164.937 468.068 166.24 469.186 170.862 470.731C174.511 471.95 179.573 469.429 183.207 470.731C187.962 472.434 188.749 479.074 193.577 480.354C202.452 482.706 208.263 473.435 213.889 463.915C221.649 450.785 221.477 420.958 221.477 420.958Z" stroke="#F9F7F7" stroke-width="5" stroke-linecap="round"/>
<path d="M221.477 420.958L224.336 349.308C224.336 349.308 210.612 352.273 204.194 355.921C186.729 365.847 187.264 390.584 170.862 403.371C165.974 407.181 161.173 406.728 156.76 411.73C152.638 416.403 150.563 418.865 150.122 425.603C149.691 432.185 150.268 436.353 154.082 440.522C156.597 443.271 161.064 441.913 163.208 445.181C166.46 450.138 160.777 453.718 163.208 462.104C164.937 468.068 166.24 469.186 170.862 470.731C174.511 471.95 179.573 469.429 183.207 470.731C187.962 472.434 188.749 479.074 193.577 480.354C202.452 482.706 208.263 473.435 213.889 463.915C221.649 450.785 221.477 420.958 221.477 420.958Z" stroke="black" stroke-opacity="0.2" stroke-width="5" stroke-linecap="round"/>
<path d="M378.523 420.958L375.664 349.308C375.664 349.308 389.388 352.273 395.806 355.921C413.271 365.847 412.736 390.584 429.138 403.371C434.026 407.181 438.827 406.728 443.24 411.73C447.362 416.403 449.437 418.865 449.878 425.603C450.309 432.185 449.732 436.353 445.918 440.522C443.403 443.271 438.936 441.913 436.792 445.181C433.54 450.138 439.223 453.718 436.792 462.104C435.063 468.068 433.76 469.186 429.138 470.731C425.489 471.95 420.427 469.429 416.793 470.731C412.038 472.434 411.251 479.074 406.423 480.354C397.548 482.706 391.737 473.435 386.111 463.915C378.351 450.785 378.523 420.958 378.523 420.958Z" fill="#F9F7F7"/>
<path d="M378.523 420.958L375.664 349.308C375.664 349.308 389.388 352.273 395.806 355.921C413.271 365.847 412.736 390.584 429.138 403.371C434.026 407.181 438.827 406.728 443.24 411.73C447.362 416.403 449.437 418.865 449.878 425.603C450.309 432.185 449.732 436.353 445.918 440.522C443.403 443.271 438.936 441.913 436.792 445.181C433.54 450.138 439.223 453.718 436.792 462.104C435.063 468.068 433.76 469.186 429.138 470.731C425.489 471.95 420.427 469.429 416.793 470.731C412.038 472.434 411.251 479.074 406.423 480.354C397.548 482.706 391.737 473.435 386.111 463.915C378.351 450.785 378.523 420.958 378.523 420.958Z" stroke="#F9F7F7" stroke-width="5" stroke-linecap="round"/>
<path d="M378.523 420.958L375.664 349.308C375.664 349.308 389.388 352.273 395.806 355.921C413.271 365.847 412.736 390.584 429.138 403.371C434.026 407.181 438.827 406.728 443.24 411.73C447.362 416.403 449.437 418.865 449.878 425.603C450.309 432.185 449.732 436.353 445.918 440.522C443.403 443.271 438.936 441.913 436.792 445.181C433.54 450.138 439.223 453.718 436.792 462.104C435.063 468.068 433.76 469.186 429.138 470.731C425.489 471.95 420.427 469.429 416.793 470.731C412.038 472.434 411.251 479.074 406.423 480.354C397.548 482.706 391.737 473.435 386.111 463.915C378.351 450.785 378.523 420.958 378.523 420.958Z" stroke="black" stroke-opacity="0.2" stroke-width="5" stroke-linecap="round"/>
<path d="M259.479 103.266C226.503 100.806 291.677 199.307 302.517 189.352C316.247 176.742 369.682 96.7084 337.875 102.59C328.805 104.268 316.247 112.083 316.247 112.083C316.247 112.083 312.581 91.2806 302.516 90.0467C291.504 88.6966 284.782 112.242 284.782 112.242C284.782 112.242 269.935 104.046 259.479 103.266Z" fill="#FF553B"/>
<path d="M259.479 103.266C226.503 100.806 291.677 199.307 302.517 189.352C316.247 176.742 369.682 96.7084 337.875 102.59C328.805 104.268 316.247 112.083 316.247 112.083C316.247 112.083 312.581 91.2806 302.516 90.0467C291.504 88.6966 284.782 112.242 284.782 112.242C284.782 112.242 269.935 104.046 259.479 103.266Z" stroke="#FF553B" stroke-width="5"/>
<path d="M259.479 103.266C226.503 100.806 291.677 199.307 302.517 189.352C316.247 176.742 369.682 96.7084 337.875 102.59C328.805 104.268 316.247 112.083 316.247 112.083C316.247 112.083 312.581 91.2806 302.516 90.0467C291.504 88.6966 284.782 112.242 284.782 112.242C284.782 112.242 269.935 104.046 259.479 103.266Z" stroke="black" stroke-opacity="0.2" stroke-width="5"/>
</svg>
