<svg width="600" height="600" viewBox="0 0 600 600" fill="none" xmlns="http://www.w3.org/2000/svg">
<path d="M273.5 251.233C278.088 245.601 289.5 238.733 289.5 238.733L280 238.233C280 238.233 269.098 249.015 264 256.233C263.188 257.383 262.758 258.046 262 259.233C256.354 268.071 251 283.733 251 283.733C251 283.733 253.53 281.698 255 280.233C259.488 275.76 260.399 271.946 264 266.733C265.355 264.772 266.194 263.726 267.5 261.733C270.088 257.782 270.517 254.894 273.5 251.233Z" fill="#BC5C44" stroke="#BF5D43"/>
<path d="M294.5 244.233C299.168 241.814 307.5 240.733 307.5 240.733C317.585 238.514 323.044 238.595 332.5 240.733C342.288 236.4 347.283 236.623 355.5 240.733C355.5 240.733 322.728 244.514 311 259.233C304.401 267.514 301.447 273.686 300.5 284.233C300.22 287.344 300.772 289.12 300.5 292.233C299.822 299.984 295.478 303.513 294.5 311.233C293.813 316.657 294.5 325.233 294.5 325.233C294.5 325.233 283.542 302.831 291 292.233C292.194 290.535 293.266 289.902 294.5 288.233C300.244 280.465 295.314 272.384 300.5 264.233C303.687 259.222 306.465 257.067 311 253.233C318.416 246.962 332.5 240.733 332.5 240.733C332.5 240.733 306.206 239.958 294.5 249.733C286.809 256.154 285.495 262.547 280.5 271.233C274.012 282.512 266 301.233 266 301.233C266 301.233 265.89 297.878 266 295.733C266.388 288.117 266.814 283.408 270.5 276.733C272.255 273.553 274.173 272.372 276 269.233C277.098 267.346 277.451 266.147 278.5 264.233C283.307 255.461 285.619 248.834 294.5 244.233Z" fill="#BA5A4B"/>
<path d="M332.5 240.733C332.5 240.733 306.206 239.958 294.5 249.733C286.809 256.154 285.495 262.547 280.5 271.233C274.012 282.512 266 301.233 266 301.233C266 301.233 265.89 297.878 266 295.733C266.388 288.117 266.814 283.408 270.5 276.733C272.255 273.553 274.173 272.372 276 269.233C277.098 267.346 277.451 266.147 278.5 264.233C283.307 255.461 285.619 248.834 294.5 244.233C299.168 241.814 307.5 240.733 307.5 240.733C317.585 238.514 323.044 238.595 332.5 240.733ZM332.5 240.733C342.288 236.4 347.283 236.623 355.5 240.733C355.5 240.733 322.728 244.514 311 259.233C304.401 267.514 301.447 273.686 300.5 284.233C300.22 287.344 300.772 289.12 300.5 292.233C299.822 299.984 295.478 303.513 294.5 311.233C293.813 316.657 294.5 325.233 294.5 325.233C294.5 325.233 283.542 302.831 291 292.233C292.194 290.535 293.266 289.902 294.5 288.233C300.244 280.465 295.314 272.384 300.5 264.233C303.687 259.222 306.465 257.067 311 253.233C318.416 246.962 332.5 240.733 332.5 240.733Z" stroke="#BF5D43"/>
<path d="M358 272.733C360.161 276.746 366.5 280.733 366.5 280.733C366.5 280.733 361.415 268.502 363 260.733C364.292 254.396 371 246.233 371 246.233L363 242.733C363 242.733 359.123 250.097 358 255.233C356.539 261.909 354.76 266.715 358 272.733Z" fill="#B45846" stroke="#BF5D43"/>
<path d="M325 275.233C330.19 256.755 359.5 240.233 359.5 240.233H355.5L342.5 247.233C342.5 247.233 321.689 261.188 318.5 275.233C316.987 281.897 318.5 292.733 318.5 292.733V308.233C318.5 314.286 318.38 311.588 318.5 313.733C319.179 325.897 330 342.733 330 342.733C330 342.733 330.051 339.075 330 336.733C329.709 323.315 325.87 316.125 325 302.733C324.304 292.016 322.096 285.572 325 275.233Z" fill="#BD5C4C" stroke="#BF5D43"/>
<path d="M409.161 297.886C412.111 302.106 420.76 304.008 420.76 304.008C420.76 304.008 414.888 291.336 417.23 283.6C419.157 277.233 427.82 270.335 427.82 270.335L425.298 265.233C425.298 265.233 415.051 271.15 411.682 277.478C407.998 284.4 404.674 291.467 409.161 297.886Z" fill="#B85947"/>
<path d="M427.82 310.641C427.82 310.641 427.979 298.338 432.863 293.294C436.252 289.793 443.957 287.682 443.957 287.682L438.41 282.069C438.41 282.069 430.931 284.16 427.82 287.682C421.913 294.366 427.82 310.641 427.82 310.641Z" fill="#B85947"/>
<path d="M433.367 310.641C434.485 313.071 438.41 315.233 438.41 315.233L449 297.886L443.957 293.294C443.957 293.294 434.868 297.738 433.367 303.243C432.608 306.028 432.162 308.022 433.367 310.641Z" fill="#B85947"/>
<path d="M409.161 297.886C412.111 302.106 420.76 304.008 420.76 304.008C420.76 304.008 414.888 291.336 417.23 283.6C419.157 277.233 427.82 270.335 427.82 270.335L425.298 265.233C425.298 265.233 415.051 271.15 411.682 277.478C407.998 284.4 404.674 291.467 409.161 297.886Z" stroke="#BF5D43"/>
<path d="M427.82 310.641C427.82 310.641 427.979 298.338 432.863 293.294C436.252 289.793 443.957 287.682 443.957 287.682L438.41 282.069C438.41 282.069 430.931 284.16 427.82 287.682C421.913 294.366 427.82 310.641 427.82 310.641Z" stroke="#BF5D43"/>
<path d="M433.367 310.641C434.485 313.071 438.41 315.233 438.41 315.233L449 297.886L443.957 293.294C443.957 293.294 434.868 297.738 433.367 303.243C432.608 306.028 432.162 308.022 433.367 310.641Z" stroke="#BF5D43"/>
<path d="M394 287.233C395.953 292.298 402.5 298.233 402.5 298.233C402.5 298.233 398.627 284.31 399 275.233C399.293 268.078 402.5 257.233 402.5 257.233H399C399 257.233 395.123 264.597 394 269.733L393.971 269.864C392.526 276.467 391.557 280.898 394 287.233Z" fill="#A64C3C" stroke="#BF5D43"/>
<path d="M378 275.233C380.161 279.246 386.5 283.233 386.5 283.233C386.5 283.233 381.415 271.002 383 263.233C384.292 256.896 391 248.733 391 248.733L383 245.233C383 245.233 379.123 252.597 378 257.733C376.539 264.409 374.76 269.215 378 275.233Z" fill="#B45846" stroke="#BF5D43"/>
<path d="M414 431.733L406 415.733C418.547 403.327 426.514 397.203 444 389.233L472.5 407.233C454.582 420.879 441.474 425.995 414 431.733Z" fill="#FF8D78"/>
<path d="M414 431.733L406 415.733C418.547 403.327 426.514 397.203 444 389.233L472.5 407.233C454.582 420.879 441.474 425.995 414 431.733Z" stroke="#FF8D78" stroke-width="5"/>
<path d="M414 431.733L406 415.733C418.547 403.327 426.514 397.203 444 389.233L472.5 407.233C454.582 420.879 441.474 425.995 414 431.733Z" stroke="black" stroke-opacity="0.2" stroke-width="5"/>
<path d="M455.64 324.4L442 291.822C475.765 281.074 491.085 272.621 513.474 254.233C529.107 276.758 531.691 290.2 523.294 315.879C500.925 325.406 485.508 326.345 455.64 324.4Z" fill="#FF8973"/>
<path d="M455.64 324.4L442 291.822C475.765 281.074 491.085 272.621 513.474 254.233C529.107 276.758 531.691 290.2 523.294 315.879C500.925 325.406 485.508 326.345 455.64 324.4Z" stroke="#FF8971" stroke-width="5"/>
<path d="M455.64 324.4L442 291.822C475.765 281.074 491.085 272.621 513.474 254.233C529.107 276.758 531.691 290.2 523.294 315.879C500.925 325.406 485.508 326.345 455.64 324.4Z" stroke="black" stroke-opacity="0.2" stroke-width="5"/>
<path d="M459 359.232L453 317.732C479.618 314.563 494.866 314.24 523 317.732C521.67 340.94 517.443 353.543 504 375.232C479.103 376.314 469.01 373.062 459 359.232Z" fill="#FE8A73"/>
<path d="M459 359.232L453 317.732C479.618 314.563 494.866 314.24 523 317.732C521.67 340.94 517.443 353.543 504 375.232C479.103 376.314 469.01 373.062 459 359.232Z" stroke="#FF8971" stroke-width="5"/>
<path d="M459 359.232L453 317.732C479.618 314.563 494.866 314.24 523 317.732C521.67 340.94 517.443 353.543 504 375.232C479.103 376.314 469.01 373.062 459 359.232Z" stroke="black" stroke-opacity="0.2" stroke-width="5"/>
<path d="M443 389.233C451.222 381.977 458.424 375.344 459 358.733C475.029 369.365 484.841 372.878 503.5 375.733C496.866 389.1 489.653 397.779 472 407.733C457.205 403.578 451.868 400.528 443 389.233Z" fill="#FF8971"/>
<path d="M443 389.233C451.222 381.977 458.424 375.344 459 358.733C475.029 369.365 484.841 372.878 503.5 375.733C496.866 389.1 489.653 397.779 472 407.733C457.205 403.578 451.868 400.528 443 389.233Z" stroke="#FF8971" stroke-width="5"/>
<path d="M443 389.233C451.222 381.977 458.424 375.344 459 358.733C475.029 369.365 484.841 372.878 503.5 375.733C496.866 389.1 489.653 397.779 472 407.733C457.205 403.578 451.868 400.528 443 389.233Z" stroke="black" stroke-opacity="0.2" stroke-width="5"/>
<path d="M371.21 449.438C361.962 431.213 360.822 421.129 366.102 403.413C384.338 405.782 394.835 406.574 414.753 405.596L421.276 431.352C404.257 441.988 393.236 445.865 371.21 449.438Z" fill="#FF6A4F"/>
<path d="M371.21 449.438C361.962 431.213 360.822 421.129 366.102 403.413C384.338 405.782 394.835 406.574 414.753 405.596L421.276 431.352C404.257 441.988 393.236 445.865 371.21 449.438Z" stroke="#FF6A4F" stroke-width="5"/>
<path d="M371.21 449.438C361.962 431.213 360.822 421.129 366.102 403.413C384.338 405.782 394.835 406.574 414.753 405.596L421.276 431.352C404.257 441.988 393.236 445.865 371.21 449.438Z" stroke="black" stroke-opacity="0.2" stroke-width="5"/>
<path d="M375.417 417.623C386.608 419.222 394.055 420.66 405.737 417.78" stroke="#FF9C86" stroke-width="5" stroke-linecap="round"/>
<path d="M377.726 434.418C389.352 433.333 397.235 432.956 407.596 427.61" stroke="#FF9C86" stroke-width="5" stroke-linecap="round"/>
<path d="M190.065 197.233C190.065 197.233 155.832 198.517 136.065 206.233C119.094 212.856 109.72 217.837 96.5649 230.733C88.1141 239.017 83.2761 244.639 78.0647 255.733C74.4107 263.511 72.5448 269.195 71.5647 277.733C70.3594 288.233 70.683 296.663 76.5648 305.733C81.2982 313.032 88.3194 320.459 96.5649 323.233C102.672 325.287 107.645 324.718 113.065 321.233C117.771 318.207 119.824 314.322 120.065 308.733C120.241 304.659 119.429 302.054 117.065 298.733C114.364 294.938 111.722 292.335 107.065 292.233C102.243 292.126 98.2432 294.212 96.5649 298.733C95.6136 301.295 95.296 303.311 96.5649 305.733C98.5445 309.51 103.389 310.894 107.065 308.733" stroke="#BF5D43" stroke-width="5" stroke-linecap="round"/>
<path d="M231.906 197.233C231.906 197.233 205.739 208.345 191.406 219.233C181.835 226.503 176.283 230.744 168.906 240.233C161.024 250.371 157.902 254.903 152.906 266.733C149.998 273.618 148.447 279.92 146.906 287.233C144.611 298.124 144.129 304.358 146.906 314.733C149.436 324.186 152.01 330.791 158.906 336.733C166.449 343.232 173.453 345.996 183.406 345.733C189.333 345.576 193.692 345.404 197.906 341.233C202.753 336.434 203.906 330.733 201.906 324.233C200.711 320.349 197.786 317.937 193.906 316.733C190.176 315.575 186.728 316.179 183.406 318.233C180.211 320.208 178.213 323.041 178.906 326.733C179.792 331.453 185.598 334.356 189.906 332.233" stroke="#BF5D43" stroke-width="5" stroke-linecap="round"/>
<path d="M417 265.05C445.676 239.186 459.303 224.449 473.949 197.233C498.745 215.606 507.163 227.842 513 252.958C493.674 274.581 476.41 285.083 441 291.733C433.639 281.487 429.891 273.714 417 265.05Z" fill="#FF8672"/>
<path d="M417 265.05C445.676 239.186 459.303 224.449 473.949 197.233C498.745 215.606 507.163 227.842 513 252.958C493.674 274.581 476.41 285.083 441 291.733C433.639 281.487 429.891 273.714 417 265.05Z" stroke="#FF8971" stroke-width="5"/>
<path d="M417 265.05C445.676 239.186 459.303 224.449 473.949 197.233C498.745 215.606 507.163 227.842 513 252.958C493.674 274.581 476.41 285.083 441 291.733C433.639 281.487 429.891 273.714 417 265.05Z" stroke="black" stroke-opacity="0.2" stroke-width="5"/>
<path d="M411.947 211.635C418.547 192.615 408.263 160.233 408.263 160.233C438.961 167.037 453.596 174.534 473 197.473C463.254 228.846 450.457 243.876 417.737 267.233C401.127 264.063 393.818 259.119 383 246.777C383 246.777 406.124 228.415 411.947 211.635Z" fill="#FF8973"/>
<path d="M411.947 211.635C418.547 192.615 408.263 160.233 408.263 160.233C438.961 167.037 453.596 174.534 473 197.473C463.254 228.846 450.457 243.876 417.737 267.233C401.127 264.063 393.818 259.119 383 246.777C383 246.777 406.124 228.415 411.947 211.635Z" stroke="#FF8971" stroke-width="5"/>
<path d="M411.947 211.635C418.547 192.615 408.263 160.233 408.263 160.233C438.961 167.037 453.596 174.534 473 197.473C463.254 228.846 450.457 243.876 417.737 267.233C401.127 264.063 393.818 259.119 383 246.777C383 246.777 406.124 228.415 411.947 211.635Z" stroke="black" stroke-opacity="0.2" stroke-width="5"/>
<path d="M350 235.921C365.481 205.64 363.909 188.3 350 151.233C375.894 148.524 392.82 149.495 416.327 162.206C419.586 202.881 411.201 220.343 386.904 246.604C369.673 248.763 362.048 245.399 350 235.921Z" fill="#FF8B73"/>
<path d="M350 235.921C365.481 205.64 363.909 188.3 350 151.233C375.894 148.524 392.82 149.495 416.327 162.206C419.586 202.881 411.201 220.343 386.904 246.604C369.673 248.763 362.048 245.399 350 235.921Z" stroke="#FF8971" stroke-width="5"/>
<path d="M350 235.921C365.481 205.64 363.909 188.3 350 151.233C375.894 148.524 392.82 149.495 416.327 162.206C419.586 202.881 411.201 220.343 386.904 246.604C369.673 248.763 362.048 245.399 350 235.921Z" stroke="black" stroke-opacity="0.2" stroke-width="5"/>
<path d="M373.737 196.845C376.232 178.094 360.138 150.304 360.138 150.304C360.138 150.304 333.394 149.626 316.622 152.444C298.209 155.538 288.767 160.901 270.929 166.353C247.125 173.628 234.622 181.22 210.006 185.076C198.002 186.957 179 187.751 179 187.751C179 187.751 195.491 209.307 210.006 218.243C223.959 226.833 233.789 228.054 249.715 232.152C287.779 241.947 350.347 236.966 350.347 236.966C350.347 236.966 371.355 214.753 373.737 196.845Z" fill="#FF8872"/>
<path d="M373.737 196.845C376.232 178.094 360.138 150.304 360.138 150.304C360.138 150.304 333.394 149.626 316.622 152.444C298.209 155.538 288.767 160.901 270.929 166.353C247.125 173.628 234.622 181.22 210.006 185.076C198.002 186.957 179 187.751 179 187.751C179 187.751 195.491 209.307 210.006 218.243C223.959 226.833 233.789 228.054 249.715 232.152C287.779 241.947 350.347 236.966 350.347 236.966C350.347 236.966 371.355 214.753 373.737 196.845Z" stroke="#FF8971" stroke-width="5"/>
<path d="M373.737 196.845C376.232 178.094 360.138 150.304 360.138 150.304C360.138 150.304 333.394 149.626 316.622 152.444C298.209 155.538 288.767 160.901 270.929 166.353C247.125 173.628 234.622 181.22 210.006 185.076C198.002 186.957 179 187.751 179 187.751C179 187.751 195.491 209.307 210.006 218.243C223.959 226.833 233.789 228.054 249.715 232.152C287.779 241.947 350.347 236.966 350.347 236.966C350.347 236.966 371.355 214.753 373.737 196.845Z" stroke="black" stroke-opacity="0.2" stroke-width="5"/>
<g filter="url(#filter0_d_52_1498)">
<ellipse cx="261" cy="177.733" rx="15" ry="14.5" fill="#373737"/>
<circle cx="266.5" cy="168.733" r="5.5" fill="#8D8B8E"/>
<ellipse cx="256.66" cy="178.003" rx="6.88839" ry="2.5" transform="rotate(-31.9988 256.66 178.003)" fill="white" fill-opacity="0.6"/>
<ellipse cx="266.5" cy="166.233" rx="1.5" ry="2" fill="#ECECEC"/>
</g>
<ellipse cx="5.25103" cy="2.5" rx="5.25103" ry="2.5" transform="matrix(0.84806 0.529901 0.529901 -0.84806 380 167.473)" fill="white" fill-opacity="0.6"/>
<ellipse cx="5.25103" cy="2.5" rx="5.25103" ry="2.5" transform="matrix(0.84806 0.529901 0.529901 -0.84806 407 242.473)" fill="white" fill-opacity="0.6"/>
<ellipse cx="5.25103" cy="2.5" rx="5.25103" ry="2.5" transform="matrix(0.395791 0.918341 0.918341 -0.395791 484.87 237.212)" fill="white" fill-opacity="0.6"/>
<ellipse cx="5.25103" cy="2.5" rx="5.25103" ry="2.5" transform="matrix(-0.216339 0.976318 0.976318 0.216339 510.272 328.233)" fill="white" fill-opacity="0.6"/>
<ellipse cx="5.25103" cy="2.5" rx="5.25103" ry="2.5" transform="matrix(-0.794886 0.606758 0.606758 0.794886 453.348 406.233)" fill="white" fill-opacity="0.6"/>
<ellipse cx="5.25103" cy="2.5" rx="5.25103" ry="2.5" transform="matrix(0.395791 0.918341 0.918341 -0.395791 460 298.212)" fill="white" fill-opacity="0.6"/>
<ellipse cx="5.25103" cy="2.5" rx="5.25103" ry="2.5" transform="matrix(-0.49541 0.868659 0.868659 0.49541 462.203 374.233)" fill="white" fill-opacity="0.6"/>
<defs>
<filter id="filter0_d_52_1498" x="242" y="163.233" width="38" height="37" filterUnits="userSpaceOnUse" color-interpolation-filters="sRGB">
<feFlood flood-opacity="0" result="BackgroundImageFix"/>
<feColorMatrix in="SourceAlpha" type="matrix" values="0 0 0 0 0 0 0 0 0 0 0 0 0 0 0 0 0 0 127 0" result="hardAlpha"/>
<feOffset dy="4"/>
<feGaussianBlur stdDeviation="2"/>
<feComposite in2="hardAlpha" operator="out"/>
<feColorMatrix type="matrix" values="0 0 0 0 0 0 0 0 0 0 0 0 0 0 0 0 0 0 0.25 0"/>
<feBlend mode="normal" in2="BackgroundImageFix" result="effect1_dropShadow_52_1498"/>
<feBlend mode="normal" in="SourceGraphic" in2="effect1_dropShadow_52_1498" result="shape"/>
</filter>
</defs>
</svg>
