<svg width="600" height="600" viewBox="0 0 600 600" fill="none" xmlns="http://www.w3.org/2000/svg">
<path d="M238.364 150.885C238.364 173.578 219.967 191.975 197.273 191.975C174.58 191.975 149.201 172.8 150.019 147.46C150.699 126.411 164.35 110.766 184.946 106.37C211.503 100.701 238.364 128.191 238.364 150.885Z" fill="#9D9591"/>
<path d="M238.364 150.885C238.364 173.578 219.967 191.975 197.273 191.975C174.58 191.975 149.201 172.8 150.019 147.46C150.699 126.411 164.35 110.766 184.946 106.37C211.503 100.701 238.364 128.191 238.364 150.885Z" stroke="#9D9591" stroke-width="14"/>
<path d="M238.364 150.885C238.364 173.578 219.967 191.975 197.273 191.975C174.58 191.975 149.201 172.8 150.019 147.46C150.699 126.411 164.35 110.766 184.946 106.37C211.503 100.701 238.364 128.191 238.364 150.885Z" stroke="black" stroke-opacity="0.2" stroke-width="14"/>
<ellipse cx="209.601" cy="157.048" rx="16.8501" ry="16.8501" fill="white"/>
<path d="M361.636 150.267C361.636 172.961 380.033 191.358 402.727 191.358C425.42 191.358 450.799 172.182 449.981 146.843C449.301 125.793 435.65 110.149 415.054 105.752C388.497 100.084 361.636 127.574 361.636 150.267Z" fill="#9D9591"/>
<path d="M361.636 150.267C361.636 172.961 380.033 191.358 402.727 191.358C425.42 191.358 450.799 172.182 449.981 146.843C449.301 125.793 435.65 110.149 415.054 105.752C388.497 100.084 361.636 127.574 361.636 150.267Z" stroke="#9D9591" stroke-width="14"/>
<path d="M361.636 150.267C361.636 172.961 380.033 191.358 402.727 191.358C425.42 191.358 450.799 172.182 449.981 146.843C449.301 125.793 435.65 110.149 415.054 105.752C388.497 100.084 361.636 127.574 361.636 150.267Z" stroke="black" stroke-opacity="0.2" stroke-width="14"/>
<ellipse cx="16.8501" cy="16.8501" rx="16.8501" ry="16.8501" transform="matrix(-1 0 0 1 407.249 139.581)" fill="white"/>
<path d="M200.743 367.81C199.861 381.564 200.991 395.761 204.121 402.949C239.048 483.142 356.056 477.524 388.889 414.761C411.209 372.095 374.042 308.339 371.985 304.442C371.985 304.442 227.062 300.14 225.428 304.442C223.49 309.549 202.431 341.49 200.743 367.81Z" fill="#C4BAB5"/>
<path d="M200.743 367.81C199.861 381.564 200.991 395.761 204.121 402.949C239.048 483.142 356.056 477.524 388.889 414.761C411.209 372.095 374.042 308.339 371.985 304.442C371.985 304.442 227.062 300.14 225.428 304.442C223.49 309.549 202.431 341.49 200.743 367.81Z" stroke="#C4BAB5" stroke-width="5"/>
<path d="M200.743 367.81C199.861 381.564 200.991 395.761 204.121 402.949C239.048 483.142 356.056 477.524 388.889 414.761C411.209 372.095 374.042 308.339 371.985 304.442C371.985 304.442 227.062 300.14 225.428 304.442C223.49 309.549 202.431 341.49 200.743 367.81Z" stroke="black" stroke-opacity="0.2" stroke-width="5"/>
<path d="M285.753 447.791C279.006 448.502 268.195 449.852 268.195 449.852C268.195 449.852 255.35 447.788 249.735 442.274C245.849 438.459 244.127 436.482 241.493 432.146C238.678 427.512 237.469 424.746 235.768 419.419C234.067 414.092 233.956 411.224 233.749 405.846C233.541 400.468 234.744 392.887 234.744 392.887C234.744 392.887 236.095 386.336 237.703 382.374C240.376 375.787 242.808 372.341 247.576 366.956C251.869 362.107 254.712 359.618 260.242 356.109C266.907 351.879 271.301 350.313 279.007 348.283C288.307 345.832 293.964 345.419 303.593 346C311.365 346.469 316.817 346.969 324.173 349.431C331.528 351.892 336.08 353.206 342.485 357.334C347.811 360.766 351.6 363.572 355.942 368.105C360.909 373.29 362.602 377.344 365.293 383.896C367.572 389.448 368.134 394.816 368.666 400.76C369.268 407.484 368.467 410.398 367.181 415.827C365.895 421.257 364.536 423.604 361.397 429.456C358.258 435.308 357.38 436.293 353.944 439.765C350.789 442.951 348.088 444.719 344.126 446.924C340.255 449.078 333.437 450.882 333.437 450.882C333.437 450.882 324.878 449.273 318.258 448.446C311.639 447.62 308.398 447.186 302.192 446.899C295.779 446.603 292.134 447.12 285.753 447.791Z" fill="#D7D3CB" stroke="#9D9591" stroke-width="5"/>
<path d="M179.934 256.982C179.679 255.585 179.025 251.083 179.934 244.566C180.843 238.049 179.934 239.292 186.298 220.206C204.682 165.07 236.329 117.328 300.147 117.328C363.966 117.328 395.613 165.07 413.997 220.206C420.36 239.292 419.451 238.049 420.36 244.566C421.269 251.083 422.111 255.585 421.855 256.982C421.6 258.378 421.855 265.864 420.36 269.986C418.866 274.108 416.269 281.188 404.451 291.43C375.653 316.385 338.344 330.999 300.147 330.999C261.951 330.999 224.642 316.385 195.844 291.43C186.298 280.292 185.495 274.795 182.715 269.986C179.934 265.177 179.934 256.982 179.934 256.982Z" fill="#C4BAB5"/>
<path d="M179.934 256.982C179.679 255.585 179.025 251.083 179.934 244.566C180.843 238.049 179.934 239.292 186.298 220.206C204.682 165.07 236.329 117.328 300.147 117.328C363.966 117.328 395.613 165.07 413.997 220.206C420.36 239.292 419.451 238.049 420.36 244.566C421.269 251.083 422.111 255.585 421.855 256.982C421.6 258.378 421.855 265.864 420.36 269.986C418.866 274.108 416.269 281.188 404.451 291.43C375.653 316.385 338.344 330.999 300.147 330.999C261.951 330.999 224.642 316.385 195.844 291.43C186.298 280.292 185.495 274.795 182.715 269.986C179.934 265.177 179.934 256.982 179.934 256.982Z" stroke="#C4BAB5" stroke-width="5"/>
<path d="M179.934 256.982C179.679 255.585 179.025 251.083 179.934 244.566C180.843 238.049 179.934 239.292 186.298 220.206C204.682 165.07 236.329 117.328 300.147 117.328C363.966 117.328 395.613 165.07 413.997 220.206C420.36 239.292 419.451 238.049 420.36 244.566C421.269 251.083 422.111 255.585 421.855 256.982C421.6 258.378 421.855 265.864 420.36 269.986C418.866 274.108 416.269 281.188 404.451 291.43C375.653 316.385 338.344 330.999 300.147 330.999C261.951 330.999 224.642 316.385 195.844 291.43C186.298 280.292 185.495 274.795 182.715 269.986C179.934 265.177 179.934 256.982 179.934 256.982Z" stroke="black" stroke-opacity="0.2" stroke-width="5"/>
<path fill-rule="evenodd" clip-rule="evenodd" d="M434.971 240.465C434.971 240.465 434.966 240.472 434.951 240.487C434.963 240.472 434.971 240.465 434.971 240.465ZM431.09 262.314C431.09 262.314 431.086 262.308 431.081 262.295C431.087 262.307 431.09 262.314 431.09 262.314Z" fill="#452210"/>
<path d="M304.148 262.392C304.148 263.352 301.676 264.13 298.626 264.13C295.576 264.13 293.104 263.352 293.104 262.392C293.104 261.432 295.576 260.654 298.626 260.654C301.676 260.654 304.148 261.432 304.148 262.392Z" fill="white" fill-opacity="0.5"/>
<path d="M299.196 274.911V290.617M299.196 290.617C299.196 290.617 294.076 295.322 289.901 295.698C284.881 296.15 278.161 290.617 278.161 290.617M299.196 290.617C299.196 290.617 304.304 295.456 308.49 295.698C313.18 295.969 319.252 290.617 319.252 290.617" stroke="black" stroke-width="5" stroke-linecap="round"/>
<path d="M290.892 276.436C294.148 283.616 304.408 283.436 307.41 276.146L315.013 257.688C315.924 255.476 315.927 252.989 314.82 250.869C312.195 245.842 306.576 236.792 299.486 235.24C293.239 233.872 286.172 244.614 282.808 250.521C281.485 252.843 281.462 255.641 282.566 258.075L290.892 276.436Z" fill="#403E3E"/>
<path d="M309.587 248.817C309.587 251.086 307.748 252.926 305.478 252.926C303.209 252.926 301.369 251.086 301.369 248.817C301.369 246.548 303.209 244.708 305.478 244.708C307.748 244.708 309.587 246.548 309.587 248.817Z" fill="white" fill-opacity="0.5"/>
<path d="M332.872 180.053C332.872 184.616 348.908 180.053 355.025 180.053C361.143 180.053 375.333 179.397 375.333 174.834C375.333 170.27 372.256 165.266 355.025 165.266C337.795 165.266 332.872 175.489 332.872 180.053Z" fill="#AFADAD"/>
<path d="M271.236 180.053C271.236 184.616 255.2 180.053 249.083 180.053C242.966 180.053 228.776 179.397 228.776 174.834C228.776 170.27 231.853 165.266 249.083 165.266C266.313 165.266 271.236 175.489 271.236 180.053Z" fill="#AFADAD"/>
<ellipse cx="376.702" cy="272.787" rx="17.8059" ry="11.6423" fill="#F8BBBB" fill-opacity="0.8"/>
<ellipse cx="231.515" cy="272.787" rx="17.8059" ry="11.6423" fill="#F8BBBB" fill-opacity="0.8"/>
<ellipse cx="20.7702" cy="27.8966" rx="20.7702" ry="27.8966" transform="matrix(-0.998648 0.0519817 0.0519817 0.998648 270.668 191.105)" fill="white"/>
<ellipse cx="13.8468" cy="18.5977" rx="13.8468" ry="18.5977" transform="matrix(-0.998648 0.0519817 0.0519817 0.998648 265.21 199.523)" fill="#1F1F1F" stroke="#5B595B"/>
<circle cx="256.259" cy="209.629" r="4.68087" fill="white"/>
<circle cx="256.259" cy="209.629" r="4.68087" fill="white"/>
<circle cx="256.259" cy="209.629" r="4.68087" fill="white"/>
<circle cx="256.259" cy="209.629" r="4.68087" fill="white"/>
<ellipse cx="20.7702" cy="27.8966" rx="20.7702" ry="27.8966" transform="matrix(-0.998648 0.0519817 0.0519817 0.998648 373.703 190.483)" fill="white"/>
<ellipse cx="13.8468" cy="18.5977" rx="13.8468" ry="18.5977" transform="matrix(-0.998648 0.0519817 0.0519817 0.998648 368.245 198.902)" fill="#1F1F1F" stroke="#5B595B"/>
<circle cx="359.294" cy="209.008" r="4.68087" fill="white"/>
<circle cx="359.294" cy="209.008" r="4.68087" fill="white"/>
<circle cx="359.294" cy="209.008" r="4.68087" fill="white"/>
<circle cx="359.294" cy="209.008" r="4.68087" fill="white"/>
<path d="M401.38 448.067C389.967 474.037 363.873 487.688 343.097 478.557C322.321 469.427 314.731 440.972 326.144 415.002C337.557 389.032 363.651 375.381 384.427 384.512C405.203 393.642 412.793 422.097 401.38 448.067Z" fill="#C4BAB5"/>
<path d="M401.38 448.067C389.967 474.037 363.873 487.688 343.097 478.557C322.321 469.427 314.731 440.972 326.144 415.002C337.557 389.032 363.651 375.381 384.427 384.512C405.203 393.642 412.793 422.097 401.38 448.067Z" stroke="#C4BAB5" stroke-width="5"/>
<path d="M401.38 448.067C389.967 474.037 363.873 487.688 343.097 478.557C322.321 469.427 314.731 440.972 326.144 415.002C337.557 389.032 363.651 375.381 384.427 384.512C405.203 393.642 412.793 422.097 401.38 448.067Z" stroke="black" stroke-opacity="0.2" stroke-width="5"/>
<path d="M387.219 446.025C379.61 463.339 362.214 472.439 348.363 466.352C334.513 460.265 329.453 441.296 337.062 423.982C344.67 406.669 362.067 397.569 375.917 403.655C389.768 409.742 394.828 428.712 387.219 446.025Z" fill="#F1CDD3"/>
<path d="M200.133 448.067C211.546 474.037 237.64 487.688 258.416 478.557C279.192 469.427 286.782 440.972 275.369 415.002C263.956 389.032 237.861 375.381 217.086 384.512C196.31 393.642 188.72 422.097 200.133 448.067Z" fill="#C4BAB5"/>
<path d="M200.133 448.067C211.546 474.037 237.64 487.688 258.416 478.557C279.192 469.427 286.782 440.972 275.369 415.002C263.956 389.032 237.861 375.381 217.086 384.512C196.31 393.642 188.72 422.097 200.133 448.067Z" stroke="#C4BAB5" stroke-width="5"/>
<path d="M200.133 448.067C211.546 474.037 237.64 487.688 258.416 478.557C279.192 469.427 286.782 440.972 275.369 415.002C263.956 389.032 237.861 375.381 217.086 384.512C196.31 393.642 188.72 422.097 200.133 448.067Z" stroke="black" stroke-opacity="0.2" stroke-width="5"/>
<path d="M214.294 446.026C221.902 463.339 239.299 472.44 253.149 466.353C267 460.266 272.06 441.296 264.451 423.983C256.842 406.67 239.446 397.569 225.596 403.656C211.745 409.743 206.685 428.713 214.294 446.026Z" fill="#F1CDD3"/>
<path d="M349.857 397.555C352.357 397.381 357.91 395.341 357.91 395.341C357.91 395.341 359.321 398.414 361.288 399.223C363.603 400.175 364.91 401.312 367.464 401.701C371.139 402.261 373.319 403.343 376.33 403.258C379.184 403.178 382.342 403.179 385.548 401.701C388.754 400.223 389.556 395.868 389.556 395.868C389.556 395.868 392.085 397.526 395.265 398.113C397.493 398.523 398.027 398.253 401.207 397.428C402.728 397.033 404.2 396.086 405.186 395.551C406.136 395.035 407.38 394.347 408.392 393.281C409.476 392.139 409.759 391.55 410.206 391.064C410.797 389.586 410.797 389.956 411.197 387.739C411.335 386.978 411.564 385.522 411.598 385.152C411.832 382.636 411.598 384.413 411.598 381.087C411.598 377.392 409.608 374.969 406.388 372.013C404.519 370.298 402.902 369.538 400.377 368.524C396.73 367.059 395.202 366.363 391.843 366.405C389.656 366.432 388.754 366.676 386.35 367.415C386.35 367.415 384.952 365.854 383.544 364.458C382.38 363.302 380.132 362.011 378.735 361.638C376.028 360.916 372.724 360.831 372.724 360.831C369.712 360.915 368.964 360.897 366.144 361.638C363.325 362.38 360.143 364.458 360.143 364.458L357.026 368.522L348.843 366.762C345.99 366.842 343.972 366.899 341.558 367.629C339.145 368.359 335.986 369.922 334.01 372.811C332.168 375.506 331.632 377.765 331.43 380.837C331.136 385.299 331.5 388.039 334.631 391.684C336.884 394.307 338.934 395.455 342.518 396.766C345.213 397.752 346.903 397.76 349.857 397.555Z" fill="#D7D3CB"/>
<path d="M349.857 397.555C352.357 397.381 357.91 395.341 357.91 395.341C357.91 395.341 359.321 398.414 361.288 399.223C363.603 400.175 364.91 401.312 367.464 401.701C371.139 402.261 373.319 403.343 376.33 403.258C379.184 403.178 382.342 403.179 385.548 401.701C388.754 400.223 389.556 395.868 389.556 395.868C389.556 395.868 392.085 397.526 395.265 398.113C397.493 398.523 398.027 398.253 401.207 397.428C402.728 397.033 404.2 396.086 405.186 395.551C406.136 395.035 407.38 394.347 408.392 393.281C409.476 392.139 409.759 391.55 410.206 391.064C410.797 389.586 410.797 389.956 411.197 387.739C411.335 386.978 411.564 385.522 411.598 385.152C411.832 382.636 411.598 384.413 411.598 381.087C411.598 377.392 409.608 374.969 406.388 372.013C404.519 370.298 402.902 369.538 400.377 368.524C396.73 367.059 395.202 366.363 391.843 366.405C389.656 366.432 388.754 366.676 386.35 367.415C386.35 367.415 384.952 365.854 383.544 364.458C382.38 363.302 380.132 362.011 378.735 361.638C376.028 360.916 372.724 360.831 372.724 360.831C369.712 360.915 368.964 360.897 366.144 361.638C363.325 362.38 360.143 364.458 360.143 364.458L357.026 368.522L348.843 366.762C345.99 366.842 343.972 366.899 341.558 367.629C339.145 368.359 335.986 369.922 334.01 372.811C332.168 375.506 331.632 377.765 331.43 380.837C331.136 385.299 331.5 388.039 334.631 391.684C336.884 394.307 338.934 395.455 342.518 396.766C345.213 397.752 346.903 397.76 349.857 397.555Z" stroke="#D7D3CB" stroke-width="5"/>
<path d="M349.857 397.555C352.357 397.381 357.91 395.341 357.91 395.341C357.91 395.341 359.321 398.414 361.288 399.223C363.603 400.175 364.91 401.312 367.464 401.701C371.139 402.261 373.319 403.343 376.33 403.258C379.184 403.178 382.342 403.179 385.548 401.701C388.754 400.223 389.556 395.868 389.556 395.868C389.556 395.868 392.085 397.526 395.265 398.113C397.493 398.523 398.027 398.253 401.207 397.428C402.728 397.033 404.2 396.086 405.186 395.551C406.136 395.035 407.38 394.347 408.392 393.281C409.476 392.139 409.759 391.55 410.206 391.064C410.797 389.586 410.797 389.956 411.197 387.739C411.335 386.978 411.564 385.522 411.598 385.152C411.832 382.636 411.598 384.413 411.598 381.087C411.598 377.392 409.608 374.969 406.388 372.013C404.519 370.298 402.902 369.538 400.377 368.524C396.73 367.059 395.202 366.363 391.843 366.405C389.656 366.432 388.754 366.676 386.35 367.415C386.35 367.415 384.952 365.854 383.544 364.458C382.38 363.302 380.132 362.011 378.735 361.638C376.028 360.916 372.724 360.831 372.724 360.831C369.712 360.915 368.964 360.897 366.144 361.638C363.325 362.38 360.143 364.458 360.143 364.458L357.026 368.522L348.843 366.762C345.99 366.842 343.972 366.899 341.558 367.629C339.145 368.359 335.986 369.922 334.01 372.811C332.168 375.506 331.632 377.765 331.43 380.837C331.136 385.299 331.5 388.039 334.631 391.684C336.884 394.307 338.934 395.455 342.518 396.766C345.213 397.752 346.903 397.76 349.857 397.555Z" stroke="black" stroke-opacity="0.2" stroke-width="5"/>
<path d="M206.898 394.816C209.398 394.642 214.951 392.602 214.951 392.602C214.951 392.602 216.363 395.675 218.329 396.484C220.645 397.436 221.952 398.573 224.505 398.962C228.18 399.522 230.36 400.604 233.372 400.519C236.225 400.439 239.383 400.44 242.59 398.962C245.796 397.484 246.597 393.129 246.597 393.129C246.597 393.129 249.126 394.787 252.306 395.374C254.534 395.784 255.068 395.514 258.248 394.689C259.769 394.294 261.242 393.347 262.227 392.812C263.177 392.296 264.422 391.608 265.433 390.542C266.518 389.4 266.801 388.811 267.247 388.325C267.838 386.847 267.838 387.217 268.239 385C268.376 384.239 268.605 382.783 268.64 382.413C268.874 379.897 268.64 381.674 268.64 378.348C268.64 374.653 266.649 372.23 263.43 369.274C261.561 367.559 259.943 366.799 257.418 365.785C253.771 364.32 252.243 363.624 248.885 363.666C246.697 363.693 245.796 363.937 243.391 364.676C243.391 364.676 241.994 363.115 240.586 361.719C239.421 360.563 237.173 359.272 235.777 358.899C233.07 358.177 229.765 358.092 229.765 358.092C226.753 358.176 226.005 358.158 223.186 358.899C220.366 359.641 217.184 361.719 217.184 361.719L214.068 365.783L205.884 364.023C203.031 364.103 201.014 364.16 198.6 364.89C196.186 365.62 193.027 367.183 191.051 370.072C189.209 372.767 188.674 375.026 188.472 378.098C188.178 382.56 188.542 385.3 191.673 388.945C193.925 391.568 195.975 392.715 199.559 394.027C202.255 395.013 203.945 395.021 206.898 394.816Z" fill="#D7D3CB"/>
<path d="M206.898 394.816C209.398 394.642 214.951 392.602 214.951 392.602C214.951 392.602 216.363 395.675 218.329 396.484C220.645 397.436 221.952 398.573 224.505 398.962C228.18 399.522 230.36 400.604 233.372 400.519C236.225 400.439 239.383 400.44 242.59 398.962C245.796 397.484 246.597 393.129 246.597 393.129C246.597 393.129 249.126 394.787 252.306 395.374C254.534 395.784 255.068 395.514 258.248 394.689C259.769 394.294 261.242 393.347 262.227 392.812C263.177 392.296 264.422 391.608 265.433 390.542C266.518 389.4 266.801 388.811 267.247 388.325C267.838 386.847 267.838 387.217 268.239 385C268.376 384.239 268.605 382.783 268.64 382.413C268.874 379.897 268.64 381.674 268.64 378.348C268.64 374.653 266.649 372.23 263.43 369.274C261.561 367.559 259.943 366.799 257.418 365.785C253.771 364.32 252.243 363.624 248.885 363.666C246.697 363.693 245.796 363.937 243.391 364.676C243.391 364.676 241.994 363.115 240.586 361.719C239.421 360.563 237.173 359.272 235.777 358.899C233.07 358.177 229.765 358.092 229.765 358.092C226.753 358.176 226.005 358.158 223.186 358.899C220.366 359.641 217.184 361.719 217.184 361.719L214.068 365.783L205.884 364.023C203.031 364.103 201.014 364.16 198.6 364.89C196.186 365.62 193.027 367.183 191.051 370.072C189.209 372.767 188.674 375.026 188.472 378.098C188.178 382.56 188.542 385.3 191.673 388.945C193.925 391.568 195.975 392.715 199.559 394.027C202.255 395.013 203.945 395.021 206.898 394.816Z" stroke="#D7D3CB" stroke-width="5"/>
<path d="M206.898 394.816C209.398 394.642 214.951 392.602 214.951 392.602C214.951 392.602 216.363 395.675 218.329 396.484C220.645 397.436 221.952 398.573 224.505 398.962C228.18 399.522 230.36 400.604 233.372 400.519C236.225 400.439 239.383 400.44 242.59 398.962C245.796 397.484 246.597 393.129 246.597 393.129C246.597 393.129 249.126 394.787 252.306 395.374C254.534 395.784 255.068 395.514 258.248 394.689C259.769 394.294 261.242 393.347 262.227 392.812C263.177 392.296 264.422 391.608 265.433 390.542C266.518 389.4 266.801 388.811 267.247 388.325C267.838 386.847 267.838 387.217 268.239 385C268.376 384.239 268.605 382.783 268.64 382.413C268.874 379.897 268.64 381.674 268.64 378.348C268.64 374.653 266.649 372.23 263.43 369.274C261.561 367.559 259.943 366.799 257.418 365.785C253.771 364.32 252.243 363.624 248.885 363.666C246.697 363.693 245.796 363.937 243.391 364.676C243.391 364.676 241.994 363.115 240.586 361.719C239.421 360.563 237.173 359.272 235.777 358.899C233.07 358.177 229.765 358.092 229.765 358.092C226.753 358.176 226.005 358.158 223.186 358.899C220.366 359.641 217.184 361.719 217.184 361.719L214.068 365.783L205.884 364.023C203.031 364.103 201.014 364.16 198.6 364.89C196.186 365.62 193.027 367.183 191.051 370.072C189.209 372.767 188.674 375.026 188.472 378.098C188.178 382.56 188.542 385.3 191.673 388.945C193.925 391.568 195.975 392.715 199.559 394.027C202.255 395.013 203.945 395.021 206.898 394.816Z" stroke="black" stroke-opacity="0.2" stroke-width="5"/>
</svg>
