<svg width="600" height="600" viewBox="0 0 600 600" fill="none" xmlns="http://www.w3.org/2000/svg">
<path d="M174.111 413.027C175.701 416.541 179.507 421.301 179.507 421.301C175.543 421.101 173.93 420.739 169.435 421.301C164.94 421.862 162.487 423.941 160.082 426.337C157.767 428.642 157.176 430.697 156.485 433.89C155.497 438.454 155.739 441.634 157.924 445.761C159.551 448.835 161.038 450.477 164.039 452.236C166.57 453.718 168.325 454.012 171.233 454.394C173.601 454.705 178.42 454.394 178.42 454.394C178.42 454.394 178.866 458.506 180.945 460.149C182.829 461.637 184.329 461.937 186.701 462.307C188.505 462.589 191.377 462.307 191.377 462.307C191.377 462.307 190.232 467.46 191.01 470.74C191.462 472.644 191.525 474.411 192.449 476.136C193.909 478.863 195.327 480.812 197.485 482.251C199.643 483.69 201.082 484.05 203.6 484.409C206.118 484.769 208.03 484.201 210.075 483.69C211.903 483.233 214.391 480.453 214.391 480.453C214.391 480.453 214.629 481.383 215.111 482.971C215.527 484.345 216.485 485.997 217.269 486.568C219.675 488.319 220.798 489.016 223.744 489.445C225.968 489.769 227.984 489.693 230.218 489.445C232.657 489.175 234.176 488.429 235.981 486.768C236.956 485.87 237.779 483.89 237.779 483.89C237.779 483.89 237.779 484.609 239.578 486.048C241.377 487.487 243.175 488.206 246.053 488.566C246.053 488.566 251.125 488.999 253.966 488.206C257.007 487.359 258.661 486.211 260.801 483.89C263.229 481.257 264.758 475.617 264.758 475.617C264.758 475.617 265.853 479.949 267.268 482.251L267.373 482.421C268.943 484.975 269.884 486.507 272.304 488.366C273.729 489.46 275.141 489.786 276.261 490.165C277.441 490.563 279.046 491.084 280.937 491.084C284.175 491.084 284.701 490.542 287.412 489.805C289.717 489.179 291.009 486.208 291.009 486.208C291.009 486.208 292.803 488.244 294.149 489.148C294.981 489.707 295.916 490.245 296.764 490.524C298.514 491.1 301.8 491.604 301.8 491.604C301.8 491.604 306.851 492.003 310.081 491.084C313.311 490.165 313.671 489.978 315.469 488.006C316.74 486.614 316.908 484.05 316.908 484.05C316.908 484.05 319.842 486.2 322.304 486.568C324.944 486.961 328.791 486.589 331.304 485.688C333.658 484.844 335.308 484.081 337.059 482.091C338.887 480.014 339.506 478.434 340.289 475.776C341.203 472.677 340.986 469.997 340.649 466.784C340.35 463.934 339.21 459.949 339.21 459.949C339.21 459.949 340.977 459.729 342.095 458.71C343.445 457.48 343.893 454.394 343.893 454.394C343.893 454.394 350.687 455.726 354.685 454.394C358.683 453.061 361.265 451.6 363.318 447.919C365.05 444.813 365.192 442.842 365.116 439.286C365.041 435.73 364.627 433.868 363.318 431.013C362.392 428.994 361.645 427.913 360.08 426.337C358.296 424.539 354.685 422.739 354.685 422.739V416.265C354.685 416.265 369.073 415.186 374.469 412.668C379.864 410.15 384.893 405.273 388.49 400.957C388.49 400.957 392.391 394.328 394.612 387.848C397.271 380.094 397.072 378.953 397.49 373.1C397.85 368.064 398.202 367.864 398.929 360.87C399.656 353.875 399.994 351.117 403.598 344.842C403.598 344.842 407.312 339.47 411.159 336.409C414.898 333.434 417.527 332.102 421.95 330.294C424.873 329.1 426.76 329.074 429.864 328.496C433.04 327.904 438.137 328.496 438.137 328.496V333.891C438.137 333.891 438.211 340.02 439.576 343.603C441.326 348.198 443.398 350.475 447.13 353.675C452.182 358.008 455.114 359.07 461.295 361.311L461.511 361.389C465.395 362.797 468.868 363.688 473.029 364.426C478.841 365.458 488.13 364.426 488.13 364.426L478.065 356.713L473.029 352.036C473.029 352.036 475.267 352.181 478.065 353.116C481.295 354.195 486.698 356.193 486.698 356.193L496.05 360.51L494.612 353.675C494.612 353.675 493.18 348.935 491.727 346.281C489.238 341.738 485.252 336.929 485.252 336.929C485.252 336.929 488.426 338.106 491.727 339.087C495.052 340.075 500 343.603 500 343.603C500 343.603 495.691 333.891 493.532 329.935C491.374 325.978 489.935 324.179 486.698 320.582C486.698 320.582 481.852 315.232 478.065 312.669C474.319 310.133 472.07 308.514 467.633 307.633C464.189 306.948 462.098 307.014 458.641 307.633C455.096 308.267 453.245 308.712 450.008 310.87C447.412 312.6 445.73 313.541 442.806 314.627C438.987 316.045 437.418 315.906 433.461 315.546C429.264 315.165 426.493 315.033 422.31 315.546L422.307 315.547C417.846 316.094 416.705 316.234 412.598 318.064C408.434 319.919 404.967 322.002 401.447 324.899C396.069 329.324 393.206 332.264 389.577 338.208C386.558 343.151 385.38 346.299 383.821 351.877C382.292 357.349 382.023 360.51 381.663 366.265C381.229 373.205 380.944 377.056 379.145 383.891C377.836 388.866 375.887 391.852 371.591 394.682C368.734 396.564 366.706 397.091 363.318 397.56C360.952 397.887 357.203 397.56 357.203 397.56C357.203 393.767 357.196 392.364 356.116 387.848C355.037 383.331 354.522 381.952 352.519 377.936C350.259 373.403 348.786 371.708 345.325 366.985C342.807 363.547 342.095 362.308 341.368 360.51C340.895 359.338 339.217 354.754 339.217 354.754C339.217 354.754 343.863 358.983 347.491 360.51C350.16 361.633 351.454 361.928 354.325 362.308C357.667 362.752 360.087 362.551 363.318 361.589C367.168 360.442 368.977 359.255 371.951 356.553C376.611 352.319 378.685 349.151 381.663 343.603C384.331 338.633 385.464 335.508 386.339 329.935C387.123 324.939 387.457 321.985 386.699 316.985C386.132 313.245 385.395 311.072 383.821 307.633C382.427 304.586 379.145 300.438 379.145 300.438C379.145 300.438 383.545 300.735 386.339 300.438C390.235 300.025 392.454 299.473 396.051 297.92L396.096 297.901C400.073 296.184 402.074 295.32 405.404 292.525C408.524 289.905 410.62 287.813 412.598 284.252C415.357 279.284 415.362 275.513 414.756 269.863C414.268 265.314 413.329 262.555 411.519 258.353C409.202 252.976 407.407 250.215 403.605 245.763C400.568 242.205 394.612 237.849 394.612 237.849C394.612 237.849 400.368 236.77 403.605 234.252C406.843 231.734 409.001 228.856 409.72 224.18C410.44 219.504 410.766 215.746 409.72 210.511C408.806 205.932 408.127 203.578 406.123 199.36C403.745 194.355 401.495 190.082 397.843 186.57C394.19 183.059 392.447 180.815 387.771 177.578C387.771 177.578 382.154 174.495 378.059 173.821C375.425 173.388 372.303 173.261 372.303 173.261C372.303 173.261 375.624 170.152 376.987 167.346C379.227 162.735 379.465 159.838 378.785 154.756C378.01 148.965 376.26 145.564 373.023 141.247C370.087 137.333 367.301 134.694 362.951 132.454C358.919 130.379 355.923 129.699 351.44 129.017C346.302 128.235 342.864 127.977 337.771 129.017C334.114 129.764 331.408 130.807 328.059 132.454C324.772 134.071 320.512 136.931 320.512 136.931C320.512 136.931 320.969 134.941 320.512 132.454C319.899 129.116 319.218 127.324 317.275 124.541C314.536 120.618 312.256 118.572 308.282 115.908C304.837 113.598 302.781 112.413 298.93 110.872C293.71 108.783 290.484 107.581 284.901 106.915C278.764 106.183 274.841 105.596 268.707 106.355C263.263 107.03 260.871 106.885 255.758 108.873C251.776 110.422 248.529 112.161 245.326 114.988C242.462 117.518 241.169 119.99 239.571 123.462C238.231 126.371 236.693 130.816 236.693 130.816C236.693 130.816 232.471 126.377 228.427 123.821C225.506 121.975 224.158 120.936 220.873 119.865C216.831 118.546 214.333 117.741 210.082 117.706C205.552 117.669 202.416 117.818 198.211 119.505C195.461 120.608 193.781 121.729 191.377 123.462C187.667 126.136 185.446 127.807 183.104 131.735C180.939 135.365 180.585 137.956 180.226 142.167C179.867 146.387 180.226 150.24 180.226 150.24C180.226 150.24 178.276 148.997 176.262 147.722C173.67 146.081 171.372 145.722 168.348 145.204C163.641 144.398 160.824 144.385 156.118 145.204C149.794 146.305 146.966 147.095 141.37 150.24C137.396 152.473 135.587 155.11 132.385 158.353C128.1 162.693 126.329 166.27 124.831 172.182C123.382 177.901 122.803 182.669 124.831 188.209C126.023 191.467 126.372 193.096 128.068 196.123C129.911 199.411 133.097 202.398 133.097 202.398C133.097 202.398 126.674 202.057 122.306 203.117C117.479 204.288 114.884 206.312 111.155 209.592C107.378 212.914 105.423 216.571 103.241 221.102C100.432 226.937 99.9133 230.655 100.011 237.13C100.102 243.194 100.465 247.051 103.608 252.237C105.822 255.891 107.633 257.743 111.162 260.151C115.019 262.784 121.227 264.627 121.227 264.627C121.227 264.627 118.173 268.923 116.163 272.143C113.429 276.525 111.84 279.441 110.435 284.411C108.625 290.816 108.116 294.561 109.004 301.158C109.943 308.141 111.726 312.259 116.198 317.704C120.281 322.677 122.402 324.515 128.061 327.576C133.109 330.307 137.523 331.823 143.176 332.812C148.019 333.66 153.96 331.893 153.96 331.893C153.96 331.893 152.265 335.921 151.09 338.568C149.265 342.676 147.535 349.1 148.564 353.475C150.003 359.59 151.09 361.229 155.766 365.186C159.335 368.206 161.537 369.465 165.838 371.301C170.854 373.443 179.507 374.179 179.507 374.179C179.507 374.179 175.701 380.535 174.111 384.97C172.224 390.235 171.233 393.406 171.233 398.999C171.233 404.591 171.805 407.932 174.111 413.027Z" fill="#F6C604"/>
<path d="M174.25 452.238C176.465 452.406 180.938 452.238 180.938 452.238C180.938 452.238 181.657 456.352 183.096 457.432C184.94 458.815 186.962 459.45 189.211 459.949C192.448 460.669 193.164 459.949 195.833 459.949C198.361 459.949 200.069 458.966 202.308 457.791C203.981 456.913 205.545 454.914 205.545 454.914C205.545 454.914 209.221 457.778 212.02 458.511C214.873 459.258 216.734 459.31 219.574 458.511C222.24 457.76 223.726 456.87 225.689 454.914C228.047 452.563 228.883 450.495 230.005 447.36C231.351 443.598 231.715 441.274 231.444 437.288C231.152 432.989 230.611 430.162 227.847 426.856C226.242 424.938 225.017 424.078 222.811 422.899C219.625 421.198 213.818 420.741 213.818 420.741H207.703C207.703 420.741 205.015 417.412 202.308 416.425C199.932 415.558 196.045 414.986 196.045 414.986C193.376 414.986 192.448 414.626 189.93 415.346C187.412 416.065 185.903 416.793 184.322 418.583C183.759 419.22 182.736 420.741 182.736 420.741L181.444 422.899L175.902 422.54C174.179 422.54 173.185 422.419 171.585 422.54C170.837 422.596 169.395 422.67 168.708 422.899C167.285 423.374 166.283 423.967 164.751 425.058C163.959 425.622 162.498 426.887 161.873 427.935C160.164 430.804 159.355 431.533 158.995 435.13C158.728 437.805 158.721 439.599 159.355 441.245C159.865 442.568 160.326 444.116 161.513 445.921C162.566 447.52 163.469 448.419 164.587 449.158C165.507 449.766 166.573 450.265 167.988 450.957C170.346 452.109 171.585 452.036 174.25 452.238Z" fill="#FBE27C"/>
<path d="M312.964 448.939C312.964 448.939 307.98 450.925 305.736 451.094C303.085 451.294 301.568 451.287 299.149 450.327C295.932 449.05 294.092 447.933 292.07 445.38C289.26 441.831 288.934 439.165 289.197 434.821C289.379 431.83 289.859 429.631 291.513 427.008C293.286 424.195 296.121 422.674 298.288 421.963C300.454 421.252 302.265 421.197 304.826 421.119L312.171 422.832L314.968 418.876C314.968 418.876 317.824 416.853 320.355 416.131C322.885 415.409 323.557 415.428 326.26 415.345C326.26 415.345 329.226 415.428 331.656 416.131C332.909 416.494 334.927 417.751 335.972 418.876C337.236 420.235 338.49 421.755 338.49 421.755C340.648 421.036 341.458 420.798 343.421 420.772C346.435 420.731 347.807 421.408 351.08 422.834C353.346 423.822 354.798 424.561 356.476 426.231C359.365 429.108 361.152 431.467 361.152 435.064C361.152 438.302 361.362 436.572 361.152 439.021C361.121 439.381 360.915 440.799 360.792 441.539C360.432 443.697 360.432 443.338 359.902 444.776C359.501 445.249 359.247 445.822 358.274 446.935C357.366 447.972 356.249 448.642 355.396 449.144C354.512 449.665 353.524 450.005 352.159 450.39C349.305 451.193 347.018 450.971 344.107 450.39C341.397 449.848 341.364 449.49 341.367 449.455C341.346 449.577 340.606 453.714 337.771 455.131C334.893 456.57 332.058 456.569 329.497 456.647C326.794 456.729 324.837 455.676 321.539 455.131C319.247 454.752 318.074 453.645 315.996 452.719C314.231 451.931 312.964 448.939 312.964 448.939Z" fill="#FBE27C"/>
<path d="M273.171 411.291C274.999 395.773 275.181 370.022 275.181 370.022C275.181 370.022 278.081 379.41 282.735 383.331C286.905 386.845 290.613 388.283 296.044 389.086C303.329 390.165 305.878 388.525 313.482 386.132C317.752 384.788 322.633 380.813 322.633 380.813C322.633 380.813 323.891 393.221 324.82 401.317C325.648 408.522 325.807 413.442 326.845 420.625C328.058 429.014 328.047 430.514 330.194 440.885C332.341 451.255 334.643 453.766 332.373 463.192C330.103 472.619 321.198 476.944 321.198 476.944C312.02 480.318 307.152 479.322 297.974 482.696C288.796 486.069 284.706 483.595 277.773 479.717C271.245 476.066 272.021 474.447 270.864 467.143C267.689 447.088 270.617 432.977 273.171 411.291Z" fill="#FFD426"/>
<path d="M285.074 486.842C287.224 486.348 291.008 483.331 291.008 483.331C291.008 483.331 293.993 485.722 295.684 486.568C297.843 487.647 298.562 488.007 300.978 488.374C304.218 488.865 304.947 488.486 307.555 488.007C310.026 487.553 311.051 486.291 313.055 484.885C314.552 483.834 315.767 481.844 315.767 481.844C315.767 481.844 319.809 483.634 322.658 483.758C325.564 483.885 327.39 483.596 330.04 482.404C332.528 481.283 333.84 480.255 335.45 478.231C337.386 475.798 337.879 473.88 338.483 470.998C339.208 467.54 339.198 465.488 338.308 462.128C337.348 458.504 336.376 456.184 333.156 453.853C331.287 452.501 329.955 451.985 327.614 451.373C324.234 450.49 318.488 451.141 318.488 451.141L312.512 452.238C312.512 452.238 309.363 449.873 306.562 449.514C304.105 449.2 300.01 449.446 300.01 449.446C297.402 449.924 296.495 450.091 294.147 451.157C291.8 452.224 289.326 454.586 289.326 454.586L287.192 458.793L279.823 458.238C277.352 458.691 275.605 459.012 273.609 460.014C271.613 461.016 269.087 462.894 267.778 465.854C266.557 468.613 266.412 470.793 266.672 473.687C267.05 477.89 267.755 480.399 270.996 483.385C273.327 485.534 275.274 486.333 278.577 487.081C281.062 487.643 282.533 487.426 285.074 486.842Z" fill="#FBE27C"/>
<path d="M202.231 392.324C203.107 380.416 202.231 361.749 202.231 361.749C202.231 361.749 211.159 379.34 221.655 384.41C226.503 386.753 229.598 387.573 234.964 388.008C242.653 388.631 258.276 381.892 258.276 381.892C258.276 381.892 257.236 407.932 258.276 421.82C259.282 435.268 259.784 440.708 259.784 454.194C259.784 462.827 260.147 469.271 254.388 475.776C250.206 480.501 244.627 480.002 239.211 480.093C234.478 480.172 230.038 481.129 224.532 480.812C220.665 480.59 217.269 477.935 214.031 477.575C206.338 477.87 199.954 480.899 196.835 472.539C192.809 461.748 195.617 457.431 195.617 444.842C195.617 440.333 197.276 432.542 198.537 426.625L198.564 426.496C201.378 413.282 201.239 405.798 202.231 392.324Z" fill="#FFD426"/>
<path d="M208.275 481.172C210.478 481.052 215.109 477.935 215.109 477.935C215.109 477.935 215.829 480.093 216.908 481.742C218.081 483.535 219.066 484.769 221.224 485.489C224.371 486.537 225.483 486.421 228.12 486.144C230.937 485.848 231.6 485.453 233.814 484.409C235.469 483.629 237.771 480.812 237.771 480.812C237.771 480.812 238.361 481.859 239.66 482.971C240.922 484.049 242.514 485.189 243.886 485.489C245.304 485.798 247.474 486.006 249.282 485.848C251.096 485.69 252.908 485.491 254.318 485.129C256.961 484.449 258.01 483.119 259.713 481.172C262.231 478.294 262.292 477.382 263.31 474.338C264.427 471 264.558 468.771 264.253 465.309C263.925 461.574 263.363 459.122 260.588 456.277C258.977 454.625 257.752 453.89 255.55 452.888C252.37 451.441 246.597 451.102 246.597 451.102L240.522 451.164C240.522 451.164 237.823 448.297 235.124 447.466C232.756 446.737 228.679 446.281 228.679 446.281C226.027 446.308 225.106 446.317 222.61 446.968C220.115 447.618 219.018 448.007 217.276 449.524C215.886 450.733 214.455 453.305 214.455 453.305C214.455 453.305 210.067 451.291 207.556 451.316C205.044 451.342 203.578 451.389 201.44 452.036C199.303 452.683 197.839 453.659 196.045 456.352C194.372 458.863 193.527 461.576 193.527 464.481C193.527 468.582 193.815 471.136 195.685 474.775C196.387 476.14 197.095 477.129 197.843 477.935C198.63 478.782 199.478 479.427 201.081 480.093C203.433 481.071 205.672 481.314 208.275 481.172Z" fill="#FBE27C"/>
<path d="M458.705 310.873C455.537 311.437 455.036 311.189 451.799 313.188C451.799 313.188 446.748 315.468 444.605 318.584C442.407 321.779 441.422 324.448 441.008 328.296C440.807 330.157 441.007 334.771 441.007 334.771C441.007 334.771 441.19 339.683 442.806 342.684C445.324 347.361 445.945 348.474 449.281 351.317C453.849 355.211 456.213 356.114 461.871 358.152C465.343 359.403 467.467 360.326 471.223 361.03C474.822 361.704 480.571 361.749 480.571 361.749L472.662 354.163L469.065 349.879C469.065 349.879 472.925 350.619 475.54 350.958C478.653 351.361 482.734 352.802 482.734 352.802L493.552 356.956C493.552 356.956 492.976 352.966 492.086 350.565C491.028 347.713 489.587 346.121 488.288 343.764C486.063 339.728 481.295 334.771 481.295 334.771C481.295 334.771 485.337 334.978 488.288 335.85C491.261 336.728 496.043 339.087 496.043 339.087C496.043 339.087 493.165 332.253 489.928 328.296C486.691 324.339 486.68 324.364 483.786 321.169C483.786 321.169 480.004 317.624 476.619 315.347C473.27 313.094 471.26 311.656 467.294 310.873C464.215 310.265 461.796 310.323 458.705 310.873Z" fill="#FE891F"/>
<path d="M167.702 366.689C172.555 368.696 176.076 369.49 181.298 370.022C186.271 370.528 189.77 369.35 194.451 367.592C198.47 366.084 203.008 361.83 203.008 361.83C203.008 361.83 204.077 366.24 205.431 368.772C207.959 373.503 209.841 376.606 214.084 379.879C218.642 383.395 222.61 385.832 228.276 386.82C236.237 388.209 239.248 387.182 246.275 385.779C253.464 384.344 257.33 382.329 263.582 378.49C268.749 375.318 275.696 368.772 275.696 368.772C275.696 368.772 275.901 371.57 276.389 373.284C277.842 378.394 280.407 380.922 284.696 384.044C290.136 388.004 294.594 388.836 301.311 388.556C305.471 388.383 308.098 387.816 312.041 386.473C315.537 385.283 319.804 383.817 322.771 381.614L323.154 381.33C327.273 378.273 328.013 377.724 331.078 373.284C334.194 368.772 334.54 367.384 335.239 363.218C335.982 358.793 336.692 349.519 336.692 349.519C336.692 349.519 340.469 352.066 343.635 354.148C346.512 356.041 349.988 357.909 352.628 358.199C355.997 358.571 357.684 359.128 360.793 358.199C364.498 357.093 365.12 356.591 369.294 354.1C372.024 352.471 374.795 348.977 376.26 346.641C377.592 344.518 380.466 341.136 381.296 338.368C383.455 331.173 382.972 333.674 383.814 328.296C384.569 323.475 383.659 318.255 382.375 313.548C381.296 309.591 380.293 308.593 378.778 305.274C377.436 302.334 372.663 297.465 372.663 297.465H381.667C381.667 297.465 392.458 295.666 398.234 292.77C403.262 290.249 407.339 287.028 409.365 281.772C411.542 276.122 411.713 274.495 411.163 268.463C410.542 261.647 406.734 255.785 402.908 250.117C398.513 243.607 386.806 236.377 386.806 236.377C386.806 236.377 397.134 236.377 402.53 230.333C407.221 225.079 407.073 217.553 406.566 210.524C406.022 202.957 397.494 191.485 397.494 191.485L390.66 184.291L387.422 181.773L382.746 178.895C382.746 178.895 377.335 177.027 373.394 176.377C370.859 175.959 367.084 175.289 367.084 175.289C367.084 175.289 370.272 171.749 371.583 169.042C373.739 164.592 375.476 160.899 374.822 155.995C374.076 150.407 373.631 147.809 370.516 143.644C367.691 139.867 363.551 137.535 359.365 135.374C355.485 133.371 351.321 133.255 347.008 132.597C342.063 131.843 339.101 131.941 334.2 132.944C330.681 133.665 328.77 134.478 325.547 136.068C322.384 137.628 317.932 140.927 317.932 140.927C317.932 140.927 317.679 137.774 317.24 135.374C316.65 132.152 316.764 130.334 314.761 127.457C312.126 123.671 309.931 121.698 306.108 119.127C302.792 116.897 300.841 115.635 297.135 114.147C292.112 112.132 289.008 110.972 283.636 110.33C277.73 109.623 273.299 109.997 267.396 110.731C262.157 111.381 259.855 111.589 254.935 113.507C251.103 115.001 248.325 116.679 245.243 119.408C242.487 121.848 241.243 123.694 239.705 127.044C238.416 129.852 237.628 134.68 237.628 134.68C237.628 134.68 232.52 129.51 228.629 127.044C225.818 125.263 224.521 124.26 221.36 123.226C217.47 121.953 215.067 121.177 210.976 121.143C206.617 121.107 203.599 121.252 199.553 122.879C196.907 123.943 195.29 125.025 192.977 126.697C189.406 129.277 187.269 130.889 185.015 134.68C182.933 138.182 182.591 140.682 182.246 144.745C181.9 148.817 183.285 155.158 183.285 155.158C183.285 155.158 180.723 153.265 178.785 152.034C176.29 150.451 174.426 149.41 171.516 148.91C166.986 148.132 163.583 148.12 159.055 148.91C152.97 149.973 150.248 150.735 144.863 153.77C141.04 155.925 138.783 157.578 135.701 160.708C131.577 164.895 129.873 169.234 128.432 174.938C127.037 180.457 126.99 183.827 128.941 189.173C130.088 192.317 130.424 193.888 132.056 196.809C133.83 199.981 137.595 204.792 137.595 204.792C137.595 204.792 130.722 203.769 126.518 204.792C121.874 205.922 119.376 207.527 115.788 210.692C112.154 213.898 109.892 216.385 107.793 220.758C105.09 226.388 103.511 230.129 103.605 236.377C103.693 242.228 104.768 245.95 107.793 250.955C109.923 254.48 112.392 256.267 115.788 258.591C119.499 261.131 126.518 262.756 126.518 262.756C126.518 262.756 122.567 266.938 120.634 270.045C118.003 274.273 117.14 277.05 115.788 281.846C114.046 288.026 112.382 293.253 113.236 299.618C114.14 306.357 115.855 311.409 120.159 316.664C124.088 321.461 127.41 322.506 133.108 324.937C138.171 327.097 141.154 327.748 146.594 328.703C151.254 329.521 158.277 328.703 158.277 328.703C158.277 328.703 156.476 333.466 155.345 336.02C153.59 339.984 151.895 344.842 152.881 350.598C153.711 355.438 153.601 355.274 156.931 360.095C159.178 363.347 163.608 364.997 167.702 366.689Z" fill="#FF8A19"/>
<path d="M185.62 326.125C194.801 332.734 201.414 335.163 211.929 339.334C218.868 342.087 222.748 342.642 229.935 344.662C245.351 348.995 254.589 349.955 270.602 349.904C281.603 349.869 287.875 349.502 298.65 347.28C313.448 344.227 322.05 341.734 334.93 333.833L335.12 333.716C343.771 328.41 348.617 325.438 355.365 315.77C362.163 306.033 362.867 302.073 365.346 291.632C367.824 281.191 367.577 279.624 367.789 271.839C368.069 261.541 366.342 255.825 365.172 245.59C364.496 239.687 357.895 226.912 357.895 226.912C357.895 226.912 368.037 219.546 370.084 212.837C372.338 205.447 372.91 202.395 371.79 194.486C371.112 189.696 370.861 188.618 369.066 183.333C367.236 177.944 366.65 176.431 362.591 172.901C359.005 169.782 355.401 167.259 350.721 166.427C346.761 165.722 343.164 165.692 339.21 166.427C335.256 167.161 333.221 167.293 327.53 169.833C321.839 172.372 323.641 171.495 319.578 174.179C319.578 174.179 316.406 171.388 314.166 169.883C309.785 166.939 300.835 164.178 300.835 164.178C295.915 163.214 294.235 162.669 289.315 161.704C289.315 161.704 293.618 158.146 293.604 154.494L293.569 145.141C293.569 145.141 285.935 146.92 282.076 149.861C280.022 151.426 277.417 154.555 277.417 154.555L276.319 149.343C275.418 144.846 268.731 140.379 268.731 140.379C265.125 138.055 264.98 138.521 261.883 136.988C261.883 136.988 261.193 144.934 261.932 149.937C262.505 153.813 264.487 159.64 264.487 159.64C264.487 159.64 247.83 157.624 237.509 159.742C228.973 161.493 216.676 167.734 216.676 167.734C216.676 167.734 211.552 161.449 207.197 159.742C199.187 156.602 196.129 156.12 189.571 156.715C181.929 157.408 177.932 158.664 172.045 163.586C166.72 168.038 163.995 172.893 161.874 179.736C159.129 188.592 160.655 193.822 162.852 202.83C164.684 210.341 172.258 220.06 172.258 220.06C172.258 220.06 165.456 233.488 163 242.038C159.66 253.669 157.86 260.532 158.08 272.632C158.282 283.762 158.606 290.54 163.222 300.67C168.712 312.719 174.875 318.388 185.62 326.125Z" fill="#FAD821"/>
<path d="M351.748 207.773C344.406 198.662 344.873 197.989 333.554 185.195C330.127 179.762 339.93 179.73 347.441 180.538C354.552 181.302 360.781 187.399 360.496 196.774C360.234 205.429 356.778 214.826 351.748 207.773Z" fill="#EB8F00"/>
<path d="M202.16 180.89C193.887 189.163 193.168 188.772 181.657 201.393C176.621 205.382 175.542 195.638 175.542 188.084C175.542 180.932 180.938 174.087 190.29 173.368C198.923 172.704 208.635 175.135 202.16 180.89Z" fill="#EB8F00"/>
<path d="M334.534 309.951C334.534 328.413 302.332 349.166 265.035 349.166C227.738 349.166 195.327 324.816 195.327 306.354C195.327 287.892 227.738 282.309 265.035 282.309C302.332 282.309 334.534 291.489 334.534 309.951Z" fill="#FDEEAA"/>
<path d="M274.823 297.525C274.823 301.101 270.17 306.354 265.343 306.354C260.517 306.354 255.398 301.101 255.398 297.525C255.398 293.949 260.517 293.404 265.343 293.404C270.17 293.404 274.823 293.949 274.823 297.525Z" fill="#FF8A19"/>
<path d="M274.16 319.466C270.563 317.307 280.275 324.471 287.11 322.343C293.944 320.216 293.225 309.394 293.225 313.351" stroke="#FF8A16" stroke-width="2"/>
<ellipse cx="198.275" cy="298.479" rx="17.6952" ry="7.94878" fill="#FACFE3"/>
<ellipse cx="331.552" cy="298.776" rx="17.6952" ry="7.94878" transform="rotate(-2.27638 331.552 298.776)" fill="#FACFE3"/>
<path d="M237.808 270.69C237.756 276.054 233.366 280.359 228.002 280.307C222.638 280.255 218.333 275.864 218.385 270.501C218.437 265.137 222.828 260.831 228.191 260.884C233.555 260.936 237.86 265.326 237.808 270.69Z" fill="#482811"/>
<ellipse cx="305.492" cy="272.994" rx="9.71214" ry="9.71214" transform="rotate(0.558172 305.492 272.994)" fill="#482811"/>
<path d="M234.502 267.536C234.485 269.324 233.022 270.759 231.234 270.742C229.446 270.724 228.011 269.261 228.028 267.473C228.045 265.685 229.509 264.25 231.297 264.267C233.085 264.285 234.52 265.748 234.502 267.536Z" fill="white"/>
<path d="M312.263 270.085C312.245 271.873 310.782 273.309 308.994 273.291C307.206 273.274 305.771 271.81 305.788 270.022C305.806 268.235 307.269 266.799 309.057 266.817C310.845 266.834 312.28 268.298 312.263 270.085Z" fill="white"/>
</svg>
