<svg width="600" height="600" viewBox="0 0 600 600" fill="none" xmlns="http://www.w3.org/2000/svg">
<path d="M437.522 436.118C418.76 430.852 327 324.331 327 324.331L360.824 315.306C360.824 315.306 466.172 417.567 464.427 428.939C462.682 440.312 456.284 441.383 437.522 436.118Z" fill="#0084B5"/>
<path d="M405.45 422.545C389.736 416.644 308 308.104 308 308.104L335.208 300.475C335.208 300.475 427.837 405.323 427.093 416.477C426.348 427.63 421.163 428.445 405.45 422.545Z" fill="#F02838"/>
<path d="M398.124 331.091C365.867 320.309 369.312 237.25 251.909 206.841C235.936 198.914 215.931 170.912 206.882 185.066C191.688 208.832 185.369 224.517 190.54 256.02C195.133 283.999 205.504 306.31 223.872 328.173C250.016 359.292 278.046 381.204 310.57 385.223C354.158 390.61 464.554 353.295 398.124 331.091Z" fill="#E51F2E"/>
<path d="M398.124 331.091C365.867 320.309 369.312 237.25 251.909 206.841C235.936 198.914 215.931 170.912 206.882 185.066C191.688 208.832 185.369 224.517 190.54 256.02C195.133 283.999 205.504 306.31 223.872 328.173C250.016 359.292 278.046 381.204 310.57 385.223C354.158 390.61 464.554 353.295 398.124 331.091Z" stroke="#E51F2E" stroke-width="5"/>
<path d="M398.124 331.091C365.867 320.309 369.312 237.25 251.909 206.841C235.936 198.914 215.931 170.912 206.882 185.066C191.688 208.832 185.369 224.517 190.54 256.02C195.133 283.999 205.504 306.31 223.872 328.173C250.016 359.292 278.046 381.204 310.57 385.223C354.158 390.61 464.554 353.295 398.124 331.091Z" stroke="black" stroke-opacity="0.2" stroke-width="5"/>
<path fill-rule="evenodd" clip-rule="evenodd" d="M393.164 320.041C408.258 316.305 420.075 308.709 425.048 299.634C430.216 290.202 426.594 290.603 417.277 291.634C406.38 292.84 387.694 294.908 366.173 283.114C326.59 255.894 261.361 226.467 243.053 259.877C242.364 261.134 241.929 262.348 241.729 263.524C230.742 284.008 253.995 318.2 293.804 340.015C333.726 361.892 379.741 348.949 390.955 328.485C393.366 324.086 394.02 321.542 393.164 320.041Z" fill="#CD1622"/>
<path d="M393.164 320.041L392.564 317.614L389.356 318.408L390.993 321.279L393.164 320.041ZM417.277 291.634L417.552 294.118L417.552 294.118L417.277 291.634ZM366.173 283.114L364.757 285.174L364.861 285.246L364.972 285.307L366.173 283.114ZM241.729 263.524L243.932 264.706L244.125 264.346L244.194 263.943L241.729 263.524ZM422.855 298.433C418.354 306.647 407.313 313.963 392.564 317.614L393.765 322.468C409.203 318.646 421.795 310.771 427.24 300.835L422.855 298.433ZM417.552 294.118C419.923 293.856 421.771 293.654 423.205 293.622C424.782 293.586 425.212 293.793 425.207 293.79C425.094 293.714 424.967 293.556 424.919 293.393C424.892 293.299 424.946 293.385 424.868 293.793C424.705 294.655 424.13 296.106 422.855 298.433L427.24 300.835C428.55 298.446 429.46 296.41 429.78 294.726C429.945 293.861 429.99 292.91 429.715 291.978C429.42 290.978 428.807 290.181 427.982 289.63C426.553 288.677 424.654 288.588 423.093 288.623C421.389 288.661 419.29 288.896 417.002 289.149L417.552 294.118ZM364.972 285.307C387.208 297.492 406.562 295.335 417.552 294.118L417.002 289.149C406.199 290.344 388.181 292.323 367.375 280.922L364.972 285.307ZM245.245 261.078C249.383 253.528 256.146 249.468 264.849 248.053C273.651 246.621 284.358 247.923 295.962 251.167C319.147 257.65 345.096 271.654 364.757 285.174L367.59 281.054C347.667 267.354 321.21 253.035 297.308 246.352C285.367 243.013 273.861 241.521 264.046 243.118C254.133 244.73 245.877 249.521 240.861 258.675L245.245 261.078ZM244.194 263.943C244.34 263.08 244.669 262.129 245.245 261.078L240.861 258.675C240.058 260.139 239.518 261.615 239.265 263.105L244.194 263.943ZM295.005 337.823C275.375 327.065 259.936 313.31 250.785 299.864C241.55 286.295 239.107 273.702 243.932 264.706L239.526 262.342C233.364 273.831 237.054 288.576 246.651 302.677C256.332 316.902 272.424 331.15 292.603 342.208L295.005 337.823ZM388.763 327.284C383.678 336.563 370.257 344.667 352.724 347.664C335.333 350.637 314.428 348.466 295.005 337.823L292.603 342.208C313.102 353.441 335.166 355.738 353.566 352.592C371.824 349.471 387.018 340.871 393.148 329.686L388.763 327.284ZM390.993 321.279C390.954 321.212 391.15 321.454 390.865 322.546C390.585 323.62 389.936 325.143 388.763 327.284L393.148 329.686C394.385 327.428 395.268 325.479 395.704 323.806C396.135 322.151 396.23 320.371 395.336 318.803L390.993 321.279Z" fill="#CD1622"/>
<path d="M393.164 320.041L392.564 317.614L389.356 318.408L390.993 321.279L393.164 320.041ZM417.277 291.634L417.552 294.118L417.552 294.118L417.277 291.634ZM366.173 283.114L364.757 285.174L364.861 285.246L364.972 285.307L366.173 283.114ZM241.729 263.524L243.932 264.706L244.125 264.346L244.194 263.943L241.729 263.524ZM422.855 298.433C418.354 306.647 407.313 313.963 392.564 317.614L393.765 322.468C409.203 318.646 421.795 310.771 427.24 300.835L422.855 298.433ZM417.552 294.118C419.923 293.856 421.771 293.654 423.205 293.622C424.782 293.586 425.212 293.793 425.207 293.79C425.094 293.714 424.967 293.556 424.919 293.393C424.892 293.299 424.946 293.385 424.868 293.793C424.705 294.655 424.13 296.106 422.855 298.433L427.24 300.835C428.55 298.446 429.46 296.41 429.78 294.726C429.945 293.861 429.99 292.91 429.715 291.978C429.42 290.978 428.807 290.181 427.982 289.63C426.553 288.677 424.654 288.588 423.093 288.623C421.389 288.661 419.29 288.896 417.002 289.149L417.552 294.118ZM364.972 285.307C387.208 297.492 406.562 295.335 417.552 294.118L417.002 289.149C406.199 290.344 388.181 292.323 367.375 280.922L364.972 285.307ZM245.245 261.078C249.383 253.528 256.146 249.468 264.849 248.053C273.651 246.621 284.358 247.923 295.962 251.167C319.147 257.65 345.096 271.654 364.757 285.174L367.59 281.054C347.667 267.354 321.21 253.035 297.308 246.352C285.367 243.013 273.861 241.521 264.046 243.118C254.133 244.73 245.877 249.521 240.861 258.675L245.245 261.078ZM244.194 263.943C244.34 263.08 244.669 262.129 245.245 261.078L240.861 258.675C240.058 260.139 239.518 261.615 239.265 263.105L244.194 263.943ZM295.005 337.823C275.375 327.065 259.936 313.31 250.785 299.864C241.55 286.295 239.107 273.702 243.932 264.706L239.526 262.342C233.364 273.831 237.054 288.576 246.651 302.677C256.332 316.902 272.424 331.15 292.603 342.208L295.005 337.823ZM388.763 327.284C383.678 336.563 370.257 344.667 352.724 347.664C335.333 350.637 314.428 348.466 295.005 337.823L292.603 342.208C313.102 353.441 335.166 355.738 353.566 352.592C371.824 349.471 387.018 340.871 393.148 329.686L388.763 327.284ZM390.993 321.279C390.954 321.212 391.15 321.454 390.865 322.546C390.585 323.62 389.936 325.143 388.763 327.284L393.148 329.686C394.385 327.428 395.268 325.479 395.704 323.806C396.135 322.151 396.23 320.371 395.336 318.803L390.993 321.279Z" fill="black" fill-opacity="0.2"/>
<path fill-rule="evenodd" clip-rule="evenodd" d="M350.422 313.34C358.613 311.313 365.024 307.191 367.723 302.267C370.528 297.148 368.562 297.366 363.506 297.925C357.593 298.58 347.454 299.702 335.776 293.302C314.296 278.532 278.901 262.564 268.966 280.693C268.592 281.375 268.356 282.035 268.248 282.673C262.287 293.789 274.905 312.342 296.506 324.179C318.169 336.05 343.138 329.027 349.224 317.922C350.532 315.535 350.887 314.154 350.422 313.34Z" fill="#FEE014"/>
<path fill-rule="evenodd" clip-rule="evenodd" d="M331.803 310.953C336.871 309.698 340.838 307.148 342.508 304.101C344.243 300.934 343.027 301.069 339.899 301.415C336.24 301.82 329.967 302.514 322.741 298.555C309.451 289.416 287.551 279.536 281.404 290.753C281.173 291.175 281.027 291.583 280.96 291.978C277.272 298.856 285.079 310.335 298.444 317.659C311.847 325.004 327.297 320.659 331.062 313.788C331.871 312.311 332.091 311.457 331.803 310.953Z" fill="#0084B5"/>
<ellipse cx="224" cy="196" rx="58" ry="60" fill="#E71E2E"/>
<ellipse cx="224" cy="196" rx="58" ry="60" stroke="#E51F2E" stroke-width="5"/>
<ellipse cx="224" cy="196" rx="58" ry="60" stroke="black" stroke-opacity="0.2" stroke-width="5"/>
<ellipse cx="221" cy="180.556" rx="20" ry="19.5556" fill="white"/>
<ellipse cx="212.111" cy="180.817" rx="11.1111" ry="10.8642" fill="#2421D0"/>
<ellipse cx="209" cy="180.889" rx="5" ry="4.88889" fill="black"/>
<ellipse cx="222.5" cy="176" rx="8.5" ry="5" fill="white" fill-opacity="0.6"/>
<path d="M187.255 230.255C182.592 235.149 177.203 233.608 171.183 236.684C161.902 241.426 159.599 254.076 149.372 252.067C141.22 250.465 137.653 244.44 134.678 236.684C130.771 226.499 134.26 218.822 139.27 209.132C144.865 198.309 157.32 184.808 169.5 184.5C176.163 184.331 174.696 188.144 178.301 193.749C182 199.5 190.5 207.5 192.995 215.561C194.817 221.446 191.505 225.795 187.255 230.255Z" fill="#FEE3C8"/>
<path d="M183.115 216.926C180.124 218.901 179.695 222.233 177.197 225.256C173.346 229.917 169.627 230.194 166.364 235.59C164 239.5 162.332 243.153 165 246C168.503 249.738 177.328 249.154 182.406 247.679C188.077 246.031 196.248 240.818 198.813 233.839C200.216 230.022 198.319 230.312 196.682 227.415C195.002 224.443 195.392 218.115 192.5 215.5C190.388 213.591 185.841 215.126 183.115 216.926Z" fill="#3D3D3D"/>
<path d="M298.607 380.182C297.976 388.466 300.965 393.239 305.454 395.3C310.227 397.491 314.742 395.13 316.667 387.269C318.356 380.373 316.53 371.256 310.365 368.715C304.131 366.146 299.17 372.78 298.607 380.182Z" fill="#FF9900"/>
<path d="M275.785 379.344C275.598 387.478 278.411 392.31 282.412 394.537C286.667 396.904 290.498 394.776 291.832 387.115C293.003 380.395 291.013 371.334 285.53 368.561C279.986 365.758 275.953 372.076 275.785 379.344Z" fill="#FF9900"/>
<path d="M287.919 380.057C287.469 388.279 290.386 393.077 294.676 395.205C299.238 397.468 303.474 395.202 305.158 387.423C306.635 380.598 304.743 371.505 298.856 368.869C292.903 366.204 288.321 372.709 287.919 380.057Z" fill="#FB8A06"/>
</svg>
