<svg width="600" height="600" viewBox="0 0 600 600" fill="none" xmlns="http://www.w3.org/2000/svg">
<path d="M408.304 204.82C402.731 208.493 392.807 212.028 392.807 212.028L395.352 221.398L400.736 241.219C400.736 241.219 404.662 245.79 406.502 249.147C408.663 253.091 409.523 254.841 410.466 259.238C411.883 265.843 411.435 270.572 410.466 277.257C409.628 283.035 408.67 286.251 406.502 291.672C402.978 300.482 400.563 304.467 394.609 311.854C390.735 316.66 387.231 318.518 382.356 322.305C375.595 327.557 362.895 333.116 362.895 333.116C362.895 333.116 373.392 345.378 377.311 354.739C380.5 362.359 381.615 367.054 382.356 375.281C382.798 380.187 382.356 387.895 382.356 387.895C382.356 387.895 388.447 389.35 391.726 391.498C394.889 393.571 396.212 395.392 398.573 398.346C400.865 401.212 402.06 402.952 403.619 406.274C405.188 409.619 406.502 415.284 406.502 415.284C406.502 415.284 409.763 409.179 413.349 406.995C415.403 405.744 417.793 405.274 420.196 405.193C422.38 405.119 423.503 405.689 425.304 406.925C426.288 407.601 426.683 408.436 426.683 408.436C426.683 408.436 429.952 408.857 431.729 409.878C434.15 411.27 435.156 412.789 436.413 415.284C437.275 416.993 437.134 418.888 437.134 418.888C437.134 418.888 439.203 422.066 439.657 423.572C440.429 426.133 439.657 429.339 439.657 429.339C439.657 429.339 435.83 440.233 431.729 446.276C428.814 450.571 427.404 453.047 424.881 455.646C420.925 459.723 418.468 462.915 413.349 465.377C408.822 467.554 405.383 469.021 400.375 468.62C398.229 468.449 397.029 468.167 394.969 467.539C388.584 465.593 386.211 461.78 380.194 458.89C375.38 456.578 372.522 455.211 367.22 454.565C364.007 454.174 358.931 454.565 358.931 454.565C358.931 454.565 354.246 461.052 347.399 467.179C345.194 469.152 341.344 472.021 338.389 471.864C336.249 471.75 335.967 471.772 334.065 470.783C333.058 470.259 331.903 468.26 331.903 468.26C331.903 468.26 328.114 468.599 326.497 467.179C325.408 466.223 324.695 463.935 324.695 463.935C324.695 463.935 321.619 463.762 320.37 462.494C319.307 461.414 318.929 458.89 318.929 458.89C318.929 458.89 312.598 460.313 308.478 460.332C304.218 460.351 297.666 458.89 297.666 458.89C297.666 458.89 296.943 461.348 295.864 462.494C294.57 463.869 291.54 464.656 291.54 464.656C291.54 464.656 291.022 466.396 290.098 467.179C289.04 468.075 287.878 468.543 286.494 468.62C285.64 468.668 284.332 468.26 284.332 468.26C284.332 468.26 282.589 470.52 280.007 471.143C278.092 471.605 275.964 472.1 274.241 471.143C270.998 469.341 269.043 467.553 266.313 464.656C262.481 460.59 256.943 453.845 256.943 453.845C256.943 453.845 250.48 453.654 246.492 454.565C241.7 455.661 240 456.544 235.68 458.89C230.432 461.741 227.72 465.869 221.986 467.539C216.851 469.035 213.834 468.86 208.652 467.539C202.406 465.948 199.642 463.214 195.318 458.89C188.746 452.319 185.803 448.45 181.623 440.15C179.037 435.015 177.345 432.093 176.217 426.455C175.857 424.654 175.663 422.788 176.938 421.41C177.709 420.577 179.1 420.329 179.1 420.329C179.1 420.329 179.45 415.835 180.902 413.482C182.052 411.618 182.933 410.546 184.866 409.518C186.767 408.507 190.272 408.436 190.272 408.436C190.272 408.436 191.74 406.283 193.155 405.553C194.431 404.896 195.324 404.853 196.759 404.833C199.79 404.789 202.165 406.274 203.967 407.716C206.613 409.833 209.733 414.203 209.733 414.203L214.778 404.833C216.748 401.173 220.905 396.183 220.905 396.183C220.905 396.183 216.43 395.101 213.697 394.021C208.175 391.839 205.292 389.885 200.723 386.093C195.813 382.017 193.156 379.335 189.912 373.84C186.788 368.549 186.436 364.897 184.506 359.064C182.113 351.833 181.582 347.525 179.1 340.324C176.426 332.566 175.57 327.792 171.172 320.863C167.589 315.218 160 307.89 160 307.89C160 307.89 172.268 303.086 180.542 302.484C188.014 301.94 192.435 302.237 199.642 304.286C208.794 306.887 213.32 310.434 220.905 316.178C227.807 321.406 231.481 324.813 236.762 331.675C240.501 336.534 245.05 345.009 245.05 345.009C245.05 345.009 247.207 340.668 249.015 338.162C250.532 336.057 253.339 333.116 253.339 333.116C253.339 333.116 242.759 329.38 236.762 325.548C228.374 320.189 224.093 316.042 218.382 307.89L218.138 307.542C212.807 299.932 210.103 296.073 207.571 286.987C205.657 280.123 205.198 274.65 205.408 267.527C205.586 261.512 205.631 258.087 207.571 252.391C208.708 249.049 209.577 246.764 211.895 244.102C213.411 242.361 216.58 240.498 216.58 240.498L217.841 232.75C217.841 232.75 218.498 228.007 219.103 225.002C220.167 219.713 222.707 211.667 222.707 211.667C222.707 211.667 216.11 209.499 212.255 207.343C205.98 203.833 203.337 201.864 198.201 196.833C194.643 193.349 190.993 188.366 189.551 186.08C186.511 181.259 184.608 177.961 183.425 172.386C182.428 167.687 182.9 164.908 183.425 160.133C183.757 157.113 184.177 155.416 185.227 152.565C186.205 149.907 186.77 148.213 188.11 145.717C189.572 142.995 190.52 141.656 192.434 139.231C194.969 136.019 196.854 134.487 200.363 132.383C203.121 130.73 204.832 129.999 207.931 129.14C211.615 128.118 213.843 127.868 217.661 128.059C222.298 128.29 224.876 129.236 229.193 130.942C233.059 132.469 235.149 133.618 238.563 135.987C242.818 138.939 243.969 140.312 248.294 143.915C250.426 145.692 253.448 148.129 255.862 149.5C259.749 151.707 264.511 154.006 264.511 154.006L271.358 154.727C271.358 154.727 269.786 152.558 268.475 151.484C266.43 149.807 262.349 148.601 262.349 148.601C262.349 148.601 268.452 147.155 272.439 146.799C276.505 146.435 282.89 146.799 282.89 146.799C282.89 146.799 278.415 142.675 275.322 140.312C272.345 138.036 267.394 134.906 267.394 134.906C267.394 134.906 278.92 134.229 285.413 137.068C288.598 138.461 292.981 141.753 292.981 141.753C292.981 141.753 291.903 137.363 290.459 134.906C288.942 132.326 285.413 129.14 285.413 129.14C285.413 129.14 294.553 131.918 299.828 134.906C303.089 136.753 307.757 140.312 307.757 140.312C307.757 140.312 313.362 136.822 317.127 134.906C322.298 132.274 330.821 129.14 330.821 129.14C330.821 129.14 327.016 132.266 325.416 134.906C323.938 137.343 322.893 141.753 322.893 141.753C322.893 141.753 330.294 136.236 335.867 134.906C341.069 133.664 349.561 134.906 349.561 134.906C349.561 134.906 344.088 137.908 340.912 140.312C337.893 142.597 333.704 146.799 333.704 146.799C333.704 146.799 340.327 146.273 344.516 146.799C348.546 147.305 354.607 149.321 354.607 149.321C354.607 149.321 350.177 149.782 348.12 151.484C346.883 152.506 345.597 154.727 345.597 154.727C345.597 154.727 355.661 150.679 358.5 149.321C363.775 146.799 364.299 146.062 370 141.753C380.091 134.127 383.33 131.057 394.249 129.14C403.228 127.563 408.973 128.589 416.676 133.464C423.289 137.65 426.297 142.211 429.566 149.321C432.176 154.997 432.449 158.691 432.449 164.097C432.449 174.343 430.205 179.489 424.881 188.243C420.124 196.065 415.949 199.782 408.304 204.82Z" fill="#3A3A3A"/>
<path d="M392.807 212.028C392.807 212.028 402.731 208.493 408.304 204.82C415.949 199.782 420.124 196.065 424.881 188.243C430.205 179.489 432.449 174.343 432.449 164.097C432.449 158.691 432.176 154.997 429.566 149.321C426.297 142.211 423.289 137.65 416.676 133.464C408.973 128.589 403.228 127.563 394.249 129.14C383.33 131.057 380.091 134.127 370 141.753C364.299 146.062 363.775 146.799 358.5 149.321C355.661 150.679 345.597 154.727 345.597 154.727M392.807 212.028C392.807 212.028 394.358 217.739 395.352 221.398M392.807 212.028C392.807 212.028 387.723 195.445 381.996 186.08C377.707 179.067 374.99 175.157 369.022 169.503C361.17 162.064 345.597 154.727 345.597 154.727M345.597 154.727C345.597 154.727 346.883 152.506 348.12 151.484C350.177 149.782 354.607 149.321 354.607 149.321C354.607 149.321 348.546 147.305 344.516 146.799C340.327 146.273 333.704 146.799 333.704 146.799C333.704 146.799 337.893 142.597 340.912 140.312C344.088 137.908 349.561 134.906 349.561 134.906C349.561 134.906 341.069 133.664 335.867 134.906C330.294 136.236 322.893 141.753 322.893 141.753C322.893 141.753 323.938 137.343 325.416 134.906C327.016 132.266 330.821 129.14 330.821 129.14C330.821 129.14 322.298 132.274 317.127 134.906C313.362 136.822 307.757 140.312 307.757 140.312C307.757 140.312 303.089 136.753 299.828 134.906C294.553 131.918 285.413 129.14 285.413 129.14C285.413 129.14 288.942 132.326 290.459 134.906C291.903 137.363 292.981 141.753 292.981 141.753C292.981 141.753 288.598 138.461 285.413 137.068C278.92 134.229 267.394 134.906 267.394 134.906C267.394 134.906 272.345 138.036 275.322 140.312C278.415 142.675 282.89 146.799 282.89 146.799C282.89 146.799 276.505 146.435 272.439 146.799C268.452 147.155 262.349 148.601 262.349 148.601C262.349 148.601 266.43 149.807 268.475 151.484C269.786 152.558 271.358 154.727 271.358 154.727M271.358 154.727L264.511 154.006C264.511 154.006 259.749 151.707 255.862 149.5C253.448 148.129 250.426 145.692 248.294 143.915C243.969 140.312 242.818 138.939 238.563 135.987C235.149 133.618 233.059 132.469 229.193 130.942C224.876 129.236 222.298 128.29 217.661 128.059C213.843 127.868 211.615 128.118 207.931 129.14C204.832 129.999 203.121 130.73 200.363 132.383C196.854 134.487 194.969 136.019 192.434 139.231C190.52 141.656 189.572 142.995 188.11 145.717C186.77 148.213 186.205 149.907 185.227 152.565C184.177 155.416 183.757 157.113 183.425 160.133C182.9 164.908 182.428 167.687 183.425 172.386C184.608 177.961 186.511 181.259 189.551 186.08C190.993 188.366 194.643 193.349 198.201 196.833C203.337 201.864 205.98 203.833 212.255 207.343C216.11 209.499 222.707 211.667 222.707 211.667M271.358 154.727C271.358 154.727 261.46 158.551 255.862 162.295C245.505 169.221 241.356 175.612 234.599 186.08C228.624 195.338 222.707 211.667 222.707 211.667M222.707 211.667C222.707 211.667 220.167 219.713 219.103 225.002C218.498 228.007 217.841 232.75 217.841 232.75M253.339 333.116C253.339 333.116 242.759 329.38 236.762 325.548C228.374 320.189 224.093 316.042 218.382 307.89C212.889 300.048 210.141 296.21 207.571 286.987C205.657 280.123 205.198 274.65 205.408 267.527C205.586 261.512 205.631 258.087 207.571 252.391C208.708 249.049 209.577 246.764 211.895 244.102C213.411 242.361 216.58 240.498 216.58 240.498L217.841 232.75M253.339 333.116C253.339 333.116 250.532 336.057 249.015 338.162C247.207 340.668 245.05 345.009 245.05 345.009M253.339 333.116L274.241 340.324C274.241 340.324 286.322 343.179 294.062 345.009M245.05 345.009C245.05 345.009 240.501 336.534 236.762 331.675C231.481 324.813 227.807 321.406 220.905 316.178C213.32 310.434 208.794 306.887 199.642 304.286C192.435 302.237 188.014 301.94 180.542 302.484C172.268 303.086 160 307.89 160 307.89C160 307.89 167.589 315.218 171.172 320.863C175.57 327.792 176.426 332.566 179.1 340.324C181.582 347.525 182.113 351.833 184.506 359.064C186.436 364.897 186.788 368.549 189.912 373.84C193.156 379.335 195.813 382.017 200.723 386.093C205.292 389.885 208.175 391.839 213.697 394.021C216.43 395.101 220.905 396.183 220.905 396.183M245.05 345.009C245.05 345.009 239.027 354.94 236.762 361.947C233.752 371.257 232 386.093 232 386.093M220.905 396.183C220.905 396.183 216.748 401.173 214.778 404.833C212.808 408.492 211.703 410.543 209.733 414.203M220.905 396.183C220.905 396.183 223.926 392.575 226.31 390.778C228.922 388.809 232 386.093 232 386.093M209.733 414.203C209.733 414.203 206.613 409.833 203.967 407.716C202.165 406.274 199.79 404.789 196.759 404.833C195.324 404.853 194.431 404.896 193.155 405.553C191.74 406.283 190.272 408.436 190.272 408.436M209.733 414.203C209.733 414.203 212.322 418.731 213.697 421.771C215.367 425.463 220 440.15 217.301 431.501M190.272 408.436C190.272 408.436 186.767 408.507 184.866 409.518C182.933 410.546 182.052 411.618 180.902 413.482C179.45 415.835 179.1 420.329 179.1 420.329M190.272 408.436C190.272 408.436 189.178 413.468 190.272 416.365C191.227 418.894 201.5 428.257 194.597 421.771M179.1 420.329C179.1 420.329 177.709 420.577 176.938 421.41C175.663 422.788 175.857 424.654 176.217 426.455C177.345 432.093 179.037 435.015 181.623 440.15C185.803 448.45 188.746 452.319 195.318 458.89C199.642 463.214 202.406 465.948 208.652 467.539C213.834 468.86 216.851 469.035 221.986 467.539C227.72 465.869 230.432 461.741 235.68 458.89C240 456.544 241.7 455.661 246.492 454.565C250.48 453.654 256.943 453.845 256.943 453.845M179.1 420.329C179.1 420.329 179.871 423.143 180.902 424.654C182.082 426.382 193.155 435 184.866 428.257M256.943 453.845C256.943 453.845 262.481 460.59 266.313 464.656C269.043 467.553 270.998 469.341 274.241 471.143C275.964 472.1 278.092 471.605 280.007 471.143C282.589 470.52 284.332 468.26 284.332 468.26M256.943 453.845C256.943 453.845 248.195 440.663 243.969 431.501C237.573 417.632 236.443 408.853 232.797 394.021C232 390.778 232 386.093 232 386.093M284.332 468.26C284.332 468.26 285.64 468.668 286.494 468.62C287.878 468.543 289.04 468.075 290.098 467.179C291.022 466.396 291.54 464.656 291.54 464.656M284.332 468.26C284.332 468.26 283.564 463.066 281.809 460.332C279.979 457.479 268 449 275.322 454.565M291.54 464.656C291.54 464.656 294.57 463.869 295.864 462.494C296.943 461.348 297.666 458.89 297.666 458.89M291.54 464.656C291.54 464.656 291.566 461.033 290.819 458.89C289.632 455.486 275.322 443 285.053 451.682M297.666 458.89C297.666 458.89 304.218 460.351 308.478 460.332C312.598 460.313 318.929 458.89 318.929 458.89M297.666 458.89C297.666 458.89 296.932 454.38 295.864 451.682C293.648 446.081 289.724 444.514 286.494 439.429C281.667 431.829 279.442 427.003 276.404 418.527C273.363 410.044 272.089 405.195 272.079 396.183C272.073 390.191 272.417 387.04 272.439 381.047C272.463 374.916 269.378 371.464 270.998 365.551C272.256 360.958 274.594 358.94 277.845 355.46C282.988 349.954 286.923 347.418 294.062 345.009M318.929 458.89C318.929 458.89 319.307 461.414 320.37 462.494C321.619 463.762 324.695 463.935 324.695 463.935M318.929 458.89C318.929 458.89 317.768 453.845 320.37 450.241C325.055 443.754 328.598 440.822 332.984 433.303C336.25 427.703 338.426 424.652 340.552 418.527C343.443 410.197 344.006 404.986 344.516 396.183C344.858 390.282 343.393 386.945 343.795 381.047C344.211 374.951 346.534 371.318 344.516 365.551C341.993 358.343 338.315 354.108 331.903 349.694C327.806 346.874 326.24 346.354 321.451 345.009M324.695 463.935C324.695 463.935 325.408 466.223 326.497 467.179C328.114 468.599 331.903 468.26 331.903 468.26M324.695 463.935C324.695 463.935 324.805 458.694 326.497 456.007C327.824 453.9 337.5 446 331.182 451.682M331.903 468.26C331.903 468.26 333.058 470.259 334.065 470.783C335.967 471.772 336.249 471.75 338.389 471.864C341.344 472.021 345.194 469.152 347.399 467.179C354.246 461.052 358.931 454.565 358.931 454.565M331.903 468.26C331.903 468.26 331.903 463.535 333.344 461.052C334.9 458.372 347.399 451.682 339.471 456.007M358.931 454.565C358.931 454.565 364.007 454.174 367.22 454.565C372.522 455.211 375.38 456.578 380.194 458.89C386.211 461.78 388.584 465.593 394.969 467.539C397.029 468.167 398.229 468.449 400.375 468.62C405.383 469.021 408.822 467.554 413.349 465.377C418.468 462.915 420.925 459.723 424.881 455.646C427.404 453.047 428.814 450.571 431.729 446.276C435.83 440.233 439.657 429.339 439.657 429.339C439.657 429.339 440.429 426.133 439.657 423.572C439.203 422.066 437.134 418.888 437.134 418.888M358.931 454.565C358.931 454.565 369.907 437.919 374.428 426.095C379.869 411.864 382.356 387.895 382.356 387.895M437.134 418.888C437.134 418.888 437.275 416.993 436.413 415.284C435.156 412.789 434.15 411.27 431.729 409.878C429.952 408.857 426.683 408.436 426.683 408.436M437.134 418.888C437.134 418.888 436.694 421.941 435.693 423.572C434.438 425.615 423 439 431.729 428.618M426.683 408.436C426.683 408.436 426.288 407.601 425.304 406.925C423.502 405.689 422.38 405.119 420.196 405.193C417.793 405.274 415.403 405.744 413.349 406.995C409.763 409.179 406.502 415.284 406.502 415.284M426.683 408.436C426.683 408.436 426.45 412.713 425.602 415.284C424.414 418.882 413.349 433 420.557 423.572M406.502 415.284C406.502 415.284 405.188 409.619 403.619 406.274C402.06 402.952 400.865 401.212 398.573 398.346C396.212 395.392 394.889 393.571 391.726 391.498C388.447 389.35 382.356 387.895 382.356 387.895M406.502 415.284L402.538 423.572C402.538 423.572 394.969 445 398.573 434.384M382.356 387.895C382.356 387.895 382.798 380.187 382.356 375.281C381.615 367.054 380.5 362.359 377.311 354.739C373.392 345.378 362.895 333.116 362.895 333.116M362.895 333.116C362.895 333.116 375.595 327.557 382.356 322.305C387.231 318.518 390.735 316.66 394.609 311.854C400.563 304.467 402.978 300.482 406.502 291.672C408.67 286.251 409.628 283.035 410.466 277.257C411.435 270.572 411.883 265.843 410.466 259.238C409.523 254.841 408.663 253.091 406.502 249.147C404.662 245.79 400.736 241.219 400.736 241.219L395.352 221.398M362.895 333.116L343.074 340.324C343.074 340.324 329.896 343.179 321.451 345.009M217.841 232.75C217.841 232.75 219.756 222.973 222.707 217.434C225.765 211.692 227.8 208.151 233.158 204.46C237.96 201.151 242.55 200.421 248.294 199.414C254.116 198.394 256.642 197.873 262.349 199.414C267.456 200.794 269.825 201.908 274.241 204.82C281.072 209.324 285.293 212.973 290.098 219.596C294.688 225.923 296.14 230.39 298.027 237.975C299.564 244.159 299.512 247.828 299.828 254.193C300.087 259.394 299.828 267.527 299.828 267.527C299.828 267.527 305.499 265.954 309.198 266.085C312.205 266.192 316.766 267.527 316.766 267.527C316.766 267.527 316.564 259.396 316.766 254.193C316.975 248.832 316.791 245.758 317.848 240.498C319.427 232.632 321.187 228.217 325.416 221.398C330.086 213.866 333.343 209.429 340.912 204.82C346.653 201.324 350.48 200.037 357.129 199.054C365.096 197.877 369.984 198.457 377.671 200.856C390.375 204.82 393.281 213.771 395.352 221.398M294.062 345.009C299.973 345.009 309.198 345.009 309.198 345.009C309.198 345.009 316.666 345.009 321.451 345.009" stroke="black" stroke-width="6"/>
<path d="M212.622 243.27C214.128 241.541 217.277 239.69 217.277 239.69L218.53 231.993C218.53 231.993 220.432 222.28 223.364 216.778C226.404 211.074 228.426 207.557 233.749 203.89C238.521 200.603 242.586 199.275 248.294 198.275C254.079 197.261 257.084 197.347 262.754 198.878C267.829 200.249 270.183 201.355 274.571 204.248C281.359 208.722 285.553 212.347 290.327 218.926C294.888 225.211 296.331 229.648 298.205 237.184C299.733 243.327 299.681 246.972 299.996 253.294C300.253 258.46 299.996 266.54 299.996 266.54C299.996 266.54 305.63 264.977 309.306 265.108C312.294 265.214 316.826 266.54 316.826 266.54C316.826 266.54 316.625 258.463 316.826 253.294C317.033 247.969 316.851 244.915 317.9 239.69C319.47 231.876 321.219 227.49 325.42 220.716C330.061 213.234 333.297 208.827 340.818 204.248C346.523 200.776 350.325 199.496 356.932 198.52C364.848 197.351 369.705 197.927 377.343 200.31C387.401 203.448 392.854 213.14 394.912 220.716L400.261 240.406C400.261 240.406 404.162 244.947 405.991 248.282C408.138 252.199 408.992 253.938 409.93 258.306C411.338 264.867 412.15 268.755 411.187 275.397C410.354 281.136 409.377 284.427 407.223 289.812C403.722 298.563 401.967 301.934 396.051 309.272C392.202 314.047 389.002 317.043 384.158 320.805C377.44 326.022 363.616 331.977 363.616 331.977C363.616 331.977 351.164 336.607 342.967 338.855C334.687 341.126 330.042 342.858 321.481 343.509C316.74 343.869 315.755 344.23 311.001 344.23C305.127 344.23 300.111 344.088 294.266 343.509C286.402 342.729 281.674 341.791 273.881 339.545C265.791 337.212 252.619 332.337 252.619 332.337C252.619 332.337 242 327.855 236.041 324.048C227.707 318.724 223.12 314.54 217.662 306.75C212.203 298.96 209.765 294.649 207.21 285.487C205.309 278.668 205.199 273.616 205.408 266.54C205.585 260.565 206.397 257.162 208.324 251.504C209.455 248.184 210.318 245.914 212.622 243.27Z" fill="#E5E5E5" stroke="#D6D6D6" stroke-width="8"/>
<path d="M162.162 309.341C162.162 309.341 168.477 307.76 172.613 307.539C185.324 306.86 192.927 310.503 203.966 316.841C217.001 324.324 223.622 331.41 231.356 344.298C233.622 348.076 235.68 356.122 235.68 356.122L231.356 370.606C231.356 370.606 227.089 362.737 220.904 354.389C212.425 342.944 209.724 334.407 198.561 325.558C191.105 319.649 177.298 313.666 177.298 313.666L162.162 309.341L188.83 323.757C192.811 326.617 195.022 328.293 198.561 331.685C208.084 340.815 209.39 349.236 217.301 359.795C224.312 369.155 230 377 230 377L229 383.151C229 383.151 226.271 384.032 224.508 383.151C215.859 378.826 214.875 377.745 212.255 375.223C206.098 369.292 205.875 365.15 201.804 357.633C198.626 351.763 197.984 347.887 194.597 342.136C189.967 334.276 186.605 330.233 180.181 323.757C173.835 317.358 162.162 309.341 162.162 309.341Z" fill="#E5E5E5"/>
<path d="M308.855 281.523V295.114M308.855 295.114C308.855 295.114 304.904 298.861 301.682 299.161C297.807 299.521 292.621 295.114 292.621 295.114M308.855 295.114C308.855 295.114 312.797 298.968 316.028 299.161C319.648 299.377 324.334 295.114 324.334 295.114" stroke="black" stroke-width="5" stroke-linecap="round"/>
<path d="M325.416 265.666C325.848 268.083 324.951 269.635 323.253 272.343C321.556 275.052 316.289 281.87 308.236 281.968C302.168 282.041 297.306 277.919 292.973 272.343C290.025 268.031 287.967 263.48 296.323 261.984C304.679 260.488 324.418 260.095 325.416 265.666Z" fill="#E068A0" stroke="#E068A0" stroke-width="5"/>
<path d="M316.535 264.172C316.524 265.24 312.784 266.065 308.181 266.016C303.578 265.967 299.856 265.062 299.867 263.995C299.878 262.928 303.619 262.102 308.222 262.151C312.825 262.2 316.547 263.105 316.535 264.172Z" fill="white" fill-opacity="0.5"/>
<ellipse cx="15.5154" cy="20.8388" rx="15.5154" ry="20.8388" transform="matrix(-0.998648 0.0519817 0.0519817 0.998648 278.201 223.141)" fill="black" stroke="#504B4F"/>
<path d="M254.398 237.825C255.324 240.05 257.878 241.103 260.103 240.177C262.328 239.252 263.381 236.697 262.455 234.472C261.529 232.247 258.975 231.194 256.75 232.12C254.525 233.046 253.472 235.6 254.398 237.825Z" fill="white" stroke="#504B4F"/>
<ellipse cx="6.41588" cy="3.69444" rx="6.41588" ry="3.69444" transform="matrix(-0.999999 0.00127736 0.00127736 0.999999 273.661 248.102)" fill="white" fill-opacity="0.4"/>
<ellipse cx="15.5154" cy="20.8388" rx="15.5154" ry="20.8388" transform="matrix(-0.996175 -0.0873765 -0.0873765 0.996175 371.163 225.355)" fill="black" stroke="#504B4F"/>
<path d="M345.549 236.587C346.156 238.919 348.539 240.317 350.871 239.709C353.204 239.102 354.602 236.719 353.994 234.387C353.387 232.054 351.003 230.656 348.671 231.264C346.339 231.871 344.941 234.255 345.549 236.587Z" fill="white" stroke="#504B4F"/>
<ellipse cx="6.41588" cy="3.69444" rx="6.41588" ry="3.69444" transform="matrix(-0.990463 -0.137776 -0.137776 0.990463 363.195 249.442)" fill="white" fill-opacity="0.4"/>
<path d="M243.55 163.588C245.332 165.226 246.852 166.49 246.852 166.49C242.546 170.227 237.308 176.759 234.238 182.418C231.522 187.427 226.67 196.833 226.67 196.833C226.67 196.833 224.837 195.565 222.822 194.494C219.543 192.75 218.156 191.763 215.448 189.221C213.572 187.46 211.631 184.926 210.861 183.761C209.237 181.304 208.218 179.621 207.544 176.753C206.976 174.336 207.189 172.895 207.407 170.421C207.544 168.857 207.742 167.975 208.252 166.49C208.727 165.106 209 164.224 209.663 162.919C210.388 161.496 210.862 160.794 211.823 159.519C213.096 157.831 214.052 157.018 215.84 155.891C217.245 155.006 218.121 154.609 219.711 154.13C221.602 153.561 222.749 153.407 224.723 153.463C227.119 153.53 228.461 153.99 230.709 154.823C232.722 155.569 233.814 156.139 235.604 157.325C237.834 158.803 237.662 158.543 239.936 160.356C241.057 161.251 242.495 162.617 243.55 163.588Z" fill="#FACFE3"/>
<path d="M373.713 164.286C371.95 165.82 370.824 168.033 370.824 168.033C374.879 171.755 378.995 177.189 382.356 182.418C385.6 187.463 389.924 196.472 389.924 196.472C389.924 196.472 390.916 195.647 392.889 194.668C396.101 193.073 397.465 192.157 400.147 189.776C402.005 188.127 403.946 185.734 404.72 184.63C406.353 182.302 407.382 180.705 408.109 177.956C408.721 175.639 408.554 174.242 408.411 171.849C408.32 170.336 408.153 169.48 407.7 168.033C407.279 166.684 407.04 165.826 406.434 164.549C405.773 163.156 405.334 162.465 404.44 161.209C403.257 159.546 402.357 158.736 400.661 157.601C399.329 156.709 398.494 156.303 396.973 155.798C395.163 155.198 394.06 155.019 392.154 155.019C389.839 155.02 388.532 155.428 386.34 156.172C384.378 156.838 383.308 157.359 381.55 158.455C379.358 159.822 379.53 159.575 377.288 161.265C376.182 162.098 374.758 163.378 373.713 164.286Z" fill="#FACFE3"/>
<path d="M308.529 458.78C304.429 458.798 298.122 457.367 298.122 457.367C298.122 457.367 297.415 452.948 296.388 450.305C294.255 444.816 290.478 443.281 287.369 438.298C282.722 430.851 280.58 426.122 277.656 417.817C274.73 409.505 273.503 404.754 273.494 395.923C273.487 390.052 273.819 386.964 273.84 381.092C273.863 375.084 270.894 371.702 272.453 365.908C273.664 361.407 275.915 359.43 279.044 356.02C283.994 350.625 287.782 348.14 294.653 345.78H309.223H321.017C325.626 347.098 327.133 347.607 331.076 350.37C337.249 354.696 340.789 358.845 343.217 365.908C345.16 371.559 342.924 375.119 342.523 381.092C342.136 386.871 343.546 390.141 343.217 395.923C342.727 404.549 342.184 409.655 339.401 417.817C337.355 423.818 335.261 426.808 332.117 432.295C327.895 439.664 324.485 442.536 319.976 448.892C317.471 452.423 318.588 457.367 318.588 457.367C318.588 457.367 312.494 458.761 308.529 458.78Z" fill="#E5E5E5"/>
<ellipse cx="413.836" cy="445.463" rx="6.84727" ry="15.1361" transform="rotate(32.0499 413.836 445.463)" fill="#FACFE3"/>
<ellipse cx="202.974" cy="445.427" rx="6.84727" ry="15.1361" transform="rotate(-32.9246 202.974 445.427)" fill="#FACFE3"/>
<path d="M269.557 216.848C263.793 216.988 261.491 215.455 253.722 217.953C245.954 220.45 243.731 222.16 239.126 225.516C238.395 223.243 242.519 212.603 250.288 210.105C258.056 207.607 268.826 214.574 269.557 216.848Z" fill="#3A3A3A"/>
<path d="M379.195 226.984C374.582 223.525 373.724 220.896 366.077 218.047C358.43 215.198 355.626 215.164 349.932 214.948C350.766 212.71 360.592 206.909 368.239 209.758C375.886 212.607 380.029 224.746 379.195 226.984Z" fill="#3A3A3A"/>
</svg>
