<svg width="600" height="600" viewBox="0 0 600 600" fill="none" xmlns="http://www.w3.org/2000/svg">
<circle cx="409.524" cy="167.779" r="43.1098" fill="#AB6E2B" stroke="#895822" stroke-width="14"/>
<circle cx="409.524" cy="167.779" r="17.6781" fill="#FFA1A7"/>
<circle cx="168.11" cy="167.779" r="43.1098" fill="#AB6E2B" stroke="#895822" stroke-width="14"/>
<circle cx="168.11" cy="167.779" r="17.6781" fill="#FFA1A7"/>
<path d="M189.143 401.1C190.857 404.888 194.958 410.017 194.958 410.017C190.696 498.041 388.609 498.358 383.756 411.568V404.589C383.756 404.589 399.263 403.426 405.078 400.713C410.893 397.999 416.313 392.744 420.189 388.092C420.189 388.092 424.393 380.947 426.788 373.963C429.653 365.606 429.438 364.377 429.889 358.069C430.277 352.641 430.657 352.426 431.44 344.888C432.223 337.35 432.587 334.377 436.472 327.614C436.472 327.614 440.474 321.825 444.621 318.526C448.65 315.32 451.484 313.883 456.251 311.935C459.4 310.648 461.382 310.177 464.78 309.997C477.714 309.311 477.641 295.988 468.657 296.041C464.115 296.067 461.147 295.487 456.639 296.041L456.635 296.041C451.827 296.631 450.598 296.782 446.171 298.754C441.684 300.754 437.947 302.999 434.153 306.12C428.358 310.89 425.271 314.058 421.36 320.464C418.107 325.792 416.837 329.184 415.157 335.196C413.509 341.093 413.219 344.5 412.831 350.703C412.364 358.182 412.056 362.333 410.118 369.699C408.707 375.06 406.606 378.279 401.977 381.329C398.898 383.357 396.712 383.926 393.06 384.43C390.51 384.783 386.47 384.43 386.47 384.43C386.47 380.343 386.462 378.831 385.299 373.963C384.136 369.096 367.857 319.91 365.698 315.58C365.698 315.58 213.654 310.8 211.94 315.58C209.906 321.254 186.042 379.954 186.042 385.981C186.042 392.008 186.658 395.609 189.143 401.1Z" fill="#AB6E2B"/>
<path d="M189.143 401.1C190.857 404.888 194.958 410.017 194.958 410.017C190.696 498.041 388.609 498.358 383.756 411.568V404.589C383.756 404.589 399.263 403.426 405.078 400.713C410.893 397.999 416.313 392.744 420.189 388.092C420.189 388.092 424.393 380.947 426.788 373.963C429.653 365.606 429.438 364.377 429.889 358.069C430.277 352.641 430.657 352.426 431.44 344.888C432.223 337.35 432.587 334.377 436.472 327.614C436.472 327.614 440.474 321.825 444.621 318.526C448.65 315.32 451.484 313.883 456.251 311.935C459.4 310.648 461.382 310.177 464.78 309.997C477.714 309.311 477.641 295.988 468.657 296.041C464.115 296.067 461.147 295.487 456.639 296.041L456.635 296.041C451.827 296.631 450.598 296.782 446.171 298.754C441.684 300.754 437.947 302.999 434.153 306.12C428.358 310.89 425.271 314.058 421.36 320.464C418.107 325.792 416.837 329.184 415.157 335.196C413.509 341.093 413.219 344.5 412.831 350.703C412.364 358.182 412.056 362.333 410.118 369.699C408.707 375.06 406.606 378.279 401.977 381.329C398.898 383.357 396.712 383.926 393.06 384.43C390.51 384.783 386.47 384.43 386.47 384.43C386.47 380.343 386.462 378.831 385.299 373.963C384.136 369.096 367.857 319.91 365.698 315.58C365.698 315.58 213.654 310.8 211.94 315.58C209.906 321.254 186.042 379.954 186.042 385.981C186.042 392.008 186.658 395.609 189.143 401.1Z" stroke="#AB6E2B" stroke-width="5"/>
<path d="M189.143 401.1C190.857 404.888 194.958 410.017 194.958 410.017C190.696 498.041 388.609 498.358 383.756 411.568V404.589C383.756 404.589 399.263 403.426 405.078 400.713C410.893 397.999 416.313 392.744 420.189 388.092C420.189 388.092 424.393 380.947 426.788 373.963C429.653 365.606 429.438 364.377 429.889 358.069C430.277 352.641 430.657 352.426 431.44 344.888C432.223 337.35 432.587 334.377 436.472 327.614C436.472 327.614 440.474 321.825 444.621 318.526C448.65 315.32 451.484 313.883 456.251 311.935C459.4 310.648 461.382 310.177 464.78 309.997C477.714 309.311 477.641 295.988 468.657 296.041C464.115 296.067 461.147 295.487 456.639 296.041L456.635 296.041C451.827 296.631 450.598 296.782 446.171 298.754C441.684 300.754 437.947 302.999 434.153 306.12C428.358 310.89 425.271 314.058 421.36 320.464C418.107 325.792 416.837 329.184 415.157 335.196C413.509 341.093 413.219 344.5 412.831 350.703C412.364 358.182 412.056 362.333 410.118 369.699C408.707 375.06 406.606 378.279 401.977 381.329C398.898 383.357 396.712 383.926 393.06 384.43C390.51 384.783 386.47 384.43 386.47 384.43C386.47 380.343 386.462 378.831 385.299 373.963C384.136 369.096 367.857 319.91 365.698 315.58C365.698 315.58 213.654 310.8 211.94 315.58C209.906 321.254 186.042 379.954 186.042 385.981C186.042 392.008 186.658 395.609 189.143 401.1Z" stroke="black" stroke-opacity="0.2" stroke-width="5"/>
<path d="M267.14 454.024C259.816 454.831 248.083 456.364 248.083 456.364C248.083 456.364 234.145 454.039 228.055 447.812C223.84 443.502 221.973 441.269 219.118 436.371C216.065 431.135 214.755 428.01 212.913 421.991C211.071 415.972 210.953 412.731 210.731 406.653C210.51 400.575 211.82 392.007 211.82 392.007C211.82 392.007 213.291 384.602 215.039 380.123C217.945 372.677 220.587 368.781 225.764 362.692C230.426 357.209 233.514 354.394 239.518 350.424C246.753 345.64 251.523 343.867 259.887 341.567C269.982 338.791 276.121 338.322 286.571 338.972C295.005 339.497 300.921 340.058 308.902 342.835C316.883 345.613 321.821 347.095 328.77 351.755C334.547 355.63 338.657 358.799 343.366 363.919C348.753 369.775 350.588 374.356 353.503 381.759C355.973 388.033 356.579 394.098 357.152 400.816C357.8 408.415 356.93 411.708 355.53 417.845C354.131 423.982 352.654 426.636 349.243 433.252C345.833 439.868 344.88 440.982 341.148 444.907C337.722 448.511 334.789 450.51 330.488 453.005C326.286 455.441 318.885 457.485 318.885 457.485C318.885 457.485 309.598 455.672 302.415 454.742C295.232 453.813 291.714 453.325 284.98 453.005C278.021 452.674 274.065 453.26 267.14 454.024Z" fill="#FBE09D"/>
<path d="M228.936 332.363C228.936 332.363 250.902 365.365 254.495 384.046C256.801 396.041 241.189 392.668 230.784 392.668C212.011 392.668 189.664 371.832 201.221 343.092C212.826 314.234 223.434 291.36 223.434 291.36" stroke="#895822" stroke-width="5" stroke-linecap="round"/>
<path d="M323.367 383.328C329.733 364.259 335.254 354.263 345.887 340.218L350.391 334.47L375.036 353.151C365.411 377.837 365.763 376.648 348.89 390.513C334.627 389.076 333.861 383.338 323.367 383.328Z" fill="#AB6E2B"/>
<path d="M347.489 332.363C347.489 332.363 325.523 365.365 321.93 384.046C319.624 396.041 335.236 392.668 345.641 392.668C364.414 392.668 383.27 370.924 375.755 343.81C367.79 315.071 354.919 285.612 354.919 285.612" stroke="#895822" stroke-width="5" stroke-linecap="round"/>
<path d="M295.82 408.253C283.214 406.111 320.023 386.202 320.023 386.202C330.218 385.162 335.793 385.013 347.453 391.95C347.453 391.95 354.691 411.878 347.453 414.707C341.851 416.897 333.469 408.253 333.469 408.253C333.469 408.253 325.474 416.759 320.023 414.707C315.097 412.853 313.569 402.875 313.569 402.875C313.569 402.875 302.96 409.467 295.82 408.253Z" fill="#EAC783"/>
<path d="M295.82 408.253C283.214 406.111 320.023 386.202 320.023 386.202C330.218 385.162 335.793 385.013 347.453 391.95C347.453 391.95 354.691 411.878 347.453 414.707C341.851 416.897 333.469 408.253 333.469 408.253C333.469 408.253 325.474 416.759 320.023 414.707C315.097 412.853 313.569 402.875 313.569 402.875C313.569 402.875 302.96 409.467 295.82 408.253Z" stroke="#EAC783" stroke-width="5"/>
<path d="M295.82 408.253C283.214 406.111 320.023 386.202 320.023 386.202C330.218 385.162 335.793 385.013 347.453 391.95C347.453 391.95 354.691 411.878 347.453 414.707C341.851 416.897 333.469 408.253 333.469 408.253C333.469 408.253 325.474 416.759 320.023 414.707C315.097 412.853 313.569 402.875 313.569 402.875C313.569 402.875 302.96 409.467 295.82 408.253Z" stroke="black" stroke-opacity="0.2" stroke-width="5"/>
<path d="M253.059 383.328C246.693 364.259 241.172 354.263 230.539 340.218L226.035 334.47L203.316 363.21C212.941 387.896 211.938 381.172 227.536 390.513C241.799 389.076 242.565 383.338 253.059 383.328Z" fill="#AB6E2B"/>
<path d="M280.606 408.253C293.212 406.111 256.403 386.202 256.403 386.202C246.207 385.162 240.633 385.013 228.973 391.95C228.973 391.95 221.734 411.878 228.973 414.707C234.575 416.897 242.957 408.253 242.957 408.253C242.957 408.253 250.951 416.759 256.403 414.707C261.329 412.853 262.857 402.875 262.857 402.875C262.857 402.875 273.465 409.467 280.606 408.253Z" fill="#EAC783"/>
<path d="M280.606 408.253C293.212 406.111 256.403 386.202 256.403 386.202C246.207 385.162 240.633 385.013 228.973 391.95C228.973 391.95 221.734 411.878 228.973 414.707C234.575 416.897 242.957 408.253 242.957 408.253C242.957 408.253 250.951 416.759 256.403 414.707C261.329 412.853 262.857 402.875 262.857 402.875C262.857 402.875 273.465 409.467 280.606 408.253Z" stroke="#EAC783" stroke-width="5"/>
<path d="M280.606 408.253C293.212 406.111 256.403 386.202 256.403 386.202C246.207 385.162 240.633 385.013 228.973 391.95C228.973 391.95 221.734 411.878 228.973 414.707C234.575 416.897 242.957 408.253 242.957 408.253C242.957 408.253 250.951 416.759 256.403 414.707C261.329 412.853 262.857 402.875 262.857 402.875C262.857 402.875 273.465 409.467 280.606 408.253Z" stroke="black" stroke-opacity="0.2" stroke-width="5"/>
<path d="M160.827 254.05C160.553 252.59 134.087 267.281 135.059 260.465C136.031 253.65 160.827 235.551 167.634 215.59C187.297 157.929 221.147 108 289.407 108C357.667 108 391.516 157.929 411.18 215.59C417.986 235.551 440.168 253.65 441.14 260.465C442.113 267.281 418.26 252.59 417.986 254.05C417.713 255.511 431.082 285.208 431.082 290.076C431.082 294.944 413.611 279.366 400.97 290.076C370.167 316.174 330.261 331.457 289.407 331.457C248.552 331.457 208.646 316.174 177.844 290.076C165.203 279.366 142.838 294.944 142.838 290.076C142.838 285.208 161.1 255.511 160.827 254.05Z" fill="#AB6E2B"/>
<path d="M160.827 254.05C160.553 252.59 134.087 267.281 135.059 260.465C136.031 253.65 160.827 235.551 167.634 215.59C187.297 157.929 221.147 108 289.407 108C357.667 108 391.516 157.929 411.18 215.59C417.986 235.551 440.168 253.65 441.14 260.465C442.113 267.281 418.26 252.59 417.986 254.05C417.713 255.511 431.082 285.208 431.082 290.076C431.082 294.944 413.611 279.366 400.97 290.076C370.167 316.174 330.261 331.457 289.407 331.457C248.552 331.457 208.646 316.174 177.844 290.076C165.203 279.366 142.838 294.944 142.838 290.076C142.838 285.208 161.1 255.511 160.827 254.05Z" stroke="#AB6E2B" stroke-width="5"/>
<path d="M160.827 254.05C160.553 252.59 134.087 267.281 135.059 260.465C136.031 253.65 160.827 235.551 167.634 215.59C187.297 157.929 221.147 108 289.407 108C357.667 108 391.516 157.929 411.18 215.59C417.986 235.551 440.168 253.65 441.14 260.465C442.113 267.281 418.26 252.59 417.986 254.05C417.713 255.511 431.082 285.208 431.082 290.076C431.082 294.944 413.611 279.366 400.97 290.076C370.167 316.174 330.261 331.457 289.407 331.457C248.552 331.457 208.646 316.174 177.844 290.076C165.203 279.366 142.838 294.944 142.838 290.076C142.838 285.208 161.1 255.511 160.827 254.05Z" stroke="black" stroke-opacity="0.2" stroke-width="5"/>
<path d="M230.323 157.209C200.49 163.275 188.543 188.673 182.319 218.402C170.405 275.312 219.93 321.538 289.7 321.538C372.573 321.538 408.1 275.3 396.683 218.402C391.159 190.873 381.674 168.669 355.036 159.796C344.882 156.415 338.44 156.62 327.755 157.209C312.347 158.057 303.957 169.579 289.7 167.805C275.397 166.026 268.671 158.858 254.356 157.209C245.032 156.135 239.519 155.339 230.323 157.209Z" fill="#FBE09D"/>
<path d="M245.406 183.972C245.406 189.145 232.693 183.972 227.844 183.972C222.994 183.972 211.745 183.229 211.745 178.056C211.745 172.883 214.184 167.21 227.844 167.21C241.503 167.21 245.406 178.798 245.406 183.972Z" fill="#4B290C"/>
<path d="M333.004 183.972C333.004 189.145 345.716 183.972 350.566 183.972C355.416 183.972 366.665 183.229 366.665 178.056C366.665 172.883 364.225 167.21 350.566 167.21C336.907 167.21 333.004 178.798 333.004 183.972Z" fill="#4B290C"/>
<path d="M291.547 273.686V288.343M291.547 288.343C291.547 288.343 287.036 292.734 283.357 293.085C278.932 293.507 273.01 288.343 273.01 288.343M291.547 288.343C291.547 288.343 296.049 292.859 299.738 293.085C303.872 293.338 309.222 288.343 309.222 288.343" stroke="#462502" stroke-width="5" stroke-linecap="round"/>
<path d="M306.777 265.938C308.23 272.319 292.407 274.56 292.407 274.56L290.252 269.53C290.252 269.53 291.386 267.216 292.407 265.938C295.232 262.403 298.314 258.394 302.466 260.19C305.042 261.304 306.154 263.202 306.777 265.938Z" fill="#462502"/>
<path d="M277.413 265.938C275.96 272.319 291.783 274.56 291.783 274.56L293.938 269.53C293.938 269.53 292.804 267.216 291.783 265.938C288.959 262.403 285.877 258.394 281.724 260.19C279.149 261.304 278.036 263.202 277.413 265.938Z" fill="#462502"/>
<ellipse cx="21.2543" cy="28.5469" rx="21.2543" ry="28.5469" transform="matrix(-0.998648 0.0519817 0.0519817 0.998648 370.097 192.502)" fill="black" stroke="#504B4F"/>
<circle cx="5.97779" cy="5.97779" r="5.97779" transform="matrix(-0.923252 0.384195 0.384195 0.923252 347.667 202.505)" fill="white" stroke="#504B4F"/>
<ellipse cx="5.97779" cy="8.59133" rx="5.97779" ry="8.59133" transform="matrix(-0.923252 0.384195 0.384195 0.923252 355.9 226.696)" fill="white" fill-opacity="0.6"/>
<ellipse cx="21.2543" cy="28.5469" rx="21.2543" ry="28.5469" transform="matrix(-0.998648 0.0519817 0.0519817 0.998648 252.263 192.502)" fill="black" stroke="#504B4F"/>
<circle cx="5.97779" cy="5.97779" r="5.97779" transform="matrix(-0.923252 0.384195 0.384195 0.923252 229.833 202.505)" fill="white" stroke="#504B4F"/>
<ellipse cx="5.97779" cy="8.59133" rx="5.97779" ry="8.59133" transform="matrix(-0.923252 0.384195 0.384195 0.923252 239.503 226.696)" fill="white" fill-opacity="0.6"/>
<path d="M339.224 478.614C350.764 485.188 364.82 486.42 376.121 479.442C393.701 468.588 403.617 452.249 414.346 429.058C416.875 423.589 417.902 417.654 413.392 413.658C407.881 408.775 395.471 419.512 395.471 419.512C395.471 419.512 405.963 403.422 399.176 398.77C392.054 393.89 381.895 412.559 381.895 412.559C381.895 412.559 385.648 392.72 377.153 390.72C368.858 388.767 362.706 407.073 362.706 407.073C362.706 407.073 363.889 388.067 355.613 386.872C348.055 385.781 343.418 392.926 341.993 400.903C339.315 415.897 326.022 428.097 324.525 447.998C323.53 461.224 327.701 472.048 339.224 478.614Z" fill="#EAC783"/>
<path d="M339.224 478.614C350.764 485.188 364.82 486.42 376.121 479.442C393.701 468.588 403.617 452.249 414.346 429.058C416.875 423.589 417.902 417.654 413.392 413.658C407.881 408.775 395.471 419.512 395.471 419.512C395.471 419.512 405.963 403.422 399.176 398.77C392.054 393.89 381.895 412.559 381.895 412.559C381.895 412.559 385.648 392.72 377.153 390.72C368.858 388.767 362.706 407.073 362.706 407.073C362.706 407.073 363.889 388.067 355.613 386.872C348.055 385.781 343.418 392.926 341.993 400.903C339.315 415.897 326.022 428.097 324.525 447.998C323.53 461.224 327.701 472.048 339.224 478.614Z" stroke="#EAC783" stroke-width="5"/>
<path d="M339.224 478.614C350.764 485.188 364.82 486.42 376.121 479.442C393.701 468.588 403.617 452.249 414.346 429.058C416.875 423.589 417.902 417.654 413.392 413.658C407.881 408.775 395.471 419.512 395.471 419.512C395.471 419.512 405.963 403.422 399.176 398.77C392.054 393.89 381.895 412.559 381.895 412.559C381.895 412.559 385.648 392.72 377.153 390.72C368.858 388.767 362.706 407.073 362.706 407.073C362.706 407.073 363.889 388.067 355.613 386.872C348.055 385.781 343.418 392.926 341.993 400.903C339.315 415.897 326.022 428.097 324.525 447.998C323.53 461.224 327.701 472.048 339.224 478.614Z" stroke="black" stroke-opacity="0.2" stroke-width="5"/>
<path d="M229.467 477.177C217.927 483.751 203.871 484.983 192.57 478.005C174.99 467.151 165.074 450.812 154.345 427.621C151.815 422.152 150.789 416.217 155.299 412.221C160.81 407.338 173.22 418.075 173.22 418.075C173.22 418.075 162.727 401.985 169.515 397.333C176.637 392.453 186.796 411.122 186.796 411.122C186.796 411.122 183.043 391.283 191.538 389.283C199.833 387.33 205.985 405.636 205.985 405.636C205.985 405.636 204.802 386.63 213.078 385.435C220.636 384.344 225.273 391.489 226.698 399.466C229.376 414.46 242.669 426.66 244.166 446.561C245.161 459.787 240.99 470.611 229.467 477.177Z" fill="#EAC783"/>
<path d="M229.467 477.177C217.927 483.751 203.871 484.983 192.57 478.005C174.99 467.151 165.074 450.812 154.345 427.621C151.815 422.152 150.789 416.217 155.299 412.221C160.81 407.338 173.22 418.075 173.22 418.075C173.22 418.075 162.727 401.985 169.515 397.333C176.637 392.453 186.796 411.122 186.796 411.122C186.796 411.122 183.043 391.283 191.538 389.283C199.833 387.33 205.985 405.636 205.985 405.636C205.985 405.636 204.802 386.63 213.078 385.435C220.636 384.344 225.273 391.489 226.698 399.466C229.376 414.46 242.669 426.66 244.166 446.561C245.161 459.787 240.99 470.611 229.467 477.177Z" stroke="#EAC783" stroke-width="5"/>
<path d="M229.467 477.177C217.927 483.751 203.871 484.983 192.57 478.005C174.99 467.151 165.074 450.812 154.345 427.621C151.815 422.152 150.789 416.217 155.299 412.221C160.81 407.338 173.22 418.075 173.22 418.075C173.22 418.075 162.727 401.985 169.515 397.333C176.637 392.453 186.796 411.122 186.796 411.122C186.796 411.122 183.043 391.283 191.538 389.283C199.833 387.33 205.985 405.636 205.985 405.636C205.985 405.636 204.802 386.63 213.078 385.435C220.636 384.344 225.273 391.489 226.698 399.466C229.376 414.46 242.669 426.66 244.166 446.561C245.161 459.787 240.99 470.611 229.467 477.177Z" stroke="black" stroke-opacity="0.2" stroke-width="5"/>
</svg>
