<svg width="600" height="600" viewBox="0 0 600 600" fill="none" xmlns="http://www.w3.org/2000/svg">
<path d="M301.28 253.737C247.841 294.093 216.127 402.575 216.127 402.575L249.553 447.047C249.553 447.047 320.224 427.883 362.172 407.581C392.716 392.798 416.492 382.775 443.507 362.239C465.418 345.584 472.413 331.089 473.468 303.835C474.616 274.185 459.498 255.533 435.577 237.978C411.859 220.573 391.17 217.046 362.082 221.447C335.499 225.468 321.429 238.521 301.28 253.737Z" fill="#4A5253" stroke="#3B4242" stroke-width="5"/>
<path d="M375.033 222.477C377.588 321.253 322.158 373.123 249.011 447.783" stroke="#3B4242" stroke-width="3" stroke-linecap="round"/>
<path d="M415.133 228.804C417.688 327.58 385.807 353.096 312.661 427.756" stroke="#3B4242" stroke-width="3" stroke-linecap="round"/>
<path d="M317.016 240.161C319.572 338.936 306.302 344.351 233.155 419.01" stroke="#3B4242" stroke-width="3" stroke-linecap="round"/>
<path d="M460.391 260.425C458.257 316.582 433.719 352.519 392.704 394.068" stroke="#3B4242" stroke-width="3" stroke-linecap="round"/>
<path d="M467.542 338.597C371.836 314.032 307.845 347.469 218.728 402.081" stroke="#3B4242" stroke-width="3" stroke-linecap="round"/>
<path d="M470.338 298.101C374.631 273.536 325.049 296.704 235.932 351.316" stroke="#3B4242" stroke-width="3" stroke-linecap="round"/>
<path d="M446.542 246.753C391.329 236.284 317.511 261.872 267.847 292.565" stroke="#3B4242" stroke-width="3" stroke-linecap="round"/>
<path d="M419.406 377.907C364.193 367.438 285.298 390.944 241.256 434.374" stroke="#3B4242" stroke-width="3" stroke-linecap="round"/>
<path d="M383.03 486.462C418.211 482.578 346.138 456.117 312.425 461.741C279.447 467.242 270.906 505.655 301.796 498.438C310.605 496.38 320.776 491.222 320.776 491.222C320.776 491.222 332.257 499.421 343.172 498.438C355.116 497.364 353.421 486.462 353.421 486.462C353.421 486.462 371.875 487.693 383.03 486.462Z" fill="#4A5253"/>
<path d="M383.03 486.462C418.211 482.578 346.138 456.117 312.425 461.741C279.447 467.242 270.906 505.655 301.796 498.438C310.605 496.38 320.776 491.222 320.776 491.222C320.776 491.222 332.257 499.421 343.172 498.438C355.116 497.364 353.421 486.462 353.421 486.462C353.421 486.462 371.875 487.693 383.03 486.462Z" stroke="#4A5253" stroke-width="5"/>
<path d="M383.03 486.462C418.211 482.578 346.138 456.117 312.425 461.741C279.447 467.242 270.906 505.655 301.796 498.438C310.605 496.38 320.776 491.222 320.776 491.222C320.776 491.222 332.257 499.421 343.172 498.438C355.116 497.364 353.421 486.462 353.421 486.462C353.421 486.462 371.875 487.693 383.03 486.462Z" stroke="black" stroke-opacity="0.2" stroke-width="5"/>
<path d="M109.437 486.462C74.2563 482.578 146.329 456.117 180.043 461.741C213.02 467.242 221.561 505.655 190.671 498.438C181.862 496.38 171.691 491.222 171.691 491.222C171.691 491.222 160.211 499.421 149.295 498.438C137.351 497.364 139.046 486.462 139.046 486.462C139.046 486.462 120.592 487.693 109.437 486.462Z" fill="#4A5253"/>
<path d="M109.437 486.462C74.2563 482.578 146.329 456.117 180.043 461.741C213.02 467.242 221.561 505.655 190.671 498.438C181.862 496.38 171.691 491.222 171.691 491.222C171.691 491.222 160.211 499.421 149.295 498.438C137.351 497.364 139.046 486.462 139.046 486.462C139.046 486.462 120.592 487.693 109.437 486.462Z" stroke="#4A5253" stroke-width="5"/>
<path d="M109.437 486.462C74.2563 482.578 146.329 456.117 180.043 461.741C213.02 467.242 221.561 505.655 190.671 498.438C181.862 496.38 171.691 491.222 171.691 491.222C171.691 491.222 160.211 499.421 149.295 498.438C137.351 497.364 139.046 486.462 139.046 486.462C139.046 486.462 120.592 487.693 109.437 486.462Z" stroke="black" stroke-opacity="0.2" stroke-width="5"/>
<path d="M325.802 364.001C315.584 367.17 303.966 380.543 303.966 380.543L298.673 470.533C298.673 470.533 330.816 458.509 349.623 447.374C353.818 444.89 356.561 443.991 360.21 440.757C374.297 428.275 376.329 409.311 371.459 391.13C368.007 378.245 361.853 369.328 349.623 364.001C341.094 360.286 334.687 361.245 325.802 364.001Z" fill="#D9844B"/>
<path d="M325.802 364.001C315.584 367.17 303.966 380.543 303.966 380.543L298.673 470.533C298.673 470.533 330.816 458.509 349.623 447.374C353.818 444.89 356.561 443.991 360.21 440.757C374.297 428.275 376.329 409.311 371.459 391.13C368.007 378.245 361.853 369.328 349.623 364.001C341.094 360.286 334.687 361.245 325.802 364.001Z" stroke="#D9844B" stroke-width="5"/>
<path d="M325.802 364.001C315.584 367.17 303.966 380.543 303.966 380.543L298.673 470.533C298.673 470.533 330.816 458.509 349.623 447.374C353.818 444.89 356.561 443.991 360.21 440.757C374.297 428.275 376.329 409.311 371.459 391.13C368.007 378.245 361.853 369.328 349.623 364.001C341.094 360.286 334.687 361.245 325.802 364.001Z" stroke="black" stroke-opacity="0.2" stroke-width="5"/>
<path d="M152.179 364.001C162.397 367.17 174.015 380.543 174.015 380.543L179.308 470.533C179.308 470.533 147.165 458.509 128.358 447.374C124.163 444.89 121.42 443.991 117.771 440.757C103.684 428.275 101.652 409.311 106.522 391.13C109.974 378.245 116.128 369.328 128.358 364.001C136.887 360.286 143.294 361.245 152.179 364.001Z" fill="#D9844B"/>
<path d="M152.179 364.001C162.397 367.17 174.015 380.543 174.015 380.543L179.308 470.533C179.308 470.533 147.165 458.509 128.358 447.374C124.163 444.89 121.42 443.991 117.771 440.757C103.684 428.275 101.652 409.311 106.522 391.13C109.974 378.245 116.128 369.328 128.358 364.001C136.887 360.286 143.294 361.245 152.179 364.001Z" stroke="#D9844B" stroke-width="5"/>
<path d="M152.179 364.001C162.397 367.17 174.015 380.543 174.015 380.543L179.308 470.533C179.308 470.533 147.165 458.509 128.358 447.374C124.163 444.89 121.42 443.991 117.771 440.757C103.684 428.275 101.652 409.311 106.522 391.13C109.974 378.245 116.128 369.328 128.358 364.001C136.887 360.286 143.294 361.245 152.179 364.001Z" stroke="black" stroke-opacity="0.2" stroke-width="5"/>
<path d="M164.35 320.344C162.477 325.57 130.8 415.124 156.408 453.537C184.199 495.223 293.381 500.517 315.877 453.537C338.374 406.557 307.94 324.331 305.952 320.344C305.952 320.344 165.928 315.942 164.35 320.344Z" fill="#D9844B"/>
<path d="M164.35 320.344C162.477 325.57 130.8 415.124 156.408 453.537C184.199 495.223 293.381 500.517 315.877 453.537C338.374 406.557 307.94 324.331 305.952 320.344C305.952 320.344 165.928 315.942 164.35 320.344Z" stroke="#D9844B" stroke-width="5"/>
<path d="M164.35 320.344C162.477 325.57 130.8 415.124 156.408 453.537C184.199 495.223 293.381 500.517 315.877 453.537C338.374 406.557 307.94 324.331 305.952 320.344C305.952 320.344 165.928 315.942 164.35 320.344Z" stroke="black" stroke-opacity="0.2" stroke-width="5"/>
<path d="M288.086 406.557C305.18 440.157 264.386 482.795 235.15 482.795C205.915 482.795 165.121 440.157 182.215 406.557C193.015 385.328 204.547 376.263 235.15 376.263C265.754 376.263 277.286 385.328 288.086 406.557Z" fill="#EEAF85"/>
<path d="M242.115 156.279C242.115 156.279 200.847 142.568 206.381 133.597C212.929 122.983 221.441 102.713 239.466 101.174C244.905 100.709 249.24 101.165 253.362 102.682C260.315 105.24 253.833 114.623 247.31 121.923C250.751 119.123 254.771 116.6 258.656 115.916C266.992 114.448 274.687 113.825 279.83 120.548C286.484 129.245 278.27 139.232 270.566 147.015C262.346 155.32 242.115 156.279 242.115 156.279Z" fill="#D9844B"/>
<path d="M242.115 156.279C242.115 156.279 200.847 142.568 206.381 133.597C212.929 122.983 221.441 102.713 239.466 101.174C244.905 100.709 249.24 101.165 253.362 102.682C260.315 105.24 253.833 114.623 247.31 121.923C250.751 119.123 254.771 116.6 258.656 115.916C266.992 114.448 274.687 113.825 279.83 120.548C286.484 129.245 278.27 139.232 270.566 147.015C262.346 155.32 242.115 156.279 242.115 156.279Z" stroke="#D9844B" stroke-width="5"/>
<path d="M242.115 156.279C242.115 156.279 200.847 142.568 206.381 133.597C212.929 122.983 221.441 102.713 239.466 101.174C244.905 100.709 249.24 101.165 253.362 102.682C260.315 105.24 253.833 114.623 247.31 121.923C250.751 119.123 254.771 116.6 258.656 115.916C266.992 114.448 274.687 113.825 279.83 120.548C286.484 129.245 278.27 139.232 270.566 147.015C262.346 155.32 242.115 156.279 242.115 156.279Z" stroke="black" stroke-opacity="0.2" stroke-width="5"/>
<path d="M235.691 129.176C172.828 129.176 139.448 175.157 121.339 228.26C114.955 243.682 95.5338 276.203 127.955 309.288C156.322 333.322 198.066 334.966 235.691 334.966C273.316 334.966 402.558 339.726 347.837 228.26C329.728 175.157 298.554 129.176 235.691 129.176Z" fill="#D9844B"/>
<path d="M235.691 129.176C172.828 129.176 139.448 175.157 121.339 228.26C114.955 243.682 95.5338 276.203 127.955 309.288C156.322 333.322 198.066 334.966 235.691 334.966C273.316 334.966 402.558 339.726 347.837 228.26C329.728 175.157 298.554 129.176 235.691 129.176Z" stroke="#D9844B" stroke-width="5"/>
<path d="M235.691 129.176C172.828 129.176 139.448 175.157 121.339 228.26C114.955 243.682 95.5338 276.203 127.955 309.288C156.322 333.322 198.066 334.966 235.691 334.966C273.316 334.966 402.558 339.726 347.837 228.26C329.728 175.157 298.554 129.176 235.691 129.176Z" stroke="black" stroke-opacity="0.2" stroke-width="5"/>
<ellipse cx="171.989" cy="279.857" rx="17.5632" ry="7.88945" fill="#F5AC7B"/>
<ellipse cx="304.271" cy="280.152" rx="17.5632" ry="7.88946" transform="rotate(-2.27638 304.271 280.152)" fill="#F5AC7B"/>
<ellipse cx="24.1814" cy="28.5914" rx="24.1814" ry="28.5914" transform="matrix(-0.953838 0.300322 0.215795 0.976439 307.294 202.645)" fill="black" stroke="#504B4F"/>
<ellipse cx="24.1814" cy="28.5914" rx="24.1814" ry="28.5914" transform="matrix(-0.953838 0.300322 0.215795 0.976439 197.115 201.312)" fill="black" stroke="#504B4F"/>
<ellipse cx="10.3588" cy="5.89639" rx="10.3588" ry="5.89639" transform="matrix(-0.99981 -0.0194845 -0.0063223 0.99998 184.311 219.185)" fill="white" stroke="#504B4F"/>
<ellipse cx="10.3588" cy="5.89639" rx="10.3588" ry="5.89639" transform="matrix(-0.99981 -0.0194845 -0.0063223 0.99998 296.798 220.508)" fill="white" stroke="#504B4F"/>
<path d="M199.253 291.228C195.777 294.047 195.801 296.9 196.606 299.316C198.796 305.884 204.324 303.955 214.719 309.432C218.609 311.482 216.123 319.249 219.766 320.681C227.935 323.894 251.887 323.618 255.04 320.681C258.193 317.744 256.4 311.95 260.79 309.432C265.839 306.538 277.994 305.462 277.994 299.316C277.994 299.316 279.114 294.992 274.686 291.228C270.258 287.464 255.04 287.463 255.04 287.463C255.04 287.463 249.491 281.223 243.456 279.904C235.799 278.23 230.744 279.2 227.711 279.782L227.709 279.782C222.838 280.717 214.719 288.565 214.719 288.565C214.719 288.565 203.543 287.749 199.253 291.228Z" fill="#4A5253"/>
<path d="M199.253 291.228C195.777 294.047 195.801 296.9 196.606 299.316C198.796 305.884 204.324 303.955 214.719 309.432C218.609 311.482 216.123 319.249 219.766 320.681C227.935 323.894 251.887 323.618 255.04 320.681C258.193 317.744 256.4 311.95 260.79 309.432C265.839 306.538 277.994 305.462 277.994 299.316C277.994 299.316 279.114 294.992 274.686 291.228C270.258 287.464 255.04 287.463 255.04 287.463C255.04 287.463 249.491 281.223 243.456 279.904C235.799 278.23 230.744 279.2 227.711 279.782L227.709 279.782C222.838 280.717 214.719 288.565 214.719 288.565C214.719 288.565 203.543 287.749 199.253 291.228Z" stroke="#4A5253" stroke-width="3"/>
<path d="M199.253 291.228C195.777 294.047 195.801 296.9 196.606 299.316C198.796 305.884 204.324 303.955 214.719 309.432C218.609 311.482 216.123 319.249 219.766 320.681C227.935 323.894 251.887 323.618 255.04 320.681C258.193 317.744 256.4 311.95 260.79 309.432C265.839 306.538 277.994 305.462 277.994 299.316C277.994 299.316 279.114 294.992 274.686 291.228C270.258 287.464 255.04 287.463 255.04 287.463C255.04 287.463 249.491 281.223 243.456 279.904C235.799 278.23 230.744 279.2 227.711 279.782L227.709 279.782C222.838 280.717 214.719 288.565 214.719 288.565C214.719 288.565 203.543 287.749 199.253 291.228Z" stroke="black" stroke-opacity="0.2" stroke-width="3"/>
<ellipse cx="226.383" cy="293.552" rx="3.30845" ry="3.30845" fill="#060306"/>
<ellipse cx="243.587" cy="293.552" rx="3.30845" ry="3.30845" fill="#060306"/>
<path d="M181.104 394.174C181.104 394.174 201.334 424.567 204.642 441.771C206.767 452.817 192.388 449.711 182.807 449.711C165.517 449.711 154.038 429.131 151.045 403.393C147.737 374.94 155.581 349.134 155.581 349.134" stroke="#AE6A3C" stroke-width="5" stroke-linecap="round"/>
<path d="M268.07 441.109C273.932 423.548 279.017 414.343 288.809 401.408L292.957 396.115L314.388 399.423C305.524 422.157 307.113 434.957 291.575 447.726C278.44 446.403 277.734 441.119 268.07 441.109Z" fill="#D9844B"/>
<path d="M290.284 394.174C290.284 394.174 270.055 424.567 266.746 441.771C264.622 452.818 279 449.712 288.582 449.712C305.871 449.712 317.35 429.131 320.343 403.393C323.652 374.941 315.05 348.473 315.05 348.473" stroke="#AE6A3C" stroke-width="5" stroke-linecap="round"/>
<path d="M242.701 464.064C231.091 462.092 264.99 443.756 264.99 443.756C274.379 442.798 279.513 442.661 290.251 449.05C290.251 449.05 296.917 467.403 290.251 470.008C285.092 472.025 277.373 464.064 277.373 464.064C277.373 464.064 270.01 471.898 264.99 470.008C260.453 468.301 259.046 459.111 259.046 459.111C259.046 459.111 249.276 465.182 242.701 464.064Z" fill="#4A5253"/>
<path d="M242.701 464.064C231.091 462.092 264.99 443.756 264.99 443.756C274.379 442.798 279.513 442.661 290.251 449.05C290.251 449.05 296.917 467.403 290.251 470.008C285.092 472.025 277.373 464.064 277.373 464.064C277.373 464.064 270.01 471.898 264.99 470.008C260.453 468.301 259.046 459.111 259.046 459.111C259.046 459.111 249.276 465.182 242.701 464.064Z" stroke="#4A5253" stroke-width="5"/>
<path d="M242.701 464.064C231.091 462.092 264.99 443.756 264.99 443.756C274.379 442.798 279.513 442.661 290.251 449.05C290.251 449.05 296.917 467.403 290.251 470.008C285.092 472.025 277.373 464.064 277.373 464.064C277.373 464.064 270.01 471.898 264.99 470.008C260.453 468.301 259.046 459.111 259.046 459.111C259.046 459.111 249.276 465.182 242.701 464.064Z" stroke="black" stroke-opacity="0.2" stroke-width="5"/>
<path d="M203.319 441.109C197.457 423.548 192.372 414.343 182.58 401.408L178.432 396.115L157.001 399.423C165.865 422.157 164.276 434.957 179.815 447.726C192.95 446.403 193.655 441.119 203.319 441.109Z" fill="#D9844B"/>
<path d="M228.688 464.064C240.298 462.091 206.399 443.756 206.399 443.756C197.01 442.798 191.876 442.661 181.138 449.049C181.138 449.049 174.472 467.402 181.138 470.008C186.297 472.024 194.016 464.064 194.016 464.064C194.016 464.064 201.379 471.897 206.399 470.008C210.936 468.3 212.343 459.111 212.343 459.111C212.343 459.111 222.113 465.181 228.688 464.064Z" fill="#4A5253"/>
<path d="M228.688 464.064C240.298 462.091 206.399 443.756 206.399 443.756C197.01 442.798 191.876 442.661 181.138 449.049C181.138 449.049 174.472 467.402 181.138 470.008C186.297 472.024 194.016 464.064 194.016 464.064C194.016 464.064 201.379 471.897 206.399 470.008C210.936 468.3 212.343 459.111 212.343 459.111C212.343 459.111 222.113 465.181 228.688 464.064Z" stroke="#4A5253" stroke-width="5"/>
<path d="M228.688 464.064C240.298 462.091 206.399 443.756 206.399 443.756C197.01 442.798 191.876 442.661 181.138 449.049C181.138 449.049 174.472 467.402 181.138 470.008C186.297 472.024 194.016 464.064 194.016 464.064C194.016 464.064 201.379 471.897 206.399 470.008C210.936 468.3 212.343 459.111 212.343 459.111C212.343 459.111 222.113 465.181 228.688 464.064Z" stroke="black" stroke-opacity="0.2" stroke-width="5"/>
<path d="M194.522 199.809C194.522 204.574 182.814 199.809 178.348 199.809C173.882 199.809 163.522 199.125 163.522 194.361C163.522 189.597 165.769 184.373 178.348 184.373C190.928 184.373 194.522 195.045 194.522 199.809Z" fill="#AE6A3C" fill-opacity="0.8"/>
<path d="M275.194 199.809C275.194 204.574 286.901 199.809 291.368 199.809C295.834 199.809 306.193 199.125 306.193 194.361C306.193 189.597 303.947 184.373 291.368 184.373C278.788 184.373 275.194 195.045 275.194 199.809Z" fill="#AE6A3C" fill-opacity="0.8"/>
</svg>
