<svg width="600" height="600" viewBox="0 0 600 600" fill="none" xmlns="http://www.w3.org/2000/svg">
<ellipse cx="363.902" cy="144.867" rx="35.8671" ry="35.8671" fill="#A2704B" stroke="#825A3C" stroke-width="14"/>
<ellipse cx="363.902" cy="144.867" rx="14.7081" ry="14.7081" fill="#FBE2E8"/>
<ellipse cx="234.781" cy="144.867" rx="35.8671" ry="35.8671" fill="#A2704B" stroke="#825A3C" stroke-width="14"/>
<ellipse cx="234.781" cy="144.867" rx="14.7081" ry="14.7081" fill="#FBE2E8"/>
<path d="M235.378 309.551C233.686 314.271 205.069 395.176 228.204 429.879C253.311 467.54 351.948 472.322 372.271 429.879C392.595 387.437 365.1 313.153 363.304 309.551C363.304 309.551 236.804 305.574 235.378 309.551Z" fill="#A2704B"/>
<path d="M235.378 309.551C233.686 314.271 205.069 395.176 228.204 429.879C253.311 467.54 351.948 472.322 372.271 429.879C392.595 387.437 365.1 313.153 363.304 309.551C363.304 309.551 236.804 305.574 235.378 309.551Z" stroke="#A2704B" stroke-width="5"/>
<path d="M235.378 309.551C233.686 314.271 205.069 395.176 228.204 429.879C253.311 467.54 351.948 472.322 372.271 429.879C392.595 387.437 365.1 313.153 363.304 309.551C363.304 309.551 236.804 305.574 235.378 309.551Z" stroke="black" stroke-opacity="0.2" stroke-width="5"/>
<path d="M347.164 387.437C347.164 427.715 325.753 455.715 299.342 455.715C272.93 455.715 251.519 427.715 251.519 387.437C251.519 347.159 277.343 323.503 299.342 314.507C320.384 324.145 347.164 347.159 347.164 387.437Z" fill="#D1A888"/>
<path d="M299.83 136.845C243.038 136.845 212.882 178.386 196.522 226.36C190.755 240.293 173.209 269.673 202.499 299.563C228.127 321.276 265.839 322.76 299.83 322.76C333.821 322.76 450.581 327.061 401.144 226.36C384.784 178.386 356.622 136.845 299.83 136.845Z" fill="#A2704B"/>
<path d="M299.83 136.845C243.038 136.845 212.882 178.386 196.522 226.36C190.755 240.293 173.209 269.673 202.499 299.563C228.127 321.276 265.839 322.76 299.83 322.76C333.821 322.76 450.581 327.061 401.144 226.36C384.784 178.386 356.622 136.845 299.83 136.845Z" stroke="#A2704B" stroke-width="5"/>
<path d="M299.83 136.845C243.038 136.845 212.882 178.386 196.522 226.36C190.755 240.293 173.209 269.673 202.499 299.563C228.127 321.276 265.839 322.76 299.83 322.76C333.821 322.76 450.581 327.061 401.144 226.36C384.784 178.386 356.622 136.845 299.83 136.845Z" stroke="black" stroke-opacity="0.2" stroke-width="5"/>
<path d="M263.222 200.053C263.222 204.357 252.645 200.053 248.61 200.053C244.575 200.053 235.216 199.435 235.216 195.131C235.216 190.827 237.246 186.108 248.61 186.108C259.975 186.108 263.222 195.749 263.222 200.053Z" fill="#C38F6A"/>
<path d="M336.103 200.053C336.103 204.357 346.68 200.053 350.715 200.053C354.749 200.053 364.108 199.435 364.108 195.131C364.108 190.827 362.079 186.107 350.715 186.107C339.35 186.107 336.103 195.749 336.103 200.053Z" fill="#C38F6A"/>
<ellipse cx="300.986" cy="284.151" rx="34.0737" ry="25.7047" fill="#CDA88B"/>
<path d="M300.418 281.869V294.063M300.418 294.063C300.418 294.063 296.664 297.717 293.603 298.009C289.922 298.36 284.995 294.063 284.995 294.063M300.418 294.063C300.418 294.063 304.163 297.821 307.233 298.009C310.672 298.219 315.123 294.063 315.123 294.063" stroke="black" stroke-width="5" stroke-linecap="round"/>
<path d="M300.14 282.946C298.529 282.946 287.652 278.947 286.534 272.749C285.416 266.55 315.67 266.55 313.746 272.749C311.823 278.947 301.751 282.946 300.14 282.946Z" fill="#27051B"/>
<path d="M304.049 272.149C304.049 272.895 302.237 273.499 300 273.499C297.764 273.499 295.951 272.895 295.951 272.149C295.951 271.404 297.764 270.8 300 270.8C302.237 270.8 304.049 271.404 304.049 272.149Z" fill="white" fill-opacity="0.5"/>
<ellipse cx="242.28" cy="272.974" rx="15.8669" ry="7.12749" fill="#C38F6A"/>
<ellipse cx="361.787" cy="273.24" rx="15.8669" ry="7.12749" transform="rotate(-2.27638 361.787 273.24)" fill="#C38F6A"/>
<ellipse cx="21.8459" cy="25.8301" rx="21.8459" ry="25.8301" transform="matrix(-0.953838 0.300322 0.215795 0.976439 364.519 203.219)" fill="black" stroke="#504B4F"/>
<ellipse cx="6.21536" cy="5.32692" rx="6.21536" ry="5.32692" transform="matrix(-0.82516 0.564899 0.575712 0.817653 343.772 218.09)" fill="white" stroke="#504B4F"/>
<ellipse cx="21.8459" cy="25.8301" rx="21.8459" ry="25.8301" transform="matrix(-0.953838 0.300322 0.215795 0.976439 264.98 202.014)" fill="black" stroke="#504B4F"/>
<ellipse cx="6.21536" cy="5.32692" rx="6.21536" ry="5.32692" transform="matrix(-0.82516 0.564899 0.575712 0.817653 244.233 216.885)" fill="white" stroke="#504B4F"/>
<path d="M251.519 383.252C251.497 375.657 251.943 369.81 253.312 364.721C253.312 364.721 279.617 388.035 277.226 392.219C275.177 395.806 251.519 383.252 251.519 383.252Z" fill="#A2704B"/>
<path d="M347.165 384.448C347.187 376.852 346.143 372.201 344.774 367.112C344.774 367.112 319.861 389.828 322.252 394.012C324.302 397.599 347.165 384.448 347.165 384.448Z" fill="#A2704B"/>
<path d="M245.779 355.156C245.779 355.156 289.565 389.343 278.059 394.61C270.005 398.297 237.41 379.068 237.41 379.068" stroke="#825A3C" stroke-width="5"/>
<path d="M355.069 355.156C355.069 355.156 311.283 389.343 322.789 394.61C330.844 398.297 363.438 379.068 363.438 379.068" stroke="#825A3C" stroke-width="5"/>
<path d="M406.962 450.301C397 472.969 374.223 484.885 356.088 476.915C337.953 468.945 331.328 444.108 341.29 421.44C351.252 398.771 374.029 386.855 392.164 394.825C410.299 402.795 416.924 427.632 406.962 450.301Z" fill="#A2704B" stroke="#825A3C" stroke-width="5"/>
<path d="M394.601 448.518C387.959 463.631 372.775 471.574 360.685 466.261C348.595 460.948 344.178 444.39 350.819 429.278C357.461 414.165 372.646 406.221 384.736 411.535C396.826 416.848 401.242 433.406 394.601 448.518Z" fill="#D1A888"/>
<path d="M193.038 450.301C203 472.969 225.777 484.885 243.912 476.915C262.047 468.945 268.672 444.108 258.71 421.439C248.748 398.771 225.971 386.855 207.836 394.825C189.701 402.795 183.076 427.632 193.038 450.301Z" fill="#A2704B" stroke="#825A3C" stroke-width="5"/>
<path d="M205.399 448.518C212.041 463.631 227.225 471.575 239.315 466.261C251.405 460.948 255.822 444.39 249.181 429.278C242.539 414.165 227.354 406.222 215.264 411.535C203.174 416.848 198.758 433.406 205.399 448.518Z" fill="#D1A888"/>
</svg>
