<svg width="600" height="600" viewBox="0 0 600 600" fill="none" xmlns="http://www.w3.org/2000/svg">
<ellipse cx="390.112" cy="147.215" rx="44.7413" ry="44.7413" fill="black" stroke="#333333" stroke-width="14"/>
<ellipse cx="390.112" cy="147.215" rx="18.3472" ry="18.3472" fill="white"/>
<ellipse cx="194.741" cy="145.724" rx="44.7413" ry="44.7413" fill="black" stroke="#333333" stroke-width="14"/>
<ellipse cx="194.742" cy="145.724" rx="18.3472" ry="18.3472" fill="white"/>
<path d="M188.316 407.244C190.095 411.174 194.351 416.497 194.351 416.497C189.918 416.274 188.114 415.869 183.086 416.497C178.058 417.126 175.315 419.451 172.625 422.13C170.036 424.71 169.374 427.008 168.601 430.58C167.496 435.685 167.767 439.241 170.211 443.857C172.031 447.295 173.694 449.133 177.051 451.099C179.881 452.758 181.845 453.086 185.097 453.513C187.746 453.861 193.136 453.513 193.136 453.513C193.136 453.513 193.635 458.113 195.961 459.951C198.067 461.616 199.745 461.951 202.398 462.365C204.417 462.68 207.629 462.365 207.629 462.365C207.629 462.365 206.348 468.128 207.218 471.798C207.724 473.927 207.795 475.903 208.828 477.833C210.461 480.884 212.047 483.063 214.461 484.673C216.875 486.282 218.484 486.685 221.301 487.087C224.117 487.489 226.256 486.854 228.543 486.282C230.588 485.771 233.371 482.661 233.371 482.661C233.371 482.661 233.638 483.702 234.176 485.477C234.642 487.015 235.713 488.863 236.59 489.501C239.282 491.46 240.537 492.24 243.832 492.72C246.32 493.082 248.576 492.997 251.074 492.72C253.802 492.417 255.501 491.583 257.52 489.725C258.61 488.721 259.532 486.506 259.532 486.506C259.532 486.506 259.532 487.311 261.543 488.92C263.555 490.529 265.567 491.334 268.786 491.736C268.786 491.736 274.459 492.22 277.637 491.334C281.038 490.386 282.888 489.102 285.282 486.506C287.997 483.561 289.707 477.252 289.707 477.252C289.707 477.252 290.933 482.098 292.516 484.673L292.633 484.863C294.389 487.72 295.441 489.433 298.149 491.513C299.742 492.736 301.322 493.101 302.575 493.524C303.894 493.97 305.689 494.553 307.805 494.553C311.426 494.553 312.015 493.946 315.047 493.122C317.625 492.422 319.071 489.099 319.071 489.099C319.071 489.099 321.078 491.376 322.583 492.387C323.513 493.012 324.559 493.614 325.508 493.927C327.465 494.571 331.141 495.134 331.141 495.134C331.141 495.134 336.79 495.581 340.403 494.553C344.016 493.524 344.419 493.316 346.43 491.11C347.851 489.553 348.04 486.685 348.04 486.685C348.04 486.685 351.321 489.09 354.075 489.501C357.028 489.941 361.331 489.525 364.141 488.518C366.775 487.574 368.62 486.72 370.579 484.494C372.624 482.171 373.316 480.403 374.192 477.431C375.214 473.964 374.972 470.966 374.594 467.372C374.26 464.185 372.985 459.727 372.985 459.727C372.985 459.727 374.961 459.481 376.212 458.342C377.722 456.966 378.224 453.513 378.224 453.513C378.224 453.513 385.822 455.004 390.294 453.513C394.766 452.023 397.654 450.388 399.95 446.271C401.888 442.797 402.046 440.592 401.962 436.615C401.878 432.638 401.414 430.555 399.95 427.361C398.915 425.102 398.079 423.894 396.329 422.13C394.334 420.12 390.294 418.107 390.294 418.107L392.432 414.152C394.57 410.531 395.876 400.562 394.669 395.51C393.462 390.458 373.793 322.98 371.553 318.487C371.553 318.487 213.754 313.526 211.976 318.487C209.865 324.376 185.097 385.297 185.097 391.552C185.097 397.808 185.737 401.545 188.316 407.244Z" fill="#333333"/>
<path d="M188.316 407.244C190.095 411.174 194.351 416.497 194.351 416.497C189.918 416.274 188.114 415.869 183.086 416.497C178.058 417.126 175.315 419.451 172.625 422.13C170.036 424.71 169.374 427.008 168.601 430.58C167.496 435.685 167.767 439.241 170.211 443.857C172.031 447.295 173.694 449.133 177.051 451.099C179.881 452.758 181.845 453.086 185.097 453.513C187.746 453.861 193.136 453.513 193.136 453.513C193.136 453.513 193.635 458.113 195.961 459.951C198.067 461.616 199.745 461.951 202.398 462.365C204.417 462.68 207.629 462.365 207.629 462.365C207.629 462.365 206.348 468.128 207.218 471.798C207.724 473.927 207.795 475.903 208.828 477.833C210.461 480.884 212.047 483.063 214.461 484.673C216.875 486.282 218.484 486.685 221.301 487.087C224.117 487.489 226.256 486.854 228.543 486.282C230.588 485.771 233.371 482.661 233.371 482.661C233.371 482.661 233.638 483.702 234.176 485.477C234.642 487.015 235.713 488.863 236.59 489.501C239.282 491.46 240.537 492.24 243.832 492.72C246.32 493.082 248.576 492.997 251.074 492.72C253.802 492.417 255.501 491.583 257.52 489.725C258.61 488.721 259.532 486.506 259.532 486.506C259.532 486.506 259.532 487.311 261.543 488.92C263.555 490.529 265.567 491.334 268.786 491.736C268.786 491.736 274.459 492.22 277.637 491.334C281.038 490.386 282.888 489.102 285.282 486.506C287.997 483.561 289.707 477.252 289.707 477.252C289.707 477.252 290.933 482.098 292.516 484.673L292.633 484.863C294.389 487.72 295.441 489.433 298.149 491.513C299.742 492.736 301.322 493.101 302.575 493.524C303.894 493.97 305.689 494.553 307.805 494.553C311.426 494.553 312.015 493.946 315.047 493.122C317.625 492.422 319.071 489.099 319.071 489.099C319.071 489.099 321.078 491.376 322.583 492.387C323.513 493.012 324.559 493.614 325.508 493.927C327.465 494.571 331.141 495.134 331.141 495.134C331.141 495.134 336.79 495.581 340.403 494.553C344.016 493.524 344.419 493.316 346.43 491.11C347.851 489.553 348.04 486.685 348.04 486.685C348.04 486.685 351.321 489.09 354.075 489.501C357.028 489.941 361.331 489.525 364.141 488.518C366.775 487.574 368.62 486.72 370.579 484.494C372.624 482.171 373.316 480.403 374.192 477.431C375.214 473.964 374.972 470.966 374.594 467.372C374.26 464.185 372.985 459.727 372.985 459.727C372.985 459.727 374.961 459.481 376.212 458.342C377.722 456.966 378.224 453.513 378.224 453.513C378.224 453.513 385.822 455.004 390.294 453.513C394.766 452.023 397.654 450.388 399.95 446.271C401.888 442.797 402.046 440.592 401.962 436.615C401.878 432.638 401.414 430.555 399.95 427.361C398.915 425.102 398.079 423.894 396.329 422.13C394.334 420.12 390.294 418.107 390.294 418.107L392.432 414.152C394.57 410.531 395.876 400.562 394.669 395.51C393.462 390.458 373.793 322.98 371.553 318.487C371.553 318.487 213.754 313.526 211.976 318.487C209.865 324.376 185.097 385.297 185.097 391.552C185.097 397.808 185.737 401.545 188.316 407.244Z" stroke="#0E0E0E" stroke-width="5"/>
<path d="M188.316 407.244C190.095 411.174 194.351 416.497 194.351 416.497C189.918 416.274 188.114 415.869 183.086 416.497C178.058 417.126 175.315 419.451 172.625 422.13C170.036 424.71 169.374 427.008 168.601 430.58C167.496 435.685 167.767 439.241 170.211 443.857C172.031 447.295 173.694 449.133 177.051 451.099C179.881 452.758 181.845 453.086 185.097 453.513C187.746 453.861 193.136 453.513 193.136 453.513C193.136 453.513 193.635 458.113 195.961 459.951C198.067 461.616 199.745 461.951 202.398 462.365C204.417 462.68 207.629 462.365 207.629 462.365C207.629 462.365 206.348 468.128 207.218 471.798C207.724 473.927 207.795 475.903 208.828 477.833C210.461 480.884 212.047 483.063 214.461 484.673C216.875 486.282 218.484 486.685 221.301 487.087C224.117 487.489 226.256 486.854 228.543 486.282C230.588 485.771 233.371 482.661 233.371 482.661C233.371 482.661 233.638 483.702 234.176 485.477C234.642 487.015 235.713 488.863 236.59 489.501C239.282 491.46 240.537 492.24 243.832 492.72C246.32 493.082 248.576 492.997 251.074 492.72C253.802 492.417 255.501 491.583 257.52 489.725C258.61 488.721 259.532 486.506 259.532 486.506C259.532 486.506 259.532 487.311 261.543 488.92C263.555 490.529 265.567 491.334 268.786 491.736C268.786 491.736 274.459 492.22 277.637 491.334C281.038 490.386 282.888 489.102 285.282 486.506C287.997 483.561 289.707 477.252 289.707 477.252C289.707 477.252 290.933 482.098 292.516 484.673L292.633 484.863C294.389 487.72 295.441 489.433 298.149 491.513C299.742 492.736 301.322 493.101 302.575 493.524C303.894 493.97 305.689 494.553 307.805 494.553C311.426 494.553 312.015 493.946 315.047 493.122C317.625 492.422 319.071 489.099 319.071 489.099C319.071 489.099 321.078 491.376 322.583 492.387C323.513 493.012 324.559 493.614 325.508 493.927C327.465 494.571 331.141 495.134 331.141 495.134C331.141 495.134 336.79 495.581 340.403 494.553C344.016 493.524 344.419 493.316 346.43 491.11C347.851 489.553 348.04 486.685 348.04 486.685C348.04 486.685 351.321 489.09 354.075 489.501C357.028 489.941 361.331 489.525 364.141 488.518C366.775 487.574 368.62 486.72 370.579 484.494C372.624 482.171 373.316 480.403 374.192 477.431C375.214 473.964 374.972 470.966 374.594 467.372C374.26 464.185 372.985 459.727 372.985 459.727C372.985 459.727 374.961 459.481 376.212 458.342C377.722 456.966 378.224 453.513 378.224 453.513C378.224 453.513 385.822 455.004 390.294 453.513C394.766 452.023 397.654 450.388 399.95 446.271C401.888 442.797 402.046 440.592 401.962 436.615C401.878 432.638 401.414 430.555 399.95 427.361C398.915 425.102 398.079 423.894 396.329 422.13C394.334 420.12 390.294 418.107 390.294 418.107L392.432 414.152C394.57 410.531 395.876 400.562 394.669 395.51C393.462 390.458 373.793 322.98 371.553 318.487C371.553 318.487 213.754 313.526 211.976 318.487C209.865 324.376 185.097 385.297 185.097 391.552C185.097 397.808 185.737 401.545 188.316 407.244Z" stroke="black" stroke-opacity="0.2" stroke-width="5"/>
<path d="M275.626 454.098C268.276 454.847 256.5 456.261 256.5 456.261C256.5 456.261 242.527 454.247 236.444 448.726C232.234 444.906 230.369 442.925 227.525 438.575C224.485 433.925 223.184 431.147 221.36 425.795C219.537 420.442 219.432 417.556 219.235 412.145C219.037 406.733 220.387 399.097 220.387 399.097C220.387 399.097 221.893 392.497 223.665 388.502C226.611 381.859 229.277 378.378 234.496 372.934C239.195 368.032 242.304 365.513 248.343 361.953C255.621 357.663 260.413 356.065 268.813 353.982C278.951 351.468 285.112 351.025 295.591 351.561C304.05 351.994 309.983 352.469 317.977 354.91C325.972 357.35 330.92 358.65 337.871 362.772C343.65 366.199 347.761 369.004 352.464 373.544C357.843 378.737 359.665 382.809 362.559 389.39C365.011 394.966 365.594 400.365 366.141 406.345C366.76 413.11 365.873 416.046 364.444 421.517C363.015 426.988 361.523 429.357 358.074 435.262C354.626 441.168 353.665 442.164 349.905 445.675C346.454 448.898 343.504 450.691 339.179 452.93C334.954 455.117 327.521 456.967 327.521 456.967C327.521 456.967 318.212 455.391 311.01 454.593C303.808 453.794 300.281 453.374 293.527 453.117C286.547 452.851 282.576 453.389 275.626 454.098Z" fill="white" stroke="#504B4F" stroke-width="5"/>
<path d="M158.928 254.628C158.644 253.113 157.919 248.226 158.928 241.153C159.937 234.079 158.928 235.429 165.993 214.713C186.4 154.87 221.531 103.051 292.374 103.051C363.217 103.051 398.348 154.87 418.756 214.713C425.82 235.429 424.811 234.079 425.82 241.153C426.829 248.226 427.763 253.113 427.48 254.628C427.196 256.144 427.48 264.269 425.82 268.743C424.161 273.217 421.279 280.902 408.159 292.018C376.191 319.103 334.775 334.965 292.374 334.965C249.973 334.965 208.557 319.103 176.589 292.018C165.993 279.928 165.101 273.963 162.014 268.743C158.928 263.523 158.928 254.628 158.928 254.628Z" fill="white"/>
<path d="M158.928 254.628C158.644 253.113 157.919 248.226 158.928 241.153C159.937 234.079 158.928 235.429 165.993 214.713C186.4 154.87 221.531 103.051 292.374 103.051C363.217 103.051 398.348 154.87 418.756 214.713C425.82 235.429 424.811 234.079 425.82 241.153C426.829 248.226 427.763 253.113 427.48 254.628C427.196 256.144 427.48 264.269 425.82 268.743C424.161 273.217 421.279 280.902 408.159 292.018C376.191 319.103 334.775 334.965 292.374 334.965C249.973 334.965 208.557 319.103 176.589 292.018C165.993 279.928 165.101 273.963 162.014 268.743C158.928 263.523 158.928 254.628 158.928 254.628Z" stroke="white" stroke-width="5"/>
<path d="M158.928 254.628C158.644 253.113 157.919 248.226 158.928 241.153C159.937 234.079 158.928 235.429 165.993 214.713C186.4 154.87 221.531 103.051 292.374 103.051C363.217 103.051 398.348 154.87 418.756 214.713C425.82 235.429 424.811 234.079 425.82 241.153C426.829 248.226 427.763 253.113 427.48 254.628C427.196 256.144 427.48 264.269 425.82 268.743C424.161 273.217 421.279 280.902 408.159 292.018C376.191 319.103 334.775 334.965 292.374 334.965C249.973 334.965 208.557 319.103 176.589 292.018C165.993 279.928 165.101 273.963 162.014 268.743C158.928 263.523 158.928 254.628 158.928 254.628Z" stroke="black" stroke-opacity="0.2" stroke-width="5"/>
<path fill-rule="evenodd" clip-rule="evenodd" d="M440.136 244.72C440.136 244.72 440.13 244.728 440.113 244.745C440.127 244.728 440.136 244.72 440.136 244.72ZM435.909 269.912C435.909 269.912 435.906 269.906 435.9 269.891C435.906 269.904 435.909 269.912 435.909 269.912Z" fill="#452210"/>
<path d="M297.689 270.002C297.689 271.109 294.997 272.006 291.676 272.006C288.356 272.006 285.664 271.109 285.664 270.002C285.664 268.895 288.356 267.997 291.676 267.997C294.997 267.997 297.689 268.895 297.689 270.002Z" fill="white" fill-opacity="0.5"/>
<path d="M292.297 284.436V302.546M292.297 302.546C292.297 302.546 286.723 307.972 282.177 308.405C276.71 308.926 269.394 302.546 269.394 302.546M292.297 302.546C292.297 302.546 297.859 308.126 302.417 308.405C307.524 308.717 314.135 302.546 314.135 302.546" stroke="black" stroke-width="5" stroke-linecap="round"/>
<ellipse cx="27.5734" cy="37.0341" rx="27.5734" ry="37.0341" transform="matrix(-0.998648 0.0519817 0.0519817 0.998648 379.228 184.881)" fill="black" stroke="#504B4F"/>
<ellipse cx="27.5734" cy="37.0341" rx="27.5734" ry="37.0341" transform="matrix(-0.998648 0.0519817 0.0519817 0.998648 256.934 184.881)" fill="black" stroke="#504B4F"/>
<ellipse cx="16.5441" cy="22.2204" rx="16.5441" ry="22.2204" transform="matrix(-0.998648 0.0519817 0.0519817 0.998648 372.508 200.318)" fill="white" stroke="#5B595B"/>
<ellipse cx="16.5441" cy="22.2204" rx="16.5441" ry="22.2204" transform="matrix(-0.998648 0.0519817 0.0519817 0.998648 250.214 200.319)" fill="white" stroke="#5B595B"/>
<ellipse cx="11.0294" cy="14.8136" rx="11.0294" ry="14.8136" transform="matrix(-0.998648 0.0519817 0.0519817 0.998648 251.832 204.04)" fill="#1F1F1F" stroke="#5B595B"/>
<ellipse cx="11.0294" cy="14.8136" rx="11.0294" ry="14.8136" transform="matrix(-0.998648 0.0519817 0.0519817 0.998648 372.634 204.04)" fill="#1F1F1F" stroke="#5B595B"/>
<path d="M288.013 288.371C290.973 290.136 294.681 290.056 297.562 288.164L314.802 276.845C320.239 273.275 319.979 265.629 313.851 263.448C308.247 261.453 301.047 259.598 292.852 259.113C285.23 258.661 276.991 260.677 270.237 263.028C263.693 265.306 263.409 273.699 269.36 277.248L288.013 288.371Z" fill="#403E3E"/>
<path d="M299.221 267.5C299.221 268.873 295.882 269.986 291.764 269.986C287.646 269.986 284.307 268.873 284.307 267.5C284.307 266.127 287.646 265.014 291.764 265.014C295.882 265.014 299.221 266.127 299.221 267.5Z" fill="white" fill-opacity="0.5"/>
<path d="M247.573 172.068C247.573 177.437 234.379 172.068 229.346 172.068C224.313 172.068 212.638 171.297 212.638 165.928C212.638 160.56 215.17 154.672 229.346 154.672C243.522 154.672 247.573 166.699 247.573 172.068Z" fill="#AFADAD"/>
<path d="M338.486 172.068C338.486 177.437 351.68 172.068 356.713 172.068C361.746 172.068 373.42 171.297 373.42 165.928C373.42 160.56 370.889 154.672 356.713 154.672C342.536 154.672 338.486 166.699 338.486 172.068Z" fill="#AFADAD"/>
<ellipse cx="371.469" cy="276.143" rx="18.6422" ry="9.61701" fill="#F8BBBB"/>
<ellipse cx="219.349" cy="276.143" rx="18.6422" ry="9.61701" fill="#F8BBBB"/>
<path d="M189.626 451.466C192.103 451.654 197.106 451.466 197.106 451.466C197.106 451.466 197.911 456.068 199.52 457.275C201.583 458.822 203.844 459.532 206.36 460.091C209.981 460.896 210.781 460.091 213.766 460.091C216.595 460.091 218.504 458.992 221.009 457.677C222.88 456.695 224.63 454.459 224.63 454.459C224.63 454.459 228.742 457.663 231.872 458.482C235.064 459.318 237.145 459.376 240.321 458.482C243.304 457.642 244.966 456.647 247.161 454.459C249.799 451.829 250.734 449.517 251.989 446.009C253.495 441.802 253.902 439.203 253.599 434.744C253.272 429.935 252.667 426.773 249.575 423.076C247.781 420.93 246.41 419.968 243.942 418.65C240.379 416.747 233.884 416.236 233.884 416.236H227.044C227.044 416.236 224.037 412.512 221.009 411.408C218.352 410.439 214.004 409.798 214.004 409.798C211.019 409.798 209.981 409.396 207.164 410.201C204.348 411.005 202.659 411.819 200.891 413.822C200.262 414.535 199.118 416.236 199.118 416.236L197.673 418.65L191.473 418.248C189.546 418.248 188.434 418.112 186.645 418.248C185.808 418.311 184.195 418.394 183.426 418.65C181.834 419.18 180.715 419.844 179 421.064C178.114 421.695 176.48 423.111 175.781 424.283C173.869 427.491 172.965 428.306 172.563 432.33C172.263 435.323 172.255 437.328 172.965 439.17C173.535 440.649 174.051 442.381 175.379 444.4C176.556 446.189 177.566 447.195 178.817 448.021C179.847 448.701 181.039 449.259 182.621 450.033C185.259 451.322 186.645 451.24 189.626 451.466Z" fill="white" stroke="#333333" stroke-width="5"/>
<path d="M339.306 450.849C341.815 450.659 347.39 448.438 347.39 448.438C347.39 448.438 348.807 451.785 350.781 452.665C353.106 453.702 354.418 454.94 356.981 455.364C360.671 455.974 362.86 457.151 365.883 457.059C368.748 456.972 371.918 456.973 375.137 455.364C378.356 453.755 379.161 449.012 379.161 449.012C379.161 449.012 381.7 450.818 384.892 451.456C387.129 451.903 387.665 451.609 390.857 450.711C392.384 450.281 393.863 449.25 394.852 448.667C395.806 448.105 397.055 447.357 398.071 446.196C399.16 444.952 399.444 444.31 399.892 443.782C400.485 442.172 400.485 442.575 400.887 440.161C401.025 439.333 401.255 437.747 401.29 437.344C401.525 434.605 401.29 436.54 401.29 432.919C401.29 428.895 399.291 426.256 396.059 423.038C394.183 421.17 392.559 420.344 390.024 419.239C386.363 417.643 384.829 416.886 381.457 416.932C379.261 416.961 378.356 417.227 375.942 418.032C375.942 418.032 374.539 416.332 373.125 414.811C371.956 413.553 369.7 412.147 368.297 411.742C365.58 410.955 362.262 410.862 362.262 410.862C359.238 410.954 358.488 410.934 355.657 411.742C352.826 412.549 349.632 414.811 349.632 414.811L346.503 419.236L338.288 417.321C335.423 417.408 333.398 417.469 330.974 418.265C328.551 419.06 325.38 420.761 323.396 423.907C321.547 426.841 321.009 429.301 320.806 432.646C320.511 437.505 320.877 440.488 324.02 444.457C326.281 447.312 328.34 448.562 331.938 449.99C334.644 451.064 336.34 451.073 339.306 450.849Z" fill="white" stroke="#333333" stroke-width="5"/>
<path d="M312.26 492.99C314.665 492.437 318.898 489.063 318.898 489.063C318.898 489.063 322.237 491.738 324.129 492.684C326.543 493.891 327.347 494.293 330.05 494.704C333.674 495.254 334.489 494.829 337.406 494.293C340.17 493.786 341.317 492.375 343.558 490.802C345.233 489.626 346.591 487.4 346.591 487.4C346.591 487.4 351.113 489.402 354.3 489.541C357.55 489.683 359.593 489.36 362.556 488.026C365.339 486.773 366.807 485.623 368.608 483.359C370.773 480.637 371.324 478.492 372 475.268C372.811 471.4 372.801 469.105 371.805 465.347C370.731 461.293 369.644 458.698 366.042 456.091C363.951 454.578 362.461 454.002 359.843 453.317C356.062 452.33 349.635 453.057 349.635 453.057L342.951 454.284C342.951 454.284 339.429 451.64 336.296 451.238C333.548 450.886 328.967 451.161 328.967 451.161C326.049 451.697 325.035 451.883 322.409 453.076C319.783 454.269 317.017 456.911 317.017 456.911L314.63 461.616L306.387 460.996C303.624 461.503 301.67 461.862 299.437 462.983C297.204 464.104 294.378 466.204 292.914 469.514C291.549 472.6 291.387 475.039 291.678 478.276C292.1 482.978 292.889 485.784 296.514 489.124C299.121 491.527 301.298 492.421 304.994 493.257C307.773 493.886 309.419 493.644 312.26 492.99Z" fill="white" stroke="#333333" stroke-width="5"/>
<path d="M226.358 486.648C228.822 486.513 234.003 483.027 234.003 483.027C234.003 483.027 234.807 485.441 236.014 487.286C237.327 489.291 238.428 490.672 240.842 491.476C244.362 492.649 245.606 492.519 248.556 492.209C251.706 491.879 252.448 491.437 254.925 490.269C256.775 489.396 259.35 486.246 259.35 486.246C259.35 486.246 260.01 487.417 261.464 488.66C262.875 489.867 264.655 491.141 266.19 491.476C267.776 491.823 270.204 492.055 272.225 491.879C274.255 491.702 276.282 491.479 277.858 491.074C280.814 490.314 281.988 488.826 283.893 486.648C286.71 483.429 286.778 482.409 287.917 479.004C289.166 475.27 289.312 472.777 288.972 468.904C288.605 464.727 287.976 461.985 284.872 458.802C283.07 456.954 281.7 456.132 279.237 455.011C275.68 453.393 269.223 453.014 269.223 453.014L262.428 453.083C262.428 453.083 259.408 449.877 256.39 448.947C253.741 448.131 249.181 447.621 249.181 447.621C246.215 447.651 245.184 447.662 242.393 448.389C239.602 449.117 238.375 449.552 236.425 451.248C234.871 452.601 233.27 455.478 233.27 455.478C233.27 455.478 228.363 453.225 225.553 453.253C222.744 453.282 221.105 453.334 218.713 454.058C216.322 454.782 214.685 455.874 212.678 458.886C210.807 461.694 209.862 464.729 209.862 467.979C209.862 472.566 210.184 475.422 212.276 479.493C213.06 481.02 213.853 482.126 214.69 483.027C215.57 483.975 216.518 484.696 218.311 485.441C220.942 486.535 223.447 486.807 226.358 486.648Z" fill="white" stroke="#333333" stroke-width="5"/>
<ellipse cx="368.487" cy="213.582" rx="3.72844" ry="3.72844" fill="white"/>
<ellipse cx="368.487" cy="213.582" rx="3.72844" ry="3.72844" fill="white"/>
<ellipse cx="368.487" cy="213.582" rx="3.72844" ry="3.72844" fill="white"/>
<ellipse cx="368.487" cy="213.582" rx="3.72844" ry="3.72844" fill="white"/>
<ellipse cx="247.685" cy="213.582" rx="3.72844" ry="3.72844" fill="white"/>
<ellipse cx="247.685" cy="213.582" rx="3.72844" ry="3.72844" fill="white"/>
<ellipse cx="247.685" cy="213.582" rx="3.72844" ry="3.72844" fill="white"/>
<ellipse cx="247.685" cy="213.582" rx="3.72844" ry="3.72844" fill="white"/>
</svg>
