<svg width="600" height="600" viewBox="0 0 600 600" fill="none" xmlns="http://www.w3.org/2000/svg">
<path d="M467.324 150.896C524.723 184.292 452.543 224.679 432.51 255.414C406.925 294.668 414.498 294.668 422.445 350.898C430.275 406.307 352.583 467.322 302.337 438.087C254.47 410.236 308.013 366.458 322.671 322.606C337.328 278.754 322.671 238.995 345.627 210.855C374.008 176.066 418.365 122.409 467.324 150.896Z" fill="#F97B3A"/>
<path d="M383.352 428.192C359 390.509 340.878 375.832 299.975 362.048C309.021 347.836 313.636 339.78 320.155 325.086C361.331 341.356 383.636 352.84 421.235 379.91C410.456 404.733 401.326 414.063 383.352 428.192Z" fill="#982E20"/>
<path d="M335.651 222.665C329.372 242.913 328.932 257.681 328.406 284.308C365.366 279.827 384.435 285.853 417.11 303.505C415.599 290.131 416.248 282.267 428.772 265.463C397.706 238.458 377.606 228.524 335.651 222.665Z" fill="#982E20"/>
<path d="M453.506 234.654C429.258 207.332 411.379 195.059 371.909 178.505C383.769 165.72 392.266 159.307 410.235 149.018C445.611 161.82 460.944 174.253 479.468 206.756L453.506 234.654Z" fill="#982E20"/>
<path fill-rule="evenodd" clip-rule="evenodd" d="M302.032 437.741L297.898 444.845C284.445 437.039 276.818 427.267 274.813 415.523C272.9 404.324 276.432 392.998 281.269 382.601C285.214 374.12 290.527 365.269 295.686 356.676C296.872 354.701 298.05 352.739 299.201 350.798C305.534 340.121 311.229 329.834 314.595 319.79C320.56 301.993 321.366 285.015 322.166 268.161C322.291 265.523 322.417 262.888 322.561 260.253C323.601 241.319 325.681 221.885 339.019 205.581C353.092 188.379 372.028 165.319 393.965 150.352C416.232 135.159 443.133 127.378 471.415 143.788C486.917 152.782 495.687 163.446 497.086 176.054C498.431 188.175 492.591 199.455 485.546 208.97C478.657 218.274 469.468 227.374 461.148 235.612C460.832 235.925 460.518 236.236 460.205 236.546C451.311 245.358 443.742 252.983 439.303 259.776C426.54 279.303 423.249 287.406 423.003 296.827C422.87 301.906 423.627 307.687 425.059 316.214C425.395 318.214 425.766 320.351 426.162 322.639C427.423 329.914 428.949 338.717 430.478 349.504C434.979 381.265 415.026 412.978 388.925 432.48C362.82 451.986 327.097 461.786 297.898 444.845L302.032 437.741ZM455.162 229.968C481.079 204.299 509.984 175.669 467.281 150.892C418.244 122.44 373.817 176.032 345.391 210.779C332.351 226.72 331.428 246.393 330.395 268.427C329.606 285.245 328.753 303.438 322.398 322.397C318.029 335.433 310.21 348.461 302.646 361.066C284.793 390.814 268.358 418.202 302.032 437.741C352.358 466.941 430.174 405.998 422.33 350.655C420.821 340.007 419.326 331.377 418.067 324.117C412.689 293.083 411.645 287.059 432.412 255.285C437.572 247.39 446.188 238.856 455.162 229.968Z" fill="#452210"/>
<path d="M146.947 416.676C148.61 420.349 152.587 425.324 152.587 425.324C148.444 425.115 146.758 424.736 142.059 425.324C137.36 425.911 134.797 428.083 132.283 430.588C129.863 432.998 129.245 435.146 128.523 438.484C127.491 443.255 127.743 446.578 130.027 450.892C131.728 454.105 133.282 455.822 136.419 457.66C139.064 459.21 140.899 459.516 143.939 459.916C146.414 460.241 151.452 459.916 151.452 459.916C151.452 459.916 151.917 464.214 154.091 465.932C156.06 467.488 157.628 467.801 160.107 468.188C161.993 468.482 164.995 468.188 164.995 468.188C164.995 468.188 163.799 473.574 164.612 477.003C165.084 478.993 165.15 480.84 166.116 482.643C167.642 485.494 169.124 487.531 171.38 489.035C173.636 490.539 175.14 490.915 177.772 491.291C180.404 491.667 182.403 491.073 184.54 490.539C186.451 490.061 189.052 487.155 189.052 487.155C189.052 487.155 189.301 488.128 189.804 489.787C190.239 491.224 191.241 492.951 192.06 493.547C194.575 495.378 195.749 496.107 198.828 496.555C201.153 496.894 203.261 496.814 205.596 496.555C208.145 496.273 209.733 495.493 211.62 493.756C212.639 492.818 213.5 490.748 213.5 490.748C213.5 490.748 213.5 491.5 215.38 493.004C217.26 494.508 219.14 495.26 222.148 495.636C222.148 495.636 227.449 496.088 230.42 495.26C233.598 494.374 235.327 493.174 237.564 490.748C240.102 487.996 241.7 482.1 241.7 482.1C241.7 482.1 242.845 486.629 244.324 489.035L244.433 489.213C246.074 491.883 247.058 493.484 249.588 495.427C251.077 496.571 252.553 496.911 253.724 497.307C254.957 497.724 256.635 498.268 258.612 498.268C261.996 498.268 262.546 497.701 265.38 496.931C267.789 496.277 269.14 493.171 269.14 493.171C269.14 493.171 271.016 495.3 272.422 496.245C273.292 496.829 274.269 497.391 275.156 497.683C276.985 498.285 280.42 498.811 280.42 498.811C280.42 498.811 285.699 499.229 289.076 498.268C292.453 497.307 292.829 497.112 294.709 495.051C296.036 493.596 296.213 490.915 296.213 490.915C296.213 490.915 299.279 493.163 301.853 493.547C304.612 493.959 308.634 493.57 311.26 492.628C313.721 491.746 315.446 490.948 317.276 488.868C319.187 486.697 319.834 485.045 320.653 482.267C321.608 479.028 321.381 476.226 321.029 472.867C320.716 469.889 319.525 465.723 319.525 465.723C319.525 465.723 321.371 465.493 322.54 464.428C323.951 463.143 324.42 459.916 324.42 459.916C324.42 459.916 331.521 461.309 335.7 459.916C339.879 458.523 342.579 456.995 344.724 453.148C346.535 449.901 346.683 447.841 346.604 444.124C346.526 440.407 346.092 438.461 344.724 435.476C343.757 433.365 342.976 432.236 341.34 430.588C339.475 428.709 335.7 426.828 335.7 426.828C335.7 426.828 339.789 423.613 339.789 419.648C339.789 415.683 338.325 395.077 337.197 390.356C336.069 385.635 320.28 337.93 318.186 333.731C318.186 333.731 170.719 329.095 169.057 333.731C167.085 339.234 143.939 396.166 143.939 402.012C143.939 407.858 144.537 411.35 146.947 416.676Z" fill="#FA8441"/>
<path d="M146.947 416.676C148.61 420.349 152.587 425.324 152.587 425.324C148.444 425.115 146.758 424.736 142.059 425.324C137.36 425.911 134.797 428.083 132.283 430.588C129.863 432.998 129.245 435.146 128.523 438.484C127.491 443.255 127.743 446.578 130.027 450.892C131.728 454.105 133.282 455.822 136.419 457.66C139.064 459.21 140.899 459.516 143.939 459.916C146.414 460.241 151.452 459.916 151.452 459.916C151.452 459.916 151.917 464.214 154.091 465.932C156.06 467.488 157.628 467.801 160.107 468.188C161.993 468.482 164.995 468.188 164.995 468.188C164.995 468.188 163.799 473.574 164.612 477.003C165.084 478.993 165.15 480.84 166.116 482.643C167.642 485.494 169.124 487.531 171.38 489.035C173.636 490.539 175.14 490.915 177.772 491.291C180.404 491.667 182.403 491.073 184.54 490.539C186.451 490.061 189.052 487.155 189.052 487.155C189.052 487.155 189.301 488.128 189.804 489.787C190.239 491.224 191.241 492.951 192.06 493.547C194.575 495.378 195.749 496.107 198.828 496.555C201.153 496.894 203.261 496.814 205.596 496.555C208.145 496.273 209.733 495.493 211.62 493.756C212.639 492.818 213.5 490.748 213.5 490.748C213.5 490.748 213.5 491.5 215.38 493.004C217.26 494.508 219.14 495.26 222.148 495.636C222.148 495.636 227.449 496.088 230.42 495.26C233.598 494.374 235.327 493.174 237.564 490.748C240.102 487.996 241.7 482.1 241.7 482.1C241.7 482.1 242.845 486.629 244.324 489.035L244.433 489.213C246.074 491.883 247.058 493.484 249.588 495.427C251.077 496.571 252.553 496.911 253.724 497.307C254.957 497.724 256.635 498.268 258.612 498.268C261.996 498.268 262.546 497.701 265.38 496.931C267.789 496.277 269.14 493.171 269.14 493.171C269.14 493.171 271.016 495.3 272.422 496.245C273.292 496.829 274.269 497.391 275.156 497.683C276.985 498.285 280.42 498.811 280.42 498.811C280.42 498.811 285.699 499.229 289.076 498.268C292.453 497.307 292.829 497.112 294.709 495.051C296.036 493.596 296.213 490.915 296.213 490.915C296.213 490.915 299.279 493.163 301.853 493.547C304.612 493.959 308.634 493.57 311.26 492.628C313.721 491.746 315.446 490.948 317.276 488.868C319.187 486.697 319.834 485.045 320.653 482.267C321.608 479.028 321.381 476.226 321.029 472.867C320.716 469.889 319.525 465.723 319.525 465.723C319.525 465.723 321.371 465.493 322.54 464.428C323.951 463.143 324.42 459.916 324.42 459.916C324.42 459.916 331.521 461.309 335.7 459.916C339.879 458.523 342.579 456.995 344.724 453.148C346.535 449.901 346.683 447.841 346.604 444.124C346.526 440.407 346.092 438.461 344.724 435.476C343.757 433.365 342.976 432.236 341.34 430.588C339.475 428.709 335.7 426.828 335.7 426.828C335.7 426.828 339.789 423.613 339.789 419.648C339.789 415.683 338.325 395.077 337.197 390.356C336.069 385.635 320.28 337.93 318.186 333.731C318.186 333.731 170.719 329.095 169.057 333.731C167.085 339.234 143.939 396.166 143.939 402.012C143.939 407.858 144.537 411.35 146.947 416.676Z" stroke="#FB8545" stroke-width="5"/>
<path d="M146.947 416.676C148.61 420.349 152.587 425.324 152.587 425.324C148.444 425.115 146.758 424.736 142.059 425.324C137.36 425.911 134.797 428.083 132.283 430.588C129.863 432.998 129.245 435.146 128.523 438.484C127.491 443.255 127.743 446.578 130.027 450.892C131.728 454.105 133.282 455.822 136.419 457.66C139.064 459.21 140.899 459.516 143.939 459.916C146.414 460.241 151.452 459.916 151.452 459.916C151.452 459.916 151.917 464.214 154.091 465.932C156.06 467.488 157.628 467.801 160.107 468.188C161.993 468.482 164.995 468.188 164.995 468.188C164.995 468.188 163.799 473.574 164.612 477.003C165.084 478.993 165.15 480.84 166.116 482.643C167.642 485.494 169.124 487.531 171.38 489.035C173.636 490.539 175.14 490.915 177.772 491.291C180.404 491.667 182.403 491.073 184.54 490.539C186.451 490.061 189.052 487.155 189.052 487.155C189.052 487.155 189.301 488.128 189.804 489.787C190.239 491.224 191.241 492.951 192.06 493.547C194.575 495.378 195.749 496.107 198.828 496.555C201.153 496.894 203.261 496.814 205.596 496.555C208.145 496.273 209.733 495.493 211.62 493.756C212.639 492.818 213.5 490.748 213.5 490.748C213.5 490.748 213.5 491.5 215.38 493.004C217.26 494.508 219.14 495.26 222.148 495.636C222.148 495.636 227.449 496.088 230.42 495.26C233.598 494.374 235.327 493.174 237.564 490.748C240.102 487.996 241.7 482.1 241.7 482.1C241.7 482.1 242.845 486.629 244.324 489.035L244.433 489.213C246.074 491.883 247.058 493.484 249.588 495.427C251.077 496.571 252.553 496.911 253.724 497.307C254.957 497.724 256.635 498.268 258.612 498.268C261.996 498.268 262.546 497.701 265.38 496.931C267.789 496.277 269.14 493.171 269.14 493.171C269.14 493.171 271.016 495.3 272.422 496.245C273.292 496.829 274.269 497.391 275.156 497.683C276.985 498.285 280.42 498.811 280.42 498.811C280.42 498.811 285.699 499.229 289.076 498.268C292.453 497.307 292.829 497.112 294.709 495.051C296.036 493.596 296.213 490.915 296.213 490.915C296.213 490.915 299.279 493.163 301.853 493.547C304.612 493.959 308.634 493.57 311.26 492.628C313.721 491.746 315.446 490.948 317.276 488.868C319.187 486.697 319.834 485.045 320.653 482.267C321.608 479.028 321.381 476.226 321.029 472.867C320.716 469.889 319.525 465.723 319.525 465.723C319.525 465.723 321.371 465.493 322.54 464.428C323.951 463.143 324.42 459.916 324.42 459.916C324.42 459.916 331.521 461.309 335.7 459.916C339.879 458.523 342.579 456.995 344.724 453.148C346.535 449.901 346.683 447.841 346.604 444.124C346.526 440.407 346.092 438.461 344.724 435.476C343.757 433.365 342.976 432.236 341.34 430.588C339.475 428.709 335.7 426.828 335.7 426.828C335.7 426.828 339.789 423.613 339.789 419.648C339.789 415.683 338.325 395.077 337.197 390.356C336.069 385.635 320.28 337.93 318.186 333.731C318.186 333.731 170.719 329.095 169.057 333.731C167.085 339.234 143.939 396.166 143.939 402.012C143.939 407.858 144.537 411.35 146.947 416.676Z" stroke="black" stroke-opacity="0.2" stroke-width="5"/>
<path d="M222.595 468.006C215.492 468.789 204.112 470.277 204.112 470.277C204.112 470.277 190.594 468.021 184.687 461.981C180.6 457.802 178.788 455.636 176.019 450.885C173.059 445.807 171.788 442.776 170.001 436.938C168.215 431.101 168.1 427.957 167.885 422.062C167.67 416.167 168.942 407.857 168.942 407.857C168.942 407.857 170.368 400.675 172.063 396.331C174.881 389.109 177.444 385.33 182.465 379.424C186.987 374.106 189.982 371.376 195.805 367.526C202.823 362.886 207.449 361.167 215.561 358.936C225.352 356.243 231.306 355.788 241.441 356.419C249.621 356.928 255.36 357.471 263.1 360.165C270.841 362.859 275.631 364.297 282.37 368.817C287.973 372.575 291.96 375.649 296.527 380.615C301.751 386.295 303.531 390.737 306.358 397.918C308.754 404.002 309.342 409.885 309.898 416.401C310.526 423.771 309.682 426.965 308.325 432.917C306.967 438.87 305.535 441.443 302.227 447.86C298.919 454.277 297.995 455.357 294.375 459.164C291.052 462.659 288.208 464.599 284.036 467.018C279.961 469.381 272.783 471.363 272.783 471.363C272.783 471.363 263.775 469.605 256.808 468.704C249.841 467.802 246.43 467.329 239.898 467.018C233.149 466.697 229.312 467.266 222.595 468.006Z" fill="#FEFFFB"/>
<path d="M148.249 457.791C150.564 457.966 155.239 457.791 155.239 457.791C155.239 457.791 155.991 462.091 157.495 463.219C159.423 464.665 161.536 465.329 163.887 465.851C167.271 466.603 168.019 465.851 170.809 465.851C173.452 465.851 175.237 464.823 177.577 463.595C179.326 462.677 180.961 460.587 180.961 460.587C180.961 460.587 184.804 463.581 187.729 464.347C190.712 465.128 192.657 465.183 195.625 464.347C198.413 463.562 199.966 462.632 202.017 460.587C204.482 458.129 205.356 455.969 206.529 452.691C207.936 448.759 208.316 446.33 208.033 442.163C207.728 437.669 207.163 434.714 204.273 431.259C202.596 429.253 201.315 428.354 199.009 427.123C195.679 425.345 189.609 424.867 189.609 424.867H183.217C183.217 424.867 180.407 421.387 177.577 420.355C175.094 419.449 171.031 418.851 171.031 418.851C168.241 418.851 167.271 418.475 164.639 419.227C162.007 419.979 160.429 420.739 158.777 422.611C158.189 423.277 157.119 424.867 157.119 424.867L155.769 427.123L149.975 426.747C148.174 426.747 147.135 426.62 145.463 426.747C144.681 426.806 143.174 426.883 142.455 427.123C140.968 427.619 139.921 428.238 138.319 429.379C137.491 429.968 135.964 431.291 135.311 432.387C133.524 435.385 132.679 436.147 132.303 439.907C132.023 442.704 132.016 444.578 132.679 446.299C133.212 447.682 133.694 449.3 134.935 451.187C136.035 452.859 136.979 453.799 138.148 454.571C139.11 455.206 140.224 455.728 141.703 456.451C144.168 457.656 145.463 457.579 148.249 457.791Z" fill="#682A21"/>
<path d="M148.249 457.791C150.564 457.966 155.239 457.791 155.239 457.791C155.239 457.791 155.991 462.091 157.495 463.219C159.423 464.665 161.536 465.329 163.887 465.851C167.271 466.603 168.019 465.851 170.809 465.851C173.452 465.851 175.237 464.823 177.577 463.595C179.326 462.677 180.961 460.587 180.961 460.587C180.961 460.587 184.804 463.581 187.729 464.347C190.712 465.128 192.657 465.183 195.625 464.347C198.413 463.562 199.966 462.632 202.017 460.587C204.482 458.129 205.356 455.969 206.529 452.691C207.936 448.759 208.316 446.33 208.033 442.163C207.728 437.669 207.163 434.714 204.273 431.259C202.596 429.253 201.315 428.354 199.009 427.123C195.679 425.345 189.609 424.867 189.609 424.867H183.217C183.217 424.867 180.407 421.387 177.577 420.355C175.094 419.449 171.031 418.851 171.031 418.851C168.241 418.851 167.271 418.475 164.639 419.227C162.007 419.979 160.429 420.739 158.777 422.611C158.189 423.277 157.119 424.867 157.119 424.867L155.769 427.123L149.975 426.747C148.174 426.747 147.135 426.62 145.463 426.747C144.681 426.806 143.174 426.883 142.455 427.123C140.968 427.619 139.921 428.238 138.319 429.379C137.491 429.968 135.964 431.291 135.311 432.387C133.524 435.385 132.679 436.147 132.303 439.907C132.023 442.704 132.016 444.578 132.679 446.299C133.212 447.682 133.694 449.3 134.935 451.187C136.035 452.859 136.979 453.799 138.148 454.571C139.11 455.206 140.224 455.728 141.703 456.451C144.168 457.656 145.463 457.579 148.249 457.791Z" stroke="#682A21" stroke-width="5"/>
<path d="M148.249 457.791C150.564 457.966 155.239 457.791 155.239 457.791C155.239 457.791 155.991 462.091 157.495 463.219C159.423 464.665 161.536 465.329 163.887 465.851C167.271 466.603 168.019 465.851 170.809 465.851C173.452 465.851 175.237 464.823 177.577 463.595C179.326 462.677 180.961 460.587 180.961 460.587C180.961 460.587 184.804 463.581 187.729 464.347C190.712 465.128 192.657 465.183 195.625 464.347C198.413 463.562 199.966 462.632 202.017 460.587C204.482 458.129 205.356 455.969 206.529 452.691C207.936 448.759 208.316 446.33 208.033 442.163C207.728 437.669 207.163 434.714 204.273 431.259C202.596 429.253 201.315 428.354 199.009 427.123C195.679 425.345 189.609 424.867 189.609 424.867H183.217C183.217 424.867 180.407 421.387 177.577 420.355C175.094 419.449 171.031 418.851 171.031 418.851C168.241 418.851 167.271 418.475 164.639 419.227C162.007 419.979 160.429 420.739 158.777 422.611C158.189 423.277 157.119 424.867 157.119 424.867L155.769 427.123L149.975 426.747C148.174 426.747 147.135 426.62 145.463 426.747C144.681 426.806 143.174 426.883 142.455 427.123C140.968 427.619 139.921 428.238 138.319 429.379C137.491 429.968 135.964 431.291 135.311 432.387C133.524 435.385 132.679 436.147 132.303 439.907C132.023 442.704 132.016 444.578 132.679 446.299C133.212 447.682 133.694 449.3 134.935 451.187C136.035 452.859 136.979 453.799 138.148 454.571C139.11 455.206 140.224 455.728 141.703 456.451C144.168 457.656 145.463 457.579 148.249 457.791Z" stroke="black" stroke-opacity="0.2" stroke-width="5"/>
<path d="M293.246 454.342C293.246 454.342 288.036 456.418 285.691 456.595C282.92 456.804 281.334 456.796 278.805 455.792C275.443 454.458 273.519 453.29 271.406 450.621C268.468 446.912 268.127 444.125 268.403 439.584C268.592 436.458 269.094 434.159 270.823 431.417C272.676 428.477 275.64 426.887 277.905 426.144C280.169 425.401 282.062 425.343 284.739 425.262L292.417 427.052L295.341 422.917C295.341 422.917 298.326 420.803 300.971 420.048C303.617 419.294 304.318 419.312 307.144 419.227C307.144 419.227 310.245 419.313 312.784 420.048C314.095 420.428 316.203 421.741 317.296 422.917C318.617 424.338 319.928 425.927 319.928 425.927C322.184 425.175 323.03 424.926 325.082 424.899C328.233 424.856 329.667 425.564 333.088 427.055C335.457 428.087 336.975 428.86 338.728 430.605C341.749 433.612 343.616 436.079 343.616 439.839C343.616 443.223 343.836 441.415 343.616 443.975C343.584 444.351 343.369 445.833 343.24 446.607C342.864 448.863 342.864 448.487 342.31 449.991C341.891 450.485 341.626 451.084 340.608 452.247C339.659 453.331 338.492 454.031 337.6 454.556C336.675 455.1 335.643 455.456 334.216 455.858C331.233 456.698 328.842 456.466 325.8 455.858C322.967 455.292 322.932 454.918 322.936 454.882C322.913 455.01 322.14 459.333 319.176 460.814C316.168 462.318 313.205 462.317 310.528 462.399C307.702 462.485 305.657 461.384 302.209 460.814C299.814 460.419 298.587 459.261 296.415 458.293C294.57 457.47 293.246 454.342 293.246 454.342Z" fill="#682A21"/>
<path d="M293.246 454.342C293.246 454.342 288.036 456.418 285.691 456.595C282.92 456.804 281.334 456.796 278.805 455.792C275.443 454.458 273.519 453.29 271.406 450.621C268.468 446.912 268.127 444.125 268.403 439.584C268.592 436.458 269.094 434.159 270.823 431.417C272.676 428.477 275.64 426.887 277.905 426.144C280.169 425.401 282.062 425.343 284.739 425.262L292.417 427.052L295.341 422.917C295.341 422.917 298.326 420.803 300.971 420.048C303.617 419.294 304.318 419.312 307.144 419.227C307.144 419.227 310.245 419.313 312.784 420.048C314.095 420.428 316.203 421.741 317.296 422.917C318.617 424.338 319.928 425.927 319.928 425.927C322.184 425.175 323.03 424.926 325.082 424.899C328.233 424.856 329.667 425.564 333.088 427.055C335.457 428.087 336.975 428.86 338.728 430.605C341.749 433.612 343.616 436.079 343.616 439.839C343.616 443.223 343.836 441.415 343.616 443.975C343.584 444.351 343.369 445.833 343.24 446.607C342.864 448.863 342.864 448.487 342.31 449.991C341.891 450.485 341.626 451.084 340.608 452.247C339.659 453.331 338.492 454.031 337.6 454.556C336.675 455.1 335.643 455.456 334.216 455.858C331.233 456.698 328.842 456.466 325.8 455.858C322.967 455.292 322.932 454.918 322.936 454.882C322.913 455.01 322.14 459.333 319.176 460.814C316.168 462.318 313.205 462.317 310.528 462.399C307.702 462.485 305.657 461.384 302.209 460.814C299.814 460.419 298.587 459.261 296.415 458.293C294.57 457.47 293.246 454.342 293.246 454.342Z" stroke="#682A21" stroke-width="5"/>
<path d="M293.246 454.342C293.246 454.342 288.036 456.418 285.691 456.595C282.92 456.804 281.334 456.796 278.805 455.792C275.443 454.458 273.519 453.29 271.406 450.621C268.468 446.912 268.127 444.125 268.403 439.584C268.592 436.458 269.094 434.159 270.823 431.417C272.676 428.477 275.64 426.887 277.905 426.144C280.169 425.401 282.062 425.343 284.739 425.262L292.417 427.052L295.341 422.917C295.341 422.917 298.326 420.803 300.971 420.048C303.617 419.294 304.318 419.312 307.144 419.227C307.144 419.227 310.245 419.313 312.784 420.048C314.095 420.428 316.203 421.741 317.296 422.917C318.617 424.338 319.928 425.927 319.928 425.927C322.184 425.175 323.03 424.926 325.082 424.899C328.233 424.856 329.667 425.564 333.088 427.055C335.457 428.087 336.975 428.86 338.728 430.605C341.749 433.612 343.616 436.079 343.616 439.839C343.616 443.223 343.836 441.415 343.616 443.975C343.584 444.351 343.369 445.833 343.24 446.607C342.864 448.863 342.864 448.487 342.31 449.991C341.891 450.485 341.626 451.084 340.608 452.247C339.659 453.331 338.492 454.031 337.6 454.556C336.675 455.1 335.643 455.456 334.216 455.858C331.233 456.698 328.842 456.466 325.8 455.858C322.967 455.292 322.932 454.918 322.936 454.882C322.913 455.01 322.14 459.333 319.176 460.814C316.168 462.318 313.205 462.317 310.528 462.399C307.702 462.485 305.657 461.384 302.209 460.814C299.814 460.419 298.587 459.261 296.415 458.293C294.57 457.47 293.246 454.342 293.246 454.342Z" stroke="black" stroke-opacity="0.2" stroke-width="5"/>
<path d="M264.092 493.962C266.339 493.445 270.295 490.291 270.295 490.291C270.295 490.291 273.416 492.792 275.183 493.675C277.439 494.803 278.191 495.179 280.717 495.563C284.103 496.077 284.865 495.68 287.592 495.179C290.174 494.705 291.247 493.386 293.341 491.916C294.906 490.818 296.175 488.737 296.175 488.737C296.175 488.737 300.401 490.608 303.379 490.739C306.417 490.871 308.326 490.569 311.095 489.322C313.696 488.151 315.067 487.077 316.751 484.961C318.774 482.417 319.289 480.413 319.921 477.4C320.678 473.785 320.669 471.64 319.738 468.128C318.734 464.34 317.718 461.915 314.352 459.479C312.399 458.065 311.006 457.526 308.559 456.887C305.026 455.963 299.02 456.644 299.02 456.644L292.774 457.79C292.774 457.79 289.482 455.319 286.554 454.944C283.986 454.615 279.705 454.871 279.705 454.871C276.979 455.372 276.031 455.546 273.577 456.661C271.123 457.776 268.538 460.245 268.538 460.245L266.306 464.642L258.604 464.062C256.021 464.536 254.195 464.871 252.108 465.919C250.022 466.966 247.381 468.929 246.013 472.023C244.737 474.907 244.585 477.186 244.857 480.211C245.252 484.605 245.989 487.227 249.376 490.349C251.814 492.594 253.848 493.43 257.302 494.211C259.899 494.799 261.437 494.572 264.092 493.962Z" fill="#682A21"/>
<path d="M264.092 493.962C266.339 493.445 270.295 490.291 270.295 490.291C270.295 490.291 273.416 492.792 275.183 493.675C277.439 494.803 278.191 495.179 280.717 495.563C284.103 496.077 284.865 495.68 287.592 495.179C290.174 494.705 291.247 493.386 293.341 491.916C294.906 490.818 296.175 488.737 296.175 488.737C296.175 488.737 300.401 490.608 303.379 490.739C306.417 490.871 308.326 490.569 311.095 489.322C313.696 488.151 315.067 487.077 316.751 484.961C318.774 482.417 319.289 480.413 319.921 477.4C320.678 473.785 320.669 471.64 319.738 468.128C318.734 464.34 317.718 461.915 314.352 459.479C312.399 458.065 311.006 457.526 308.559 456.887C305.026 455.963 299.02 456.644 299.02 456.644L292.774 457.79C292.774 457.79 289.482 455.319 286.554 454.944C283.986 454.615 279.705 454.871 279.705 454.871C276.979 455.372 276.031 455.546 273.577 456.661C271.123 457.776 268.538 460.245 268.538 460.245L266.306 464.642L258.604 464.062C256.021 464.536 254.195 464.871 252.108 465.919C250.022 466.966 247.381 468.929 246.013 472.023C244.737 474.907 244.585 477.186 244.857 480.211C245.252 484.605 245.989 487.227 249.376 490.349C251.814 492.594 253.848 493.43 257.302 494.211C259.899 494.799 261.437 494.572 264.092 493.962Z" stroke="#682A21" stroke-width="5"/>
<path d="M264.092 493.962C266.339 493.445 270.295 490.291 270.295 490.291C270.295 490.291 273.416 492.792 275.183 493.675C277.439 494.803 278.191 495.179 280.717 495.563C284.103 496.077 284.865 495.68 287.592 495.179C290.174 494.705 291.247 493.386 293.341 491.916C294.906 490.818 296.175 488.737 296.175 488.737C296.175 488.737 300.401 490.608 303.379 490.739C306.417 490.871 308.326 490.569 311.095 489.322C313.696 488.151 315.067 487.077 316.751 484.961C318.774 482.417 319.289 480.413 319.921 477.4C320.678 473.785 320.669 471.64 319.738 468.128C318.734 464.34 317.718 461.915 314.352 459.479C312.399 458.065 311.006 457.526 308.559 456.887C305.026 455.963 299.02 456.644 299.02 456.644L292.774 457.79C292.774 457.79 289.482 455.319 286.554 454.944C283.986 454.615 279.705 454.871 279.705 454.871C276.979 455.372 276.031 455.546 273.577 456.661C271.123 457.776 268.538 460.245 268.538 460.245L266.306 464.642L258.604 464.062C256.021 464.536 254.195 464.871 252.108 465.919C250.022 466.966 247.381 468.929 246.013 472.023C244.737 474.907 244.585 477.186 244.857 480.211C245.252 484.605 245.989 487.227 249.376 490.349C251.814 492.594 253.848 493.43 257.302 494.211C259.899 494.799 261.437 494.572 264.092 493.962Z" stroke="black" stroke-opacity="0.2" stroke-width="5"/>
<path d="M183.815 488.035C186.117 487.909 190.959 484.651 190.959 484.651C190.959 484.651 191.711 486.907 192.839 488.631C194.065 490.505 195.095 491.795 197.351 492.547C200.639 493.643 201.802 493.521 204.559 493.232C207.503 492.923 208.197 492.51 210.511 491.419C212.24 490.603 214.647 487.659 214.647 487.659C214.647 487.659 215.263 488.753 216.622 489.915C217.94 491.043 219.604 492.233 221.039 492.547C222.521 492.871 224.789 493.087 226.679 492.923C228.576 492.758 230.469 492.55 231.943 492.171C234.705 491.461 235.802 490.07 237.583 488.035C240.215 485.027 240.278 484.073 241.343 480.891C242.51 477.402 242.647 475.072 242.329 471.453C241.986 467.549 241.398 464.986 238.497 462.012C236.813 460.285 235.533 459.517 233.231 458.469C229.907 456.957 223.873 456.603 223.873 456.603L217.523 456.668C217.523 456.668 214.701 453.671 211.88 452.802C209.405 452.04 205.143 451.563 205.143 451.563C202.371 451.591 201.408 451.601 198.799 452.281C196.191 452.961 195.045 453.368 193.223 454.953C191.77 456.217 190.274 458.906 190.274 458.906C190.274 458.906 185.688 456.8 183.063 456.827C180.437 456.853 178.905 456.902 176.671 457.579C174.436 458.255 172.906 459.276 171.031 462.091C169.282 464.715 168.399 467.551 168.399 470.588C168.399 474.875 168.7 477.544 170.655 481.348C171.388 482.775 172.128 483.809 172.911 484.651C173.733 485.536 174.619 486.21 176.295 486.907C178.754 487.929 181.094 488.184 183.815 488.035Z" fill="#682A21"/>
<path d="M183.815 488.035C186.117 487.909 190.959 484.651 190.959 484.651C190.959 484.651 191.711 486.907 192.839 488.631C194.065 490.505 195.095 491.795 197.351 492.547C200.639 493.643 201.802 493.521 204.559 493.232C207.503 492.923 208.197 492.51 210.511 491.419C212.24 490.603 214.647 487.659 214.647 487.659C214.647 487.659 215.263 488.753 216.622 489.915C217.94 491.043 219.604 492.233 221.039 492.547C222.521 492.871 224.789 493.087 226.679 492.923C228.576 492.758 230.469 492.55 231.943 492.171C234.705 491.461 235.802 490.07 237.583 488.035C240.215 485.027 240.278 484.073 241.343 480.891C242.51 477.402 242.647 475.072 242.329 471.453C241.986 467.549 241.398 464.986 238.497 462.012C236.813 460.285 235.533 459.517 233.231 458.469C229.907 456.957 223.873 456.603 223.873 456.603L217.523 456.668C217.523 456.668 214.701 453.671 211.88 452.802C209.405 452.04 205.143 451.563 205.143 451.563C202.371 451.591 201.408 451.601 198.799 452.281C196.191 452.961 195.045 453.368 193.223 454.953C191.77 456.217 190.274 458.906 190.274 458.906C190.274 458.906 185.688 456.8 183.063 456.827C180.437 456.853 178.905 456.902 176.671 457.579C174.436 458.255 172.906 459.276 171.031 462.091C169.282 464.715 168.399 467.551 168.399 470.588C168.399 474.875 168.7 477.544 170.655 481.348C171.388 482.775 172.128 483.809 172.911 484.651C173.733 485.536 174.619 486.21 176.295 486.907C178.754 487.929 181.094 488.184 183.815 488.035Z" stroke="#682A21" stroke-width="5"/>
<path d="M183.815 488.035C186.117 487.909 190.959 484.651 190.959 484.651C190.959 484.651 191.711 486.907 192.839 488.631C194.065 490.505 195.095 491.795 197.351 492.547C200.639 493.643 201.802 493.521 204.559 493.232C207.503 492.923 208.197 492.51 210.511 491.419C212.24 490.603 214.647 487.659 214.647 487.659C214.647 487.659 215.263 488.753 216.622 489.915C217.94 491.043 219.604 492.233 221.039 492.547C222.521 492.871 224.789 493.087 226.679 492.923C228.576 492.758 230.469 492.55 231.943 492.171C234.705 491.461 235.802 490.07 237.583 488.035C240.215 485.027 240.278 484.073 241.343 480.891C242.51 477.402 242.647 475.072 242.329 471.453C241.986 467.549 241.398 464.986 238.497 462.012C236.813 460.285 235.533 459.517 233.231 458.469C229.907 456.957 223.873 456.603 223.873 456.603L217.523 456.668C217.523 456.668 214.701 453.671 211.88 452.802C209.405 452.04 205.143 451.563 205.143 451.563C202.371 451.591 201.408 451.601 198.799 452.281C196.191 452.961 195.045 453.368 193.223 454.953C191.77 456.217 190.274 458.906 190.274 458.906C190.274 458.906 185.688 456.8 183.063 456.827C180.437 456.853 178.905 456.902 176.671 457.579C174.436 458.255 172.906 459.276 171.031 462.091C169.282 464.715 168.399 467.551 168.399 470.588C168.399 474.875 168.7 477.544 170.655 481.348C171.388 482.775 172.128 483.809 172.911 484.651C173.733 485.536 174.619 486.21 176.295 486.907C178.754 487.929 181.094 488.184 183.815 488.035Z" stroke="black" stroke-opacity="0.2" stroke-width="5"/>
<path d="M139.255 203.201C127.093 167.189 125.787 145.04 131.982 102.507C175.91 107.807 194.88 116.393 224.721 135.669L139.255 203.201Z" fill="#662920"/>
<path d="M152.188 179.601C145.784 160.329 145.097 148.476 148.358 125.714C171.488 128.55 181.476 133.145 197.188 143.461L152.188 179.601Z" fill="#FBC3A8"/>
<path fill-rule="evenodd" clip-rule="evenodd" d="M127.965 97L132.536 97.5542C154.673 100.238 170.764 103.781 185.172 109.191C199.577 114.6 212.088 121.797 227.083 131.53L232.588 135.103L136.899 211.068L134.76 204.702C128.609 186.404 125.132 171.416 124.026 155.497C122.922 139.616 124.192 123.024 127.304 101.56L127.965 97ZM135.988 107.502C133.404 126.42 132.471 141.027 133.431 154.842C134.338 167.887 136.945 180.39 141.612 195.283L216.413 135.9C204.112 128.147 193.601 122.434 181.86 118.025C169.365 113.334 155.295 110.052 135.988 107.502Z" fill="#452210"/>
<path d="M351.488 203.201C363.651 167.189 364.957 145.04 358.762 102.507C314.834 107.807 295.863 116.393 266.023 135.669L351.488 203.201Z" fill="#692B22"/>
<path d="M338.905 179.601C345.359 160.329 346.052 148.476 342.765 125.714C319.456 128.55 309.39 133.145 293.556 143.461L338.905 179.601Z" fill="#FBC3A8"/>
<path fill-rule="evenodd" clip-rule="evenodd" d="M362.779 97L358.208 97.5542C336.072 100.238 319.98 103.781 305.573 109.191C291.167 114.6 278.657 121.797 263.661 131.53L258.156 135.103L353.845 211.068L355.985 204.702C362.135 186.404 365.612 171.416 366.718 155.497C367.822 139.616 366.552 123.024 363.441 101.56L362.779 97ZM354.756 107.502C357.34 126.42 358.273 141.027 357.313 154.842C356.406 167.887 353.799 180.39 349.132 195.283L274.331 135.9C286.633 128.147 297.143 122.434 308.885 118.025C321.379 113.334 335.449 110.052 354.756 107.502Z" fill="#452210"/>
<path d="M119.483 274.054C119.218 272.637 101.093 271.693 102.036 265.082C102.979 258.472 119.483 256.111 126.085 236.752C145.156 180.827 177.987 132.401 244.192 132.401C310.396 132.401 343.227 180.827 362.298 236.752C368.9 256.111 385.405 258.472 386.348 265.082C387.291 271.693 369.165 272.637 368.9 274.054C368.635 275.47 382.575 283.025 382.575 287.747C382.575 292.469 364.656 298.607 352.396 308.995C322.521 334.307 283.816 349.13 244.192 349.13C204.567 349.13 165.862 334.307 135.988 308.995C123.727 298.607 105.808 292.469 105.808 287.747C105.808 283.025 119.748 275.47 119.483 274.054Z" fill="#FB8545"/>
<path d="M119.483 274.054C119.218 272.637 101.093 271.693 102.036 265.082C102.979 258.472 119.483 256.111 126.085 236.752C145.156 180.827 177.987 132.401 244.192 132.401C310.396 132.401 343.227 180.827 362.298 236.752C368.9 256.111 385.405 258.472 386.348 265.082C387.291 271.693 369.165 272.637 368.9 274.054C368.635 275.47 382.575 283.025 382.575 287.747C382.575 292.469 364.656 298.607 352.396 308.995C322.521 334.307 283.816 349.13 244.192 349.13C204.567 349.13 165.862 334.307 135.988 308.995C123.727 298.607 105.808 292.469 105.808 287.747C105.808 283.025 119.748 275.47 119.483 274.054Z" stroke="#FB8545" stroke-width="5"/>
<path d="M119.483 274.054C119.218 272.637 101.093 271.693 102.036 265.082C102.979 258.472 119.483 256.111 126.085 236.752C145.156 180.827 177.987 132.401 244.192 132.401C310.396 132.401 343.227 180.827 362.298 236.752C368.9 256.111 385.405 258.472 386.348 265.082C387.291 271.693 369.165 272.637 368.9 274.054C368.635 275.47 382.575 283.025 382.575 287.747C382.575 292.469 364.656 298.607 352.396 308.995C322.521 334.307 283.816 349.13 244.192 349.13C204.567 349.13 165.862 334.307 135.988 308.995C123.727 298.607 105.808 292.469 105.808 287.747C105.808 283.025 119.748 275.47 119.483 274.054Z" stroke="black" stroke-opacity="0.2" stroke-width="5"/>
<path d="M187.147 261.809C178.655 261.809 136.317 265.176 129.118 289.19C118.645 324.126 218.898 348.736 244.284 348.736C269.698 348.736 368.311 327.431 359.022 289.19C353.103 264.828 309.485 261.809 300.993 261.809C292.501 261.809 291.51 278.088 284.008 274.555C269.598 267.769 264.519 263.225 246.12 263.225C227.72 263.225 218.496 267.791 204.131 274.555C196.629 278.088 195.639 261.809 187.147 261.809Z" fill="#FEFFFB"/>
<path d="M201.516 206.085C201.516 211.102 189.186 206.085 184.482 206.085C179.779 206.085 168.869 205.365 168.869 200.347C168.869 195.33 171.234 189.828 184.482 189.828C197.731 189.828 201.516 201.068 201.516 206.085Z" fill="#FEFFFB"/>
<path d="M286.477 206.085C286.477 211.102 298.807 206.085 303.51 206.085C308.214 206.085 319.124 205.365 319.124 200.347C319.124 195.33 316.758 189.828 303.51 189.828C290.262 189.828 286.477 201.068 286.477 206.085Z" fill="#FEFFFB"/>
<path d="M244.552 302.716C242.674 302.716 229.994 298.054 228.691 290.828C227.388 283.603 262.656 283.603 260.414 290.828C258.171 298.054 246.431 302.716 244.552 302.716Z" fill="#27051B"/>
<path d="M249.109 290.129C249.109 290.998 246.996 291.702 244.389 291.702C241.782 291.702 239.669 290.998 239.669 290.129C239.669 289.26 241.782 288.556 244.389 288.556C246.996 288.556 249.109 289.26 249.109 290.129Z" fill="white" fill-opacity="0.5"/>
<path d="M244.876 301.46V315.676M244.876 315.676C244.876 315.676 240.5 319.935 236.932 320.276C232.64 320.685 226.897 315.676 226.897 315.676M244.876 315.676C244.876 315.676 249.242 320.056 252.82 320.276C256.829 320.521 262.019 315.676 262.019 315.676" stroke="black" stroke-width="5" stroke-linecap="round"/>
<ellipse cx="20.6144" cy="27.6874" rx="20.6144" ry="27.6874" transform="matrix(-0.998648 0.0519817 0.0519817 0.998648 322.453 214.358)" fill="black" stroke="#504B4F"/>
<ellipse cx="5.79781" cy="5.79781" rx="5.79781" ry="5.79781" transform="matrix(-0.923252 0.384195 0.384195 0.923252 300.698 224.061)" fill="white" stroke="#504B4F"/>
<ellipse cx="20.6144" cy="27.6874" rx="20.6144" ry="27.6874" transform="matrix(-0.998648 0.0519817 0.0519817 0.998648 208.167 214.359)" fill="black" stroke="#504B4F"/>
<path d="M177.933 233.869C179.164 236.826 182.557 238.225 185.514 236.995C188.47 235.764 189.869 232.371 188.639 229.414C187.409 226.458 184.015 225.059 181.059 226.289C178.102 227.519 176.703 230.913 177.933 233.869Z" fill="white" stroke="#504B4F"/>
<ellipse cx="8.52442" cy="4.9086" rx="8.52442" ry="4.9086" transform="matrix(-0.999999 0.00127736 0.00127736 0.999999 202.134 247.524)" fill="white" fill-opacity="0.4"/>
<ellipse cx="8.52442" cy="4.9086" rx="8.52442" ry="4.9086" transform="matrix(-0.999999 0.00127736 0.00127736 0.999999 319.207 247.524)" fill="white" fill-opacity="0.4"/>
<path d="M174.481 310.937C177.967 291.136 201.81 275.397 201.81 275.397C201.81 275.397 197.542 295.141 198.871 310.937C199.824 322.262 207.385 340.902 207.385 340.902C193.409 337.491 186.241 334.892 174.481 329.056C174.481 329.056 173.254 317.906 174.481 310.937Z" fill="#5F261C"/>
<path d="M314.157 310.937C310.67 291.136 286.828 275.397 286.828 275.397C286.828 275.397 291.096 295.141 289.767 310.937C288.813 322.262 281.253 340.902 281.253 340.902C295.229 337.491 302.397 334.892 314.157 329.056C314.157 329.056 315.384 317.906 314.157 310.937Z" fill="#5F261C"/>
</svg>
