<svg width="600" height="600" viewBox="0 0 600 600" fill="none" xmlns="http://www.w3.org/2000/svg">
<path d="M385.074 362.476C376.331 341.397 361.574 308.976 361.574 308.976C361.574 308.976 387.617 291.774 394.574 274.476C399.417 262.432 401.284 254.96 400.541 242C399.757 228.336 396.704 219.175 391.541 206.5C385.956 192.793 380.681 185.789 370.574 174.976C361.211 164.961 353.63 159.967 341.541 153.5C327.492 145.985 319.29 143.59 303.574 140.976C288.549 138.478 264.574 140.976 264.574 140.976C264.574 140.976 255.576 134.341 249.574 129.975C244.074 125.975 240.839 121.52 234.574 123.475C224.843 126.512 239.574 150.976 239.574 150.976C239.574 150.976 226.973 148.243 220.074 144.475C215.541 142 211.402 137.436 205.574 139.475C196.097 142.792 211.074 165.976 211.074 165.976C211.074 165.976 202.102 171.447 199.074 174.475C186.574 186.975 181.041 192.525 175.541 203.5C170.041 214.475 166.896 227.525 165.541 238C164.037 249.619 165.341 259.974 167.574 271.475C169.909 283.507 173.445 292.547 178.074 299.975C182.702 307.403 185.329 311.897 192.074 317.475C200.082 324.099 205.677 326.301 215.574 329.476C224.654 332.389 239.574 333.976 239.574 333.976L225.574 384.476C225.574 384.476 223.33 382.777 220.574 381.924C219.453 381.578 218.247 381.371 217.074 381.476C215.257 381.638 213.897 382.01 212.574 382.645C211.608 383.108 210.663 383.712 209.574 384.476C203.252 388.915 201.074 403.976 201.074 403.976C201.074 403.976 199.468 404.003 197.574 404.476C187.574 406.976 179.074 415.476 179.074 415.476C179.074 415.476 167.251 423.294 162.574 429.976C159.074 434.976 157.646 436.66 158.074 441.976C158.899 452.255 183.041 450.5 183.041 450.5L206.541 451.5C206.541 451.5 212.948 456.695 218.574 457.976C225.047 459.451 229.474 459.699 236.074 458.976C241.822 458.347 251.074 455.976 251.074 455.976L252.436 456.379C252.436 456.379 264.7 461.768 273.074 462.476C276.576 462.772 282.074 462.476 282.074 462.476C282.074 462.476 295.807 467.965 305.074 469.476C316.251 471.299 322.858 471.046 334.074 469.476C341.625 468.419 353.074 464.976 353.074 464.976L379.574 473.07L420.074 475.476C424.574 476.07 427.074 475.726 430.074 475.476C435.367 475.035 439.516 472.554 441.074 467.476C442.434 463.039 440.584 460.659 438.574 456.476C435.283 449.631 424.574 441.976 424.574 441.976L398.574 422.476C398.574 422.476 409.251 417.132 415.041 412.5C420.041 408.5 424.041 403.062 424.041 395C424.041 390.5 421.247 381.712 417.574 379.976C407.041 375 394.574 385.976 394.574 385.976C394.574 385.976 388.866 371.62 385.074 362.476Z" fill="#D89E78"/>
<path d="M361.574 308.976C361.574 308.976 376.331 341.397 385.074 362.476C388.866 371.62 394.574 385.976 394.574 385.976M361.574 308.976C361.574 308.976 387.617 291.774 394.574 274.476C399.417 262.432 401.284 254.96 400.541 242C399.757 228.336 396.704 219.175 391.541 206.5C385.956 192.793 380.681 185.789 370.574 174.976C361.211 164.961 353.63 159.967 341.541 153.5C327.492 145.985 319.29 143.59 303.574 140.976C288.549 138.478 264.574 140.976 264.574 140.976C264.574 140.976 255.576 134.341 249.574 129.975C244.074 125.975 240.839 121.52 234.574 123.475C224.843 126.512 239.574 150.976 239.574 150.976C239.574 150.976 226.973 148.243 220.074 144.475C215.541 142 211.402 137.436 205.574 139.475C196.097 142.792 211.074 165.976 211.074 165.976C211.074 165.976 202.102 171.447 199.074 174.475C186.574 186.975 181.041 192.525 175.541 203.5C170.041 214.475 166.896 227.525 165.541 238C164.037 249.619 165.341 259.974 167.574 271.475C169.909 283.507 173.445 292.547 178.074 299.975C182.702 307.403 185.329 311.897 192.074 317.475C200.082 324.099 205.677 326.301 215.574 329.476C224.654 332.389 239.574 333.976 239.574 333.976M361.574 308.976C361.574 308.976 314.541 329.476 328.574 323.476M394.574 385.976C394.574 385.976 407.041 375 417.574 379.976C421.247 381.712 424.041 390.5 424.041 395C424.041 403.062 420.041 408.5 415.041 412.5C409.251 417.132 398.574 422.476 398.574 422.476M394.574 385.976L398.574 422.476M398.574 422.476L424.574 441.976M398.574 422.476C398.574 422.476 382.794 415.994 379.574 406.976C374.574 392.976 374.378 388.563 372.041 377C370.151 367.653 366.541 342.5 368.574 353.476M424.574 441.976C424.574 441.976 435.283 449.631 438.574 456.476C440.584 460.659 442.434 463.039 441.074 467.476C439.516 472.554 435.367 475.035 430.074 475.476C427.074 475.726 424.574 476.07 420.074 475.476M424.574 441.976C424.574 441.976 415.074 438.476 407.074 441.976M379.574 473.07L353.074 464.976M379.574 473.07C379.574 473.07 386.15 462.476 393.074 453.476M379.574 473.07C379.574 473.07 404.257 474.537 420.074 475.476M353.074 464.976C353.074 464.976 341.625 468.419 334.074 469.476C322.858 471.046 316.251 471.299 305.074 469.476C295.807 467.965 282.074 462.476 282.074 462.476M353.074 464.976C353.074 464.976 342.967 450.935 338.574 440.976C334.18 431.018 331.917 424.891 330.574 413.976C330.048 409.705 329.074 401.976 329.074 401.976M282.074 462.476C282.074 462.476 276.576 462.772 273.074 462.476C264.7 461.768 252.436 456.379 252.436 456.379M282.074 462.476C282.074 462.476 275.064 452.719 273.074 445.476C270.641 436.627 273.074 421.976 273.074 421.976M206.541 451.5C206.541 451.5 212.948 456.695 218.574 457.976C225.047 459.451 229.474 459.699 236.074 458.976C241.822 458.347 251.074 455.976 251.074 455.976L252.436 456.379M206.541 451.5L183.041 450.5M206.541 451.5C206.541 451.5 202.116 442.197 201.074 434.976C199.901 426.859 199.901 422.093 201.074 413.976M183.041 450.5C183.041 450.5 158.899 452.255 158.074 441.976C157.646 436.66 159.074 434.976 162.574 429.976C167.251 423.294 179.074 415.476 179.074 415.476M183.041 450.5C183.041 450.5 174.531 443.362 172.574 436.976C169.88 428.188 179.074 415.476 179.074 415.476M179.074 415.476C179.074 415.476 187.574 406.976 197.574 404.476C199.468 404.003 201.074 403.976 201.074 403.976M201.074 403.976C201.074 403.976 203.252 388.915 209.574 384.476C210.663 383.712 211.608 383.108 212.574 382.645M201.074 403.976C201.074 403.976 201.074 409.68 201.074 413.976M225.574 384.476L239.574 333.976M225.574 384.476C225.574 384.476 223.33 382.777 220.574 381.924M225.574 384.476C225.574 384.476 226.785 386.011 227.574 387.475C228.362 388.94 229.61 391.975 229.61 391.975M239.574 333.976H246.574M330.574 347.976C332.041 336.5 328.498 367.15 328.574 379.476C328.63 388.669 329.074 401.976 329.074 401.976M407.074 441.976C400.074 445.976 396.535 448.976 393.074 453.476M407.074 441.976C415.781 445.859 420.445 449.123 427.074 455.976C431.635 460.692 438.574 471.641 438.574 471.641M393.074 453.476C399.705 455.394 403.891 456.415 409.074 460.976C413.976 465.292 416.168 470.241 420.074 475.476M313.574 450.476C311.541 458.976 314.662 448.249 314.541 437C314.488 432.116 313.679 427.109 313.074 423.476M313.074 423.476C311.538 414.261 310.186 410.796 305.074 402.976M313.074 423.476C310.574 420.476 308.574 418.643 306.574 416.976C303.164 414.135 299.574 413.476 299.574 413.476M305.074 402.976C301.074 397.976 300.588 397.616 297.074 393.976M305.074 402.976C309.664 399.621 313.403 398.553 319.074 398.976C323.581 399.313 329.074 401.976 329.074 401.976M273.074 421.976C273.074 421.976 274.574 410.476 278.574 402.976C280.333 399.678 280.074 400.476 283.574 395.476M273.074 421.976C273.074 421.976 279.574 416.476 283.574 414.476M299.574 413.476C299.574 413.476 294.282 412.73 291.574 412.976C286.074 413.476 287.674 412.976 283.574 414.476M299.574 413.476C299.574 413.476 298.44 401.717 297.074 393.976M297.074 393.976C294.177 390.976 292.574 389.976 291.074 389.976C286.95 389.976 285.324 393.226 283.574 395.476M283.574 414.476C283.574 406.476 283.574 403.476 283.574 395.476M252.436 456.379C252.436 456.379 239.424 446.942 234.074 438.476C227.266 427.705 225.574 406.976 225.574 406.976M225.574 406.976C225.574 406.976 227.336 399.987 229.61 391.975M225.574 406.976C225.574 406.976 224.153 406.558 222.074 406.163M246.574 333.976C246.574 333.976 243.478 346.51 241.574 353.976C239.082 363.744 237.368 367.949 234.074 377.476C232.586 381.779 231.002 387.069 229.61 391.975M246.574 333.976C246.574 333.976 278.041 331 265.041 332M201.074 413.976C202.574 410.975 205.401 408.311 209.574 406.475C213.173 404.892 218.562 405.495 222.074 406.163M220.574 381.924C219.453 381.578 218.247 381.371 217.074 381.476C215.257 381.638 213.897 382.01 212.574 382.645M220.574 381.924L222.074 406.163M212.574 382.645L210.574 405.975" stroke="#8B532E" stroke-width="6"/>
<path d="M158.073 441.976C158.899 452.255 183.073 450.476 183.073 450.476C183.073 450.476 174.531 443.362 172.573 436.976C169.88 428.188 179.073 415.476 179.073 415.476C179.073 415.476 167.251 423.294 162.573 429.976C159.073 434.976 157.646 436.66 158.073 441.976Z" fill="#FFF5EE" stroke="#8B532E" stroke-width="6"/>
<path d="M312.041 423.5C310.505 414.285 309.653 410.82 304.541 403C300.541 398 300.555 397.64 297.041 394C294.144 391 292.041 390 290.541 390C286.417 390 284.291 393.25 282.541 395.5C279.041 400.5 279.8 399.702 278.041 403C274.041 410.5 273.541 422.5 273.541 422.5C273.541 422.5 279.041 416.5 283.041 414.5C287.141 413 285.541 413.5 291.041 413C293.749 412.754 299.041 413.5 299.041 413.5C299.041 413.5 302.631 414.159 306.041 417C308.041 418.667 309.541 420.5 312.041 423.5Z" fill="#FFF5EE"/>
<path d="M299.041 413.5C299.041 413.5 293.749 412.754 291.041 413C285.541 413.5 287.141 413 283.041 414.5M299.041 413.5C299.041 413.5 298.407 401.741 297.041 394M299.041 413.5C299.041 413.5 302.631 414.159 306.041 417C308.041 418.667 309.541 420.5 312.041 423.5C310.505 414.285 309.653 410.82 304.541 403C300.541 398 300.555 397.64 297.041 394M297.041 394C294.144 391 292.041 390 290.541 390C286.417 390 284.291 393.25 282.541 395.5M283.041 414.5C279.041 416.5 273.541 422.5 273.541 422.5C273.541 422.5 274.041 410.5 278.041 403C279.8 399.702 279.041 400.5 282.541 395.5M283.041 414.5C283.041 406.5 282.541 403.5 282.541 395.5" stroke="#8B532E" stroke-width="6"/>
<path d="M438.574 457.056C435.283 450.21 424.574 442.556 424.574 442.556C424.574 442.556 415.074 439.056 407.074 442.556C400.074 446.556 396.535 449.556 393.074 454.056C386.15 463.056 380.541 472.22 380.541 472.22C380.541 472.22 404.257 475.116 420.074 476.056C424.574 476.65 427.074 476.306 430.074 476.056C435.367 475.614 439.516 473.134 441.074 468.056C442.434 463.618 440.584 461.239 438.574 457.056Z" fill="#FFF5EE"/>
<path d="M407.074 442.556C415.074 439.056 424.574 442.556 424.574 442.556C424.574 442.556 435.283 450.21 438.574 457.056C440.584 461.239 442.434 463.618 441.074 468.056C439.516 473.134 435.367 475.614 430.074 476.056C427.074 476.306 424.574 476.65 420.074 476.056M407.074 442.556C400.074 446.556 396.535 449.556 393.074 454.056M407.074 442.556C415.781 446.438 420.445 449.703 427.074 456.556C431.635 461.271 438.574 472.22 438.574 472.22M393.074 454.056C386.15 463.056 380.541 472.22 380.541 472.22C380.541 472.22 404.257 475.116 420.074 476.056M393.074 454.056C399.705 455.973 403.891 456.994 409.074 461.556C413.976 465.871 416.168 470.82 420.074 476.056" stroke="#8B532E" stroke-width="6"/>
<path d="M209.504 385.027C203.182 389.466 201.004 404.527 201.004 404.527V414.527C202.504 411.526 205.332 408.862 209.504 407.026C213.104 405.443 218.493 406.046 222.004 406.714C224.084 407.109 225.504 407.527 225.504 407.527C225.504 407.527 227.267 400.538 229.541 392.526C229.541 392.526 228.293 389.491 227.504 388.026C226.716 386.562 225.504 385.027 225.504 385.027C225.504 385.027 223.261 383.328 220.504 382.475C219.384 382.129 218.178 381.923 217.004 382.027C215.188 382.19 213.828 382.561 212.504 383.196C211.539 383.659 210.593 384.263 209.504 385.027Z" fill="#FFF5EE"/>
<path d="M197.504 405.027C199.399 404.554 201.004 404.527 201.004 404.527M201.004 404.527C201.004 404.527 203.182 389.466 209.504 385.027C210.593 384.263 211.539 383.659 212.504 383.196M201.004 404.527C201.004 404.527 201.004 410.231 201.004 414.527C202.504 411.526 205.332 408.862 209.504 407.026C213.104 405.443 218.493 406.046 222.004 406.714M220.504 382.475C219.384 382.129 218.178 381.923 217.004 382.027C215.188 382.19 213.828 382.561 212.504 383.196M220.504 382.475C223.261 383.328 225.504 385.027 225.504 385.027C225.504 385.027 226.716 386.562 227.504 388.026C228.293 389.491 229.541 392.526 229.541 392.526C227.267 400.538 225.504 407.527 225.504 407.527C225.504 407.527 224.084 407.109 222.004 406.714M220.504 382.475L222.004 406.714M212.504 383.196L210.504 406.526" stroke="#8B532E" stroke-width="6"/>
<ellipse cx="8.5" cy="10" rx="8.5" ry="10" transform="matrix(-1 0 0 1 301.541 436)" fill="white"/>
<ellipse cx="3.5" cy="4.5" rx="3.5" ry="4.5" transform="matrix(-1 0 0 1 305.541 427)" fill="white"/>
<ellipse cx="3.5" cy="4.5" rx="3.5" ry="4.5" transform="matrix(-1 0 0 1 294.541 423)" fill="white"/>
<ellipse cx="3.5" cy="4.5" rx="3.5" ry="4.5" transform="matrix(-1 0 0 1 285.541 429)" fill="white"/>
<ellipse cx="8.5" cy="10" rx="8.5" ry="10" transform="matrix(-1 0 0 1 228.541 427)" fill="white"/>
<ellipse cx="3.5" cy="4.5" rx="3.5" ry="4.5" transform="matrix(-1 0 0 1 221.541 414)" fill="white"/>
<ellipse cx="3.5" cy="4.5" rx="3.5" ry="4.5" transform="matrix(-1 0 0 1 212.541 420)" fill="white"/>
<path d="M277.678 209.026C277.678 209.026 268.678 203.066 262.178 201.026C254.318 198.56 249.37 198.152 241.178 199.026C232.153 199.99 227.068 202.038 219.178 206.526C212.419 210.372 206.592 215.592 203.678 219.026C199.025 224.511 197.525 227.511 194.025 237.011C192.088 242.267 190.705 251.662 191.025 257.511C191.498 266.17 192.122 268.241 194.678 276.526C196.525 282.511 203.541 297.5 212.525 303.011C213.976 303.902 215.436 304.729 216.906 305.5C228.081 311.359 239.837 313.916 252.678 315.526C271.535 317.891 288.947 315.933 307.541 312C315.887 310.234 332.823 305.011 347.178 295.526C355.837 289.805 360.812 286.222 367.178 278.026C372.228 271.526 374.295 265.446 376.525 256.011C378.179 249.011 378.19 233.239 373.678 221.526C370.814 214.089 369.034 210.71 364.025 204.511C359.525 198.943 353.921 194.249 345.525 190.011C337.318 185.87 332.215 185.153 323.025 185.011C311.8 184.839 306.012 186.612 296.178 192.026C287.583 196.759 277.678 209.026 277.678 209.026Z" fill="#FFEFE7"/>
<path d="M194.194 276.114C191.638 267.828 191.514 266.158 191.041 257.5C191.041 257.5 198.142 246.292 204.178 241.088C211.022 235.185 217.54 232.064 223.54 230.588C231.882 228.535 240.04 228.588 246.54 230.088C254.425 231.907 259.532 235.631 262.678 243.088C265.258 249.205 264.945 254.088 263.04 260.588C260.601 268.91 251.54 275.061 248.54 277.588C244.918 280.637 235.752 283.789 229.04 290.088C223.634 295.16 216.541 305.5 216.541 305.5C215.07 304.729 213.492 303.489 212.041 302.599C203.057 297.088 196.041 282.099 194.194 276.114Z" fill="#8B532E"/>
<path d="M376.525 255.968C374.295 265.403 372.228 271.483 367.178 277.983C367.178 277.983 354.951 271.434 348.041 268.457C338.577 264.379 334.541 263.457 326.041 261.957C320.541 260.986 311.399 256.629 309.541 254.957C304.541 250.457 301.82 243.984 302.041 235.957C302.218 229.493 303.547 226.569 307.541 221.483C312.041 215.753 318.937 212.925 327.541 210.957C333.541 209.584 339.6 209.782 347.178 210.957C358.182 212.663 373.678 221.483 373.678 221.483C378.19 233.196 378.179 248.968 376.525 255.968Z" fill="#8B532E"/>
<path d="M269.934 248.986C269.814 250.899 271.541 252.5 273.099 254.449C275.73 256.554 279.574 260.129 285.828 259.485C290.541 259 294.753 253.5 295.852 251.108C297.753 247.5 298.942 243.787 292.328 243.373C285.713 242.959 270.21 244.577 269.934 248.986Z" fill="#522717" stroke="#502817" stroke-width="5"/>
<path d="M278.431 247.561C278.514 248.478 280.811 249.019 283.561 248.77C286.311 248.522 288.473 247.577 288.39 246.66C288.308 245.743 286.011 245.202 283.261 245.451C280.51 245.7 278.348 246.645 278.431 247.561Z" fill="white" fill-opacity="0.5"/>
<path d="M338.023 232.776C335.023 234.776 333.649 235.234 332.023 235.776C330.397 236.318 327.523 236.776 326.023 236.776L319.523 236.776C318.023 236.776 316.523 237.776 316.023 238.776C314.578 241.667 318.76 242.931 321.523 243.276C323.023 243.464 329.229 244.202 333.023 243.276C336.163 242.51 337.847 241.589 340.523 239.776C342.27 238.593 344.68 236.041 345.523 234.776C346.523 233.276 348.337 230.491 346.523 229.276C345.869 228.838 344.273 228.776 343.523 229.276C340.523 231.276 340.103 231.39 338.023 232.776Z" fill="#522714"/>
<path d="M239.508 253.665C236.168 255.023 234.73 255.197 233.029 255.402C231.327 255.607 228.42 255.479 226.95 255.178L220.582 253.875C219.112 253.575 217.442 254.254 216.752 255.133C214.756 257.675 218.601 259.752 221.238 260.644C222.67 261.129 228.602 263.096 232.505 262.95C235.735 262.829 237.569 262.264 240.554 261.024C242.503 260.215 245.376 258.198 246.455 257.128C247.735 255.859 250.071 253.494 248.537 251.94C247.984 251.38 246.433 250.999 245.598 251.339C242.258 252.697 241.824 252.724 239.508 253.665Z" fill="#522714"/>
<ellipse cx="5.58778" cy="6.70534" rx="5.58778" ry="6.70534" transform="matrix(-0.991767 0.128055 0.128055 0.991767 291.823 264)" fill="#50261A"/>
</svg>
