<svg width="600" height="600" viewBox="0 0 600 600" fill="none" xmlns="http://www.w3.org/2000/svg">
<path d="M176.121 425.248C177.9 429.181 182.159 434.507 182.159 434.507C177.723 434.283 175.918 433.878 170.887 434.507C165.857 435.135 163.113 437.461 160.421 440.142C157.831 442.723 157.169 445.022 156.396 448.596C155.29 453.703 155.561 457.262 158.006 461.88C159.827 465.32 161.491 467.158 164.849 469.126C167.681 470.785 169.646 471.114 172.9 471.541C175.55 471.89 180.943 471.541 180.943 471.541C180.943 471.541 181.442 476.143 183.769 477.982C185.877 479.648 187.556 479.983 190.21 480.398C192.229 480.713 195.443 480.398 195.443 480.398C195.443 480.398 194.162 486.164 195.032 489.835C195.538 491.966 195.609 493.943 196.643 495.873C198.277 498.925 199.863 501.106 202.278 502.717C204.694 504.327 206.304 504.73 209.122 505.132C211.94 505.534 214.08 504.899 216.368 504.327C218.414 503.815 221.198 500.704 221.198 500.704C221.198 500.704 221.465 501.745 222.003 503.522C222.469 505.06 223.542 506.909 224.419 507.547C227.112 509.508 228.368 510.288 231.665 510.768C234.154 511.13 236.411 511.045 238.91 510.768C241.639 510.465 243.339 509.63 245.359 507.771C246.451 506.767 247.372 504.551 247.372 504.551C247.372 504.551 247.372 505.356 249.385 506.966C251.398 508.576 253.41 509.381 256.631 509.784C256.631 509.784 262.307 510.268 265.487 509.381C268.89 508.433 270.74 507.148 273.135 504.551C275.853 501.604 277.563 495.292 277.563 495.292C277.563 495.292 278.79 500.141 280.373 502.717L280.49 502.907C282.247 505.765 283.3 507.48 286.009 509.56C287.603 510.784 289.184 511.149 290.437 511.573C291.757 512.019 293.554 512.602 295.67 512.602C299.293 512.602 299.882 511.994 302.916 511.17C305.495 510.47 306.942 507.145 306.942 507.145C306.942 507.145 308.95 509.424 310.455 510.435C311.386 511.06 312.433 511.663 313.382 511.975C315.341 512.619 319.018 513.183 319.018 513.183C319.018 513.183 324.67 513.631 328.285 512.602C331.9 511.573 332.302 511.364 334.315 509.157C335.737 507.599 335.925 504.729 335.925 504.729C335.925 504.729 339.208 507.136 341.964 507.547C344.918 507.988 349.224 507.571 352.035 506.563C354.67 505.619 356.516 504.764 358.476 502.538C360.522 500.214 361.214 498.445 362.091 495.471C363.114 492.003 362.871 489.003 362.494 485.407C362.159 482.218 360.883 477.758 360.883 477.758C360.883 477.758 362.86 477.512 364.112 476.372C365.623 474.996 366.125 471.541 366.125 471.541C366.125 471.541 373.727 473.033 378.201 471.541C382.675 470.05 385.565 468.414 387.862 464.295C389.801 460.819 389.96 458.613 389.875 454.634C389.791 450.655 389.327 448.571 387.862 445.376C386.827 443.116 385.99 441.907 384.239 440.142C382.243 438.131 378.201 436.117 378.201 436.117V428.871C378.201 428.871 394.303 427.663 400.341 424.845C406.38 422.028 412.007 416.571 416.033 411.74C416.033 411.74 420.398 404.321 422.884 397.069C425.86 388.392 425.637 387.115 426.105 380.565C426.507 374.929 426.902 374.705 427.715 366.878C428.528 359.051 428.907 355.964 432.94 348.942C432.94 348.942 437.096 342.93 441.402 339.505C445.586 336.175 448.528 334.684 453.478 332.661C456.748 331.325 458.806 330.836 462.334 330.649C475.765 329.936 475.689 316.102 466.36 316.157C461.644 316.184 458.562 315.582 453.881 316.157L453.877 316.157C448.885 316.77 447.608 316.927 443.012 318.975C438.352 321.051 434.472 323.382 430.533 326.623C424.514 331.575 421.31 334.865 417.249 341.517C413.871 347.05 412.552 350.572 410.808 356.814C409.096 362.938 408.795 366.476 408.392 372.916C407.907 380.683 407.587 384.993 405.575 392.641C404.109 398.209 401.929 401.551 397.121 404.718C393.924 406.824 391.655 407.414 387.862 407.938C385.215 408.304 381.019 407.938 381.019 407.938C381.019 403.694 381.011 402.124 379.803 397.069C378.596 392.015 361.692 340.942 359.451 336.446C359.451 336.446 201.571 331.483 199.792 336.446C197.68 342.338 172.9 403.29 172.9 409.548C172.9 415.807 173.54 419.546 176.121 425.248Z" fill="#9D8275"/>
<path d="M176.121 425.248C177.9 429.181 182.159 434.507 182.159 434.507C177.723 434.283 175.918 433.878 170.887 434.507C165.857 435.135 163.113 437.461 160.421 440.142C157.831 442.723 157.169 445.022 156.396 448.596C155.29 453.703 155.561 457.262 158.006 461.88C159.827 465.32 161.491 467.158 164.849 469.126C167.681 470.785 169.646 471.114 172.9 471.541C175.55 471.89 180.943 471.541 180.943 471.541C180.943 471.541 181.442 476.143 183.769 477.982C185.877 479.648 187.556 479.983 190.21 480.398C192.229 480.713 195.443 480.398 195.443 480.398C195.443 480.398 194.162 486.164 195.032 489.835C195.538 491.966 195.609 493.943 196.643 495.873C198.277 498.925 199.863 501.106 202.278 502.717C204.694 504.327 206.304 504.73 209.122 505.132C211.94 505.534 214.08 504.899 216.368 504.327C218.414 503.815 221.198 500.704 221.198 500.704C221.198 500.704 221.465 501.745 222.003 503.522C222.469 505.06 223.542 506.909 224.419 507.547C227.112 509.508 228.368 510.288 231.665 510.768C234.154 511.13 236.411 511.045 238.91 510.768C241.639 510.465 243.339 509.63 245.359 507.771C246.451 506.767 247.372 504.551 247.372 504.551C247.372 504.551 247.372 505.356 249.385 506.966C251.398 508.576 253.41 509.381 256.631 509.784C256.631 509.784 262.307 510.268 265.487 509.381C268.89 508.433 270.74 507.148 273.135 504.551C275.853 501.604 277.563 495.292 277.563 495.292C277.563 495.292 278.79 500.141 280.373 502.717L280.49 502.907C282.247 505.765 283.3 507.48 286.009 509.56C287.603 510.784 289.184 511.149 290.437 511.573C291.757 512.019 293.554 512.602 295.67 512.602C299.293 512.602 299.882 511.994 302.916 511.17C305.495 510.47 306.942 507.145 306.942 507.145C306.942 507.145 308.95 509.424 310.455 510.435C311.386 511.06 312.433 511.663 313.382 511.975C315.341 512.619 319.018 513.183 319.018 513.183C319.018 513.183 324.67 513.631 328.285 512.602C331.9 511.573 332.302 511.364 334.315 509.157C335.737 507.599 335.925 504.729 335.925 504.729C335.925 504.729 339.208 507.136 341.964 507.547C344.918 507.988 349.224 507.571 352.035 506.563C354.67 505.619 356.516 504.764 358.476 502.538C360.522 500.214 361.214 498.445 362.091 495.471C363.114 492.003 362.871 489.003 362.494 485.407C362.159 482.218 360.883 477.758 360.883 477.758C360.883 477.758 362.86 477.512 364.112 476.372C365.623 474.996 366.125 471.541 366.125 471.541C366.125 471.541 373.727 473.033 378.201 471.541C382.675 470.05 385.565 468.414 387.862 464.295C389.801 460.819 389.96 458.613 389.875 454.634C389.791 450.655 389.327 448.571 387.862 445.376C386.827 443.116 385.99 441.907 384.239 440.142C382.243 438.131 378.201 436.117 378.201 436.117V428.871C378.201 428.871 394.303 427.663 400.341 424.845C406.38 422.028 412.007 416.571 416.033 411.74C416.033 411.74 420.398 404.321 422.884 397.069C425.86 388.392 425.637 387.115 426.105 380.565C426.507 374.929 426.902 374.705 427.715 366.878C428.528 359.051 428.907 355.964 432.94 348.942C432.94 348.942 437.096 342.93 441.402 339.505C445.586 336.175 448.528 334.684 453.478 332.661C456.748 331.325 458.806 330.836 462.334 330.649C475.765 329.936 475.689 316.102 466.36 316.157C461.644 316.184 458.562 315.582 453.881 316.157L453.877 316.157C448.885 316.77 447.608 316.927 443.012 318.975C438.352 321.051 434.472 323.382 430.533 326.623C424.514 331.575 421.31 334.865 417.249 341.517C413.871 347.05 412.552 350.572 410.808 356.814C409.096 362.938 408.795 366.476 408.392 372.916C407.907 380.683 407.587 384.993 405.575 392.641C404.109 398.209 401.929 401.551 397.121 404.718C393.924 406.824 391.655 407.414 387.862 407.938C385.215 408.304 381.019 407.938 381.019 407.938C381.019 403.694 381.011 402.124 379.803 397.069C378.596 392.015 361.692 340.942 359.451 336.446C359.451 336.446 201.571 331.483 199.792 336.446C197.68 342.338 172.9 403.29 172.9 409.548C172.9 415.807 173.54 419.546 176.121 425.248Z" stroke="#9D8275" stroke-width="5"/>
<path d="M176.121 425.248C177.9 429.181 182.159 434.507 182.159 434.507C177.723 434.283 175.918 433.878 170.887 434.507C165.857 435.135 163.113 437.461 160.421 440.142C157.831 442.723 157.169 445.022 156.396 448.596C155.29 453.703 155.561 457.262 158.006 461.88C159.827 465.32 161.491 467.158 164.849 469.126C167.681 470.785 169.646 471.114 172.9 471.541C175.55 471.89 180.943 471.541 180.943 471.541C180.943 471.541 181.442 476.143 183.769 477.982C185.877 479.648 187.556 479.983 190.21 480.398C192.229 480.713 195.443 480.398 195.443 480.398C195.443 480.398 194.162 486.164 195.032 489.835C195.538 491.966 195.609 493.943 196.643 495.873C198.277 498.925 199.863 501.106 202.278 502.717C204.694 504.327 206.304 504.73 209.122 505.132C211.94 505.534 214.08 504.899 216.368 504.327C218.414 503.815 221.198 500.704 221.198 500.704C221.198 500.704 221.465 501.745 222.003 503.522C222.469 505.06 223.542 506.909 224.419 507.547C227.112 509.508 228.368 510.288 231.665 510.768C234.154 511.13 236.411 511.045 238.91 510.768C241.639 510.465 243.339 509.63 245.359 507.771C246.451 506.767 247.372 504.551 247.372 504.551C247.372 504.551 247.372 505.356 249.385 506.966C251.398 508.576 253.41 509.381 256.631 509.784C256.631 509.784 262.307 510.268 265.487 509.381C268.89 508.433 270.74 507.148 273.135 504.551C275.853 501.604 277.563 495.292 277.563 495.292C277.563 495.292 278.79 500.141 280.373 502.717L280.49 502.907C282.247 505.765 283.3 507.48 286.009 509.56C287.603 510.784 289.184 511.149 290.437 511.573C291.757 512.019 293.554 512.602 295.67 512.602C299.293 512.602 299.882 511.994 302.916 511.17C305.495 510.47 306.942 507.145 306.942 507.145C306.942 507.145 308.95 509.424 310.455 510.435C311.386 511.06 312.433 511.663 313.382 511.975C315.341 512.619 319.018 513.183 319.018 513.183C319.018 513.183 324.67 513.631 328.285 512.602C331.9 511.573 332.302 511.364 334.315 509.157C335.737 507.599 335.925 504.729 335.925 504.729C335.925 504.729 339.208 507.136 341.964 507.547C344.918 507.988 349.224 507.571 352.035 506.563C354.67 505.619 356.516 504.764 358.476 502.538C360.522 500.214 361.214 498.445 362.091 495.471C363.114 492.003 362.871 489.003 362.494 485.407C362.159 482.218 360.883 477.758 360.883 477.758C360.883 477.758 362.86 477.512 364.112 476.372C365.623 474.996 366.125 471.541 366.125 471.541C366.125 471.541 373.727 473.033 378.201 471.541C382.675 470.05 385.565 468.414 387.862 464.295C389.801 460.819 389.96 458.613 389.875 454.634C389.791 450.655 389.327 448.571 387.862 445.376C386.827 443.116 385.99 441.907 384.239 440.142C382.243 438.131 378.201 436.117 378.201 436.117V428.871C378.201 428.871 394.303 427.663 400.341 424.845C406.38 422.028 412.007 416.571 416.033 411.74C416.033 411.74 420.398 404.321 422.884 397.069C425.86 388.392 425.637 387.115 426.105 380.565C426.507 374.929 426.902 374.705 427.715 366.878C428.528 359.051 428.907 355.964 432.94 348.942C432.94 348.942 437.096 342.93 441.402 339.505C445.586 336.175 448.528 334.684 453.478 332.661C456.748 331.325 458.806 330.836 462.334 330.649C475.765 329.936 475.689 316.102 466.36 316.157C461.644 316.184 458.562 315.582 453.881 316.157L453.877 316.157C448.885 316.77 447.608 316.927 443.012 318.975C438.352 321.051 434.472 323.382 430.533 326.623C424.514 331.575 421.31 334.865 417.249 341.517C413.871 347.05 412.552 350.572 410.808 356.814C409.096 362.938 408.795 366.476 408.392 372.916C407.907 380.683 407.587 384.993 405.575 392.641C404.109 398.209 401.929 401.551 397.121 404.718C393.924 406.824 391.655 407.414 387.862 407.938C385.215 408.304 381.019 407.938 381.019 407.938C381.019 403.694 381.011 402.124 379.803 397.069C378.596 392.015 361.692 340.942 359.451 336.446C359.451 336.446 201.571 331.483 199.792 336.446C197.68 342.338 172.9 403.29 172.9 409.548C172.9 415.807 173.54 419.546 176.121 425.248Z" stroke="black" stroke-opacity="0.2" stroke-width="5"/>
<path d="M257.11 480.202C249.506 481.041 237.322 482.633 237.322 482.633C237.322 482.633 222.849 480.218 216.525 473.752C212.149 469.277 210.21 466.958 207.245 461.872C204.076 456.435 202.716 453.19 200.803 446.94C198.89 440.69 198.767 437.325 198.537 431.013C198.307 424.702 199.668 415.805 199.668 415.805C199.668 415.805 201.195 408.117 203.01 403.466C206.027 395.734 208.771 391.688 214.147 385.365C218.988 379.672 222.194 376.749 228.428 372.627C235.942 367.66 240.895 365.819 249.579 363.43C260.062 360.548 266.436 360.06 277.287 360.735C286.044 361.28 292.188 361.863 300.475 364.747C308.762 367.631 313.89 369.17 321.105 374.009C327.104 378.033 331.372 381.323 336.262 386.64C341.855 392.721 343.761 397.477 346.788 405.165C349.352 411.679 349.982 417.977 350.577 424.953C351.25 432.844 350.346 436.263 348.893 442.636C347.44 449.008 345.906 451.763 342.365 458.633C338.823 465.503 337.833 466.66 333.958 470.736C330.401 474.478 327.356 476.554 322.89 479.144C318.527 481.674 310.842 483.796 310.842 483.796C310.842 483.796 301.198 481.914 293.739 480.949C286.28 479.983 282.628 479.476 275.635 479.144C268.409 478.8 264.301 479.409 257.11 480.202Z" fill="#E6E7E9"/>
<path d="M177.514 469.265C179.993 469.453 184.998 469.265 184.998 469.265C184.998 469.265 185.803 473.869 187.414 475.077C189.477 476.625 191.74 477.335 194.257 477.895C197.88 478.7 198.68 477.895 201.667 477.895C204.497 477.895 206.408 476.794 208.913 475.479C210.786 474.496 212.536 472.259 212.536 472.259C212.536 472.259 216.651 475.464 219.782 476.284C222.976 477.121 225.058 477.179 228.236 476.284C231.22 475.444 232.883 474.448 235.079 472.259C237.719 469.628 238.654 467.314 239.91 463.805C241.416 459.595 241.823 456.995 241.52 452.534C241.193 447.723 240.588 444.559 237.494 440.86C235.699 438.713 234.328 437.75 231.859 436.432C228.293 434.528 221.795 434.016 221.795 434.016H214.952C214.952 434.016 211.944 430.291 208.913 429.186C206.255 428.216 201.905 427.576 201.905 427.576C198.919 427.576 197.88 427.173 195.062 427.978C192.244 428.783 190.554 429.598 188.786 431.601C188.156 432.314 187.011 434.017 187.011 434.017L185.565 436.432L179.363 436.029C177.434 436.029 176.322 435.894 174.532 436.029C173.695 436.093 172.081 436.175 171.312 436.432C169.719 436.963 168.599 437.626 166.883 438.847C165.997 439.478 164.362 440.895 163.663 442.068C161.75 445.277 160.845 446.093 160.443 450.119C160.143 453.113 160.135 455.12 160.845 456.962C161.416 458.442 161.931 460.175 163.261 462.195C164.438 463.985 165.449 464.991 166.701 465.818C167.73 466.498 168.923 467.057 170.506 467.831C173.145 469.12 174.532 469.038 177.514 469.265Z" fill="#C5B2AA"/>
<path d="M177.514 469.265C179.993 469.453 184.998 469.265 184.998 469.265C184.998 469.265 185.803 473.869 187.414 475.077C189.477 476.625 191.74 477.335 194.257 477.895C197.88 478.7 198.68 477.895 201.667 477.895C204.497 477.895 206.408 476.794 208.913 475.479C210.786 474.496 212.536 472.259 212.536 472.259C212.536 472.259 216.651 475.464 219.782 476.284C222.976 477.121 225.058 477.179 228.236 476.284C231.22 475.444 232.883 474.448 235.079 472.259C237.719 469.628 238.654 467.314 239.91 463.805C241.416 459.595 241.823 456.995 241.52 452.534C241.193 447.723 240.588 444.559 237.494 440.86C235.699 438.713 234.328 437.75 231.859 436.432C228.293 434.528 221.795 434.016 221.795 434.016H214.952C214.952 434.016 211.944 430.291 208.913 429.186C206.255 428.216 201.905 427.576 201.905 427.576C198.919 427.576 197.88 427.173 195.062 427.978C192.244 428.783 190.554 429.598 188.786 431.601C188.156 432.314 187.011 434.017 187.011 434.017L185.565 436.432L179.363 436.029C177.434 436.029 176.322 435.894 174.532 436.029C173.695 436.093 172.081 436.175 171.312 436.432C169.719 436.963 168.599 437.626 166.883 438.847C165.997 439.478 164.362 440.895 163.663 442.068C161.75 445.277 160.845 446.093 160.443 450.119C160.143 453.113 160.135 455.12 160.845 456.962C161.416 458.442 161.931 460.175 163.261 462.195C164.438 463.985 165.449 464.991 166.701 465.818C167.73 466.498 168.923 467.057 170.506 467.831C173.145 469.12 174.532 469.038 177.514 469.265Z" stroke="#9D8275" stroke-width="5"/>
<path d="M177.514 469.265C179.993 469.453 184.998 469.265 184.998 469.265C184.998 469.265 185.803 473.869 187.414 475.077C189.477 476.625 191.74 477.335 194.257 477.895C197.88 478.7 198.68 477.895 201.667 477.895C204.497 477.895 206.408 476.794 208.913 475.479C210.786 474.496 212.536 472.259 212.536 472.259C212.536 472.259 216.651 475.464 219.782 476.284C222.976 477.121 225.058 477.179 228.236 476.284C231.22 475.444 232.883 474.448 235.079 472.259C237.719 469.628 238.654 467.314 239.91 463.805C241.416 459.595 241.823 456.995 241.52 452.534C241.193 447.723 240.588 444.559 237.494 440.86C235.699 438.713 234.328 437.75 231.859 436.432C228.293 434.528 221.795 434.016 221.795 434.016H214.952C214.952 434.016 211.944 430.291 208.913 429.186C206.255 428.216 201.905 427.576 201.905 427.576C198.919 427.576 197.88 427.173 195.062 427.978C192.244 428.783 190.554 429.598 188.786 431.601C188.156 432.314 187.011 434.017 187.011 434.017L185.565 436.432L179.363 436.029C177.434 436.029 176.322 435.894 174.532 436.029C173.695 436.093 172.081 436.175 171.312 436.432C169.719 436.963 168.599 437.626 166.883 438.847C165.997 439.478 164.362 440.895 163.663 442.068C161.75 445.277 160.845 446.093 160.443 450.119C160.143 453.113 160.135 455.12 160.845 456.962C161.416 458.442 161.931 460.175 163.261 462.195C164.438 463.985 165.449 464.991 166.701 465.818C167.73 466.498 168.923 467.057 170.506 467.831C173.145 469.12 174.532 469.038 177.514 469.265Z" stroke="black" stroke-opacity="0.2" stroke-width="5"/>
<path d="M332.749 465.573C332.749 465.573 327.171 467.795 324.661 467.985C321.694 468.209 319.996 468.2 317.289 467.126C313.689 465.697 311.63 464.447 309.367 461.59C306.222 457.618 305.857 454.634 306.152 449.773C306.355 446.426 306.893 443.965 308.743 441.03C310.728 437.882 313.901 436.18 316.325 435.384C318.75 434.588 320.776 434.527 323.642 434.44L331.862 436.356L334.992 431.929C334.992 431.929 338.188 429.666 341.02 428.858C343.852 428.05 344.604 428.07 347.629 427.978C347.629 427.978 350.948 428.071 353.667 428.858C355.07 429.264 357.328 430.67 358.498 431.929C359.912 433.451 361.316 435.151 361.316 435.151C363.731 434.346 364.637 434.08 366.834 434.051C370.207 434.005 371.742 434.763 375.405 436.359C377.941 437.464 379.566 438.291 381.443 440.16C384.677 443.38 386.676 446.02 386.676 450.045C386.676 453.668 386.911 451.733 386.676 454.473C386.642 454.876 386.412 456.463 386.274 457.291C385.871 459.707 385.871 459.304 385.278 460.914C384.829 461.443 384.545 462.085 383.456 463.33C382.44 464.491 381.19 465.24 380.236 465.802C379.245 466.385 378.14 466.766 376.613 467.196C373.418 468.095 370.859 467.847 367.602 467.196C364.569 466.59 364.532 466.189 364.535 466.151C364.512 466.288 363.683 470.916 360.511 472.502C357.29 474.113 354.118 474.111 351.252 474.198C348.227 474.29 346.037 473.112 342.346 472.502C339.781 472.079 338.468 470.84 336.142 469.802C334.167 468.922 332.749 465.573 332.749 465.573Z" fill="#C5B2AA"/>
<path d="M332.749 465.573C332.749 465.573 327.171 467.795 324.661 467.985C321.694 468.209 319.996 468.2 317.289 467.126C313.689 465.697 311.63 464.447 309.367 461.59C306.222 457.618 305.857 454.634 306.152 449.773C306.355 446.426 306.893 443.965 308.743 441.03C310.728 437.882 313.901 436.18 316.325 435.384C318.75 434.588 320.776 434.527 323.642 434.44L331.862 436.356L334.992 431.929C334.992 431.929 338.188 429.666 341.02 428.858C343.852 428.05 344.604 428.07 347.629 427.978C347.629 427.978 350.948 428.071 353.667 428.858C355.07 429.264 357.328 430.67 358.498 431.929C359.912 433.451 361.316 435.151 361.316 435.151C363.731 434.346 364.637 434.08 366.834 434.051C370.207 434.005 371.742 434.763 375.405 436.359C377.941 437.464 379.566 438.291 381.443 440.16C384.677 443.38 386.676 446.02 386.676 450.045C386.676 453.668 386.911 451.733 386.676 454.473C386.642 454.876 386.412 456.463 386.274 457.291C385.871 459.707 385.871 459.304 385.278 460.914C384.829 461.443 384.545 462.085 383.456 463.33C382.44 464.491 381.19 465.24 380.236 465.802C379.245 466.385 378.14 466.766 376.613 467.196C373.418 468.095 370.859 467.847 367.602 467.196C364.569 466.59 364.532 466.189 364.535 466.151C364.512 466.288 363.683 470.916 360.511 472.502C357.29 474.113 354.118 474.111 351.252 474.198C348.227 474.29 346.037 473.112 342.346 472.502C339.781 472.079 338.468 470.84 336.142 469.802C334.167 468.922 332.749 465.573 332.749 465.573Z" stroke="#9D8275" stroke-width="5"/>
<path d="M332.749 465.573C332.749 465.573 327.171 467.795 324.661 467.985C321.694 468.209 319.996 468.2 317.289 467.126C313.689 465.697 311.63 464.447 309.367 461.59C306.222 457.618 305.857 454.634 306.152 449.773C306.355 446.426 306.893 443.965 308.743 441.03C310.728 437.882 313.901 436.18 316.325 435.384C318.75 434.588 320.776 434.527 323.642 434.44L331.862 436.356L334.992 431.929C334.992 431.929 338.188 429.666 341.02 428.858C343.852 428.05 344.604 428.07 347.629 427.978C347.629 427.978 350.948 428.071 353.667 428.858C355.07 429.264 357.328 430.67 358.498 431.929C359.912 433.451 361.316 435.151 361.316 435.151C363.731 434.346 364.637 434.08 366.834 434.051C370.207 434.005 371.742 434.763 375.405 436.359C377.941 437.464 379.566 438.291 381.443 440.16C384.677 443.38 386.676 446.02 386.676 450.045C386.676 453.668 386.911 451.733 386.676 454.473C386.642 454.876 386.412 456.463 386.274 457.291C385.871 459.707 385.871 459.304 385.278 460.914C384.829 461.443 384.545 462.085 383.456 463.33C382.44 464.491 381.19 465.24 380.236 465.802C379.245 466.385 378.14 466.766 376.613 467.196C373.418 468.095 370.859 467.847 367.602 467.196C364.569 466.59 364.532 466.189 364.535 466.151C364.512 466.288 363.683 470.916 360.511 472.502C357.29 474.113 354.118 474.111 351.252 474.198C348.227 474.29 346.037 473.112 342.346 472.502C339.781 472.079 338.468 470.84 336.142 469.802C334.167 468.922 332.749 465.573 332.749 465.573Z" stroke="black" stroke-opacity="0.2" stroke-width="5"/>
<path d="M301.537 507.99C303.943 507.437 308.179 504.061 308.179 504.061C308.179 504.061 311.519 506.737 313.412 507.683C315.827 508.891 316.632 509.294 319.336 509.704C322.962 510.254 323.777 509.829 326.696 509.294C329.461 508.786 330.609 507.374 332.851 505.8C334.527 504.624 335.886 502.397 335.886 502.397C335.886 502.397 340.409 504.4 343.598 504.539C346.85 504.681 348.894 504.358 351.859 503.023C354.643 501.769 356.112 500.619 357.914 498.354C360.08 495.63 360.631 493.484 361.308 490.259C362.119 486.389 362.108 484.092 361.112 480.332C360.037 476.277 358.95 473.681 355.346 471.072C353.255 469.558 351.764 468.981 349.144 468.297C345.361 467.309 338.931 468.037 338.931 468.037L332.244 469.264C332.244 469.264 328.72 466.618 325.585 466.217C322.836 465.865 318.252 466.14 318.252 466.14C315.334 466.675 314.319 466.862 311.692 468.055C309.064 469.249 306.297 471.892 306.297 471.892L303.908 476.6L295.662 475.979C292.896 476.487 290.941 476.845 288.707 477.967C286.474 479.089 283.646 481.19 282.181 484.502C280.816 487.59 280.653 490.03 280.944 493.268C281.367 497.972 282.156 500.78 285.783 504.122C288.392 506.526 290.57 507.42 294.267 508.257C297.048 508.886 298.695 508.644 301.537 507.99Z" fill="#C5B2AA"/>
<path d="M301.537 507.99C303.943 507.437 308.179 504.061 308.179 504.061C308.179 504.061 311.519 506.737 313.412 507.683C315.827 508.891 316.632 509.294 319.336 509.704C322.962 510.254 323.777 509.829 326.696 509.294C329.461 508.786 330.609 507.374 332.851 505.8C334.527 504.624 335.886 502.397 335.886 502.397C335.886 502.397 340.409 504.4 343.598 504.539C346.85 504.681 348.894 504.358 351.859 503.023C354.643 501.769 356.112 500.619 357.914 498.354C360.08 495.63 360.631 493.484 361.308 490.259C362.119 486.389 362.108 484.092 361.112 480.332C360.037 476.277 358.95 473.681 355.346 471.072C353.255 469.558 351.764 468.981 349.144 468.297C345.361 467.309 338.931 468.037 338.931 468.037L332.244 469.264C332.244 469.264 328.72 466.618 325.585 466.217C322.836 465.865 318.252 466.14 318.252 466.14C315.334 466.675 314.319 466.862 311.692 468.055C309.064 469.249 306.297 471.892 306.297 471.892L303.908 476.6L295.662 475.979C292.896 476.487 290.941 476.845 288.707 477.967C286.474 479.089 283.646 481.19 282.181 484.502C280.816 487.59 280.653 490.03 280.944 493.268C281.367 497.972 282.156 500.78 285.783 504.122C288.392 506.526 290.57 507.42 294.267 508.257C297.048 508.886 298.695 508.644 301.537 507.99Z" stroke="#9D8275" stroke-width="5"/>
<path d="M301.537 507.99C303.943 507.437 308.179 504.061 308.179 504.061C308.179 504.061 311.519 506.737 313.412 507.683C315.827 508.891 316.632 509.294 319.336 509.704C322.962 510.254 323.777 509.829 326.696 509.294C329.461 508.786 330.609 507.374 332.851 505.8C334.527 504.624 335.886 502.397 335.886 502.397C335.886 502.397 340.409 504.4 343.598 504.539C346.85 504.681 348.894 504.358 351.859 503.023C354.643 501.769 356.112 500.619 357.914 498.354C360.08 495.63 360.631 493.484 361.308 490.259C362.119 486.389 362.108 484.092 361.112 480.332C360.037 476.277 358.95 473.681 355.346 471.072C353.255 469.558 351.764 468.981 349.144 468.297C345.361 467.309 338.931 468.037 338.931 468.037L332.244 469.264C332.244 469.264 328.72 466.618 325.585 466.217C322.836 465.865 318.252 466.14 318.252 466.14C315.334 466.675 314.319 466.862 311.692 468.055C309.064 469.249 306.297 471.892 306.297 471.892L303.908 476.6L295.662 475.979C292.896 476.487 290.941 476.845 288.707 477.967C286.474 479.089 283.646 481.19 282.181 484.502C280.816 487.59 280.653 490.03 280.944 493.268C281.367 497.972 282.156 500.78 285.783 504.122C288.392 506.526 290.57 507.42 294.267 508.257C297.048 508.886 298.695 508.644 301.537 507.99Z" stroke="black" stroke-opacity="0.2" stroke-width="5"/>
<path d="M215.591 501.645C218.056 501.51 223.24 498.022 223.24 498.022C223.24 498.022 224.045 500.437 225.252 502.283C226.566 504.29 227.668 505.67 230.083 506.476C233.604 507.649 234.849 507.519 237.8 507.209C240.952 506.878 241.695 506.436 244.172 505.268C246.024 504.395 248.6 501.242 248.6 501.242C248.6 501.242 249.26 502.414 250.715 503.658C252.126 504.865 253.908 506.14 255.444 506.476C257.031 506.822 259.459 507.054 261.482 506.878C263.513 506.701 265.54 506.479 267.118 506.073C270.075 505.313 271.25 503.824 273.156 501.645C275.974 498.425 276.042 497.403 277.181 493.996C278.431 490.261 278.577 487.767 278.237 483.892C277.869 479.713 277.241 476.969 274.135 473.784C272.332 471.936 270.961 471.113 268.497 469.992C264.938 468.373 258.478 467.994 258.478 467.994L251.679 468.063C251.679 468.063 248.658 464.855 245.638 463.925C242.988 463.109 238.425 462.598 238.425 462.598C235.458 462.628 234.426 462.638 231.634 463.367C228.842 464.095 227.614 464.53 225.664 466.227C224.108 467.58 222.507 470.459 222.507 470.459C222.507 470.459 217.597 468.205 214.786 468.233C211.975 468.262 210.335 468.314 207.943 469.038C205.55 469.762 203.913 470.855 201.904 473.869C200.032 476.679 199.087 479.715 199.087 482.966C199.087 487.556 199.409 490.414 201.502 494.486C202.287 496.013 203.079 497.12 203.917 498.022C204.798 498.97 205.746 499.691 207.54 500.437C210.173 501.532 212.679 501.804 215.591 501.645Z" fill="#C5B2AA"/>
<path d="M215.591 501.645C218.056 501.51 223.24 498.022 223.24 498.022C223.24 498.022 224.045 500.437 225.252 502.283C226.566 504.29 227.668 505.67 230.083 506.476C233.604 507.649 234.849 507.519 237.8 507.209C240.952 506.878 241.695 506.436 244.172 505.268C246.024 504.395 248.6 501.242 248.6 501.242C248.6 501.242 249.26 502.414 250.715 503.658C252.126 504.865 253.908 506.14 255.444 506.476C257.031 506.822 259.459 507.054 261.482 506.878C263.513 506.701 265.54 506.479 267.118 506.073C270.075 505.313 271.25 503.824 273.156 501.645C275.974 498.425 276.042 497.403 277.181 493.996C278.431 490.261 278.577 487.767 278.237 483.892C277.869 479.713 277.241 476.969 274.135 473.784C272.332 471.936 270.961 471.113 268.497 469.992C264.938 468.373 258.478 467.994 258.478 467.994L251.679 468.063C251.679 468.063 248.658 464.855 245.638 463.925C242.988 463.109 238.425 462.598 238.425 462.598C235.458 462.628 234.426 462.638 231.634 463.367C228.842 464.095 227.614 464.53 225.664 466.227C224.108 467.58 222.507 470.459 222.507 470.459C222.507 470.459 217.597 468.205 214.786 468.233C211.975 468.262 210.335 468.314 207.943 469.038C205.55 469.762 203.913 470.855 201.904 473.869C200.032 476.679 199.087 479.715 199.087 482.966C199.087 487.556 199.409 490.414 201.502 494.486C202.287 496.013 203.079 497.12 203.917 498.022C204.798 498.97 205.746 499.691 207.54 500.437C210.173 501.532 212.679 501.804 215.591 501.645Z" stroke="#9D8275" stroke-width="5"/>
<path d="M215.591 501.645C218.056 501.51 223.24 498.022 223.24 498.022C223.24 498.022 224.045 500.437 225.252 502.283C226.566 504.29 227.668 505.67 230.083 506.476C233.604 507.649 234.849 507.519 237.8 507.209C240.952 506.878 241.695 506.436 244.172 505.268C246.024 504.395 248.6 501.242 248.6 501.242C248.6 501.242 249.26 502.414 250.715 503.658C252.126 504.865 253.908 506.14 255.444 506.476C257.031 506.822 259.459 507.054 261.482 506.878C263.513 506.701 265.54 506.479 267.118 506.073C270.075 505.313 271.25 503.824 273.156 501.645C275.974 498.425 276.042 497.403 277.181 493.996C278.431 490.261 278.577 487.767 278.237 483.892C277.869 479.713 277.241 476.969 274.135 473.784C272.332 471.936 270.961 471.113 268.497 469.992C264.938 468.373 258.478 467.994 258.478 467.994L251.679 468.063C251.679 468.063 248.658 464.855 245.638 463.925C242.988 463.109 238.425 462.598 238.425 462.598C235.458 462.628 234.426 462.638 231.634 463.367C228.842 464.095 227.614 464.53 225.664 466.227C224.108 467.58 222.507 470.459 222.507 470.459C222.507 470.459 217.597 468.205 214.786 468.233C211.975 468.262 210.335 468.314 207.943 469.038C205.55 469.762 203.913 470.855 201.904 473.869C200.032 476.679 199.087 479.715 199.087 482.966C199.087 487.556 199.409 490.414 201.502 494.486C202.287 496.013 203.079 497.12 203.917 498.022C204.798 498.97 205.746 499.691 207.54 500.437C210.173 501.532 212.679 501.804 215.591 501.645Z" stroke="black" stroke-opacity="0.2" stroke-width="5"/>
<path d="M167.886 196.7C154.865 158.145 153.466 134.432 160.099 88.8957C207.129 94.5705 227.438 103.762 259.386 124.4L167.886 196.7Z" fill="#FEFFFB"/>
<path d="M181.732 171.433C174.876 150.8 174.139 138.11 177.631 113.741C202.394 116.778 213.088 121.697 229.909 132.741L181.732 171.433Z" fill="#FBC3A8"/>
<path fill-rule="evenodd" clip-rule="evenodd" d="M155.798 83L160.692 83.5933C184.391 86.4664 201.62 90.2601 217.044 96.0517C232.467 101.843 245.86 109.548 261.915 119.968L267.809 123.793L165.363 205.122L163.072 198.307C156.488 178.717 152.766 162.67 151.581 145.627C150.399 128.625 151.759 110.862 155.09 87.8824L155.798 83ZM164.388 94.2431C161.621 114.497 160.622 130.136 161.651 144.926C162.621 158.892 165.412 172.278 170.408 188.223L250.492 124.647C237.321 116.346 226.069 110.23 213.498 105.51C200.122 100.487 185.058 96.974 164.388 94.2431Z" fill="#9D8275"/>
<path fill-rule="evenodd" clip-rule="evenodd" d="M155.798 83L160.692 83.5933C184.391 86.4664 201.62 90.2601 217.044 96.0517C232.467 101.843 245.86 109.548 261.915 119.968L267.809 123.793L165.363 205.122L163.072 198.307C156.488 178.717 152.766 162.67 151.581 145.627C150.399 128.625 151.759 110.862 155.09 87.8824L155.798 83ZM164.388 94.2431C161.621 114.497 160.622 130.136 161.651 144.926C162.621 158.892 165.412 172.278 170.408 188.223L250.492 124.647C237.321 116.346 226.069 110.23 213.498 105.51C200.122 100.487 185.058 96.974 164.388 94.2431Z" fill="black" fill-opacity="0.2"/>
<path d="M395.104 196.7C408.125 158.145 409.524 134.432 402.892 88.8957C355.861 94.5705 335.552 103.762 303.604 124.4L395.104 196.7Z" fill="#FEFFFB"/>
<path d="M381.633 171.433C388.542 150.8 389.284 138.11 385.765 113.741C360.81 116.778 350.034 121.697 333.082 132.741L381.633 171.433Z" fill="#FBC3A8"/>
<path fill-rule="evenodd" clip-rule="evenodd" d="M407.192 83L402.298 83.5933C378.599 86.4664 361.371 90.2601 345.946 96.0517C330.523 101.843 317.13 109.548 301.076 119.968L295.181 123.793L397.627 205.122L399.918 198.307C406.503 178.717 410.225 162.67 411.409 145.627C412.591 128.625 411.231 110.862 407.9 87.8824L407.192 83ZM398.602 94.2431C401.369 114.497 402.368 130.136 401.34 144.926C400.369 158.892 397.578 172.278 392.582 188.223L312.499 124.647C325.669 116.346 336.922 110.23 349.492 105.51C362.869 100.487 377.933 96.974 398.602 94.2431Z" fill="#9D8275"/>
<path fill-rule="evenodd" clip-rule="evenodd" d="M407.192 83L402.298 83.5933C378.599 86.4664 361.371 90.2601 345.946 96.0517C330.523 101.843 317.13 109.548 301.076 119.968L295.181 123.793L397.627 205.122L399.918 198.307C406.503 178.717 410.225 162.67 411.409 145.627C412.591 128.625 411.231 110.862 407.9 87.8824L407.192 83ZM398.602 94.2431C401.369 114.497 402.368 130.136 401.34 144.926C400.369 158.892 397.578 172.278 392.582 188.223L312.499 124.647C325.669 116.346 336.922 110.23 349.492 105.51C362.869 100.487 377.933 96.974 398.602 94.2431Z" fill="black" fill-opacity="0.2"/>
<path d="M146.718 272.555C146.434 271.038 127.028 270.027 128.038 262.95C129.048 255.873 146.718 253.345 153.786 232.619C174.204 172.745 209.352 120.9 280.231 120.9C351.111 120.9 386.259 172.745 406.677 232.619C413.745 253.345 431.415 255.873 432.425 262.95C433.434 270.027 414.029 271.038 413.745 272.555C413.461 274.072 428.386 282.16 428.386 287.215C428.386 292.27 409.202 298.842 396.076 309.963C364.091 337.062 322.654 352.932 280.231 352.932C237.809 352.932 196.372 337.062 164.387 309.963C151.261 298.842 132.077 292.27 132.077 287.215C132.077 282.16 147.002 274.072 146.718 272.555Z" fill="#9D8275"/>
<path d="M146.718 272.555C146.434 271.038 127.028 270.027 128.038 262.95C129.048 255.873 146.718 253.345 153.786 232.619C174.204 172.745 209.352 120.9 280.231 120.9C351.111 120.9 386.259 172.745 406.677 232.619C413.745 253.345 431.415 255.873 432.425 262.95C433.434 270.027 414.029 271.038 413.745 272.555C413.461 274.072 428.386 282.16 428.386 287.215C428.386 292.27 409.202 298.842 396.076 309.963C364.091 337.062 322.654 352.932 280.231 352.932C237.809 352.932 196.372 337.062 164.387 309.963C151.261 298.842 132.077 292.27 132.077 287.215C132.077 282.16 147.002 274.072 146.718 272.555Z" stroke="#9D8275" stroke-width="5"/>
<path d="M146.718 272.555C146.434 271.038 127.028 270.027 128.038 262.95C129.048 255.873 146.718 253.345 153.786 232.619C174.204 172.745 209.352 120.9 280.231 120.9C351.111 120.9 386.259 172.745 406.677 232.619C413.745 253.345 431.415 255.873 432.425 262.95C433.434 270.027 414.029 271.038 413.745 272.555C413.461 274.072 428.386 282.16 428.386 287.215C428.386 292.27 409.202 298.842 396.076 309.963C364.091 337.062 322.654 352.932 280.231 352.932C237.809 352.932 196.372 337.062 164.387 309.963C151.261 298.842 132.077 292.27 132.077 287.215C132.077 282.16 147.002 274.072 146.718 272.555Z" stroke="black" stroke-opacity="0.2" stroke-width="5"/>
<path d="M219.159 259.445C210.067 259.445 164.74 263.05 157.032 288.76C145.819 326.163 253.152 352.511 280.33 352.511C307.538 352.511 413.114 329.701 403.169 288.76C396.833 262.678 350.134 259.445 341.043 259.445C331.951 259.445 330.891 276.874 322.859 273.092C307.431 265.827 301.994 260.961 282.295 260.961C262.597 260.961 252.721 265.85 237.342 273.092C229.31 276.874 228.25 259.445 219.159 259.445Z" fill="#FEFFFB"/>
<path d="M234.543 199.787C234.543 205.159 221.342 199.787 216.307 199.787C211.271 199.787 199.59 199.016 199.59 193.644C199.59 188.273 202.123 182.382 216.307 182.382C230.49 182.382 234.543 194.415 234.543 199.787Z" fill="#FEFFFB"/>
<path d="M325.502 199.787C325.502 205.159 338.703 199.787 343.738 199.787C348.774 199.787 360.455 199.016 360.455 193.644C360.455 188.273 357.922 182.382 343.738 182.382C329.555 182.382 325.502 194.415 325.502 199.787Z" fill="#FEFFFB"/>
<path d="M280.618 303.241C278.607 303.241 265.032 298.25 263.637 290.514C262.242 282.778 300 282.778 297.599 290.514C295.198 298.25 282.629 303.241 280.618 303.241Z" fill="#27051B"/>
<path d="M285.496 289.766C285.496 290.696 283.234 291.45 280.443 291.45C277.652 291.45 275.39 290.696 275.39 289.766C275.39 288.835 277.652 288.081 280.443 288.081C283.234 288.081 285.496 288.835 285.496 289.766Z" fill="white" fill-opacity="0.5"/>
<path d="M280.964 301.897V317.116M280.964 317.116C280.964 317.116 276.28 321.676 272.459 322.041C267.865 322.478 261.716 317.116 261.716 317.116M280.964 317.116C280.964 317.116 285.639 321.806 289.47 322.041C293.761 322.303 299.318 317.116 299.318 317.116" stroke="black" stroke-width="5" stroke-linecap="round"/>
<ellipse cx="22.07" cy="29.6423" rx="22.07" ry="29.6423" transform="matrix(-0.998648 0.0519817 0.0519817 0.998648 364.019 208.645)" fill="black" stroke="#504B4F"/>
<circle cx="6.20718" cy="6.20718" r="6.20718" transform="matrix(-0.923252 0.384195 0.384195 0.923252 340.728 219.032)" fill="white" stroke="#504B4F"/>
<ellipse cx="22.07" cy="29.6423" rx="22.07" ry="29.6423" transform="matrix(-0.998648 0.0519817 0.0519817 0.998648 241.663 208.645)" fill="black" stroke="#504B4F"/>
<circle cx="6.20718" cy="6.20718" r="6.20718" transform="matrix(-0.923252 0.384195 0.384195 0.923252 218.372 219.033)" fill="white" stroke="#504B4F"/>
<circle cx="323.791" cy="291.582" r="1.20333" transform="rotate(20.1646 323.791 291.582)" fill="#504B4F" stroke="#504B4F"/>
<circle cx="317.384" cy="302.048" r="1.20333" transform="rotate(20.1646 317.384 302.048)" fill="#504B4F" stroke="#504B4F"/>
<circle cx="326.191" cy="312.973" r="1.20333" transform="rotate(20.1646 326.191 312.973)" fill="#504B4F" stroke="#504B4F"/>
<path d="M336.36 291.818C355.963 284.817 365.511 285.206 380.735 291.397" stroke="black" stroke-opacity="0.6" stroke-linecap="round"/>
<path d="M335.342 312.017C355.91 308.815 365.216 310.987 379.009 319.923" stroke="black" stroke-opacity="0.6" stroke-linecap="round"/>
<path d="M332.429 303.065C352.572 297.816 362.048 299.044 376.668 306.551" stroke="black" stroke-opacity="0.6" stroke-linecap="round"/>
<circle cx="1.20333" cy="1.20333" r="1.20333" transform="matrix(-0.938706 0.344719 0.344719 0.938706 242.625 290.038)" fill="#504B4F" stroke="#504B4F"/>
<circle cx="1.20333" cy="1.20333" r="1.20333" transform="matrix(-0.938706 0.344719 0.344719 0.938706 249.032 300.504)" fill="#504B4F" stroke="#504B4F"/>
<circle cx="1.20333" cy="1.20333" r="1.20333" transform="matrix(-0.938706 0.344719 0.344719 0.938706 240.225 311.429)" fill="#504B4F" stroke="#504B4F"/>
<path d="M229.341 291.819C209.738 284.818 200.19 285.207 184.966 291.397" stroke="black" stroke-opacity="0.6" stroke-linecap="round"/>
<path d="M230.359 312.017C209.791 308.816 200.486 310.988 186.692 319.923" stroke="black" stroke-opacity="0.6" stroke-linecap="round"/>
<path d="M233.273 303.066C213.13 297.817 203.654 299.045 189.033 306.552" stroke="black" stroke-opacity="0.6" stroke-linecap="round"/>
</svg>
