<svg width="600" height="600" viewBox="0 0 600 600" fill="none" xmlns="http://www.w3.org/2000/svg">
<path d="M174.157 233.002C178.74 239.303 182.502 242.1 189.144 246.173C206.598 256.876 221.39 255.167 241.374 250.715C256.782 247.282 265.343 242.815 277.708 233.002C288.047 224.798 299.963 207.568 299.963 207.568C299.963 207.568 282.434 205.941 271.35 203.935C262.585 202.348 257.99 199.412 249.095 198.939C237.419 198.317 219.574 203.935 219.574 203.935C219.574 203.935 226.941 193.812 228.203 186.222C229.744 176.957 225.136 171.88 223.662 162.605C221.281 147.633 219.574 124 219.574 124C219.574 124 198.77 135.114 189.144 146.255C177.837 159.341 173.285 169.229 170.069 186.222C166.659 204.24 163.369 218.173 174.157 233.002Z" fill="white"/>
<path d="M174.157 233.002C178.74 239.303 182.502 242.1 189.144 246.173C206.598 256.876 221.39 255.167 241.374 250.715C256.782 247.282 265.343 242.815 277.708 233.002C288.047 224.798 299.963 207.568 299.963 207.568C299.963 207.568 282.434 205.941 271.35 203.935C262.585 202.348 257.99 199.412 249.095 198.939C237.419 198.317 219.574 203.935 219.574 203.935C219.574 203.935 226.941 193.812 228.203 186.222C229.744 176.957 225.136 171.88 223.662 162.605C221.281 147.633 219.574 124 219.574 124C219.574 124 198.77 135.114 189.144 146.255C177.837 159.341 173.285 169.229 170.069 186.222C166.659 204.24 163.369 218.173 174.157 233.002Z" stroke="white" stroke-width="5"/>
<path d="M174.157 233.002C178.74 239.303 182.502 242.1 189.144 246.173C206.598 256.876 221.39 255.167 241.374 250.715C256.782 247.282 265.343 242.815 277.708 233.002C288.047 224.798 299.963 207.568 299.963 207.568C299.963 207.568 282.434 205.941 271.35 203.935C262.585 202.348 257.99 199.412 249.095 198.939C237.419 198.317 219.574 203.935 219.574 203.935C219.574 203.935 226.941 193.812 228.203 186.222C229.744 176.957 225.136 171.88 223.662 162.605C221.281 147.633 219.574 124 219.574 124C219.574 124 198.77 135.114 189.144 146.255C177.837 159.341 173.285 169.229 170.069 186.222C166.659 204.24 163.369 218.173 174.157 233.002Z" stroke="black" stroke-opacity="0.2" stroke-width="5"/>
<path d="M220.831 148.071C204.082 161.531 196.507 173.421 186.314 202.572" stroke="#D7D3D3" stroke-opacity="0.6" stroke-width="5" stroke-linecap="round"/>
<path d="M270.346 205.751C256.436 222.128 244.344 229.377 214.927 238.774" stroke="#D7D3D3" stroke-opacity="0.6" stroke-width="5" stroke-linecap="round"/>
<path d="M302.043 267.634C305.359 282.216 323.389 299.426 323.389 299.426H373.803C373.803 299.426 352.197 249.111 323.389 244.017C315.18 242.565 308.227 238.427 302.043 244.017C295.201 250.201 299.998 258.64 302.043 267.634Z" fill="white"/>
<path d="M302.043 267.634C305.359 282.216 323.389 299.426 323.389 299.426H373.803C373.803 299.426 352.197 249.111 323.389 244.017C315.18 242.565 308.227 238.427 302.043 244.017C295.201 250.201 299.998 258.64 302.043 267.634Z" stroke="white" stroke-width="5"/>
<path d="M302.043 267.634C305.359 282.216 323.389 299.426 323.389 299.426H373.803C373.803 299.426 352.197 249.111 323.389 244.017C315.18 242.565 308.227 238.427 302.043 244.017C295.201 250.201 299.998 258.64 302.043 267.634Z" stroke="black" stroke-opacity="0.2" stroke-width="5"/>
<path d="M304.853 245.057C324.604 253.519 335.096 262.934 352.751 288.272" stroke="#D7D3D3" stroke-opacity="0.6" stroke-width="5" stroke-linecap="round"/>
<path d="M300.766 261.615C314.845 268.182 322.112 273.424 333.92 288.412" stroke="#D7D3D3" stroke-opacity="0.6" stroke-width="5" stroke-linecap="round"/>
<path d="M185.435 233.159C180.957 232.531 177.846 233.83 174.031 236.258C163.256 243.115 159.371 251.02 153.139 262.6C147.487 273.1 145.225 280.451 143.197 292.202C139.699 312.468 140.908 326.085 149.09 345.26C157.64 365.297 169.047 373.225 185.435 387.578C209.035 408.248 225.971 416.165 255.378 427.091C294.034 441.454 318.96 447.966 359.838 442.533C396.601 437.648 415.128 424.377 447.948 407.108C453.498 404.188 457.492 403.717 462.028 399.387C468.282 393.416 469.443 387.786 471.565 379.403C474.22 368.915 477.695 360.614 471.565 351.698C468.786 347.656 465.659 346.822 462.028 343.523C450.133 332.717 447.166 322.755 434.323 313.094C417.554 300.479 405.131 297.466 384.818 292.202C356.284 284.806 338.85 286.828 309.425 288.568C285.261 289.997 272.251 295.863 248.111 297.652C223.702 299.46 197.713 318.826 185.435 297.652C180.811 289.677 180.041 283.667 180.893 274.489C181.928 263.35 187.972 258.514 193.156 248.601C196.285 242.617 192.112 234.094 185.435 233.159Z" fill="white"/>
<path d="M185.435 233.159C180.957 232.531 177.846 233.83 174.031 236.258C163.256 243.115 159.371 251.02 153.139 262.6C147.487 273.1 145.225 280.451 143.197 292.202C139.699 312.468 140.908 326.085 149.09 345.26C157.64 365.297 169.047 373.225 185.435 387.578C209.035 408.248 225.971 416.165 255.378 427.091C294.034 441.454 318.96 447.966 359.838 442.533C396.601 437.648 415.128 424.377 447.948 407.108C453.498 404.188 457.492 403.717 462.028 399.387C468.282 393.416 469.443 387.786 471.565 379.403C474.22 368.915 477.695 360.614 471.565 351.698C468.786 347.656 465.659 346.822 462.028 343.523C450.133 332.717 447.166 322.755 434.323 313.094C417.554 300.479 405.131 297.466 384.818 292.202C356.284 284.806 338.85 286.828 309.425 288.568C285.261 289.997 272.251 295.863 248.111 297.652C223.702 299.46 197.713 318.826 185.435 297.652C180.811 289.677 180.041 283.667 180.893 274.489C181.928 263.35 187.972 258.514 193.156 248.601C196.285 242.617 192.112 234.094 185.435 233.159Z" stroke="white" stroke-width="5"/>
<path d="M185.435 233.159C180.957 232.531 177.846 233.83 174.031 236.258C163.256 243.115 159.371 251.02 153.139 262.6C147.487 273.1 145.225 280.451 143.197 292.202C139.699 312.468 140.908 326.085 149.09 345.26C157.64 365.297 169.047 373.225 185.435 387.578C209.035 408.248 225.971 416.165 255.378 427.091C294.034 441.454 318.96 447.966 359.838 442.533C396.601 437.648 415.128 424.377 447.948 407.108C453.498 404.188 457.492 403.717 462.028 399.387C468.282 393.416 469.443 387.786 471.565 379.403C474.22 368.915 477.695 360.614 471.565 351.698C468.786 347.656 465.659 346.822 462.028 343.523C450.133 332.717 447.166 322.755 434.323 313.094C417.554 300.479 405.131 297.466 384.818 292.202C356.284 284.806 338.85 286.828 309.425 288.568C285.261 289.997 272.251 295.863 248.111 297.652C223.702 299.46 197.713 318.826 185.435 297.652C180.811 289.677 180.041 283.667 180.893 274.489C181.928 263.35 187.972 258.514 193.156 248.601C196.285 242.617 192.112 234.094 185.435 233.159Z" stroke="black" stroke-opacity="0.2" stroke-width="5"/>
<mask id="mask0_52_1142" style="mask-type:alpha" maskUnits="userSpaceOnUse" x="138" y="230" width="340" height="217">
<path d="M185.455 233.082C180.977 232.454 177.866 233.753 174.051 236.181C163.276 243.037 159.391 250.943 153.159 262.523C147.507 273.023 145.245 280.374 143.217 292.124C139.719 312.391 140.928 326.008 149.11 345.183C157.661 365.22 169.067 373.148 185.455 387.501C209.055 408.171 225.991 416.088 255.398 427.014C294.054 441.377 318.98 447.889 359.858 442.456C396.621 437.571 415.148 424.3 447.968 407.031C453.518 404.111 457.512 403.64 462.048 399.31C468.302 393.338 469.463 387.709 471.585 379.326C474.24 368.837 477.715 360.537 471.585 351.621C468.806 347.579 465.679 346.745 462.048 343.446C450.153 332.639 447.186 322.678 434.343 313.016C417.574 300.402 405.151 297.389 384.838 292.124C356.304 284.729 338.87 286.751 309.445 288.491C285.281 289.92 272.271 295.786 248.131 297.575C223.722 299.383 197.733 318.749 185.455 297.575C180.831 289.6 180.061 283.59 180.913 274.412C181.948 263.273 187.992 258.437 193.176 248.524C196.305 242.539 192.132 234.017 185.455 233.082Z" fill="white"/>
<path d="M185.455 233.082C180.977 232.454 177.866 233.753 174.051 236.181C163.276 243.037 159.391 250.943 153.159 262.523C147.507 273.023 145.245 280.374 143.217 292.124C139.719 312.391 140.928 326.008 149.11 345.183C157.661 365.22 169.067 373.148 185.455 387.501C209.055 408.171 225.991 416.088 255.398 427.014C294.054 441.377 318.98 447.889 359.858 442.456C396.621 437.571 415.148 424.3 447.968 407.031C453.518 404.111 457.512 403.64 462.048 399.31C468.302 393.338 469.463 387.709 471.585 379.326C474.24 368.837 477.715 360.537 471.585 351.621C468.806 347.579 465.679 346.745 462.048 343.446C450.153 332.639 447.186 322.678 434.343 313.016C417.574 300.402 405.151 297.389 384.838 292.124C356.304 284.729 338.87 286.751 309.445 288.491C285.281 289.92 272.271 295.786 248.131 297.575C223.722 299.383 197.733 318.749 185.455 297.575C180.831 289.6 180.061 283.59 180.913 274.412C181.948 263.273 187.992 258.437 193.176 248.524C196.305 242.539 192.132 234.017 185.455 233.082Z" stroke="white" stroke-width="5"/>
<path d="M185.455 233.082C180.977 232.454 177.866 233.753 174.051 236.181C163.276 243.037 159.391 250.943 153.159 262.523C147.507 273.023 145.245 280.374 143.217 292.124C139.719 312.391 140.928 326.008 149.11 345.183C157.661 365.22 169.067 373.148 185.455 387.501C209.055 408.171 225.991 416.088 255.398 427.014C294.054 441.377 318.98 447.889 359.858 442.456C396.621 437.571 415.148 424.3 447.968 407.031C453.518 404.111 457.512 403.64 462.048 399.31C468.302 393.338 469.463 387.709 471.585 379.326C474.24 368.837 477.715 360.537 471.585 351.621C468.806 347.579 465.679 346.745 462.048 343.446C450.153 332.639 447.186 322.678 434.343 313.016C417.574 300.402 405.151 297.389 384.838 292.124C356.304 284.729 338.87 286.751 309.445 288.491C285.281 289.92 272.271 295.786 248.131 297.575C223.722 299.383 197.733 318.749 185.455 297.575C180.831 289.6 180.061 283.59 180.913 274.412C181.948 263.273 187.992 258.437 193.176 248.524C196.305 242.539 192.132 234.017 185.455 233.082Z" stroke="black" stroke-opacity="0.2" stroke-width="5"/>
</mask>
<g mask="url(#mask0_52_1142)">
<path d="M299.178 264.616C307.028 260.686 314.478 262.934 321.629 263.45C322.966 263.614 323.334 263.876 324.448 264.022C325.811 264.2 326.849 264.53 327.964 264.179C330.936 263.244 333.233 261.894 336.789 261.039C341.254 259.966 344.054 258.628 348.484 259.834C352.453 260.914 354.369 262.758 357.211 265.732C361.463 270.184 360.221 275.724 363.916 280C368.627 285.451 377.293 289.203 383.805 291.813C391.278 294.808 399.196 293.95 406.329 300.011C412.323 305.104 415.375 309.317 417.195 316.968C418.476 322.353 419.081 325.941 417.183 331.14C415.232 336.484 412.2 340.528 407.693 342.193C401.805 344.37 397.014 343.741 390.121 344.109C381.165 344.588 375.216 339.749 367.16 343.689C361.972 346.226 360.95 350.283 356.368 353.798C343.141 363.943 333.111 370.74 316.522 369.105C308.675 368.332 302.711 368.648 297.305 362.907C292.397 357.695 292.021 352.562 291.852 345.405C291.546 332.413 304.919 328.862 307.775 316.183C309.492 308.56 315.437 300.481 308.897 296.204C306.252 294.475 303.928 295.622 301.002 294.428C292.942 291.141 285.349 286.17 286.459 277.537C287.359 270.534 292.816 267.801 299.125 264.643L299.178 264.616Z" fill="#E93C02"/>
<path d="M299.178 264.616C307.028 260.686 314.478 262.934 321.629 263.45C322.966 263.614 323.334 263.876 324.448 264.022C325.811 264.2 326.849 264.53 327.964 264.179C330.936 263.244 333.233 261.894 336.789 261.039C341.254 259.966 344.054 258.628 348.484 259.834C352.453 260.914 354.369 262.758 357.211 265.732C361.463 270.184 360.221 275.724 363.916 280C368.627 285.451 377.293 289.203 383.805 291.813C391.278 294.808 399.196 293.95 406.329 300.011C412.323 305.104 415.375 309.317 417.195 316.968C418.476 322.353 419.081 325.941 417.183 331.14C415.232 336.484 412.2 340.528 407.693 342.193C401.805 344.37 397.014 343.741 390.121 344.109C381.165 344.588 375.216 339.749 367.16 343.689C361.972 346.226 360.95 350.283 356.368 353.798C343.141 363.943 333.111 370.74 316.522 369.105C308.675 368.332 302.711 368.648 297.305 362.907C292.397 357.695 292.021 352.562 291.852 345.405C291.546 332.413 304.919 328.862 307.775 316.183C309.492 308.56 315.437 300.481 308.897 296.204C306.252 294.475 303.928 295.622 301.002 294.428C292.942 291.141 285.349 286.17 286.459 277.537C287.359 270.534 292.816 267.801 299.125 264.643L299.178 264.616Z" stroke="#E93C02" stroke-width="5" stroke-linecap="round"/>
<path d="M299.178 264.616C307.028 260.686 314.478 262.934 321.629 263.45C322.966 263.614 323.334 263.876 324.448 264.022C325.811 264.2 326.849 264.53 327.964 264.179C330.936 263.244 333.233 261.894 336.789 261.039C341.254 259.966 344.054 258.628 348.484 259.834C352.453 260.914 354.369 262.758 357.211 265.732C361.463 270.184 360.221 275.724 363.916 280C368.627 285.451 377.293 289.203 383.805 291.813C391.278 294.808 399.196 293.95 406.329 300.011C412.323 305.104 415.375 309.317 417.195 316.968C418.476 322.353 419.081 325.941 417.183 331.14C415.232 336.484 412.2 340.528 407.693 342.193C401.805 344.37 397.014 343.741 390.121 344.109C381.165 344.588 375.216 339.749 367.16 343.689C361.972 346.226 360.95 350.283 356.368 353.798C343.141 363.943 333.111 370.74 316.522 369.105C308.675 368.332 302.711 368.648 297.305 362.907C292.397 357.695 292.021 352.562 291.852 345.405C291.546 332.413 304.919 328.862 307.775 316.183C309.492 308.56 315.437 300.481 308.897 296.204C306.252 294.475 303.928 295.622 301.002 294.428C292.942 291.141 285.349 286.17 286.459 277.537C287.359 270.534 292.816 267.801 299.125 264.643L299.178 264.616Z" stroke="black" stroke-opacity="0.2" stroke-width="5" stroke-linecap="round"/>
<path d="M134.766 324.567C142.617 320.637 150.066 322.885 157.218 323.401C158.554 323.565 158.922 323.827 160.036 323.973C161.399 324.151 162.437 324.481 163.553 324.13C166.524 323.195 168.821 321.845 172.378 320.991C176.842 319.918 179.642 318.579 184.073 319.785C188.042 320.865 189.958 322.709 192.799 325.683C197.052 330.135 195.809 335.675 199.504 339.951C204.215 345.402 212.881 349.155 219.393 351.765C226.866 354.76 234.784 353.901 241.918 359.962C247.911 365.055 250.963 369.268 252.783 376.92C254.064 382.304 254.669 385.892 252.771 391.091C250.82 396.435 247.788 400.479 243.282 402.145C237.393 404.321 232.602 403.692 225.709 404.061C216.753 404.539 210.804 399.7 202.748 403.64C197.561 406.178 196.538 410.234 191.956 413.749C178.729 423.894 168.7 430.692 152.111 429.057C144.263 428.283 138.3 428.599 132.894 422.858C127.986 417.646 127.609 412.513 127.44 405.356C127.134 392.364 140.508 388.813 143.363 376.135C145.08 368.511 151.025 360.432 144.485 356.155C141.84 354.426 139.516 355.573 136.59 354.38C128.53 351.092 120.937 346.121 122.047 337.488C122.947 330.485 128.404 327.753 134.713 324.594L134.766 324.567Z" fill="#E93C02"/>
<path d="M134.766 324.567C142.617 320.637 150.066 322.885 157.218 323.401C158.554 323.565 158.922 323.827 160.036 323.973C161.399 324.151 162.437 324.481 163.553 324.13C166.524 323.195 168.821 321.845 172.378 320.991C176.842 319.918 179.642 318.579 184.073 319.785C188.042 320.865 189.958 322.709 192.799 325.683C197.052 330.135 195.809 335.675 199.504 339.951C204.215 345.402 212.881 349.155 219.393 351.765C226.866 354.76 234.784 353.901 241.918 359.962C247.911 365.055 250.963 369.268 252.783 376.92C254.064 382.304 254.669 385.892 252.771 391.091C250.82 396.435 247.788 400.479 243.282 402.145C237.393 404.321 232.602 403.692 225.709 404.061C216.753 404.539 210.804 399.7 202.748 403.64C197.561 406.178 196.538 410.234 191.956 413.749C178.729 423.894 168.7 430.692 152.111 429.057C144.263 428.283 138.3 428.599 132.894 422.858C127.986 417.646 127.609 412.513 127.44 405.356C127.134 392.364 140.508 388.813 143.363 376.135C145.08 368.511 151.025 360.432 144.485 356.155C141.84 354.426 139.516 355.573 136.59 354.38C128.53 351.092 120.937 346.121 122.047 337.488C122.947 330.485 128.404 327.753 134.713 324.594L134.766 324.567Z" stroke="#E93C02" stroke-width="5" stroke-linecap="round"/>
<path d="M134.766 324.567C142.617 320.637 150.066 322.885 157.218 323.401C158.554 323.565 158.922 323.827 160.036 323.973C161.399 324.151 162.437 324.481 163.553 324.13C166.524 323.195 168.821 321.845 172.378 320.991C176.842 319.918 179.642 318.579 184.073 319.785C188.042 320.865 189.958 322.709 192.799 325.683C197.052 330.135 195.809 335.675 199.504 339.951C204.215 345.402 212.881 349.155 219.393 351.765C226.866 354.76 234.784 353.901 241.918 359.962C247.911 365.055 250.963 369.268 252.783 376.92C254.064 382.304 254.669 385.892 252.771 391.091C250.82 396.435 247.788 400.479 243.282 402.145C237.393 404.321 232.602 403.692 225.709 404.061C216.753 404.539 210.804 399.7 202.748 403.64C197.561 406.178 196.538 410.234 191.956 413.749C178.729 423.894 168.7 430.692 152.111 429.057C144.263 428.283 138.3 428.599 132.894 422.858C127.986 417.646 127.609 412.513 127.44 405.356C127.134 392.364 140.508 388.813 143.363 376.135C145.08 368.511 151.025 360.432 144.485 356.155C141.84 354.426 139.516 355.573 136.59 354.38C128.53 351.092 120.937 346.121 122.047 337.488C122.947 330.485 128.404 327.753 134.713 324.594L134.766 324.567Z" stroke="black" stroke-opacity="0.2" stroke-width="5" stroke-linecap="round"/>
<path d="M299.577 393.297C302.846 394.976 303.929 398.047 305.524 400.589C305.8 401.081 305.802 401.27 306.028 401.682C306.305 402.186 306.451 402.618 306.845 402.908C307.896 403.68 308.92 404.121 310.088 405.111C311.555 406.353 312.7 406.967 313.388 408.761C314.005 410.368 313.857 411.471 313.556 413.166C313.105 415.703 310.927 416.654 310.397 418.959C309.722 421.898 310.599 425.752 311.329 428.597C312.166 431.86 314.415 434.321 314.133 438.229C313.896 441.512 313.229 443.585 311.096 446.092C309.595 447.856 308.533 448.948 306.308 449.594C304.021 450.257 301.906 450.234 300.229 449.124C298.038 447.674 297.065 445.901 295.235 443.665C292.858 440.76 293.02 437.555 289.697 435.809C287.558 434.686 285.935 435.344 283.615 434.666C276.918 432.711 272.142 431.006 268.59 425.001C266.91 422.16 265.328 420.225 265.929 416.98C266.475 414.033 268.115 412.636 270.489 410.809C274.8 407.492 279.307 411.128 284.294 408.956C287.292 407.65 291.49 407.659 291.316 404.393C291.246 403.072 290.284 402.571 289.963 401.288C289.079 397.754 288.879 393.961 292.068 392.199C294.655 390.771 296.928 391.938 299.555 393.286L299.577 393.297Z" fill="#E93C02"/>
<path d="M299.577 393.297C302.846 394.976 303.929 398.047 305.524 400.589C305.8 401.081 305.802 401.27 306.028 401.682C306.305 402.186 306.451 402.618 306.845 402.908C307.896 403.68 308.92 404.121 310.088 405.111C311.555 406.353 312.7 406.967 313.388 408.761C314.005 410.368 313.857 411.471 313.556 413.166C313.105 415.703 310.927 416.654 310.397 418.959C309.722 421.898 310.599 425.752 311.329 428.597C312.166 431.86 314.415 434.321 314.133 438.229C313.896 441.512 313.229 443.585 311.096 446.092C309.595 447.856 308.533 448.948 306.308 449.594C304.021 450.257 301.906 450.234 300.229 449.124C298.038 447.674 297.065 445.901 295.235 443.665C292.858 440.76 293.02 437.555 289.697 435.809C287.558 434.686 285.935 435.344 283.615 434.666C276.918 432.711 272.142 431.006 268.59 425.001C266.91 422.16 265.328 420.225 265.929 416.98C266.475 414.033 268.115 412.636 270.489 410.809C274.8 407.492 279.307 411.128 284.294 408.956C287.292 407.65 291.49 407.659 291.316 404.393C291.246 403.072 290.284 402.571 289.963 401.288C289.079 397.754 288.879 393.961 292.068 392.199C294.655 390.771 296.928 391.938 299.555 393.286L299.577 393.297Z" stroke="#E93C02" stroke-width="5" stroke-linecap="round"/>
<path d="M299.577 393.297C302.846 394.976 303.929 398.047 305.524 400.589C305.8 401.081 305.802 401.27 306.028 401.682C306.305 402.186 306.451 402.618 306.845 402.908C307.896 403.68 308.92 404.121 310.088 405.111C311.555 406.353 312.7 406.967 313.388 408.761C314.005 410.368 313.857 411.471 313.556 413.166C313.105 415.703 310.927 416.654 310.397 418.959C309.722 421.898 310.599 425.752 311.329 428.597C312.166 431.86 314.415 434.321 314.133 438.229C313.896 441.512 313.229 443.585 311.096 446.092C309.595 447.856 308.533 448.948 306.308 449.594C304.021 450.257 301.906 450.234 300.229 449.124C298.038 447.674 297.065 445.901 295.235 443.665C292.858 440.76 293.02 437.555 289.697 435.809C287.558 434.686 285.935 435.344 283.615 434.666C276.918 432.711 272.142 431.006 268.59 425.001C266.91 422.16 265.328 420.225 265.929 416.98C266.475 414.033 268.115 412.636 270.489 410.809C274.8 407.492 279.307 411.128 284.294 408.956C287.292 407.65 291.49 407.659 291.316 404.393C291.246 403.072 290.284 402.571 289.963 401.288C289.079 397.754 288.879 393.961 292.068 392.199C294.655 390.771 296.928 391.938 299.555 393.286L299.577 393.297Z" stroke="black" stroke-opacity="0.2" stroke-width="5" stroke-linecap="round"/>
<path d="M389.481 412.772C391.811 409.93 395.041 409.518 397.862 408.494C398.401 408.329 398.586 408.366 399.037 408.232C399.588 408.068 400.041 408.016 400.408 407.692C401.384 406.828 402.031 405.92 403.244 404.986C404.767 403.814 405.609 402.824 407.508 402.529C409.209 402.265 410.256 402.642 411.85 403.294C414.235 404.27 414.705 406.599 416.847 407.602C419.578 408.882 423.53 408.837 426.464 408.723C429.831 408.592 432.711 406.913 436.471 408.012C439.631 408.935 441.516 410.024 443.518 412.638C444.926 414.477 445.77 415.745 445.932 418.056C446.098 420.431 445.629 422.494 444.191 423.9C442.312 425.736 440.374 426.313 437.803 427.631C434.462 429.342 431.363 428.508 428.956 431.389C427.407 433.244 427.708 434.969 426.557 437.094C423.234 443.228 420.561 447.538 413.942 449.744C410.811 450.787 408.586 451.926 405.54 450.655C402.775 449.5 401.755 447.603 400.469 444.897C398.135 439.984 402.64 436.344 401.567 431.012C400.922 427.805 401.816 423.703 398.586 423.185C397.28 422.975 396.588 423.81 395.266 423.854C391.625 423.973 387.875 423.369 386.825 419.88C385.974 417.05 387.593 415.075 389.465 412.791L389.481 412.772Z" fill="#E93C02"/>
<path d="M389.481 412.772C391.811 409.93 395.041 409.518 397.862 408.494C398.401 408.329 398.586 408.366 399.037 408.232C399.588 408.068 400.041 408.016 400.408 407.692C401.384 406.828 402.031 405.92 403.244 404.986C404.767 403.814 405.609 402.824 407.508 402.529C409.209 402.265 410.256 402.642 411.85 403.294C414.235 404.27 414.705 406.599 416.847 407.602C419.578 408.882 423.53 408.837 426.464 408.723C429.831 408.592 432.711 406.913 436.471 408.012C439.631 408.935 441.516 410.024 443.518 412.638C444.926 414.477 445.77 415.745 445.932 418.056C446.098 420.431 445.629 422.494 444.191 423.9C442.312 425.736 440.374 426.313 437.803 427.631C434.462 429.342 431.363 428.508 428.956 431.389C427.407 433.244 427.708 434.969 426.557 437.094C423.234 443.228 420.561 447.538 413.942 449.744C410.811 450.787 408.586 451.926 405.54 450.655C402.775 449.5 401.755 447.603 400.469 444.897C398.135 439.984 402.64 436.344 401.567 431.012C400.922 427.805 401.816 423.703 398.586 423.185C397.28 422.975 396.588 423.81 395.266 423.854C391.625 423.973 387.875 423.369 386.825 419.88C385.974 417.05 387.593 415.075 389.465 412.791L389.481 412.772Z" stroke="#E93C02" stroke-width="5" stroke-linecap="round"/>
<path d="M389.481 412.772C391.811 409.93 395.041 409.518 397.862 408.494C398.401 408.329 398.586 408.366 399.037 408.232C399.588 408.068 400.041 408.016 400.408 407.692C401.384 406.828 402.031 405.92 403.244 404.986C404.767 403.814 405.609 402.824 407.508 402.529C409.209 402.265 410.256 402.642 411.85 403.294C414.235 404.27 414.705 406.599 416.847 407.602C419.578 408.882 423.53 408.837 426.464 408.723C429.831 408.592 432.711 406.913 436.471 408.012C439.631 408.935 441.516 410.024 443.518 412.638C444.926 414.477 445.77 415.745 445.932 418.056C446.098 420.431 445.629 422.494 444.191 423.9C442.312 425.736 440.374 426.313 437.803 427.631C434.462 429.342 431.363 428.508 428.956 431.389C427.407 433.244 427.708 434.969 426.557 437.094C423.234 443.228 420.561 447.538 413.942 449.744C410.811 450.787 408.586 451.926 405.54 450.655C402.775 449.5 401.755 447.603 400.469 444.897C398.135 439.984 402.64 436.344 401.567 431.012C400.922 427.805 401.816 423.703 398.586 423.185C397.28 422.975 396.588 423.81 395.266 423.854C391.625 423.973 387.875 423.369 386.825 419.88C385.974 417.05 387.593 415.075 389.465 412.791L389.481 412.772Z" stroke="black" stroke-opacity="0.2" stroke-width="5" stroke-linecap="round"/>
<path d="M217.028 274.948C214.806 277.874 211.593 278.406 208.811 279.534C208.279 279.719 208.092 279.689 207.647 279.839C207.102 280.024 206.652 280.092 206.298 280.43C205.354 281.33 204.741 282.261 203.563 283.239C202.085 284.467 201.28 285.487 199.394 285.853C197.704 286.18 196.643 285.842 195.027 285.25C192.607 284.363 192.05 282.053 189.873 281.13C187.096 279.953 183.149 280.144 180.221 280.367C176.861 280.623 174.046 282.408 170.247 281.45C167.055 280.644 165.131 279.626 163.034 277.088C161.558 275.303 160.668 274.067 160.42 271.764C160.166 269.396 160.557 267.318 161.942 265.86C163.752 263.954 165.667 263.305 168.188 261.894C171.463 260.059 174.591 260.778 176.889 257.81C178.368 255.899 178.003 254.186 179.074 252.02C182.168 245.766 184.679 241.36 191.211 238.91C194.301 237.751 196.482 236.53 199.573 237.688C202.379 238.738 203.469 240.596 204.855 243.253C207.37 248.076 203.003 251.88 204.273 257.169C205.036 260.35 204.296 264.482 207.542 264.88C208.855 265.041 209.516 264.181 210.836 264.088C214.47 263.834 218.24 264.298 219.418 267.746C220.374 270.542 218.829 272.576 217.043 274.928L217.028 274.948Z" fill="#E93C02"/>
<path d="M217.028 274.948C214.806 277.874 211.593 278.406 208.811 279.534C208.279 279.719 208.092 279.689 207.647 279.839C207.102 280.024 206.652 280.092 206.298 280.43C205.354 281.33 204.741 282.261 203.563 283.239C202.085 284.467 201.28 285.487 199.394 285.853C197.704 286.18 196.643 285.842 195.027 285.25C192.607 284.363 192.05 282.053 189.873 281.13C187.096 279.953 183.149 280.144 180.221 280.367C176.861 280.623 174.046 282.408 170.247 281.45C167.055 280.644 165.131 279.626 163.034 277.088C161.558 275.303 160.668 274.067 160.42 271.764C160.166 269.396 160.557 267.318 161.942 265.86C163.752 263.954 165.667 263.305 168.188 261.894C171.463 260.059 174.591 260.778 176.889 257.81C178.368 255.899 178.003 254.186 179.074 252.02C182.168 245.766 184.679 241.36 191.211 238.91C194.301 237.751 196.482 236.53 199.573 237.688C202.379 238.738 203.469 240.596 204.855 243.253C207.37 248.076 203.003 251.88 204.273 257.169C205.036 260.35 204.296 264.482 207.542 264.88C208.855 265.041 209.516 264.181 210.836 264.088C214.47 263.834 218.24 264.298 219.418 267.746C220.374 270.542 218.829 272.576 217.043 274.928L217.028 274.948Z" stroke="#E93C02" stroke-width="5" stroke-linecap="round"/>
<path d="M217.028 274.948C214.806 277.874 211.593 278.406 208.811 279.534C208.279 279.719 208.092 279.689 207.647 279.839C207.102 280.024 206.652 280.092 206.298 280.43C205.354 281.33 204.741 282.261 203.563 283.239C202.085 284.467 201.28 285.487 199.394 285.853C197.704 286.18 196.643 285.842 195.027 285.25C192.607 284.363 192.05 282.053 189.873 281.13C187.096 279.953 183.149 280.144 180.221 280.367C176.861 280.623 174.046 282.408 170.247 281.45C167.055 280.644 165.131 279.626 163.034 277.088C161.558 275.303 160.668 274.067 160.42 271.764C160.166 269.396 160.557 267.318 161.942 265.86C163.752 263.954 165.667 263.305 168.188 261.894C171.463 260.059 174.591 260.778 176.889 257.81C178.368 255.899 178.003 254.186 179.074 252.02C182.168 245.766 184.679 241.36 191.211 238.91C194.301 237.751 196.482 236.53 199.573 237.688C202.379 238.738 203.469 240.596 204.855 243.253C207.37 248.076 203.003 251.88 204.273 257.169C205.036 260.35 204.296 264.482 207.542 264.88C208.855 265.041 209.516 264.181 210.836 264.088C214.47 263.834 218.24 264.298 219.418 267.746C220.374 270.542 218.829 272.576 217.043 274.928L217.028 274.948Z" stroke="black" stroke-opacity="0.2" stroke-width="5" stroke-linecap="round"/>
</g>
<path d="M413.855 354.686C413.855 367.71 403.688 378.268 391.146 378.268C378.605 378.268 368.438 367.71 368.438 354.686C368.438 341.662 378.605 331.104 391.146 331.104C403.688 331.104 413.855 341.662 413.855 354.686Z" fill="#2E1A26"/>
<path d="M413.855 354.686C413.855 367.71 403.688 378.268 391.146 378.268C378.605 378.268 368.438 367.71 368.438 354.686C368.438 341.662 378.605 331.104 391.146 331.104C403.688 331.104 413.855 341.662 413.855 354.686Z" fill="#2E1A26"/>
<path d="M413.855 354.686C413.855 367.71 403.688 378.268 391.146 378.268C378.605 378.268 368.438 367.71 368.438 354.686C368.438 341.662 378.605 331.104 391.146 331.104C403.688 331.104 413.855 341.662 413.855 354.686Z" fill="#2E1A26"/>
<ellipse cx="395.95" cy="344.204" rx="7.42401" ry="7.42401" fill="white"/>
<ellipse cx="395.95" cy="344.204" rx="7.42401" ry="7.42401" fill="white"/>
<ellipse cx="395.95" cy="344.204" rx="7.42401" ry="7.42401" fill="white"/>
<path d="M293.164 413.763C308.206 407.586 333.586 403.771 333.586 403.771L358.111 413.763C358.111 413.763 356.772 463.544 333.586 472.806C321.562 477.609 313.095 475.499 300.431 472.806C283.511 469.208 266.763 468.351 261.372 451.914C258.939 444.499 258.645 439.243 261.372 431.93C266.368 418.532 279.936 419.196 293.164 413.763Z" fill="white"/>
<path d="M293.164 413.763C308.206 407.586 333.586 403.771 333.586 403.771L358.111 413.763C358.111 413.763 356.772 463.544 333.586 472.806C321.562 477.609 313.095 475.499 300.431 472.806C283.511 469.208 266.763 468.351 261.372 451.914C258.939 444.499 258.645 439.243 261.372 431.93C266.368 418.532 279.936 419.196 293.164 413.763Z" stroke="white" stroke-width="5"/>
<path d="M293.164 413.763C308.206 407.586 333.586 403.771 333.586 403.771L358.111 413.763C358.111 413.763 356.772 463.544 333.586 472.806C321.562 477.609 313.095 475.499 300.431 472.806C283.511 469.208 266.763 468.351 261.372 451.914C258.939 444.499 258.645 439.243 261.372 431.93C266.368 418.532 279.936 419.196 293.164 413.763Z" stroke="black" stroke-opacity="0.2" stroke-width="5"/>
<path d="M320.291 418.305C303.417 431.607 290.13 436.322 259.435 439.715" stroke="#D7D3D3" stroke-opacity="0.6" stroke-width="5" stroke-linecap="round"/>
<path d="M325.741 435.563C308.867 448.865 295.581 453.58 264.886 456.973" stroke="#D7D3D3" stroke-opacity="0.6" stroke-width="5" stroke-linecap="round"/>
<path d="M346.439 433.747C333.937 451.222 322.489 459.45 293.953 471.256" stroke="#D7D3D3" stroke-opacity="0.6" stroke-width="5" stroke-linecap="round"/>
<path d="M275.104 310.212C294.684 316.901 308.258 351.541 308.258 351.541C308.258 351.541 260.722 359.319 231.957 351.541C219.43 348.155 211.323 347.238 201.073 339.279C191.575 331.903 185.779 326.31 182.452 314.753C179.9 305.89 182.452 291.136 182.452 291.136C182.452 291.136 187.542 311.567 197.44 317.478C207.338 323.389 214.104 321.539 225.599 320.658C245.299 319.147 256.406 303.824 275.104 310.212Z" fill="white"/>
<path d="M275.104 310.212C294.684 316.901 308.258 351.541 308.258 351.541C308.258 351.541 260.722 359.319 231.957 351.541C219.43 348.155 211.323 347.238 201.073 339.279C191.575 331.903 185.779 326.31 182.452 314.753C179.9 305.89 182.452 291.136 182.452 291.136C182.452 291.136 187.542 311.567 197.44 317.478C207.338 323.389 214.104 321.539 225.599 320.658C245.299 319.147 256.406 303.824 275.104 310.212Z" stroke="white" stroke-width="5"/>
<path d="M275.104 310.212C294.684 316.901 308.258 351.541 308.258 351.541C308.258 351.541 260.722 359.319 231.957 351.541C219.43 348.155 211.323 347.238 201.073 339.279C191.575 331.903 185.779 326.31 182.452 314.753C179.9 305.89 182.452 291.136 182.452 291.136C182.452 291.136 187.542 311.567 197.44 317.478C207.338 323.389 214.104 321.539 225.599 320.658C245.299 319.147 256.406 303.824 275.104 310.212Z" stroke="black" stroke-opacity="0.2" stroke-width="5"/>
<path d="M249.541 312.98C263.086 320.588 269.937 326.363 280.584 342.197" stroke="#D7D3D3" stroke-opacity="0.6" stroke-width="5" stroke-linecap="round"/>
<path d="M232.186 320.919C242.737 327.33 247.662 332.234 253.851 345.768" stroke="#D7D3D3" stroke-opacity="0.6" stroke-width="5" stroke-linecap="round"/>
<path d="M144.068 375.217C151.024 373.818 159.902 375.217 168.594 380.208C187.365 390.987 214.92 410.638 214.92 410.638C214.92 410.638 199.465 416.716 189.032 417.905C171.359 419.918 154.374 424.886 139.465 415.185C131.37 409.918 125.861 402.536 126.81 392.925C127.839 382.501 133.799 377.283 144.068 375.217Z" fill="white"/>
<path d="M144.068 375.217C151.024 373.818 159.902 375.217 168.594 380.208C187.365 390.987 214.92 410.638 214.92 410.638C214.92 410.638 199.465 416.716 189.032 417.905C171.359 419.918 154.374 424.886 139.465 415.185C131.37 409.918 125.861 402.536 126.81 392.925C127.839 382.501 133.799 377.283 144.068 375.217Z" stroke="white" stroke-width="5"/>
<path d="M144.068 375.217C151.024 373.818 159.902 375.217 168.594 380.208C187.365 390.987 214.92 410.638 214.92 410.638C214.92 410.638 199.465 416.716 189.032 417.905C171.359 419.918 154.374 424.886 139.465 415.185C131.37 409.918 125.861 402.536 126.81 392.925C127.839 382.501 133.799 377.283 144.068 375.217Z" stroke="black" stroke-opacity="0.2" stroke-width="5"/>
<path d="M138.514 380.213C146.991 389.189 152.816 392.98 167.346 396.2" stroke="#D7D3D3" stroke-opacity="0.6" stroke-width="5" stroke-linecap="round"/>
<path d="M127.614 391.114C141.68 405.669 149.794 410.573 167.709 412.348" stroke="#D7D3D3" stroke-opacity="0.6" stroke-width="5" stroke-linecap="round"/>
<path d="M462.906 345.183C452.303 361.332 449.593 371.692 450.189 392.417" stroke="#CCCCCC" stroke-opacity="0.6" stroke-width="5" stroke-linecap="round"/>
</svg>
