<svg width="600" height="600" viewBox="0 0 600 600" fill="none" xmlns="http://www.w3.org/2000/svg">
<path d="M312.993 477.476C307.131 477.476 297.587 479.056 297.587 479.056L282.971 481.031C282.971 481.031 275.466 482.611 268.75 483.796C262.035 484.982 261.245 484.587 253.344 485.772C247.818 486.6 245.049 486.562 239.124 486.957C231.544 487.462 225.586 486.739 218.582 483.796C212.777 481.358 209.516 479.599 205.546 474.711C203.241 471.872 202.462 469.647 201.991 466.02C201.567 462.75 203.571 457.725 203.571 457.725C203.571 457.725 199.793 453.158 198.041 449.824C196.134 446.196 194.941 443.854 193.696 439.949C192.672 436.739 192.55 434.994 192.116 431.653C191.737 428.747 192.116 424.148 192.116 424.148C192.116 424.148 184.845 422.919 180.265 421.778C172.691 419.89 168.502 418.476 161.304 415.457C154.942 412.789 150.948 411.625 145.108 407.952C139.152 404.206 135.267 402.002 130.887 396.496C128.218 393.142 126.788 391.175 125.752 387.016C124.856 383.423 124.648 381.069 125.752 377.535C126.874 373.94 130.047 370.557 132.862 368.054C139.973 361.734 141.834 361.392 148.663 356.599C156.693 350.962 161.396 348.714 169.204 342.773C179.175 335.187 194.486 323.022 194.486 323.022C194.486 323.022 186.225 316.627 181.45 311.961C174.952 305.611 171.348 301.831 166.439 294.185C162.786 288.496 161.113 285.031 158.539 278.779C155.472 271.333 154.194 266.924 152.613 259.028C150.488 248.412 150.054 242.516 150.282 231.692C150.51 220.826 151.159 214.268 153.798 203.725C156.289 193.775 158.588 188.354 163.279 179.233C167.467 171.089 170.249 166.673 175.92 159.482C182.066 151.687 186.054 147.647 193.696 141.311C202.194 134.265 207.556 130.907 217.397 125.905C228.664 120.177 235.469 117.555 247.814 114.844C259.614 112.253 266.548 111.78 278.626 112.079C288.095 112.313 293.453 112.897 302.722 114.844C314.18 117.251 320.543 119.398 331.164 124.325C339.565 128.222 344.246 130.686 351.705 136.175C360.493 142.642 365.094 146.966 371.852 155.532C376.835 161.848 379.712 165.136 383.702 172.123C387.568 178.893 389.359 183.353 391.998 190.689C394.202 196.815 394.865 200.465 395.948 206.885C397.03 213.303 397.528 216.967 397.528 223.476C397.528 229.984 395.948 240.067 395.948 240.067L427.945 223.476L446.906 212.415C446.906 212.415 452.819 209.875 456.782 210.045C460.148 210.189 465.077 212.415 465.077 212.415C465.077 212.415 468.852 215.183 470.608 217.55C473.167 221.003 474.558 227.821 474.558 227.821C474.558 227.821 475.553 243.52 474.558 253.498C474.047 258.621 473.587 261.483 472.583 266.533C470.573 276.634 465.077 291.815 465.077 291.815C465.077 291.815 461.329 300.894 458.362 306.431C454.461 313.71 451.823 317.571 446.906 324.207C442.602 330.015 440.135 333.284 435.055 338.428C431.14 342.393 424.39 347.908 424.39 347.908L415.699 353.834C415.699 353.834 419.797 362.322 421.625 368.054C422.977 372.296 425.18 380.695 425.18 380.695C425.18 380.695 426.365 383.776 427.55 391.677C428.735 399.577 428.735 397.602 428.735 404.792C428.735 411.425 428.048 414.373 427.55 420.988C426.753 431.574 424.39 440.344 424.39 440.344L421.625 445.874C421.625 445.874 426.355 450.108 427.55 453.775C428.697 457.295 427.55 463.255 427.55 463.255C427.55 463.255 425.768 466.249 424.39 467.995C421.549 471.597 419.433 473.233 415.699 475.896C412.381 478.262 410.357 479.42 406.614 481.031C401.767 483.117 398.803 483.849 393.578 484.586C387.967 485.378 384.655 485.378 379.146 485.377L378.567 485.377C372.705 485.377 362.766 483.796 362.766 483.796L345.78 481.031L335.114 479.056C335.114 479.056 325.508 477.813 319.708 477.476C317.09 477.324 315.616 477.476 312.993 477.476Z" fill="#D0D3DC"/>
<path d="M192.116 424.148C192.116 424.148 191.737 428.747 192.116 431.653C192.55 434.994 192.672 436.739 193.696 439.949C194.941 443.854 196.134 446.196 198.041 449.824C199.793 453.158 203.571 457.725 203.571 457.725C203.571 457.725 201.567 462.75 201.991 466.02C202.462 469.647 203.241 471.872 205.546 474.711C209.516 479.599 212.777 481.358 218.582 483.796C225.586 486.739 231.544 487.462 239.124 486.957C245.049 486.562 247.818 486.6 253.344 485.772C261.245 484.587 262.035 484.982 268.75 483.796C275.466 482.611 282.971 481.031 282.971 481.031L297.587 479.056C297.587 479.056 307.131 477.476 312.993 477.476C315.616 477.476 317.09 477.324 319.708 477.476C325.508 477.813 335.114 479.056 335.114 479.056L345.78 481.031L362.766 483.796C362.766 483.796 372.705 485.377 378.567 485.377C384.429 485.377 387.773 485.405 393.578 484.586C398.803 483.849 401.767 483.117 406.614 481.031C410.357 479.42 412.381 478.262 415.699 475.896C419.433 473.233 421.549 471.597 424.39 467.995C425.768 466.249 427.55 463.255 427.55 463.255C427.55 463.255 428.697 457.295 427.55 453.775C426.355 450.108 421.625 445.874 421.625 445.874L424.39 440.344C424.39 440.344 426.753 431.574 427.55 420.988C428.048 414.373 428.735 411.425 428.735 404.792C428.735 397.602 428.735 399.577 427.55 391.677C426.365 383.776 425.18 380.695 425.18 380.695C425.18 380.695 422.977 372.296 421.625 368.054C419.797 362.322 415.699 353.834 415.699 353.834M192.116 424.148C192.116 424.148 184.845 422.919 180.265 421.778C172.691 419.89 168.502 418.476 161.304 415.457C154.942 412.789 150.948 411.625 145.108 407.952C139.152 404.206 135.267 402.002 130.887 396.496C128.218 393.142 126.788 391.175 125.752 387.016C124.856 383.423 124.648 381.069 125.752 377.535C126.874 373.94 130.047 370.557 132.862 368.054C139.973 361.734 141.834 361.392 148.663 356.599C156.693 350.962 161.396 348.714 169.204 342.773C179.175 335.187 194.486 323.022 194.486 323.022M192.116 424.148C192.116 424.148 193.426 416.656 194.486 411.902C195.699 406.461 198.041 398.076 198.041 398.076C199.275 394.837 199.967 393.02 201.201 389.781C202.435 386.541 213.052 370.82 205.546 381.88M194.486 323.022C194.486 323.022 186.225 316.627 181.45 311.961C174.952 305.611 171.348 301.831 166.439 294.185C162.786 288.496 161.113 285.031 158.539 278.779C155.472 271.333 154.194 266.924 152.613 259.028C150.488 248.412 150.054 242.516 150.282 231.692C150.51 220.826 151.159 214.268 153.798 203.725C156.289 193.775 158.588 188.354 163.279 179.233C167.467 171.089 170.249 166.673 175.92 159.482C182.066 151.687 186.054 147.647 193.696 141.311C202.194 134.265 207.556 130.907 217.397 125.905C228.664 120.177 235.469 117.555 247.814 114.844C259.614 112.253 266.548 111.78 278.626 112.079C288.095 112.313 293.453 112.897 302.722 114.844C314.18 117.251 320.543 119.398 331.164 124.325C339.565 128.222 344.246 130.686 351.705 136.175C360.493 142.642 365.094 146.966 371.852 155.532C376.835 161.848 379.712 165.136 383.702 172.123C387.568 178.893 389.359 183.353 391.998 190.689C394.202 196.815 394.865 200.465 395.948 206.885C397.03 213.303 397.528 216.967 397.528 223.476C397.528 229.984 395.948 240.067 395.948 240.067M194.486 323.022C194.486 323.022 209.6 331.589 218.977 334.872C229.401 338.522 282.576 345.143 245.049 340.008M395.948 240.067L427.945 223.476L446.906 212.415C446.906 212.415 452.819 209.875 456.782 210.045C460.148 210.189 465.077 212.415 465.077 212.415C465.077 212.415 468.852 215.183 470.608 217.55C473.167 221.003 474.558 227.821 474.558 227.821C474.558 227.821 475.553 243.52 474.558 253.498C474.047 258.621 473.587 261.483 472.583 266.533C470.573 276.634 465.077 291.815 465.077 291.815C465.077 291.815 461.329 300.894 458.362 306.431C454.461 313.71 451.823 317.571 446.906 324.207C442.602 330.015 440.135 333.284 435.055 338.428C431.14 342.393 424.39 347.908 424.39 347.908L415.699 353.834M395.948 240.067C395.948 240.067 392.407 256.548 388.443 266.533C383.986 277.759 364.346 309.591 373.827 293.79M415.699 353.834C415.699 353.834 409.92 343.573 405.824 337.243C400.24 328.616 379.752 302.481 390.418 315.911" stroke="#D0D3DC" stroke-width="5"/>
<path d="M192.116 424.148C192.116 424.148 191.737 428.747 192.116 431.653C192.55 434.994 192.672 436.739 193.696 439.949C194.941 443.854 196.134 446.196 198.041 449.824C199.793 453.158 203.571 457.725 203.571 457.725C203.571 457.725 201.567 462.75 201.991 466.02C202.462 469.647 203.241 471.872 205.546 474.711C209.516 479.599 212.777 481.358 218.582 483.796C225.586 486.739 231.544 487.462 239.124 486.957C245.049 486.562 247.818 486.6 253.344 485.772C261.245 484.587 262.035 484.982 268.75 483.796C275.466 482.611 282.971 481.031 282.971 481.031L297.587 479.056C297.587 479.056 307.131 477.476 312.993 477.476C315.616 477.476 317.09 477.324 319.708 477.476C325.508 477.813 335.114 479.056 335.114 479.056L345.78 481.031L362.766 483.796C362.766 483.796 372.705 485.377 378.567 485.377C384.429 485.377 387.773 485.405 393.578 484.586C398.803 483.849 401.767 483.117 406.614 481.031C410.357 479.42 412.381 478.262 415.699 475.896C419.433 473.233 421.549 471.597 424.39 467.995C425.768 466.249 427.55 463.255 427.55 463.255C427.55 463.255 428.697 457.295 427.55 453.775C426.355 450.108 421.625 445.874 421.625 445.874L424.39 440.344C424.39 440.344 426.753 431.574 427.55 420.988C428.048 414.373 428.735 411.425 428.735 404.792C428.735 397.602 428.735 399.577 427.55 391.677C426.365 383.776 425.18 380.695 425.18 380.695C425.18 380.695 422.977 372.296 421.625 368.054C419.797 362.322 415.699 353.834 415.699 353.834M192.116 424.148C192.116 424.148 184.845 422.919 180.265 421.778C172.691 419.89 168.502 418.476 161.304 415.457C154.942 412.789 150.948 411.625 145.108 407.952C139.152 404.206 135.267 402.002 130.887 396.496C128.218 393.142 126.788 391.175 125.752 387.016C124.856 383.423 124.648 381.069 125.752 377.535C126.874 373.94 130.047 370.557 132.862 368.054C139.973 361.734 141.834 361.392 148.663 356.599C156.693 350.962 161.396 348.714 169.204 342.773C179.175 335.187 194.486 323.022 194.486 323.022M192.116 424.148C192.116 424.148 193.426 416.656 194.486 411.902C195.699 406.461 198.041 398.076 198.041 398.076C199.275 394.837 199.967 393.02 201.201 389.781C202.435 386.541 213.052 370.82 205.546 381.88M194.486 323.022C194.486 323.022 186.225 316.627 181.45 311.961C174.952 305.611 171.348 301.831 166.439 294.185C162.786 288.496 161.113 285.031 158.539 278.779C155.472 271.333 154.194 266.924 152.613 259.028C150.488 248.412 150.054 242.516 150.282 231.692C150.51 220.826 151.159 214.268 153.798 203.725C156.289 193.775 158.588 188.354 163.279 179.233C167.467 171.089 170.249 166.673 175.92 159.482C182.066 151.687 186.054 147.647 193.696 141.311C202.194 134.265 207.556 130.907 217.397 125.905C228.664 120.177 235.469 117.555 247.814 114.844C259.614 112.253 266.548 111.78 278.626 112.079C288.095 112.313 293.453 112.897 302.722 114.844C314.18 117.251 320.543 119.398 331.164 124.325C339.565 128.222 344.246 130.686 351.705 136.175C360.493 142.642 365.094 146.966 371.852 155.532C376.835 161.848 379.712 165.136 383.702 172.123C387.568 178.893 389.359 183.353 391.998 190.689C394.202 196.815 394.865 200.465 395.948 206.885C397.03 213.303 397.528 216.967 397.528 223.476C397.528 229.984 395.948 240.067 395.948 240.067M194.486 323.022C194.486 323.022 209.6 331.589 218.977 334.872C229.401 338.522 282.576 345.143 245.049 340.008M395.948 240.067L427.945 223.476L446.906 212.415C446.906 212.415 452.819 209.875 456.782 210.045C460.148 210.189 465.077 212.415 465.077 212.415C465.077 212.415 468.852 215.183 470.608 217.55C473.167 221.003 474.558 227.821 474.558 227.821C474.558 227.821 475.553 243.52 474.558 253.498C474.047 258.621 473.587 261.483 472.583 266.533C470.573 276.634 465.077 291.815 465.077 291.815C465.077 291.815 461.329 300.894 458.362 306.431C454.461 313.71 451.823 317.571 446.906 324.207C442.602 330.015 440.135 333.284 435.055 338.428C431.14 342.393 424.39 347.908 424.39 347.908L415.699 353.834M395.948 240.067C395.948 240.067 392.407 256.548 388.443 266.533C383.986 277.759 364.346 309.591 373.827 293.79M415.699 353.834C415.699 353.834 409.92 343.573 405.824 337.243C400.24 328.616 379.752 302.481 390.418 315.911" stroke="black" stroke-opacity="0.2" stroke-width="5"/>
<path d="M300.351 473.615C293.216 474.402 281.785 475.896 281.785 475.896C281.785 475.896 268.205 473.63 262.272 467.563C258.166 463.365 256.347 461.189 253.565 456.417C250.591 451.316 249.315 448.271 247.52 442.407C245.725 436.543 245.61 433.385 245.395 427.464C245.179 421.542 246.456 413.195 246.456 413.195C246.456 413.195 247.888 405.981 249.591 401.617C252.422 394.363 254.996 390.567 260.04 384.634C264.583 379.293 267.591 376.55 273.44 372.683C280.489 368.022 285.137 366.295 293.285 364.054C303.12 361.349 309.101 360.892 319.282 361.525C327.499 362.036 333.263 362.583 341.038 365.289C348.813 367.995 353.625 369.439 360.394 373.979C366.023 377.755 370.027 380.842 374.615 385.83C379.863 391.536 381.651 395.998 384.491 403.211C386.897 409.323 387.488 415.233 388.046 421.777C388.678 429.181 387.829 432.389 386.466 438.368C385.103 444.347 383.664 446.932 380.341 453.378C377.018 459.824 376.09 460.909 372.454 464.733C369.116 468.244 366.259 470.192 362.069 472.622C357.975 474.996 350.764 476.987 350.764 476.987C350.764 476.987 341.716 475.221 334.718 474.315C327.72 473.41 324.293 472.934 317.732 472.622C310.952 472.3 307.098 472.871 300.351 473.615Z" fill="#E6E7E9"/>
<path d="M272.346 461.201C276.662 465.059 286.961 476.607 286.961 476.607C286.961 476.607 272.368 482.253 265.788 483.402C251.638 485.873 244.288 486.483 234.028 485.298C223.971 484.136 221.458 483.478 213.882 480.953C207.957 478.978 206.184 477.002 204.006 473.052C202.668 470.625 202.426 467.522 203.216 462.782C204.19 456.937 207.842 452.263 209.932 450.536C214.231 446.984 215.68 446.306 220.992 444.611C229.464 441.908 236.706 443.061 244.683 445.686C251.014 447.771 254.092 448.921 260.1 452.511C264.705 455.263 268.029 457.344 272.346 461.201Z" fill="#504B4F"/>
<path d="M272.346 461.201C276.662 465.059 286.961 476.607 286.961 476.607C286.961 476.607 272.368 482.253 265.788 483.402C251.638 485.873 244.288 486.483 234.028 485.298C223.971 484.136 221.458 483.478 213.882 480.953C207.957 478.978 206.184 477.002 204.006 473.052C202.668 470.625 202.426 467.522 203.216 462.782C204.19 456.937 207.842 452.263 209.932 450.536C214.231 446.984 215.68 446.306 220.992 444.611C229.464 441.908 236.706 443.061 244.683 445.686C251.014 447.771 254.092 448.921 260.1 452.511C264.705 455.263 268.029 457.344 272.346 461.201Z" stroke="#D0D3DC" stroke-width="5"/>
<path d="M272.346 461.201C276.662 465.059 286.961 476.607 286.961 476.607C286.961 476.607 272.368 482.253 265.788 483.402C251.638 485.873 244.288 486.483 234.028 485.298C223.971 484.136 221.458 483.478 213.882 480.953C207.957 478.978 206.184 477.002 204.006 473.052C202.668 470.625 202.426 467.522 203.216 462.782C204.19 456.937 207.842 452.263 209.932 450.536C214.231 446.984 215.68 446.306 220.992 444.611C229.464 441.908 236.706 443.061 244.683 445.686C251.014 447.771 254.092 448.921 260.1 452.511C264.705 455.263 268.029 457.344 272.346 461.201Z" stroke="black" stroke-opacity="0.2" stroke-width="5"/>
<path d="M366.249 462.07C362.539 466.004 353.87 477.571 353.87 477.571C353.87 477.571 367.902 481.666 374.118 482.212C387.484 483.387 394.011 483.322 404.282 482.212C413.637 481.201 413.762 481.147 421.933 477.625L422.058 477.571C427.416 475.262 430.02 471.258 431.732 467.408C432.785 465.043 432.845 461.742 431.732 457.393C430.361 452.03 425.576 448.401 423.493 446.959C419.26 444.031 417.841 443.708 412.908 442.586L412.727 442.545C404.627 440.703 397.978 442.352 390.763 445.43C385.035 447.873 382.262 449.189 376.956 453.008C372.889 455.935 369.96 458.137 366.249 462.07Z" fill="#504B4F"/>
<path d="M366.249 462.07C362.539 466.004 353.87 477.571 353.87 477.571C353.87 477.571 367.902 481.666 374.118 482.212C387.484 483.387 394.011 483.322 404.282 482.212C413.637 481.201 413.762 481.147 421.933 477.625L422.058 477.571C427.416 475.262 430.02 471.258 431.732 467.408C432.785 465.043 432.845 461.742 431.732 457.393C430.361 452.03 425.576 448.401 423.493 446.959C419.26 444.031 417.841 443.708 412.908 442.586L412.727 442.545C404.627 440.703 397.978 442.352 390.763 445.43C385.035 447.873 382.262 449.189 376.956 453.008C372.889 455.935 369.96 458.137 366.249 462.07Z" stroke="#D0D3DC" stroke-width="5"/>
<path d="M366.249 462.07C362.539 466.004 353.87 477.571 353.87 477.571C353.87 477.571 367.902 481.666 374.118 482.212C387.484 483.387 394.011 483.322 404.282 482.212C413.637 481.201 413.762 481.147 421.933 477.625L422.058 477.571C427.416 475.262 430.02 471.258 431.732 467.408C432.785 465.043 432.845 461.742 431.732 457.393C430.361 452.03 425.576 448.401 423.493 446.959C419.26 444.031 417.841 443.708 412.908 442.586L412.727 442.545C404.627 440.703 397.978 442.352 390.763 445.43C385.035 447.873 382.262 449.189 376.956 453.008C372.889 455.935 369.96 458.137 366.249 462.07Z" stroke="black" stroke-opacity="0.2" stroke-width="5"/>
<path d="M209.11 320.658C215.565 324.781 219.688 327.09 226.875 329.737C234.38 332.503 238.586 332.993 245.836 335.268C254.922 336.459 258.872 336.848 265.982 337.243C277.815 337.9 279.413 337.243 289.299 336.459C298.374 335.74 303.678 334.357 310.62 331.713C318.915 328.552 323.102 326.262 329.581 323.022C336.06 319.782 344.603 314.338 344.603 314.338C344.603 314.338 352.503 308.808 357.639 304.462C362.774 300.117 365.999 297.119 370.674 290.242C375.291 283.45 377.079 279.588 380.183 271.985C382.45 266.429 383.188 262.52 384.5 256.665L384.555 256.42C386.251 248.854 387.265 244.331 387.265 236.123C387.265 229.953 386.657 226.811 385.685 220.717C384.848 215.464 384.383 212.666 382.525 207.682C380.331 201.796 379.76 199.781 375.81 193.066C371.859 186.35 369.884 182.795 364.749 176.08C359.658 170.526 356.849 166.994 351.713 161.859C351.713 161.859 341.838 153.563 336.307 150.798L336.306 150.798C330.777 148.033 328.406 146.848 322.086 144.873C322.086 144.873 315.084 143.731 311.026 143.688C306.663 143.641 303.806 143.824 299.57 144.873C293.591 146.353 290.121 147.446 284.954 150.798C279.737 154.183 276.697 156.526 273.498 161.859C269.976 167.73 269.129 172.041 268.363 178.845C267.742 184.364 268.125 187.608 269.153 193.066C270.066 197.91 271.491 200.414 273.498 204.916C275.86 210.213 277.417 213.111 280.609 217.952C283.394 222.177 288.509 228.223 288.509 228.223C288.509 228.223 296.533 233.713 299.57 238.889C301.645 242.424 302.52 244.71 303.125 248.764C303.581 251.816 303.871 253.994 303.52 257.06C303.197 259.886 302.863 261.254 301.545 263.775C300.029 266.675 298.982 268.072 296.41 270.095C293.852 272.108 291.649 273.188 288.509 274.046C285.533 274.859 283.663 274.876 280.609 274.441C275.872 273.765 272.883 272.697 269.153 269.7C265.418 266.699 263.623 263.775 262.043 259.43C260.463 255.085 260.068 252.714 259.673 247.579C259.278 242.444 260.068 234.543 260.068 234.543L256.117 220.717C256.117 220.717 253.747 214.792 250.982 209.657C248.217 204.521 246.957 203.397 243.872 199.386C240.786 195.375 236.699 193.181 231.626 190.696C227.245 188.549 224.598 187.874 219.775 187.14C215.505 186.491 212.184 186.03 207.925 186.745C203.401 187.505 201.007 188.333 196.864 190.301C190.641 193.255 187.361 195.947 182.643 200.966C177.44 206.501 175.668 210.78 173.162 217.952C170.737 224.896 169.439 228.707 168.845 236.038C168.296 242.803 168.311 249.022 168.845 255.789C169.274 261.226 169.79 264.739 170.82 270.095C172.113 276.819 173.617 278.421 176.323 284.711L176.383 284.852C178.297 289.302 178.723 290.292 182.643 295.772C186.604 301.309 189.625 303.958 194.099 309.203C194.099 309.203 202.895 316.689 209.11 320.658Z" fill="white"/>
<path d="M261.636 257.054C261.834 258.009 261.968 258.562 262.426 259.424C262.991 260.488 263.781 261.144 264.796 261.794C265.868 262.48 266.69 262.467 267.956 262.584C269.977 262.771 273.092 261.794 273.092 261.794L275.857 264.164C277.245 264.935 277.234 265.368 278.622 266.139C280.01 266.91 281.342 267.376 282.967 267.719C284.929 268.134 286.14 268.134 288.103 267.719C289.728 267.376 291.113 266.733 292.448 265.744C293.861 264.697 294.75 263.269 295.213 262.189C295.676 261.109 296.003 260.609 296.398 259.029C296.793 257.449 296.739 256.651 296.793 255.078C296.841 253.682 296.398 251.523 296.398 251.523C296.398 251.523 297.978 249.943 298.768 248.758C299.698 247.363 299.868 247.039 300.348 245.598C300.743 244.413 300.73 243.174 300.348 241.648C299.967 240.121 299.495 239.414 298.373 238.487C297.575 237.828 296.199 237.22 295.213 236.907C294.173 236.578 292.053 236.512 292.053 236.512C292.053 236.512 291.062 235.006 290.078 234.142C288.918 233.125 287.816 232.218 286.522 231.377C285.191 230.511 284.458 230.344 282.967 229.797C281.49 229.255 280.588 229.082 279.017 229.007C277.468 228.933 276.588 229.103 275.067 229.402C273.486 229.712 272.554 229.86 271.117 230.587C269.547 231.38 268.745 232.051 267.561 233.352C266.12 234.938 265.575 236.096 264.796 238.092C264.002 240.128 263.86 241.4 263.619 243.552L263.611 243.623C263.337 246.076 263.611 249.943 263.611 249.943C263.611 249.943 262.399 251.52 262.031 252.708C261.529 254.329 261.291 255.392 261.636 257.054Z" fill="black" stroke="#504B4F"/>
<path d="M266.49 251.553C265.802 253.921 265.066 257.518 265.066 257.518C265.066 257.518 270.35 258.819 273.969 258.424C277.093 258.082 279.526 257.861 282.431 256.667C285.425 255.436 286.475 254.892 289.05 252.937C291.089 251.389 292.008 250.407 293.675 248.469C295.361 246.509 296.679 242.463 296.679 242.463C296.679 242.463 293.863 241.321 291.078 239.844C288.98 238.731 288.145 236.855 286.129 235.327C284.728 234.266 283.358 232.92 280.203 232.167C278.166 231.681 275.437 231.955 273.297 232.802C271.158 233.648 269.475 234.902 268.353 237.303C267.23 239.703 266.836 241.626 266.773 244.808C266.709 247.989 267.248 248.945 266.49 251.553Z" fill="#FFF176"/>
<ellipse cx="321.514" cy="216.061" rx="12.6408" ry="16.9779" transform="rotate(-19.6141 321.514 216.061)" fill="black" stroke="#504B4F"/>
<ellipse cx="229.131" cy="256.11" rx="12.6408" ry="16.9779" transform="rotate(-19.6141 229.131 256.11)" fill="black" stroke="#504B4F"/>
<circle cx="229.681" cy="248.284" r="3.55521" fill="white" stroke="#504B4F"/>
<circle cx="322.115" cy="207.991" r="3.55521" fill="white" stroke="#504B4F"/>
<ellipse cx="347.328" cy="236.31" rx="19.4325" ry="8.72917" transform="rotate(-24.4697 347.328 236.31)" fill="#FACFE3"/>
<ellipse cx="227.155" cy="287.049" rx="19.4325" ry="8.72917" transform="rotate(-19.0374 227.155 287.049)" fill="#FACFE3"/>
</svg>
