<svg width="600" height="600" viewBox="0 0 600 600" fill="none" xmlns="http://www.w3.org/2000/svg">
<path d="M215.708 153.659C236.81 152.377 290.725 170.11 290.725 170.11L275.719 397.324C275.719 397.324 214.066 441.051 175.112 421.499C154.03 410.917 108.537 413.389 129.209 409.475C149.882 405.561 135.03 378.554 154.499 371.11C154.499 371.11 118.461 347.639 135.03 343.626C151.599 339.613 161.567 344.427 175.112 333.892C175.112 333.892 126.669 307.329 149.918 304.689C173.167 302.05 165.398 291.432 191.145 278.923C191.145 278.923 102.272 287.585 129.304 281.213C156.337 274.841 159.891 250.394 171.273 239.886C171.273 239.886 105.178 265.326 129.304 248.002C153.431 230.679 174.429 192.751 205.621 183.705C205.621 183.705 146.345 193.001 162.038 183.705C186.057 169.478 193.774 154.992 215.708 153.659Z" fill="#A44809" stroke="#873B08" stroke-width="5"/>
<path d="M384.293 158.24C363.19 156.958 309.276 174.691 309.276 174.691L324.282 401.905C324.282 401.905 385.935 445.631 424.888 426.08C445.97 415.498 491.464 417.969 470.791 414.055C450.118 410.141 464.97 383.135 445.502 375.691C445.502 375.691 481.539 352.219 464.97 348.207C448.401 344.194 438.433 349.008 424.888 338.472C424.888 338.472 473.332 311.909 450.082 309.27C426.833 306.631 434.602 296.013 408.855 283.503C408.855 283.503 497.728 292.166 470.696 285.794C443.664 279.422 440.11 254.975 428.727 244.467C428.727 244.467 494.822 269.907 470.696 252.583C446.569 235.259 425.571 197.332 394.38 188.286C394.38 188.286 453.655 197.582 437.962 188.286C413.944 174.058 406.227 159.573 384.293 158.24Z" fill="#A44809" stroke="#873B08" stroke-width="5"/>
<path d="M371.228 358.746C362.386 361.489 352.332 373.061 352.332 373.061L347.751 450.934C347.751 450.934 375.567 440.529 391.841 430.894C395.472 428.744 397.845 427.966 401.003 425.168C413.193 414.366 414.951 397.955 410.737 382.223C407.75 371.072 402.425 363.356 391.841 358.746C384.461 355.532 378.917 356.362 371.228 358.746Z" fill="#FEDDAA"/>
<path d="M371.228 358.746C362.386 361.489 352.332 373.061 352.332 373.061L347.751 450.934C347.751 450.934 375.567 440.529 391.841 430.894C395.472 428.744 397.845 427.966 401.003 425.168C413.193 414.366 414.951 397.955 410.737 382.223C407.75 371.072 402.425 363.356 391.841 358.746C384.461 355.532 378.917 356.362 371.228 358.746Z" stroke="#FEDDAA" stroke-width="5"/>
<path d="M371.228 358.746C362.386 361.489 352.332 373.061 352.332 373.061L347.751 450.934C347.751 450.934 375.567 440.529 391.841 430.894C395.472 428.744 397.845 427.966 401.003 425.168C413.193 414.366 414.951 397.955 410.737 382.223C407.75 371.072 402.425 363.356 391.841 358.746C384.461 355.532 378.917 356.362 371.228 358.746Z" stroke="black" stroke-opacity="0.2" stroke-width="5"/>
<path d="M220.982 358.746C229.824 361.489 239.878 373.061 239.878 373.061L244.459 450.934C244.459 450.934 216.644 440.529 200.369 430.894C196.738 428.744 194.365 427.966 191.207 425.168C179.017 414.366 177.259 397.955 181.473 382.223C184.46 371.072 189.785 363.356 200.369 358.746C207.749 355.532 213.293 356.362 220.982 358.746Z" fill="#FEDDAA"/>
<path d="M220.982 358.746C229.824 361.489 239.878 373.061 239.878 373.061L244.459 450.934C244.459 450.934 216.644 440.529 200.369 430.894C196.738 428.744 194.365 427.966 191.207 425.168C179.017 414.366 177.259 397.955 181.473 382.223C184.46 371.072 189.785 363.356 200.369 358.746C207.749 355.532 213.293 356.362 220.982 358.746Z" stroke="#FEDDAA" stroke-width="5"/>
<path d="M220.982 358.746C229.824 361.489 239.878 373.061 239.878 373.061L244.459 450.934C244.459 450.934 216.644 440.529 200.369 430.894C196.738 428.744 194.365 427.966 191.207 425.168C179.017 414.366 177.259 397.955 181.473 382.223C184.46 371.072 189.785 363.356 200.369 358.746C207.749 355.532 213.293 356.362 220.982 358.746Z" stroke="black" stroke-opacity="0.2" stroke-width="5"/>
<path d="M238.818 331.882C237.197 336.404 209.785 413.9 231.946 447.141C255.995 483.214 350.475 487.795 369.943 447.141C389.41 406.486 363.074 335.332 361.354 331.882C361.354 331.882 240.184 328.073 238.818 331.882Z" fill="#FEDDAA"/>
<path d="M238.818 331.882C237.197 336.404 209.785 413.9 231.946 447.141C255.995 483.214 350.475 487.795 369.943 447.141C389.41 406.486 363.074 335.332 361.354 331.882C361.354 331.882 240.184 328.073 238.818 331.882Z" stroke="#FEDDAA" stroke-width="5"/>
<path d="M238.818 331.882C237.197 336.404 209.785 413.9 231.946 447.141C255.995 483.214 350.475 487.795 369.943 447.141C389.41 406.486 363.074 335.332 361.354 331.882C361.354 331.882 240.184 328.073 238.818 331.882Z" stroke="black" stroke-opacity="0.2" stroke-width="5"/>
<path d="M388.716 224.629C398.71 195.038 410.023 155.116 393.99 146.528C379.103 138.552 343.011 153.301 318.491 169.14L388.716 224.629Z" fill="#FEDDAA"/>
<path d="M388.716 224.629C398.71 195.038 410.023 155.116 393.99 146.528C379.103 138.552 343.011 153.301 318.491 169.14L388.716 224.629Z" stroke="#FEDDAA" stroke-width="5" stroke-linecap="round"/>
<path d="M388.716 224.629C398.71 195.038 410.023 155.116 393.99 146.528C379.103 138.552 343.011 153.301 318.491 169.14L388.716 224.629Z" stroke="black" stroke-opacity="0.2" stroke-width="5" stroke-linecap="round"/>
<path d="M380.152 213.181C387.004 192.894 394.76 165.524 383.768 159.636C373.562 154.168 348.817 164.279 332.007 175.138L380.152 213.181Z" fill="#F0B6C5"/>
<path d="M380.152 213.181C387.004 192.894 394.76 165.524 383.768 159.636C373.562 154.168 348.817 164.279 332.007 175.138L380.152 213.181Z" stroke="#FEDDAA" stroke-width="5" stroke-linecap="round"/>
<path d="M380.152 213.181C387.004 192.894 394.76 165.524 383.768 159.636C373.562 154.168 348.817 164.279 332.007 175.138L380.152 213.181Z" stroke="black" stroke-opacity="0.2" stroke-width="5" stroke-linecap="round"/>
<path d="M216.038 224.573C206.045 194.982 194.731 155.06 210.764 146.471C225.651 138.496 261.744 153.244 286.263 169.083L216.038 224.573Z" fill="#FEDDAA"/>
<path d="M216.038 224.573C206.045 194.982 194.731 155.06 210.764 146.471C225.651 138.496 261.744 153.244 286.263 169.083L216.038 224.573Z" stroke="#FEDDAA" stroke-width="5" stroke-linecap="round"/>
<path d="M216.038 224.573C206.045 194.982 194.731 155.06 210.764 146.471C225.651 138.496 261.744 153.244 286.263 169.083L216.038 224.573Z" stroke="black" stroke-opacity="0.2" stroke-width="5" stroke-linecap="round"/>
<path d="M225.458 213.18C218.606 192.894 210.85 165.524 221.842 159.636C232.049 154.168 256.793 164.279 273.603 175.138L225.458 213.18Z" fill="#F0B6C5"/>
<path d="M225.458 213.18C218.606 192.894 210.85 165.524 221.842 159.636C232.049 154.168 256.793 164.279 273.603 175.138L225.458 213.18Z" stroke="#FEDDAA" stroke-width="5" stroke-linecap="round"/>
<path d="M225.458 213.18C218.606 192.894 210.85 165.524 221.842 159.636C232.049 154.168 256.793 164.279 273.603 175.138L225.458 213.18Z" stroke="black" stroke-opacity="0.2" stroke-width="5" stroke-linecap="round"/>
<path d="M300.798 169.969C239.53 137.904 217.269 206.244 201.599 252.197C196.074 265.543 179.267 293.685 207.324 322.315C231.871 343.113 267.994 344.535 300.553 344.535C333.112 344.535 444.952 348.654 397.599 252.197C381.928 206.244 359.203 139.621 300.798 169.969Z" fill="#FEDDAA"/>
<path d="M300.798 169.969C239.53 137.904 217.269 206.244 201.599 252.197C196.074 265.543 179.267 293.685 207.324 322.315C231.871 343.113 267.994 344.535 300.553 344.535C333.112 344.535 444.952 348.654 397.599 252.197C381.928 206.244 359.203 139.621 300.798 169.969Z" stroke="#FEDDAA" stroke-width="5"/>
<path d="M300.798 169.969C239.53 137.904 217.269 206.244 201.599 252.197C196.074 265.543 179.267 293.685 207.324 322.315C231.871 343.113 267.994 344.535 300.553 344.535C333.112 344.535 444.952 348.654 397.599 252.197C381.928 206.244 359.203 139.621 300.798 169.969Z" stroke="black" stroke-opacity="0.2" stroke-width="5"/>
<path d="M341.776 217.122C339.76 220.718 350.613 222.075 353.985 223.965C357.356 225.855 365.466 229.722 367.481 226.126C369.497 222.529 370.012 217.635 360.516 212.313C351.021 206.99 343.792 213.526 341.776 217.122Z" fill="#8D8B89" fill-opacity="0.8"/>
<path d="M262.018 217.122C264.034 220.718 253.18 222.075 249.809 223.965C246.438 225.855 238.328 229.722 236.313 226.126C234.297 222.529 233.782 217.635 243.278 212.313C252.773 206.99 260.002 213.526 262.018 217.122Z" fill="#8D8B89" fill-opacity="0.8"/>
<ellipse cx="20.9254" cy="24.7417" rx="20.9254" ry="24.7417" transform="matrix(-0.953838 0.300322 0.215795 0.976439 362.515 230.03)" fill="black" stroke="#504B4F"/>
<ellipse cx="5.95348" cy="5.10246" rx="5.95348" ry="5.10246" transform="matrix(-0.82516 0.564899 0.575712 0.817653 342.643 244.275)" fill="white" stroke="#504B4F"/>
<ellipse cx="20.9254" cy="24.7417" rx="20.9254" ry="24.7417" transform="matrix(-0.953838 0.300322 0.215795 0.976439 267.171 228.877)" fill="black" stroke="#504B4F"/>
<ellipse cx="5.95348" cy="5.10246" rx="5.95348" ry="5.10246" transform="matrix(-0.82516 0.564899 0.575712 0.817653 247.299 243.122)" fill="white" stroke="#504B4F"/>
<path d="M300.418 304.435C298.874 304.435 288.456 300.605 287.385 294.667C286.314 288.73 315.293 288.73 313.45 294.667C311.608 300.605 301.961 304.435 300.418 304.435Z" fill="#27051B"/>
<path d="M304.162 294.093C304.162 294.807 302.426 295.386 300.284 295.386C298.142 295.386 296.406 294.807 296.406 294.093C296.406 293.379 298.142 292.8 300.284 292.8C302.426 292.8 304.162 293.379 304.162 294.093Z" fill="white" fill-opacity="0.5"/>
<path d="M300.684 303.403V315.084M300.684 315.084C300.684 315.084 297.089 318.584 294.156 318.863C290.63 319.2 285.911 315.084 285.911 315.084M300.684 315.084C300.684 315.084 304.271 318.683 307.211 318.863C310.505 319.065 314.77 315.084 314.77 315.084" stroke="black" stroke-width="5" stroke-linecap="round"/>
<path d="M253.076 397.329C253.076 397.329 270.582 423.63 273.445 438.517C275.283 448.076 262.841 445.388 254.549 445.388C239.588 445.388 229.654 427.579 227.065 405.306C224.202 380.685 230.99 358.354 230.99 358.354" stroke="#CBB188" stroke-width="5" stroke-linecap="round"/>
<path d="M328.332 437.944C333.404 422.748 337.804 414.782 346.279 403.589L349.868 399.008L368.413 401.871C360.743 421.544 362.118 432.621 348.672 443.67C337.305 442.525 336.694 437.953 328.332 437.944Z" fill="#FEDDAA"/>
<path d="M347.555 397.329C347.555 397.329 330.049 423.63 327.186 438.517C325.348 448.076 337.79 445.388 346.082 445.388C361.043 445.388 370.977 427.579 373.567 405.307C376.43 380.685 368.986 357.781 368.986 357.781" stroke="#CBB188" stroke-width="5" stroke-linecap="round"/>
<path d="M306.378 457.808C296.332 456.101 325.666 440.235 325.666 440.235C333.791 439.406 338.234 439.287 347.526 444.815C347.526 444.815 353.295 460.697 347.526 462.952C343.062 464.697 336.382 457.808 336.382 457.808C336.382 457.808 330.011 464.587 325.666 462.952C321.741 461.474 320.523 453.522 320.523 453.522C320.523 453.522 312.069 458.775 306.378 457.808Z" fill="#F0B6C5"/>
<path d="M306.378 457.808C296.332 456.101 325.666 440.235 325.666 440.235C333.791 439.406 338.234 439.287 347.526 444.815C347.526 444.815 353.295 460.697 347.526 462.952C343.062 464.697 336.382 457.808 336.382 457.808C336.382 457.808 330.011 464.587 325.666 462.952C321.741 461.474 320.523 453.522 320.523 453.522C320.523 453.522 312.069 458.775 306.378 457.808Z" stroke="#F0B6C5" stroke-width="5"/>
<path d="M306.378 457.808C296.332 456.101 325.666 440.235 325.666 440.235C333.791 439.406 338.234 439.287 347.526 444.815C347.526 444.815 353.295 460.697 347.526 462.952C343.062 464.697 336.382 457.808 336.382 457.808C336.382 457.808 330.011 464.587 325.666 462.952C321.741 461.474 320.523 453.522 320.523 453.522C320.523 453.522 312.069 458.775 306.378 457.808Z" stroke="black" stroke-opacity="0.2" stroke-width="5"/>
<path d="M272.3 437.944C267.227 422.748 262.827 414.782 254.353 403.589L250.764 399.008L232.219 401.871C239.889 421.544 238.514 432.621 251.96 443.67C263.327 442.525 263.937 437.953 272.3 437.944Z" fill="#FEDDAA"/>
<path d="M294.253 457.808C304.3 456.101 274.965 440.235 274.965 440.235C266.84 439.406 262.398 439.287 253.105 444.815C253.105 444.815 247.337 460.697 253.105 462.952C257.57 464.697 264.249 457.808 264.249 457.808C264.249 457.808 270.621 464.587 274.965 462.952C278.891 461.474 280.109 453.522 280.109 453.522C280.109 453.522 288.563 458.775 294.253 457.808Z" fill="#F0B6C5"/>
<path d="M294.253 457.808C304.3 456.101 274.965 440.235 274.965 440.235C266.84 439.406 262.398 439.287 253.105 444.815C253.105 444.815 247.337 460.697 253.105 462.952C257.57 464.697 264.249 457.808 264.249 457.808C264.249 457.808 270.621 464.587 274.965 462.952C278.891 461.474 280.109 453.522 280.109 453.522C280.109 453.522 288.563 458.775 294.253 457.808Z" stroke="#F0B6C5" stroke-width="5"/>
<path d="M294.253 457.808C304.3 456.101 274.965 440.235 274.965 440.235C266.84 439.406 262.398 439.287 253.105 444.815C253.105 444.815 247.337 460.697 253.105 462.952C257.57 464.697 264.249 457.808 264.249 457.808C264.249 457.808 270.621 464.587 274.965 462.952C278.891 461.474 280.109 453.522 280.109 453.522C280.109 453.522 288.563 458.775 294.253 457.808Z" stroke="black" stroke-opacity="0.2" stroke-width="5"/>
<path d="M359.594 460.215C367.016 467.761 377.527 471.756 387.707 468.858C403.543 464.35 414.693 453.973 427.952 438.518C431.079 434.873 433.154 430.545 430.563 426.502C427.397 421.562 415.55 427.101 415.55 427.101C415.55 427.101 427.088 417.04 422.893 412C418.491 406.712 406.649 418.824 406.649 418.824C406.649 418.824 413.832 404.425 407.752 401.048C401.815 397.75 393.125 410.453 393.125 410.453C393.125 410.453 398.157 396.135 392.07 393.423C386.511 390.946 381.405 395.418 378.581 401.226C373.273 412.143 360.432 418.613 354.966 433.549C351.333 443.475 352.182 452.68 359.594 460.215Z" fill="#F0B6C5"/>
<path d="M359.594 460.215C367.016 467.761 377.527 471.756 387.707 468.858C403.543 464.35 414.693 453.973 427.952 438.518C431.079 434.873 433.154 430.545 430.563 426.502C427.397 421.562 415.55 427.101 415.55 427.101C415.55 427.101 427.088 417.04 422.893 412C418.491 406.712 406.649 418.824 406.649 418.824C406.649 418.824 413.832 404.425 407.752 401.048C401.815 397.75 393.125 410.453 393.125 410.453C393.125 410.453 398.157 396.135 392.07 393.423C386.511 390.946 381.405 395.418 378.581 401.226C373.273 412.143 360.432 418.613 354.966 433.549C351.333 443.475 352.182 452.68 359.594 460.215Z" stroke="#F0B6C5" stroke-width="5"/>
<path d="M359.594 460.215C367.016 467.761 377.527 471.756 387.707 468.858C403.543 464.35 414.693 453.973 427.952 438.518C431.079 434.873 433.154 430.545 430.563 426.502C427.397 421.562 415.55 427.101 415.55 427.101C415.55 427.101 427.088 417.04 422.893 412C418.491 406.712 406.649 418.824 406.649 418.824C406.649 418.824 413.832 404.425 407.752 401.048C401.815 397.75 393.125 410.453 393.125 410.453C393.125 410.453 398.157 396.135 392.07 393.423C386.511 390.946 381.405 395.418 378.581 401.226C373.273 412.143 360.432 418.613 354.966 433.549C351.333 443.475 352.182 452.68 359.594 460.215Z" stroke="black" stroke-opacity="0.2" stroke-width="5"/>
<path d="M240.949 456.78C233.527 464.326 223.016 468.321 212.836 465.423C197 460.915 185.85 450.537 172.59 435.082C169.463 431.438 167.388 427.109 169.979 423.066C173.145 418.126 184.992 423.666 184.992 423.666C184.992 423.666 173.454 413.605 177.65 408.565C182.052 403.277 193.893 415.388 193.893 415.388C193.893 415.388 186.71 400.99 192.791 397.612C198.727 394.314 207.417 407.017 207.417 407.017C207.417 407.017 202.386 392.699 208.472 389.987C214.031 387.51 219.137 391.983 221.961 397.791C227.269 408.707 240.11 415.178 245.577 430.114C249.21 440.039 248.361 449.245 240.949 456.78Z" fill="#F0B6C5"/>
<path d="M240.949 456.78C233.527 464.326 223.016 468.321 212.836 465.423C197 460.915 185.85 450.537 172.59 435.082C169.463 431.438 167.388 427.109 169.979 423.066C173.145 418.126 184.992 423.666 184.992 423.666C184.992 423.666 173.454 413.605 177.65 408.565C182.052 403.277 193.893 415.388 193.893 415.388C193.893 415.388 186.71 400.99 192.791 397.612C198.727 394.314 207.417 407.017 207.417 407.017C207.417 407.017 202.386 392.699 208.472 389.987C214.031 387.51 219.137 391.983 221.961 397.791C227.269 408.707 240.11 415.178 245.577 430.114C249.21 440.039 248.361 449.245 240.949 456.78Z" stroke="#F0B6C5" stroke-width="5"/>
<path d="M240.949 456.78C233.527 464.326 223.016 468.321 212.836 465.423C197 460.915 185.85 450.537 172.59 435.082C169.463 431.438 167.388 427.109 169.979 423.066C173.145 418.126 184.992 423.666 184.992 423.666C184.992 423.666 173.454 413.605 177.65 408.565C182.052 403.277 193.893 415.388 193.893 415.388C193.893 415.388 186.71 400.99 192.791 397.612C198.727 394.314 207.417 407.017 207.417 407.017C207.417 407.017 202.386 392.699 208.472 389.987C214.031 387.51 219.137 391.983 221.961 397.791C227.269 408.707 240.11 415.178 245.577 430.114C249.21 440.039 248.361 449.245 240.949 456.78Z" stroke="black" stroke-opacity="0.2" stroke-width="5"/>
<path d="M285.031 163.139C292.598 165.826 301.452 175.511 301.452 175.511C301.452 175.511 305.005 169.151 308.651 166.513C314.514 162.272 319.643 162.798 326.872 163.139C332.64 163.411 341.268 166.513 341.268 166.513C341.268 166.513 350.496 157.257 355.44 150.542C358.488 146.402 362.638 139.519 362.638 139.519C353.764 136.334 347.128 138.083 339.244 140.869C342.584 135.102 345.33 132.898 351.166 130.072C351.166 130.072 343.315 129.47 338.344 130.072C333.775 130.625 326.872 132.771 326.872 132.771L335.42 119.049C335.42 119.049 330.161 118.478 326.872 119.049C318.095 120.572 308.651 132.771 308.651 132.771V125.123L313.825 115C313.825 115 305.491 115.962 301.452 119.049C296.578 122.775 293.804 132.771 293.804 132.771C288.727 123.748 283.858 120.9 272.209 119.049L275.583 132.771C266.792 127.005 260.842 127.213 249.489 130.072L262.086 139.519C251.9 135.872 246.36 136.23 236.667 139.519C236.667 139.519 242.542 148.793 247.915 153.691C252.578 157.943 262.086 163.139 262.086 163.139C262.086 163.139 276.587 160.141 285.031 163.139Z" fill="#A44809"/>
<path d="M285.031 163.139C292.598 165.826 301.452 175.511 301.452 175.511C301.452 175.511 305.005 169.151 308.651 166.513C314.514 162.272 319.643 162.798 326.872 163.139C332.64 163.411 341.268 166.513 341.268 166.513C341.268 166.513 350.496 157.257 355.44 150.542C358.488 146.402 362.638 139.519 362.638 139.519C353.764 136.334 347.128 138.083 339.244 140.869C342.584 135.102 345.33 132.898 351.166 130.072C351.166 130.072 343.315 129.47 338.344 130.072C333.775 130.625 326.872 132.771 326.872 132.771L335.42 119.049C335.42 119.049 330.161 118.478 326.872 119.049C318.095 120.572 308.651 132.771 308.651 132.771V125.123L313.825 115C313.825 115 305.491 115.962 301.452 119.049C296.578 122.775 293.804 132.771 293.804 132.771C288.727 123.748 283.858 120.9 272.209 119.049L275.583 132.771C266.792 127.005 260.842 127.213 249.489 130.072L262.086 139.519C251.9 135.872 246.36 136.23 236.667 139.519C236.667 139.519 242.542 148.793 247.915 153.691C252.578 157.943 262.086 163.139 262.086 163.139C262.086 163.139 276.587 160.141 285.031 163.139Z" stroke="#A44809" stroke-width="5"/>
<path d="M285.031 163.139C292.598 165.826 301.452 175.511 301.452 175.511C301.452 175.511 305.005 169.151 308.651 166.513C314.514 162.272 319.643 162.798 326.872 163.139C332.64 163.411 341.268 166.513 341.268 166.513C341.268 166.513 350.496 157.257 355.44 150.542C358.488 146.402 362.638 139.519 362.638 139.519C353.764 136.334 347.128 138.083 339.244 140.869C342.584 135.102 345.33 132.898 351.166 130.072C351.166 130.072 343.315 129.47 338.344 130.072C333.775 130.625 326.872 132.771 326.872 132.771L335.42 119.049C335.42 119.049 330.161 118.478 326.872 119.049C318.095 120.572 308.651 132.771 308.651 132.771V125.123L313.825 115C313.825 115 305.491 115.962 301.452 119.049C296.578 122.775 293.804 132.771 293.804 132.771C288.727 123.748 283.858 120.9 272.209 119.049L275.583 132.771C266.792 127.005 260.842 127.213 249.489 130.072L262.086 139.519C251.9 135.872 246.36 136.23 236.667 139.519C236.667 139.519 242.542 148.793 247.915 153.691C252.578 157.943 262.086 163.139 262.086 163.139C262.086 163.139 276.587 160.141 285.031 163.139Z" stroke="black" stroke-opacity="0.2" stroke-width="5"/>
<ellipse cx="241.56" cy="297.385" rx="15.1983" ry="6.82717" fill="#FECAE2" fill-opacity="0.8"/>
<ellipse cx="356.031" cy="297.64" rx="15.1983" ry="6.82717" transform="rotate(-2.27638 356.031 297.64)" fill="#FECAE2" fill-opacity="0.8"/>
</svg>
