<svg width="600" height="600" viewBox="0 0 600 600" fill="none" xmlns="http://www.w3.org/2000/svg">
<path d="M415.912 354.041C410.302 331.368 396.407 319.623 382.593 330.995C364.132 346.192 354.46 394.213 364.132 423.488C367.028 432.254 374.685 433.85 382.593 435.672C409.128 441.784 424.458 388.574 415.912 354.041Z" fill="#BCEB3B"/>
<path d="M415.912 354.041C410.302 331.368 396.407 319.623 382.593 330.995C364.132 346.192 354.46 394.213 364.132 423.488C367.028 432.254 374.685 433.85 382.593 435.672C409.128 441.784 424.458 388.574 415.912 354.041Z" stroke="#B6E831" stroke-width="5"/>
<path d="M415.912 354.041C410.302 331.368 396.407 319.623 382.593 330.995C364.132 346.192 354.46 394.213 364.132 423.488C367.028 432.254 374.685 433.85 382.593 435.672C409.128 441.784 424.458 388.574 415.912 354.041Z" stroke="black" stroke-opacity="0.2" stroke-width="5"/>
<path d="M173.039 352.825C178.65 330.153 192.545 318.407 206.359 329.779C224.819 344.976 234.492 392.997 224.82 422.272C221.924 431.038 214.267 432.634 206.359 434.456C179.824 440.568 164.494 387.358 173.039 352.825Z" fill="#BCEB3B"/>
<path d="M173.039 352.825C178.65 330.153 192.545 318.407 206.359 329.779C224.819 344.976 234.492 392.997 224.82 422.272C221.924 431.038 214.267 432.634 206.359 434.456C179.824 440.568 164.494 387.358 173.039 352.825Z" stroke="#B6E831" stroke-width="5"/>
<path d="M173.039 352.825C178.65 330.153 192.545 318.407 206.359 329.779C224.819 344.976 234.492 392.997 224.82 422.272C221.924 431.038 214.267 432.634 206.359 434.456C179.824 440.568 164.494 387.358 173.039 352.825Z" stroke="black" stroke-opacity="0.2" stroke-width="5"/>
<path d="M164.674 463.198C135.158 465.301 186.118 420.479 214.928 420.703C243.11 420.922 260.626 464.519 233.659 461.884C225.968 461.133 216.32 456.99 216.32 456.99C216.32 456.99 209.303 468.82 200.207 469.734C190.253 470.735 188.612 457.581 188.612 457.581C188.612 457.581 174.033 462.532 164.674 463.198Z" fill="#BCEB3B"/>
<path d="M164.674 463.198C135.158 465.301 186.118 420.479 214.928 420.703C243.11 420.922 260.626 464.519 233.659 461.884C225.968 461.133 216.32 456.99 216.32 456.99C216.32 456.99 209.303 468.82 200.207 469.734C190.253 470.735 188.612 457.581 188.612 457.581C188.612 457.581 174.033 462.532 164.674 463.198Z" stroke="#BCEB3B" stroke-width="5"/>
<path d="M164.674 463.198C135.158 465.301 186.118 420.479 214.928 420.703C243.11 420.922 260.626 464.519 233.659 461.884C225.968 461.133 216.32 456.99 216.32 456.99C216.32 456.99 209.303 468.82 200.207 469.734C190.253 470.735 188.612 457.581 188.612 457.581C188.612 457.581 174.033 462.532 164.674 463.198Z" stroke="black" stroke-opacity="0.2" stroke-width="5"/>
<path d="M435.325 458.335C464.841 460.438 413.881 415.616 385.071 415.84C356.89 416.06 339.373 459.656 366.341 457.022C374.031 456.27 383.679 452.127 383.679 452.127C383.679 452.127 390.697 463.957 399.793 464.872C409.746 465.872 411.387 452.718 411.387 452.718C411.387 452.718 425.967 457.669 435.325 458.335Z" fill="#BCEB3B"/>
<path d="M435.325 458.335C464.841 460.438 413.881 415.616 385.071 415.84C356.89 416.06 339.373 459.656 366.341 457.022C374.031 456.27 383.679 452.127 383.679 452.127C383.679 452.127 390.697 463.957 399.793 464.872C409.746 465.872 411.387 452.718 411.387 452.718C411.387 452.718 425.967 457.669 435.325 458.335Z" stroke="#BCEB3B" stroke-width="5"/>
<path d="M435.325 458.335C464.841 460.438 413.881 415.616 385.071 415.84C356.89 416.06 339.373 459.656 366.341 457.022C374.031 456.27 383.679 452.127 383.679 452.127C383.679 452.127 390.697 463.957 399.793 464.872C409.746 465.872 411.387 452.718 411.387 452.718C411.387 452.718 425.967 457.669 435.325 458.335Z" stroke="black" stroke-opacity="0.2" stroke-width="5"/>
<path d="M230.999 298.327C229.278 303.127 200.178 385.396 223.704 420.684C249.234 458.98 349.534 463.843 370.2 420.684C390.866 377.526 362.908 301.989 361.082 298.327C361.082 298.327 232.449 294.283 230.999 298.327Z" fill="#BCEB3B"/>
<path d="M230.999 298.327C229.278 303.127 200.178 385.396 223.704 420.684C249.234 458.98 349.534 463.843 370.2 420.684C390.866 377.526 362.908 301.989 361.082 298.327C361.082 298.327 232.449 294.283 230.999 298.327Z" stroke="#BCEB3B" stroke-width="5"/>
<path d="M230.999 298.327C229.278 303.127 200.178 385.396 223.704 420.684C249.234 458.98 349.534 463.843 370.2 420.684C390.866 377.526 362.908 301.989 361.082 298.327C361.082 298.327 232.449 294.283 230.999 298.327Z" stroke="black" stroke-opacity="0.2" stroke-width="5"/>
<path d="M344.517 397.681C344.517 426.868 323.2 448.17 296.343 448.17C269.486 448.17 247.259 426.868 247.259 397.681C247.259 368.494 267.842 344.833 295.888 344.833C323.934 344.833 344.517 368.494 344.517 397.681Z" fill="#FFF079"/>
<path d="M344.517 397.681C344.517 426.868 323.2 448.17 296.343 448.17C269.486 448.17 247.259 426.868 247.259 397.681C247.259 368.494 267.842 344.833 295.888 344.833C323.934 344.833 344.517 368.494 344.517 397.681Z" stroke="#FFF079" stroke-width="5"/>
<path d="M344.517 397.681C344.517 426.868 323.2 448.17 296.343 448.17C269.486 448.17 247.259 426.868 247.259 397.681C247.259 368.494 267.842 344.833 295.888 344.833C323.934 344.833 344.517 368.494 344.517 397.681Z" stroke="black" stroke-opacity="0.2" stroke-width="5"/>
<path d="M416.246 228.124C416.246 292.581 362.904 322.951 297.105 322.951C231.305 322.951 177.963 292.581 177.963 228.124C160.942 65.2164 238.141 141.807 294.672 141.807C351.203 141.807 431.441 54.8827 416.246 228.124Z" fill="#BCEB3B"/>
<path d="M416.246 228.124C416.246 292.581 362.904 322.951 297.105 322.951C231.305 322.951 177.963 292.581 177.963 228.124C160.942 65.2164 238.141 141.807 294.672 141.807C351.203 141.807 431.441 54.8827 416.246 228.124Z" stroke="#BCEB3B" stroke-width="5"/>
<path d="M416.246 228.124C416.246 292.581 362.904 322.951 297.105 322.951C231.305 322.951 177.963 292.581 177.963 228.124C160.942 65.2164 238.141 141.807 294.672 141.807C351.203 141.807 431.441 54.8827 416.246 228.124Z" stroke="black" stroke-opacity="0.2" stroke-width="5"/>
<path d="M281.451 282.578C281.451 282.578 286.461 286.946 290.204 286.59C293.317 286.293 297.134 282.578 297.134 282.578C297.134 282.578 300.943 286.398 304.064 286.59C307.561 286.804 312.088 282.578 312.088 282.578" stroke="#547D18" stroke-width="5" stroke-linecap="round"/>
<ellipse cx="238.017" cy="261.134" rx="16.1344" ry="7.24767" fill="#F7C1CF"/>
<ellipse cx="359.538" cy="261.405" rx="16.1344" ry="7.24767" transform="rotate(-2.27638 359.538 261.405)" fill="#F7C1CF"/>
<ellipse cx="22.2143" cy="26.2656" rx="22.2143" ry="26.2656" transform="matrix(-0.953838 0.300322 0.215795 0.976439 373.707 162.062)" fill="black" stroke="#504B4F"/>
<ellipse cx="6.32016" cy="5.41673" rx="6.32016" ry="5.41673" transform="matrix(-0.82516 0.564899 0.575712 0.817653 352.611 177.184)" fill="white" stroke="#504B4F"/>
<ellipse cx="22.2143" cy="26.2656" rx="22.2143" ry="26.2656" transform="matrix(-0.953838 0.300322 0.215795 0.976439 248.789 162.364)" fill="black" stroke="#504B4F"/>
<ellipse cx="6.32016" cy="5.41673" rx="6.32016" ry="5.41673" transform="matrix(-0.82516 0.564899 0.575712 0.817653 227.692 177.485)" fill="white" stroke="#504B4F"/>
<path d="M325.117 421.425C330.502 405.292 335.174 396.836 344.17 384.953L347.98 380.09L376.126 384.953C367.982 405.838 367.008 421.425 346.71 427.503C334.643 426.288 333.995 421.434 325.117 421.425Z" fill="#BCEB3B"/>
<path d="M345.525 378.308C345.525 378.308 326.941 406.228 323.901 422.033C321.95 432.181 335.159 429.327 343.961 429.327C359.844 429.327 370.389 410.421 373.138 386.777C376.178 360.639 373.138 337.54 373.138 337.54" stroke="#96BC2F" stroke-width="5" stroke-linecap="round"/>
<path d="M301.812 442.512C291.147 440.7 322.288 423.856 322.288 423.856C330.913 422.976 335.629 422.851 345.494 428.719C345.494 428.719 351.618 445.579 345.494 447.973C340.755 449.825 333.664 442.512 333.664 442.512C333.664 442.512 326.9 449.708 322.288 447.973C318.12 446.404 316.828 437.962 316.828 437.962C316.828 437.962 307.853 443.539 301.812 442.512Z" fill="#BCEB3B"/>
<path d="M301.812 442.512C291.147 440.7 322.288 423.856 322.288 423.856C330.913 422.976 335.629 422.851 345.494 428.719C345.494 428.719 351.618 445.579 345.494 447.973C340.755 449.825 333.664 442.512 333.664 442.512C333.664 442.512 326.9 449.708 322.288 447.973C318.12 446.404 316.828 437.962 316.828 437.962C316.828 437.962 307.853 443.539 301.812 442.512Z" stroke="#BCEB3B" stroke-width="5"/>
<path d="M301.812 442.512C291.147 440.7 322.288 423.856 322.288 423.856C330.913 422.976 335.629 422.851 345.494 428.719C345.494 428.719 351.618 445.579 345.494 447.973C340.755 449.825 333.664 442.512 333.664 442.512C333.664 442.512 326.9 449.708 322.288 447.973C318.12 446.404 316.828 437.962 316.828 437.962C316.828 437.962 307.853 443.539 301.812 442.512Z" stroke="black" stroke-opacity="0.2" stroke-width="5"/>
<path d="M265.634 421.425C260.249 405.292 255.578 396.835 246.582 384.953L242.771 380.09L220.512 384.953C220.512 409.875 226.591 421.425 244.042 427.503C256.108 426.287 256.756 421.433 265.634 421.425Z" fill="#BCEB3B"/>
<path d="M245.227 378.307C245.227 378.307 263.811 406.228 266.85 422.032C268.802 432.18 255.593 429.327 246.791 429.327C230.908 429.327 220.363 410.421 217.613 386.776C214.574 360.638 220.513 338.147 220.513 338.147" stroke="#96BC2F" stroke-width="5" stroke-linecap="round"/>
<path d="M288.94 442.512C299.605 440.7 268.463 423.856 268.463 423.856C259.838 422.976 255.122 422.85 245.257 428.719C245.257 428.719 239.133 445.579 245.257 447.972C249.996 449.825 257.088 442.512 257.088 442.512C257.088 442.512 263.852 449.708 268.463 447.972C272.631 446.404 273.924 437.962 273.924 437.962C273.924 437.962 282.899 443.538 288.94 442.512Z" fill="#BCEB3B"/>
<path d="M288.94 442.512C299.605 440.7 268.463 423.856 268.463 423.856C259.838 422.976 255.122 422.85 245.257 428.719C245.257 428.719 239.133 445.579 245.257 447.972C249.996 449.825 257.088 442.512 257.088 442.512C257.088 442.512 263.852 449.708 268.463 447.972C272.631 446.404 273.924 437.962 273.924 437.962C273.924 437.962 282.899 443.538 288.94 442.512Z" stroke="#BCEB3B" stroke-width="5"/>
<path d="M288.94 442.512C299.605 440.7 268.463 423.856 268.463 423.856C259.838 422.976 255.122 422.85 245.257 428.719C245.257 428.719 239.133 445.579 245.257 447.972C249.996 449.825 257.088 442.512 257.088 442.512C257.088 442.512 263.852 449.708 268.463 447.972C272.631 446.404 273.924 437.962 273.924 437.962C273.924 437.962 282.899 443.538 288.94 442.512Z" stroke="black" stroke-opacity="0.2" stroke-width="5"/>
<path d="M294.736 258.914C295.332 261.64 288.554 260.266 286.195 260.782C283.837 261.298 278.281 262.103 277.685 259.377C277.089 256.651 277.622 253.403 284.264 251.95C290.906 250.498 294.14 256.189 294.736 258.914Z" fill="#A3CC31"/>
<path d="M301.015 258.914C300.419 261.64 307.197 260.266 309.556 260.782C311.914 261.298 317.47 262.103 318.066 259.377C318.662 256.651 318.129 253.403 311.487 251.95C304.845 250.498 301.611 256.189 301.015 258.914Z" fill="#A3CC31"/>
</svg>
