<svg width="600" height="600" viewBox="0 0 600 600" fill="none" xmlns="http://www.w3.org/2000/svg">
<path d="M265.272 219.326C253.874 216.879 247.368 213.626 238.572 205.975C233.73 214.913 227.662 218.806 226.175 228.862C224.549 239.852 225.552 248.139 232.85 256.516C240.741 265.573 250.076 264.614 261.935 266.528C278.345 269.177 287.799 264.509 304.369 263.191C320.57 261.902 329.682 258.209 345.85 259.853C357.263 261.014 364.847 260.264 374.458 266.528C380.746 270.627 383.669 274.094 387.808 280.355C392.652 287.682 395.398 292.566 395.914 301.334C396.373 309.137 395.307 313.99 391.622 320.883C404.098 325.352 414.022 323.134 423.568 332.326C430.59 339.088 433.633 344.688 435.487 354.258C437.342 363.827 433.744 369.369 432.627 379.052C442.85 382.677 448.549 387.363 454.082 396.693C460.409 407.361 461.357 416.123 458.374 428.161C454.691 443.021 445.84 449.991 432.627 457.723C417.805 466.396 406.41 464.683 389.238 464.875C367.073 465.122 355.239 458.481 333.454 454.385L283.39 464.875C283.39 464.875 248.476 470.112 226.175 468.212C206.635 466.547 194.343 467.001 177.065 457.723C164.946 451.214 157.396 446.84 149.888 435.313C142.685 424.254 140.992 416.074 140.352 402.891C139.897 393.526 139.21 387.531 143.213 379.052C146.429 372.239 150.768 370.043 155.61 364.271C150.878 353.706 149.511 346.756 149.888 335.187C150.211 325.255 149.911 318.534 155.61 310.393C161.928 301.368 166.139 298.818 177.065 297.401C175.79 291.861 174.735 288.828 172.297 283.693C164.286 266.819 166.622 254.6 168.483 236.013C170.274 218.122 172.559 207.611 180.88 191.672C191.609 171.118 201.832 160.71 221.407 148.283C234.37 140.054 242.551 135.849 257.643 133.026C274.507 129.872 285.161 130.205 301.508 135.41C312.062 138.77 316.274 144.773 326.779 148.283C332.775 150.287 337.706 147.991 342.513 152.098C347.402 156.275 344.811 162.241 348.711 167.355C352.911 172.864 357.352 173.855 363.015 177.845C370.291 182.971 373.152 187.262 376.013 195.367C377.81 200.459 377.443 205.678 374.458 209.313C370.689 213.902 368.063 216.2 363.015 219.326C352.953 225.556 345.283 225.629 333.454 226.001C318.415 226.473 310.799 218.911 295.787 217.895C283.884 217.09 276.936 221.829 265.272 219.326Z" fill="#C6A67D"/>
<path d="M230.943 181.182C227.707 192.486 229.541 198.446 238.572 205.975M238.572 205.975C247.368 213.626 253.874 216.879 265.272 219.326C276.936 221.829 283.884 217.09 295.787 217.895C310.799 218.911 318.415 226.473 333.454 226.001C345.283 225.629 352.953 225.556 363.015 219.326C368.063 216.2 370.689 213.902 374.458 209.313M238.572 205.975C233.73 214.913 227.662 218.806 226.175 228.862C224.549 239.852 225.552 248.139 232.85 256.516C240.741 265.573 250.076 264.614 261.935 266.528C278.345 269.177 287.799 264.509 304.369 263.191C320.57 261.902 329.682 258.209 345.85 259.853C357.263 261.014 364.847 260.264 374.458 266.528C380.746 270.627 383.669 274.094 387.808 280.355C392.652 287.682 395.398 292.566 395.914 301.334C396.373 309.137 395.307 313.99 391.622 320.883M374.458 209.313C373.152 205.975 366.477 202.996 362.186 204.068C357.073 205.346 357.406 210.681 353.002 213.127C345.027 217.558 338.346 215.393 329.639 213.127C317.263 209.908 314.406 208.951 302.587 204.068M374.458 209.313C377.443 205.678 377.81 200.459 376.013 195.367C373.152 187.262 370.291 182.971 363.015 177.845C357.352 173.855 352.911 172.864 348.711 167.355C344.811 162.241 347.402 156.275 342.513 152.098C337.706 147.991 332.775 150.287 326.779 148.283C316.274 144.773 312.062 138.77 301.508 135.41C285.161 130.205 274.507 129.872 257.643 133.026C242.551 135.849 234.37 140.054 221.407 148.283C201.832 160.71 191.609 171.118 180.88 191.672C172.559 207.611 170.274 218.122 168.483 236.013C166.622 254.6 164.286 266.819 172.297 283.693C174.735 288.828 175.79 291.861 177.065 297.401M391.622 320.883C374.864 322.186 365.335 321.734 348.711 324.22C329.995 327.02 320.219 332.348 301.508 335.187C275.528 339.128 259.821 344.228 234.281 338.047C218.073 334.125 207.091 332.556 195.183 320.883C187.065 312.924 182.704 307.273 177.065 297.401M391.622 320.883C404.098 325.352 414.022 323.134 423.568 332.326C430.59 339.088 433.633 344.688 435.487 354.258C437.342 363.827 433.744 369.369 432.627 379.052M432.627 379.052C420.338 377.19 413.585 374.547 401.158 374.284C386.704 373.977 378.539 375.827 364.445 379.052C357.09 380.735 352.996 381.873 345.85 384.296C342.28 385.507 340.294 386.239 336.791 387.634M432.627 379.052C442.85 382.677 448.549 387.363 454.082 396.693C460.409 407.361 461.357 416.123 458.374 428.161C454.691 443.021 445.84 449.991 432.627 457.723C417.805 466.396 406.41 464.683 389.238 464.875C367.073 465.122 355.239 458.481 333.454 454.385M336.791 387.634C351.501 390.613 359.452 394.979 374.458 395.263C382.111 395.407 394.006 393.832 394.006 393.832M336.791 387.634C318.357 385.586 308.103 381.287 289.589 382.389C267.858 383.683 257.438 395.342 235.711 396.693C228.835 397.121 224.946 397.121 218.07 396.693M155.61 364.271C162.127 372.091 164.286 378.016 172.297 384.296C181.745 391.703 188.559 394.892 200.428 396.693C207.24 397.727 211.18 396.693 218.07 396.693M155.61 364.271C150.878 353.706 149.511 346.756 149.888 335.187C150.211 325.255 149.911 318.534 155.61 310.393C161.928 301.368 166.139 298.818 177.065 297.401M155.61 364.271C150.768 370.043 146.429 372.239 143.213 379.052C139.21 387.531 139.897 393.526 140.352 402.891C140.992 416.074 142.685 424.254 149.888 435.313C157.396 446.84 164.946 451.214 177.065 457.723C194.343 467.001 206.635 466.547 226.175 468.212C248.476 470.112 283.39 464.875 283.39 464.875C283.39 464.875 313.903 458.481 333.454 454.385M333.454 454.385C317.813 447.496 308.798 444.165 293.403 436.744C279.599 430.089 272.137 425.802 258.597 418.626C242.696 410.198 233.896 405.258 218.07 396.693" stroke="#C6A67D" stroke-width="5"/>
<path d="M230.943 181.182C227.707 192.486 229.541 198.446 238.572 205.975M238.572 205.975C247.368 213.626 253.874 216.879 265.272 219.326C276.936 221.829 283.884 217.09 295.787 217.895C310.799 218.911 318.415 226.473 333.454 226.001C345.283 225.629 352.953 225.556 363.015 219.326C368.063 216.2 370.689 213.902 374.458 209.313M238.572 205.975C233.73 214.913 227.662 218.806 226.175 228.862C224.549 239.852 225.552 248.139 232.85 256.516C240.741 265.573 250.076 264.614 261.935 266.528C278.345 269.177 287.799 264.509 304.369 263.191C320.57 261.902 329.682 258.209 345.85 259.853C357.263 261.014 364.847 260.264 374.458 266.528C380.746 270.627 383.669 274.094 387.808 280.355C392.652 287.682 395.398 292.566 395.914 301.334C396.373 309.137 395.307 313.99 391.622 320.883M374.458 209.313C373.152 205.975 366.477 202.996 362.186 204.068C357.073 205.346 357.406 210.681 353.002 213.127C345.027 217.558 338.346 215.393 329.639 213.127C317.263 209.908 314.406 208.951 302.587 204.068M374.458 209.313C377.443 205.678 377.81 200.459 376.013 195.367C373.152 187.262 370.291 182.971 363.015 177.845C357.352 173.855 352.911 172.864 348.711 167.355C344.811 162.241 347.402 156.275 342.513 152.098C337.706 147.991 332.775 150.287 326.779 148.283C316.274 144.773 312.062 138.77 301.508 135.41C285.161 130.205 274.507 129.872 257.643 133.026C242.551 135.849 234.37 140.054 221.407 148.283C201.832 160.71 191.609 171.118 180.88 191.672C172.559 207.611 170.274 218.122 168.483 236.013C166.622 254.6 164.286 266.819 172.297 283.693C174.735 288.828 175.79 291.861 177.065 297.401M391.622 320.883C374.864 322.186 365.335 321.734 348.711 324.22C329.995 327.02 320.219 332.348 301.508 335.187C275.528 339.128 259.821 344.228 234.281 338.047C218.073 334.125 207.091 332.556 195.183 320.883C187.065 312.924 182.704 307.273 177.065 297.401M391.622 320.883C404.098 325.352 414.022 323.134 423.568 332.326C430.59 339.088 433.633 344.688 435.487 354.258C437.342 363.827 433.744 369.369 432.627 379.052M432.627 379.052C420.338 377.19 413.585 374.547 401.158 374.284C386.704 373.977 378.539 375.827 364.445 379.052C357.09 380.735 352.996 381.873 345.85 384.296C342.28 385.507 340.294 386.239 336.791 387.634M432.627 379.052C442.85 382.677 448.549 387.363 454.082 396.693C460.409 407.361 461.357 416.123 458.374 428.161C454.691 443.021 445.84 449.991 432.627 457.723C417.805 466.396 406.41 464.683 389.238 464.875C367.073 465.122 355.239 458.481 333.454 454.385M336.791 387.634C351.501 390.613 359.452 394.979 374.458 395.263C382.111 395.407 394.006 393.832 394.006 393.832M336.791 387.634C318.357 385.586 308.103 381.287 289.589 382.389C267.858 383.683 257.438 395.342 235.711 396.693C228.835 397.121 224.946 397.121 218.07 396.693M155.61 364.271C162.127 372.091 164.286 378.016 172.297 384.296C181.745 391.703 188.559 394.892 200.428 396.693C207.24 397.727 211.18 396.693 218.07 396.693M155.61 364.271C150.878 353.706 149.511 346.756 149.888 335.187C150.211 325.255 149.911 318.534 155.61 310.393C161.928 301.368 166.139 298.818 177.065 297.401M155.61 364.271C150.768 370.043 146.429 372.239 143.213 379.052C139.21 387.531 139.897 393.526 140.352 402.891C140.992 416.074 142.685 424.254 149.888 435.313C157.396 446.84 164.946 451.214 177.065 457.723C194.343 467.001 206.635 466.547 226.175 468.212C248.476 470.112 283.39 464.875 283.39 464.875C283.39 464.875 313.903 458.481 333.454 454.385M333.454 454.385C317.813 447.496 308.798 444.165 293.403 436.744C279.599 430.089 272.137 425.802 258.597 418.626C242.696 410.198 233.896 405.258 218.07 396.693" stroke="black" stroke-opacity="0.2" stroke-width="5"/>
<ellipse cx="300.203" cy="172.958" rx="12.3966" ry="13.3502" fill="#5F4129" stroke="black"/>
<path d="M303.54 172.481C303.54 178.011 303.79 182.494 301.156 182.494C298.523 182.494 296.388 176.812 296.388 172.481C296.388 168.151 298.523 162.469 301.156 162.469C303.79 162.469 303.54 166.952 303.54 172.481Z" fill="#351902"/>
<path d="M298.159 170.06C296.866 171.241 293.749 174.423 291.974 172.478C290.199 170.533 290.139 167.697 293.338 164.777C296.537 161.858 298.438 162.641 299.726 164.777C300.837 166.62 300.68 167.76 298.159 170.06Z" fill="#FCFEFF" fill-opacity="0.75"/>
<path d="M355.511 199.188C355.511 201.821 353.376 203.956 350.743 203.956C348.11 203.956 345.975 201.821 345.975 199.188C345.975 196.555 348.11 196.804 350.743 196.804C353.376 196.804 355.511 196.555 355.511 199.188Z" fill="#9E8564"/>
<path d="M370.091 194.308C370.888 196.818 369.499 199.498 366.989 200.295C364.479 201.091 361.798 199.702 361.002 197.192C360.205 194.682 362.315 194.274 364.825 193.478C367.335 192.681 369.294 191.798 370.091 194.308Z" fill="#9E8564"/>
</svg>
