<svg width="600" height="600" viewBox="0 0 600 600" fill="none" xmlns="http://www.w3.org/2000/svg">
<path d="M211.659 506.084H153.428C153.428 506.084 148.787 502.899 146.811 499.996C143.32 494.868 142.931 490.507 143.899 484.38C144.43 481.021 146.811 476.174 146.811 476.174C146.811 476.174 140.283 472.399 137.282 468.763C134.192 465.02 132.478 462.678 130.665 458.176C127.331 449.896 126.339 444.815 125.371 435.942C124.531 428.235 125.218 423.218 126.43 415.561C128.02 405.511 130.934 400.202 135.694 391.21C141.197 380.812 146.049 376.021 153.428 366.858C158.301 360.807 166.398 351.771 166.398 351.771C166.398 351.771 165.697 339.801 166.398 332.184C167.519 320.001 169.708 313.272 173.809 301.745C177.714 290.767 186.514 274.747 186.514 274.747L183.602 269.189C183.602 269.189 180.481 268.722 178.573 269.189C172.139 270.763 171.956 284.805 171.956 284.805C171.956 284.805 167.91 277.633 166.398 272.63C164.883 267.62 164.625 264.618 164.28 259.395C163.692 250.487 166.398 236.632 166.398 236.632C166.398 236.632 162.14 239.646 160.045 242.191C156.215 246.844 154.222 256.484 154.222 256.484C154.222 256.484 152.428 250.1 152.104 245.896C151.577 239.044 152.749 235.139 154.222 228.427C155.785 221.307 160.045 210.693 160.045 210.693C160.045 210.693 152.854 214.507 149.193 218.104C145.653 221.582 141.782 228.427 141.782 228.427C141.782 228.427 143.004 218.461 144.693 212.281C146.773 204.671 148.354 200.429 152.104 193.488C158.383 181.868 173.809 167.549 173.809 167.549L186.514 147.962C186.514 147.962 180.141 146.822 176.456 145.05C170.837 142.35 167.494 140.242 163.751 135.257C159.887 130.112 158.207 126.198 156.869 119.905C155.492 113.435 155.285 109.124 156.869 102.701C158.274 97.0002 160.394 92.5439 164.28 88.1428C168.61 83.239 172.409 81.3327 178.573 79.1434C186.485 76.3336 193.068 76.6253 201.336 78.0846C207.159 79.1124 209.794 81.0025 214.571 83.9077C220.066 87.2503 221.435 90.0441 225.158 95.2893C228.878 100.53 232.305 110.112 232.305 110.112C232.305 110.112 249.9 103.676 260.891 101.906C277.832 99.1785 287.009 99.0268 303.77 102.701C314.761 105.109 330.768 112.759 330.768 112.759C330.768 112.759 333.291 106.424 335.533 102.701C339.09 96.7934 341.214 93.0812 346.914 89.2015C352.266 85.5592 356.71 83.0453 363.06 81.7902C371.477 80.1267 376.434 80.7195 384.5 83.643C390.241 85.7238 394.224 87.5169 398.528 91.8483C403.502 96.8534 405.29 100.883 406.998 107.73C408.349 113.145 407.857 117.037 406.998 122.552C405.987 129.045 404.976 131.307 401.44 136.845C398.528 141.406 396.511 144.054 391.911 146.903C386.22 150.429 375.236 151.932 375.236 151.932C375.236 151.932 379.282 157.861 381.853 161.461C383.669 164.004 384.655 165.117 386.617 167.549C392.124 174.37 396.934 175.543 403.293 181.577C409.725 187.682 419.174 198.517 419.174 198.517C419.174 198.517 406.681 194.388 404.351 195.87C402.022 197.353 409.38 205.664 411.763 209.899C414.145 214.134 417.321 222.604 417.321 222.604C417.321 222.604 411.333 218.846 406.998 218.104C403.942 217.581 399.058 218.104 399.058 218.104C399.058 218.104 402.564 225.413 404.351 230.28C406.539 236.238 408.851 245.896 408.851 245.896C408.851 245.896 403.068 242.001 399.058 240.073C395.753 238.485 390.323 236.632 390.323 236.632C390.323 236.632 395.482 245.643 397.205 251.719C398.87 257.59 399.08 261.058 400.116 267.071C401.147 273.05 401.44 282.423 401.44 282.423C401.44 282.423 398.604 278.445 396.146 276.6C392.922 274.18 385.029 272.1 385.029 272.1C385.029 272.1 378.089 277.508 372.589 280.57C369.598 282.236 363.218 282.423 363.218 282.423C363.218 282.423 371.748 293.496 375.236 299.628C378.391 305.175 382.118 314.45 382.118 314.45C385.322 324.994 388.205 330.596 389.264 341.713C390.323 352.83 390.323 356.935 390.323 366.858V378.505C390.323 378.505 396.051 384.991 399.058 389.621C404.122 397.42 407.154 402.183 408.851 411.326C410.153 418.338 410.575 421.837 409.645 429.589C408.715 437.342 407.792 441.5 405.41 449.441C403.028 457.381 396.411 470.88 396.411 470.88C396.411 470.88 409.159 471.165 416.792 468.763C425.906 465.895 430.939 462.808 437.702 456.058C444.917 448.857 448.174 443.372 450.936 433.56C453.877 423.112 455.373 415.673 450.936 405.767C448.435 400.182 446.315 396.983 441.408 393.327C437.174 390.173 434.131 389.137 428.967 388.033C423.307 386.824 418.574 391.76 414.145 388.033C412.082 386.298 410.814 384.88 410.439 382.21C409.83 377.866 412.375 375.144 416.156 372.92C420.611 370.3 423.996 370.085 428.823 369.779L428.967 369.77C437.074 369.256 441.978 371.127 449.084 375.064C456.311 379.068 459.642 382.892 464.435 389.621C469.782 397.128 471.814 402.305 473.699 411.326C475.666 420.736 475.184 426.444 473.699 435.942C471.993 446.858 470.351 453.343 464.435 462.675C460.202 469.352 457.703 472.405 451.889 477.762C445.536 483.616 441.347 487.643 433.361 491.5C423.9 496.069 416.934 498.275 406.469 497.349C402.47 496.995 397.628 496.265 397.628 496.265C397.628 496.265 397.599 501.766 395.352 504.76C391.815 509.473 380.265 504.76 380.265 504.76C380.265 504.76 379.494 512.044 376.295 514.024C370.736 517.465 362.795 516.407 362.795 516.407L345.061 516.142H334.474H317.534C317.534 516.142 313.566 513.513 312.77 510.848C312.237 509.066 312.77 506.084 312.77 506.084H300.065H275.184C275.184 506.084 275.616 509.039 275.184 510.848C274.624 513.193 272.008 516.142 272.008 516.142H219.07C219.07 516.142 215.804 515.203 214.306 513.76C212.022 511.56 211.659 506.084 211.659 506.084Z" fill="#F7A14A"/>
<path d="M146.811 476.174C146.811 476.174 144.43 481.021 143.899 484.38C142.931 490.507 143.32 494.868 146.811 499.996C148.787 502.899 153.428 506.084 153.428 506.084H211.659C211.659 506.084 212.022 511.56 214.306 513.76C215.804 515.203 219.07 516.142 219.07 516.142H272.008C272.008 516.142 274.624 513.193 275.184 510.848C275.616 509.039 275.184 506.084 275.184 506.084H300.065H312.77C312.77 506.084 312.237 509.066 312.77 510.848C313.566 513.513 317.534 516.142 317.534 516.142H334.474H345.061L362.795 516.407C362.795 516.407 370.736 517.465 376.295 514.024C379.494 512.044 380.265 504.76 380.265 504.76C380.265 504.76 391.815 509.473 395.352 504.76C397.599 501.766 397.628 496.265 397.628 496.265M146.811 476.174C146.811 476.174 140.283 472.399 137.282 468.763C134.192 465.019 132.478 462.678 130.665 458.176C127.331 449.896 126.339 444.815 125.371 435.942C124.531 428.235 125.218 423.218 126.43 415.561C128.02 405.511 130.934 400.202 135.694 391.21C141.197 380.812 146.049 376.021 153.428 366.858C158.301 360.807 166.398 351.771 166.398 351.771C166.398 351.771 165.697 339.801 166.398 332.184C167.519 320.001 169.708 313.272 173.809 301.745C177.714 290.767 186.514 274.747 186.514 274.747M146.811 476.174C146.811 476.174 154.562 471.839 160.045 470.88C164.627 470.08 167.324 470.46 171.956 470.88C180.205 471.629 184.799 473.112 192.495 476.174C198.896 478.721 208.112 484.38 208.112 484.38M186.514 274.747L183.602 269.189C183.602 269.189 180.481 268.722 178.573 269.189C172.139 270.763 171.956 284.805 171.956 284.805C171.956 284.805 167.91 277.633 166.398 272.63C164.883 267.62 164.625 264.618 164.28 259.395C163.692 250.487 166.398 236.632 166.398 236.632C166.398 236.632 162.14 239.646 160.045 242.191C156.215 246.844 154.222 256.484 154.222 256.484C154.222 256.484 152.428 250.1 152.104 245.896C151.577 239.044 152.749 235.139 154.222 228.427C155.785 221.307 160.045 210.693 160.045 210.693C160.045 210.693 152.854 214.507 149.193 218.104C145.653 221.582 141.782 228.427 141.782 228.427C141.782 228.427 143.004 218.461 144.693 212.281C146.773 204.671 148.354 200.429 152.104 193.488C158.383 181.868 173.809 167.549 173.809 167.549L186.514 147.962M186.514 274.747C186.514 274.747 207.558 286.631 227.963 294.838C239.874 299.628 252.299 300.288 262.637 301.745C272.396 303.121 281.105 301.892 290.959 301.745C303.485 301.559 314.058 299.207 326.427 297.22C343.079 294.544 363.218 282.423 363.218 282.423M186.514 147.962C186.514 147.962 180.141 146.822 176.456 145.05C170.837 142.35 167.494 140.242 163.751 135.257C159.887 130.112 158.207 126.198 156.869 119.905C155.492 113.435 155.285 109.124 156.869 102.701C158.274 97.0002 160.394 92.5439 164.28 88.1428C168.61 83.239 172.409 81.3327 178.573 79.1434C186.485 76.3336 193.068 76.6253 201.336 78.0846C207.159 79.1124 209.794 81.0025 214.571 83.9077C220.066 87.2503 221.435 90.0441 225.158 95.2893C228.878 100.53 232.305 110.112 232.305 110.112M186.514 147.962C194.432 139.993 198.077 135.525 205.994 127.555C213.912 119.586 232.305 110.112 232.305 110.112M232.305 110.112C232.305 110.112 249.9 103.676 260.891 101.906C277.832 99.1785 287.009 99.0268 303.77 102.701C314.761 105.109 330.768 112.759 330.768 112.759M330.768 112.759C330.768 112.759 333.291 106.424 335.533 102.701C339.09 96.7934 341.214 93.0812 346.914 89.2015C352.266 85.5592 356.71 83.0453 363.06 81.7902C371.477 80.1267 376.434 80.7195 384.5 83.643C390.241 85.7238 394.224 87.5169 398.528 91.8483C403.502 96.8534 405.29 100.883 406.998 107.73C408.349 113.145 407.857 117.037 406.998 122.552C405.987 129.045 404.976 131.307 401.44 136.845C398.528 141.406 396.511 144.054 391.911 146.903C386.22 150.429 375.236 151.932 375.236 151.932M330.768 112.759C330.768 112.759 344.719 120.946 352.631 127.555C362.595 135.878 375.236 151.932 375.236 151.932M375.236 151.932C375.236 151.932 379.282 157.861 381.853 161.461C383.669 164.004 384.655 165.117 386.617 167.549C392.124 174.371 396.934 175.543 403.293 181.577C409.725 187.682 419.174 198.517 419.174 198.517C419.174 198.517 406.681 194.388 404.351 195.87C402.022 197.353 409.38 205.664 411.763 209.899C414.145 214.134 417.321 222.604 417.321 222.604C417.321 222.604 411.333 218.846 406.998 218.104C403.942 217.581 399.058 218.104 399.058 218.104C399.058 218.104 402.564 225.413 404.351 230.28C406.539 236.238 408.851 245.896 408.851 245.896C408.851 245.896 403.068 242.001 399.058 240.073C395.753 238.485 390.323 236.632 390.323 236.632C390.323 236.632 395.482 245.643 397.205 251.719C398.87 257.59 399.08 261.058 400.116 267.071C401.147 273.05 401.44 282.423 401.44 282.423C401.44 282.423 398.604 278.445 396.146 276.6C392.922 274.18 385.029 272.1 385.029 272.1C385.029 272.1 378.089 277.508 372.589 280.57C369.598 282.236 363.218 282.423 363.218 282.423M363.218 282.423C363.218 282.423 371.748 293.496 375.236 299.628C378.391 305.175 382.118 314.45 382.118 314.45C385.322 324.994 388.205 330.596 389.264 341.713C390.323 352.83 390.323 356.935 390.323 366.858C390.323 371.407 390.323 378.505 390.323 378.505C390.323 378.505 396.051 384.991 399.058 389.621C404.122 397.42 407.154 402.183 408.851 411.326C410.153 418.338 410.575 421.837 409.645 429.589C408.715 437.342 407.792 441.5 405.41 449.441C403.028 457.381 396.411 470.88 396.411 470.88C396.411 470.88 409.159 471.165 416.792 468.763C425.906 465.895 430.939 462.808 437.702 456.058C444.917 448.857 448.174 443.372 450.936 433.56C453.877 423.112 455.373 415.673 450.936 405.767C448.435 400.182 446.315 396.983 441.408 393.327C437.174 390.173 434.131 389.137 428.967 388.033C423.307 386.824 418.574 391.76 414.145 388.033C412.082 386.298 410.814 384.88 410.439 382.21C409.83 377.866 412.375 375.144 416.156 372.92C420.656 370.273 424.063 370.081 428.967 369.77C437.074 369.256 441.978 371.127 449.084 375.064C456.311 379.068 459.642 382.892 464.435 389.621C469.782 397.128 471.814 402.305 473.699 411.326C475.666 420.736 475.184 426.444 473.699 435.942C471.993 446.858 470.351 453.343 464.435 462.675C460.202 469.352 457.703 472.405 451.889 477.762C445.536 483.616 441.347 487.643 433.361 491.5C423.9 496.069 416.934 498.275 406.469 497.349C402.47 496.995 397.628 496.265 397.628 496.265M397.628 496.265C397.628 496.265 397.956 488.213 396.146 484.38C394.554 481.008 392.612 479.403 389.264 477.762C386.606 476.46 381.853 476.174 381.853 476.174" stroke="#DD9144" stroke-width="9"/>
<path d="M306.132 507.382H271.194H233.873C233.873 507.382 225.955 486.889 221.962 474.424C218.6 463.926 217.327 458.655 215.159 451.475C212.672 443.237 211.537 434.342 210.753 423.644C209.124 401.429 206.954 387.269 210.753 365.541C213.53 349.656 217.243 340.748 221.962 325.259C224.512 316.89 231.04 303.043 231.04 303.043C231.04 303.043 247.307 304.75 257.773 306.219C269.949 307.928 279.068 307.449 283.548 307.543C290.533 307.689 296.568 307.327 307.269 306.219C319.719 304.93 330.133 301.19 330.133 301.19C330.133 301.19 341.517 327.143 345.041 339.419C348.825 352.602 349.881 361.524 352.019 371.156C354.157 380.788 355.8 391.223 355.8 406.311C355.8 419.222 356.044 429.843 353.854 439.025C351.175 450.255 349.884 455.137 345.041 470.762C341.063 483.595 331.806 507.382 331.806 507.382H306.132Z" fill="#F6EADC" stroke="#EAE0D5" stroke-width="10"/>
<path d="M170.278 312.376C174.151 298.093 188.26 275.516 188.26 275.516L205.356 284.515L223.464 292.985L236.661 298.345C236.661 298.345 231.956 312.956 231.42 322.651C230.892 332.202 232.317 337.583 233.855 347.025C235.6 357.739 237.44 363.59 240.237 374.079C244.776 391.103 249.148 400.111 253.891 417.079C258.427 433.304 260.528 444.157 264.49 460.532C268.46 476.942 269.052 480.9 272.696 493.882C275.18 502.735 272.696 515.833 272.696 515.833L219.859 515.833C219.859 515.833 209.965 505.278 209.965 496.954C209.965 480.913 210.479 473.218 205.356 458.479C199.232 440.862 193.045 432.071 186.415 414.639C177.874 392.182 170.278 378.743 168.148 354.989C166.725 339.116 166.106 327.757 170.278 312.376Z" fill="#F7A14A" stroke="#DD9144" stroke-width="10"/>
<path d="M363.747 283.191L331.355 297.75C331.355 297.75 337.328 308.724 339.825 316.278C342.443 324.196 342.456 325.697 343.102 334.011C344.137 347.345 341.959 357.467 339.131 370.538C336.669 381.918 334.869 389.478 333.043 400.977C330.397 417.652 329.338 422.152 326.162 442.798C322.985 463.443 322.192 465.826 318.486 485.942C318.486 485.942 316.898 495.206 312.928 507.117C311.339 511.881 318.486 513.999 318.486 513.999L375.394 513.999C375.394 513.999 378.498 500.37 379.364 491.486L381.582 468.737C382.448 459.853 382.54 437.769 386.41 416.156C389.694 397.816 390.84 387.238 390.38 368.612C390.026 354.229 390.38 346.717 388.628 331.985C387.309 320.898 385.652 316.915 381.482 307.634C377.06 297.794 363.747 283.191 363.747 283.191Z" fill="#F7A14A" stroke="#DD9144" stroke-width="10"/>
<path d="M249.932 506.082C249.932 511.524 248.744 518.498 244.196 521.674C239.033 521.674 232.629 521.674 227.848 521.674C222.52 521.674 221.538 521.674 214.655 521.674C210.771 518.515 208.201 511.568 208.703 506.37C208.703 496.802 218.194 486.735 229.282 486.735C240.37 486.735 249.932 496.513 249.932 506.082Z" fill="#E0D4C6"/>
<path d="M349.454 506.082C349.454 511.524 348.282 518.498 343.792 521.674C338.695 521.674 332.373 521.674 327.654 521.674C322.393 521.674 321.425 521.674 314.63 521.674C310.795 518.515 308.258 511.568 308.754 506.37C308.754 496.802 318.124 486.735 329.069 486.735C340.015 486.735 349.454 496.513 349.454 506.082Z" fill="#E0D4C6"/>
<path d="M279.576 506.318C279.576 511.678 278.404 518.546 273.914 521.674C268.818 521.674 262.495 521.674 257.776 521.674C252.515 521.674 251.547 521.674 244.752 521.674C240.917 518.562 238.38 511.721 238.876 506.602C238.876 497.179 248.246 487.264 259.191 487.264C270.137 487.264 279.576 496.894 279.576 506.318Z" fill="#F6EADC"/>
<path d="M379.099 506.611C379.099 512.053 377.927 519.027 373.436 522.203C368.34 522.203 362.018 522.203 357.298 522.203C352.038 522.203 351.069 522.203 344.274 522.203C340.44 519.044 337.903 512.097 338.399 506.899C338.399 497.331 347.768 487.264 358.714 487.264C369.659 487.264 379.099 497.042 379.099 506.611Z" fill="#F6EADC"/>
<path d="M386.071 326.676C385.012 322.483 384.366 319.923 382.491 315.788C382.491 315.788 377.553 318.276 374.548 320.384C371.077 322.817 370.222 323.956 367.794 327.431C364.05 332.79 362.211 337.404 361.304 344.037C360.829 347.519 360.052 351.559 363.184 353.154C364.565 353.858 365.596 353.071 366.942 352.303C371.597 349.645 371.44 348.407 376.28 346.459C380.891 344.603 387.527 344.433 387.527 344.433C387.527 344.433 387.204 331.16 386.117 326.858L386.071 326.676Z" fill="#643734"/>
<path d="M387.799 379.008C387.799 381.655 387.569 386.155 387.569 386.155C387.569 386.155 382.588 385.734 379.594 385.89C375.433 386.107 372.936 385.827 369.007 387.213C365.245 388.541 363.564 390.255 360.272 392.507C357.047 394.714 358.419 394.095 354.449 397.007C353.198 397.924 350.781 399.427 349.684 398.33C348.588 397.234 348.938 396.425 349.155 394.889C349.512 392.362 350.105 391.072 351.273 388.802C353.297 384.867 355.772 382.449 359.743 378.214C359.743 378.214 364.562 374.053 369.007 370.538C369.007 370.538 375.157 366.542 379.594 365.244C382.807 364.305 387.799 363.921 387.799 363.921V371.332V379.008Z" fill="#643734"/>
<path d="M377.14 409.385C379.733 409.72 384.394 411.829 384.394 411.829C384.394 411.829 383.6 415.27 383.07 418.976C382.637 422.006 382.011 428.24 382.011 428.24C382.011 428.24 377.942 425.77 375.336 424.645C372.482 423.412 370.801 422.786 367.732 422.281C364.86 421.809 363.193 421.969 360.283 422.03C357.493 422.088 357.115 422.261 353.155 422.551C351.772 422.652 350.498 422.436 349.872 421.198C349.35 420.167 349.432 419.131 350.188 418.256C352.634 415.423 354.707 414.559 358.024 412.906C360.718 411.564 362.335 410.962 365.261 410.254C369.48 409.233 372.834 408.831 377.14 409.385Z" fill="#643734"/>
<path d="M374.144 433.755C376.649 434.596 380.953 437.239 380.953 437.239C380.953 437.239 380.953 438.828 380.688 441.474L380.67 441.656C380.417 444.188 380.274 445.609 380.159 447.827C380.019 450.507 379.894 454.444 379.894 454.444C379.894 454.444 377.149 451.819 375.38 450.65C372.523 448.763 370.683 448.008 367.415 446.986C362.984 445.601 360.268 445.403 355.626 445.459C351.274 445.512 348.87 446.235 344.597 447.062C342.444 447.479 341.282 447.949 339.111 448.259C337.065 448.551 334.985 450.361 333.832 448.645C333.016 447.432 333.992 446.013 334.881 444.853C336.82 442.323 337.653 442.036 340.135 440.488C343.084 438.649 345.873 436.96 349.066 435.589C352.798 433.986 353.917 433.845 357.906 433.085C361.156 432.465 363.05 432.303 366.354 432.467C369.434 432.62 371.221 432.774 374.144 433.755Z" fill="#643734"/>
<path d="M377.14 409.385C379.733 409.72 384.394 411.829 384.394 411.829C384.394 411.829 383.6 415.27 383.07 418.976C382.637 422.006 382.011 428.24 382.011 428.24C382.011 428.24 377.942 425.77 375.336 424.645C372.482 423.412 370.801 422.786 367.732 422.281C364.86 421.809 363.193 421.969 360.283 422.03C357.493 422.088 357.115 422.261 353.155 422.551C351.772 422.652 350.498 422.436 349.872 421.198C349.35 420.167 349.432 419.131 350.188 418.256C352.634 415.423 354.707 414.559 358.024 412.906C360.718 411.564 362.335 410.962 365.261 410.254C369.48 409.233 372.834 408.831 377.14 409.385Z" stroke="black"/>
<path d="M374.144 433.755C376.649 434.596 380.953 437.239 380.953 437.239C380.953 437.239 380.953 438.828 380.688 441.474L380.67 441.656C380.417 444.188 380.274 445.609 380.159 447.827C380.019 450.507 379.894 454.444 379.894 454.444C379.894 454.444 377.149 451.819 375.38 450.65C372.523 448.763 370.683 448.008 367.415 446.986C362.984 445.601 360.268 445.403 355.626 445.459C351.274 445.512 348.87 446.235 344.597 447.062C342.444 447.479 341.282 447.949 339.111 448.259C337.065 448.551 334.985 450.361 333.832 448.645C333.016 447.432 333.992 446.013 334.881 444.853C336.82 442.323 337.653 442.036 340.135 440.488C343.084 438.649 345.873 436.96 349.066 435.589C352.798 433.986 353.917 433.845 357.906 433.085C361.156 432.465 363.05 432.303 366.354 432.467C369.434 432.62 371.221 432.774 374.144 433.755Z" stroke="black"/>
<path d="M193.024 423.47C191.171 419.505 189.054 413.418 189.054 413.418C189.054 413.418 196.585 407.865 201.759 406.795C209.435 405.207 214.23 405.439 220.816 407.324C225.71 408.725 233.256 413.677 229.286 415.795C226.553 417.253 225.845 415.265 221.346 416.324C215.847 417.618 213.808 419.896 209.435 423.47C204.737 427.31 198.847 435.646 198.847 435.646C198.847 435.646 195.186 428.096 193.024 423.47Z" fill="#673D39"/>
<path d="M210.229 465.565C208.906 460.532 206.524 453.121 206.524 453.121C206.524 453.121 213.942 448.402 218.617 445.678C225.048 441.931 229.21 440.642 236.446 438.894C240.602 437.89 247.734 438.136 249.468 441.311C251.372 444.795 249.956 445.699 247.512 447.447C240.354 452.563 241.436 450.876 236.446 454.709C231.564 458.458 229.01 461.042 224.836 465.565C221.383 469.305 212.612 478.266 212.612 478.266C212.612 478.266 211.457 470.233 210.229 465.565Z" fill="#673D39"/>
<path d="M131.617 405.213C128.898 412.859 127.382 426.908 127.382 426.908C127.382 426.908 137.144 426.105 142.45 426.908C147.605 427.688 150.856 427.949 155.213 430.804C160.997 434.593 163.742 441.349 167.977 437.622C170.621 435.295 170.211 432.806 170.261 429.299C170.339 423.846 165.686 415.545 165.686 415.545C165.686 415.545 160.124 405.233 155.213 399.636C150.817 394.624 140.616 387.743 140.616 387.743C140.616 387.743 134.338 397.559 131.617 405.213Z" fill="#643734"/>
<path d="M407.951 418.711C407.525 412.754 404.51 404.418 404.51 404.418L396.304 409.712C396.304 409.712 393.922 411.3 389.158 413.947C389.158 413.947 387.797 424.258 387.305 429.299C386.73 435.191 385.981 441.739 385.981 441.739C385.981 441.739 390.25 438.884 396.834 435.122C400.539 433.005 406.892 431.416 406.892 431.416C406.892 431.416 408.48 426.123 407.951 418.711Z" fill="#643734"/>
<path d="M261.578 164.435C261.578 165.224 261.622 165.629 261.938 166.338C262.205 166.94 262.518 167.206 263.016 167.442C263.413 167.63 264.754 167.442 264.754 167.442C264.754 167.442 266.188 166.819 266.872 166.338C268.195 165.406 268.424 164.958 269.519 164.083C270.842 163.024 271.22 162.467 272.43 161.595L272.482 161.558C273.756 160.64 273.854 160.57 275.077 159.583C276.364 158.545 277.112 158.189 278.518 157.465C279.819 156.796 280.582 156.449 281.959 156.142C283.442 155.811 284.17 155.913 285.665 156.142C287.135 156.367 287.209 156.454 288.576 157.201C290.336 158.162 292.017 159.848 292.017 159.848C292.017 159.848 293.266 161.074 294.664 162.409C295.877 163.567 296.431 164.398 297.576 165.671C298.336 166.516 299.435 167.259 300.487 167.259C301.175 167.259 302.214 166.823 302.568 166.171C303.167 165.066 302.688 162.699 302.688 162.699C302.688 162.699 302.241 160.431 301.609 158.755C300.938 156.978 300.509 156.206 299.572 154.653C298.807 153.386 298.176 152.624 297.294 151.497C296.119 149.994 295.349 149.281 293.938 148.184C292.821 147.314 292.254 146.81 291.062 146.132C289.865 145.452 289.093 145.117 287.826 144.712C286.5 144.289 285.954 144.201 284.59 144.239C283.458 144.271 282.47 144.305 281.354 144.555C280.078 144.84 279.368 145.058 278.118 145.501C276.789 145.973 276.155 146.39 274.882 147.079C273.468 147.844 272.428 148.513 271.107 149.525C269.704 150.599 269.22 150.989 267.93 152.286C266.744 153.479 266.051 154.295 265.054 155.757C264.203 157.004 263.855 157.808 263.136 159.228C262.648 160.192 262.571 160.56 262.177 161.595C261.818 162.542 261.578 163.432 261.578 164.435Z" fill="#573035"/>
<path d="M271.107 175.329C271.107 175.634 271.131 175.79 271.296 176.064C271.437 176.296 271.602 176.399 271.863 176.491C272.072 176.563 272.777 176.491 272.777 176.491C272.777 176.491 273.531 176.25 273.89 176.064C274.586 175.704 274.706 175.531 275.281 175.193C275.977 174.784 276.175 174.569 276.812 174.232L276.839 174.217C277.509 173.863 277.56 173.835 278.203 173.454C278.88 173.053 279.273 172.916 280.012 172.636C280.695 172.378 281.097 172.244 281.82 172.125C282.6 171.997 282.983 172.036 283.768 172.125C284.541 172.212 284.58 172.245 285.299 172.534C286.224 172.905 287.107 173.556 287.107 173.556C287.107 173.556 287.764 174.03 288.499 174.546C289.136 174.993 289.427 175.314 290.029 175.806C290.429 176.133 291.007 176.42 291.56 176.42C291.921 176.42 292.467 176.251 292.653 175.999C292.968 175.573 292.716 174.658 292.716 174.658C292.716 174.658 292.482 173.782 292.149 173.134C291.797 172.448 291.571 172.15 291.078 171.55C290.677 171.06 290.345 170.766 289.881 170.33C289.264 169.75 288.859 169.475 288.117 169.05C287.53 168.714 287.232 168.52 286.605 168.258C285.976 167.995 285.57 167.866 284.904 167.709C284.207 167.546 283.921 167.512 283.203 167.527C282.608 167.539 282.089 167.552 281.502 167.648C280.832 167.759 280.458 167.843 279.801 168.014C279.103 168.196 278.77 168.358 278.1 168.624C277.357 168.919 276.81 169.178 276.116 169.569C275.379 169.984 275.124 170.134 274.446 170.635C273.823 171.096 273.459 171.411 272.934 171.976C272.487 172.458 272.304 172.769 271.926 173.317C271.67 173.689 271.629 173.832 271.422 174.232C271.233 174.597 271.107 174.941 271.107 175.329Z" fill="#573035"/>
<path d="M216.794 175.739C216.812 176.026 216.851 176.171 217.089 176.415C217.29 176.622 217.516 176.705 217.872 176.77C218.155 176.821 219.096 176.696 219.096 176.696C219.096 176.696 220.091 176.409 220.562 176.205C221.473 175.811 221.625 175.639 222.376 175.275C223.284 174.834 223.537 174.616 224.371 174.248L224.406 174.233C225.283 173.846 225.35 173.816 226.19 173.406C227.073 172.975 227.591 172.814 228.565 172.491C229.466 172.194 229.996 172.035 230.958 171.865C231.995 171.682 232.51 171.688 233.566 171.708C234.606 171.727 234.66 171.756 235.639 171.969C236.898 172.243 238.119 172.784 238.119 172.784C238.119 172.784 239.025 173.176 240.038 173.601C240.917 173.97 241.325 174.248 242.158 174.661C242.712 174.936 243.502 175.159 244.242 175.114C244.727 175.085 245.448 174.883 245.683 174.631C246.081 174.205 245.691 173.366 245.691 173.366C245.691 173.366 245.328 172.562 244.846 171.98C244.335 171.364 244.016 171.102 243.322 170.578C242.756 170.151 242.295 169.901 241.65 169.529C240.79 169.034 240.232 168.808 239.216 168.469C238.411 168.201 238 168.042 237.146 167.846C236.289 167.65 235.738 167.561 234.838 167.468C233.895 167.371 233.509 167.362 232.55 167.434C231.754 167.493 231.059 167.547 230.279 167.685C229.387 167.843 228.892 167.952 228.022 168.166C227.097 168.394 226.66 168.572 225.779 168.876C224.8 169.213 224.083 169.5 223.175 169.924C222.211 170.373 221.879 170.535 221 171.061C220.191 171.544 219.721 171.869 219.051 172.442C218.48 172.931 218.252 173.238 217.777 173.783C217.455 174.154 217.408 174.291 217.154 174.683C216.922 175.042 216.772 175.375 216.794 175.739Z" fill="#573035"/>
<path d="M318.964 172.618C318.91 172.9 318.912 173.05 319.082 173.345C319.225 173.596 319.424 173.733 319.752 173.884C320.014 174.004 320.955 174.117 320.955 174.117C320.955 174.117 321.991 174.086 322.498 174.006C323.478 173.851 323.668 173.721 324.486 173.555C325.475 173.355 325.775 173.207 326.673 173.057L326.712 173.051C327.657 172.894 327.73 172.882 328.645 172.693C329.607 172.495 330.15 172.468 331.173 172.398C332.12 172.334 332.672 172.312 333.647 172.387C334.696 172.467 335.193 172.601 336.212 172.883C337.214 173.16 337.26 173.201 338.154 173.651C339.306 174.23 340.354 175.056 340.354 175.056C340.354 175.056 341.134 175.662 342.009 176.325C342.769 176.901 343.095 177.272 343.8 177.88C344.268 178.283 344.977 178.696 345.706 178.836C346.182 178.929 346.932 178.912 347.221 178.727C347.713 178.413 347.544 177.504 347.544 177.504C347.544 177.504 347.392 176.634 347.07 175.951C346.728 175.227 346.484 174.894 345.942 174.214C345.501 173.659 345.116 173.302 344.584 172.782C343.874 172.088 343.39 171.731 342.489 171.15C341.776 170.69 341.418 170.434 340.64 170.033C339.858 169.629 339.347 169.406 338.497 169.092C337.609 168.763 337.237 168.659 336.29 168.49C335.504 168.35 334.818 168.23 334.028 168.169C333.124 168.1 332.618 168.083 331.722 168.074C330.769 168.064 330.302 168.128 329.373 168.204C328.341 168.287 327.575 168.387 326.591 168.571C325.545 168.767 325.183 168.841 324.201 169.132C323.297 169.399 322.761 169.597 321.97 169.986C321.295 170.317 320.998 170.557 320.402 170.968C319.998 171.246 319.919 171.367 319.575 171.684C319.261 171.974 319.033 172.26 318.964 172.618Z" fill="#573035"/>
<path d="M169.726 327.578C170.473 322.062 172.644 313.895 172.644 313.895C172.644 313.895 178.272 316.14 181.782 318.373C185.219 320.56 187.459 322.79 189.848 326.089C192.418 329.637 193.039 330.847 194.877 334.824C196.037 337.332 197.335 340.707 195.737 343.12C194.843 344.469 193.468 344.93 191.918 344.467C188.288 343.38 186.14 337.608 180.392 336.752C175.995 336.097 169.726 338.511 169.726 338.511C169.726 338.511 169.16 331.756 169.726 327.578Z" fill="#673D39"/>
<path d="M175.82 379.537C173.881 373.91 172.379 364.98 172.379 364.98C172.379 364.98 180.592 361.073 186.407 360.801C193.319 360.478 198.305 361.53 204.671 364.242C211.344 367.086 214.309 368.926 219.758 373.714L219.904 373.843C223.338 376.86 225.614 378.859 227.963 383.035C229.686 386.098 230.397 390.588 226.904 390.976C222.14 391.505 217.039 388.097 211.288 387.535C204.498 386.872 202.494 387.508 195.936 389.388C190.599 390.917 181.908 396.213 181.908 396.213C181.908 396.213 178.184 386.4 175.82 379.537Z" fill="#673D39"/>
<path d="M422.438 469.251C422.438 469.251 426.565 467.685 428.861 466.355C431.257 464.967 434.43 461.64 434.43 461.64L445.201 480.633C445.201 480.633 440.966 484.338 437.525 486.456C434.212 488.495 429.32 490.691 429.32 490.691L422.438 469.251Z" fill="#643734"/>
<path d="M441.036 456.032C441.036 456.032 445.059 452.014 446.33 449.68C447.656 447.244 449.745 442.64 449.745 442.64L466.711 453.65C466.711 453.65 464.87 458.037 462.812 461.392C460.776 464.71 456.388 469.796 456.388 469.796L441.036 456.032Z" fill="#643734"/>
<path d="M441.036 456.032C441.036 456.032 445.059 452.014 446.33 449.68C447.656 447.244 449.745 442.64 449.745 442.64L466.711 453.65C466.711 453.65 464.87 458.037 462.812 461.392C460.776 464.71 456.388 469.796 456.388 469.796L441.036 456.032Z" fill="#643734"/>
<path d="M441.036 456.032C441.036 456.032 445.059 452.014 446.33 449.68C447.656 447.244 449.745 442.64 449.745 442.64L466.711 453.65C466.711 453.65 464.87 458.037 462.812 461.392C460.776 464.71 456.388 469.796 456.388 469.796L441.036 456.032Z" stroke="black"/>
<path d="M441.036 456.032C441.036 456.032 445.059 452.014 446.33 449.68C447.656 447.244 449.745 442.64 449.745 442.64L466.711 453.65C466.711 453.65 464.87 458.037 462.812 461.392C460.776 464.71 456.388 469.796 456.388 469.796L441.036 456.032Z" stroke="black"/>
<path d="M426.713 372.391L425.95 385.361C425.95 385.361 420.391 388.008 416.421 386.684C414.197 385.943 413.244 385.255 412.684 382.979C411.795 379.36 413.496 376.495 416.802 374.774C420.36 372.921 426.713 372.391 426.713 372.391Z" fill="#E0D4C6"/>
<path d="M454.535 430.357C454.535 430.357 455.952 423.745 456.123 421.093C456.302 418.325 455.859 413.153 455.859 413.153L472.269 416.594C472.269 416.594 472.726 423.272 472.269 427.181C471.817 431.047 470.946 437.504 470.946 437.504L454.535 430.357Z" fill="#643734"/>
<path d="M452.153 402.301C452.153 402.301 449.506 397.801 447.653 395.684C445.827 393.597 441.301 390.125 441.301 390.125L451.485 379.22C451.485 379.22 455.455 382.131 458.102 385.043C460.72 387.923 464.064 393.302 464.064 393.302L452.153 402.301Z" fill="#643734"/>
<path d="M372.282 181.022C371.331 181.972 371.743 183.148 372.017 184.463C372.319 185.912 373.146 186.664 373.87 187.904C374.593 189.144 375.264 189.84 375.987 191.08C375.987 191.08 377.28 193.11 378.105 194.521C378.804 195.719 379.145 196.424 379.693 197.697C380.636 199.889 381.078 201.18 381.546 203.521C382.014 205.861 382.132 207.223 382.075 209.608C382.03 211.48 381.913 212.537 381.546 214.373C381.078 216.713 380.681 217.922 379.958 220.196C379.234 222.47 378.744 223.72 378.105 226.019C377.648 227.661 376.781 230.254 376.781 230.254C376.781 230.254 376.115 233.328 377.311 234.489C378.3 235.45 379.399 235.552 380.752 235.283C382.13 235.008 382.729 234.216 383.663 233.165C385.251 231.379 385.72 230.783 386.839 228.93C387.702 227.504 388.38 226.399 389.222 224.96C390.135 223.399 390.44 222.948 391.074 221.255C391.869 219.137 392.16 218.324 392.663 216.225C393.225 213.879 393.566 212.016 393.721 209.608C393.824 208.02 393.986 207.35 393.986 205.903C393.986 204.265 393.891 203.331 393.726 201.716L393.721 201.668C393.528 199.772 393.443 199.003 392.927 197.168C392.485 195.595 392.102 194.378 391.339 192.933C390.548 191.434 390.021 190.812 388.957 189.492C387.893 188.172 387.075 187.245 385.781 186.051C384.473 184.845 384.091 184.38 382.604 183.404C381.093 182.412 379.693 181.551 379.693 181.551L377.311 180.493L375.193 180.228C375.193 180.228 373.027 180.277 372.282 181.022Z" fill="#643734"/>
<path d="M196.403 181.542C197.35 182.481 196.94 183.643 196.667 184.942C196.365 186.374 195.541 187.117 194.819 188.342C194.098 189.568 193.429 190.255 192.708 191.481C192.708 191.481 191.418 193.486 190.596 194.88C189.899 196.064 189.559 196.76 189.013 198.019C188.072 200.185 187.632 201.46 187.165 203.772C186.698 206.085 186.58 207.43 186.637 209.788C186.682 211.637 186.799 212.681 187.165 214.495C187.632 216.807 188.027 218.002 188.749 220.249C189.47 222.496 189.959 223.731 190.596 226.002C191.052 227.625 191.916 230.187 191.916 230.187C191.916 230.187 192.58 233.224 191.388 234.371C190.402 235.321 189.306 235.422 187.957 235.156C186.582 234.885 185.985 234.102 185.054 233.064C183.47 231.298 183.003 230.71 181.887 228.879C181.027 227.47 180.35 226.378 179.511 224.956C178.601 223.414 178.297 222.968 177.664 221.295C176.872 219.203 176.581 218.4 176.08 216.326C175.519 214.007 175.179 212.167 175.024 209.788C174.922 208.218 174.76 207.556 174.76 206.126C174.76 204.508 174.855 203.586 175.019 201.989L175.024 201.942C175.217 200.068 175.302 199.309 175.816 197.496C176.257 195.941 176.639 194.739 177.4 193.311C178.189 191.83 178.714 191.215 179.775 189.911C180.836 188.607 181.652 187.691 182.942 186.511C184.246 185.32 184.627 184.86 186.109 183.896C187.617 182.916 189.013 182.065 189.013 182.065L191.388 181.019L193.499 180.758C193.499 180.758 195.659 180.806 196.403 181.542Z" fill="#643734"/>
<path d="M236.168 152.715C236.168 154.038 236.265 154.717 236.962 155.907C237.553 156.916 238.244 157.364 239.344 157.76C240.22 158.075 242.256 157.744 242.256 157.744C242.256 157.744 244.576 156.553 245.961 155.626C248.217 154.118 248.907 153.395 250.99 151.656C253.246 149.773 254.448 148.634 256.814 146.892C259.399 144.988 260.957 144.069 263.695 142.392C266.538 140.651 268.002 139.37 271.107 138.157C273.979 137.035 275.742 136.29 278.783 135.775C282.058 135.22 283.953 135.126 287.253 135.51C290.499 135.888 292.174 136.904 295.193 138.157C299.08 139.77 304.722 143.186 304.722 143.186C304.722 143.186 309.84 146.241 312.927 148.48C315.606 150.423 317.016 151.638 319.544 153.774C321.224 155.191 321.397 155.626 323.25 156.42C324.573 156.988 325.91 156.72 326.691 155.626C328.014 153.774 326.956 149.803 326.956 149.803C326.956 149.803 325.97 145.997 324.573 143.186C323.092 140.205 322.145 138.91 320.074 136.304C318.386 134.18 316.991 132.901 315.045 131.01C312.45 128.49 310.747 127.294 307.634 125.452C305.166 123.993 303.913 123.147 301.281 122.011C298.637 120.87 296.933 120.308 294.134 119.629C291.206 118.918 290.001 118.771 286.988 118.835C284.488 118.888 282.306 118.945 279.841 119.364C277.023 119.843 275.455 120.208 272.695 120.952C269.76 121.744 268.36 122.444 265.548 123.599C262.427 124.882 260.789 125.872 257.872 127.569C254.775 129.372 253.044 130.158 250.196 132.334C247.577 134.335 246.046 135.704 243.844 138.157C241.966 140.25 241.197 141.598 239.609 143.98C238.532 145.596 238.36 146.213 237.491 147.95C236.697 149.539 236.168 151.032 236.168 152.715Z" fill="#573035"/>
<path d="M179.261 129.143C182.866 133.529 192.496 137.613 192.496 137.613C192.496 137.613 199.709 129.88 204.407 125.703C209.691 121.003 217.112 115.644 217.112 115.644C217.112 115.644 215.43 110.987 214.2 108.763C211.925 104.648 211.016 101.916 207.583 98.7044C202.577 94.0221 198.281 91.4518 191.437 91.8225C186.3 92.1008 183.039 93.3599 179.261 96.8516C176.397 99.499 175.125 101.597 173.967 105.322C172.618 109.665 172.308 112.503 173.173 116.968C174.16 122.058 175.969 125.138 179.261 129.143Z" fill="#FE7B6D"/>
<path d="M354.682 105.903C350.575 109.821 347.213 119.727 347.213 119.727C347.213 119.727 355.459 126.349 359.972 130.725C365.049 135.647 370.942 142.652 370.942 142.652C370.942 142.652 375.462 140.631 377.59 139.239C381.525 136.666 384.182 135.559 387.131 131.897C391.431 126.559 393.676 122.085 392.801 115.287C392.144 110.184 390.647 107.026 386.886 103.516C384.034 100.855 381.848 99.7417 378.047 98.8627C373.616 97.8378 370.763 97.7385 366.374 98.9317C361.371 100.292 358.433 102.324 354.682 105.903Z" fill="#FE7B6D"/>
<path d="M337.115 254.605C337.115 282.672 312.941 305.425 283.119 305.425C253.298 305.425 229.123 282.672 229.123 254.605C229.123 226.538 253.298 203.785 283.119 203.785C312.941 203.785 337.115 226.538 337.115 254.605Z" fill="#F9E9D7" stroke="#E6DDD2"/>
<path d="M280.032 224.986C282.992 226.751 286.7 226.671 289.581 224.779L299.528 218.249C304.965 214.679 304.667 207.06 298.441 205.178C294.566 204.006 289.964 203.028 284.871 202.726C280.079 202.443 274.974 203.406 270.412 204.75C263.766 206.707 263.459 215.103 269.409 218.651L280.032 224.986Z" fill="#FE7B6D"/>
<path d="M284.859 226.898C284.859 226.898 285.176 238.768 285.041 246.315C284.995 248.903 282.06 251.597 277.824 251.178C275.417 250.94 272.221 248.355 272.248 246.846" stroke="black" stroke-width="5"/>
<path d="M284.864 227.223C284.864 227.223 284.739 238.933 284.991 246.374C285.078 248.926 288.015 251.536 292.186 251.056C294.555 250.783 297.667 248.184 297.616 246.695" stroke="black" stroke-width="5"/>
<path d="M252.05 196.374C252.05 204.268 245.888 210.667 238.286 210.667C230.685 210.667 224.522 204.268 224.522 196.374C224.522 188.48 230.685 182.081 238.286 182.081C245.888 182.081 252.05 188.48 252.05 196.374Z" fill="#2E1A26"/>
<path d="M252.05 196.374C252.05 204.268 245.888 210.667 238.286 210.667C230.685 210.667 224.522 204.268 224.522 196.374C224.522 188.48 230.685 182.081 238.286 182.081C245.888 182.081 252.05 188.48 252.05 196.374Z" fill="#2E1A26"/>
<path d="M252.05 196.374C252.05 204.268 245.888 210.667 238.286 210.667C230.685 210.667 224.522 204.268 224.522 196.374C224.522 188.48 230.685 182.081 238.286 182.081C245.888 182.081 252.05 188.48 252.05 196.374Z" fill="#2E1A26"/>
<ellipse cx="329.339" cy="196.638" rx="13.7637" ry="14.2931" fill="#2E1A26"/>
<ellipse cx="329.339" cy="196.638" rx="13.7637" ry="14.2931" fill="#2E1A26"/>
<ellipse cx="329.339" cy="196.638" rx="13.7637" ry="14.2931" fill="#2E1A26"/>
<ellipse cx="241.198" cy="190.021" rx="4.49968" ry="4.49968" fill="white"/>
<ellipse cx="241.198" cy="190.021" rx="4.49968" ry="4.49968" fill="white"/>
<ellipse cx="241.198" cy="190.021" rx="4.49968" ry="4.49968" fill="white"/>
<ellipse cx="324.84" cy="192.139" rx="4.49968" ry="4.49968" fill="white"/>
<ellipse cx="324.84" cy="192.139" rx="4.49968" ry="4.49968" fill="white"/>
<ellipse cx="324.84" cy="192.139" rx="4.49968" ry="4.49968" fill="white"/>
</svg>
