<svg width="600" height="600" viewBox="0 0 600 600" fill="none" xmlns="http://www.w3.org/2000/svg">
<path d="M206.623 278.986C204.107 284.729 161.569 383.165 195.959 425.388C233.278 471.209 379.894 477.028 410.104 425.388C440.314 373.749 399.445 283.368 396.775 278.986C396.775 278.986 208.742 274.147 206.623 278.986Z" fill="#6EA71B"/>
<path d="M206.623 278.986C204.107 284.729 161.569 383.165 195.959 425.388C233.278 471.209 379.894 477.028 410.104 425.388C440.314 373.749 399.445 283.368 396.775 278.986C396.775 278.986 208.742 274.147 206.623 278.986Z" stroke="#6EA71B" stroke-width="5"/>
<path d="M206.623 278.986C204.107 284.729 161.569 383.165 195.959 425.388C233.278 471.209 379.894 477.028 410.104 425.388C440.314 373.749 399.445 283.368 396.775 278.986C396.775 278.986 208.742 274.147 206.623 278.986Z" stroke="black" stroke-opacity="0.2" stroke-width="5"/>
<path d="M231.648 298.446C229.803 303.594 198.596 391.82 223.825 429.663C251.204 470.732 358.766 475.947 380.928 429.663C403.091 383.38 373.109 302.374 371.15 298.446C371.15 298.446 233.203 294.109 231.648 298.446Z" fill="#BCEB3B" stroke="#547D18" stroke-width="5"/>
<path d="M353.549 383.38C353.549 427.302 330.689 459.36 301.887 459.36C273.085 459.36 249.249 427.302 249.249 383.38C249.249 339.457 277.41 313.66 301.399 303.851C324.345 314.361 353.549 339.457 353.549 383.38Z" fill="#FFF079"/>
<path d="M353.549 383.38C353.549 427.302 330.689 459.36 301.887 459.36C273.085 459.36 249.249 427.302 249.249 383.38C249.249 339.457 277.41 313.66 301.399 303.851C324.345 314.361 353.549 339.457 353.549 383.38Z" stroke="#FFF079" stroke-width="5"/>
<path d="M353.549 383.38C353.549 427.302 330.689 459.36 301.887 459.36C273.085 459.36 249.249 427.302 249.249 383.38C249.249 339.457 277.41 313.66 301.399 303.851C324.345 314.361 353.549 339.457 353.549 383.38Z" stroke="black" stroke-opacity="0.2" stroke-width="5"/>
<path d="M301.875 325.073L301.235 455.449" stroke="#A9AD5B" stroke-opacity="0.8" stroke-width="5" stroke-linecap="round"/>
<path d="M344.911 352.453C305.838 362.912 295.033 362.907 257.56 352.453" stroke="#A9AD5B" stroke-opacity="0.8" stroke-width="5" stroke-linecap="round"/>
<path d="M350.126 391.565C311.054 402.024 290.47 402.02 252.997 391.565" stroke="#A9AD5B" stroke-opacity="0.8" stroke-width="5" stroke-linecap="round"/>
<path d="M338.393 431.981C311.666 441.108 292.109 441.108 264.73 431.981" stroke="#A9AD5B" stroke-opacity="0.8" stroke-width="5" stroke-linecap="round"/>
<path d="M430.308 223.16C430.308 292.285 373.104 324.853 302.54 324.853C231.976 324.853 174.772 292.285 174.772 223.16C174.772 154.036 231.976 98 302.54 98C373.104 98 430.308 154.036 430.308 223.16Z" fill="#BCEB3B"/>
<path d="M430.308 223.16C430.308 292.285 373.104 324.853 302.54 324.853C231.976 324.853 174.772 292.285 174.772 223.16C174.772 154.036 231.976 98 302.54 98C373.104 98 430.308 154.036 430.308 223.16Z" stroke="#BCEB3B" stroke-width="5"/>
<path d="M430.308 223.16C430.308 292.285 373.104 324.853 302.54 324.853C231.976 324.853 174.772 292.285 174.772 223.16C174.772 154.036 231.976 98 302.54 98C373.104 98 430.308 154.036 430.308 223.16Z" stroke="black" stroke-opacity="0.2" stroke-width="5"/>
<path d="M285.753 281.557C285.753 281.557 291.126 286.242 295.14 285.859C298.479 285.541 302.572 281.557 302.572 281.557C302.572 281.557 306.656 285.654 310.003 285.859C313.753 286.089 318.608 281.557 318.608 281.557" stroke="#547D18" stroke-width="5" stroke-linecap="round"/>
<ellipse cx="239.174" cy="258.56" rx="17.3027" ry="7.77245" fill="#F7C1CF"/>
<ellipse cx="369.494" cy="258.851" rx="17.3027" ry="7.77245" transform="rotate(-2.27638 369.494 258.851)" fill="#F7C1CF"/>
<ellipse cx="23.8228" cy="28.1674" rx="23.8228" ry="28.1674" transform="matrix(-0.953838 0.300322 0.215795 0.976439 372.473 182.492)" fill="black" stroke="#504B4F"/>
<ellipse cx="6.77779" cy="5.80894" rx="6.77779" ry="5.80894" transform="matrix(-0.82516 0.564899 0.575712 0.817653 349.849 198.708)" fill="white" stroke="#504B4F"/>
<ellipse cx="23.8228" cy="28.1674" rx="23.8228" ry="28.1674" transform="matrix(-0.953838 0.300322 0.215795 0.976439 263.927 181.179)" fill="black" stroke="#504B4F"/>
<ellipse cx="6.77779" cy="5.80894" rx="6.77779" ry="5.80894" transform="matrix(-0.82516 0.564899 0.575712 0.817653 241.303 197.396)" fill="white" stroke="#504B4F"/>
<path d="M430.329 445.633C419.466 470.353 394.627 483.347 374.852 474.656C355.076 465.965 347.851 438.88 358.715 414.16C369.578 389.441 394.417 376.447 414.193 385.138C433.968 393.829 441.193 420.913 430.329 445.633Z" fill="#B5E925"/>
<path d="M430.329 445.633C419.466 470.353 394.627 483.347 374.852 474.656C355.076 465.965 347.851 438.88 358.715 414.16C369.578 389.441 394.417 376.447 414.193 385.138C433.968 393.829 441.193 420.913 430.329 445.633Z" stroke="#B5E925" stroke-width="5"/>
<path d="M430.329 445.633C419.466 470.353 394.627 483.347 374.852 474.656C355.076 465.965 347.851 438.88 358.715 414.16C369.578 389.441 394.417 376.447 414.193 385.138C433.968 393.829 441.193 420.913 430.329 445.633Z" stroke="black" stroke-opacity="0.2" stroke-width="5"/>
<path d="M169.671 444.329C180.534 469.049 205.373 482.043 225.148 473.352C244.924 464.661 252.149 437.576 241.285 412.857C230.422 388.137 205.583 375.143 185.807 383.834C166.032 392.525 158.807 419.61 169.671 444.329Z" fill="#B5E925"/>
<path d="M169.671 444.329C180.534 469.049 205.373 482.043 225.148 473.352C244.924 464.661 252.149 437.576 241.285 412.857C230.422 388.137 205.583 375.143 185.807 383.834C166.032 392.525 158.807 419.61 169.671 444.329Z" stroke="#B5E925" stroke-width="5"/>
<path d="M169.671 444.329C180.534 469.049 205.373 482.043 225.148 473.352C244.924 464.661 252.149 437.576 241.285 412.857C230.422 388.137 205.583 375.143 185.807 383.834C166.032 392.525 158.807 419.61 169.671 444.329Z" stroke="black" stroke-opacity="0.2" stroke-width="5"/>
<path d="M322.958 500.244C324.564 501.153 326.407 499.566 325.766 497.836L313.503 464.749C313.18 463.877 312.297 463.346 311.373 463.447C303.817 464.266 298.176 463.817 290.667 462.19C289.08 461.846 287.732 463.404 288.386 464.891C295.737 481.61 305.142 490.159 322.958 500.244Z" fill="#BCEB3B" stroke="#547D18" stroke-width="5"/>
<path d="M348.555 335.734C357.101 330.596 366.046 329.84 374.089 335.734C382.031 341.554 382.449 349.874 381.906 359.705C381.195 372.564 376.301 382.232 364.709 387.845C355.368 392.368 347.523 392.264 338.133 387.845C332.001 384.959 327.841 382.581 325.105 376.38C322.476 370.423 322.476 365.663 325.105 359.705C327.841 353.505 333.418 353.109 338.133 348.241C342.556 343.674 343.106 339.01 348.555 335.734Z" fill="#B6E831"/>
<path d="M348.555 335.734C357.101 330.596 366.046 329.84 374.089 335.734C382.031 341.554 382.449 349.874 381.906 359.705C381.195 372.564 376.301 382.232 364.709 387.845C355.368 392.368 347.523 392.264 338.133 387.845C332.001 384.959 327.841 382.581 325.105 376.38C322.476 370.423 322.476 365.663 325.105 359.705C327.841 353.505 333.418 353.109 338.133 348.241C342.556 343.674 343.106 339.01 348.555 335.734Z" stroke="#B6E831" stroke-width="5"/>
<path d="M348.555 335.734C357.101 330.596 366.046 329.84 374.089 335.734C382.031 341.554 382.449 349.874 381.906 359.705C381.195 372.564 376.301 382.232 364.709 387.845C355.368 392.368 347.523 392.264 338.133 387.845C332.001 384.959 327.841 382.581 325.105 376.38C322.476 370.423 322.476 365.663 325.105 359.705C327.841 353.505 333.418 353.109 338.133 348.241C342.556 343.674 343.106 339.01 348.555 335.734Z" stroke="black" stroke-opacity="0.2" stroke-width="5"/>
<path d="M323.843 367.135C326.65 366.5 329.44 368.261 330.075 371.068C330.71 373.875 328.95 376.666 326.142 377.301C323.335 377.935 318.664 376.6 318.029 373.793C317.395 370.986 321.036 367.77 323.843 367.135Z" fill="#0A0A40"/>
<path d="M323.843 367.135C326.65 366.5 329.44 368.261 330.075 371.068C330.71 373.875 328.95 376.666 326.142 377.301C323.335 377.935 318.664 376.6 318.029 373.793C317.395 370.986 321.036 367.77 323.843 367.135Z" fill="#0A0A40"/>
<path d="M323.843 367.135C326.65 366.5 329.44 368.261 330.075 371.068C330.71 373.875 328.95 376.666 326.142 377.301C323.335 377.935 318.664 376.6 318.029 373.793C317.395 370.986 321.036 367.77 323.843 367.135Z" fill="#0A0A40"/>
<path d="M331.558 378.803C334.114 377.48 337.258 378.479 338.582 381.035C339.905 383.591 338.905 386.736 336.35 388.059C333.794 389.382 328.937 389.269 327.614 386.713C326.291 384.157 329.002 380.127 331.558 378.803Z" fill="#0A0A40"/>
<path d="M331.558 378.803C334.114 377.48 337.258 378.479 338.582 381.035C339.905 383.591 338.905 386.736 336.35 388.059C333.794 389.382 328.937 389.269 327.614 386.713C326.291 384.157 329.002 380.127 331.558 378.803Z" fill="#0A0A40"/>
<path d="M331.558 378.803C334.114 377.48 337.258 378.479 338.582 381.035C339.905 383.591 338.905 386.736 336.35 388.059C333.794 389.382 328.937 389.269 327.614 386.713C326.291 384.157 329.002 380.127 331.558 378.803Z" fill="#0A0A40"/>
<path d="M342.646 386.567C345.051 384.985 348.282 385.652 349.864 388.057C351.446 390.461 350.779 393.692 348.374 395.274C345.97 396.856 341.128 397.249 339.546 394.844C337.964 392.44 340.242 388.149 342.646 386.567Z" fill="#0A0A40"/>
<path d="M342.646 386.567C345.051 384.985 348.282 385.652 349.864 388.057C351.446 390.461 350.779 393.692 348.374 395.274C345.97 396.856 341.128 397.249 339.546 394.844C337.964 392.44 340.242 388.149 342.646 386.567Z" fill="#0A0A40"/>
<path d="M342.646 386.567C345.051 384.985 348.282 385.652 349.864 388.057C351.446 390.461 350.779 393.692 348.374 395.274C345.97 396.856 341.128 397.249 339.546 394.844C337.964 392.44 340.242 388.149 342.646 386.567Z" fill="#0A0A40"/>
<path d="M255.22 335.734C246.674 330.596 237.729 329.84 229.685 335.734C221.743 341.554 221.325 349.874 221.869 359.705C222.58 372.564 227.474 382.232 239.065 387.845C248.407 392.368 256.251 392.264 265.642 387.845C271.774 384.959 275.933 382.581 278.669 376.38C281.298 370.423 281.298 365.663 278.669 359.705C275.933 353.505 270.357 353.109 265.642 348.241C261.218 343.674 260.668 339.01 255.22 335.734Z" fill="#B6E831"/>
<path d="M255.22 335.734C246.674 330.596 237.729 329.84 229.685 335.734C221.743 341.554 221.325 349.874 221.869 359.705C222.58 372.564 227.474 382.232 239.065 387.845C248.407 392.368 256.251 392.264 265.642 387.845C271.774 384.959 275.933 382.581 278.669 376.38C281.298 370.423 281.298 365.663 278.669 359.705C275.933 353.505 270.357 353.109 265.642 348.241C261.218 343.674 260.668 339.01 255.22 335.734Z" stroke="#B6E831" stroke-width="5"/>
<path d="M255.22 335.734C246.674 330.596 237.729 329.84 229.685 335.734C221.743 341.554 221.325 349.874 221.869 359.705C222.58 372.564 227.474 382.232 239.065 387.845C248.407 392.368 256.251 392.264 265.642 387.845C271.774 384.959 275.933 382.581 278.669 376.38C281.298 370.423 281.298 365.663 278.669 359.705C275.933 353.505 270.357 353.109 265.642 348.241C261.218 343.674 260.668 339.01 255.22 335.734Z" stroke="black" stroke-opacity="0.2" stroke-width="5"/>
<path d="M279.931 367.135C277.124 366.5 274.334 368.261 273.699 371.068C273.064 373.875 274.825 376.666 277.632 377.301C280.439 377.935 285.11 376.6 285.745 373.793C286.38 370.986 282.738 367.77 279.931 367.135Z" fill="#0A0A40"/>
<path d="M279.931 367.135C277.124 366.5 274.334 368.261 273.699 371.068C273.064 373.875 274.825 376.666 277.632 377.301C280.439 377.935 285.11 376.6 285.745 373.793C286.38 370.986 282.738 367.77 279.931 367.135Z" fill="#0A0A40"/>
<path d="M279.931 367.135C277.124 366.5 274.334 368.261 273.699 371.068C273.064 373.875 274.825 376.666 277.632 377.301C280.439 377.935 285.11 376.6 285.745 373.793C286.38 370.986 282.738 367.77 279.931 367.135Z" fill="#0A0A40"/>
<path d="M272.216 378.803C269.661 377.48 266.516 378.479 265.193 381.035C263.87 383.591 264.869 386.736 267.425 388.059C269.981 389.382 274.837 389.269 276.16 386.713C277.484 384.157 274.772 380.127 272.216 378.803Z" fill="#0A0A40"/>
<path d="M272.216 378.803C269.661 377.48 266.516 378.479 265.193 381.035C263.87 383.591 264.869 386.736 267.425 388.059C269.981 389.382 274.837 389.269 276.16 386.713C277.484 384.157 274.772 380.127 272.216 378.803Z" fill="#0A0A40"/>
<path d="M272.216 378.803C269.661 377.48 266.516 378.479 265.193 381.035C263.87 383.591 264.869 386.736 267.425 388.059C269.981 389.382 274.837 389.269 276.16 386.713C277.484 384.157 274.772 380.127 272.216 378.803Z" fill="#0A0A40"/>
<path d="M261.128 386.567C258.724 384.985 255.492 385.652 253.911 388.057C252.329 390.461 252.996 393.692 255.4 395.274C257.804 396.856 262.647 397.249 264.228 394.844C265.81 392.44 263.532 388.149 261.128 386.567Z" fill="#0A0A40"/>
<path d="M261.128 386.567C258.724 384.985 255.492 385.652 253.911 388.057C252.329 390.461 252.996 393.692 255.4 395.274C257.804 396.856 262.647 397.249 264.228 394.844C265.81 392.44 263.532 388.149 261.128 386.567Z" fill="#0A0A40"/>
<path d="M261.128 386.567C258.724 384.985 255.492 385.652 253.911 388.057C252.329 390.461 252.996 393.692 255.4 395.274C257.804 396.856 262.647 397.249 264.228 394.844C265.81 392.44 263.532 388.149 261.128 386.567Z" fill="#0A0A40"/>
<path d="M378.823 383.826C377.735 389.116 381.141 394.286 386.431 395.374C391.72 396.461 396.89 393.055 397.978 387.766C399.066 382.476 396.389 373.762 391.099 372.674C385.809 371.587 379.911 378.536 378.823 383.826Z" fill="#0A0A40"/>
<path d="M378.823 383.826C377.735 389.116 381.141 394.286 386.431 395.374C391.72 396.461 396.89 393.055 397.978 387.766C399.066 382.476 396.389 373.762 391.099 372.674C385.809 371.587 379.911 378.536 378.823 383.826Z" fill="#0A0A40"/>
<path d="M378.823 383.826C377.735 389.116 381.141 394.286 386.431 395.374C391.72 396.461 396.89 393.055 397.978 387.766C399.066 382.476 396.389 373.762 391.099 372.674C385.809 371.587 379.911 378.536 378.823 383.826Z" fill="#0A0A40"/>
<path d="M402.868 384.976C401.477 390.194 404.581 395.552 409.799 396.942C415.017 398.332 420.375 395.229 421.765 390.01C423.155 384.792 420.983 375.939 415.765 374.549C410.546 373.158 404.258 379.758 402.868 384.976Z" fill="#0A0A40"/>
<path d="M402.868 384.976C401.477 390.194 404.581 395.552 409.799 396.942C415.017 398.332 420.375 395.229 421.765 390.01C423.155 384.792 420.983 375.939 415.765 374.549C410.546 373.158 404.258 379.758 402.868 384.976Z" fill="#0A0A40"/>
<path d="M402.868 384.976C401.477 390.194 404.581 395.552 409.799 396.942C415.017 398.332 420.375 395.229 421.765 390.01C423.155 384.792 420.983 375.939 415.765 374.549C410.546 373.158 404.258 379.758 402.868 384.976Z" fill="#0A0A40"/>
<path d="M422.84 396.056C419.763 400.494 420.867 406.586 425.306 409.663C429.744 412.739 435.836 411.635 438.913 407.197C441.989 402.758 442.946 393.693 438.508 390.616C434.069 387.54 425.916 391.618 422.84 396.056Z" fill="#0A0A40"/>
<path d="M422.84 396.056C419.763 400.494 420.867 406.586 425.306 409.663C429.744 412.739 435.836 411.635 438.913 407.197C441.989 402.758 442.946 393.693 438.508 390.616C434.069 387.54 425.916 391.618 422.84 396.056Z" fill="#0A0A40"/>
<path d="M422.84 396.056C419.763 400.494 420.867 406.586 425.306 409.663C429.744 412.739 435.836 411.635 438.913 407.197C441.989 402.758 442.946 393.693 438.508 390.616C434.069 387.54 425.916 391.618 422.84 396.056Z" fill="#0A0A40"/>
<path d="M222.936 381.218C224.024 386.508 220.618 391.678 215.328 392.766C210.038 393.854 204.869 390.448 203.781 385.158C202.693 379.868 205.37 371.155 210.66 370.067C215.949 368.979 221.848 375.929 222.936 381.218Z" fill="#0A0A40"/>
<path d="M222.936 381.218C224.024 386.508 220.618 391.678 215.328 392.766C210.038 393.854 204.869 390.448 203.781 385.158C202.693 379.868 205.37 371.155 210.66 370.067C215.949 368.979 221.848 375.929 222.936 381.218Z" fill="#0A0A40"/>
<path d="M222.936 381.218C224.024 386.508 220.618 391.678 215.328 392.766C210.038 393.854 204.869 390.448 203.781 385.158C202.693 379.868 205.37 371.155 210.66 370.067C215.949 368.979 221.848 375.929 222.936 381.218Z" fill="#0A0A40"/>
<path d="M198.891 382.368C200.281 387.587 197.178 392.944 191.96 394.334C186.741 395.724 181.384 392.621 179.994 387.403C178.604 382.184 180.776 373.331 185.994 371.941C191.212 370.551 197.501 377.15 198.891 382.368Z" fill="#0A0A40"/>
<path d="M198.891 382.368C200.281 387.587 197.178 392.944 191.96 394.334C186.741 395.724 181.384 392.621 179.994 387.403C178.604 382.184 180.776 373.331 185.994 371.941C191.212 370.551 197.501 377.15 198.891 382.368Z" fill="#0A0A40"/>
<path d="M198.891 382.368C200.281 387.587 197.178 392.944 191.96 394.334C186.741 395.724 181.384 392.621 179.994 387.403C178.604 382.184 180.776 373.331 185.994 371.941C191.212 370.551 197.501 377.15 198.891 382.368Z" fill="#0A0A40"/>
<path d="M178.919 393.448C181.995 397.887 180.891 403.979 176.453 407.055C172.015 410.131 165.923 409.027 162.846 404.589C159.77 400.15 158.813 391.085 163.251 388.009C167.69 384.932 175.843 389.01 178.919 393.448Z" fill="#0A0A40"/>
<path d="M178.919 393.448C181.995 397.887 180.891 403.979 176.453 407.055C172.015 410.131 165.923 409.027 162.846 404.589C159.77 400.15 158.813 391.085 163.251 388.009C167.69 384.932 175.843 389.01 178.919 393.448Z" fill="#0A0A40"/>
<path d="M178.919 393.448C181.995 397.887 180.891 403.979 176.453 407.055C172.015 410.131 165.923 409.027 162.846 404.589C159.77 400.15 158.813 391.085 163.251 388.009C167.69 384.932 175.843 389.01 178.919 393.448Z" fill="#0A0A40"/>
</svg>
