<svg width="600" height="600" viewBox="0 0 600 600" fill="none" xmlns="http://www.w3.org/2000/svg">
<path d="M251.184 82.4742C242.365 132.775 249.446 156.53 280.865 191.951" stroke="#7E5444" stroke-width="10" stroke-linecap="round"/>
<path d="M250.84 135.643C277.399 124.969 285.445 115.887 289.104 94.8487" stroke="#7E5444" stroke-width="10" stroke-linecap="round"/>
<path d="M224.03 111.859C222.968 134.349 229.48 142.684 252.202 150.872" stroke="#7E5444" stroke-width="10" stroke-linecap="round"/>
<path d="M347.327 82.4747C356.146 132.775 349.065 156.53 317.646 191.952" stroke="#7E5444" stroke-width="10" stroke-linecap="round"/>
<path d="M347.671 135.643C321.112 124.969 313.065 115.887 309.407 94.8492" stroke="#7E5444" stroke-width="10" stroke-linecap="round"/>
<path d="M374.481 111.859C375.543 134.349 369.03 142.684 346.309 150.872" stroke="#7E5444" stroke-width="10" stroke-linecap="round"/>
<path d="M230.076 399.244C239.49 400.422 249.44 413.914 249.44 413.914L254.135 493.717C254.135 493.717 225.63 503.592 208.952 493.717C205.232 491.514 200.503 471.532 199.563 467.312C196.86 455.173 195.245 438.435 199.563 422.313C202.624 410.886 205.678 407.554 213.877 402.949C219.536 399.771 223.637 398.439 230.076 399.244Z" fill="#A2704B"/>
<path d="M230.076 399.244C239.49 400.422 249.44 413.914 249.44 413.914L254.135 493.717C254.135 493.717 225.63 503.592 208.952 493.717C205.232 491.514 200.503 471.532 199.563 467.312C196.86 455.173 195.245 438.435 199.563 422.313C202.624 410.886 205.678 407.554 213.877 402.949C219.536 399.771 223.637 398.439 230.076 399.244Z" stroke="#A2704B" stroke-width="5"/>
<path d="M230.076 399.244C239.49 400.422 249.44 413.914 249.44 413.914L254.135 493.717C254.135 493.717 225.63 503.592 208.952 493.717C205.232 491.514 200.503 471.532 199.563 467.312C196.86 455.173 195.245 438.435 199.563 422.313C202.624 410.886 205.678 407.554 213.877 402.949C219.536 399.771 223.637 398.439 230.076 399.244Z" stroke="black" stroke-opacity="0.2" stroke-width="5"/>
<path d="M247.818 490.739L207.583 494.557C207.583 494.557 211.732 508.492 218.828 513.138C222.47 515.523 229.277 517.024 229.277 517.024L233.982 504.375L239.636 512.738C247.665 505.55 250.161 500.937 247.818 490.739Z" fill="#5E333A"/>
<path d="M247.818 490.739L207.583 494.557C207.583 494.557 211.732 508.492 218.828 513.138C222.47 515.523 229.277 517.024 229.277 517.024L233.982 504.375L239.636 512.738C247.665 505.55 250.161 500.937 247.818 490.739Z" stroke="#5E333A" stroke-width="5"/>
<path d="M247.818 490.739L207.583 494.557C207.583 494.557 211.732 508.492 218.828 513.138C222.47 515.523 229.277 517.024 229.277 517.024L233.982 504.375L239.636 512.738C247.665 505.55 250.161 500.937 247.818 490.739Z" stroke="black" stroke-opacity="0.2" stroke-width="5"/>
<path d="M369.963 405.525C360.55 406.703 350.599 420.195 350.599 420.195L345.905 499.998C345.905 499.998 374.409 509.873 391.088 499.998C394.808 497.795 399.537 477.813 400.476 473.593C403.179 461.454 404.795 444.716 400.476 428.594C397.416 417.167 394.362 413.835 386.162 409.23C380.504 406.052 376.403 404.72 369.963 405.525Z" fill="#A2704B"/>
<path d="M369.963 405.525C360.55 406.703 350.599 420.195 350.599 420.195L345.905 499.998C345.905 499.998 374.409 509.873 391.088 499.998C394.808 497.795 399.537 477.813 400.476 473.593C403.179 461.454 404.795 444.716 400.476 428.594C397.416 417.167 394.362 413.835 386.162 409.23C380.504 406.052 376.403 404.72 369.963 405.525Z" stroke="#A2704B" stroke-width="5"/>
<path d="M369.963 405.525C360.55 406.703 350.599 420.195 350.599 420.195L345.905 499.998C345.905 499.998 374.409 509.873 391.088 499.998C394.808 497.795 399.537 477.813 400.476 473.593C403.179 461.454 404.795 444.716 400.476 428.594C397.416 417.167 394.362 413.835 386.162 409.23C380.504 406.052 376.403 404.72 369.963 405.525Z" stroke="black" stroke-opacity="0.2" stroke-width="5"/>
<path d="M352.222 497.02L392.457 500.838C392.457 500.838 388.308 514.773 381.212 519.42C377.57 521.805 370.762 523.306 370.762 523.306L366.058 510.656L360.404 519.02C352.375 511.831 349.879 507.218 352.222 497.02Z" fill="#5E333A"/>
<path d="M352.222 497.02L392.457 500.838C392.457 500.838 388.308 514.773 381.212 519.42C377.57 521.805 370.762 523.306 370.762 523.306L366.058 510.656L360.404 519.02C352.375 511.831 349.879 507.218 352.222 497.02Z" stroke="#5E333A" stroke-width="5"/>
<path d="M352.222 497.02L392.457 500.838C392.457 500.838 388.308 514.773 381.212 519.42C377.57 521.805 370.762 523.306 370.762 523.306L366.058 510.656L360.404 519.02C352.375 511.831 349.879 507.218 352.222 497.02Z" stroke="black" stroke-opacity="0.2" stroke-width="5"/>
<path d="M236.323 360.401C234.662 365.035 206.571 444.452 229.28 478.516C253.925 515.484 350.748 520.178 370.697 478.516C390.647 436.854 363.658 363.937 361.895 360.401C361.895 360.401 237.722 356.497 236.323 360.401Z" fill="#A2704B"/>
<path d="M236.323 360.401C234.662 365.035 206.571 444.452 229.28 478.516C253.925 515.484 350.748 520.178 370.697 478.516C390.647 436.854 363.658 363.937 361.895 360.401C361.895 360.401 237.722 356.497 236.323 360.401Z" stroke="#A2704B" stroke-width="5"/>
<path d="M236.323 360.401C234.662 365.035 206.571 444.452 229.28 478.516C253.925 515.484 350.748 520.178 370.697 478.516C390.647 436.854 363.658 363.937 361.895 360.401C361.895 360.401 237.722 356.497 236.323 360.401Z" stroke="black" stroke-opacity="0.2" stroke-width="5"/>
<path d="M346.052 436.854C346.052 476.391 325.035 503.876 299.109 503.876C273.183 503.876 252.166 476.391 252.166 436.854C252.166 397.317 277.515 374.096 299.109 365.266C319.764 374.727 346.052 397.317 346.052 436.854Z" fill="#D1A888"/>
<path d="M212.979 250.432C202.738 220.108 191.144 179.196 207.574 170.395C222.831 162.222 259.818 177.336 284.945 193.567L212.979 250.432Z" fill="#A2704B"/>
<path d="M212.979 250.432C202.738 220.108 191.144 179.196 207.574 170.395C222.831 162.222 259.818 177.336 284.945 193.567L212.979 250.432Z" stroke="#A2704B" stroke-width="5" stroke-linecap="round"/>
<path d="M212.979 250.432C202.738 220.108 191.144 179.196 207.574 170.395C222.831 162.222 259.818 177.336 284.945 193.567L212.979 250.432Z" stroke="black" stroke-opacity="0.2" stroke-width="5" stroke-linecap="round"/>
<path d="M222.632 237.584C215.611 216.794 207.662 188.746 218.926 182.712C229.386 177.109 254.743 187.471 271.97 198.599L222.632 237.584Z" fill="#C38F68"/>
<path d="M222.632 237.584C215.611 216.794 207.662 188.746 218.926 182.712C229.386 177.109 254.743 187.471 271.97 198.599L222.632 237.584Z" fill="#C38F68"/>
<path d="M222.632 237.584C215.611 216.794 207.662 188.746 218.926 182.712C229.386 177.109 254.743 187.471 271.97 198.599L222.632 237.584Z" stroke="#A2704B" stroke-width="5" stroke-linecap="round"/>
<path d="M222.632 237.584C215.611 216.794 207.662 188.746 218.926 182.712C229.386 177.109 254.743 187.471 271.97 198.599L222.632 237.584Z" stroke="black" stroke-opacity="0.2" stroke-width="5" stroke-linecap="round"/>
<path d="M389.937 250.49C400.178 220.166 411.772 179.255 395.342 170.453C380.085 162.28 343.098 177.394 317.971 193.626L389.937 250.49Z" fill="#A2704B"/>
<path d="M389.937 250.49C400.178 220.166 411.772 179.255 395.342 170.453C380.085 162.28 343.098 177.394 317.971 193.626L389.937 250.49Z" stroke="#A2704B" stroke-width="5" stroke-linecap="round"/>
<path d="M389.937 250.49C400.178 220.166 411.772 179.255 395.342 170.453C380.085 162.28 343.098 177.394 317.971 193.626L389.937 250.49Z" stroke="black" stroke-opacity="0.2" stroke-width="5" stroke-linecap="round"/>
<path d="M379.987 237.584C387.008 216.795 394.956 188.747 383.692 182.712C373.233 177.109 347.875 187.471 330.649 198.599L379.987 237.584Z" fill="#C38F68"/>
<path d="M379.987 237.584C387.008 216.795 394.956 188.747 383.692 182.712C373.233 177.109 347.875 187.471 330.649 198.599L379.987 237.584Z" fill="#C38F68"/>
<path d="M379.987 237.584C387.008 216.795 394.956 188.747 383.692 182.712C373.233 177.109 347.875 187.471 330.649 198.599L379.987 237.584Z" stroke="#A2704B" stroke-width="5" stroke-linecap="round"/>
<path d="M379.987 237.584C387.008 216.795 394.956 188.747 383.692 182.712C373.233 177.109 347.875 187.471 330.649 198.599L379.987 237.584Z" stroke="black" stroke-opacity="0.2" stroke-width="5" stroke-linecap="round"/>
<path d="M299.588 190.872C243.841 190.872 214.24 231.649 198.181 278.74C192.519 292.417 175.297 321.257 204.048 350.596C229.204 371.91 266.223 373.367 299.588 373.367C332.954 373.367 447.567 377.589 399.039 278.74C382.98 231.649 355.335 190.872 299.588 190.872Z" fill="#A2704B"/>
<path d="M299.588 190.872C243.841 190.872 214.24 231.649 198.181 278.74C192.519 292.417 175.297 321.257 204.048 350.596C229.204 371.91 266.223 373.367 299.588 373.367C332.954 373.367 447.567 377.589 399.039 278.74C382.98 231.649 355.335 190.872 299.588 190.872Z" stroke="#A2704B" stroke-width="5"/>
<path d="M299.588 190.872C243.841 190.872 214.24 231.649 198.181 278.74C192.519 292.417 175.297 321.257 204.048 350.596C229.204 371.91 266.223 373.367 299.588 373.367C332.954 373.367 447.567 377.589 399.039 278.74C382.98 231.649 355.335 190.872 299.588 190.872Z" stroke="black" stroke-opacity="0.2" stroke-width="5"/>
<path d="M236.763 249.21C226.951 248.295 211.531 249.21 211.531 249.21C211.531 249.21 195.853 275.603 190.993 294.392C188.314 304.751 185.965 311.379 187.472 321.971C189.739 337.901 198.509 345.967 211.531 355.418C220.249 361.746 226.636 362.892 236.763 366.567C281.608 382.846 312.91 384.845 358.814 371.848C371.795 368.173 380.424 367.789 391.088 359.526C404.57 349.079 409.812 338.931 411.625 321.971C413.451 304.894 408.36 295.532 401.65 279.723C395.524 265.289 384.046 245.102 384.046 245.102C384.046 245.102 360.221 245.167 347.665 249.21C337.227 252.571 330.104 253.696 322.434 261.532C308.396 275.873 316.566 312.583 316.566 312.583H289.573C289.573 312.583 295.805 276.169 281.945 261.532C269.37 248.252 254.973 250.908 236.763 249.21Z" fill="#C38F69" stroke="#825A3C" stroke-width="5"/>
<path d="M263.079 245.295C263.079 249.52 252.697 245.295 248.737 245.295C244.776 245.295 235.589 244.689 235.589 240.464C235.589 236.239 237.581 231.606 248.737 231.606C259.892 231.606 263.079 241.07 263.079 245.295Z" fill="#C19B80" fill-opacity="0.8"/>
<path d="M334.62 245.295C334.62 249.52 345.002 245.295 348.963 245.295C352.924 245.295 362.11 244.689 362.11 240.464C362.11 236.239 360.118 231.606 348.963 231.606C337.807 231.606 334.62 241.07 334.62 245.295Z" fill="#C19B80" fill-opacity="0.8"/>
<ellipse cx="301.896" cy="333.121" rx="33.4469" ry="25.2319" fill="#CDA88B"/>
<path d="M301.338 330.88V342.85M301.338 342.85C301.338 342.85 297.653 346.436 294.648 346.723C291.035 347.067 286.199 342.85 286.199 342.85M301.338 342.85C301.338 342.85 305.014 346.538 308.027 346.723C311.403 346.93 315.773 342.85 315.773 342.85" stroke="black" stroke-width="5" stroke-linecap="round"/>
<path d="M301.065 331.937C299.483 331.937 288.806 328.011 287.709 321.927C286.612 315.843 316.309 315.843 314.421 321.927C312.532 328.011 302.647 331.937 301.065 331.937Z" fill="#27051B"/>
<path d="M304.903 321.338C304.903 322.07 303.123 322.663 300.928 322.663C298.733 322.663 296.954 322.07 296.954 321.338C296.954 320.607 298.733 320.014 300.928 320.014C303.123 320.014 304.903 320.607 304.903 321.338Z" fill="white" fill-opacity="0.5"/>
<ellipse cx="243.097" cy="324.497" rx="15.575" ry="6.99638" fill="#C38F6A"/>
<ellipse cx="360.404" cy="324.759" rx="15.575" ry="6.99638" transform="rotate(-2.27638 360.404 324.759)" fill="#C38F6A"/>
<ellipse cx="21.4441" cy="25.3549" rx="21.4441" ry="25.3549" transform="matrix(-0.953838 0.300322 0.215795 0.976439 363.086 256.025)" fill="black" stroke="#504B4F"/>
<ellipse cx="6.10103" cy="5.22893" rx="6.10103" ry="5.22893" transform="matrix(-0.82516 0.564899 0.575712 0.817653 342.721 270.623)" fill="white" stroke="#504B4F"/>
<ellipse cx="21.4441" cy="25.3549" rx="21.4441" ry="25.3549" transform="matrix(-0.953838 0.300322 0.215795 0.976439 265.379 254.842)" fill="black" stroke="#504B4F"/>
<ellipse cx="6.10103" cy="5.22893" rx="6.10103" ry="5.22893" transform="matrix(-0.82516 0.564899 0.575712 0.817653 245.014 269.44)" fill="white" stroke="#504B4F"/>
<path d="M252.166 432.747C252.144 425.291 252.581 419.552 253.926 414.556C253.926 414.556 279.747 437.441 277.4 441.548C275.388 445.069 252.166 432.747 252.166 432.747Z" fill="#A2704B"/>
<path d="M346.052 433.921C346.073 426.465 345.049 421.899 343.705 416.904C343.705 416.904 319.25 439.202 321.597 443.309C323.609 446.83 346.052 433.921 346.052 433.921Z" fill="#A2704B"/>
<path d="M246.532 405.168C246.532 405.168 289.512 438.726 278.218 443.896C270.311 447.515 238.317 428.639 238.317 428.639" stroke="#825A3C" stroke-width="5"/>
<path d="M353.811 405.168C353.811 405.168 310.83 438.726 322.124 443.896C330.031 447.515 362.026 428.639 362.026 428.639" stroke="#825A3C" stroke-width="5"/>
</svg>
