<svg width="600" height="600" viewBox="0 0 600 600" fill="none" xmlns="http://www.w3.org/2000/svg">
<path d="M227.239 91.6518L258.184 142.173C266.936 139.369 271.535 139.409 280.287 142.173L308.074 91.6518C308.074 91.6518 285.771 79.5781 270.183 79.0214C252.713 78.3974 227.239 91.6518 227.239 91.6518Z" fill="black"/>
<path d="M227.239 91.6518L258.184 142.173C266.936 139.369 271.535 139.409 280.287 142.173L308.074 91.6518C308.074 91.6518 285.771 79.5781 270.183 79.0214C252.713 78.3974 227.239 91.6518 227.239 91.6518Z" stroke="black" stroke-width="5"/>
<path d="M227.239 91.6518L258.184 142.173C266.936 139.369 271.535 139.409 280.287 142.173L308.074 91.6518C308.074 91.6518 285.771 79.5781 270.183 79.0214C252.713 78.3974 227.239 91.6518 227.239 91.6518Z" stroke="black" stroke-opacity="0.2" stroke-width="5"/>
<line x1="267.634" y1="103.625" x2="267.63" y2="140.611" stroke="white" stroke-width="5" stroke-linecap="round"/>
<path d="M317.506 412.423C290.226 443.222 373.474 400.997 409.573 402.864C424.368 403.63 432.486 408.347 447.258 407.219C467.072 405.706 515.068 390.537 495.331 390.537C481.367 390.537 467.544 363.562 443.546 353.277C420.702 343.487 402.292 344.451 378.009 363.562C369.716 370.089 396.102 329.411 417.02 320.986C453.019 306.486 396.6 309.97 382.289 309.071C334.747 306.086 331.305 396.844 317.506 412.423Z" fill="#121111"/>
<path d="M317.506 412.423C290.226 443.222 373.474 400.997 409.573 402.864C424.368 403.63 432.486 408.347 447.258 407.219C467.072 405.706 515.068 390.537 495.331 390.537C481.367 390.537 467.544 363.562 443.546 353.277C420.702 343.487 402.292 344.451 378.009 363.562C369.716 370.089 396.102 329.411 417.02 320.986C453.019 306.486 396.6 309.97 382.289 309.071C334.747 306.086 331.305 396.844 317.506 412.423Z" stroke="#121111" stroke-width="5"/>
<path d="M317.506 412.423C290.226 443.222 373.474 400.997 409.573 402.864C424.368 403.63 432.486 408.347 447.258 407.219C467.072 405.706 515.068 390.537 495.331 390.537C481.367 390.537 467.544 363.562 443.546 353.277C420.702 343.487 402.292 344.451 378.009 363.562C369.716 370.089 396.102 329.411 417.02 320.986C453.019 306.486 396.6 309.97 382.289 309.071C334.747 306.086 331.305 396.844 317.506 412.423Z" stroke="black" stroke-opacity="0.2" stroke-width="5"/>
<path d="M354.66 366.835C344.908 369.86 333.82 382.623 333.82 382.623L328.768 468.51C328.768 468.51 359.445 457.034 377.395 446.407C381.399 444.036 384.016 443.178 387.499 440.091C400.943 428.178 402.883 410.079 398.235 392.727C394.941 380.429 389.067 371.919 377.395 366.835C369.255 363.29 363.14 364.205 354.66 366.835Z" fill="white"/>
<path d="M354.66 366.835C344.908 369.86 333.82 382.623 333.82 382.623L328.768 468.51C328.768 468.51 359.445 457.034 377.395 446.407C381.399 444.036 384.016 443.178 387.499 440.091C400.943 428.178 402.883 410.079 398.235 392.727C394.941 380.429 389.067 371.919 377.395 366.835C369.255 363.29 363.14 364.205 354.66 366.835Z" stroke="white" stroke-width="5"/>
<path d="M354.66 366.835C344.908 369.86 333.82 382.623 333.82 382.623L328.768 468.51C328.768 468.51 359.445 457.034 377.395 446.407C381.399 444.036 384.016 443.178 387.499 440.091C400.943 428.178 402.883 410.079 398.235 392.727C394.941 380.429 389.067 371.919 377.395 366.835C369.255 363.29 363.14 364.205 354.66 366.835Z" stroke="black" stroke-opacity="0.2" stroke-width="5"/>
<path d="M183.416 363.639C193.168 366.664 204.256 379.427 204.256 379.427L209.309 465.314C209.309 465.314 178.631 453.838 160.681 443.211C156.677 440.84 154.06 439.982 150.577 436.896C137.133 424.983 135.194 406.883 139.841 389.531C143.135 377.233 149.009 368.723 160.681 363.639C168.821 360.094 174.936 361.009 183.416 363.639Z" fill="white"/>
<path d="M183.416 363.639C193.168 366.664 204.256 379.427 204.256 379.427L209.309 465.314C209.309 465.314 178.631 453.838 160.681 443.211C156.677 440.84 154.06 439.982 150.577 436.896C137.133 424.983 135.194 406.883 139.841 389.531C143.135 377.233 149.009 368.723 160.681 363.639C168.821 360.094 174.936 361.009 183.416 363.639Z" stroke="white" stroke-width="5"/>
<path d="M183.416 363.639C193.168 366.664 204.256 379.427 204.256 379.427L209.309 465.314C209.309 465.314 178.631 453.838 160.681 443.211C156.677 440.84 154.06 439.982 150.577 436.896C137.133 424.983 135.194 406.883 139.841 389.531C143.135 377.233 149.009 368.723 160.681 363.639C168.821 360.094 174.936 361.009 183.416 363.639Z" stroke="black" stroke-opacity="0.2" stroke-width="5"/>
<path d="M200.57 325.169C198.782 330.156 168.55 415.627 192.991 452.288C219.515 492.074 323.718 497.126 345.188 452.288C366.659 407.45 337.613 328.974 335.715 325.169C335.715 325.169 202.076 320.967 200.57 325.169Z" fill="white"/>
<path d="M200.57 325.169C198.782 330.156 168.55 415.627 192.991 452.288C219.515 492.074 323.718 497.126 345.188 452.288C366.659 407.45 337.613 328.974 335.715 325.169C335.715 325.169 202.076 320.967 200.57 325.169Z" stroke="white" stroke-width="5"/>
<path d="M200.57 325.169C198.782 330.156 168.55 415.627 192.991 452.288C219.515 492.074 323.718 497.126 345.188 452.288C366.659 407.45 337.613 328.974 335.715 325.169C335.715 325.169 202.076 320.967 200.57 325.169Z" stroke="black" stroke-opacity="0.2" stroke-width="5"/>
<path d="M188.098 390.361H349.136L349.767 405.517H186.835L188.098 390.361Z" fill="#1C1C1C"/>
<path d="M188.098 390.361H349.136L349.767 405.517H186.835L188.098 390.361Z" fill="#1C1C1C"/>
<path d="M192.345 444.671H345.346C347.096 438.512 348.008 435.106 348.504 429.515H187.929C189.029 435.488 189.736 438.816 192.345 444.671Z" fill="#1C1C1C"/>
<path d="M192.345 444.671H345.346C347.096 438.512 348.008 435.106 348.504 429.515H187.929C189.029 435.488 189.736 438.816 192.345 444.671Z" fill="#1C1C1C"/>
<path d="M366.179 406.311L364.291 370.784C373.764 369.521 387.026 375.836 389.561 385.565L366.179 406.311Z" fill="black"/>
<path d="M366.179 406.311L364.291 370.784C373.764 369.521 387.026 375.836 389.561 385.565L366.179 406.311Z" stroke="black" stroke-width="5"/>
<path d="M366.179 406.311L364.291 370.784C373.764 369.521 387.026 375.836 389.561 385.565L366.179 406.311Z" stroke="black" stroke-opacity="0.2" stroke-width="5"/>
<path d="M171.861 403.5L173.748 367.973C164.275 366.71 151.014 373.025 148.479 382.754L171.861 403.5Z" fill="black"/>
<path d="M171.861 403.5L173.748 367.973C164.275 366.71 151.014 373.025 148.479 382.754L171.861 403.5Z" stroke="black" stroke-width="5"/>
<path d="M171.861 403.5L173.748 367.973C164.275 366.71 151.014 373.025 148.479 382.754L171.861 403.5Z" stroke="black" stroke-opacity="0.2" stroke-width="5"/>
<path d="M211.532 465.056H258.997C258.512 469.476 258.512 472.634 257.881 477.055H212.411C212.411 472.634 211.779 469.476 211.532 465.056Z" fill="white"/>
<path d="M211.751 388.642C205.847 430.059 205.942 453.317 211.751 494.738H259.529C264.583 448.041 263.521 425.918 259.529 388.642" stroke="white" stroke-width="5"/>
<path d="M211.751 388.642C205.847 430.059 205.942 453.317 211.751 494.738H259.529C264.583 448.041 263.521 425.918 259.529 388.642" stroke="black" stroke-opacity="0.2" stroke-width="5"/>
<path d="M204.833 477.055H265.459C264.661 484.965 264.661 489.486 263.392 498.527H207.226C206.053 490.58 205.539 485.863 204.833 477.055Z" fill="#868084"/>
<path d="M328.61 465.056H281.246C281.731 469.476 281.583 472.634 282.215 477.055H327.979C327.979 472.634 328.61 469.476 328.61 465.056Z" fill="white"/>
<path d="M281.217 388.642C275.313 430.059 275.408 453.317 281.217 494.738H328.995C334.049 448.041 332.986 425.918 328.995 388.642" stroke="white" stroke-width="5"/>
<path d="M281.217 388.642C275.313 430.059 275.408 453.317 281.217 494.738H328.995C334.049 448.041 332.986 425.918 328.995 388.642" stroke="black" stroke-opacity="0.2" stroke-width="5"/>
<path d="M274.299 477.055H334.925C334.128 484.965 334.128 489.486 332.859 498.527H276.692C275.519 490.58 275.005 485.863 274.299 477.055Z" fill="#868084"/>
<path d="M365.895 206.878C376.916 174.242 389.394 130.212 371.711 120.739C355.292 111.943 315.485 128.21 288.443 145.679L365.895 206.878Z" fill="white"/>
<path d="M365.895 206.878C376.916 174.242 389.394 130.212 371.711 120.739C355.292 111.943 315.485 128.21 288.443 145.679L365.895 206.878Z" stroke="white" stroke-width="5" stroke-linecap="round"/>
<path d="M365.895 206.878C376.916 174.242 389.394 130.212 371.711 120.739C355.292 111.943 315.485 128.21 288.443 145.679L365.895 206.878Z" stroke="black" stroke-opacity="0.2" stroke-width="5" stroke-linecap="round"/>
<path d="M356.45 194.251C364.006 171.877 372.561 141.69 360.438 135.196C349.181 129.166 321.89 140.318 303.35 152.294L356.45 194.251Z" fill="#FFE4BB"/>
<path d="M356.45 194.251C364.006 171.877 372.561 141.69 360.438 135.196C349.181 129.166 321.89 140.318 303.35 152.294L356.45 194.251Z" stroke="white" stroke-width="5" stroke-linecap="round"/>
<path d="M356.45 194.251C364.006 171.877 372.561 141.69 360.438 135.196C349.181 129.166 321.89 140.318 303.35 152.294L356.45 194.251Z" stroke="black" stroke-opacity="0.2" stroke-width="5" stroke-linecap="round"/>
<path d="M175.446 206.816C164.424 174.18 151.947 130.15 169.629 120.677C186.049 111.881 225.855 128.148 252.898 145.617L175.446 206.816Z" fill="white"/>
<path d="M175.446 206.816C164.424 174.18 151.947 130.15 169.629 120.677C186.049 111.881 225.855 128.148 252.898 145.617L175.446 206.816Z" stroke="white" stroke-width="5" stroke-linecap="round"/>
<path d="M175.446 206.816C164.424 174.18 151.947 130.15 169.629 120.677C186.049 111.881 225.855 128.148 252.898 145.617L175.446 206.816Z" stroke="black" stroke-opacity="0.2" stroke-width="5" stroke-linecap="round"/>
<path d="M185.835 194.251C178.279 171.877 169.724 141.69 181.847 135.196C193.104 129.166 220.394 140.317 238.934 152.294L185.835 194.251Z" fill="#FFE4BB"/>
<path d="M185.835 194.251C178.279 171.877 169.724 141.69 181.847 135.196C193.104 129.166 220.394 140.317 238.934 152.294L185.835 194.251Z" stroke="white" stroke-width="5" stroke-linecap="round"/>
<path d="M185.835 194.251C178.279 171.877 169.724 141.69 181.847 135.196C193.104 129.166 220.394 140.317 238.934 152.294L185.835 194.251Z" stroke="black" stroke-opacity="0.2" stroke-width="5" stroke-linecap="round"/>
<path d="M268.659 142.716C208.662 142.716 176.805 186.602 159.522 237.283C153.428 252.002 134.892 283.041 165.836 314.617C192.909 337.555 232.75 339.123 268.659 339.123C304.568 339.123 427.918 343.667 375.691 237.283C358.408 186.602 328.656 142.716 268.659 142.716Z" fill="white"/>
<path d="M268.659 142.716C208.662 142.716 176.805 186.602 159.522 237.283C153.428 252.002 134.892 283.041 165.836 314.617C192.909 337.555 232.75 339.123 268.659 339.123C304.568 339.123 427.918 343.667 375.691 237.283C358.408 186.602 328.656 142.716 268.659 142.716Z" stroke="white" stroke-width="5"/>
<path d="M268.659 142.716C208.662 142.716 176.805 186.602 159.522 237.283C153.428 252.002 134.892 283.041 165.836 314.617C192.909 337.555 232.75 339.123 268.659 339.123C304.568 339.123 427.918 343.667 375.691 237.283C358.408 186.602 328.656 142.716 268.659 142.716Z" stroke="black" stroke-opacity="0.2" stroke-width="5"/>
<path d="M229.984 209.492C229.984 214.039 218.81 209.492 214.548 209.492C210.285 209.492 200.398 208.839 200.398 204.292C200.398 199.745 202.542 194.759 214.548 194.759C226.554 194.759 229.984 204.945 229.984 209.492Z" fill="#342F2B" fill-opacity="0.8"/>
<path d="M306.979 209.492C306.979 214.039 318.152 209.492 322.415 209.492C326.677 209.492 336.564 208.839 336.564 204.292C336.564 199.745 334.421 194.759 322.415 194.759C310.409 194.759 306.979 204.945 306.979 209.492Z" fill="#342F2B" fill-opacity="0.8"/>
<path d="M211.878 256.023C203.213 256.023 152.664 256.985 152.664 282.281C152.664 324.227 211.878 339.383 270.182 339.383C328.486 339.383 387.264 324.858 387.264 282.281C387.264 256.985 336.715 256.023 328.049 256.023C319.384 256.023 318.373 271.634 310.718 268.246C296.013 261.739 290.831 257.381 272.056 257.381C253.28 257.381 243.868 261.759 229.209 268.246C221.554 271.634 220.544 256.023 211.878 256.023Z" fill="#CBCBCB"/>
<path d="M247.776 309.07C247.776 309.07 255.418 313.175 261.128 312.84C265.876 312.561 271.698 309.07 271.698 309.07C271.698 309.07 277.508 312.66 282.269 312.84C287.603 313.041 294.508 309.07 294.508 309.07" stroke="black" stroke-width="5" stroke-linecap="round"/>
<ellipse cx="23.0788" cy="27.2878" rx="23.0788" ry="27.2878" transform="matrix(-0.953838 0.300322 0.215795 0.976439 336.998 212.834)" fill="black" stroke="#504B4F"/>
<ellipse cx="6.56613" cy="5.62754" rx="6.56613" ry="5.62754" transform="matrix(-0.82516 0.564899 0.575712 0.817653 315.08 228.544)" fill="white" stroke="#504B4F"/>
<path d="M246.579 290.459C247.199 293.291 240.157 291.864 237.707 292.4C235.257 292.935 229.485 293.772 228.865 290.94C228.246 288.108 228.799 284.733 235.7 283.224C242.601 281.715 245.96 287.628 246.579 290.459Z" fill="#71645C" fill-opacity="0.8"/>
<path d="M246.579 290.459C247.199 293.291 240.157 291.864 237.707 292.4C235.257 292.935 229.485 293.772 228.865 290.94C228.246 288.108 228.799 284.733 235.7 283.224C242.601 281.715 245.96 287.628 246.579 290.459Z" fill="#71645C" fill-opacity="0.8"/>
<path d="M297.31 290.459C296.691 293.291 303.732 291.864 306.182 292.4C308.633 292.935 314.405 293.772 315.024 290.94C315.643 288.108 315.09 284.733 308.189 283.224C301.288 281.715 297.929 287.628 297.31 290.459Z" fill="#71645C" fill-opacity="0.8"/>
<path d="M297.31 290.459C296.691 293.291 303.732 291.864 306.182 292.4C308.633 292.935 314.405 293.772 315.024 290.94C315.643 288.108 315.09 284.733 308.189 283.224C301.288 281.715 297.929 287.628 297.31 290.459Z" fill="#71645C" fill-opacity="0.8"/>
<ellipse cx="23.0788" cy="27.2878" rx="23.0788" ry="27.2878" transform="matrix(-0.953838 0.300322 0.215795 0.976439 231.841 211.564)" fill="black" stroke="#504B4F"/>
<ellipse cx="6.56613" cy="5.62754" rx="6.56613" ry="5.62754" transform="matrix(-0.82516 0.564899 0.575712 0.817653 209.923 227.274)" fill="white" stroke="#504B4F"/>
<path d="M420.833 477.65C410.308 501.598 386.246 514.186 367.087 505.767C347.929 497.347 340.93 471.108 351.455 447.16C361.979 423.212 386.042 410.624 405.2 419.044C424.358 427.463 431.357 453.702 420.833 477.65Z" fill="#868084"/>
<path d="M420.833 477.65C410.308 501.598 386.246 514.186 367.087 505.767C347.929 497.347 340.93 471.108 351.455 447.16C361.979 423.212 386.042 410.624 405.2 419.044C424.358 427.463 431.357 453.702 420.833 477.65Z" stroke="#868084" stroke-width="5"/>
<path d="M420.833 477.65C410.308 501.598 386.246 514.186 367.087 505.767C347.929 497.347 340.93 471.108 351.455 447.16C361.979 423.212 386.042 410.624 405.2 419.044C424.358 427.463 431.357 453.702 420.833 477.65Z" stroke="black" stroke-opacity="0.2" stroke-width="5"/>
<path d="M407.775 475.768C400.759 491.733 384.717 500.125 371.945 494.512C359.173 488.899 354.507 471.407 361.523 455.441C368.539 439.476 384.581 431.084 397.353 436.697C410.125 442.31 414.791 459.803 407.775 475.768Z" fill="white"/>
<path d="M119.056 477.65C129.581 501.598 153.643 514.186 172.802 505.767C191.96 497.347 198.959 471.108 188.435 447.16C177.91 423.212 153.848 410.624 134.689 419.044C115.531 427.463 108.532 453.702 119.056 477.65Z" fill="#868084"/>
<path d="M119.056 477.65C129.581 501.598 153.643 514.186 172.802 505.767C191.96 497.347 198.959 471.108 188.435 447.16C177.91 423.212 153.848 410.624 134.689 419.044C115.531 427.463 108.532 453.702 119.056 477.65Z" stroke="#868084" stroke-width="5"/>
<path d="M119.056 477.65C129.581 501.598 153.643 514.186 172.802 505.767C191.96 497.347 198.959 471.108 188.435 447.16C177.91 423.212 153.848 410.624 134.689 419.044C115.531 427.463 108.532 453.702 119.056 477.65Z" stroke="black" stroke-opacity="0.2" stroke-width="5"/>
<path d="M132.114 475.768C139.13 491.733 155.172 500.125 167.944 494.512C180.717 488.899 185.383 471.407 178.366 455.441C171.35 439.476 155.308 431.084 142.536 436.697C129.764 442.31 125.098 459.803 132.114 475.768Z" fill="white"/>
<path d="M195.663 351.207H340.913L344.702 366.363H191.874L195.663 351.207Z" fill="#1C1C1C"/>
<path d="M195.663 351.207H340.913L344.702 366.363H191.874L195.663 351.207Z" fill="#1C1C1C"/>
</svg>
