<svg width="600" height="600" viewBox="0 0 600 600" fill="none" xmlns="http://www.w3.org/2000/svg">
<g clip-path="url(#clip0_74_2)">
<path d="M501.552 40.6822C501.552 134.947 383.007 211.364 236.776 211.364C90.5442 211.364 -28 134.947 -28 40.6822C-28 -53.5828 90.5442 -130 236.776 -130C383.007 -130 501.552 -53.5828 501.552 40.6822Z" fill="#F3F1F1" stroke="black" stroke-width="5"/>
<ellipse cx="405.17" cy="246.17" rx="192.564" ry="127.421" transform="rotate(133.842 405.17 246.17)" fill="#F3F1F1" stroke="black" stroke-width="5"/>
<ellipse cx="854.109" cy="-246.482" rx="251.385" ry="175.48" transform="rotate(135.424 854.109 -246.482)" fill="#F3F1F1" stroke="black" stroke-width="5"/>
<path d="M873.784 -64.8322C951.741 72.1804 916.798 286.489 785.495 335.132C654.192 383.776 447.618 244.459 398.295 111.32C348.972 -21.8181 415.429 -169.181 546.732 -217.824C678.034 -266.468 805.83 -184.264 873.784 -64.8322Z" fill="#F5ED30" stroke="black" stroke-width="5"/>
<path d="M457.785 195.173C439.185 179.856 414.02 142.656 400.891 113.115C602.14 68.4771 700.529 23.0461 840.725 -107.897C856.042 -80.5438 883.395 -46.6263 888.866 -22.5557C806.807 84.6675 603.723 181.492 457.785 195.173Z" fill="#010101"/>
<path d="M658.009 328.655C631.751 322.091 578.139 306.773 554.068 278.326C734.561 238.293 785.014 203.199 910.75 85.7618C910.75 116.397 910.75 173.291 898.715 190.797C825.119 286.961 788.896 316.385 658.009 328.655Z" fill="#010101"/>
</g>
<defs>
<clipPath id="clip0_74_2">
<rect width="600" height="600" fill="white"/>
</clipPath>
</defs>
</svg>
