<svg width="600" height="600" viewBox="0 0 600 600" fill="none" xmlns="http://www.w3.org/2000/svg">
<g clip-path="url(#clip0_74_232)">
<path d="M582.278 1060.75C668.864 1094.09 812.17 1120.72 812.17 1120.72C812.17 1120.72 920.251 635.12 778.853 384.398C762.185 354.844 752.53 338.269 732.208 311.099C698.038 265.414 686.435 223.977 640.168 190.599C600.997 162.34 566.98 147.581 520.64 133.959C451.359 113.592 378.624 101.423 315.737 120.632C270.646 134.404 228.739 159.042 193.711 190.599C151.435 228.685 130.382 256.684 113.744 311.099C93.5792 377.045 97.3554 440.689 113.743 507.673C126.475 559.711 156.839 596.525 193.711 635.39C226.2 669.636 268.942 686.373 315.737 692.586C351.678 697.359 407.36 677.594 407.36 677.594C407.36 677.594 333.982 764.811 335.727 830.855C337.38 893.386 364.527 928.534 407.36 974.121C450.193 1019.71 511.142 1033.35 582.278 1060.75Z" fill="#D9844B"/>
<path d="M407.36 677.593C407.36 677.593 333.982 764.811 335.727 830.855C337.38 893.386 364.527 928.534 407.36 974.121C450.193 1019.71 511.142 1033.35 582.278 1060.75C668.864 1094.09 812.17 1120.72 812.17 1120.72C812.17 1120.72 920.251 635.12 778.853 384.398C762.185 354.844 752.53 338.269 732.208 311.099C698.038 265.414 686.435 223.977 640.168 190.599C600.997 162.34 566.98 147.581 520.64 133.959C451.359 113.592 378.624 101.423 315.737 120.632C270.646 134.404 228.739 159.042 193.711 190.599C151.435 228.685 130.382 256.684 113.744 311.099C93.5792 377.045 97.3554 440.689 113.743 507.673C126.475 559.711 156.839 596.525 193.711 635.39C226.2 669.636 268.942 686.373 315.737 692.586C351.678 697.359 407.36 677.593 407.36 677.593ZM407.36 677.593C407.36 677.593 499.238 612.632 520.64 549.32C538.35 496.934 547.018 456.322 520.64 407.72C495.164 360.778 460.731 333.15 407.36 331.089C350.717 328.902 296.971 352.519 284.085 407.72C274.777 447.593 285.174 480.426 315.737 507.673" stroke="#D9844B" stroke-width="5"/>
<path d="M407.36 677.593C407.36 677.593 333.982 764.811 335.727 830.855C337.38 893.386 364.527 928.534 407.36 974.121C450.193 1019.71 511.142 1033.35 582.278 1060.75C668.864 1094.09 812.17 1120.72 812.17 1120.72C812.17 1120.72 920.251 635.12 778.853 384.398C762.185 354.844 752.53 338.269 732.208 311.099C698.038 265.414 686.435 223.977 640.168 190.599C600.997 162.34 566.98 147.581 520.64 133.959C451.359 113.592 378.624 101.423 315.737 120.632C270.646 134.404 228.739 159.042 193.711 190.599C151.435 228.685 130.382 256.684 113.744 311.099C93.5792 377.045 97.3554 440.689 113.743 507.673C126.475 559.711 156.839 596.525 193.711 635.39C226.2 669.636 268.942 686.373 315.737 692.586C351.678 697.359 407.36 677.593 407.36 677.593ZM407.36 677.593C407.36 677.593 499.238 612.632 520.64 549.32C538.35 496.934 547.018 456.322 520.64 407.72C495.164 360.778 460.731 333.15 407.36 331.089C350.717 328.902 296.971 352.519 284.085 407.72C274.777 447.593 285.174 480.426 315.737 507.673" stroke="black" stroke-opacity="0.2" stroke-width="5"/>
<path d="M615.538 410.996C586.463 324.906 553.549 208.76 600.194 183.771C643.507 160.568 748.512 203.477 819.847 249.559L615.538 410.996Z" fill="#D9844B"/>
<path d="M615.538 410.996C586.463 324.906 553.549 208.76 600.194 183.771C643.507 160.568 748.512 203.477 819.847 249.559L615.538 410.996Z" stroke="#D9844B" stroke-width="5" stroke-linecap="round"/>
<path d="M615.538 410.996C586.463 324.906 553.549 208.76 600.194 183.771C643.507 160.568 748.512 203.477 819.847 249.559L615.538 410.996Z" stroke="black" stroke-opacity="0.2" stroke-width="5" stroke-linecap="round"/>
<path d="M861.422 241.907C703.156 241.907 619.12 357.672 573.528 491.363C557.455 530.191 508.559 612.067 590.185 695.362C661.602 755.871 766.697 760.008 861.422 760.008C956.146 760.008 1281.53 771.992 1143.76 491.363C1098.17 357.672 1019.69 241.907 861.422 241.907Z" fill="#D9844B"/>
<path d="M861.422 241.907C703.156 241.907 619.12 357.672 573.528 491.363C557.455 530.191 508.559 612.067 590.185 695.362C661.602 755.871 766.697 760.008 861.422 760.008C956.146 760.008 1281.53 771.992 1143.76 491.363C1098.17 357.672 1019.69 241.907 861.422 241.907Z" stroke="#D9844B" stroke-width="5"/>
<path d="M861.422 241.907C703.156 241.907 619.12 357.672 573.528 491.363C557.455 530.191 508.559 612.067 590.185 695.362C661.602 755.871 766.697 760.008 861.422 760.008C956.146 760.008 1281.53 771.992 1143.76 491.363C1098.17 357.672 1019.69 241.907 861.422 241.907Z" stroke="black" stroke-opacity="0.2" stroke-width="5"/>
</g>
<defs>
<clipPath id="clip0_74_232">
<rect width="600" height="600" fill="white"/>
</clipPath>
</defs>
</svg>
