<svg width="600" height="600" viewBox="0 0 600 600" fill="none" xmlns="http://www.w3.org/2000/svg">
<g clip-path="url(#clip0_80_2085)">
<path d="M23.0298 73.4392C11.4163 105.835 -184.974 661.056 -26.2048 899.21C146.095 1157.66 823 1190.48 962.474 899.21C1101.95 607.942 913.262 98.1576 900.937 73.4392C900.937 73.4392 32.814 46.1464 23.0298 73.4392Z" fill="#FBE2E8" stroke="#F094A7" stroke-width="5"/>
<path d="M790.169 607.938C790.169 884.351 643.234 1076.5 461.98 1076.5C280.725 1076.5 133.79 884.351 133.79 607.938C133.79 331.526 311.012 169.184 461.98 107.449C606.383 173.593 790.169 331.526 790.169 607.938Z" fill="#F7C1CE"/>
<path d="M1273.22 -400.345C1273.22 34.6647 913.229 239.625 469.156 239.625C25.0836 239.625 -334.908 34.6647 -334.908 -400.345C-334.908 -835.355 25.0836 -1188 469.156 -1188C913.229 -1188 1273.22 -835.355 1273.22 -400.345Z" fill="#FBE2E8" stroke="#F094A7" stroke-width="5"/>
<path d="M133.79 579.225C133.642 527.101 136.698 486.975 146.096 452.051C146.096 452.051 326.618 612.044 310.209 640.76C296.143 665.374 133.79 579.225 133.79 579.225Z" fill="#FBE2E8"/>
<path d="M94.4039 386.415C94.4039 386.415 394.89 621.026 315.932 657.171C260.654 682.475 36.9707 550.509 36.9707 550.509" stroke="#F094A7" stroke-width="5"/>
<path d="M-317.773 1024.33C-249.406 1179.9 -93.0944 1261.67 31.3582 1206.98C155.811 1152.28 201.277 981.833 132.91 826.267C64.5426 670.702 -91.7686 588.929 -216.221 643.623C-340.674 698.316 -386.14 868.765 -317.773 1024.33Z" fill="#FBE2E8" stroke="#F094A7" stroke-width="5"/>
<ellipse cx="481.463" cy="-103.585" rx="225.63" ry="164.095" fill="#F688AB"/>
<ellipse cx="481.463" cy="-103.585" rx="225.63" ry="164.095" stroke="#F688AB" stroke-width="5"/>
<ellipse cx="481.463" cy="-103.585" rx="225.63" ry="164.095" stroke="black" stroke-opacity="0.2" stroke-width="5"/>
<path d="M370.703 85.126C370.703 85.126 404.514 114.61 429.777 112.202C450.786 110.199 476.544 85.126 476.544 85.126C476.544 85.126 502.247 110.912 523.311 112.202C546.911 113.646 577.463 85.126 577.463 85.126" stroke="#302F2F" stroke-width="5" stroke-linecap="round"/>
</g>
<defs>
<clipPath id="clip0_80_2085">
<rect width="600" height="600" fill="white"/>
</clipPath>
</defs>
</svg>
