<svg width="600" height="600" viewBox="0 0 600 600" fill="none" xmlns="http://www.w3.org/2000/svg">
<g clip-path="url(#clip0_74_127)">
<path d="M282.802 338.747C271.043 351.085 283.636 401.569 283.636 401.569C305.379 396.301 331.239 384.28 350.265 379.671C350.265 379.671 302.034 318.568 282.802 338.747Z" fill="#FFF079"/>
<path d="M282.802 338.747C271.043 351.085 283.636 401.569 283.636 401.569C305.379 396.301 331.239 384.28 350.265 379.671C350.265 379.671 302.034 318.568 282.802 338.747Z" stroke="#FFF079" stroke-width="5"/>
<path d="M282.802 338.747C271.043 351.085 283.636 401.569 283.636 401.569C305.379 396.301 331.239 384.28 350.265 379.671C350.265 379.671 302.034 318.568 282.802 338.747Z" stroke="black" stroke-opacity="0.2" stroke-width="5"/>
<path d="M382.198 289.196C375.39 304.82 404.548 347.913 404.548 347.913C423.161 335.501 443.323 315.333 459.61 304.471C459.61 304.471 393.334 263.64 382.198 289.196Z" fill="#FFF079"/>
<path d="M382.198 289.196C375.39 304.82 404.548 347.913 404.548 347.913C423.161 335.501 443.323 315.333 459.61 304.471C459.61 304.471 393.334 263.64 382.198 289.196Z" stroke="#FFF079" stroke-width="5"/>
<path d="M382.198 289.196C375.39 304.82 404.548 347.913 404.548 347.913C423.161 335.501 443.323 315.333 459.61 304.471C459.61 304.471 393.334 263.64 382.198 289.196Z" stroke="black" stroke-opacity="0.2" stroke-width="5"/>
<path d="M439.832 219.091C442.605 235.908 490.496 256.245 490.496 256.245C499.379 235.712 505.349 207.827 513.122 189.859C513.122 189.859 435.297 191.586 439.832 219.091Z" fill="#FFF079"/>
<path d="M439.832 219.091C442.605 235.908 490.496 256.245 490.496 256.245C499.379 235.712 505.349 207.827 513.122 189.859C513.122 189.859 435.297 191.586 439.832 219.091Z" stroke="#FFF079" stroke-width="5"/>
<path d="M439.832 219.091C442.605 235.908 490.496 256.245 490.496 256.245C499.379 235.712 505.349 207.827 513.122 189.859C513.122 189.859 435.297 191.586 439.832 219.091Z" stroke="black" stroke-opacity="0.2" stroke-width="5"/>
<path d="M412.129 337.508C288.759 426.793 27.7323 456.759 27.7323 456.759L116.418 570.157C116.418 570.157 301.011 637.309 412.129 603.301C509.792 573.412 580.309 538.466 619.736 444.249C652.784 365.275 642.328 305.334 612.319 225.155C584.565 151.003 488.45 64.6526 488.45 64.6526C488.45 64.6526 520.269 173.805 495.721 236.206C476.944 283.936 454.688 306.708 412.129 337.508Z" fill="#8FB905"/>
<path d="M412.129 337.508C288.759 426.793 27.7323 456.759 27.7323 456.759L116.418 570.157C116.418 570.157 301.011 637.309 412.129 603.301C509.792 573.412 580.309 538.466 619.736 444.249C652.784 365.275 642.328 305.334 612.319 225.155C584.565 151.003 488.45 64.6526 488.45 64.6526C488.45 64.6526 520.269 173.805 495.721 236.206C476.944 283.936 454.688 306.708 412.129 337.508Z" stroke="#8FB905" stroke-width="5"/>
<path d="M412.129 337.508C288.759 426.793 27.7323 456.759 27.7323 456.759L116.418 570.157C116.418 570.157 301.011 637.309 412.129 603.301C509.792 573.412 580.309 538.466 619.736 444.249C652.784 365.275 642.328 305.334 612.319 225.155C584.565 151.003 488.45 64.6526 488.45 64.6526C488.45 64.6526 520.269 173.805 495.721 236.206C476.944 283.936 454.688 306.708 412.129 337.508Z" stroke="black" stroke-opacity="0.2" stroke-width="5"/>
<path d="M-421.315 114.809C-429.232 136.893 -563.108 515.378 -454.877 677.724C-337.424 853.904 124.012 876.276 219.089 677.724C314.166 479.171 185.542 131.659 177.14 114.809C177.14 114.809 -414.645 96.2042 -421.315 114.809Z" fill="#8FB905"/>
<path d="M-421.315 114.809C-429.232 136.893 -563.108 515.378 -454.877 677.724C-337.424 853.904 124.012 876.276 219.089 677.724C314.166 479.171 185.542 131.659 177.14 114.809C177.14 114.809 -414.645 96.2042 -421.315 114.809Z" stroke="#8FB905" stroke-width="5"/>
<path d="M-421.315 114.809C-429.232 136.893 -563.108 515.378 -454.877 677.724C-337.424 853.904 124.012 876.276 219.089 677.724C314.166 479.171 185.542 131.659 177.14 114.809C177.14 114.809 -414.645 96.2042 -421.315 114.809Z" stroke="black" stroke-opacity="0.2" stroke-width="5"/>
<path d="M112.117 463.351C112.117 651.777 14.0479 789.303 -109.51 789.303C-233.068 789.303 -335.326 651.777 -335.326 463.351C-335.326 274.925 -214.517 164.259 -111.605 122.176C-13.1673 167.265 112.117 274.925 112.117 463.351Z" fill="#FFF079"/>
<path d="M112.117 463.351C112.117 651.777 14.0479 789.303 -109.51 789.303C-233.068 789.303 -335.326 651.777 -335.326 463.351C-335.326 274.925 -214.517 164.259 -111.605 122.176C-13.1673 167.265 112.117 274.925 112.117 463.351Z" stroke="#FFF079" stroke-width="5"/>
<path d="M112.117 463.351C112.117 651.777 14.0479 789.303 -109.51 789.303C-233.068 789.303 -335.326 651.777 -335.326 463.351C-335.326 274.925 -214.517 164.259 -111.605 122.176C-13.1673 167.265 112.117 274.925 112.117 463.351Z" stroke="black" stroke-opacity="0.2" stroke-width="5"/>
<path d="M75.0576 330.674C-92.562 375.543 -138.918 375.523 -299.676 330.675" stroke="#A9AD5B" stroke-opacity="0.8" stroke-width="5" stroke-linecap="round"/>
<path d="M97.4307 498.469C-70.189 543.337 -158.493 543.318 -319.251 498.469" stroke="#A9AD5B" stroke-opacity="0.8" stroke-width="5" stroke-linecap="round"/>
<path d="M430.925 -208.164C430.925 88.3755 185.524 228.094 -117.193 228.094C-419.91 228.094 -665.31 88.3755 -665.31 -208.164C-718.453 -851.014 -388.46 -605.268 -128.384 -605.268C131.691 -605.268 470.071 -898.554 430.925 -208.164Z" fill="#8FB905"/>
<path d="M430.925 -208.164C430.925 88.3755 185.524 228.094 -117.193 228.094C-419.91 228.094 -665.31 88.3755 -665.31 -208.164C-718.453 -851.014 -388.46 -605.268 -128.384 -605.268C131.691 -605.268 470.071 -898.554 430.925 -208.164Z" stroke="#8FB905" stroke-width="5"/>
<path d="M430.925 -208.164C430.925 88.3755 185.524 228.094 -117.193 228.094C-419.91 228.094 -665.31 88.3755 -665.31 -208.164C-718.453 -851.014 -388.46 -605.268 -128.384 -605.268C131.691 -605.268 470.071 -898.554 430.925 -208.164Z" stroke="black" stroke-opacity="0.2" stroke-width="5"/>
<path d="M11.6826 681.127C36.458 606.907 57.9475 568.003 99.3347 513.336L116.865 490.964L246.35 513.336C208.886 609.418 204.402 681.127 111.022 709.092C55.5087 703.499 52.5261 681.167 11.6826 681.127Z" fill="#8FB905"/>
<path d="M105.57 482.765C105.57 482.765 20.072 611.215 6.08965 683.924C-2.8882 730.61 57.8788 717.483 98.3749 717.483C171.444 717.483 219.959 630.504 232.608 521.726C246.59 401.476 232.608 309.54 232.608 309.54" stroke="#729404" stroke-width="5" stroke-linecap="round"/>
<path d="M394.937 661.849C484.507 686.297 301.01 852.848 215.177 817.448C131.217 782.82 109.471 541.042 188.117 586.466C210.544 599.42 236.439 631.89 236.439 631.89C236.439 631.89 265.669 580.284 293.46 586.466C323.869 593.232 319.554 661.849 319.554 661.849C319.554 661.849 366.537 654.098 394.937 661.849Z" fill="#8FB905"/>
<path d="M394.937 661.849C484.507 686.297 301.01 852.848 215.177 817.448C131.217 782.82 109.471 541.042 188.117 586.466C210.544 599.42 236.439 631.89 236.439 631.89C236.439 631.89 265.669 580.284 293.46 586.466C323.869 593.232 319.554 661.849 319.554 661.849C319.554 661.849 366.537 654.098 394.937 661.849Z" stroke="#8FB905" stroke-width="5"/>
<path d="M394.937 661.849C484.507 686.297 301.01 852.848 215.177 817.448C131.217 782.82 109.471 541.042 188.117 586.466C210.544 599.42 236.439 631.89 236.439 631.89C236.439 631.89 265.669 580.284 293.46 586.466C323.869 593.232 319.554 661.849 319.554 661.849C319.554 661.849 366.537 654.098 394.937 661.849Z" stroke="black" stroke-opacity="0.2" stroke-width="5"/>
<path d="M-455.282 18.6415C-489.253 18.6415 -530.251 -19.4788 -559.05 38.2808C-587.85 96.0404 -388.342 228.444 -112.377 228.444C163.588 228.444 331.327 102.319 319.056 38.2808C295.381 -20.3154 283.98 18.6415 250.009 18.6415C216.037 18.6415 148.17 12.525 127.349 10.261C53.5683 2.23844 77.1707 -40.0217 -112.377 -40.0217C-301.925 -40.0217 -286.879 2.28793 -357.712 10.261C-382.456 13.0462 -421.311 18.6415 -455.282 18.6415Z" fill="#FFF079"/>
<path d="M-455.282 18.6415C-489.253 18.6415 -530.251 -19.4788 -559.05 38.2808C-587.85 96.0404 -388.342 228.444 -112.377 228.444C163.588 228.444 331.327 102.319 319.056 38.2808C295.381 -20.3154 283.98 18.6415 250.009 18.6415C216.037 18.6415 148.17 12.525 127.349 10.261C53.5683 2.23844 77.1707 -40.0217 -112.377 -40.0217C-301.925 -40.0217 -286.879 2.28793 -357.712 10.261C-382.456 13.0462 -421.311 18.6415 -455.282 18.6415Z" stroke="#FFF079" stroke-width="5"/>
<path d="M-455.282 18.6415C-489.253 18.6415 -530.251 -19.4788 -559.05 38.2808C-587.85 96.0404 -388.342 228.444 -112.377 228.444C163.588 228.444 331.327 102.319 319.056 38.2808C295.381 -20.3154 283.98 18.6415 250.009 18.6415C216.037 18.6415 148.17 12.525 127.349 10.261C53.5683 2.23844 77.1707 -40.0217 -112.377 -40.0217C-301.925 -40.0217 -286.879 2.28793 -357.712 10.261C-382.456 13.0462 -421.311 18.6415 -455.282 18.6415Z" stroke="black" stroke-opacity="0.2" stroke-width="5"/>
<path d="M-24.9146 47.6608C-46.4147 33.8279 -50.084 -40.0217 -50.084 -40.0217C-16.5258 -40.0217 22.6255 -34.4288 50.5907 -17.6496C50.5907 -17.6496 10.2508 70.2857 -24.9146 47.6608Z" fill="white"/>
<path d="M-24.9146 47.6608C-46.4147 33.8279 -50.084 -40.0217 -50.084 -40.0217C-16.5258 -40.0217 22.6255 -34.4288 50.5907 -17.6496C50.5907 -17.6496 10.2508 70.2857 -24.9146 47.6608Z" stroke="white" stroke-width="5"/>
<path d="M-24.9146 47.6608C-46.4147 33.8279 -50.084 -40.0217 -50.084 -40.0217C-16.5258 -40.0217 22.6255 -34.4288 50.5907 -17.6496C50.5907 -17.6496 10.2508 70.2857 -24.9146 47.6608Z" stroke="black" stroke-opacity="0.2" stroke-width="5"/>
<path d="M179.231 74.364C164.897 65.1421 165.248 13.1125 165.248 13.1125C187.62 13.1126 215.584 18.7055 235.16 18.7056C235.16 18.7056 202.675 89.4473 179.231 74.364Z" fill="white"/>
<path d="M179.231 74.364C164.897 65.1421 165.248 13.1125 165.248 13.1125C187.62 13.1126 215.584 18.7055 235.16 18.7056C235.16 18.7056 202.675 89.4473 179.231 74.364Z" stroke="white" stroke-width="5"/>
<path d="M179.231 74.364C164.897 65.1421 165.248 13.1125 165.248 13.1125C187.62 13.1126 215.584 18.7055 235.16 18.7056C235.16 18.7056 202.675 89.4473 179.231 74.364Z" stroke="black" stroke-opacity="0.2" stroke-width="5"/>
</g>
<defs>
<clipPath id="clip0_74_127">
<rect width="600" height="600" fill="white"/>
</clipPath>
</defs>
</svg>
