<svg width="600" height="600" viewBox="0 0 600 600" fill="none" xmlns="http://www.w3.org/2000/svg">
<g clip-path="url(#clip0_74_805)">
<path d="M292.976 528.422H176.365H148.537C148.537 528.422 38.7658 189.123 142.156 27.6422C157.391 3.84749 171.402 -8.63764 192.266 -20.2055C211.839 -31.0576 229.398 -30.1284 249.16 -20.2055C271.393 -9.04216 286.151 9.74781 302.663 36.2025C387.054 171.416 292.976 528.422 292.976 528.422Z" fill="#D6CBC6"/>
<path d="M292.976 528.422H176.365H148.537C148.537 528.422 38.7658 189.123 142.156 27.6422C157.391 3.84749 171.402 -8.63764 192.266 -20.2055C211.839 -31.0576 229.398 -30.1284 249.16 -20.2055C271.393 -9.04216 286.151 9.74781 302.663 36.2025C387.054 171.416 292.976 528.422 292.976 528.422Z" stroke="#D6CBC6" stroke-width="5"/>
<path d="M292.976 528.422H176.365H148.537C148.537 528.422 38.7658 189.123 142.156 27.6422C157.391 3.84749 171.402 -8.63764 192.266 -20.2055C211.839 -31.0576 229.398 -30.1284 249.16 -20.2055C271.393 -9.04216 286.151 9.74781 302.663 36.2025C387.054 171.416 292.976 528.422 292.976 528.422Z" stroke="black" stroke-opacity="0.2" stroke-width="5"/>
<path d="M253.298 519.863H201.309H188.902C188.902 519.863 139.963 264.083 186.057 142.352C192.849 124.414 199.096 115.002 208.398 106.282C217.124 98.1013 224.953 98.8018 233.763 106.282C243.675 114.698 250.255 128.862 257.616 148.805C295.241 250.735 253.298 519.863 253.298 519.863Z" fill="#F0BBDD"/>
<path d="M253.298 519.863H201.309H188.902C188.902 519.863 139.963 264.083 186.057 142.352C192.849 124.414 199.096 115.002 208.398 106.282C217.124 98.1013 224.953 98.8018 233.763 106.282C243.675 114.698 250.255 128.862 257.616 148.805C295.241 250.735 253.298 519.863 253.298 519.863Z" stroke="#D6CBC6" stroke-width="5"/>
<path d="M253.298 519.863H201.309H188.902C188.902 519.863 139.963 264.083 186.057 142.352C192.849 124.414 199.096 115.002 208.398 106.282C217.124 98.1013 224.953 98.8018 233.763 106.282C243.675 114.698 250.255 128.862 257.616 148.805C295.241 250.735 253.298 519.863 253.298 519.863Z" stroke="black" stroke-opacity="0.2" stroke-width="5"/>
<path d="M594.554 571.682L504.899 497.115L483.504 479.321C483.504 479.321 616.072 148.263 798.821 90.2238C825.749 81.6715 844.505 81.0321 867.943 85.4797C889.931 89.6521 902.837 101.595 911.686 121.861C921.64 144.66 920.972 168.543 916.75 199.441C895.171 357.361 594.554 571.682 594.554 571.682Z" fill="#D6CBC6"/>
<path d="M594.554 571.682L504.899 497.115L483.504 479.321C483.504 479.321 616.072 148.263 798.821 90.2238C825.749 81.6715 844.505 81.0321 867.943 85.4797C889.931 89.6521 902.837 101.595 911.686 121.861C921.64 144.66 920.972 168.543 916.75 199.441C895.171 357.361 594.554 571.682 594.554 571.682Z" stroke="#D6CBC6" stroke-width="5"/>
<path d="M594.554 571.682L504.899 497.115L483.504 479.321C483.504 479.321 616.072 148.263 798.821 90.2238C825.749 81.6715 844.505 81.0321 867.943 85.4797C889.931 89.6521 902.837 101.595 911.686 121.861C921.64 144.66 920.972 168.543 916.75 199.441C895.171 357.361 594.554 571.682 594.554 571.682Z" stroke="black" stroke-opacity="0.2" stroke-width="5"/>
<path d="M569.523 539.729L529.552 506.485L520.013 498.552C520.013 498.552 645.945 270.606 759.225 206.489C775.917 197.042 786.738 193.8 799.466 193.043C811.406 192.334 816.977 197.878 818.967 209.263C821.207 222.071 817.208 237.169 810.115 257.209C773.863 359.635 569.523 539.729 569.523 539.729Z" fill="#F0BBDD"/>
<path d="M569.523 539.729L529.552 506.485L520.013 498.552C520.013 498.552 645.945 270.606 759.225 206.489C775.917 197.042 786.738 193.8 799.466 193.043C811.406 192.334 816.977 197.878 818.967 209.263C821.207 222.071 817.208 237.169 810.115 257.209C773.863 359.635 569.523 539.729 569.523 539.729Z" stroke="#D6CBC6" stroke-width="5"/>
<path d="M569.523 539.729L529.552 506.485L520.013 498.552C520.013 498.552 645.945 270.606 759.225 206.489C775.917 197.042 786.738 193.8 799.466 193.043C811.406 192.334 816.977 197.878 818.967 209.263C821.207 222.071 817.208 237.169 810.115 257.209C773.863 359.635 569.523 539.729 569.523 539.729Z" stroke="black" stroke-opacity="0.2" stroke-width="5"/>
<path d="M16.1831 862.43C15.3685 858.08 -40.2946 855.18 -37.3986 834.879C-34.5026 814.578 16.1831 807.328 36.4576 747.875C95.0264 576.128 195.85 427.411 399.166 427.411C602.482 427.411 703.305 576.128 761.874 747.875C782.149 807.328 832.834 814.578 835.73 834.879C838.626 855.18 782.963 858.08 782.149 862.43C781.334 866.78 824.145 889.982 824.145 904.482C824.145 918.983 769.115 937.834 731.463 969.735C639.717 1047.47 520.854 1092.99 399.166 1092.99C277.478 1092.99 158.615 1047.47 66.8686 969.735C29.2166 937.834 -25.8134 918.983 -25.8134 904.482C-25.8134 889.982 16.9978 866.78 16.1831 862.43Z" fill="#D6CBC6"/>
<path fill-rule="evenodd" clip-rule="evenodd" d="M157.763 517.292C217.318 457.103 295.615 418.954 399.771 418.954C503.928 418.954 582.224 457.103 641.78 517.292C701.083 577.226 741.499 658.683 771.005 745.074C780.379 772.52 796.672 787.885 811.499 799.089C814.848 801.62 818.092 803.916 821.243 806.147C821.633 806.423 822.022 806.698 822.409 806.973C825.856 809.416 829.266 811.855 832.263 814.294C837.951 818.923 844.074 825.01 845.3 833.595C846.724 843.559 840.458 850.351 834.447 854.325C828.435 858.301 820.623 860.99 813.604 862.943C809.077 864.203 804.448 865.266 800.385 866.166C800.537 866.278 800.69 866.391 800.844 866.505L801.175 866.75C803.642 868.573 806.349 870.576 809.074 872.669C814.458 876.806 820.255 881.551 824.765 886.371C827.025 888.786 829.171 891.438 830.791 894.248C832.38 897.003 833.793 900.478 833.793 904.378C833.793 908.986 831.624 912.757 829.434 915.48C827.198 918.261 824.246 920.814 821.111 923.158C814.847 927.843 806.298 932.816 797.148 938.018C795.698 938.842 794.228 939.675 792.739 940.519C774.975 950.584 754.644 962.104 737.956 976.221C644.626 1055.18 523.694 1101.45 399.771 1101.45C275.849 1101.45 154.916 1055.18 61.5863 976.221C44.8988 962.104 24.5673 950.584 6.80358 940.519C5.31485 939.675 3.84414 938.842 2.39513 938.018C-6.75485 932.816 -15.3044 927.843 -21.5687 923.158C-24.7032 920.814 -27.6552 918.261 -29.8911 915.48C-32.081 912.757 -34.2502 908.986 -34.2502 904.378C-34.2502 900.478 -32.8371 897.003 -31.2486 894.248C-29.6286 891.438 -27.4827 888.786 -25.2225 886.371C-20.7123 881.551 -14.9155 876.806 -9.53154 872.669C-6.80643 870.576 -4.09964 868.573 -1.63211 866.75L-1.3041 866.507C-1.14912 866.393 -0.995299 866.279 -0.84263 866.166C-4.9053 865.266 -9.53392 864.203 -14.0608 862.943C-21.0803 860.99 -28.8917 858.301 -34.9044 854.325C-40.9148 850.351 -47.1811 843.559 -45.7574 833.595C-44.5309 825.01 -38.4083 818.923 -32.72 814.294C-29.723 811.855 -26.3137 809.416 -22.8664 806.973C-22.4787 806.698 -22.0896 806.422 -21.6991 806.146C-18.5483 803.916 -15.305 801.62 -11.9562 799.089C2.87082 787.885 19.1642 772.52 28.5381 745.074C58.044 658.683 98.4598 577.226 157.763 517.292ZM170.127 529.521C113.453 586.798 74.1077 665.459 44.997 750.693C34.08 782.657 14.8643 800.619 -1.46949 812.961C-5.04939 815.666 -8.51976 818.123 -11.6528 820.34C-12.0436 820.617 -12.4291 820.89 -12.809 821.159C-16.3026 823.634 -19.2568 825.758 -21.7401 827.779C-27.0124 832.07 -28.3176 834.496 -28.5402 836.054C-28.5412 836.061 -28.5429 836.07 -28.5448 836.081C-28.5907 836.331 -28.8073 837.509 -25.3101 839.822C-21.6671 842.231 -16.0439 844.342 -9.39662 846.192C-4.41999 847.577 0.546067 848.668 5.08008 849.664C6.52498 849.982 7.926 850.29 9.26951 850.594C11.8942 851.19 14.5221 851.823 16.5839 852.514C17.5764 852.847 18.8813 853.335 20.106 854.053C20.7244 854.415 21.6237 855.009 22.4937 855.908C23.3572 856.801 24.5833 858.406 25.0237 860.754C25.7294 864.517 23.9336 867.352 23.4213 868.137C22.657 869.308 21.736 870.291 21.011 871.006C19.516 872.48 17.551 874.069 15.5666 875.601C13.6363 877.09 11.4008 878.742 9.09682 880.444L8.70429 880.734C6.23042 882.562 3.64515 884.475 1.06545 886.457C-4.16019 890.472 -9.02393 894.512 -12.5218 898.25C-14.2657 900.114 -15.4609 901.684 -16.1808 902.932C-16.4692 903.432 -16.636 903.802 -16.732 904.053C-16.6387 904.192 -16.5105 904.369 -16.337 904.585C-15.4137 905.733 -13.7687 907.277 -11.1511 909.235C-5.91128 913.153 1.663 917.599 10.992 922.903C12.4754 923.746 13.9972 924.608 15.5519 925.488C33.0923 935.418 54.8194 947.719 72.8205 962.947C163.132 1039.35 280.119 1084.06 399.771 1084.06C519.423 1084.06 636.41 1039.35 726.722 962.947C744.724 947.718 766.451 935.418 783.991 925.487C785.546 924.607 787.067 923.746 788.551 922.903C797.88 917.599 805.454 913.153 810.694 909.235C813.311 907.277 814.956 905.733 815.88 904.585C816.053 904.369 816.181 904.192 816.275 904.053C816.179 903.802 816.012 903.432 815.723 902.932C815.004 901.684 813.808 900.114 812.065 898.25C808.567 894.512 803.703 890.472 798.477 886.457C795.898 884.475 793.312 882.562 790.838 880.734L790.443 880.441C788.14 878.74 785.906 877.09 783.976 875.601C781.992 874.069 780.027 872.48 778.532 871.006C777.807 870.291 776.886 869.308 776.121 868.137C775.609 867.352 773.813 864.517 774.519 860.754C774.959 858.406 776.186 856.801 777.049 855.908C777.919 855.009 778.818 854.415 779.437 854.053C780.662 853.335 781.966 852.847 782.959 852.514C785.021 851.823 787.649 851.19 790.273 850.594C791.617 850.29 793.018 849.982 794.462 849.664C798.997 848.668 803.963 847.577 808.939 846.192C815.587 844.342 821.21 842.231 824.853 839.822C828.35 837.509 828.134 836.331 828.088 836.081C828.086 836.07 828.084 836.061 828.083 836.054C827.86 834.496 826.555 832.07 821.283 827.779C818.8 825.758 815.845 823.634 812.352 821.159C811.973 820.89 811.588 820.617 811.198 820.341C808.064 818.124 804.593 815.667 801.012 812.961C784.678 800.619 765.463 782.657 754.546 750.693C725.435 665.459 686.09 586.798 629.416 529.521C572.994 472.499 499.097 436.342 399.771 436.342C300.446 436.342 226.549 472.499 170.127 529.521Z" fill="#452210"/>
<path fill-rule="evenodd" clip-rule="evenodd" d="M153.514 513.043C214.146 451.755 293.95 412.915 399.773 412.915C505.596 412.915 585.401 451.755 646.032 513.043C706.243 573.905 747.037 656.352 776.691 743.189C785.555 769.147 800.882 783.658 815.214 794.49C818.488 796.964 821.657 799.208 824.816 801.444C825.206 801.721 825.597 801.997 825.987 802.274C829.421 804.708 832.984 807.254 836.153 809.834C841.983 814.58 849.716 821.892 851.278 832.827C853.169 846.062 844.679 854.731 837.877 859.23C831.071 863.731 822.525 866.614 815.378 868.604C814.896 868.738 814.412 868.87 813.927 869.001C819.078 872.998 824.701 877.66 829.226 882.497C831.66 885.099 834.124 888.114 836.045 891.446C837.913 894.688 839.823 899.184 839.823 904.48C839.823 910.957 836.78 915.993 834.182 919.224C831.507 922.551 828.117 925.443 824.809 927.918C818.199 932.862 809.32 938.014 800.225 943.186C798.792 944 797.343 944.822 795.88 945.651C778.022 955.774 758.142 967.043 741.882 980.801C647.497 1060.66 525.185 1107.49 399.773 1107.49C274.361 1107.49 152.049 1060.66 57.6636 980.801C41.4039 967.043 21.5241 955.774 3.66597 945.651C2.20305 944.822 0.7537 944 -0.678978 943.186C-9.77405 938.014 -18.6534 932.862 -25.2627 927.918C-28.5712 925.443 -31.9606 922.551 -34.6355 919.224C-37.2335 915.993 -40.2768 910.957 -40.2768 904.48C-40.2768 899.184 -38.367 894.688 -36.4985 891.446C-34.5774 888.114 -32.1134 885.099 -29.6798 882.497C-25.1545 877.66 -19.5317 872.998 -14.3807 869.001C-14.8653 868.87 -15.3494 868.738 -15.832 868.604C-22.9793 866.614 -31.5246 863.731 -38.3307 859.23C-45.1331 854.731 -53.6224 846.062 -51.7318 832.827C-50.1697 821.892 -42.4373 814.58 -36.6073 809.834C-33.4374 807.254 -29.8745 804.708 -26.4408 802.274C-26.0505 801.997 -25.6603 801.721 -25.2698 801.445C-22.1111 799.208 -18.9417 796.964 -15.6681 794.49C-1.33583 783.658 13.9915 769.147 22.8556 743.189C52.5089 656.352 93.303 573.905 153.514 513.043ZM174.132 533.439C118.304 589.87 79.2957 667.654 50.3016 752.561C38.8642 786.055 18.6638 804.895 1.81893 817.626C-1.8388 820.391 -5.38563 822.901 -8.51391 825.116C-8.90596 825.393 -9.29143 825.666 -9.66973 825.934C-13.1807 828.423 -15.9846 830.442 -18.2979 832.325C-19.9213 833.646 -21.0015 834.671 -21.7163 835.429C-18.7984 837.191 -14.1335 838.973 -8.05424 840.665C-3.24447 842.004 1.50398 843.048 6.00789 844.038C7.48335 844.362 8.93257 844.681 10.3491 845.002C12.9609 845.594 15.8546 846.284 18.2283 847.08C19.3512 847.457 21.101 848.095 22.8417 849.116C23.7221 849.632 25.1022 850.533 26.4667 851.944C27.8205 853.343 29.8122 855.93 30.5296 859.756C31.6725 865.851 28.7577 870.349 28.0828 871.383C26.9878 873.061 25.7311 874.381 24.8868 875.214C23.1233 876.953 20.9183 878.724 18.9107 880.274C16.9296 881.803 14.6471 883.489 12.3597 885.18L11.9479 885.484C9.47062 887.314 6.92452 889.2 4.39197 891.146C-0.783617 895.123 -5.33873 898.93 -8.50086 902.31C-8.87584 902.711 -9.21137 903.085 -9.51063 903.432C-9.0435 903.814 -8.50627 904.235 -7.89079 904.695C-2.98991 908.361 4.26306 912.634 13.6567 917.975C15.1474 918.823 16.6825 919.692 18.2558 920.583C35.7397 930.48 57.9468 943.051 76.3972 958.662C165.75 1034.27 281.483 1078.48 399.773 1078.48C518.063 1078.48 633.796 1034.27 723.149 958.662C741.6 943.051 763.807 930.48 781.291 920.582C782.864 919.692 784.399 918.823 785.889 917.975C795.283 912.634 802.536 908.361 807.437 904.695C808.052 904.235 808.59 903.814 809.057 903.432C808.758 903.085 808.422 902.711 808.047 902.31C804.885 898.93 800.33 895.123 795.154 891.146C792.622 889.2 790.075 887.314 787.598 885.484L787.189 885.181C784.901 883.491 782.617 881.804 780.635 880.274C778.628 878.724 776.423 876.953 774.659 875.214C773.815 874.381 772.558 873.061 771.463 871.383C770.789 870.349 767.874 865.851 769.017 859.756C769.734 855.93 771.726 853.343 773.079 851.944C774.444 850.533 775.824 849.632 776.705 849.116C778.445 848.095 780.195 847.457 781.318 847.08C783.692 846.284 786.585 845.594 789.197 845.002C790.614 844.681 792.063 844.362 793.538 844.038C798.042 843.048 802.791 842.004 807.6 840.665C813.68 838.973 818.345 837.191 821.262 835.429C820.548 834.671 819.467 833.646 817.844 832.325C815.531 830.442 812.727 828.423 809.216 825.934C808.838 825.666 808.453 825.394 808.061 825.116C804.932 822.902 801.385 820.391 797.727 817.626C780.882 804.895 760.682 786.055 749.245 752.561C720.25 667.654 681.242 589.87 625.414 533.439C570.008 477.433 497.539 441.916 399.773 441.916C302.007 441.916 229.538 477.433 174.132 533.439ZM823.237 833.994C823.239 833.994 823.22 834.017 823.171 834.065C823.21 834.017 823.234 833.993 823.237 833.994ZM811.106 906.294C811.106 906.296 811.096 906.275 811.079 906.232C811.098 906.271 811.106 906.292 811.106 906.294ZM-12.1727 900.864C-12.1711 900.864 -12.1523 900.889 -12.1212 900.939C-12.1588 900.889 -12.1744 900.864 -12.1727 900.864ZM-11.5333 906.232C-11.5488 906.273 -11.5586 906.294 -11.5597 906.294C-11.5607 906.294 -11.553 906.274 -11.5333 906.232ZM-23.6903 833.994C-23.6877 833.994 -23.6634 834.017 -23.625 834.065C-23.6737 834.017 -23.6929 833.994 -23.6903 833.994Z" fill="#D6CBC6"/>
<path fill-rule="evenodd" clip-rule="evenodd" d="M153.514 513.043C214.146 451.755 293.95 412.915 399.773 412.915C505.596 412.915 585.401 451.755 646.032 513.043C706.243 573.905 747.037 656.352 776.691 743.189C785.555 769.147 800.882 783.658 815.214 794.49C818.488 796.964 821.657 799.208 824.816 801.444C825.206 801.721 825.597 801.997 825.987 802.274C829.421 804.708 832.984 807.254 836.153 809.834C841.983 814.58 849.716 821.892 851.278 832.827C853.169 846.062 844.679 854.731 837.877 859.23C831.071 863.731 822.525 866.614 815.378 868.604C814.896 868.738 814.412 868.87 813.927 869.001C819.078 872.998 824.701 877.66 829.226 882.497C831.66 885.099 834.124 888.114 836.045 891.446C837.913 894.688 839.823 899.184 839.823 904.48C839.823 910.957 836.78 915.993 834.182 919.224C831.507 922.551 828.117 925.443 824.809 927.918C818.199 932.862 809.32 938.014 800.225 943.186C798.792 944 797.343 944.822 795.88 945.651C778.022 955.774 758.142 967.043 741.882 980.801C647.497 1060.66 525.185 1107.49 399.773 1107.49C274.361 1107.49 152.049 1060.66 57.6636 980.801C41.4039 967.043 21.5241 955.774 3.66597 945.651C2.20305 944.822 0.7537 944 -0.678978 943.186C-9.77405 938.014 -18.6534 932.862 -25.2627 927.918C-28.5712 925.443 -31.9606 922.551 -34.6355 919.224C-37.2335 915.993 -40.2768 910.957 -40.2768 904.48C-40.2768 899.184 -38.367 894.688 -36.4985 891.446C-34.5774 888.114 -32.1134 885.099 -29.6798 882.497C-25.1545 877.66 -19.5317 872.998 -14.3807 869.001C-14.8653 868.87 -15.3494 868.738 -15.832 868.604C-22.9793 866.614 -31.5246 863.731 -38.3307 859.23C-45.1331 854.731 -53.6224 846.062 -51.7318 832.827C-50.1697 821.892 -42.4373 814.58 -36.6073 809.834C-33.4374 807.254 -29.8745 804.708 -26.4408 802.274C-26.0505 801.997 -25.6603 801.721 -25.2698 801.445C-22.1111 799.208 -18.9417 796.964 -15.6681 794.49C-1.33583 783.658 13.9915 769.147 22.8556 743.189C52.5089 656.352 93.303 573.905 153.514 513.043ZM174.132 533.439C118.304 589.87 79.2957 667.654 50.3016 752.561C38.8642 786.055 18.6638 804.895 1.81893 817.626C-1.8388 820.391 -5.38563 822.901 -8.51391 825.116C-8.90596 825.393 -9.29143 825.666 -9.66973 825.934C-13.1807 828.423 -15.9846 830.442 -18.2979 832.325C-19.9213 833.646 -21.0015 834.671 -21.7163 835.429C-18.7984 837.191 -14.1335 838.973 -8.05424 840.665C-3.24447 842.004 1.50398 843.048 6.00789 844.038C7.48335 844.362 8.93257 844.681 10.3491 845.002C12.9609 845.594 15.8546 846.284 18.2283 847.08C19.3512 847.457 21.101 848.095 22.8417 849.116C23.7221 849.632 25.1022 850.533 26.4667 851.944C27.8205 853.343 29.8122 855.93 30.5296 859.756C31.6725 865.851 28.7577 870.349 28.0828 871.383C26.9878 873.061 25.7311 874.381 24.8868 875.214C23.1233 876.953 20.9183 878.724 18.9107 880.274C16.9296 881.803 14.6471 883.489 12.3597 885.18L11.9479 885.484C9.47062 887.314 6.92452 889.2 4.39197 891.146C-0.783617 895.123 -5.33873 898.93 -8.50086 902.31C-8.87584 902.711 -9.21137 903.085 -9.51063 903.432C-9.0435 903.814 -8.50627 904.235 -7.89079 904.695C-2.98991 908.361 4.26306 912.634 13.6567 917.975C15.1474 918.823 16.6825 919.692 18.2558 920.583C35.7397 930.48 57.9468 943.051 76.3972 958.662C165.75 1034.27 281.483 1078.48 399.773 1078.48C518.063 1078.48 633.796 1034.27 723.149 958.662C741.6 943.051 763.807 930.48 781.291 920.582C782.864 919.692 784.399 918.823 785.889 917.975C795.283 912.634 802.536 908.361 807.437 904.695C808.052 904.235 808.59 903.814 809.057 903.432C808.758 903.085 808.422 902.711 808.047 902.31C804.885 898.93 800.33 895.123 795.154 891.146C792.622 889.2 790.075 887.314 787.598 885.484L787.189 885.181C784.901 883.491 782.617 881.804 780.635 880.274C778.628 878.724 776.423 876.953 774.659 875.214C773.815 874.381 772.558 873.061 771.463 871.383C770.789 870.349 767.874 865.851 769.017 859.756C769.734 855.93 771.726 853.343 773.079 851.944C774.444 850.533 775.824 849.632 776.705 849.116C778.445 848.095 780.195 847.457 781.318 847.08C783.692 846.284 786.585 845.594 789.197 845.002C790.614 844.681 792.063 844.362 793.538 844.038C798.042 843.048 802.791 842.004 807.6 840.665C813.68 838.973 818.345 837.191 821.262 835.429C820.548 834.671 819.467 833.646 817.844 832.325C815.531 830.442 812.727 828.423 809.216 825.934C808.838 825.666 808.453 825.394 808.061 825.116C804.932 822.902 801.385 820.391 797.727 817.626C780.882 804.895 760.682 786.055 749.245 752.561C720.25 667.654 681.242 589.87 625.414 533.439C570.008 477.433 497.539 441.916 399.773 441.916C302.007 441.916 229.538 477.433 174.132 533.439ZM823.237 833.994C823.239 833.994 823.22 834.017 823.171 834.065C823.21 834.017 823.234 833.993 823.237 833.994ZM811.106 906.294C811.106 906.296 811.096 906.275 811.079 906.232C811.098 906.271 811.106 906.292 811.106 906.294ZM-12.1727 900.864C-12.1711 900.864 -12.1523 900.889 -12.1212 900.939C-12.1588 900.889 -12.1744 900.864 -12.1727 900.864ZM-11.5333 906.232C-11.5488 906.273 -11.5586 906.294 -11.5597 906.294C-11.5607 906.294 -11.553 906.274 -11.5333 906.232ZM-23.6903 833.994C-23.6877 833.994 -23.6634 834.017 -23.625 834.065C-23.6737 834.017 -23.6929 833.994 -23.6903 833.994Z" fill="black" fill-opacity="0.2"/>
</g>
<defs>
<clipPath id="clip0_74_805">
<rect width="600" height="600" fill="white"/>
</clipPath>
</defs>
</svg>
