<svg width="600" height="600" viewBox="0 0 600 600" fill="none" xmlns="http://www.w3.org/2000/svg">
<g clip-path="url(#clip0_77_987)">
<path d="M-100.944 78.5476C-111.376 107.647 -287.783 606.371 -145.169 820.292C9.59795 1052.44 617.625 1081.92 742.906 820.292C868.187 558.661 698.702 100.751 687.631 78.5476C687.631 78.5476 -92.1556 54.032 -100.944 78.5476Z" fill="#F9F7F7"/>
<path d="M-100.944 78.5476C-111.376 107.647 -287.783 606.371 -145.169 820.292C9.59795 1052.44 617.625 1081.92 742.906 820.292C868.187 558.661 698.702 100.751 687.631 78.5476C687.631 78.5476 -92.1556 54.032 -100.944 78.5476Z" stroke="#F9F7F7" stroke-width="5"/>
<path d="M-100.944 78.5476C-111.376 107.647 -287.783 606.371 -145.169 820.292C9.59795 1052.44 617.625 1081.92 742.906 820.292C868.187 558.661 698.702 100.751 687.631 78.5476C687.631 78.5476 -92.1556 54.032 -100.944 78.5476Z" stroke="black" stroke-opacity="0.2" stroke-width="5"/>
<path d="M588.133 558.664C588.133 806.95 456.149 979.55 293.338 979.55C130.528 979.55 -1.45605 806.95 -1.45605 558.664C-1.45605 310.378 157.733 164.555 293.338 109.102C423.048 168.515 588.133 310.378 588.133 558.664Z" fill="#DEDEDE"/>
<path d="M1022.04 -347.023C1022.04 43.7219 698.675 227.826 299.789 227.826C-99.0962 227.826 -422.457 43.7219 -422.457 -347.023C-422.457 -737.768 -99.0962 -1054.53 299.789 -1054.53C698.675 -1054.53 1022.04 -737.768 1022.04 -347.023Z" fill="#F9F7F7"/>
<path d="M1022.04 -347.023C1022.04 43.7219 698.675 227.826 299.789 227.826C-99.0962 227.826 -422.457 43.7219 -422.457 -347.023C-422.457 -737.768 -99.0962 -1054.53 299.789 -1054.53C698.675 -1054.53 1022.04 -737.768 1022.04 -347.023Z" stroke="#F9F7F7" stroke-width="5"/>
<path d="M1022.04 -347.023C1022.04 43.7219 698.675 227.826 299.789 227.826C-99.0962 227.826 -422.457 43.7219 -422.457 -347.023C-422.457 -737.768 -99.0962 -1054.53 299.789 -1054.53C698.675 -1054.53 1022.04 -737.768 1022.04 -347.023Z" stroke="black" stroke-opacity="0.2" stroke-width="5"/>
<path d="M177.223 72.1345C210.773 -1.67427 287.415 -103.817 287.415 -103.817C287.415 -103.817 366.306 -2.29236 399.385 72.1345C427.821 136.117 474.031 224.552 399.385 237.422C359.07 244.373 338.955 212.408 298.079 210.763C249.786 208.82 219.641 260.59 177.223 237.422C120.573 206.482 150.563 130.785 177.223 72.1345Z" fill="#FF553B"/>
<path d="M177.223 72.1345C210.773 -1.67427 287.415 -103.817 287.415 -103.817C287.415 -103.817 366.306 -2.29236 399.385 72.1345C427.821 136.117 474.031 224.552 399.385 237.422C359.07 244.373 338.955 212.408 298.079 210.763C249.786 208.82 219.641 260.59 177.223 237.422C120.573 206.482 150.563 130.785 177.223 72.1345Z" stroke="#FF553B" stroke-width="5" stroke-linecap="round"/>
<path d="M177.223 72.1345C210.773 -1.67427 287.415 -103.817 287.415 -103.817C287.415 -103.817 366.306 -2.29236 399.385 72.1345C427.821 136.117 474.031 224.552 399.385 237.422C359.07 244.373 338.955 212.408 298.079 210.763C249.786 208.82 219.641 260.59 177.223 237.422C120.573 206.482 150.563 130.785 177.223 72.1345Z" stroke="black" stroke-opacity="0.2" stroke-width="5" stroke-linecap="round"/>
<path d="M178.698 -170.147C178.698 -170.147 149.977 -157.619 139.209 -141.333C113.754 -102.832 147.743 -61.9001 178.698 -28.2932C213.953 9.98183 251.04 15.5722 301.322 13.8196C346.997 12.2276 378.888 5.87216 411.476 -28.2932C443.184 -61.5353 478.904 -102.76 453.044 -141.333C441.783 -158.129 411.476 -170.147 411.476 -170.147H178.698Z" fill="#CF9C01"/>
<path d="M178.698 -170.147C178.698 -170.147 149.977 -157.619 139.209 -141.333C113.754 -102.832 147.743 -61.9001 178.698 -28.2932C213.953 9.98183 251.04 15.5722 301.322 13.8196C346.997 12.2276 378.888 5.87216 411.476 -28.2932C443.184 -61.5353 478.904 -102.76 453.044 -141.333C441.783 -158.129 411.476 -170.147 411.476 -170.147H178.698Z" stroke="#CF9C01" stroke-width="5" stroke-linecap="round"/>
<path d="M178.698 -170.147C178.698 -170.147 149.977 -157.619 139.209 -141.333C113.754 -102.832 147.743 -61.9001 178.698 -28.2932C213.953 9.98183 251.04 15.5722 301.322 13.8196C346.997 12.2276 378.888 5.87216 411.476 -28.2932C443.184 -61.5353 478.904 -102.76 453.044 -141.333C441.783 -158.129 411.476 -170.147 411.476 -170.147H178.698Z" stroke="black" stroke-opacity="0.2" stroke-width="5" stroke-linecap="round"/>
</g>
<defs>
<clipPath id="clip0_77_987">
<rect width="600" height="600" fill="white"/>
</clipPath>
</defs>
</svg>
