<svg width="600" height="600" viewBox="0 0 600 600" fill="none" xmlns="http://www.w3.org/2000/svg">
<g clip-path="url(#clip0_78_1058)">
<path d="M192.429 403.714C221.267 368.313 293 325.143 293 325.143L233.286 322C233.286 322 164.759 389.773 132.714 435.143C127.61 442.371 124.907 446.539 120.143 454C84.6537 509.553 51 608 51 608C51 608 66.9029 595.209 76.1429 586C104.353 557.884 110.079 533.91 132.714 501.143C141.231 488.817 146.505 482.242 154.714 469.714C170.982 444.879 173.678 426.726 192.429 403.714Z" fill="#BC5C44" stroke="black"/>
<path d="M324.17 359.901C353.466 344.697 405.757 337.903 405.757 337.903C469.049 323.956 503.309 324.465 562.654 337.903C624.083 310.669 655.431 312.071 707 337.903C707 337.903 501.326 361.667 427.722 454.179C386.308 506.226 367.769 545.018 361.825 611.308C360.068 630.861 363.532 642.024 361.825 661.589C357.57 710.306 330.308 732.486 324.17 781.008C319.858 815.098 324.17 869 324.17 869C324.17 869 255.399 728.2 302.204 661.589C309.698 650.917 316.426 646.939 324.17 636.449C360.219 587.625 329.279 536.835 361.825 485.605C381.827 454.11 399.261 440.565 427.722 416.468C474.264 377.053 562.654 337.903 562.654 337.903C562.654 337.903 397.636 333.032 324.17 394.47C275.902 434.827 267.656 475.008 236.307 529.601C195.589 600.491 145.307 718.156 145.307 718.156C145.307 718.156 144.616 697.069 145.307 683.587C147.742 635.72 150.415 606.123 173.548 564.169C184.563 544.182 196.6 536.76 208.066 517.03C214.957 505.17 217.172 497.634 223.756 485.605C253.924 430.471 268.434 388.819 324.17 359.901Z" fill="#BA5A4B"/>
<path d="M562.654 337.903C562.654 337.903 397.636 333.032 324.17 394.47C275.902 434.827 267.656 475.008 236.307 529.601C195.589 600.491 145.307 718.156 145.307 718.156C145.307 718.156 144.616 697.069 145.307 683.587C147.742 635.72 150.415 606.123 173.548 564.169C184.563 544.182 196.6 536.76 208.066 517.03C214.957 505.17 217.172 497.634 223.756 485.605C253.924 430.471 268.434 388.819 324.17 359.901C353.466 344.697 405.757 337.903 405.757 337.903C469.049 323.956 503.309 324.465 562.654 337.903ZM562.654 337.903C624.083 310.669 655.431 312.071 707 337.903C707 337.903 501.326 361.667 427.722 454.179C386.308 506.226 367.769 545.018 361.825 611.308C360.068 630.861 363.532 642.024 361.825 661.589C357.57 710.306 330.308 732.486 324.17 781.008C319.858 815.098 324.17 869 324.17 869C324.17 869 255.399 728.2 302.204 661.589C309.698 650.917 316.426 646.939 324.17 636.449C360.219 587.625 329.279 536.835 361.825 485.605C381.827 454.11 399.261 440.565 427.722 416.468C474.264 377.053 562.654 337.903 562.654 337.903Z" stroke="black"/>
<path d="M515.094 554.902C547.724 438.807 732 335 732 335H706.851L625.119 378.98C625.119 378.98 494.277 466.659 474.228 554.902C464.715 596.772 474.228 664.854 474.228 664.854V762.239C474.228 800.27 473.473 783.318 474.228 796.795C478.497 873.221 546.53 979 546.53 979C546.53 979 546.85 956.017 546.53 941.302C544.7 856.998 520.564 811.824 515.094 727.683C510.718 660.349 496.836 619.862 515.094 554.902Z" fill="#BD5C4C" stroke="black"/>
<path d="M802.54 84.969C817.824 -29.898 719.233 -200.137 719.233 -200.137C719.233 -200.137 555.402 -204.29 452.658 -187.028C339.862 -168.074 282.021 -135.221 172.747 -101.822C26.9254 -57.2563 -49.6668 -10.7483 -200.462 12.8732C-273.998 24.396 -390.402 29.26 -390.402 29.26C-390.402 29.26 -289.38 161.31 -200.462 216.051C-114.987 268.673 -54.7697 276.153 42.7916 301.257C275.968 361.26 659.254 330.747 659.254 330.747C659.254 330.747 787.948 194.672 802.54 84.969Z" fill="#FF8872"/>
<path d="M802.54 84.969C817.824 -29.898 719.233 -200.137 719.233 -200.137C719.233 -200.137 555.402 -204.29 452.658 -187.028C339.862 -168.074 282.021 -135.221 172.747 -101.822C26.9254 -57.2563 -49.6668 -10.7483 -200.462 12.8732C-273.998 24.396 -390.402 29.26 -390.402 29.26C-390.402 29.26 -289.38 161.31 -200.462 216.051C-114.987 268.673 -54.7697 276.153 42.7916 301.257C275.968 361.26 659.254 330.747 659.254 330.747C659.254 330.747 787.948 194.672 802.54 84.969Z" stroke="#FF8971" stroke-width="5"/>
<path d="M802.54 84.969C817.824 -29.898 719.233 -200.137 719.233 -200.137C719.233 -200.137 555.402 -204.29 452.658 -187.028C339.862 -168.074 282.021 -135.221 172.747 -101.822C26.9254 -57.2563 -49.6668 -10.7483 -200.462 12.8732C-273.998 24.396 -390.402 29.26 -390.402 29.26C-390.402 29.26 -289.38 161.31 -200.462 216.051C-114.987 268.673 -54.7697 276.153 42.7916 301.257C275.968 361.26 659.254 330.747 659.254 330.747C659.254 330.747 787.948 194.672 802.54 84.969Z" stroke="black" stroke-opacity="0.2" stroke-width="5"/>
<g filter="url(#filter0_d_78_1058)">
<path d="M111.925 56.7166C162.674 56.7166 203.814 16.948 203.814 -32.1091C203.814 -81.1662 162.674 -120.935 111.925 -120.935C61.1761 -120.935 20.0361 -81.1662 20.0361 -32.1091C20.0361 16.948 61.1761 56.7166 111.925 56.7166Z" fill="#373737"/>
<path d="M93.4524 -17.4671C113.217 -29.8165 125.605 -45.6426 121.123 -52.8156C116.641 -59.9886 96.9858 -55.7922 77.2217 -43.4428C57.4576 -31.0934 45.0689 -15.2673 49.5509 -8.09431C54.0328 -0.921324 73.6882 -5.11768 93.4524 -17.4671Z" fill="white" fill-opacity="0.6"/>
</g>
</g>
<defs>
<filter id="filter0_d_78_1058" x="16.0361" y="-120.935" width="191.777" height="185.651" filterUnits="userSpaceOnUse" color-interpolation-filters="sRGB">
<feFlood flood-opacity="0" result="BackgroundImageFix"/>
<feColorMatrix in="SourceAlpha" type="matrix" values="0 0 0 0 0 0 0 0 0 0 0 0 0 0 0 0 0 0 127 0" result="hardAlpha"/>
<feOffset dy="4"/>
<feGaussianBlur stdDeviation="2"/>
<feComposite in2="hardAlpha" operator="out"/>
<feColorMatrix type="matrix" values="0 0 0 0 0 0 0 0 0 0 0 0 0 0 0 0 0 0 0.25 0"/>
<feBlend mode="normal" in2="BackgroundImageFix" result="effect1_dropShadow_78_1058"/>
<feBlend mode="normal" in="SourceGraphic" in2="effect1_dropShadow_78_1058" result="shape"/>
</filter>
<clipPath id="clip0_78_1058">
<rect width="600" height="600" fill="white"/>
</clipPath>
</defs>
</svg>
