<svg width="600" height="600" viewBox="0 0 600 600" fill="none" xmlns="http://www.w3.org/2000/svg">
<g clip-path="url(#clip0_74_273)">
<path d="M163.134 492.201L-35.9423 457.579L46.285 150.309C46.285 150.309 -28.4864 11.9316 11.663 -61.7507C33.422 -101.683 55.3217 -124.552 98.218 -139.65C160.861 -161.699 220.497 -147.767 271.327 -105.028C307.939 -74.245 318.933 -44.4396 318.933 7.49347C318.933 91.4045 206.412 184.931 206.412 184.931L163.134 492.201Z" fill="#FCC233"/>
<path d="M163.134 492.201L-35.9423 457.579L46.285 150.309C46.285 150.309 -28.4864 11.9316 11.663 -61.7507C33.422 -101.683 55.3217 -124.552 98.218 -139.65C160.861 -161.699 220.497 -147.767 271.327 -105.028C307.939 -74.245 318.933 -44.4396 318.933 7.49347C318.933 91.4045 206.412 184.931 206.412 184.931L163.134 492.201Z" stroke="#FBC431" stroke-width="5"/>
<path d="M163.134 492.201L-35.9423 457.579L46.285 150.309C46.285 150.309 -28.4864 11.9316 11.663 -61.7507C33.422 -101.683 55.3217 -124.552 98.218 -139.65C160.861 -161.699 220.497 -147.767 271.327 -105.028C307.939 -74.245 318.933 -44.4396 318.933 7.49347C318.933 91.4045 206.412 184.931 206.412 184.931L163.134 492.201Z" stroke="black" stroke-opacity="0.2" stroke-width="5"/>
<ellipse cx="142.816" cy="138.488" rx="142.816" ry="138.488" transform="matrix(-1 0 0 1 301.618 -130.994)" fill="#F29056"/>
<path d="M405.484 202.399C309.941 303.47 249.685 522.653 249.685 522.653L405.484 648.158C405.484 648.158 591.677 589.416 695.443 522.653C815.079 445.68 915.28 406.876 959.436 271.643C988.289 183.28 959.436 33.6171 959.436 33.6171C959.436 33.6171 795.791 9.97365 695.443 33.6171C567.912 63.6652 495.491 107.185 405.484 202.399Z" fill="#FBC431"/>
<path d="M405.484 202.399C309.941 303.47 249.685 522.653 249.685 522.653L405.484 648.158C405.484 648.158 591.677 589.416 695.443 522.653C815.079 445.68 915.28 406.876 959.436 271.643C988.289 183.28 959.436 33.6171 959.436 33.6171C959.436 33.6171 795.791 9.97365 695.443 33.6171C567.912 63.6652 495.491 107.185 405.484 202.399Z" stroke="#FBC431" stroke-width="5"/>
<path d="M405.484 202.399C309.941 303.47 249.685 522.653 249.685 522.653L405.484 648.158C405.484 648.158 591.677 589.416 695.443 522.653C815.079 445.68 915.28 406.876 959.436 271.643C988.289 183.28 959.436 33.6171 959.436 33.6171C959.436 33.6171 795.791 9.97365 695.443 33.6171C567.912 63.6652 495.491 107.185 405.484 202.399Z" stroke="black" stroke-opacity="0.2" stroke-width="5"/>
<path d="M417.169 332.634C362.234 390.017 279.982 542.439 279.982 542.439L379.521 624.666C379.521 624.666 524.226 552.365 583.889 514.46C652.677 470.758 710.29 448.727 735.679 371.947C752.268 321.778 735.679 236.806 735.679 236.806C735.679 236.806 641.587 223.383 583.889 236.806C510.561 253.866 468.921 278.575 417.169 332.634Z" fill="#FFE4B5"/>
<path d="M417.169 332.634C362.234 390.017 279.982 542.439 279.982 542.439L379.521 624.666C379.521 624.666 524.226 552.365 583.889 514.46C652.677 470.758 710.29 448.727 735.679 371.947C752.268 321.778 735.679 236.806 735.679 236.806C735.679 236.806 641.587 223.383 583.889 236.806C510.561 253.866 468.921 278.575 417.169 332.634Z" stroke="#FBC431" stroke-width="5"/>
<path d="M417.169 332.634C362.234 390.017 279.982 542.439 279.982 542.439L379.521 624.666C379.521 624.666 524.226 552.365 583.889 514.46C652.677 470.758 710.29 448.727 735.679 371.947C752.268 321.778 735.679 236.806 735.679 236.806C735.679 236.806 641.587 223.383 583.889 236.806C510.561 253.866 468.921 278.575 417.169 332.634Z" stroke="black" stroke-opacity="0.2" stroke-width="5"/>
<path d="M-158.991 334.101C-570.144 334.101 -788.461 634.842 -906.9 982.155C-948.658 1083.03 -1075.68 1295.73 -863.629 1512.12C-678.097 1669.31 -405.072 1680.06 -158.991 1680.06C87.0909 1680.06 932.397 1711.19 574.491 982.155C456.051 634.842 252.162 334.101 -158.991 334.101Z" fill="#FDC333"/>
<path d="M-158.991 334.101C-570.144 334.101 -788.461 634.842 -906.9 982.155C-948.658 1083.03 -1075.68 1295.73 -863.629 1512.12C-678.097 1669.31 -405.072 1680.06 -158.991 1680.06C87.0909 1680.06 932.397 1711.19 574.491 982.155C456.051 634.842 252.162 334.101 -158.991 334.101Z" stroke="#FDC333" stroke-width="5"/>
<path d="M-158.991 334.101C-570.144 334.101 -788.461 634.842 -906.9 982.155C-948.658 1083.03 -1075.68 1295.73 -863.629 1512.12C-678.097 1669.31 -405.072 1680.06 -158.991 1680.06C87.0909 1680.06 932.397 1711.19 574.491 982.155C456.051 634.842 252.162 334.101 -158.991 334.101Z" stroke="black" stroke-opacity="0.2" stroke-width="5"/>
<path d="M-20.2716 617.67C-11.3329 602.773 6.66696 591.989 22.7464 586.482C30.2622 597.756 33.2942 615.398 33.2942 633.007C33.2942 640.697 33.2942 644.013 28.8919 650.616C24.9381 656.547 17.8863 659.117 11.661 659.117C-2.47452 659.117 -15.763 655.929 -21.7607 645.218C-25.7948 638.015 -24.4454 624.627 -20.2716 617.67Z" fill="#FC934D" fill-opacity="0.8"/>
<path d="M-20.2716 617.67C-11.3329 602.773 6.66696 591.989 22.7464 586.482C30.2622 597.756 33.2942 615.398 33.2942 633.007C33.2942 640.697 33.2942 644.013 28.8919 650.616C24.9381 656.547 17.8863 659.117 11.661 659.117C-2.47452 659.117 -15.763 655.929 -21.7607 645.218C-25.7948 638.015 -24.4454 624.627 -20.2716 617.67Z" fill="#FC934D" fill-opacity="0.8"/>
<path d="M-20.2716 617.67C-11.3329 602.773 6.66696 591.989 22.7464 586.482C30.2622 597.756 33.2942 615.398 33.2942 633.007C33.2942 640.697 33.2942 644.013 28.8919 650.616C24.9381 656.547 17.8863 659.117 11.661 659.117C-2.47452 659.117 -15.763 655.929 -21.7607 645.218C-25.7948 638.015 -24.4454 624.627 -20.2716 617.67Z" fill="#FC934D" fill-opacity="0.8"/>
</g>
<defs>
<clipPath id="clip0_74_273">
<rect width="600" height="600" fill="white"/>
</clipPath>
</defs>
</svg>
