<svg width="600" height="600" viewBox="0 0 600 600" fill="none" xmlns="http://www.w3.org/2000/svg">
<g clip-path="url(#clip0_74_913)">
<path d="M954.139 948.044C853.581 919.824 361.776 348.902 361.776 348.902L543.06 300.535C543.06 300.535 1107.69 848.617 1098.34 909.57C1088.99 970.524 1054.7 976.264 954.139 948.044Z" fill="#0084B5"/>
<path d="M782.241 875.298C698.022 843.671 259.941 261.931 259.941 261.931L405.767 221.045C405.767 221.045 902.227 782.997 898.238 842.775C894.25 902.553 866.46 906.924 782.241 875.298Z" fill="#F02838"/>
<path d="M742.977 385.138C570.091 327.35 588.556 -117.821 -40.6891 -280.801C-126.298 -323.291 -233.519 -473.369 -282.019 -397.508C-363.454 -270.13 -397.322 -186.065 -369.606 -17.2184C-344.99 132.741 -289.404 252.318 -190.957 369.498C-50.8315 536.286 99.3961 653.725 273.715 675.268C507.336 704.139 1099.02 504.145 742.977 385.138Z" fill="#E51F2E"/>
<path d="M742.977 385.138C570.091 327.35 588.556 -117.821 -40.6891 -280.801C-126.298 -323.291 -233.519 -473.369 -282.019 -397.508C-363.454 -270.13 -397.322 -186.065 -369.606 -17.2184C-344.99 132.741 -289.404 252.318 -190.957 369.498C-50.8315 536.286 99.3961 653.725 273.715 675.268C507.336 704.139 1099.02 504.145 742.977 385.138Z" stroke="#E51F2E" stroke-width="5"/>
<path d="M742.977 385.138C570.091 327.35 588.556 -117.821 -40.6891 -280.801C-126.298 -323.291 -233.519 -473.369 -282.019 -397.508C-363.454 -270.13 -397.322 -186.065 -369.606 -17.2184C-344.99 132.741 -289.404 252.318 -190.957 369.498C-50.8315 536.286 99.3961 653.725 273.715 675.268C507.336 704.139 1099.02 504.145 742.977 385.138Z" stroke="black" stroke-opacity="0.2" stroke-width="5"/>
<path fill-rule="evenodd" clip-rule="evenodd" d="M716.397 325.911C797.294 305.886 860.625 265.175 887.278 216.537C914.982 165.983 895.567 168.131 845.632 173.658C787.229 180.121 687.077 191.205 571.731 127.996C359.578 -17.8949 9.97178 -175.612 -88.1527 3.4502C-91.8472 10.1921 -94.1778 16.7008 -95.2486 23.0067C-154.13 132.797 -29.4997 316.049 183.858 432.967C397.828 550.22 644.452 480.851 704.557 371.169C717.478 347.59 720.983 333.954 716.397 325.911Z" fill="#CD1622"/>
<path d="M716.397 325.911L715.796 323.484L712.588 324.279L714.225 327.15L716.397 325.911ZM845.632 173.658L845.357 171.173L845.357 171.173L845.632 173.658ZM571.731 127.996L570.315 130.056L570.419 130.128L570.53 130.189L571.731 127.996ZM-95.2486 23.0067L-93.0455 24.1882L-92.8523 23.8281L-92.7839 23.4252L-95.2486 23.0067ZM885.086 215.336C858.905 263.113 796.349 303.545 715.796 323.484L716.998 328.338C798.239 308.228 862.346 267.238 889.471 217.739L885.086 215.336ZM845.907 176.143C858.432 174.756 868.883 173.602 877.157 173.416C885.574 173.228 891.083 174.079 894.182 176.147C895.621 177.107 896.553 178.34 897.044 180.004C897.556 181.737 897.629 184.084 897.025 187.266C895.807 193.676 891.994 202.729 885.086 215.336L889.471 217.739C896.414 205.068 900.563 195.432 901.937 188.199C902.628 184.56 902.654 181.347 901.84 178.589C901.006 175.762 899.335 173.574 896.957 171.987C892.424 168.964 885.447 168.229 877.045 168.418C868.501 168.609 857.799 169.796 845.357 171.173L845.907 176.143ZM570.53 130.189C686.591 193.789 787.41 182.616 845.907 176.143L845.357 171.173C787.047 177.626 687.564 188.621 572.933 125.804L570.53 130.189ZM-85.9603 4.65161C-61.8688 -39.3116 -22.3666 -62.663 26.9178 -70.6797C76.3007 -78.7125 135.431 -71.3209 198.355 -53.7266C324.183 -18.5438 464.369 57.2007 570.315 130.056L573.148 125.936C466.94 52.9007 326.246 -23.1589 199.702 -58.5419C136.44 -76.2306 76.5105 -83.8123 26.115 -75.6149C-24.3791 -67.4014 -65.3743 -43.3191 -90.3451 2.24878L-85.9603 4.65161ZM-92.7839 23.4252C-91.7664 17.433 -89.5417 11.1872 -85.9603 4.65161L-90.3451 2.24878C-94.1526 9.197 -96.5893 15.9686 -97.7133 22.5881L-92.7839 23.4252ZM185.06 430.775C78.6545 372.466 -5.51561 297.67 -55.718 223.907C-106.004 150.022 -121.818 77.8374 -93.0455 24.1882L-97.4518 21.8251C-127.56 77.9663 -110.5 152.303 -59.8515 226.721C-9.11969 301.261 75.7042 376.55 182.657 435.16L185.06 430.775ZM702.364 369.968C672.834 423.856 597.038 468.371 501.486 484.705C406.075 501.014 291.506 489.106 185.06 430.775L182.657 435.16C290.18 494.081 405.908 506.115 502.328 489.633C598.606 473.175 676.175 428.164 706.749 372.371L702.364 369.968ZM714.225 327.15C716.052 330.353 716.468 335.003 714.623 342.084C712.783 349.146 708.793 358.237 702.364 369.968L706.749 372.371C713.242 360.522 717.465 351.005 719.461 343.344C721.453 335.701 721.328 329.512 718.569 324.673L714.225 327.15Z" fill="#CD1622"/>
<path d="M716.397 325.911L715.796 323.484L712.588 324.279L714.225 327.15L716.397 325.911ZM845.632 173.658L845.357 171.173L845.357 171.173L845.632 173.658ZM571.731 127.996L570.315 130.056L570.419 130.128L570.53 130.189L571.731 127.996ZM-95.2486 23.0067L-93.0455 24.1882L-92.8523 23.8281L-92.7839 23.4252L-95.2486 23.0067ZM885.086 215.336C858.905 263.113 796.349 303.545 715.796 323.484L716.998 328.338C798.239 308.228 862.346 267.238 889.471 217.739L885.086 215.336ZM845.907 176.143C858.432 174.756 868.883 173.602 877.157 173.416C885.574 173.228 891.083 174.079 894.182 176.147C895.621 177.107 896.553 178.34 897.044 180.004C897.556 181.737 897.629 184.084 897.025 187.266C895.807 193.676 891.994 202.729 885.086 215.336L889.471 217.739C896.414 205.068 900.563 195.432 901.937 188.199C902.628 184.56 902.654 181.347 901.84 178.589C901.006 175.762 899.335 173.574 896.957 171.987C892.424 168.964 885.447 168.229 877.045 168.418C868.501 168.609 857.799 169.796 845.357 171.173L845.907 176.143ZM570.53 130.189C686.591 193.789 787.41 182.616 845.907 176.143L845.357 171.173C787.047 177.626 687.564 188.621 572.933 125.804L570.53 130.189ZM-85.9603 4.65161C-61.8688 -39.3116 -22.3666 -62.663 26.9178 -70.6797C76.3007 -78.7125 135.431 -71.3209 198.355 -53.7266C324.183 -18.5438 464.369 57.2007 570.315 130.056L573.148 125.936C466.94 52.9007 326.246 -23.1589 199.702 -58.5419C136.44 -76.2306 76.5105 -83.8123 26.115 -75.6149C-24.3791 -67.4014 -65.3743 -43.3191 -90.3451 2.24878L-85.9603 4.65161ZM-92.7839 23.4252C-91.7664 17.433 -89.5417 11.1872 -85.9603 4.65161L-90.3451 2.24878C-94.1526 9.197 -96.5893 15.9686 -97.7133 22.5881L-92.7839 23.4252ZM185.06 430.775C78.6545 372.466 -5.51561 297.67 -55.718 223.907C-106.004 150.022 -121.818 77.8374 -93.0455 24.1882L-97.4518 21.8251C-127.56 77.9663 -110.5 152.303 -59.8515 226.721C-9.11969 301.261 75.7042 376.55 182.657 435.16L185.06 430.775ZM702.364 369.968C672.834 423.856 597.038 468.371 501.486 484.705C406.075 501.014 291.506 489.106 185.06 430.775L182.657 435.16C290.18 494.081 405.908 506.115 502.328 489.633C598.606 473.175 676.175 428.164 706.749 372.371L702.364 369.968ZM714.225 327.15C716.052 330.353 716.468 335.003 714.623 342.084C712.783 349.146 708.793 358.237 702.364 369.968L706.749 372.371C713.242 360.522 717.465 351.005 719.461 343.344C721.453 335.701 721.328 329.512 718.569 324.673L714.225 327.15Z" fill="black" fill-opacity="0.2"/>
<path fill-rule="evenodd" clip-rule="evenodd" d="M487.31 289.997C531.208 279.131 565.575 257.04 580.038 230.647C595.071 203.214 584.535 204.38 557.439 207.379C525.747 210.886 471.401 216.901 408.81 182.601C293.689 103.436 103.98 17.8528 50.7339 115.018C48.7299 118.675 47.4654 122.206 46.884 125.627C14.9285 185.202 82.5574 284.644 198.336 348.089C314.443 411.715 448.27 374.073 480.885 314.556C487.896 301.761 489.798 294.362 487.31 289.997Z" fill="#FEE014"/>
<path fill-rule="evenodd" clip-rule="evenodd" d="M387.521 277.202C414.682 270.479 435.945 256.811 444.893 240.481C454.195 223.507 447.676 224.229 430.911 226.084C411.302 228.254 377.677 231.976 338.95 210.754C267.721 161.772 150.343 108.819 117.399 168.938C116.159 171.201 115.376 173.385 115.017 175.502C95.2458 212.363 137.09 273.89 208.724 313.145C280.563 352.512 363.366 329.222 383.545 292.397C387.883 284.481 389.06 279.903 387.521 277.202Z" fill="#0084B5"/>
<path d="M209.596 648.25C206.215 692.649 222.235 718.23 246.294 729.275C271.878 741.021 296.075 728.366 306.394 686.232C315.447 649.27 305.661 600.41 272.617 586.791C239.206 573.021 212.618 608.574 209.596 648.25Z" fill="#FF9900"/>
<path d="M87.286 643.759C86.2797 687.351 101.357 713.252 122.804 725.185C145.609 737.874 166.141 726.465 173.291 685.407C179.564 649.389 168.902 600.827 139.514 585.966C109.799 570.94 88.1852 604.804 87.286 643.759Z" fill="#FF9900"/>
<path d="M152.315 647.577C149.902 691.648 165.538 717.359 188.531 728.767C212.981 740.897 235.683 728.75 244.709 687.055C252.627 650.479 242.484 601.74 210.932 587.615C179.029 573.332 154.47 608.196 152.315 647.577Z" fill="#FB8A06"/>
</g>
<defs>
<clipPath id="clip0_74_913">
<rect width="600" height="600" fill="white"/>
</clipPath>
</defs>
</svg>
