<svg width="600" height="600" viewBox="0 0 600 600" fill="none" xmlns="http://www.w3.org/2000/svg">
<g clip-path="url(#clip0_74_94)">
<path d="M620.972 364.24C601.583 344.981 567.374 316.863 567.374 316.863C567.374 316.863 572.052 309.389 574.589 304.469C577.688 298.459 581.427 288.817 581.427 288.817C581.427 288.817 637.09 312.201 666.428 331.808C684.394 343.815 688.551 349.477 690.762 355.228C692.974 360.979 695.977 384.241 692.967 403.877C691.018 416.597 677.155 440.376 670.886 430.225C645.619 389.31 650.105 393.18 620.972 364.24Z" fill="black" stroke="black" stroke-width="2"/>
<path d="M447.238 -76.9948C623.08 -76.9948 630.143 381.571 529.529 580.864C498.336 642.651 352.432 876.9 126.051 876.9C-71.3071 876.9 -229.956 691.073 -284.142 580.864C-380.224 385.443 -385.454 -76.9949 -173.859 -76.9947C118.305 -76.9944 122.175 -76.9948 447.238 -76.9948Z" fill="#E41E13" stroke="#A4150D" stroke-width="8"/>
<path d="M115.518 341.519C116.607 538.652 135.958 845.943 135.958 845.943C135.958 845.943 149.621 538.579 150.266 341.519C150.758 190.907 144.134 -44.1029 144.134 -44.1029H123.694C123.694 -44.1029 114.686 190.895 115.518 341.519Z" fill="black" stroke="black" stroke-width="2"/>
<path d="M225.752 114.557C225.752 180.811 182.438 234.52 129.008 234.52C75.5775 234.52 32.2637 180.811 32.2637 114.557C32.2637 48.3035 75.5775 -5.40564 129.008 -5.40564C182.438 -5.40564 225.752 48.3035 225.752 114.557Z" fill="black"/>
<ellipse cx="364.175" cy="363.393" rx="84.6738" ry="103.977" transform="rotate(7.53279 364.175 363.393)" fill="black"/>
<ellipse cx="-98.5508" cy="683.087" rx="57.0928" ry="87.7318" transform="rotate(-38.7437 -98.5508 683.087)" fill="black"/>
<ellipse cx="340.884" cy="683.47" rx="57.0928" ry="87.7318" transform="rotate(35.9421 340.884 683.47)" fill="black"/>
<ellipse cx="489.41" cy="93.2185" rx="57.0928" ry="87.7318" transform="rotate(-13.481 489.41 93.2185)" fill="black"/>
</g>
<defs>
<clipPath id="clip0_74_94">
<rect width="600" height="600" fill="white"/>
</clipPath>
</defs>
</svg>
