<svg width="600" height="600" viewBox="0 0 600 600" fill="none" xmlns="http://www.w3.org/2000/svg">
<g clip-path="url(#clip0_74_338)">
<path d="M-1150.26 780.177C-1139.76 803.367 -1114.65 834.771 -1114.65 834.771C-1140.75 1373.73 71.0402 1375.67 41.3245 844.266V801.54C41.3245 801.54 136.271 794.419 171.876 777.804C207.482 761.188 240.666 729.01 264.402 700.526C264.402 700.526 290.14 656.78 304.802 614.02C322.346 562.853 321.032 555.324 323.791 516.7C326.165 483.469 328.491 482.149 333.286 435.995C338.081 389.842 340.312 371.64 364.097 330.234C364.097 330.234 388.602 294.786 413.991 274.585C438.665 254.954 456.013 246.16 485.201 234.233C504.484 226.353 516.62 223.468 537.422 222.365C616.619 218.164 616.171 136.589 561.159 136.912C533.35 137.076 515.177 133.524 487.575 136.912L487.555 136.915C458.115 140.529 450.589 141.453 423.486 153.528C396.009 165.77 373.129 179.515 349.902 198.628C314.414 227.83 295.519 247.229 271.57 286.454C251.654 319.075 243.878 339.843 233.592 376.653C223.501 412.764 221.724 433.621 219.35 471.6C216.487 517.394 214.603 542.81 202.734 587.91C194.095 620.738 181.235 640.447 152.887 659.12C134.036 671.537 120.653 675.019 98.2924 678.109C82.6823 680.267 57.9399 678.109 57.9399 678.109C57.9399 653.081 57.8926 643.824 50.7717 614.02C43.6509 584.216 -56.0225 283.059 -69.2399 256.552C-69.2399 256.552 -1000.19 227.284 -1010.68 256.552C-1023.13 291.292 -1169.25 650.699 -1169.25 687.604C-1169.25 724.509 -1165.48 746.555 -1150.26 780.177Z" fill="#AB6E2B"/>
<path d="M-1150.26 780.177C-1139.76 803.367 -1114.65 834.771 -1114.65 834.771C-1140.75 1373.73 71.0402 1375.67 41.3245 844.266V801.54C41.3245 801.54 136.271 794.419 171.876 777.804C207.482 761.188 240.666 729.01 264.402 700.526C264.402 700.526 290.14 656.78 304.802 614.02C322.346 562.853 321.032 555.324 323.791 516.7C326.165 483.469 328.491 482.149 333.286 435.995C338.081 389.842 340.312 371.64 364.097 330.234C364.097 330.234 388.602 294.786 413.991 274.585C438.665 254.954 456.013 246.16 485.201 234.233C504.484 226.353 516.62 223.468 537.422 222.365C616.619 218.164 616.171 136.589 561.159 136.912C533.35 137.076 515.177 133.524 487.575 136.912L487.555 136.915C458.115 140.529 450.589 141.453 423.486 153.528C396.009 165.77 373.129 179.515 349.902 198.628C314.414 227.83 295.519 247.229 271.57 286.454C251.654 319.075 243.878 339.843 233.592 376.653C223.501 412.764 221.724 433.621 219.35 471.6C216.487 517.394 214.603 542.81 202.734 587.91C194.095 620.738 181.235 640.447 152.887 659.12C134.036 671.537 120.653 675.019 98.2924 678.109C82.6823 680.267 57.9399 678.109 57.9399 678.109C57.9399 653.081 57.8926 643.824 50.7717 614.02C43.6509 584.216 -56.0225 283.059 -69.2399 256.552C-69.2399 256.552 -1000.19 227.284 -1010.68 256.552C-1023.13 291.292 -1169.25 650.699 -1169.25 687.604C-1169.25 724.509 -1165.48 746.555 -1150.26 780.177Z" stroke="#AB6E2B" stroke-width="5"/>
<path d="M-1150.26 780.177C-1139.76 803.367 -1114.65 834.771 -1114.65 834.771C-1140.75 1373.73 71.0402 1375.67 41.3245 844.266V801.54C41.3245 801.54 136.271 794.419 171.876 777.804C207.482 761.188 240.666 729.01 264.402 700.526C264.402 700.526 290.14 656.78 304.802 614.02C322.346 562.853 321.032 555.324 323.791 516.7C326.165 483.469 328.491 482.149 333.286 435.995C338.081 389.842 340.312 371.64 364.097 330.234C364.097 330.234 388.602 294.786 413.991 274.585C438.665 254.954 456.013 246.16 485.201 234.233C504.484 226.353 516.62 223.468 537.422 222.365C616.619 218.164 616.171 136.589 561.159 136.912C533.35 137.076 515.177 133.524 487.575 136.912L487.555 136.915C458.115 140.529 450.589 141.453 423.486 153.528C396.009 165.77 373.129 179.515 349.902 198.628C314.414 227.83 295.519 247.229 271.57 286.454C251.654 319.075 243.878 339.843 233.592 376.653C223.501 412.764 221.724 433.621 219.35 471.6C216.487 517.394 214.603 542.81 202.734 587.91C194.095 620.738 181.235 640.447 152.887 659.12C134.036 671.537 120.653 675.019 98.2924 678.109C82.6823 680.267 57.9399 678.109 57.9399 678.109C57.9399 653.081 57.8926 643.824 50.7717 614.02C43.6509 584.216 -56.0225 283.059 -69.2399 256.552C-69.2399 256.552 -1000.19 227.284 -1010.68 256.552C-1023.13 291.292 -1169.25 650.699 -1169.25 687.604C-1169.25 724.509 -1165.48 746.555 -1150.26 780.177Z" stroke="black" stroke-opacity="0.2" stroke-width="5"/>
<path d="M-180.726 359.31C-180.726 359.31 -315.223 561.377 -337.219 675.757C-351.342 749.199 -255.749 728.548 -192.044 728.548C-77.0971 728.548 38.3566 595.413 -7.6571 429.4C-56.4303 253.43 -135.235 73.0608 -135.235 73.0608" stroke="#895822" stroke-width="5" stroke-linecap="round"/>
<path d="M-1323.63 -120.189C-1325.31 -129.131 -1487.36 -39.1795 -1481.4 -80.9109C-1475.45 -122.642 -1323.63 -233.46 -1281.96 -355.673C-1161.56 -708.724 -954.303 -1014.43 -536.358 -1014.43C-118.412 -1014.43 88.8432 -708.724 209.24 -355.673C250.917 -233.46 386.733 -122.642 392.686 -80.9109C398.639 -39.1795 252.591 -129.131 250.917 -120.189C249.242 -111.246 331.096 70.5833 331.096 100.391C331.096 130.2 224.124 34.8135 146.725 100.391C-41.8719 260.184 -286.211 353.761 -536.358 353.761C-786.505 353.761 -1030.84 260.184 -1219.44 100.391C-1296.84 34.8135 -1433.78 130.2 -1433.78 100.391C-1433.78 70.5833 -1321.96 -111.246 -1323.63 -120.189Z" fill="#AB6E2B"/>
<path d="M-1323.63 -120.189C-1325.31 -129.131 -1487.36 -39.1795 -1481.4 -80.9109C-1475.45 -122.642 -1323.63 -233.46 -1281.96 -355.673C-1161.56 -708.724 -954.303 -1014.43 -536.358 -1014.43C-118.412 -1014.43 88.8432 -708.724 209.24 -355.673C250.917 -233.46 386.733 -122.642 392.686 -80.9109C398.639 -39.1795 252.591 -129.131 250.917 -120.189C249.242 -111.246 331.096 70.5833 331.096 100.391C331.096 130.2 224.124 34.8135 146.725 100.391C-41.8719 260.184 -286.211 353.761 -536.358 353.761C-786.505 353.761 -1030.84 260.184 -1219.44 100.391C-1296.84 34.8135 -1433.78 130.2 -1433.78 100.391C-1433.78 70.5833 -1321.96 -111.246 -1323.63 -120.189Z" stroke="#AB6E2B" stroke-width="5"/>
<path d="M-1323.63 -120.189C-1325.31 -129.131 -1487.36 -39.1795 -1481.4 -80.9109C-1475.45 -122.642 -1323.63 -233.46 -1281.96 -355.673C-1161.56 -708.724 -954.303 -1014.43 -536.358 -1014.43C-118.412 -1014.43 88.8432 -708.724 209.24 -355.673C250.917 -233.46 386.733 -122.642 392.686 -80.9109C398.639 -39.1795 252.591 -129.131 250.917 -120.189C249.242 -111.246 331.096 70.5833 331.096 100.391C331.096 130.2 224.124 34.8135 146.725 100.391C-41.8719 260.184 -286.211 353.761 -536.358 353.761C-786.505 353.761 -1030.84 260.184 -1219.44 100.391C-1296.84 34.8135 -1433.78 130.2 -1433.78 100.391C-1433.78 70.5833 -1321.96 -111.246 -1323.63 -120.189Z" stroke="black" stroke-opacity="0.2" stroke-width="5"/>
<path d="M-898.12 -713.136C-1080.78 -675.993 -1153.93 -520.483 -1192.04 -338.46C-1264.99 9.99604 -961.751 293.027 -534.56 293.027C-27.1413 293.027 190.383 9.91824 120.476 -338.46C86.6536 -507.012 28.5807 -642.965 -134.522 -697.291C-196.689 -717.997 -236.132 -716.737 -301.559 -713.136C-395.897 -707.943 -447.27 -637.393 -534.56 -648.254C-622.138 -659.151 -663.319 -703.04 -750.968 -713.136C-808.057 -719.712 -841.815 -724.585 -898.12 -713.136Z" fill="#FBE09D"/>
</g>
<defs>
<clipPath id="clip0_74_338">
<rect width="600" height="600" fill="white"/>
</clipPath>
</defs>
</svg>
