<svg width="600" height="600" viewBox="0 0 600 600" fill="none" xmlns="http://www.w3.org/2000/svg">
<g clip-path="url(#clip0_74_941)">
<path d="M562.707 74.3103C631.489 124.697 733.192 199.078 733.192 199.078C733.192 199.078 741.162 449.64 639.201 546.244C613.573 570.525 565.999 599.292 565.999 599.292C565.999 599.292 541.521 571.565 522.259 558.224C493.407 538.241 473.281 531.673 438.894 524.653C408.244 518.397 358.856 521.465 358.856 521.465C358.856 521.465 340.04 467.909 318.25 439.684C292.424 406.231 270.302 393.158 234.154 371.795L233.247 371.259C195.958 349.221 130.551 329.356 130.551 329.356C130.551 329.356 144.266 288.835 145.339 261.881C147.158 216.18 139.271 187.548 115.056 148.747C99.5893 123.963 64.3063 93.7867 64.3063 93.7867C64.3063 93.7867 149.453 10.0888 219.651 -8.92924C272.741 -23.3125 360.455 -12.3967 360.455 -12.3967C360.455 -12.3967 352.93 -25.3703 350.786 -35.4698C346.948 -53.553 340.63 -84.2754 341.291 -100.887C342.605 -133.881 379.945 -31.1828 405.759 -10.5925C423.128 3.26152 451.286 6.45272 471.243 16.2163C513.885 37.0776 524.412 46.257 562.707 74.3103Z" fill="#83758E"/>
<path d="M562.707 74.3103C631.489 124.697 733.192 199.078 733.192 199.078C733.192 199.078 741.162 449.64 639.201 546.244C613.573 570.525 565.999 599.292 565.999 599.292C565.999 599.292 541.521 571.565 522.259 558.224C493.407 538.241 473.281 531.673 438.894 524.653C408.244 518.397 358.856 521.465 358.856 521.465C358.856 521.465 340.04 467.909 318.25 439.684C292.424 406.231 270.302 393.158 234.154 371.795L233.247 371.259C195.958 349.221 130.551 329.356 130.551 329.356C130.551 329.356 144.266 288.835 145.339 261.881C147.158 216.18 139.271 187.548 115.056 148.747C99.5893 123.963 64.3063 93.7867 64.3063 93.7867C64.3063 93.7867 149.453 10.0888 219.651 -8.92924C272.741 -23.3125 360.455 -12.3967 360.455 -12.3967C360.455 -12.3967 352.93 -25.3703 350.786 -35.4698C346.948 -53.553 340.63 -84.2754 341.291 -100.887C342.605 -133.881 379.945 -31.1828 405.759 -10.5925C423.128 3.26152 451.286 6.45272 471.243 16.2163C513.885 37.0776 524.412 46.257 562.707 74.3103Z" stroke="#83758E" stroke-width="5" stroke-linecap="round"/>
<path d="M562.707 74.3103C631.489 124.697 733.192 199.078 733.192 199.078C733.192 199.078 741.162 449.64 639.201 546.244C613.573 570.525 565.999 599.292 565.999 599.292C565.999 599.292 541.521 571.565 522.259 558.224C493.407 538.241 473.281 531.673 438.894 524.653C408.244 518.397 358.856 521.465 358.856 521.465C358.856 521.465 340.04 467.909 318.25 439.684C292.424 406.231 270.302 393.158 234.154 371.795L233.247 371.259C195.958 349.221 130.551 329.356 130.551 329.356C130.551 329.356 144.266 288.835 145.339 261.881C147.158 216.18 139.271 187.548 115.056 148.747C99.5893 123.963 64.3063 93.7867 64.3063 93.7867C64.3063 93.7867 149.453 10.0888 219.651 -8.92924C272.741 -23.3125 360.455 -12.3967 360.455 -12.3967C360.455 -12.3967 352.93 -25.3703 350.786 -35.4698C346.948 -53.553 340.63 -84.2754 341.291 -100.887C342.605 -133.881 379.945 -31.1828 405.759 -10.5925C423.128 3.26152 451.286 6.45272 471.243 16.2163C513.885 37.0776 524.412 46.257 562.707 74.3103Z" stroke="black" stroke-opacity="0.2" stroke-width="5" stroke-linecap="round"/>
<path d="M544.223 98.1642C602.846 141.109 689.528 204.504 689.528 204.504C689.528 204.504 696.321 418.058 609.42 500.394C587.577 521.089 562.616 546.313 562.616 546.313C562.616 546.313 526.166 521.975 509.749 510.605C485.159 493.573 475.875 494.272 446.567 488.289C420.444 482.957 378.35 485.572 378.35 485.572C378.35 485.572 354.444 433.629 335.872 409.572C313.861 381.061 295.006 369.918 264.198 351.711L263.425 351.254C231.642 332.471 175.161 308.6 175.161 308.6C175.161 308.6 187.585 281.004 188.5 258.031C190.051 219.08 183.328 194.676 162.69 161.606C149.508 140.483 120.88 104.578 120.88 104.578C120.88 104.578 192.007 43.428 251.836 27.2189C297.085 14.9601 371.844 24.2636 371.844 24.2636C396.015 25.2263 449.259 40.329 466.269 48.6505C502.612 66.4306 511.585 74.2543 544.223 98.1642Z" fill="#CCB2D9"/>
<path d="M544.223 98.1642C602.846 141.109 689.528 204.504 689.528 204.504C689.528 204.504 696.321 418.058 609.42 500.394C587.577 521.089 562.616 546.313 562.616 546.313C562.616 546.313 526.166 521.975 509.749 510.605C485.159 493.573 475.875 494.272 446.567 488.289C420.444 482.957 378.35 485.572 378.35 485.572C378.35 485.572 354.444 433.629 335.872 409.572C313.861 381.061 295.006 369.918 264.198 351.711L263.425 351.254C231.642 332.471 175.161 308.6 175.161 308.6C175.161 308.6 187.585 281.004 188.5 258.031C190.051 219.08 183.328 194.676 162.69 161.606C149.508 140.483 120.88 104.578 120.88 104.578C120.88 104.578 192.007 43.428 251.836 27.2189C297.085 14.9601 371.844 24.2636 371.844 24.2636C396.015 25.2263 449.259 40.329 466.269 48.6505C502.612 66.4306 511.585 74.2543 544.223 98.1642Z" stroke="#CCB2D9" stroke-width="5" stroke-linecap="round"/>
<path d="M544.223 98.1642C602.846 141.109 689.528 204.504 689.528 204.504C689.528 204.504 696.321 418.058 609.42 500.394C587.577 521.089 562.616 546.313 562.616 546.313C562.616 546.313 526.166 521.975 509.749 510.605C485.159 493.573 475.875 494.272 446.567 488.289C420.444 482.957 378.35 485.572 378.35 485.572C378.35 485.572 354.444 433.629 335.872 409.572C313.861 381.061 295.006 369.918 264.198 351.711L263.425 351.254C231.642 332.471 175.161 308.6 175.161 308.6C175.161 308.6 187.585 281.004 188.5 258.031C190.051 219.08 183.328 194.676 162.69 161.606C149.508 140.483 120.88 104.578 120.88 104.578C120.88 104.578 192.007 43.428 251.836 27.2189C297.085 14.9601 371.844 24.2636 371.844 24.2636C396.015 25.2263 449.259 40.329 466.269 48.6505C502.612 66.4306 511.585 74.2543 544.223 98.1642Z" stroke="black" stroke-opacity="0.2" stroke-width="5" stroke-linecap="round"/>
<path d="M582.097 239.852C514.521 341.525 392.741 323.062 387.749 448.405" stroke="#9D87A8" stroke-width="5" stroke-linecap="round"/>
<path d="M513.918 159.994C335.547 195.242 276.1 174.309 212.84 290.341" stroke="#9D87A8" stroke-width="5" stroke-linecap="round"/>
<path d="M606.788 22.2207L760.272 -166.827C760.272 -166.827 706.672 -223.624 685.402 -267.902C669.787 -300.408 670.652 -322.364 657.326 -355.875C641.018 -396.882 636.386 -424.215 606.788 -456.95C588.643 -477.018 552.507 -500 552.507 -500C552.507 -500 558.667 -445.826 552.507 -412.027C546.494 -379.034 537.008 -361.807 522.559 -331.542C505.167 -295.111 482.782 -281.243 468.278 -243.569C453.597 -205.435 446.026 -182.949 445.558 -142.494C445.155 -107.647 445.751 -84.8023 460.532 -54.5214C478.91 -16.8721 501.33 9.59238 541.277 22.2207C565.671 29.9324 606.788 22.2207 606.788 22.2207Z" fill="#F0B3C8" stroke="#695E72" stroke-width="5" stroke-linecap="round"/>
<path d="M1151.34 241.217H647.841C647.841 241.217 578.318 256.296 567.356 291.754C562.39 307.816 557.39 321.264 567.356 334.805C578.075 349.369 598.977 333.784 612.278 346.035C632.709 364.853 593.964 396.278 612.278 417.162C629.867 437.22 656.141 415.803 679.661 428.393C708.547 443.854 702.401 480.007 732.071 493.904C760.534 507.237 781.544 488.788 812.556 493.904C849.529 500.003 864.937 528.41 902.401 527.596C937.82 526.826 952.24 502.416 986.63 493.904C1022.28 485.079 1051.51 507.456 1080.22 484.545C1099.92 468.824 1093.18 445.119 1112.04 428.393C1136.08 407.066 1175.27 432.275 1190.65 404.06C1203.72 380.099 1160.59 352.589 1181.29 334.805C1197.37 320.991 1224.39 352.815 1235.57 334.805C1242.51 323.626 1238.44 313.954 1235.57 301.113C1226.77 261.722 1151.34 241.217 1151.34 241.217Z" fill="#E3E1EC"/>
<path d="M1151.34 241.217H647.841C647.841 241.217 578.318 256.296 567.356 291.754C562.39 307.816 557.39 321.264 567.356 334.805C578.075 349.369 598.977 333.784 612.278 346.035C632.709 364.853 593.964 396.278 612.278 417.162C629.867 437.22 656.141 415.803 679.661 428.393C708.547 443.854 702.401 480.007 732.071 493.904C760.534 507.237 781.544 488.788 812.556 493.904C849.529 500.003 864.937 528.41 902.401 527.596C937.82 526.826 952.24 502.416 986.63 493.904C1022.28 485.079 1051.51 507.456 1080.22 484.545C1099.92 468.824 1093.18 445.119 1112.04 428.393C1136.08 407.066 1175.27 432.275 1190.65 404.06C1203.72 380.099 1160.59 352.589 1181.29 334.805C1197.37 320.991 1224.39 352.815 1235.57 334.805C1242.51 323.626 1238.44 313.954 1235.57 301.113C1226.77 261.722 1151.34 241.217 1151.34 241.217Z" stroke="#E3E1EC" stroke-width="5" stroke-linecap="round"/>
<path d="M1151.34 241.217H647.841C647.841 241.217 578.318 256.296 567.356 291.754C562.39 307.816 557.39 321.264 567.356 334.805C578.075 349.369 598.977 333.784 612.278 346.035C632.709 364.853 593.964 396.278 612.278 417.162C629.867 437.22 656.141 415.803 679.661 428.393C708.547 443.854 702.401 480.007 732.071 493.904C760.534 507.237 781.544 488.788 812.556 493.904C849.529 500.003 864.937 528.41 902.401 527.596C937.82 526.826 952.24 502.416 986.63 493.904C1022.28 485.079 1051.51 507.456 1080.22 484.545C1099.92 468.824 1093.18 445.119 1112.04 428.393C1136.08 407.066 1175.27 432.275 1190.65 404.06C1203.72 380.099 1160.59 352.589 1181.29 334.805C1197.37 320.991 1224.39 352.815 1235.57 334.805C1242.51 323.626 1238.44 313.954 1235.57 301.113C1226.77 261.722 1151.34 241.217 1151.34 241.217Z" stroke="black" stroke-opacity="0.2" stroke-width="5" stroke-linecap="round"/>
<path d="M576.318 158.945C575.605 155.14 526.921 152.603 529.454 134.848C531.987 117.092 576.318 110.751 594.05 58.7525C645.275 -91.461 733.457 -221.532 911.281 -221.532C1089.11 -221.532 1177.29 -91.461 1228.51 58.7525C1246.25 110.751 1290.58 117.092 1293.11 134.848C1295.64 152.603 1246.96 155.14 1246.25 158.945C1245.53 162.749 1282.98 183.041 1282.98 195.724C1282.98 208.407 1234.85 224.894 1201.91 252.795C1121.67 320.783 1017.71 360.597 911.281 360.597C804.851 360.597 700.891 320.783 620.648 252.795C587.717 224.894 539.587 208.407 539.587 195.724C539.587 183.041 577.03 162.749 576.318 158.945Z" fill="#83758E"/>
<path d="M576.318 158.945C575.605 155.14 526.921 152.603 529.454 134.848C531.987 117.092 576.318 110.751 594.05 58.7525C645.275 -91.461 733.457 -221.532 911.281 -221.532C1089.11 -221.532 1177.29 -91.461 1228.51 58.7525C1246.25 110.751 1290.58 117.092 1293.11 134.848C1295.64 152.603 1246.96 155.14 1246.25 158.945C1245.53 162.749 1282.98 183.041 1282.98 195.724C1282.98 208.407 1234.85 224.894 1201.91 252.795C1121.67 320.783 1017.71 360.597 911.281 360.597C804.851 360.597 700.891 320.783 620.648 252.795C587.717 224.894 539.587 208.407 539.587 195.724C539.587 183.041 577.03 162.749 576.318 158.945Z" stroke="#83758E" stroke-width="5"/>
<path d="M576.318 158.945C575.605 155.14 526.921 152.603 529.454 134.848C531.987 117.092 576.318 110.751 594.05 58.7525C645.275 -91.461 733.457 -221.532 911.281 -221.532C1089.11 -221.532 1177.29 -91.461 1228.51 58.7525C1246.25 110.751 1290.58 117.092 1293.11 134.848C1295.64 152.603 1246.96 155.14 1246.25 158.945C1245.53 162.749 1282.98 183.041 1282.98 195.724C1282.98 208.407 1234.85 224.894 1201.91 252.795C1121.67 320.783 1017.71 360.597 911.281 360.597C804.851 360.597 700.891 320.783 620.648 252.795C587.717 224.894 539.587 208.407 539.587 195.724C539.587 183.041 577.03 162.749 576.318 158.945Z" stroke="black" stroke-opacity="0.2" stroke-width="5"/>
</g>
<defs>
<clipPath id="clip0_74_941">
<rect width="600" height="600" fill="white"/>
</clipPath>
</defs>
</svg>
