<svg width="600" height="600" viewBox="0 0 600 600" fill="none" xmlns="http://www.w3.org/2000/svg">
<g clip-path="url(#clip0_74_856)">
<circle cx="-1.08307" cy="-167.528" r="221.917" fill="black" stroke="#333333" stroke-width="14"/>
<path d="M-178.717 372.636C-180.125 365.118 -183.723 340.881 -178.718 305.796C-173.713 270.711 -178.717 277.405 -143.678 174.655C-42.4558 -122.168 131.792 -379.189 483.175 -379.189C834.558 -379.189 1008.81 -122.168 1110.03 174.655C1145.07 277.405 1140.06 270.711 1145.07 305.796C1150.07 340.881 1154.71 365.118 1153.3 372.636C1151.89 380.154 1153.3 420.453 1145.07 442.645C1136.84 464.836 1122.54 502.953 1057.47 558.086C898.909 692.43 693.483 771.104 483.175 771.104C272.867 771.104 67.4413 692.43 -91.1197 558.086C-143.678 498.124 -148.101 468.535 -163.409 442.645C-178.717 416.754 -178.717 372.636 -178.717 372.636Z" fill="white"/>
<path d="M-178.717 372.636C-180.125 365.118 -183.723 340.881 -178.718 305.796C-173.713 270.711 -178.717 277.405 -143.678 174.655C-42.4558 -122.168 131.792 -379.189 483.175 -379.189C834.558 -379.189 1008.81 -122.168 1110.03 174.655C1145.07 277.405 1140.06 270.711 1145.07 305.796C1150.07 340.881 1154.71 365.118 1153.3 372.636C1151.89 380.154 1153.3 420.453 1145.07 442.645C1136.84 464.836 1122.54 502.953 1057.47 558.086C898.909 692.43 693.483 771.104 483.175 771.104C272.867 771.104 67.4413 692.43 -91.1197 558.086C-143.678 498.124 -148.101 468.535 -163.409 442.645C-178.717 416.754 -178.717 372.636 -178.717 372.636Z" stroke="white" stroke-width="5"/>
<path d="M-178.717 372.636C-180.125 365.118 -183.723 340.881 -178.718 305.796C-173.713 270.711 -178.717 277.405 -143.678 174.655C-42.4558 -122.168 131.792 -379.189 483.175 -379.189C834.558 -379.189 1008.81 -122.168 1110.03 174.655C1145.07 277.405 1140.06 270.711 1145.07 305.796C1150.07 340.881 1154.71 365.118 1153.3 372.636C1151.89 380.154 1153.3 420.453 1145.07 442.645C1136.84 464.836 1122.54 502.953 1057.47 558.086C898.909 692.43 693.483 771.104 483.175 771.104C272.867 771.104 67.4413 692.43 -91.1197 558.086C-143.678 498.124 -148.101 468.535 -163.409 442.645C-178.717 416.754 -178.717 372.636 -178.717 372.636Z" stroke="black" stroke-opacity="0.2" stroke-width="5"/>
<path d="M509.538 448.888C509.538 454.379 496.185 458.83 479.714 458.83C463.243 458.83 449.891 454.379 449.891 448.888C449.891 443.398 463.243 438.947 479.714 438.947C496.185 438.947 509.538 443.398 509.538 448.888Z" fill="white" fill-opacity="0.5"/>
<path d="M482.79 520.483V610.307M482.79 610.307C482.79 610.307 455.143 637.218 432.594 639.367C405.479 641.952 369.189 610.307 369.189 610.307M482.79 610.307C482.79 610.307 510.377 637.983 532.985 639.367C558.315 640.918 591.106 610.307 591.106 610.307" stroke="black" stroke-width="5" stroke-linecap="round"/>
<ellipse cx="136.764" cy="183.689" rx="136.764" ry="183.689" transform="matrix(-0.998648 0.0519817 0.0519817 0.998648 307.387 26.6877)" fill="black" stroke="#504B4F"/>
<ellipse cx="82.0585" cy="110.213" rx="82.0585" ry="110.213" transform="matrix(-0.998648 0.0519817 0.0519817 0.998648 274.064 103.258)" fill="white" stroke="#5B595B"/>
<ellipse cx="54.7057" cy="73.4756" rx="54.7057" ry="73.4756" transform="matrix(-0.998648 0.0519817 0.0519817 0.998648 282.089 121.718)" fill="#1F1F1F" stroke="#5B595B"/>
<path d="M480.705 551.425C483.665 553.19 487.373 553.11 490.254 551.219L640.143 452.807C645.58 449.237 645.465 441.424 639.734 438.349C615.981 425.605 558.767 399.214 485.544 394.878C420.571 391.03 346.542 423.326 316.435 438.101C310.215 441.153 310.054 449.661 316.004 453.209L480.705 551.425Z" fill="#403E3E"/>
<path d="M517.134 436.48C517.134 443.289 500.575 448.808 480.148 448.808C459.721 448.808 443.162 443.289 443.162 436.48C443.162 429.671 459.721 424.151 480.148 424.151C500.575 424.151 517.134 429.671 517.134 436.48Z" fill="white" fill-opacity="0.5"/>
<ellipse cx="120.972" cy="479.347" rx="92.4654" ry="47.7004" fill="#F8BBBB"/>
<ellipse cx="261.52" cy="169.045" rx="18.4931" ry="18.4931" fill="white"/>
<ellipse cx="261.52" cy="169.045" rx="18.4931" ry="18.4931" fill="white"/>
<ellipse cx="261.52" cy="169.045" rx="18.4931" ry="18.4931" fill="white"/>
<ellipse cx="261.52" cy="169.045" rx="18.4931" ry="18.4931" fill="white"/>
</g>
<defs>
<clipPath id="clip0_74_856">
<rect width="600" height="600" fill="white"/>
</clipPath>
</defs>
</svg>
