<svg width="600" height="600" viewBox="0 0 600 600" fill="none" xmlns="http://www.w3.org/2000/svg">
<g clip-path="url(#clip0_74_27)">
<path d="M294.186 520.851C592.198 676.544 749.246 682.354 1008.2 520.851C1016.39 426.297 1024.58 373.826 995.274 273.693C995.274 273.693 1090.15 271.567 1140.66 243C1188.04 216.205 1209.4 189.406 1237.59 142.845C1271.83 86.2834 1326.42 29.3945 1282.82 -20.3118C1256.51 -50.3063 1225.37 -46.8361 1185.89 -52.6201C1077.26 -68.5365 922.581 45.92 922.581 45.92L911.273 -7.38855C911.273 -7.38855 992.264 -7.64142 1034.04 -33.2351C1070.63 -55.6484 1094.05 -74.6315 1106.74 -115.621C1115.88 -145.151 1106.28 -189.972 1106.74 -220.88C1107.95 -303.002 1146.56 -345.045 1140.66 -426.037C1135.1 -502.328 1127.21 -550.555 1083.64 -613.425C1021.37 -703.273 946.942 -729.481 839.713 -750.735C741.059 -770.289 673.7 -765.432 583.345 -726.246C485.911 -683.991 438.178 -626.615 395.957 -529.166C365.239 -458.266 398.903 -403.264 365.264 -333.702C356.032 -314.61 344.904 -306.837 337.802 -286.855C318.66 -232.994 335.053 -191.608 365.264 -143.083C397.28 -91.6595 491.266 -52.6201 491.266 -52.6201L462.189 -7.38855C462.189 -7.38855 328.937 -158.169 213.416 -170.545C186.443 -173.435 169.038 -180.87 143.953 -170.545C84.8914 -146.234 121.414 -70.2628 132.645 -7.38855C142.885 49.938 150.18 88.1932 190.8 129.921C238.755 179.184 355.795 191.307 355.795 191.307C355.795 191.307 321.283 245.259 307.11 283.385C274.747 370.438 294.186 520.851 294.186 520.851Z" fill="#FFCB2F"/>
<path d="M381.418 142.845L355.795 191.307M355.795 191.307C355.795 191.307 321.283 245.259 307.11 283.385C274.747 370.438 294.186 520.851 294.186 520.851C592.198 676.544 749.246 682.354 1008.2 520.851C1016.39 426.297 1024.58 373.826 995.274 273.693M355.795 191.307C355.795 191.307 238.755 179.184 190.8 129.921C150.18 88.1933 142.885 49.938 132.645 -7.38856C121.414 -70.2628 84.8914 -146.234 143.953 -170.545C169.038 -180.87 186.443 -173.435 213.416 -170.545C328.937 -158.169 462.189 -7.38856 462.189 -7.38856L491.266 -52.6201M491.266 -52.6201L583.345 -33.2351M491.266 -52.6201C491.266 -52.6201 397.28 -91.6595 365.264 -143.083C335.053 -191.608 318.66 -232.994 337.802 -286.855C344.904 -306.837 356.032 -314.61 365.264 -333.702C398.903 -403.264 365.239 -458.266 395.957 -529.166C438.178 -626.615 485.911 -683.991 583.345 -726.246C673.7 -765.432 741.059 -770.289 839.713 -750.735C946.942 -729.481 1021.37 -703.273 1083.64 -613.425C1127.21 -550.555 1135.1 -502.328 1140.66 -426.037C1146.56 -345.045 1107.95 -303.002 1106.74 -220.88C1106.28 -189.972 1115.88 -145.151 1106.74 -115.621C1094.05 -74.6315 1070.63 -55.6484 1034.04 -33.2351C992.264 -7.64139 911.273 -7.38856 911.273 -7.38856M911.273 -7.38856H815.964M911.273 -7.38856L922.581 45.92C922.581 45.92 1077.26 -68.5365 1185.89 -52.6201C1225.37 -46.8361 1256.51 -50.3063 1282.82 -20.3118C1326.42 29.3945 1271.83 86.2834 1237.59 142.845C1209.4 189.406 1188.04 216.205 1140.66 243C1090.15 271.567 995.274 273.693 995.274 273.693M995.274 273.693L966.197 204.23" stroke="#FFCB2F" stroke-width="5"/>
<path d="M381.418 142.845L355.795 191.307M355.795 191.307C355.795 191.307 321.283 245.259 307.11 283.385C274.747 370.438 294.186 520.851 294.186 520.851C592.198 676.544 749.246 682.354 1008.2 520.851C1016.39 426.297 1024.58 373.826 995.274 273.693M355.795 191.307C355.795 191.307 238.755 179.184 190.8 129.921C150.18 88.1933 142.885 49.938 132.645 -7.38856C121.414 -70.2628 84.8914 -146.234 143.953 -170.545C169.038 -180.87 186.443 -173.435 213.416 -170.545C328.937 -158.169 462.189 -7.38856 462.189 -7.38856L491.266 -52.6201M491.266 -52.6201L583.345 -33.2351M491.266 -52.6201C491.266 -52.6201 397.28 -91.6595 365.264 -143.083C335.053 -191.608 318.66 -232.994 337.802 -286.855C344.904 -306.837 356.032 -314.61 365.264 -333.702C398.903 -403.264 365.239 -458.266 395.957 -529.166C438.178 -626.615 485.911 -683.991 583.345 -726.246C673.7 -765.432 741.059 -770.289 839.713 -750.735C946.942 -729.481 1021.37 -703.273 1083.64 -613.425C1127.21 -550.555 1135.1 -502.328 1140.66 -426.037C1146.56 -345.045 1107.95 -303.002 1106.74 -220.88C1106.28 -189.972 1115.88 -145.151 1106.74 -115.621C1094.05 -74.6315 1070.63 -55.6484 1034.04 -33.2351C992.264 -7.64139 911.273 -7.38856 911.273 -7.38856M911.273 -7.38856H815.964M911.273 -7.38856L922.581 45.92C922.581 45.92 1077.26 -68.5365 1185.89 -52.6201C1225.37 -46.8361 1256.51 -50.3063 1282.82 -20.3118C1326.42 29.3945 1271.83 86.2834 1237.59 142.845C1209.4 189.406 1188.04 216.205 1140.66 243C1090.15 271.567 995.274 273.693 995.274 273.693M995.274 273.693L966.197 204.23" stroke="black" stroke-opacity="0.2" stroke-width="5"/>
<path d="M93.161 405.892C-56.5544 446.756 250.158 725.144 393.627 665.973C533.966 608.093 570.314 203.964 438.859 279.89C401.372 301.542 358.088 355.814 358.088 355.814C358.088 355.814 309.23 269.556 262.779 279.89C211.95 291.198 219.163 405.892 219.163 405.892C219.163 405.892 140.631 392.935 93.161 405.892Z" fill="#F27927"/>
<path d="M93.161 405.892C-56.5544 446.756 250.158 725.144 393.627 665.973C533.966 608.093 570.314 203.964 438.859 279.89C401.372 301.542 358.088 355.814 358.088 355.814C358.088 355.814 309.23 269.556 262.779 279.89C211.95 291.198 219.163 405.892 219.163 405.892C219.163 405.892 140.631 392.935 93.161 405.892Z" stroke="#F27927" stroke-width="5"/>
<path d="M93.161 405.892C-56.5544 446.756 250.158 725.144 393.627 665.973C533.966 608.093 570.314 203.964 438.859 279.89C401.372 301.542 358.088 355.814 358.088 355.814C358.088 355.814 309.23 269.556 262.779 279.89C211.95 291.198 219.163 405.892 219.163 405.892C219.163 405.892 140.631 392.935 93.161 405.892Z" stroke="black" stroke-opacity="0.2" stroke-width="5"/>
</g>
<defs>
<clipPath id="clip0_74_27">
<rect width="600" height="600" fill="white"/>
</clipPath>
</defs>
</svg>
