<svg width="600" height="600" viewBox="0 0 600 600" fill="none" xmlns="http://www.w3.org/2000/svg">
<g clip-path="url(#clip0_74_429)">
<path d="M212.485 -218.5C152.56 -362.985 51.4035 -585.218 51.4035 -585.218C51.4035 -585.218 229.918 -703.132 277.604 -821.7C310.806 -904.257 323.6 -955.472 318.505 -1044.31C313.133 -1137.97 292.21 -1200.76 256.814 -1287.65C218.535 -1381.6 182.379 -1429.61 113.094 -1503.73C48.918 -1572.38 -3.04858 -1606.61 -85.9136 -1650.94C-182.212 -1702.45 -238.428 -1718.87 -346.16 -1736.78C-449.144 -1753.91 -613.487 -1736.78 -613.487 -1736.78C-613.487 -1736.78 -675.158 -1782.26 -716.306 -1812.19C-754.006 -1839.61 -776.175 -1870.15 -819.124 -1856.74C-885.819 -1835.93 -784.851 -1668.24 -784.851 -1668.24C-784.851 -1668.24 -871.219 -1686.97 -918.515 -1712.8C-949.586 -1729.76 -977.956 -1761.05 -1017.91 -1747.07C-1082.86 -1724.34 -980.206 -1565.42 -980.206 -1565.42C-980.206 -1565.42 -1041.7 -1527.92 -1062.46 -1507.16C-1148.14 -1421.48 -1186.07 -1383.44 -1223.77 -1308.21C-1261.47 -1232.98 -1283.02 -1143.53 -1292.31 -1071.73C-1302.62 -992.086 -1293.68 -921.104 -1278.38 -842.269C-1262.37 -759.795 -1238.13 -697.83 -1206.41 -646.914C-1174.68 -595.999 -1156.67 -565.194 -1110.44 -526.96C-1055.55 -481.557 -1017.19 -466.462 -949.36 -444.7C-887.12 -424.733 -784.851 -413.855 -784.851 -413.855L-880.815 -67.7001C-880.815 -67.7001 -896.194 -79.3496 -915.087 -85.1913C-922.769 -87.5664 -931.032 -88.9813 -939.078 -88.2629C-951.531 -87.151 -960.854 -84.6045 -969.924 -80.2522C-976.541 -77.0771 -983.023 -72.941 -990.487 -67.7001C-1033.82 -37.2753 -1048.75 65.9641 -1048.75 65.9641C-1048.75 65.9641 -1059.76 66.1453 -1072.74 69.3915C-1141.29 86.5278 -1199.55 144.791 -1199.55 144.791C-1199.55 144.791 -1280.59 198.379 -1312.65 244.182C-1336.64 278.454 -1346.42 289.997 -1343.5 326.436C-1337.84 396.893 -1172.36 384.864 -1172.36 384.864L-1011.28 391.718C-1011.28 391.718 -967.355 427.326 -928.797 436.11C-884.427 446.217 -854.078 447.917 -808.842 442.964C-769.441 438.65 -706.024 422.4 -706.024 422.4L-696.684 425.159C-696.684 425.159 -612.623 462.1 -555.224 466.954C-531.218 468.985 -493.533 466.954 -493.533 466.954C-493.533 466.954 -399.396 504.58 -335.878 514.936C-259.261 527.429 -213.976 525.698 -137.096 514.936C-85.3337 507.69 -6.86017 484.091 -6.86017 484.091L174.785 539.572L452.394 556.063C483.24 560.135 500.376 557.778 520.94 556.063C557.223 553.039 585.667 536.037 596.34 501.227C605.666 470.811 592.987 454.501 579.204 425.828C556.648 378.906 483.24 326.436 483.24 326.436L305.022 192.773C305.022 192.773 378.209 156.14 417.896 124.391C452.168 96.9728 479.586 59.6995 479.586 4.4364C479.586 -26.4091 460.44 -86.6479 435.258 -98.5449C363.059 -132.655 277.604 -57.4183 277.604 -57.4183C277.604 -57.4183 238.48 -155.825 212.485 -218.5Z" fill="#D89E78"/>
<path d="M51.4035 -585.218C51.4035 -585.218 152.56 -362.985 212.485 -218.5C238.48 -155.825 277.604 -57.4183 277.604 -57.4183M51.4035 -585.218C51.4035 -585.218 229.918 -703.132 277.604 -821.7C310.806 -904.257 323.6 -955.472 318.505 -1044.31C313.133 -1137.97 292.21 -1200.76 256.814 -1287.65C218.535 -1381.6 182.379 -1429.61 113.094 -1503.73C48.918 -1572.38 -3.04856 -1606.61 -85.9135 -1650.94C-182.212 -1702.45 -238.428 -1718.87 -346.16 -1736.78C-449.144 -1753.91 -613.487 -1736.78 -613.487 -1736.78C-613.487 -1736.78 -675.158 -1782.26 -716.306 -1812.19C-754.006 -1839.61 -776.175 -1870.15 -819.124 -1856.74C-885.819 -1835.93 -784.851 -1668.24 -784.851 -1668.24C-784.851 -1668.24 -871.219 -1686.97 -918.515 -1712.8C-949.586 -1729.76 -977.956 -1761.05 -1017.91 -1747.07C-1082.86 -1724.34 -980.206 -1565.42 -980.206 -1565.42C-980.206 -1565.42 -1041.7 -1527.92 -1062.46 -1507.16C-1148.14 -1421.48 -1186.07 -1383.44 -1223.77 -1308.21C-1261.47 -1232.98 -1283.02 -1143.53 -1292.31 -1071.73C-1302.62 -992.086 -1293.68 -921.104 -1278.38 -842.269C-1262.37 -759.795 -1238.13 -697.83 -1206.41 -646.914C-1174.68 -595.999 -1156.67 -565.194 -1110.44 -526.96C-1055.55 -481.557 -1017.19 -466.462 -949.36 -444.7C-887.12 -424.733 -784.851 -413.855 -784.851 -413.855M51.4035 -585.218C51.4035 -585.218 -270.986 -444.7 -174.797 -485.827M277.604 -57.4183C277.604 -57.4183 363.059 -132.655 435.258 -98.5449C460.44 -86.6479 479.586 -26.4091 479.586 4.4364C479.586 59.6995 452.168 96.9728 417.896 124.391C378.209 156.14 305.022 192.773 305.022 192.773M277.604 -57.4183L305.022 192.773M305.022 192.773L483.24 326.436M305.022 192.773C305.022 192.773 196.862 148.341 174.785 86.5272C140.513 -9.43585 139.17 -39.6865 123.15 -118.945C110.2 -183.014 85.4501 -355.427 99.3853 -280.191M483.24 326.436C483.24 326.436 556.648 378.906 579.204 425.828C592.987 454.501 605.666 470.811 596.34 501.227C585.667 536.037 557.223 553.039 520.94 556.064C500.376 557.777 483.24 560.136 452.394 556.064M483.24 326.436C483.24 326.436 418.122 302.446 363.285 326.436M174.785 539.572L-6.86014 484.091M174.785 539.572C174.785 539.572 219.867 466.956 267.322 405.264M174.785 539.572C174.785 539.572 343.981 549.623 452.394 556.064M-6.86014 484.091C-6.86014 484.091 -85.3337 507.69 -137.097 514.936C-213.976 525.698 -259.261 527.429 -335.878 514.936C-399.396 504.58 -493.533 466.954 -493.533 466.954M-6.86014 484.091C-6.86014 484.091 -76.1363 387.842 -106.251 319.582C-136.366 251.322 -151.88 209.326 -161.087 134.509C-164.69 105.235 -171.369 52.2551 -171.369 52.2551M-493.533 466.954C-493.533 466.954 -531.218 468.985 -555.224 466.954C-612.623 462.1 -696.684 425.159 -696.684 425.159M-493.533 466.954C-493.533 466.954 -541.578 400.076 -555.224 350.427C-571.895 289.77 -555.224 189.346 -555.224 189.346M-1011.28 391.718C-1011.28 391.718 -967.355 427.326 -928.797 436.11C-884.427 446.217 -854.078 447.918 -808.842 442.964C-769.441 438.65 -706.024 422.4 -706.024 422.4L-696.684 425.159M-1011.28 391.718L-1172.36 384.864M-1011.28 391.718C-1011.28 391.718 -1041.6 327.949 -1048.75 278.454C-1056.79 222.818 -1056.79 190.146 -1048.75 134.509M-1172.36 384.864C-1172.36 384.864 -1337.84 396.893 -1343.5 326.436C-1346.42 289.997 -1336.64 278.454 -1312.65 244.182C-1280.59 198.379 -1199.55 144.791 -1199.55 144.791M-1172.36 384.864C-1172.36 384.864 -1230.69 335.935 -1244.11 292.164C-1262.57 231.924 -1199.55 144.791 -1199.55 144.791M-1199.55 144.791C-1199.55 144.791 -1141.29 86.5278 -1072.74 69.3914C-1059.76 66.1452 -1048.75 65.9641 -1048.75 65.9641M-1048.75 65.9641C-1048.75 65.9641 -1033.82 -37.2753 -990.487 -67.7001C-983.023 -72.941 -976.541 -77.0771 -969.924 -80.2522M-1048.75 65.9641C-1048.75 65.9641 -1048.75 105.063 -1048.75 134.509M-880.815 -67.7001L-784.851 -413.855M-880.815 -67.7001C-880.815 -67.7001 -896.194 -79.3496 -915.087 -85.1913M-880.815 -67.7001C-880.815 -67.7001 -872.508 -57.1789 -867.106 -47.1417C-861.704 -37.1045 -853.149 -16.2963 -853.149 -16.2963M-784.851 -413.855H-736.869M-161.087 -317.891C-151.032 -396.555 -175.311 -186.462 -174.797 -101.973C-174.413 -38.962 -171.369 52.2551 -171.369 52.2551M363.285 326.436C315.304 353.855 291.048 374.419 267.322 405.264M363.285 326.436C422.972 353.049 454.941 375.428 500.376 422.4C531.643 454.724 579.204 529.775 579.204 529.775M267.322 405.264C312.781 418.407 341.474 425.408 376.994 456.673C410.6 486.254 425.626 520.178 452.394 556.064M-277.615 384.7C-291.55 442.964 -270.155 369.436 -270.986 292.327C-271.347 258.851 -276.892 224.528 -281.042 199.628M-281.042 199.628C-291.57 136.46 -300.838 112.711 -335.878 59.109M-281.042 199.628C-298.178 179.064 -311.887 166.497 -325.597 155.073C-348.967 135.598 -373.578 131.082 -373.578 131.082M-335.878 59.109C-363.297 24.8369 -366.623 22.3709 -390.715 -2.58131M-335.878 59.109C-304.411 36.1109 -278.782 28.7884 -239.915 31.6908C-209.015 33.9982 -171.369 52.2551 -171.369 52.2551M-555.224 189.346C-555.224 189.346 -544.942 110.519 -517.524 59.109C-505.466 36.5002 -507.242 41.9732 -483.251 7.70051M-555.224 189.346C-555.224 189.346 -510.669 151.646 -483.251 137.937M-373.578 131.082C-373.578 131.082 -409.849 125.967 -428.415 127.655C-466.115 131.082 -455.147 127.655 -483.251 137.937M-373.578 131.082C-373.578 131.082 -381.346 50.4783 -390.715 -2.58131M-390.715 -2.58131C-410.569 -23.1449 -421.56 -29.9995 -431.842 -29.9995C-460.104 -29.9995 -471.256 -7.72159 -483.251 7.70051M-483.251 137.937C-483.251 83.1005 -483.251 62.5369 -483.251 7.70051M-696.684 425.159C-696.684 425.159 -785.876 360.477 -822.551 302.445C-869.211 228.617 -880.815 86.5272 -880.815 86.5272M-880.815 86.5272C-880.815 86.5272 -868.733 38.6214 -853.149 -16.2963M-880.815 86.5272C-880.815 86.5272 -890.553 83.6621 -904.806 80.9522M-736.869 -413.855C-736.869 -413.855 -758.089 -327.938 -771.142 -276.763C-788.219 -209.812 -799.972 -180.983 -822.551 -115.682C-832.75 -86.1841 -843.606 -49.9255 -853.149 -16.2963M-736.869 -413.855C-736.869 -413.855 -521.177 -434.255 -610.286 -427.4M-1048.75 134.509C-1038.47 113.94 -1019.09 95.6752 -990.487 83.0947C-965.816 72.2429 -928.874 76.3763 -904.806 80.9522M-915.087 -85.1913C-922.769 -87.5663 -931.032 -88.9813 -939.078 -88.2629C-951.531 -87.1511 -960.854 -84.6045 -969.924 -80.2522M-915.087 -85.1913L-904.806 80.9522M-969.924 -80.2522L-983.633 79.6674" stroke="#8B532E" stroke-width="6"/>
<path d="M579.204 429.799C556.648 382.878 483.24 330.408 483.24 330.408C483.24 330.408 418.122 306.417 363.285 330.408C315.304 357.827 291.048 378.391 267.322 409.236C219.867 470.927 181.414 533.746 181.414 533.746C181.414 533.746 343.981 553.595 452.394 560.035C483.24 564.107 500.376 561.749 520.94 560.035C557.223 557.011 585.667 540.009 596.34 505.199C605.666 474.782 592.987 458.473 579.204 429.799Z" fill="#FFF5EE"/>
<path d="M363.285 330.408C418.122 306.417 483.24 330.408 483.24 330.408C483.24 330.408 556.648 382.878 579.204 429.799C592.987 458.473 605.666 474.782 596.34 505.199C585.667 540.009 557.223 557.011 520.94 560.035C500.376 561.749 483.24 564.107 452.394 560.035M363.285 330.408C315.304 357.827 291.048 378.391 267.322 409.236M363.285 330.408C422.972 357.021 454.941 379.4 500.376 426.371C531.643 458.696 579.204 533.746 579.204 533.746M267.322 409.236C219.867 470.927 181.414 533.746 181.414 533.746C181.414 533.746 343.981 553.595 452.394 560.035M267.322 409.236C312.781 422.378 341.474 429.379 376.994 460.645C410.6 490.225 425.626 524.149 452.394 560.035" stroke="#8B532E" stroke-width="6"/>
</g>
<defs>
<clipPath id="clip0_74_429">
<rect width="600" height="600" fill="white"/>
</clipPath>
</defs>
</svg>
