<svg width="600" height="600" viewBox="0 0 600 600" fill="none" xmlns="http://www.w3.org/2000/svg">
<g clip-path="url(#clip0_77_1043)">
<path d="M723.024 -1041.22C721.121 -1021.79 693.03 -1001.23 693.03 -1001.23C693.03 -1001.23 875.722 -924.992 938.98 -825.262C981.175 -758.738 984.649 -710.37 1000.97 -633.301C1023.66 -526.127 1061.65 -454.249 1018.96 -353.358C990.678 -286.507 898.988 -211.387 898.988 -211.387L970.793 -101.41C970.793 -101.41 1052.78 -28.22 1106.95 34.5624C1171.78 109.705 1199.17 168.583 1232.74 265.72C1253.1 324.634 1236.73 374.273 1188.75 391.694C1132.45 412.138 1020.21 246.673 974.676 174.796C1011.7 237.477 1087.44 379.168 1086.95 488.47C1086.57 572.406 1098.38 637.207 1040.96 698.427C984.158 758.98 924.289 752.579 843.088 769.881C687.73 802.985 584.858 796.572 428.271 769.881C339.642 754.774 276.33 778.328 211.129 716.423C163.257 670.972 150.993 630.007 133.145 566.454C102.855 458.599 156.14 280.512 156.14 280.512C156.14 280.512 117.61 374.016 73.1573 418.484C55.1671 436.48 19.1694 438.48 -20.818 418.484C-60.8055 398.488 -38.2099 250.317 19.1683 142.54C82.2243 44.1844 123.979 -9.42493 211.129 -101.41L259.119 -211.387C259.119 -211.387 132.421 -294.552 109.15 -379.353C89.1571 -452.208 116.654 -497.587 133.145 -571.314C161.664 -698.817 167.535 -788.069 259.119 -881.25C326.268 -949.571 395.923 -944.444 473.075 -1001.23C522.123 -1037.32 530.871 -1112.54 591.051 -1103.21C609.393 -1100.36 623.085 -1099.41 635.042 -1085.21C651.642 -1065.5 635.042 -1019.22 635.042 -1019.22C635.042 -1019.22 726.475 -1076.47 723.024 -1041.22Z" fill="#4E6B93"/>
<path d="M497.145 790.702C377.024 777.052 390.821 761.873 390.821 761.873C390.821 761.873 376.592 740.603 348.548 695.512C329.142 664.309 320.51 648.17 307.172 612.892C292.913 575.179 286.71 552.717 277.828 509.526C268.946 466.336 268.101 443.159 266.518 399.702C264.934 356.245 270.015 295.139 270.015 295.139C270.015 295.139 275.928 242.365 283.373 210.524C295.751 157.593 307.28 130 330.025 86.9835C350.506 48.249 364.149 28.4285 390.821 0.639814C422.966 -32.8517 441.891 -45.0268 481.759 -60.6937C525.758 -77.984 554.264 -76.6708 601.754 -76.6707L601.755 -76.6707C638.087 -76.6706 673.322 -76.6705 713.359 -60.6937C753.882 -44.5231 778.885 -33.3367 810.646 0.639812C837.053 28.8886 857.426 59.2446 878.328 102.011C902.747 151.974 914.656 183.35 920.106 238.147C925.774 295.139 925.999 319.74 925.774 372.097C925.569 419.614 927.076 446.638 920.106 493.641C913.647 537.192 907.991 556.184 893.26 603.136C878.529 650.089 874.34 657.96 857.902 685.652C842.811 711.074 829.788 725.082 810.646 742.493C791.946 759.502 775.825 790.702 775.825 790.702C775.825 790.702 724.573 800.312 687.736 800.312C650.899 800.312 639.964 801.277 612.461 800.312C574.826 798.99 617.266 804.352 497.145 790.702Z" fill="#E6E7E9"/>
<path d="M387.19 696.651C408.326 717.026 458.801 777.977 458.801 777.977C458.801 777.977 387.642 807.458 355.534 813.397C286.487 826.17 250.611 829.263 200.5 822.859C151.38 816.581 139.096 813.074 102.067 799.66C73.1049 789.167 64.4176 778.742 53.7217 757.915C47.15 745.119 45.9172 728.781 49.6972 703.843C54.358 673.096 72.1082 648.553 82.2855 639.497C103.218 620.872 110.281 617.325 136.192 608.49C177.509 594.401 212.887 600.588 251.876 614.538C282.823 625.612 297.869 631.717 327.259 650.71C349.788 665.269 366.053 676.277 387.19 696.651Z" fill="#504B4F"/>
</g>
<defs>
<clipPath id="clip0_77_1043">
<rect width="600" height="600" fill="white"/>
</clipPath>
</defs>
</svg>
