<svg width="600" height="600" viewBox="0 0 600 600" fill="none" xmlns="http://www.w3.org/2000/svg">
<g clip-path="url(#clip0_74_380)">
<path d="M466.129 190.845C534.277 186.703 708.385 243.97 708.385 243.97L659.925 977.724C659.925 977.724 460.826 1118.93 335.031 1055.79C266.949 1021.62 120.035 1029.6 186.794 1016.96C253.554 1004.32 205.593 917.111 268.463 893.072C268.463 893.072 152.086 817.273 205.593 804.314C259.1 791.355 291.29 806.901 335.031 772.879C335.031 772.879 178.59 687.097 253.67 678.574C328.751 670.051 303.662 635.762 386.807 595.364C386.807 595.364 99.805 623.337 187.102 602.761C274.398 582.184 285.875 503.235 322.634 469.302C322.634 469.302 109.189 551.456 187.102 495.512C265.015 439.568 332.825 317.085 433.554 287.873C433.554 287.873 242.133 317.893 292.811 287.873C370.375 241.927 395.296 195.15 466.129 190.845Z" fill="#A44809" stroke="#873B08" stroke-width="5"/>
<path d="M1010.55 205.638C942.402 201.496 768.294 258.763 768.294 258.763L816.753 992.517C816.753 992.517 1015.85 1133.73 1141.65 1070.59C1209.73 1036.42 1356.64 1044.4 1289.88 1031.76C1223.13 1019.12 1271.09 931.904 1208.22 907.865C1208.22 907.865 1324.59 832.066 1271.09 819.107C1217.58 806.148 1185.39 821.694 1141.65 787.672C1141.65 787.672 1298.09 701.89 1223.01 693.367C1147.93 684.844 1173.02 650.555 1089.87 610.157C1089.87 610.157 1376.87 638.13 1289.58 617.553C1202.28 596.976 1190.8 518.028 1154.04 484.095C1154.04 484.095 1367.49 566.249 1289.58 510.305C1211.66 454.36 1143.85 331.878 1043.12 302.666C1043.12 302.666 1234.55 332.685 1183.87 302.666C1106.3 256.72 1081.38 209.943 1010.55 205.638Z" fill="#A44809" stroke="#873B08" stroke-width="5"/>
<path d="M467.194 419.847C434.921 324.289 398.386 195.367 450.162 167.63C498.239 141.875 614.794 189.503 693.975 240.653L467.194 419.847Z" fill="#FEDDAA"/>
<path d="M467.194 419.847C434.921 324.289 398.386 195.367 450.162 167.63C498.239 141.875 614.794 189.503 693.975 240.653L467.194 419.847Z" stroke="#FEDDAA" stroke-width="5" stroke-linecap="round"/>
<path d="M467.194 419.847C434.921 324.289 398.386 195.367 450.162 167.63C498.239 141.875 614.794 189.503 693.975 240.653L467.194 419.847Z" stroke="black" stroke-opacity="0.2" stroke-width="5" stroke-linecap="round"/>
<path d="M497.613 383.059C475.488 317.546 450.44 229.159 485.937 210.143C518.897 192.486 598.805 225.139 653.09 260.207L497.613 383.059Z" fill="#F0B6C5"/>
<path d="M497.613 383.059C475.488 317.546 450.44 229.159 485.937 210.143C518.897 192.486 598.805 225.139 653.09 260.207L497.613 383.059Z" stroke="#FEDDAA" stroke-width="5" stroke-linecap="round"/>
<path d="M497.613 383.059C475.488 317.546 450.44 229.159 485.937 210.143C518.897 192.486 598.805 225.139 653.09 260.207L497.613 383.059Z" stroke="black" stroke-opacity="0.2" stroke-width="5" stroke-linecap="round"/>
<path d="M740.914 243.513C543.059 139.962 471.169 360.659 420.564 509.056C402.722 552.154 348.449 643.036 439.052 735.492C518.324 802.657 634.98 807.249 740.123 807.249C845.266 807.249 1206.44 820.552 1053.52 509.056C1002.91 360.659 929.524 145.51 740.914 243.513Z" fill="#FEDDAA"/>
<path d="M740.914 243.513C543.059 139.962 471.169 360.659 420.564 509.056C402.722 552.154 348.449 643.036 439.052 735.492C518.324 802.657 634.98 807.249 740.123 807.249C845.266 807.249 1206.44 820.552 1053.52 509.056C1002.91 360.659 929.524 145.51 740.914 243.513Z" stroke="#FEDDAA" stroke-width="5"/>
<path d="M740.914 243.513C543.059 139.962 471.169 360.659 420.564 509.056C402.722 552.154 348.449 643.036 439.052 735.492C518.324 802.657 634.98 807.249 740.123 807.249C845.266 807.249 1206.44 820.552 1053.52 509.056C1002.91 360.659 929.524 145.51 740.914 243.513Z" stroke="black" stroke-opacity="0.2" stroke-width="5"/>
<path d="M615.681 395.786C622.19 407.4 587.142 411.783 576.254 417.886C565.367 423.988 539.179 436.476 532.669 424.862C526.16 413.249 524.497 397.445 555.162 380.256C585.827 363.068 609.171 384.173 615.681 395.786Z" fill="#8D8B89" fill-opacity="0.8"/>
<ellipse cx="67.5757" cy="79.8997" rx="67.5757" ry="79.8997" transform="matrix(-0.953838 0.300322 0.215795 0.976439 632.318 433.749)" fill="black" stroke="#504B4F"/>
<ellipse cx="19.2259" cy="16.4777" rx="19.2259" ry="16.4777" transform="matrix(-0.82516 0.564899 0.575712 0.817653 568.144 479.749)" fill="white" stroke="#504B4F"/>
<path d="M689.998 221.458C714.433 230.134 743.028 261.412 743.028 261.412C743.028 261.412 754.499 240.871 766.274 232.355C785.21 218.658 801.772 220.357 825.116 221.458C843.743 222.336 871.608 232.355 871.608 232.355C871.608 232.355 901.408 202.462 917.373 180.777C927.217 167.408 940.619 145.182 940.619 145.182C911.961 134.894 890.531 140.545 865.07 149.54C875.857 130.917 884.724 123.799 903.571 114.671C903.571 114.671 878.217 112.729 862.164 114.671C847.408 116.457 825.116 123.389 825.116 123.389L852.72 79.0759C852.72 79.0759 835.737 77.233 825.116 79.0759C796.773 83.9935 766.274 123.389 766.274 123.389V98.6898L782.982 66C782.982 66 756.071 69.1057 743.028 79.0759C727.288 91.1075 718.329 123.389 718.329 123.389C701.933 94.2512 686.208 85.0544 648.591 79.0759L659.487 123.389C631.098 104.769 611.883 105.44 575.221 114.671L615.901 145.182C583.006 133.404 565.115 134.56 533.813 145.182C533.813 145.182 552.786 175.13 570.135 190.948C585.196 204.678 615.901 221.458 615.901 221.458C615.901 221.458 662.729 211.776 689.998 221.458Z" fill="#A44809"/>
<path d="M689.998 221.458C714.433 230.134 743.028 261.412 743.028 261.412C743.028 261.412 754.499 240.871 766.274 232.355C785.21 218.658 801.772 220.357 825.116 221.458C843.743 222.336 871.608 232.355 871.608 232.355C871.608 232.355 901.408 202.462 917.373 180.777C927.217 167.408 940.619 145.182 940.619 145.182C911.961 134.894 890.531 140.545 865.07 149.54C875.857 130.917 884.724 123.799 903.571 114.671C903.571 114.671 878.217 112.729 862.164 114.671C847.408 116.457 825.116 123.389 825.116 123.389L852.72 79.0759C852.72 79.0759 835.737 77.233 825.116 79.0759C796.773 83.9935 766.274 123.389 766.274 123.389V98.6898L782.982 66C782.982 66 756.071 69.1057 743.028 79.0759C727.288 91.1075 718.329 123.389 718.329 123.389C701.933 94.2512 686.208 85.0544 648.591 79.0759L659.487 123.389C631.098 104.769 611.883 105.44 575.221 114.671L615.901 145.182C583.006 133.404 565.115 134.56 533.813 145.182C533.813 145.182 552.786 175.13 570.135 190.948C585.196 204.678 615.901 221.458 615.901 221.458C615.901 221.458 662.729 211.776 689.998 221.458Z" stroke="#A44809" stroke-width="5"/>
<path d="M689.998 221.458C714.433 230.134 743.028 261.412 743.028 261.412C743.028 261.412 754.499 240.871 766.274 232.355C785.21 218.658 801.772 220.357 825.116 221.458C843.743 222.336 871.608 232.355 871.608 232.355C871.608 232.355 901.408 202.462 917.373 180.777C927.217 167.408 940.619 145.182 940.619 145.182C911.961 134.894 890.531 140.545 865.07 149.54C875.857 130.917 884.724 123.799 903.571 114.671C903.571 114.671 878.217 112.729 862.164 114.671C847.408 116.457 825.116 123.389 825.116 123.389L852.72 79.0759C852.72 79.0759 835.737 77.233 825.116 79.0759C796.773 83.9935 766.274 123.389 766.274 123.389V98.6898L782.982 66C782.982 66 756.071 69.1057 743.028 79.0759C727.288 91.1075 718.329 123.389 718.329 123.389C701.933 94.2512 686.208 85.0544 648.591 79.0759L659.487 123.389C631.098 104.769 611.883 105.44 575.221 114.671L615.901 145.182C583.006 133.404 565.115 134.56 533.813 145.182C533.813 145.182 552.786 175.13 570.135 190.948C585.196 204.678 615.901 221.458 615.901 221.458C615.901 221.458 662.729 211.776 689.998 221.458Z" stroke="black" stroke-opacity="0.2" stroke-width="5"/>
</g>
<defs>
<clipPath id="clip0_74_380">
<rect width="600" height="600" fill="white"/>
</clipPath>
</defs>
</svg>
