<svg width="600" height="600" viewBox="0 0 600 600" fill="none" xmlns="http://www.w3.org/2000/svg">
<g clip-path="url(#clip0_74_904)">
<path d="M108.971 654.99C24.4449 636.849 -23.8011 612.726 -89.0294 555.99C-124.93 622.268 -169.929 651.14 -180.958 725.705C-193.013 807.204 -185.575 868.658 -131.458 930.777C-72.9445 997.943 -3.72058 990.835 84.2211 1005.03C205.916 1024.67 276.019 990.054 398.9 980.277C519.037 970.718 586.61 943.332 706.508 955.527C791.144 964.135 847.383 958.572 918.652 1005.03C965.282 1035.42 986.956 1061.13 1017.65 1107.56C1053.57 1161.89 1073.93 1198.12 1077.76 1263.13C1081.16 1320.99 1073.26 1356.98 1045.94 1408.1C1138.45 1441.24 1212.05 1424.79 1282.83 1492.96C1334.9 1543.1 1357.47 1584.63 1371.22 1655.6C1384.98 1726.56 1358.29 1767.66 1350.01 1839.46C1425.83 1866.34 1468.08 1901.09 1509.12 1970.28C1556.03 2049.39 1563.07 2114.36 1540.94 2203.64C1513.63 2313.83 1447.99 2365.51 1350.01 2422.85C1240.1 2487.17 1155.6 2474.47 1028.26 2475.89C863.886 2477.72 776.132 2428.48 614.58 2398.1L243.329 2475.89C243.329 2475.89 -15.5815 2514.73 -180.958 2500.64C-325.862 2488.29 -417.014 2491.66 -545.138 2422.85C-635.009 2374.59 -691.001 2342.15 -746.674 2256.67C-800.088 2174.66 -812.641 2114 -817.389 2016.24C-820.762 1946.79 -825.86 1902.34 -796.174 1839.46C-772.324 1788.94 -740.146 1772.65 -704.245 1729.85C-739.33 1651.51 -749.469 1599.97 -746.674 1514.17C-744.275 1440.52 -746.505 1390.68 -704.245 1330.31C-657.391 1263.38 -626.16 1244.47 -545.138 1233.97C-554.592 1192.89 -562.416 1170.39 -580.495 1132.31C-639.905 1007.18 -622.58 916.571 -608.781 778.74C-595.498 646.067 -578.556 568.119 -516.852 449.918C-437.284 297.497 -361.477 220.316 -216.315 128.167C-120.186 67.1446 -59.5227 35.9549 52.3995 15.0241C177.451 -8.36205 256.463 -5.89499 377.686 32.7027C455.946 57.6207 487.183 102.137 565.079 128.167C609.548 143.027 646.111 125.998 681.758 156.453C718.019 187.432 698.805 231.671 727.723 269.596C758.87 310.444 791.8 317.799 833.795 347.382C887.755 385.394 908.969 417.215 930.183 477.323C943.51 515.083 940.791 553.781 918.652 580.74C890.706 614.77 871.233 631.809 833.795 654.99C759.176 701.193 702.301 701.735 614.58 704.49C503.055 707.993 446.582 651.912 335.257 644.383C246.992 638.414 195.469 673.554 108.971 654.99Z" fill="#C6A67D"/>
<path d="M-145.601 372.132C-169.598 455.96 -156.001 500.153 -89.0294 555.99M-89.0294 555.99C-23.8011 612.726 24.4449 636.849 108.971 654.99C195.469 673.554 246.992 638.414 335.257 644.383C446.582 651.912 503.055 707.993 614.58 704.49C702.301 701.735 759.176 701.193 833.795 654.99C871.233 631.809 890.706 614.77 918.652 580.74M-89.0294 555.99C-124.93 622.268 -169.929 651.14 -180.958 725.705C-193.013 807.204 -185.575 868.658 -131.458 930.777C-72.9445 997.943 -3.7206 990.835 84.221 1005.03C205.916 1024.67 276.019 990.054 398.9 980.277C519.037 970.718 586.61 943.332 706.508 955.527C791.144 964.135 847.383 958.572 918.652 1005.03C965.282 1035.42 986.956 1061.13 1017.65 1107.56C1053.57 1161.89 1073.93 1198.12 1077.76 1263.13C1081.16 1320.99 1073.26 1356.98 1045.94 1408.1M918.652 580.74C908.969 555.99 859.469 533.894 827.647 541.847C789.735 551.322 792.201 590.883 759.544 609.026C700.4 641.883 650.861 625.823 586.294 609.026C494.516 585.149 473.33 578.055 385.682 541.847M918.652 580.74C940.791 553.781 943.511 515.083 930.183 477.323C908.969 417.215 887.755 385.394 833.795 347.382C791.8 317.799 758.869 310.444 727.723 269.596C698.805 231.671 718.019 187.432 681.758 156.453C646.111 125.998 609.548 143.027 565.079 128.167C487.183 102.137 455.946 57.6207 377.686 32.7027C256.463 -5.89499 177.451 -8.36205 52.3995 15.0241C-59.5227 35.9549 -120.186 67.1446 -216.316 128.167C-361.477 220.316 -437.284 297.497 -516.852 449.918C-578.556 568.119 -595.498 646.067 -608.781 778.74C-622.58 916.571 -639.905 1007.18 -580.495 1132.31C-562.416 1170.39 -554.592 1192.89 -545.138 1233.97M1045.94 1408.1C921.667 1417.76 850.997 1414.41 727.723 1432.85C588.928 1453.61 516.437 1493.12 377.686 1514.17C185.023 1543.4 68.549 1581.22 -120.851 1535.39C-241.037 1506.3 -322.476 1494.66 -410.78 1408.1C-470.985 1349.08 -503.321 1307.17 -545.138 1233.97M1045.94 1408.1C1138.45 1441.24 1212.05 1424.79 1282.83 1492.96C1334.9 1543.1 1357.47 1584.63 1371.22 1655.6C1384.98 1726.56 1358.29 1767.66 1350.01 1839.46M1350.01 1839.46C1258.88 1825.65 1208.8 1806.06 1116.65 1804.1C1009.46 1801.83 948.914 1815.54 844.402 1839.46C789.86 1851.94 759.496 1860.38 706.508 1878.35C680.031 1887.33 665.304 1892.76 639.33 1903.1M1350.01 1839.46C1425.83 1866.34 1468.08 1901.09 1509.12 1970.28C1556.03 2049.39 1563.07 2114.36 1540.94 2203.64C1513.63 2313.83 1447.99 2365.51 1350.01 2422.85C1240.1 2487.17 1155.6 2474.47 1028.26 2475.89C863.886 2477.72 776.132 2428.48 614.58 2398.1M639.33 1903.1C748.412 1925.19 807.375 1957.57 918.652 1959.67C975.405 1960.74 1063.62 1949.07 1063.62 1949.07M639.33 1903.1C502.632 1887.91 426.589 1856.03 289.293 1864.21C128.144 1873.8 50.8789 1960.26 -110.244 1970.28C-161.234 1973.45 -190.075 1973.45 -241.066 1970.28M-704.245 1729.85C-655.918 1787.84 -639.905 1831.78 -580.495 1878.35C-510.432 1933.28 -459.906 1956.92 -371.887 1970.28C-321.376 1977.94 -292.155 1970.28 -241.066 1970.28M-704.245 1729.85C-739.33 1651.51 -749.469 1599.97 -746.674 1514.17C-744.275 1440.52 -746.505 1390.68 -704.245 1330.31C-657.391 1263.38 -626.16 1244.47 -545.138 1233.97M-704.245 1729.85C-740.146 1772.65 -772.324 1788.94 -796.174 1839.46C-825.86 1902.34 -820.762 1946.79 -817.389 2016.24C-812.641 2114 -800.088 2174.66 -746.674 2256.67C-691.001 2342.15 -635.009 2374.59 -545.138 2422.85C-417.014 2491.66 -325.862 2488.29 -180.958 2500.64C-15.5815 2514.73 243.329 2475.89 243.329 2475.89C243.329 2475.89 469.597 2428.48 614.58 2398.1M614.58 2398.1C498.594 2347.01 431.745 2322.32 317.579 2267.28C215.216 2217.93 159.877 2186.14 59.471 2132.92C-58.4435 2070.43 -123.699 2033.8 -241.066 1970.28" stroke="#C6A67D" stroke-width="5"/>
<path d="M-145.601 372.132C-169.598 455.96 -156.001 500.153 -89.0294 555.99M-89.0294 555.99C-23.8011 612.726 24.4449 636.849 108.971 654.99C195.469 673.554 246.992 638.414 335.257 644.383C446.582 651.912 503.055 707.993 614.58 704.49C702.301 701.735 759.176 701.193 833.795 654.99C871.233 631.809 890.706 614.77 918.652 580.74M-89.0294 555.99C-124.93 622.268 -169.929 651.14 -180.958 725.705C-193.013 807.204 -185.575 868.658 -131.458 930.777C-72.9445 997.943 -3.7206 990.835 84.221 1005.03C205.916 1024.67 276.019 990.054 398.9 980.277C519.037 970.718 586.61 943.332 706.508 955.527C791.144 964.135 847.383 958.572 918.652 1005.03C965.282 1035.42 986.956 1061.13 1017.65 1107.56C1053.57 1161.89 1073.93 1198.12 1077.76 1263.13C1081.16 1320.99 1073.26 1356.98 1045.94 1408.1M918.652 580.74C908.969 555.99 859.469 533.894 827.647 541.847C789.735 551.322 792.201 590.883 759.544 609.026C700.4 641.883 650.861 625.823 586.294 609.026C494.516 585.149 473.33 578.055 385.682 541.847M918.652 580.74C940.791 553.781 943.511 515.083 930.183 477.323C908.969 417.215 887.755 385.394 833.795 347.382C791.8 317.799 758.869 310.444 727.723 269.596C698.805 231.671 718.019 187.432 681.758 156.453C646.111 125.998 609.548 143.027 565.079 128.167C487.183 102.137 455.946 57.6207 377.686 32.7027C256.463 -5.89499 177.451 -8.36205 52.3995 15.0241C-59.5227 35.9549 -120.186 67.1446 -216.316 128.167C-361.477 220.316 -437.284 297.497 -516.852 449.918C-578.556 568.119 -595.498 646.067 -608.781 778.74C-622.58 916.571 -639.905 1007.18 -580.495 1132.31C-562.416 1170.39 -554.592 1192.89 -545.138 1233.97M1045.94 1408.1C921.667 1417.76 850.997 1414.41 727.723 1432.85C588.928 1453.61 516.437 1493.12 377.686 1514.17C185.023 1543.4 68.549 1581.22 -120.851 1535.39C-241.037 1506.3 -322.476 1494.66 -410.78 1408.1C-470.985 1349.08 -503.321 1307.17 -545.138 1233.97M1045.94 1408.1C1138.45 1441.24 1212.05 1424.79 1282.83 1492.96C1334.9 1543.1 1357.47 1584.63 1371.22 1655.6C1384.98 1726.56 1358.29 1767.66 1350.01 1839.46M1350.01 1839.46C1258.88 1825.65 1208.8 1806.06 1116.65 1804.1C1009.46 1801.83 948.914 1815.54 844.402 1839.46C789.86 1851.94 759.496 1860.38 706.508 1878.35C680.031 1887.33 665.304 1892.76 639.33 1903.1M1350.01 1839.46C1425.83 1866.34 1468.08 1901.09 1509.12 1970.28C1556.03 2049.39 1563.07 2114.36 1540.94 2203.64C1513.63 2313.83 1447.99 2365.51 1350.01 2422.85C1240.1 2487.17 1155.6 2474.47 1028.26 2475.89C863.886 2477.72 776.132 2428.48 614.58 2398.1M639.33 1903.1C748.412 1925.19 807.375 1957.57 918.652 1959.67C975.405 1960.74 1063.62 1949.07 1063.62 1949.07M639.33 1903.1C502.632 1887.91 426.589 1856.03 289.293 1864.21C128.144 1873.8 50.8789 1960.26 -110.244 1970.28C-161.234 1973.45 -190.075 1973.45 -241.066 1970.28M-704.245 1729.85C-655.918 1787.84 -639.905 1831.78 -580.495 1878.35C-510.432 1933.28 -459.906 1956.92 -371.887 1970.28C-321.376 1977.94 -292.155 1970.28 -241.066 1970.28M-704.245 1729.85C-739.33 1651.51 -749.469 1599.97 -746.674 1514.17C-744.275 1440.52 -746.505 1390.68 -704.245 1330.31C-657.391 1263.38 -626.16 1244.47 -545.138 1233.97M-704.245 1729.85C-740.146 1772.65 -772.324 1788.94 -796.174 1839.46C-825.86 1902.34 -820.762 1946.79 -817.389 2016.24C-812.641 2114 -800.088 2174.66 -746.674 2256.67C-691.001 2342.15 -635.009 2374.59 -545.138 2422.85C-417.014 2491.66 -325.862 2488.29 -180.958 2500.64C-15.5815 2514.73 243.329 2475.89 243.329 2475.89C243.329 2475.89 469.597 2428.48 614.58 2398.1M614.58 2398.1C498.594 2347.01 431.745 2322.32 317.579 2267.28C215.216 2217.93 159.877 2186.14 59.471 2132.92C-58.4435 2070.43 -123.699 2033.8 -241.066 1970.28" stroke="black" stroke-opacity="0.2" stroke-width="5"/>
<ellipse cx="368.001" cy="311.144" rx="91.9288" ry="99.0003" fill="#5F4129" stroke="black"/>
<path d="M392.75 307.611C392.75 348.618 394.598 381.861 375.071 381.861C355.544 381.861 339.714 339.727 339.714 307.611C339.714 275.495 355.544 233.361 375.071 233.361C394.598 233.361 392.75 266.604 392.75 307.611Z" fill="#351902"/>
<path d="M352.847 289.655C343.252 298.411 320.143 322.006 306.979 307.583C293.815 293.159 293.373 272.132 317.094 250.481C340.816 228.831 354.911 234.64 364.465 250.481C372.706 264.145 371.538 272.596 352.847 289.655Z" fill="#FCFEFF" fill-opacity="0.75"/>
</g>
<defs>
<clipPath id="clip0_74_904">
<rect width="600" height="600" fill="white"/>
</clipPath>
</defs>
</svg>
