<svg width="600" height="600" viewBox="0 0 600 600" fill="none" xmlns="http://www.w3.org/2000/svg">
<g clip-path="url(#clip0_78_1116)">
<path d="M-214.63 -634.56C-228.507 -602.875 -463.174 -59.8347 -273.46 173.095C-67.5796 425.874 741.255 457.973 907.912 173.095C1074.57 -111.784 849.109 -610.384 834.382 -634.56C834.382 -634.56 -202.938 -661.254 -214.63 -634.56Z" fill="#6EA71B"/>
<path d="M-214.63 -634.56C-228.507 -602.875 -463.174 -59.8347 -273.46 173.095C-67.5796 425.874 741.255 457.973 907.912 173.095C1074.57 -111.784 849.109 -610.384 834.382 -634.56C834.382 -634.56 -202.938 -661.254 -214.63 -634.56Z" stroke="#6EA71B" stroke-width="5"/>
<path d="M-214.63 -634.56C-228.507 -602.875 -463.174 -59.8347 -273.46 173.095C-67.5796 425.874 741.255 457.973 907.912 173.095C1074.57 -111.784 849.109 -610.384 834.382 -634.56C834.382 -634.56 -202.938 -661.254 -214.63 -634.56Z" stroke="black" stroke-opacity="0.2" stroke-width="5"/>
<path d="M-76.5665 -527.203C-86.7471 -498.805 -258.906 -12.09 -119.726 196.679C31.3138 423.24 624.699 452.009 746.963 196.679C869.228 -58.6506 703.824 -505.535 693.019 -527.203C693.019 -527.203 -67.9895 -551.128 -76.5665 -527.203Z" fill="#BCEB3B" stroke="#547D18" stroke-width="5"/>
<path d="M595.913 -58.653C595.913 183.654 469.801 360.508 310.911 360.508C152.021 360.508 20.5215 183.654 20.5215 -58.653C20.5215 -300.96 175.877 -443.272 308.217 -497.389C434.803 -439.406 595.913 -300.96 595.913 -58.653Z" fill="#FFF079"/>
<path d="M595.913 -58.653C595.913 183.654 469.801 360.508 310.911 360.508C152.021 360.508 20.5215 183.654 20.5215 -58.653C20.5215 -300.96 175.877 -443.272 308.217 -497.389C434.803 -439.406 595.913 -300.96 595.913 -58.653Z" stroke="#FFF079" stroke-width="5"/>
<path d="M595.913 -58.653C595.913 183.654 469.801 360.508 310.911 360.508C152.021 360.508 20.5215 183.654 20.5215 -58.653C20.5215 -300.96 175.877 -443.272 308.217 -497.389C434.803 -439.406 595.913 -300.96 595.913 -58.653Z" stroke="black" stroke-opacity="0.2" stroke-width="5"/>
<path d="M310.842 -380.309L307.316 338.93" stroke="#A9AD5B" stroke-opacity="0.8" stroke-width="5" stroke-linecap="round"/>
<path d="M577.034 -13.4946C361.483 44.2041 247.928 44.1794 41.2011 -13.4942" stroke="#A9AD5B" stroke-opacity="0.8" stroke-width="5" stroke-linecap="round"/>
<path d="M512.297 209.468C364.853 259.815 256.967 259.814 105.927 209.467" stroke="#A9AD5B" stroke-opacity="0.8" stroke-width="5" stroke-linecap="round"/>
<path d="M1019.48 284.78C959.551 421.151 822.526 492.834 713.43 444.889C604.333 396.943 564.476 247.525 624.408 111.154C684.34 -25.2167 821.364 -96.9 930.461 -48.9547C1039.56 -1.00942 1079.41 148.409 1019.48 284.78Z" fill="#B5E925"/>
<path d="M1019.48 284.78C959.551 421.151 822.526 492.834 713.43 444.889C604.333 396.943 564.476 247.525 624.408 111.154C684.34 -25.2167 821.364 -96.9 930.461 -48.9547C1039.56 -1.00942 1079.41 148.409 1019.48 284.78Z" stroke="#B5E925" stroke-width="5"/>
<path d="M1019.48 284.78C959.551 421.151 822.526 492.834 713.43 444.889C604.333 396.943 564.476 247.525 624.408 111.154C684.34 -25.2167 821.364 -96.9 930.461 -48.9547C1039.56 -1.00942 1079.41 148.409 1019.48 284.78Z" stroke="black" stroke-opacity="0.2" stroke-width="5"/>
<path d="M-418.484 277.587C-358.552 413.958 -221.527 485.641 -112.431 437.696C-3.33373 389.751 36.5226 240.333 -23.409 103.962C-83.3406 -32.4096 -220.365 -104.093 -329.462 -56.1476C-438.559 -8.2023 -478.415 141.216 -418.484 277.587Z" fill="#B5E925"/>
<path d="M-418.484 277.587C-358.552 413.958 -221.527 485.641 -112.431 437.696C-3.33373 389.751 36.5226 240.333 -23.409 103.962C-83.3406 -32.4096 -220.365 -104.093 -329.462 -56.1476C-438.559 -8.2023 -478.415 141.216 -418.484 277.587Z" stroke="#B5E925" stroke-width="5"/>
<path d="M-418.484 277.587C-358.552 413.958 -221.527 485.641 -112.431 437.696C-3.33373 389.751 36.5226 240.333 -23.409 103.962C-83.3406 -32.4096 -220.365 -104.093 -329.462 -56.1476C-438.559 -8.2023 -478.415 141.216 -418.484 277.587Z" stroke="black" stroke-opacity="0.2" stroke-width="5"/>
<path d="M448.116 597.677C449.736 598.559 451.619 596.982 450.978 595.252L372.498 383.513C372.175 382.641 371.282 382.109 370.359 382.223C319.337 388.53 284.886 384.915 231.973 372.211C230.394 371.832 229.042 373.419 229.65 374.924C273.971 484.654 330.13 533.469 448.116 597.677Z" fill="#BCEB3B" stroke="#547D18" stroke-width="5"/>
<path d="M535.771 -41.0686C549.035 -49.7946 566.862 -46.1157 575.588 -32.8517C584.314 -19.5876 580.635 -1.76119 567.371 6.96475C554.107 15.6907 527.394 17.8577 518.668 4.59365C509.942 -8.6704 522.507 -32.3427 535.771 -41.0686Z" fill="#0A0A40"/>
<path d="M535.771 -41.0686C549.035 -49.7946 566.862 -46.1157 575.588 -32.8517C584.314 -19.5876 580.635 -1.76119 567.371 6.96475C554.107 15.6907 527.394 17.8577 518.668 4.59365C509.942 -8.6704 522.507 -32.3427 535.771 -41.0686Z" fill="#0A0A40"/>
<path d="M535.771 -41.0686C549.035 -49.7946 566.862 -46.1157 575.588 -32.8517C584.314 -19.5876 580.635 -1.76119 567.371 6.96475C554.107 15.6907 527.394 17.8577 518.668 4.59365C509.942 -8.6704 522.507 -32.3427 535.771 -41.0686Z" fill="#0A0A40"/>
<path d="M86.0588 -41.0686C72.7948 -49.7946 54.9684 -46.1157 46.2424 -32.8517C37.5165 -19.5876 41.1954 -1.76119 54.4594 6.96475C67.7235 15.6907 94.4361 17.8577 103.162 4.59365C111.888 -8.6704 99.3229 -32.3427 86.0588 -41.0686Z" fill="#0A0A40"/>
<path d="M86.0588 -41.0686C72.7948 -49.7946 54.9684 -46.1157 46.2424 -32.8517C37.5165 -19.5876 41.1954 -1.76119 54.4594 6.96475C67.7235 15.6907 94.4361 17.8577 103.162 4.59365C111.888 -8.6704 99.3229 -32.3427 86.0588 -41.0686Z" fill="#0A0A40"/>
<path d="M86.0588 -41.0686C72.7948 -49.7946 54.9684 -46.1157 46.2424 -32.8517C37.5165 -19.5876 41.1954 -1.76119 54.4594 6.96475C67.7235 15.6907 94.4361 17.8577 103.162 4.59365C111.888 -8.6704 99.3229 -32.3427 86.0588 -41.0686Z" fill="#0A0A40"/>
</g>
<defs>
<clipPath id="clip0_78_1116">
<rect width="600" height="600" fill="white"/>
</clipPath>
</defs>
</svg>
