<svg width="600" height="600" viewBox="0 0 600 600" fill="none" xmlns="http://www.w3.org/2000/svg">
<g clip-path="url(#clip0_74_178)">
<path d="M180.201 -159.93C135.52 94.9251 171.395 215.284 330.585 394.755" stroke="#7E5444" stroke-width="10" stroke-linecap="round"/>
<path d="M178.455 109.458C313.019 55.3753 353.789 9.3606 372.327 -97.2328" stroke="#7E5444" stroke-width="10" stroke-linecap="round"/>
<path d="M42.6169 -11.0481C37.2381 102.901 70.2335 145.133 185.355 186.619" stroke="#7E5444" stroke-width="10" stroke-linecap="round"/>
<path d="M667.325 -159.927C712.007 94.928 676.131 215.287 516.942 394.758" stroke="#7E5444" stroke-width="10" stroke-linecap="round"/>
<path d="M669.066 109.461C534.502 55.3782 493.732 9.36353 475.195 -97.2299" stroke="#7E5444" stroke-width="10" stroke-linecap="round"/>
<path d="M-13.3742 691.054C-65.2624 537.412 -124.004 330.128 -40.7583 285.532C36.5413 244.122 223.941 320.7 351.251 402.941L-13.3742 691.054Z" fill="#A2704B"/>
<path d="M-13.3742 691.054C-65.2624 537.412 -124.004 330.128 -40.7583 285.532C36.5413 244.122 223.941 320.7 351.251 402.941L-13.3742 691.054Z" stroke="#A2704B" stroke-width="5" stroke-linecap="round"/>
<path d="M-13.3742 691.054C-65.2624 537.412 -124.004 330.128 -40.7583 285.532C36.5413 244.122 223.941 320.7 351.251 402.941L-13.3742 691.054Z" stroke="black" stroke-opacity="0.2" stroke-width="5" stroke-linecap="round"/>
<path d="M35.5328 625.958C-0.0408169 520.624 -40.3133 378.514 16.7588 347.94C69.7539 319.55 198.232 372.05 285.513 428.433L35.5328 625.958Z" fill="#C38F68"/>
<path d="M35.5328 625.958C-0.0408169 520.624 -40.3133 378.514 16.7588 347.94C69.7539 319.55 198.232 372.05 285.513 428.433L35.5328 625.958Z" fill="#C38F68"/>
<path d="M35.5328 625.958C-0.0408169 520.624 -40.3133 378.514 16.7588 347.94C69.7539 319.55 198.232 372.05 285.513 428.433L35.5328 625.958Z" stroke="#A2704B" stroke-width="5" stroke-linecap="round"/>
<path d="M35.5328 625.958C-0.0408169 520.624 -40.3133 378.514 16.7588 347.94C69.7539 319.55 198.232 372.05 285.513 428.433L35.5328 625.958Z" stroke="black" stroke-opacity="0.2" stroke-width="5" stroke-linecap="round"/>
<path d="M883.209 691.349C935.097 537.707 993.839 330.423 910.593 285.828C833.294 244.418 645.894 320.996 518.584 403.236L883.209 691.349Z" fill="#A2704B"/>
<path d="M883.209 691.349C935.097 537.707 993.839 330.423 910.593 285.828C833.294 244.418 645.894 320.996 518.584 403.236L883.209 691.349Z" stroke="#A2704B" stroke-width="5" stroke-linecap="round"/>
<path d="M883.209 691.349C935.097 537.707 993.839 330.423 910.593 285.828C833.294 244.418 645.894 320.996 518.584 403.236L883.209 691.349Z" stroke="black" stroke-opacity="0.2" stroke-width="5" stroke-linecap="round"/>
<path d="M832.797 625.96C868.371 520.626 908.643 378.516 851.571 347.942C798.576 319.552 670.098 372.053 582.817 428.435L832.797 625.96Z" fill="#C38F68"/>
<path d="M832.797 625.96C868.371 520.626 908.643 378.516 851.571 347.942C798.576 319.552 670.098 372.053 582.817 428.435L832.797 625.96Z" fill="#C38F68"/>
<path d="M832.797 625.96C868.371 520.626 908.643 378.516 851.571 347.942C798.576 319.552 670.098 372.053 582.817 428.435L832.797 625.96Z" stroke="#A2704B" stroke-width="5" stroke-linecap="round"/>
<path d="M832.797 625.96C868.371 520.626 908.643 378.516 851.571 347.942C798.576 319.552 670.098 372.053 582.817 428.435L832.797 625.96Z" stroke="black" stroke-opacity="0.2" stroke-width="5" stroke-linecap="round"/>
<path d="M425.449 389.287C142.997 389.287 -6.98125 595.889 -88.3466 834.484C-117.033 903.78 -204.295 1049.9 -58.6204 1198.56C68.8358 1306.54 256.397 1313.93 425.449 1313.93C594.501 1313.93 1175.21 1335.32 929.333 834.484C847.968 595.889 707.901 389.287 425.449 389.287Z" fill="#A2704B"/>
<path d="M425.449 389.287C142.997 389.287 -6.98125 595.889 -88.3466 834.484C-117.033 903.78 -204.295 1049.9 -58.6204 1198.56C68.8358 1306.54 256.397 1313.93 425.449 1313.93C594.501 1313.93 1175.21 1335.32 929.333 834.484C847.968 595.889 707.901 389.287 425.449 389.287Z" stroke="#A2704B" stroke-width="5"/>
<path d="M425.449 389.287C142.997 389.287 -6.98125 595.889 -88.3466 834.484C-117.033 903.78 -204.295 1049.9 -58.6204 1198.56C68.8358 1306.54 256.397 1313.93 425.449 1313.93C594.501 1313.93 1175.21 1335.32 929.333 834.484C847.968 595.889 707.901 389.287 425.449 389.287Z" stroke="black" stroke-opacity="0.2" stroke-width="5"/>
<path d="M240.465 665.029C240.465 686.434 187.863 665.029 167.795 665.029C147.728 665.029 101.182 661.955 101.182 640.549C101.182 619.144 111.275 595.671 167.795 595.671C224.316 595.671 240.465 643.623 240.465 665.029Z" fill="#C19B80" fill-opacity="0.8"/>
</g>
<defs>
<clipPath id="clip0_74_178">
<rect width="600" height="600" fill="white"/>
</clipPath>
</defs>
</svg>
