<svg width="600" height="600" viewBox="0 0 600 600" fill="none" xmlns="http://www.w3.org/2000/svg">
<g clip-path="url(#clip0_74_39)">
<path d="M477.52 500.022C318.545 679.503 803.67 433.44 1014.04 444.321C1100.26 448.78 1147.57 476.27 1233.65 469.697C1349.12 460.881 1628.81 372.483 1513.79 372.483C1432.42 372.483 1351.86 215.286 1212.02 155.352C1078.89 98.3004 971.607 103.919 830.101 215.286C781.772 253.322 935.534 16.2707 1057.43 -32.8272C1267.22 -117.323 938.436 -97.0239 855.038 -102.261C577.992 -119.657 557.933 409.238 477.52 500.022Z" fill="#121111"/>
<path d="M477.52 500.022C318.545 679.503 803.67 433.44 1014.04 444.321C1100.26 448.78 1147.57 476.27 1233.65 469.697C1349.12 460.881 1628.81 372.483 1513.79 372.483C1432.42 372.483 1351.86 215.286 1212.02 155.352C1078.89 98.3004 971.607 103.919 830.101 215.286C781.772 253.322 935.534 16.2707 1057.43 -32.8272C1267.22 -117.323 938.436 -97.0239 855.038 -102.261C577.992 -119.657 557.933 409.238 477.52 500.022Z" stroke="#121111" stroke-width="5"/>
<path d="M477.52 500.022C318.545 679.503 803.67 433.44 1014.04 444.321C1100.26 448.78 1147.57 476.27 1233.65 469.697C1349.12 460.881 1628.81 372.483 1513.79 372.483C1432.42 372.483 1351.86 215.286 1212.02 155.352C1078.89 98.3004 971.607 103.919 830.101 215.286C781.772 253.322 935.534 16.2707 1057.43 -32.8272C1267.22 -117.323 938.436 -97.0239 855.038 -102.261C577.992 -119.657 557.933 409.238 477.52 500.022Z" stroke="black" stroke-opacity="0.2" stroke-width="5"/>
<path d="M694.032 234.359C637.202 251.984 572.586 326.364 572.586 326.364L543.145 826.869C543.145 826.869 721.917 759.994 826.519 698.063C849.853 684.248 865.106 679.245 885.402 661.261C963.749 591.838 975.05 486.362 947.965 385.247C928.769 313.58 894.541 263.985 826.519 234.359C779.083 213.7 743.45 219.033 694.032 234.359Z" fill="white"/>
<path d="M694.032 234.359C637.202 251.984 572.586 326.364 572.586 326.364L543.145 826.869C543.145 826.869 721.917 759.994 826.519 698.063C849.853 684.248 865.106 679.245 885.402 661.261C963.749 591.838 975.05 486.362 947.965 385.247C928.769 313.58 894.541 263.985 826.519 234.359C779.083 213.7 743.45 219.033 694.032 234.359Z" stroke="white" stroke-width="5"/>
<path d="M694.032 234.359C637.202 251.984 572.586 326.364 572.586 326.364L543.145 826.869C543.145 826.869 721.917 759.994 826.519 698.063C849.853 684.248 865.106 679.245 885.402 661.261C963.749 591.838 975.05 486.362 947.965 385.247C928.769 313.58 894.541 263.985 826.519 234.359C779.083 213.7 743.45 219.033 694.032 234.359Z" stroke="black" stroke-opacity="0.2" stroke-width="5"/>
<path d="M-203.927 -8.45183C-214.345 20.6099 -390.525 518.692 -248.095 732.337C-93.5271 964.189 513.717 993.631 638.837 732.337C763.957 471.044 594.69 13.7227 583.633 -8.45183C583.633 -8.45183 -195.15 -32.9359 -203.927 -8.45183Z" fill="white"/>
<path d="M-203.927 -8.45183C-214.345 20.6099 -390.525 518.692 -248.095 732.337C-93.5271 964.189 513.717 993.631 638.837 732.337C763.957 471.044 594.69 13.7227 583.633 -8.45183C583.633 -8.45183 -195.15 -32.9359 -203.927 -8.45183Z" stroke="white" stroke-width="5"/>
<path d="M-203.927 -8.45183C-214.345 20.6099 -390.525 518.692 -248.095 732.337C-93.5271 964.189 513.717 993.631 638.837 732.337C763.957 471.044 594.69 13.7227 583.633 -8.45183C583.633 -8.45183 -195.15 -32.9359 -203.927 -8.45183Z" stroke="black" stroke-opacity="0.2" stroke-width="5"/>
<path d="M-276.607 371.456H661.841L665.521 459.781H-283.968L-276.607 371.456Z" fill="#1C1C1C"/>
<path d="M-276.607 371.456H661.841L665.521 459.781H-283.968L-276.607 371.456Z" fill="#1C1C1C"/>
<path d="M-251.859 687.951H639.757C649.953 652.059 655.266 632.208 658.158 599.626H-277.594C-271.184 634.433 -267.062 653.829 -251.859 687.951Z" fill="#1C1C1C"/>
<path d="M-251.859 687.951H639.757C649.953 652.059 655.266 632.208 658.158 599.626H-277.594C-271.184 634.433 -267.062 653.829 -251.859 687.951Z" fill="#1C1C1C"/>
<path d="M-138.769 361.441C-173.177 602.794 -172.621 738.332 -138.769 979.712H139.656C169.105 707.588 162.916 578.667 139.656 361.441" stroke="white" stroke-width="5"/>
<path d="M-138.769 361.441C-173.177 602.794 -172.621 738.332 -138.769 979.712H139.656C169.105 707.588 162.916 578.667 139.656 361.441" stroke="black" stroke-opacity="0.2" stroke-width="5"/>
<path d="M266.049 361.441C231.641 602.794 232.197 738.332 266.049 979.712H544.475C573.923 707.588 567.734 578.667 544.475 361.441" stroke="white" stroke-width="5"/>
<path d="M266.049 361.441C231.641 602.794 232.197 738.332 266.049 979.712H544.475C573.923 707.588 567.734 578.667 544.475 361.441" stroke="black" stroke-opacity="0.2" stroke-width="5"/>
<path d="M192.859 -1071.69C-156.773 -1071.69 -342.423 -815.952 -443.141 -520.607C-478.65 -434.83 -586.667 -253.953 -406.344 -69.9438C-248.573 63.7308 -16.4012 72.8694 192.859 72.8694C402.119 72.8694 1120.94 99.3448 816.59 -520.607C715.872 -815.952 542.491 -1071.69 192.859 -1071.69Z" fill="white"/>
<path d="M192.859 -1071.69C-156.773 -1071.69 -342.423 -815.952 -443.141 -520.607C-478.65 -434.83 -586.667 -253.953 -406.344 -69.9438C-248.573 63.7308 -16.4012 72.8694 192.859 72.8694C402.119 72.8694 1120.94 99.3448 816.59 -520.607C715.872 -815.952 542.491 -1071.69 192.859 -1071.69Z" stroke="white" stroke-width="5"/>
<path d="M192.859 -1071.69C-156.773 -1071.69 -342.423 -815.952 -443.141 -520.607C-478.65 -434.83 -586.667 -253.953 -406.344 -69.9438C-248.573 63.7308 -16.4012 72.8694 192.859 72.8694C402.119 72.8694 1120.94 99.3448 816.59 -520.607C715.872 -815.952 542.491 -1071.69 192.859 -1071.69Z" stroke="black" stroke-opacity="0.2" stroke-width="5"/>
<path d="M-138.029 -411.401C-188.528 -411.401 -483.101 -405.795 -483.101 -258.381C-483.1 -13.941 -138.03 74.3835 201.736 74.3835C541.501 74.3835 884.028 -10.2608 884.028 -258.381C884.028 -405.795 589.455 -411.401 538.957 -411.401C488.459 -411.401 482.57 -320.426 437.96 -340.168C352.266 -378.09 322.067 -403.486 212.654 -403.486C103.241 -403.486 48.389 -377.97 -37.0329 -340.168C-81.6425 -320.426 -87.531 -411.401 -138.029 -411.401Z" fill="#CBCBCB"/>
<path d="M1079.65 880.135C1018.32 1019.69 878.098 1093.05 766.453 1043.98C654.808 994.918 614.021 842.011 675.352 702.454C736.683 562.898 876.908 489.541 988.553 538.606C1100.2 587.671 1140.99 740.579 1079.65 880.135Z" fill="#868084"/>
<path d="M1079.65 880.135C1018.32 1019.69 878.098 1093.05 766.453 1043.98C654.808 994.918 614.021 842.011 675.352 702.454C736.683 562.898 876.908 489.541 988.553 538.606C1100.2 587.671 1140.99 740.579 1079.65 880.135Z" stroke="#868084" stroke-width="5"/>
<path d="M1079.65 880.135C1018.32 1019.69 878.098 1093.05 766.453 1043.98C654.808 994.918 614.021 842.011 675.352 702.454C736.683 562.898 876.908 489.541 988.553 538.606C1100.2 587.671 1140.99 740.579 1079.65 880.135Z" stroke="black" stroke-opacity="0.2" stroke-width="5"/>
<path d="M-232.522 143.287H613.921L636.002 231.611H-254.604L-232.522 143.287Z" fill="#1C1C1C"/>
<path d="M-232.522 143.287H613.921L636.002 231.611H-254.604L-232.522 143.287Z" fill="#1C1C1C"/>
</g>
<defs>
<clipPath id="clip0_74_39">
<rect width="600" height="600" fill="white"/>
</clipPath>
</defs>
</svg>
